<svg width="10" height="6" viewBox="0 0 10 6" fill="none" xmlns="http://www.w3.org/2000/svg">
<path d="M0.859813 1.05999C0.765157 0.966107 0.711914 0.838309 0.711914 0.704991C0.711914 0.571672 0.765157 0.443874 0.859813 0.349991L1.05981 0.149991C1.15389 0.0523322 1.28423 -0.00197559 1.41981 -9.44494e-06H8.57981C8.7154 -0.00197559 8.84574 0.0523322 8.93981 0.149991L9.13981 0.349991C9.23447 0.443874 9.28771 0.571672 9.28771 0.704991C9.28771 0.838309 9.23447 0.966107 9.13981 1.05999L5.34981 4.84999C5.25908 4.94667 5.1324 5.00151 4.99981 5.00151C4.86723 5.00151 4.74055 4.94667 4.64981 4.84999L0.859813 1.05999Z" fill="#231F28"/>
</svg>
