<svg width="152" height="24" viewBox="0 0 152 24" fill="none" xmlns="http://www.w3.org/2000/svg">
<g clip-path="url(#clip0_1483_239687)">
<path d="M14.5906 8.73799C14.3311 7.81776 13.8714 6.96547 13.244 6.2414C12.0411 4.90245 10.2702 4.20508 7.98375 4.20508H4.47692V15.5722H6.90715V6.62495H7.99427C8.70973 6.60775 9.42247 6.71877 10.0984 6.95272C10.611 7.13403 11.0694 7.44105 11.431 7.84535C12.1954 8.69963 12.5777 10.0735 12.5777 11.9319C12.5777 13.7904 12.1639 15.227 11.3433 16.1162C10.937 16.5432 10.4311 16.8642 9.87042 17.0506C9.12087 17.297 8.33467 17.4149 7.54539 17.3993H7.46474H0.170532V19.8087H7.53487C9.9616 19.8087 11.8378 19.1114 13.1107 17.762C13.7792 17.0284 14.2709 16.1532 14.5485 15.2026C14.8592 14.1404 15.0093 13.0381 14.9939 11.9319C15.0106 10.8538 14.8749 9.77859 14.5906 8.73799Z" fill="#06508F"/>
<path d="M18.3141 6.8691C17.9311 5.47304 17.2439 4.17786 16.3012 3.0754C14.4917 1.03211 11.802 0 8.30214 0H0.1698V15.5827H2.60003V2.42685H8.2846C9.54448 2.40206 10.7986 2.60163 11.9878 3.01613C12.9404 3.35849 13.7916 3.93271 14.4636 4.68633C15.1761 5.52141 15.6945 6.50243 15.9821 7.55949C16.3667 8.96579 16.5497 10.419 16.5257 11.8762C16.5552 13.3679 16.3613 14.8556 15.9505 16.2906C15.6348 17.3807 15.0749 18.3857 14.3128 19.23C13.5675 20.0194 12.641 20.6176 11.6126 20.9734C10.3087 21.4055 8.93983 21.6119 7.5657 21.5836H0.1698V24.0244H7.53414C9.18692 24.0527 10.8323 23.798 12.3981 23.2712C13.7935 22.7902 15.0509 21.9803 16.0627 20.9107C17.0731 19.7985 17.8186 18.4745 18.244 17.0368C18.7325 15.3711 18.9688 13.6424 18.9454 11.9076C18.9784 10.2067 18.7658 8.50993 18.3141 6.8691Z" fill="#06508F"/>
<path d="M84.1055 17.2564V5.74976H86.5602V15.241H91.2559V17.2564H84.1055Z" fill="#06508F"/>
<path d="M96.7828 17.4135C95.3544 17.4135 94.2404 17.023 93.4408 16.2419C92.6378 15.4574 92.2345 14.352 92.2345 12.9155C92.2345 11.4789 92.6062 10.3003 93.3497 9.49485C94.0931 8.68939 95.1031 8.28491 96.4252 8.28491C97.6783 8.28491 98.6532 8.6336 99.3498 9.33097C100.047 10.0283 100.397 11.0081 100.402 12.2704V13.435H94.6823C94.674 14.0261 94.8921 14.5983 95.2924 15.0355C95.5062 15.2347 95.7585 15.3885 96.0341 15.4875C96.3096 15.5864 96.6026 15.6283 96.8951 15.6108C97.4037 15.6136 97.911 15.5574 98.4065 15.4434C98.9201 15.3191 99.4196 15.1427 99.8969 14.9169V16.7928C99.4661 17.0048 99.0101 17.1618 98.5398 17.2601C97.9612 17.3725 97.3723 17.424 96.7828 17.4135ZM96.4322 9.99347C96.2092 9.98424 95.9869 10.0231 95.7805 10.1074C95.5741 10.1916 95.3884 10.3193 95.2363 10.4816C94.9178 10.8779 94.7424 11.3691 94.7384 11.8764H98.1295C98.1562 11.3691 97.9882 10.8706 97.6596 10.4816C97.5033 10.319 97.3139 10.1913 97.104 10.1071C96.8942 10.0229 96.6688 9.98419 96.4427 9.99347H96.4322Z" fill="#06508F"/>
<path d="M107.675 17.2564L107.208 16.0604H107.145C106.813 16.5007 106.384 16.8587 105.89 17.1065C105.355 17.3208 104.782 17.4206 104.206 17.3994C103.84 17.4197 103.473 17.3662 103.128 17.2422C102.782 17.1182 102.466 16.9262 102.197 16.6776C101.941 16.4005 101.744 16.0747 101.618 15.72C101.492 15.3652 101.44 14.9888 101.464 14.6134C101.44 14.2181 101.518 13.8233 101.69 13.4663C101.863 13.1093 102.124 12.8021 102.449 12.5736C103.109 12.1273 104.101 11.8762 105.427 11.8344L106.963 11.7891V11.3881C106.963 10.4954 106.503 10.0491 105.584 10.0491C104.717 10.0882 103.867 10.3054 103.088 10.6872L102.288 9.06582C103.336 8.52917 104.5 8.2562 105.679 8.27082C106.867 8.27082 107.777 8.52769 108.411 9.04142C109.045 9.55515 109.361 10.3374 109.361 11.3881V17.2564H107.675ZM106.973 13.1768L106.037 13.2082C105.489 13.1885 104.946 13.32 104.469 13.5883C104.3 13.7038 104.164 13.8607 104.073 14.044C103.983 14.2273 103.942 14.4306 103.954 14.6343C103.954 15.3131 104.345 15.6525 105.129 15.6525C105.373 15.6644 105.617 15.628 105.847 15.5454C106.077 15.4628 106.288 15.3356 106.468 15.1713C106.638 15.0057 106.77 14.8065 106.857 14.5866C106.944 14.3668 106.984 14.1312 106.973 13.8951V13.1768Z" fill="#06508F"/>
<path d="M116.484 8.28509C116.758 8.27995 117.032 8.30451 117.301 8.35832L117.119 10.6108C116.889 10.5544 116.654 10.5274 116.417 10.5306C115.763 10.4906 115.118 10.7015 114.615 11.1199C114.394 11.3337 114.222 11.5923 114.111 11.8781C113.999 12.1639 113.951 12.4702 113.97 12.7762V17.2568H111.553V8.45246H113.384L113.735 9.93089H113.854C114.118 9.44897 114.497 9.03933 114.959 8.73838C115.412 8.44232 115.942 8.28473 116.484 8.28509Z" fill="#06508F"/>
<path d="M126.767 17.2567H124.351V12.1136C124.383 11.6127 124.26 11.1139 124 10.684C123.873 10.5206 123.707 10.3912 123.517 10.3078C123.327 10.2244 123.12 10.1895 122.913 10.2063C122.631 10.1829 122.348 10.2331 122.091 10.3517C121.835 10.4703 121.614 10.6533 121.45 10.8827C121.149 11.3291 120.998 12.0752 120.998 13.1143V17.2567H118.582V8.4524H120.454L120.781 9.57865H120.914C121.181 9.15515 121.568 8.81922 122.025 8.61279C122.532 8.38702 123.083 8.27511 123.639 8.28503C124.67 8.28503 125.452 8.56282 125.985 9.11839C126.511 9.66931 126.767 10.4817 126.767 11.5278V17.2567Z" fill="#06508F"/>
<path d="M128.87 6.17531C128.87 5.39193 129.308 5.00024 130.185 5.00024C131.061 5.00024 131.5 5.39193 131.5 6.17531C131.51 6.33499 131.486 6.49496 131.429 6.64464C131.372 6.79431 131.284 6.93028 131.17 7.04354C130.896 7.27242 130.542 7.3851 130.185 7.35736C129.308 7.34806 128.87 6.95404 128.87 6.17531ZM131.388 17.2565H128.971V8.45223H131.388V17.2565Z" fill="#06508F"/>
<path d="M141.772 17.2568H139.359V12.1136C139.392 11.6127 139.27 11.1139 139.009 10.684C138.883 10.5207 138.718 10.3913 138.528 10.3078C138.339 10.2244 138.132 10.1895 137.925 10.2063C137.643 10.1827 137.359 10.2327 137.102 10.3513C136.845 10.4699 136.623 10.6531 136.459 10.8828C136.158 11.3291 136.007 12.0753 136.007 13.1144V17.2568H133.591V8.45245H135.439L135.761 9.57871H135.898C136.164 9.15369 136.551 8.81731 137.01 8.61285C137.517 8.38664 138.068 8.27471 138.623 8.28508C139.652 8.28508 140.433 8.56287 140.966 9.11844C141.495 9.66936 141.772 10.4818 141.772 11.5279V17.2568Z" fill="#06508F"/>
<path d="M151.665 8.45201V9.6724L150.28 10.0211C150.533 10.4169 150.664 10.8772 150.658 11.3461C150.679 11.7661 150.599 12.185 150.427 12.569C150.255 12.9529 149.994 13.2913 149.666 13.5568C149 14.0833 148.081 14.3483 146.903 14.3483L146.464 14.3169L146.114 14.2785C146.006 14.3466 145.916 14.4389 145.852 14.548C145.787 14.6571 145.75 14.7798 145.742 14.9062C145.742 15.2549 146.187 15.4257 147.074 15.4257H148.579C149.549 15.4257 150.289 15.6338 150.799 16.0499C151.06 16.2744 151.266 16.5564 151.399 16.8734C151.532 17.1905 151.59 17.5341 151.567 17.877C151.581 18.3544 151.469 18.8273 151.241 19.2479C151.013 19.6685 150.678 20.0219 150.269 20.2724C149.406 20.8373 148.167 21.1209 146.552 21.1232C145.314 21.1232 144.371 20.907 143.718 20.4816C143.41 20.2934 143.157 20.0275 142.986 19.711C142.814 19.3945 142.729 19.0385 142.74 18.6789C142.73 18.1905 142.912 17.7175 143.248 17.3609C143.649 16.9656 144.16 16.6984 144.714 16.5938C144.456 16.4816 144.232 16.3036 144.066 16.0778C143.889 15.8642 143.792 15.5973 143.789 15.3211C143.778 15.0142 143.883 14.7144 144.083 14.4808C144.328 14.2176 144.613 13.9951 144.928 13.8218C144.468 13.6248 144.082 13.2895 143.824 12.8629C143.545 12.3898 143.404 11.8489 143.417 11.3008C143.392 10.8861 143.463 10.4714 143.624 10.0878C143.784 9.70428 144.03 9.36194 144.343 9.08661C144.97 8.56359 145.868 8.29858 147.036 8.29858C147.331 8.30338 147.627 8.3255 147.92 8.36484C148.27 8.41016 148.477 8.44503 148.572 8.46595L151.665 8.45201ZM144.823 18.5011C144.822 18.6628 144.867 18.8215 144.952 18.9594C145.037 19.0973 145.158 19.2091 145.303 19.2822C145.718 19.4921 146.182 19.5895 146.647 19.5646C147.343 19.5982 148.039 19.4792 148.684 19.2159C148.891 19.1467 149.071 19.0172 149.203 18.8443C149.334 18.6714 149.41 18.463 149.42 18.2466C149.431 18.0991 149.394 17.9521 149.316 17.8268C149.237 17.7015 149.12 17.6042 148.982 17.5492C148.55 17.4013 148.092 17.3374 147.635 17.3609H146.384C145.989 17.3458 145.601 17.4544 145.272 17.6712C145.132 17.7597 145.017 17.8825 144.938 18.0278C144.86 18.1731 144.82 18.3361 144.823 18.5011ZM145.703 11.3321C145.681 11.7372 145.797 12.138 146.033 12.4689C146.155 12.6123 146.309 12.7247 146.484 12.7969C146.658 12.8691 146.848 12.8988 147.036 12.8838C147.223 12.8997 147.412 12.8703 147.585 12.7981C147.759 12.7258 147.912 12.6129 148.032 12.4689C148.261 12.1353 148.373 11.7357 148.351 11.3321C148.351 10.2721 147.913 9.74214 147.036 9.74214C146.159 9.74214 145.715 10.2721 145.703 11.3321Z" fill="#06508F"/>
<path d="M34.2911 11.8208C34.2911 13.606 33.8036 14.9706 32.8287 15.9143C31.8538 16.8581 30.4511 17.33 28.6205 17.33H25.6082V6.52075H28.9396C30.6299 6.52075 31.9438 6.98567 32.8813 7.91549C33.8188 8.84532 34.2887 10.1471 34.2911 11.8208ZM32.9515 11.8661C32.9515 10.4551 32.6008 9.39276 31.8994 8.67911C31.198 7.96547 30.1401 7.60749 28.7257 7.60516H26.8881V16.2421H28.4276C29.9356 16.2421 31.0683 15.8736 31.8258 15.1368C32.5832 14.3999 32.9585 13.3131 32.9515 11.8766V11.8661Z" fill="#06508F"/>
<path d="M39.6812 17.4764C39.1552 17.5039 38.6293 17.4206 38.138 17.2319C37.6466 17.0433 37.201 16.7535 36.8301 16.3816C36.1288 15.6516 35.7781 14.6393 35.7781 13.3445C35.7781 12.0369 36.1007 11.0013 36.7495 10.2308C37.0675 9.85361 37.4686 9.5543 37.9216 9.35598C38.3747 9.15766 38.8675 9.06565 39.3621 9.08707C39.816 9.06601 40.269 9.14513 40.6886 9.31875C41.1082 9.49238 41.4839 9.7562 41.7888 10.0913C42.4085 10.83 42.7265 11.7734 42.6795 12.7343V13.5084H37.0686C37.0931 14.4603 37.3351 15.1856 37.7945 15.6772C38.0457 15.9289 38.348 16.1243 38.6812 16.2506C39.0144 16.3769 39.3708 16.431 39.7268 16.4095C40.6227 16.4063 41.5084 16.22 42.3288 15.862V16.9569C41.9311 17.1325 41.5163 17.2668 41.0909 17.3579C40.6264 17.4461 40.154 17.4858 39.6812 17.4764ZM39.348 10.1052C39.0567 10.0923 38.766 10.1423 38.4959 10.2518C38.2259 10.3614 37.983 10.5279 37.784 10.7398C37.3614 11.2339 37.1149 11.8529 37.0826 12.5007H41.3434C41.3867 11.8656 41.2029 11.2358 40.8244 10.7224C40.6414 10.515 40.4135 10.3517 40.1577 10.2448C39.9019 10.1378 39.6251 10.0901 39.348 10.1052Z" fill="#06508F"/>
<path d="M48.1679 10.1785H46.1094V17.3301H44.875V10.1785H43.4161V9.62414L44.875 9.18131V8.73848C44.875 6.744 45.7493 5.74792 47.4981 5.75025C48.0139 5.76475 48.5251 5.85162 49.0165 6.00827L48.6834 6.99505C48.2908 6.85689 47.8792 6.77928 47.463 6.76492C47.2626 6.748 47.0611 6.78163 46.8772 6.86269C46.6933 6.94375 46.5329 7.06963 46.411 7.22867C46.1521 7.67792 46.036 8.19451 46.0778 8.71058V9.22664H48.1504L48.1679 10.1785ZM49.5531 7.04038C49.5425 6.92886 49.5555 6.81637 49.5911 6.7101C49.6267 6.60383 49.6842 6.50612 49.76 6.42321C49.8292 6.35809 49.9107 6.3073 49.9998 6.27378C50.0889 6.24026 50.1838 6.22468 50.279 6.22795C50.4703 6.22474 50.6554 6.29607 50.7945 6.4267C50.8719 6.50628 50.9319 6.601 50.9705 6.70485C51.0091 6.80869 51.0256 6.9194 51.0189 7.02992C51.0281 7.14191 51.0139 7.25458 50.9771 7.36081C50.9402 7.46704 50.8817 7.56452 50.805 7.64709C50.7368 7.71304 50.6561 7.76487 50.5677 7.79959C50.4792 7.8343 50.3846 7.85121 50.2895 7.84933C50.1937 7.85269 50.0982 7.83647 50.0089 7.80169C49.9197 7.7669 49.8385 7.71429 49.7705 7.64709C49.6939 7.56434 49.6352 7.46692 49.5978 7.3608C49.5604 7.25468 49.5452 7.14209 49.5531 7.02992V7.04038ZM50.8892 17.3405H49.6548V9.22664H50.8892V17.3405Z" fill="#06508F"/>
<path d="M58.7968 17.3304V12.1001C58.8403 11.5675 58.6772 11.0385 58.3409 10.6217C58.1538 10.4482 57.9325 10.3153 57.6911 10.2312C57.4496 10.1472 57.1933 10.1139 56.9382 10.1335C56.0849 10.1335 55.4606 10.366 55.0655 10.8309C54.6704 11.2958 54.4717 12.0525 54.4694 13.1008V17.3304H53.235V9.22695H54.2414L54.4413 10.3358H54.5009C54.7555 9.93317 55.1205 9.61134 55.553 9.40827C56.028 9.17751 56.5498 9.05822 57.0785 9.05958C58.0604 9.05958 58.7968 9.29669 59.2948 9.75695C59.7928 10.2172 60.0382 10.9808 60.0382 12.0164V17.3304H58.7968Z" fill="#06508F"/>
<path d="M65.7194 17.4764C65.1934 17.5039 64.6675 17.4206 64.1762 17.2319C63.6849 17.0433 63.2392 16.7535 62.8683 16.3816C62.167 15.6516 61.8163 14.6393 61.8163 13.3445C61.8163 12.0369 62.1389 11.0013 62.7877 10.2308C63.1054 9.85409 63.5059 9.55507 63.9582 9.35676C64.4106 9.15846 64.9028 9.06619 65.3968 9.08707C65.8507 9.06601 66.3037 9.14513 66.7233 9.31875C67.1429 9.49238 67.5186 9.7562 67.8235 10.0913C68.4433 10.83 68.7612 11.7734 68.7142 12.7343V13.5084H63.1033C63.1278 14.4603 63.3698 15.1856 63.8292 15.6772C64.0808 15.9293 64.3837 16.1251 64.7175 16.2514C65.0513 16.3776 65.4085 16.4315 65.765 16.4095C66.6609 16.4063 67.5466 16.22 68.367 15.862V16.9569C67.9693 17.1325 67.5545 17.2668 67.1291 17.3579C66.6646 17.4461 66.1922 17.4858 65.7194 17.4764ZM65.3968 10.1052C65.1054 10.0923 64.8147 10.1423 64.5447 10.2518C64.2747 10.3614 64.0317 10.5279 63.8327 10.7398C63.4102 11.2339 63.1636 11.8529 63.1313 12.5007H67.3921C67.4355 11.8656 67.2516 11.2358 66.8731 10.7224C66.6902 10.515 66.4622 10.3517 66.2064 10.2448C65.9507 10.1378 65.6738 10.0901 65.3968 10.1052Z" fill="#06508F"/>
<path d="M76.0822 16.2422H76.0156C75.7312 16.6491 75.3464 16.9763 74.898 17.1925C74.4497 17.4087 73.953 17.5065 73.4556 17.4765C72.9863 17.5026 72.5174 17.4198 72.0859 17.2346C71.6543 17.0494 71.2721 16.767 70.9692 16.4096C70.3778 15.6843 70.0808 14.6534 70.0785 13.3167C70.0762 11.9801 70.3742 10.9422 70.9727 10.203C71.2691 9.83404 71.6494 9.54046 72.0823 9.34645C72.5152 9.15245 72.9883 9.06358 73.4626 9.08718C73.9532 9.06192 74.4424 9.15831 74.8862 9.36769C75.33 9.57706 75.7145 9.89286 76.0051 10.2867H76.1032L76.0506 9.70087L76.0226 9.13251V5.82349H77.257V17.3301H76.2505L76.0822 16.2422ZM73.6274 16.4514C74.4691 16.4514 75.0792 16.219 75.458 15.754C75.8367 15.3008 76.0296 14.565 76.0296 13.5469V13.2888C76.0296 12.1428 75.8367 11.3292 75.451 10.848C75.0652 10.3669 74.4515 10.1216 73.6099 10.1123C73.2834 10.0975 72.9586 10.1672 72.6673 10.3145C72.376 10.4618 72.128 10.6816 71.9476 10.9526C71.5205 11.6642 71.3155 12.4857 71.3585 13.3132C71.3585 14.3477 71.549 15.1299 71.9301 15.6599C72.1218 15.9212 72.3763 16.1305 72.6704 16.2688C72.9644 16.4071 73.2886 16.4698 73.6134 16.4514H73.6274Z" fill="#06508F"/>
</g>
<defs>
<clipPath id="clip0_1483_239687">
<rect width="152" height="24" fill="white"/>
</clipPath>
</defs>
</svg>
