<svg width="160" height="145" viewBox="0 0 160 145" fill="none" xmlns="http://www.w3.org/2000/svg">
<rect x="0.000549316" y="0.751709" width="159.999" height="43.049" rx="5.73987" fill="#F3F4F7"/>
<rect x="11.4803" y="14.0251" width="75.3358" height="6.45736" rx="3.22868" fill="#B0B5C9"/>
<rect x="11.4803" y="24.0698" width="51.6588" height="6.45736" rx="3.22868" fill="#DADDE6"/>
<path d="M138.475 32.3208C144.023 32.3208 148.52 27.8236 148.52 22.276C148.52 16.7284 144.023 12.2312 138.475 12.2312C132.927 12.2312 128.43 16.7284 128.43 22.276C128.43 27.8236 132.927 32.3208 138.475 32.3208Z" fill="white"/>
<path fill-rule="evenodd" clip-rule="evenodd" d="M135.919 24.7785C135.253 25.2221 134.888 25.8021 134.888 26.4515V27.059H142.062V26.4611C142.062 26.4595 142.062 26.4579 142.062 26.4563C142.062 26.4547 142.062 26.4531 142.062 26.4515C142.062 25.8024 141.697 25.2224 141.031 24.7787C140.36 24.3324 139.432 24.0647 138.475 24.0647C137.518 24.0647 136.59 24.3322 135.919 24.7785ZM143.258 26.4563C143.258 26.4547 143.258 26.4531 143.258 26.4515C143.258 25.292 142.589 24.3796 141.693 23.7831C140.801 23.1893 139.635 22.8689 138.475 22.8689C137.315 22.8689 136.149 23.1891 135.257 23.7829C134.36 24.3794 133.692 25.2918 133.692 26.4515V27.059C133.692 27.7193 134.227 28.2548 134.888 28.2548H142.062C142.723 28.2548 143.258 27.7193 143.258 27.059V26.4611C143.258 26.4595 143.258 26.4579 143.258 26.4563Z" fill="#DADDE6"/>
<path fill-rule="evenodd" clip-rule="evenodd" d="M139.528 18.5267C138.947 17.9449 138.003 17.9449 137.421 18.5267C136.839 19.1086 136.839 20.052 137.421 20.6339C138.003 21.2158 138.947 21.2158 139.528 20.6339C140.11 20.052 140.11 19.1086 139.528 18.5267ZM140.374 17.6812C139.325 16.6323 137.625 16.6323 136.576 17.6812C135.527 18.73 135.527 20.4306 136.576 21.4794C137.625 22.5283 139.325 22.5283 140.374 21.4794C141.423 20.4306 141.423 18.73 140.374 17.6812Z" fill="#DADDE6"/>
<path d="M124.125 32.6797C129.871 32.6797 134.529 28.0219 134.529 22.2762C134.529 16.5305 129.871 11.8727 124.125 11.8727C118.38 11.8727 113.722 16.5305 113.722 22.2762C113.722 28.0219 118.38 32.6797 124.125 32.6797Z" fill="white" stroke="#F3F4F7" stroke-width="0.717484"/>
<path fill-rule="evenodd" clip-rule="evenodd" d="M121.57 24.7787C120.903 25.2223 120.538 25.8023 120.538 26.4518V27.0592H127.713V26.4613C127.713 26.4597 127.713 26.4582 127.713 26.4566C127.713 26.455 127.713 26.4534 127.713 26.4518C127.713 25.8026 127.348 25.2226 126.681 24.7789C126.01 24.3326 125.083 24.0649 124.125 24.0649C123.168 24.0649 122.24 24.3325 121.57 24.7787ZM128.909 26.4566C128.909 26.455 128.909 26.4534 128.909 26.4518C128.909 25.2923 128.24 24.3799 127.343 23.7834C126.451 23.1895 125.286 22.8691 124.125 22.8691C122.965 22.8691 121.8 23.1893 120.907 23.7831C120.011 24.3796 119.342 25.292 119.342 26.4518V27.0592C119.342 27.7195 119.878 28.2551 120.538 28.2551H127.713C128.373 28.2551 128.909 27.7195 128.909 27.0592V26.4613C128.909 26.4597 128.909 26.4582 128.909 26.4566Z" fill="#DADDE6"/>
<path fill-rule="evenodd" clip-rule="evenodd" d="M125.179 18.527C124.597 17.9451 123.653 17.9451 123.072 18.527C122.49 19.1089 122.49 20.0523 123.072 20.6341C123.653 21.216 124.597 21.216 125.179 20.6341C125.761 20.0523 125.761 19.1089 125.179 18.527ZM126.024 17.6814C124.975 16.6326 123.275 16.6326 122.226 17.6814C121.177 18.7303 121.177 20.4308 122.226 21.4797C123.275 22.5286 124.975 22.5286 126.024 21.4797C127.073 20.4308 127.073 18.7303 126.024 17.6814Z" fill="#DADDE6"/>
<rect x="0.000549316" y="50.9756" width="159.999" height="43.049" rx="5.73987" fill="#F3F4F7"/>
<rect x="11.4803" y="64.2488" width="75.3358" height="6.45736" rx="3.22868" fill="#B0B5C9"/>
<rect x="11.4803" y="74.2932" width="51.6588" height="6.45736" rx="3.22868" fill="#DADDE6"/>
<path d="M138.475 82.5446C144.023 82.5446 148.52 78.0474 148.52 72.4999C148.52 66.9523 144.023 62.4551 138.475 62.4551C132.927 62.4551 128.43 66.9523 128.43 72.4999C128.43 78.0474 132.927 82.5446 138.475 82.5446Z" fill="white"/>
<path fill-rule="evenodd" clip-rule="evenodd" d="M135.919 75.0024C135.253 75.446 134.888 76.0259 134.888 76.6754V77.2829H142.062V76.685C142.062 76.6834 142.062 76.6818 142.062 76.6802C142.062 76.6786 142.062 76.677 142.062 76.6754C142.062 76.0263 141.697 75.4463 141.031 75.0026C140.36 74.5562 139.432 74.2886 138.475 74.2886C137.518 74.2886 136.59 74.5561 135.919 75.0024ZM143.258 76.6802C143.258 76.6786 143.258 76.677 143.258 76.6754C143.258 75.5159 142.589 74.6035 141.693 74.007C140.801 73.4132 139.635 73.0928 138.475 73.0928C137.315 73.0928 136.149 73.413 135.257 74.0068C134.36 74.6032 133.692 75.5156 133.692 76.6754V77.2829C133.692 77.9431 134.227 78.4787 134.888 78.4787H142.062C142.723 78.4787 143.258 77.9431 143.258 77.2829V76.685C143.258 76.6834 143.258 76.6818 143.258 76.6802Z" fill="#DADDE6"/>
<path fill-rule="evenodd" clip-rule="evenodd" d="M139.528 68.7506C138.947 68.1687 138.003 68.1687 137.421 68.7506C136.839 69.3325 136.839 70.2759 137.421 70.8578C138.003 71.4396 138.947 71.4396 139.528 70.8578C140.11 70.2759 140.11 69.3325 139.528 68.7506ZM140.374 67.9051C139.325 66.8562 137.625 66.8562 136.576 67.9051C135.527 68.9539 135.527 70.6545 136.576 71.7033C137.625 72.7522 139.325 72.7522 140.374 71.7033C141.423 70.6545 141.423 68.9539 140.374 67.9051Z" fill="#DADDE6"/>
<path d="M124.125 82.9034C129.871 82.9034 134.529 78.2456 134.529 72.4999C134.529 66.7541 129.871 62.0963 124.125 62.0963C118.38 62.0963 113.722 66.7541 113.722 72.4999C113.722 78.2456 118.38 82.9034 124.125 82.9034Z" fill="white" stroke="#F3F4F7" stroke-width="0.717484"/>
<path fill-rule="evenodd" clip-rule="evenodd" d="M121.57 75.0024C120.903 75.446 120.538 76.0259 120.538 76.6754V77.2829H127.713V76.685C127.713 76.6834 127.713 76.6818 127.713 76.6802C127.713 76.6786 127.713 76.677 127.713 76.6754C127.713 76.0263 127.348 75.4463 126.681 75.0026C126.01 74.5562 125.083 74.2886 124.125 74.2886C123.168 74.2886 122.24 74.5561 121.57 75.0024ZM128.909 76.6802C128.909 76.6786 128.909 76.677 128.909 76.6754C128.909 75.5159 128.24 74.6035 127.343 74.007C126.451 73.4132 125.286 73.0928 124.125 73.0928C122.965 73.0928 121.8 73.413 120.907 74.0068C120.011 74.6032 119.342 75.5156 119.342 76.6754V77.2829C119.342 77.9431 119.878 78.4787 120.538 78.4787H127.713C128.373 78.4787 128.909 77.9431 128.909 77.2829V76.685C128.909 76.6834 128.909 76.6818 128.909 76.6802Z" fill="#DADDE6"/>
<path fill-rule="evenodd" clip-rule="evenodd" d="M125.179 68.7506C124.597 68.1687 123.653 68.1687 123.072 68.7506C122.49 69.3325 122.49 70.2759 123.072 70.8578C123.653 71.4396 124.597 71.4396 125.179 70.8578C125.761 70.2759 125.761 69.3325 125.179 68.7506ZM126.024 67.9051C124.975 66.8562 123.275 66.8562 122.226 67.9051C121.177 68.9539 121.177 70.6545 122.226 71.7033C123.275 72.7522 124.975 72.7522 126.024 71.7033C127.073 70.6545 127.073 68.9539 126.024 67.9051Z" fill="#DADDE6"/>
<rect x="0.000549316" y="101.2" width="159.999" height="43.049" rx="5.73987" fill="#F3F4F7"/>
<rect x="11.4803" y="114.473" width="75.3358" height="6.45736" rx="3.22868" fill="#B0B5C9"/>
<rect x="11.4803" y="124.518" width="51.6588" height="6.45736" rx="3.22868" fill="#DADDE6"/>
<path d="M138.475 132.769C144.023 132.769 148.52 128.272 148.52 122.724C148.52 117.177 144.023 112.68 138.475 112.68C132.927 112.68 128.43 117.177 128.43 122.724C128.43 128.272 132.927 132.769 138.475 132.769Z" fill="white"/>
<path fill-rule="evenodd" clip-rule="evenodd" d="M135.919 125.227C135.253 125.671 134.888 126.251 134.888 126.9V127.507H142.062V126.91C142.062 126.908 142.062 126.906 142.062 126.905C142.062 126.903 142.062 126.902 142.062 126.9C142.062 126.251 141.697 125.671 141.031 125.227C140.36 124.781 139.432 124.513 138.475 124.513C137.518 124.513 136.59 124.781 135.919 125.227ZM143.258 126.905C143.258 126.903 143.258 126.902 143.258 126.9C143.258 125.741 142.589 124.828 141.693 124.232C140.801 123.638 139.635 123.317 138.475 123.317C137.315 123.317 136.149 123.638 135.257 124.231C134.36 124.828 133.692 125.74 133.692 126.9V127.507C133.692 128.168 134.227 128.703 134.888 128.703H142.062C142.723 128.703 143.258 128.168 143.258 127.507V126.91C143.258 126.908 143.258 126.906 143.258 126.905Z" fill="#DADDE6"/>
<path fill-rule="evenodd" clip-rule="evenodd" d="M139.528 118.975C138.947 118.394 138.003 118.394 137.421 118.975C136.839 119.557 136.839 120.501 137.421 121.083C138.003 121.664 138.947 121.664 139.528 121.083C140.11 120.501 140.11 119.557 139.528 118.975ZM140.374 118.13C139.325 117.081 137.625 117.081 136.576 118.13C135.527 119.179 135.527 120.879 136.576 121.928C137.625 122.977 139.325 122.977 140.374 121.928C141.423 120.879 141.423 119.179 140.374 118.13Z" fill="#DADDE6"/>
<path d="M124.125 133.128C129.871 133.128 134.529 128.47 134.529 122.724C134.529 116.979 129.871 112.321 124.125 112.321C118.38 112.321 113.722 116.979 113.722 122.724C113.722 128.47 118.38 133.128 124.125 133.128Z" fill="white" stroke="#F3F4F7" stroke-width="0.717484"/>
<path fill-rule="evenodd" clip-rule="evenodd" d="M121.57 125.227C120.903 125.671 120.538 126.251 120.538 126.9V127.507H127.713V126.91C127.713 126.908 127.713 126.906 127.713 126.905C127.713 126.903 127.713 126.902 127.713 126.9C127.713 126.251 127.348 125.671 126.681 125.227C126.01 124.781 125.083 124.513 124.125 124.513C123.168 124.513 122.24 124.781 121.57 125.227ZM128.909 126.905C128.909 126.903 128.909 126.902 128.909 126.9C128.909 125.741 128.24 124.828 127.343 124.232C126.451 123.638 125.286 123.317 124.125 123.317C122.965 123.317 121.8 123.638 120.907 124.231C120.011 124.828 119.342 125.74 119.342 126.9V127.507C119.342 128.168 119.878 128.703 120.538 128.703H127.713C128.373 128.703 128.909 128.168 128.909 127.507V126.91C128.909 126.908 128.909 126.906 128.909 126.905Z" fill="#DADDE6"/>
<path fill-rule="evenodd" clip-rule="evenodd" d="M125.179 118.975C124.597 118.394 123.653 118.394 123.072 118.975C122.49 119.557 122.49 120.501 123.072 121.083C123.653 121.664 124.597 121.664 125.179 121.083C125.761 120.501 125.761 119.557 125.179 118.975ZM126.024 118.13C124.975 117.081 123.275 117.081 122.226 118.13C121.177 119.179 121.177 120.879 122.226 121.928C123.275 122.977 124.975 122.977 126.024 121.928C127.073 120.879 127.073 119.179 126.024 118.13Z" fill="#DADDE6"/>
</svg>
