<svg width="24" height="24" fill="none" xmlns="http://www.w3.org/2000/svg">
  <g clip-path="url(#clip0)">
    <path d="M21.818 3.818H2.182v16.364h19.636V3.818z" fill="#0F9D58"/>
    <path d="M7.636 12.546a1.228 1.228 0 11.002-2.456 1.228 1.228 0 01-.002 2.456zm0 .818c1.314 0 2.728.695 2.728 1.559v.895H4.909v-.895c0-.864 1.414-1.56 2.727-1.56zm8.728-.819a1.228 1.228 0 11.001-2.455 1.228 1.228 0 01-.001 2.456zm0 .819c1.313 0 2.727.695 2.727 1.559v.895h-5.455v-.895c0-.864 1.414-1.56 2.728-1.56z" fill="#57BB8A"/>
    <path d="M12 11.454a1.635 1.635 0 110-3.272 1.635 1.635 0 110 3.272zm0 1.091c1.841 0 3.818.978 3.818 2.182v1.091H8.182v-1.09c0-1.205 1.977-2.183 3.818-2.183z" fill="#F7F7F7"/>
    <path d="M9.818 19.09H4.91v1.092h4.91V19.09z" fill="#F1F1F1"/>
    <path d="M1.636 1.636h20.728c.904 0 1.636.732 1.636 1.637v17.454c0 .905-.732 1.637-1.636 1.637H1.636A1.635 1.635 0 010 20.727V3.273c0-.905.732-1.637 1.636-1.637zm.546 18.546h19.636V3.818H2.182v16.364z" fill="#F4B400"/>
    <path opacity=".2" d="M1.636 1.636h20.728c.904 0 1.636.732 1.636 1.637v.136c0-.904-.732-1.636-1.636-1.636H1.636C.732 1.773 0 2.505 0 3.409v-.136c0-.905.732-1.637 1.636-1.637z" fill="#fff"/>
    <path opacity=".2" d="M1.636 22.227h20.728c.904 0 1.636-.732 1.636-1.636v.136c0 .905-.732 1.637-1.636 1.637H1.636A1.635 1.635 0 010 20.727v-.136c0 .904.732 1.636 1.636 1.636z" fill="#BF360C"/>
    <path d="M4.918 20.182h4.91l-2.183 2.182H2.741l2.177-2.182z" fill="url(#paint0_linear)"/>
    <path opacity=".2" d="M21.818 3.682H2.182v.136h19.636v-.136z" fill="#263238"/>
    <path opacity=".2" d="M21.818 20.182H2.182v.136h19.636v-.136z" fill="#fff"/>
    <path d="M1.636 1.636h20.728c.904 0 1.636.732 1.636 1.637v17.454c0 .905-.732 1.637-1.636 1.637H1.636A1.635 1.635 0 010 20.727V3.273c0-.905.732-1.637 1.636-1.637z" fill="url(#paint1_radial)"/>
  </g>
  <defs>
    <radialGradient id="paint1_radial" cx="0" cy="0" r="1" gradientUnits="userSpaceOnUse" gradientTransform="matrix(-99.0241 0 0 -99.0237 23.294 2.122)">
      <stop stop-color="#fff" stop-opacity=".1"/>
      <stop offset="1" stop-color="#fff" stop-opacity="0"/>
    </radialGradient>
    <linearGradient id="paint0_linear" x1="6.284" y1="20.212" x2="6.284" y2="22.386" gradientUnits="userSpaceOnUse">
      <stop stop-color="#BF360C" stop-opacity=".2"/>
      <stop offset="1" stop-color="#BF360C" stop-opacity=".02"/>
    </linearGradient>
    <clipPath id="clip0">
      <path fill="#fff" transform="matrix(-1 0 0 1 24 0)" d="M0 0h24v24H0z"/>
    </clipPath>
  </defs>
</svg>
