<svg width="301" height="48" viewBox="0 0 301 48" fill="currentColor" xmlns="http://www.w3.org/2000/svg">
  <g>
    <path d="M28.8925 17.4761C28.3785 15.6356 27.4682 13.9311 26.2258 12.4829C23.8439 9.80502 20.3369 8.41028 15.8091 8.41028H8.86469V31.1446H13.6772V13.25H15.83C17.2468 13.2156 18.6582 13.4377 19.9966 13.9056C21.0118 14.2682 21.9195 14.8822 22.6355 15.6908C24.1494 17.3994 24.9064 20.147 24.9064 23.864C24.9064 27.581 24.0869 30.4542 22.4619 32.2325C21.6574 33.0866 20.6556 33.7285 19.5453 34.1014C18.0609 34.5941 16.5041 34.8299 14.9411 34.7988H14.7814H0.336914V39.6176H14.9202C19.7258 39.6176 23.4411 38.2229 25.9619 35.524C27.2856 34.057 28.2593 32.3065 28.8091 30.4053C29.4244 28.2809 29.7216 26.0763 29.6911 23.864C29.7242 21.7076 29.4554 19.5573 28.8925 17.4761V17.4761Z"/>
    <path d="M36.2665 13.7382C35.5081 10.9461 34.1472 8.35571 32.2804 6.15081C28.6971 2.06422 23.3707 0 16.4401 0H0.335938V31.1655H5.14844V4.8537H16.4054C18.9003 4.80413 21.3838 5.20327 23.7387 6.03225C25.6252 6.71698 27.3108 7.86541 28.6415 9.37266C30.0523 11.0428 31.079 13.0049 31.6484 15.119C32.4101 17.9316 32.7725 20.8381 32.7248 23.7524C32.7833 26.7358 32.3995 29.7112 31.5859 32.5811C30.9607 34.7615 29.852 36.7713 28.3429 38.46C26.867 40.0388 25.0323 41.2351 22.9957 41.9468C20.4135 42.8109 17.7029 43.2237 14.9818 43.1672H0.335938V48.0488H14.9193C18.1922 48.1055 21.4504 47.596 24.5512 46.5425C27.3144 45.5805 29.8044 43.9605 31.8082 41.8213C33.8088 39.597 35.2852 36.949 36.1276 34.0735C37.0949 30.7422 37.563 27.2849 37.5165 23.8152C37.582 20.4134 37.161 17.0199 36.2665 13.7382V13.7382Z"/>
    <g class="logotype-text">
      <path d="M166.551 34.513V11.4998H171.412V30.4822H180.71V34.513H166.551Z"/>
      <path d="M191.655 34.8267C188.827 34.8267 186.621 34.0457 185.037 32.4836C183.447 30.9145 182.648 28.7038 182.648 25.8307C182.648 22.9575 183.385 20.6004 184.857 18.9895C186.329 17.3785 188.329 16.5696 190.947 16.5696C193.429 16.5696 195.359 17.267 196.739 18.6617C198.118 20.0564 198.813 22.016 198.822 24.5405V26.8697H187.496C187.479 28.052 187.911 29.1964 188.704 30.0707C189.127 30.4692 189.627 30.7768 190.173 30.9747C190.718 31.1725 191.298 31.2564 191.878 31.2213C192.885 31.2269 193.889 31.1146 194.871 30.8866C195.888 30.6381 196.877 30.2852 197.822 29.8336V33.5854C196.969 34.0094 196.066 34.3234 195.135 34.5199C193.989 34.7448 192.823 34.8477 191.655 34.8267ZM190.961 19.9867C190.519 19.9682 190.079 20.0459 189.67 20.2145C189.262 20.383 188.894 20.6384 188.593 20.963C187.962 21.7556 187.615 22.738 187.607 23.7525H194.322C194.375 22.7379 194.042 21.7409 193.391 20.963C193.082 20.6377 192.707 20.3823 192.291 20.214C191.876 20.0456 191.429 19.9681 190.982 19.9867H190.961Z"/>
      <path d="M213.224 34.5129L212.3 32.1209H212.175C211.518 33.0015 210.668 33.7175 209.689 34.213C208.632 34.6416 207.496 34.8413 206.356 34.7988C205.63 34.8394 204.904 34.7325 204.22 34.4844C203.536 34.2364 202.909 33.8523 202.377 33.3552C201.87 32.8009 201.48 32.1494 201.231 31.44C200.982 30.7305 200.878 29.9777 200.925 29.2268C200.878 28.4362 201.032 27.6465 201.374 26.9326C201.715 26.2187 202.233 25.6041 202.877 25.1472C204.182 24.2546 206.148 23.7524 208.773 23.6688L211.814 23.5781V22.7761C211.814 20.9909 210.905 20.0982 209.085 20.0982C207.367 20.1763 205.683 20.6108 204.141 21.3744L202.557 18.1316C204.633 17.0583 206.938 16.5124 209.273 16.5416C211.624 16.5416 213.428 17.0554 214.682 18.0828C215.937 19.1103 216.564 20.6747 216.564 22.7761V34.5129H213.224ZM211.835 26.3536L209.981 26.4164C208.896 26.3769 207.822 26.64 206.877 27.1765C206.542 27.4075 206.272 27.7215 206.093 28.088C205.914 28.4545 205.832 28.8612 205.856 29.2687C205.856 30.6262 206.631 31.305 208.182 31.305C208.666 31.3287 209.149 31.2559 209.605 31.0907C210.06 30.9255 210.478 30.6712 210.835 30.3426C211.171 30.0114 211.433 29.613 211.606 29.1733C211.778 28.7335 211.856 28.2623 211.835 27.7902V26.3536Z"/>
      <path d="M230.669 16.5696C231.212 16.5593 231.755 16.6084 232.287 16.716L231.926 21.221C231.472 21.1082 231.005 21.0543 230.537 21.0606C229.241 20.9806 227.964 21.4023 226.968 22.2392C226.53 22.6668 226.19 23.184 225.969 23.7556C225.749 24.3272 225.654 24.9398 225.69 25.5517V34.5129H220.905V16.9043H224.53L225.225 19.8612H225.461C225.983 18.8973 226.735 18.078 227.648 17.4762C228.545 16.884 229.596 16.5688 230.669 16.5696Z"/>
      <path d="M251.031 34.5129H246.246V24.2267C246.31 23.2249 246.067 22.2273 245.551 21.3675C245.3 21.0406 244.972 20.782 244.596 20.6151C244.22 20.4483 243.808 20.3785 243.399 20.4121C242.841 20.3654 242.28 20.4656 241.772 20.7029C241.264 20.9401 240.827 21.3062 240.503 21.765C239.906 22.6576 239.607 24.15 239.607 26.2282V34.5129H234.822V16.9043H238.531L239.176 19.1568H239.44C239.969 18.3098 240.735 17.638 241.642 17.2251C242.646 16.7736 243.736 16.5497 244.836 16.5696C246.878 16.5696 248.426 17.1251 249.482 18.2363C250.524 19.3381 251.031 20.963 251.031 23.0551V34.5129Z"/>
      <path d="M255.196 12.3505C255.196 10.7837 256.064 10.0004 257.8 10.0004C259.537 10.0004 260.405 10.7837 260.405 12.3505C260.424 12.6699 260.377 12.9898 260.264 13.2891C260.151 13.5885 259.977 13.8604 259.752 14.087C259.208 14.5447 258.508 14.7701 257.8 14.7146C256.064 14.696 255.196 13.908 255.196 12.3505ZM260.182 34.5129H255.398V16.9043H260.182V34.5129Z"/>
      <path d="M280.745 34.5129H275.968V24.2267C276.032 23.2248 275.789 22.2271 275.273 21.3675C275.024 21.0407 274.696 20.782 274.321 20.6151C273.947 20.4482 273.536 20.3784 273.127 20.4121C272.568 20.3648 272.006 20.4648 271.497 20.702C270.988 20.9393 270.55 21.3056 270.225 21.765C269.627 22.6576 269.329 24.15 269.329 26.2281V34.5129H264.544V16.9043H268.204L268.843 19.1568H269.113C269.639 18.3068 270.405 17.634 271.315 17.2251C272.318 16.7727 273.409 16.5488 274.509 16.5696C276.546 16.5696 278.093 17.1251 279.148 18.2363C280.197 19.3381 280.745 20.963 280.745 23.0551V34.5129Z"/>
      <path d="M300.336 16.9044V19.3452L297.593 20.0425C298.093 20.8341 298.354 21.7549 298.343 22.6926C298.383 23.5326 298.226 24.3703 297.884 25.1383C297.543 25.9062 297.027 26.5829 296.377 27.1139C295.058 28.1669 293.238 28.6969 290.905 28.6969L290.037 28.6341L289.343 28.5574C289.13 28.6935 288.952 28.8781 288.824 29.0963C288.696 29.3145 288.622 29.56 288.606 29.8127C288.606 30.5101 289.488 30.8518 291.245 30.8518H294.225C296.146 30.8518 297.611 31.2679 298.62 32.1001C299.138 32.5492 299.546 33.1131 299.81 33.7472C300.073 34.3814 300.187 35.0685 300.141 35.7543C300.17 36.7092 299.948 37.655 299.497 38.4961C299.046 39.3373 298.382 40.0441 297.572 40.5452C295.863 41.675 293.41 42.2422 290.211 42.2468C287.759 42.2468 285.891 41.8144 284.6 40.9637C283.989 40.5871 283.489 40.0554 283.148 39.4224C282.808 38.7893 282.64 38.0773 282.662 37.3582C282.642 36.3813 283.004 35.4353 283.669 34.7222C284.463 33.9315 285.473 33.3972 286.572 33.188C286.06 32.9636 285.617 32.6076 285.287 32.1559C284.938 31.7288 284.744 31.195 284.738 30.6426C284.717 30.0288 284.925 29.4291 285.322 28.9619C285.806 28.4356 286.371 27.9907 286.995 27.6439C286.084 27.25 285.319 26.5793 284.808 25.7261C284.256 24.78 283.977 23.6982 284.002 22.6019C283.954 21.7726 284.094 20.9431 284.412 20.176C284.729 19.4089 285.216 18.7243 285.836 18.1736C287.079 17.1275 288.856 16.5975 291.169 16.5975C291.754 16.6071 292.339 16.6514 292.919 16.73C293.613 16.8207 294.023 16.8904 294.211 16.9323L300.336 16.9044ZM286.787 37.0026C286.786 37.326 286.874 37.6433 287.042 37.9192C287.21 38.195 287.451 38.4185 287.738 38.5647C288.56 38.9845 289.478 39.1794 290.398 39.1296C291.778 39.1968 293.155 38.9588 294.433 38.4322C294.842 38.2938 295.2 38.0348 295.46 37.6889C295.72 37.3431 295.87 36.9265 295.891 36.4935C295.912 36.1986 295.84 35.9047 295.684 35.654C295.528 35.4033 295.296 35.2089 295.023 35.0988C294.166 34.803 293.261 34.6751 292.356 34.7222H289.877C289.097 34.692 288.327 34.9092 287.676 35.3428C287.398 35.5198 287.171 35.7653 287.015 36.056C286.86 36.3467 286.781 36.6726 286.787 37.0026ZM288.53 22.6647C288.485 23.4748 288.715 24.2763 289.183 24.9381C289.424 25.2249 289.731 25.4498 290.076 25.5942C290.421 25.7385 290.796 25.798 291.169 25.768C291.54 25.7999 291.913 25.741 292.257 25.5965C292.6 25.452 292.904 25.2261 293.141 24.9381C293.596 24.2709 293.818 23.4717 293.773 22.6647C293.773 20.5447 292.905 19.4846 291.169 19.4846C289.433 19.4846 288.553 20.5447 288.53 22.6647Z"/>
      <path d="M67.9054 23.6409C67.9054 27.2115 66.9401 29.9405 65.0095 31.8281C63.079 33.7156 60.3012 34.6594 56.6762 34.6594H50.7109V13.0409H57.3082C60.6554 13.0409 63.2572 13.9707 65.1137 15.8304C66.9702 17.69 67.9008 20.2935 67.9054 23.6409ZM65.2526 23.7316C65.2526 20.9096 64.5582 18.7849 63.1693 17.3576C61.7804 15.9303 59.6855 15.2144 56.8845 15.2097H53.2457V32.4836H56.2943C59.2804 32.4836 61.5234 31.7467 63.0234 30.2729C64.5234 28.7991 65.2665 26.6257 65.2526 23.7525V23.7316Z"/>
      <path d="M78.5788 34.9523C77.5372 35.0073 76.4958 34.8406 75.5228 34.4633C74.5499 34.0859 73.6673 33.5063 72.9329 32.7625C71.5441 31.3027 70.8496 29.278 70.8496 26.6884C70.8496 24.0733 71.4885 22.0021 72.7732 20.4609C73.4031 19.7066 74.1973 19.108 75.0944 18.7113C75.9915 18.3147 76.9675 18.1307 77.9468 18.1735C78.8458 18.1314 79.7429 18.2897 80.5738 18.6369C81.4046 18.9841 82.1486 19.5118 82.7524 20.1819C83.9797 21.6595 84.6093 23.5462 84.5163 25.468V27.0162H73.4052C73.4538 28.92 73.9329 30.3705 74.8427 31.3538C75.3401 31.8571 75.9387 32.2481 76.5985 32.5006C77.2584 32.7532 77.9642 32.8615 78.6691 32.8183C80.4432 32.812 82.1972 32.4393 83.8218 31.7234V33.9132C83.0343 34.2643 82.2128 34.5331 81.3704 34.7151C80.4506 34.8915 79.515 34.971 78.5788 34.9523V34.9523ZM77.9191 20.2098C77.3421 20.1839 76.7664 20.2839 76.2317 20.5031C75.697 20.7222 75.216 21.0552 74.8218 21.4791C73.9851 22.4672 73.4968 23.7053 73.4329 25.0008H81.8705C81.9562 23.7306 81.5922 22.4709 80.8427 21.4442C80.4804 21.0294 80.0289 20.7027 79.5224 20.4889C79.0159 20.2751 78.4677 20.1796 77.9191 20.2098V20.2098Z"/>
      <path d="M95.3843 20.3562H91.3079V34.6593H88.8635V20.3562H85.9746V19.2474L88.8635 18.3618V17.4761C88.8635 13.4871 90.595 11.495 94.0579 11.4996C95.0794 11.5287 96.0917 11.7024 97.0649 12.0157L96.4052 13.9893C95.6277 13.7129 94.8127 13.5577 93.9885 13.529C93.5916 13.4951 93.1926 13.5624 92.8284 13.7245C92.4643 13.8867 92.1467 14.1384 91.9052 14.4565C91.3926 15.355 91.1626 16.3882 91.2454 17.4203V18.4524H95.3496L95.3843 20.3562ZM98.1274 14.0799C98.1065 13.8569 98.1321 13.6319 98.2026 13.4194C98.2732 13.2068 98.3871 13.0114 98.5371 12.8456C98.6741 12.7153 98.8355 12.6137 99.012 12.5467C99.1884 12.4797 99.3763 12.4485 99.5649 12.455C99.9438 12.4486 100.31 12.5913 100.586 12.8525C100.739 13.0117 100.858 13.2011 100.934 13.4088C101.011 13.6165 101.043 13.8379 101.03 14.059C101.048 14.283 101.02 14.5083 100.947 14.7208C100.874 14.9332 100.758 15.1282 100.607 15.2933C100.471 15.4252 100.312 15.5289 100.136 15.5983C99.9613 15.6678 99.774 15.7016 99.5857 15.6978C99.396 15.7045 99.2069 15.6721 99.0301 15.6025C98.8533 15.5329 98.6926 15.4277 98.5579 15.2933C98.4063 15.1278 98.2899 14.933 98.2159 14.7207C98.1419 14.5085 98.1117 14.2833 98.1274 14.059V14.0799ZM100.773 34.6802H98.3288V18.4524H100.773V34.6802Z"/>
      <path d="M116.433 34.6593V24.1988C116.519 23.1335 116.196 22.0756 115.53 21.2419C115.16 20.895 114.721 20.6291 114.243 20.461C113.765 20.2929 113.257 20.2264 112.752 20.2656C111.062 20.2656 109.826 20.7305 109.044 21.6603C108.262 22.5902 107.868 24.1035 107.863 26.2002V34.6593H105.419V18.4524H107.412L107.808 20.6701H107.926C108.43 19.8649 109.153 19.2212 110.009 18.8151C110.95 18.3536 111.983 18.115 113.03 18.1177C114.974 18.1177 116.433 18.5919 117.419 19.5124C118.405 20.433 118.891 21.9602 118.891 24.0314V34.6593H116.433Z"/>
      <path d="M130.141 34.9523C129.1 35.0073 128.058 34.8406 127.085 34.4633C126.112 34.0859 125.23 33.5063 124.495 32.7625C123.107 31.3027 122.412 29.278 122.412 26.6884C122.412 24.0733 123.051 22.0021 124.336 20.4609C124.965 19.7076 125.758 19.1095 126.654 18.7129C127.55 18.3163 128.524 18.1318 129.502 18.1735C130.401 18.1314 131.298 18.2897 132.129 18.6369C132.96 18.9841 133.704 19.5118 134.308 20.1819C135.535 21.6595 136.165 23.5462 136.072 25.468V27.0162H124.961C125.009 28.92 125.488 30.3705 126.398 31.3538C126.896 31.858 127.496 32.2495 128.157 32.5021C128.818 32.7547 129.526 32.8625 130.232 32.8183C132.006 32.812 133.76 32.4393 135.384 31.7234V33.9132C134.597 34.2643 133.775 34.5331 132.933 34.7151C132.013 34.8915 131.078 34.971 130.141 34.9523V34.9523ZM129.502 20.2098C128.925 20.1839 128.35 20.2839 127.815 20.5031C127.28 20.7222 126.799 21.0552 126.405 21.4791C125.568 22.4672 125.08 23.7053 125.016 25.0008H133.454C133.54 23.7306 133.176 22.4709 132.426 21.4442C132.064 21.0294 131.612 20.7027 131.106 20.4889C130.599 20.2751 130.051 20.1796 129.502 20.2098V20.2098Z"/>
      <path d="M150.662 32.4835H150.53C149.967 33.2973 149.205 33.9518 148.317 34.3841C147.43 34.8165 146.446 35.0121 145.461 34.9522C144.532 35.0044 143.603 34.8387 142.749 34.4684C141.894 34.098 141.137 33.5331 140.537 32.8183C139.366 31.3678 138.778 29.3059 138.773 26.6326C138.769 23.9594 139.359 21.8835 140.544 20.4051C141.131 19.6672 141.884 19.0801 142.742 18.692C143.599 18.304 144.536 18.1263 145.475 18.1735C146.446 18.123 147.415 18.3158 148.294 18.7345C149.173 19.1533 149.934 19.7849 150.51 20.5725H150.704L150.6 19.4009L150.544 18.2642V11.6461H152.989V34.6593H150.996L150.662 32.4835ZM145.801 32.902C147.468 32.902 148.676 32.4371 149.426 31.5072C150.176 30.6006 150.558 29.1292 150.558 27.0929V26.5768C150.558 24.2848 150.176 22.6576 149.412 21.6952C148.648 20.7329 147.433 20.2424 145.767 20.2238C145.12 20.1942 144.477 20.3335 143.9 20.6281C143.323 20.9227 142.832 21.3624 142.475 21.9044C141.629 23.3274 141.223 24.9706 141.308 26.6256C141.308 28.6945 141.686 30.2589 142.44 31.3189C142.82 31.8415 143.324 32.2602 143.906 32.5367C144.488 32.8133 145.13 32.9388 145.773 32.902H145.801Z"/>
    </g>
  </g>
</svg>
