<svg width="24" height="25" viewBox="0 0 24 25" fill="currentColor" xmlns="http://www.w3.org/2000/svg">
<g clip-path="url(#clip0_710_3254)">
<path d="M11.564 14.0976H11.7159C11.8173 14.0976 11.8375 14.0369 11.9084 13.956L13.0635 12.8033L14.6035 11.2664L16.2347 9.57786L17.1972 8.56674L18.5954 8.66785H18.7372C18.8771 8.67009 19.0159 8.6434 19.145 8.58945C19.274 8.53551 19.3905 8.45548 19.487 8.3544L21.9388 5.9176C21.9686 5.8885 21.9892 5.85131 21.998 5.81065C22.0068 5.76998 22.0035 5.72763 21.9884 5.68885C21.9732 5.65008 21.947 5.61659 21.913 5.59254C21.879 5.56849 21.8387 5.55495 21.797 5.55359L20.3178 5.53337L20.8547 4.98736C20.9148 4.9298 20.9626 4.86072 20.9952 4.78427C21.0279 4.70782 21.0447 4.62557 21.0447 4.54247C21.0447 4.45936 21.0279 4.37712 20.9952 4.30067C20.9626 4.22421 20.9148 4.15513 20.8547 4.09758L20.4799 3.71335C20.3606 3.59724 20.2007 3.53224 20.0341 3.53224C19.8675 3.53224 19.7075 3.59724 19.5883 3.71335L18.9702 4.34024L18.8385 2.69212C18.8335 2.63938 18.8089 2.59043 18.7695 2.55488C18.7301 2.51934 18.6789 2.49976 18.6258 2.5C18.5696 2.50209 18.5159 2.52353 18.4738 2.56067L16.0321 5.00759C15.92 5.11291 15.8335 5.24231 15.7791 5.38597C15.7247 5.52963 15.7038 5.68377 15.718 5.83671V5.93782L15.8395 7.46461L14.948 8.34429L13.3674 9.93175L11.797 11.5091L10.6319 12.6719C10.5847 12.714 10.5469 12.7653 10.5207 12.8228C10.4945 12.8802 10.4806 12.9425 10.4799 13.0056V13.5415C10.4772 13.6145 10.4889 13.6874 10.5144 13.7559C10.54 13.8244 10.5788 13.8872 10.6286 13.9407C10.6785 13.9942 10.7385 14.0374 10.8051 14.0678C10.8717 14.0982 10.9437 14.1152 11.0169 14.1178C11.1995 14.126 11.3825 14.1192 11.564 14.0976Z"/>
<path d="M15.6276 11.2867L14.0774 12.8338C14.1133 13.1225 14.1133 13.4146 14.0774 13.7033C13.9651 14.3216 13.6726 14.893 13.2365 15.3463C12.8003 15.7995 12.24 16.1143 11.6256 16.2513C11.1676 16.3247 10.6987 16.2884 10.2575 16.1455C9.81638 16.0025 9.41555 15.7571 9.08806 15.4293C8.76058 15.1015 8.51581 14.7007 8.37393 14.26C8.23204 13.8193 8.1971 13.3512 8.27197 12.8944C8.40684 12.2906 8.71554 11.7392 9.16013 11.3081C9.60472 10.877 10.1658 10.5849 10.7745 10.4677C11.0672 10.4322 11.3632 10.4322 11.656 10.4677L13.196 8.93082C12.3505 8.53221 11.4079 8.38479 10.4807 8.50615C9.45747 8.69705 8.51211 9.18117 7.76004 9.8994C7.00797 10.6176 6.48174 11.5389 6.24563 12.5506C6.1202 13.3203 6.17973 14.1087 6.41931 14.8509C6.65889 15.5932 7.07168 16.268 7.6237 16.8199C8.17571 17.3718 8.85117 17.7849 9.59447 18.0254C10.3378 18.2658 11.1277 18.3266 11.8991 18.2028C12.9121 17.9691 13.835 17.4458 14.5547 16.697C15.2745 15.9482 15.7599 15.0062 15.9518 13.9864C16.0965 13.0739 15.9843 12.1393 15.6276 11.2867Z"/>
<path d="M18.6869 9.36549H18.5248L17.1976 9.26438C18.0392 10.4688 18.4918 11.9012 18.4944 13.3695C18.4944 14.8132 18.066 16.2246 17.2633 17.4257C16.4607 18.6268 15.3196 19.5637 13.984 20.1185C12.6485 20.6733 11.1782 20.821 9.75865 20.543C8.3391 20.265 7.0338 19.5737 6.00737 18.5564C4.98093 17.5391 4.2793 16.2412 3.99096 14.8265C3.70262 13.4117 3.84047 11.9435 4.38714 10.6068C4.93381 9.27016 5.86482 8.12497 7.06276 7.31565C8.26071 6.50633 9.67195 6.06911 11.1185 6.05912C12.566 6.06452 13.9783 6.50495 15.1712 7.32303V6.00857V5.88723C15.1353 5.63233 15.1353 5.37368 15.1712 5.11878C13.9139 4.495 12.5221 4.18943 11.1185 4.22899C9.31507 4.22899 7.55209 4.7627 6.05256 5.76264C4.55302 6.76257 3.38427 8.18381 2.69411 9.84664C2.00395 11.5095 1.82337 13.3392 2.17521 15.1044C2.52706 16.8697 3.39551 18.4912 4.67076 19.7638C5.94601 21.0365 7.57078 21.9032 9.33961 22.2543C11.1084 22.6055 12.9419 22.4253 14.6081 21.7365C16.2743 21.0477 17.6984 19.8813 18.7003 18.3848C19.7023 16.8883 20.2371 15.1289 20.2371 13.3291C20.2421 11.892 19.8942 10.4756 19.2239 9.20371C19.0521 9.27902 18.8718 9.33334 18.6869 9.36549Z"/>
</g>
<defs>
<clipPath id="clip0_710_3254">
<rect width="20" height="20" fill="white" transform="translate(2 2.5)"/>
</clipPath>
</defs>
</svg>
