<svg xmlns="http://www.w3.org/2000/svg" fill="currentColor" viewBox="0 0 24 24"><path fill-rule="evenodd" d="M14.026 16.174a.75.75 0 0 1 .75.75v2.326a.6.6 0 0 0 .332.537l.522.26a1.951 1.951 0 0 0 1.745 0l.522-.26a.6.6 0 0 0 .331-.537v-2.326a.75.75 0 0 1 1.5 0v2.326a2.1 2.1 0 0 1-1.16 1.878l-.523.262a3.451 3.451 0 0 1-3.085 0l-.523-.262a2.1 2.1 0 0 1-1.16-1.878v-2.326a.75.75 0 0 1 .75-.75Z" clip-rule="evenodd"/><path fill-rule="evenodd" d="M15.081 12.34a3.128 3.128 0 0 1 2.837 0l2.942 1.51a1.513 1.513 0 0 1 0 2.719l-2.942 1.51a3.129 3.129 0 0 1-2.837 0l-2.942-1.51a1.513 1.513 0 0 1 0-2.719l2.942-1.51Zm.648 1.263-2.942 1.51a.159.159 0 0 0-.066.055.08.08 0 0 0 0 .083.158.158 0 0 0 .066.055l2.942 1.51a1.71 1.71 0 0 0 1.541 0l2.942-1.51a.158.158 0 0 0 .066-.055.08.08 0 0 0 0-.083.158.158 0 0 0-.066-.055l-2.942-1.51a1.709 1.709 0 0 0-1.541 0Z" clip-rule="evenodd"/><path fill-rule="evenodd" d="M2.246 4.997a2.75 2.75 0 0 1 2.75-2.75h13.006a2.75 2.75 0 0 1 2.751 2.75V11a.75.75 0 1 1-1.5 0V4.997c0-.69-.56-1.25-1.25-1.25H4.996c-.69 0-1.25.56-1.25 1.25v12.005c0 .69.56 1.25 1.25 1.25h6.002a.75.75 0 0 1 0 1.5H4.997a2.75 2.75 0 0 1-2.75-2.75V4.997Z" clip-rule="evenodd"/><path fill-rule="evenodd" d="M8.499 11a.75.75 0 0 1 .75-.75H12a.75.75 0 0 1 0 1.5H9.25a.75.75 0 0 1-.75-.75ZM8.499 7.123a.75.75 0 0 1 .75-.75h6.753a.75.75 0 0 1 0 1.5H9.249a.75.75 0 0 1-.75-.75ZM5.248 11a.875.875 0 1 1 1.75 0 .875.875 0 0 1-1.75 0ZM5.248 7.123a.875.875 0 1 1 1.75 0 .875.875 0 0 1-1.75 0ZM21.004 14.698a.75.75 0 0 1 .75.75v1.801a.75.75 0 0 1-1.5 0v-1.8a.75.75 0 0 1 .75-.75Z" clip-rule="evenodd"/></svg>
