<svg width="32" height="32" viewBox="0 0 32 32" fill="none" xmlns="http://www.w3.org/2000/svg">
<path d="M0 4C0 1.79086 1.79086 0 4 0H28C30.2091 0 32 1.79086 32 4V28C32 30.2091 30.2091 32 28 32H4C1.79086 32 0 30.2091 0 28V4Z" fill="#06508F"/>
<path d="M23.8479 11.2494L13.2479 21.8494C13.154 21.944 13.0262 21.9973 12.8929 21.9973C12.7596 21.9973 12.6318 21.944 12.5379 21.8494L7.1479 16.4594C7.05324 16.3655 7 16.2377 7 16.1044C7 15.9711 7.05324 15.8433 7.1479 15.7494L7.8479 15.0494C7.94178 14.9547 8.06958 14.9015 8.2029 14.9015C8.33622 14.9015 8.46402 14.9547 8.5579 15.0494L12.8879 19.3794L22.4379 9.82938C22.6357 9.6376 22.9501 9.6376 23.1479 9.82938L23.8479 10.5394C23.9426 10.6333 23.9958 10.7611 23.9958 10.8944C23.9958 11.0277 23.9426 11.1555 23.8479 11.2494Z" fill="white"/>
</svg>
