<svg width="10" height="10" viewBox="0 0 10 10" fill="none" xmlns="http://www.w3.org/2000/svg">
<path fill-rule="evenodd" clip-rule="evenodd" d="M5 0C2.23858 0 0 2.23858 0 5C0 7.76142 2.23858 10 5 10C7.76142 10 10 7.76142 10 5C10 3.67392 9.47322 2.40215 8.53553 1.46447C7.59785 0.526784 6.32608 0 5 0ZM5 9C2.79086 9 1 7.20914 1 5C1 2.79086 2.79086 1 5 1C7.20914 1 9 2.79086 9 5C9 6.06087 8.57857 7.07828 7.82843 7.82843C7.07828 8.57857 6.06087 9 5 9ZM6.55993 3.24505C6.65714 3.14976 6.81271 3.14976 6.90993 3.24505L7.15993 3.51005C7.20725 3.55699 7.23388 3.62089 7.23388 3.68755C7.23388 3.75421 7.20725 3.81811 7.15993 3.86505L4.34993 6.67505C4.30456 6.72339 4.24122 6.75081 4.17493 6.75081C4.10863 6.75081 4.04529 6.72339 3.99993 6.67505L2.82493 5.49005C2.7776 5.44311 2.75098 5.37921 2.75098 5.31255C2.75098 5.24589 2.7776 5.18199 2.82493 5.13505L3.08993 4.87005C3.13529 4.82171 3.19863 4.79429 3.26493 4.79429C3.33122 4.79429 3.39456 4.82171 3.43993 4.87005L4.18993 5.61505L6.55993 3.24505Z" fill="#26B183"/>
</svg>
