<svg xmlns="http://www.w3.org/2000/svg" fill="currentColor" viewBox="0 0 24 24">
    <path fill-rule="evenodd" d="M4.73 16.19C3.6 16.93 3 17.89 3 18.99V20h12v-1.02c0-1.08-.61-2.05-1.73-2.8A7.89 7.89 0 0 0 9 15c-1.6 0-3.15.45-4.27 1.2ZM17 18.99a5.37 5.37 0 0 0-2.62-4.47A9.88 9.88 0 0 0 9 13c-1.94 0-3.89.54-5.38 1.53A5.37 5.37 0 0 0 1 18.98V20c0 1.1.9 2 2 2h12a2 2 0 0 0 2-2v-1ZM10.76 5.73a2.5 2.5 0 1 0-3.52 3.52 2.5 2.5 0 0 0 3.52-3.52Zm1.42-1.41a4.5 4.5 0 1 0-6.36 6.35 4.5 4.5 0 0 0 6.36-6.35ZM19 5a1 1 0 0 1 1 1v6a1 1 0 1 1-2 0V6a1 1 0 0 1 1-1Z" clip-rule="evenodd"/>
    <path fill-rule="evenodd" d="M23 9a1 1 0 0 1-1 1h-6a1 1 0 1 1 0-2h6a1 1 0 0 1 1 1Z" clip-rule="evenodd"/>
</svg>