<svg xmlns="http://www.w3.org/2000/svg" fill="currentColor" viewBox="0 0 24 24">
  <path fill-rule="evenodd" d="M4.726 16.186C3.61 16.928 3 17.898 3 18.984V20h12v-1.016c0-1.086-.61-2.056-1.726-2.798-1.122-.746-2.673-1.194-4.274-1.194s-3.153.447-4.274 1.194ZM17 18.992v-.008c0-1.94-1.118-3.465-2.618-4.463-1.492-.993-3.441-1.529-5.382-1.529-1.94 0-3.89.536-5.382 1.529C2.118 15.518 1 17.044 1 18.984V20a2 2 0 0 0 2 2h12a2 2 0 0 0 2-2v-1.008ZM10.762 5.73a2.492 2.492 0 1 0-3.524 3.524 2.492 2.492 0 0 0 3.524-3.524Zm1.414-1.414a4.492 4.492 0 1 0-6.353 6.352 4.492 4.492 0 0 0 6.353-6.352ZM22.181 9.172c-.013.253.1.496.307.658l.336.264c.17.117.225.333.128.51l-.494.8a.431.431 0 0 1-.515.173l-.426-.144a.891.891 0 0 0-.758.076c-.1.065-.206.123-.316.172a.807.807 0 0 0-.451.582l-.073.4a.42.42 0 0 1-.425.337h-.98a.42.42 0 0 1-.426-.337l-.072-.4a.807.807 0 0 0-.452-.582 2.371 2.371 0 0 1-.315-.172.892.892 0 0 0-.758-.076l-.426.144a.431.431 0 0 1-.515-.172l-.494-.802a.385.385 0 0 1 .102-.509l.34-.264a.781.781 0 0 0 .307-.658v-.344a.781.781 0 0 0-.307-.658l-.34-.264a.385.385 0 0 1-.102-.51l.485-.8a.431.431 0 0 1 .515-.173l.426.144a.89.89 0 0 0 .758-.076c.1-.065.206-.123.316-.172a.805.805 0 0 0 .434-.582l.073-.4A.42.42 0 0 1 18.488 5h.98a.42.42 0 0 1 .426.337l.072.4c.045.25.212.466.452.582.11.05.215.107.315.172a.891.891 0 0 0 .758.076l.426-.144a.431.431 0 0 1 .515.172l.495.802a.385.385 0 0 1-.099.509l-.34.264a.782.782 0 0 0-.307.658v.344ZM17.666 9a1.333 1.333 0 1 0 2.667 0 1.333 1.333 0 0 0-2.667 0Z"/>
</svg>