<svg width="16" height="17" viewBox="0 0 16 17" fill="currentColor" xmlns="http://www.w3.org/2000/svg">
<g id="Arrows / Arrows Right Left">
<g id="Vector">
<path d="M11.5269 7.65148C11.6468 7.77128 11.82 7.8445 11.9999 7.8445L11.9866 7.82453C12.1598 7.82453 12.3331 7.75132 12.4597 7.63151L14.3397 5.7535C14.5343 5.63698 14.6654 5.42408 14.6654 5.18209C14.6654 5.10942 14.654 5.03979 14.6329 4.97477C14.6025 4.87194 14.5466 4.77565 14.4651 4.69637L12.4663 2.69967C12.1998 2.43344 11.7801 2.43344 11.5202 2.69967C11.2537 2.95924 11.2537 3.37855 11.5202 3.64477V3.65143L12.39 4.51652H2.00612C1.63301 4.51652 1.33984 4.80937 1.33984 5.18209C1.33984 5.54815 1.63301 5.84765 2.00612 5.84765H12.3769L11.5202 6.69972V6.70638C11.2604 6.96595 11.2604 7.39191 11.5269 7.65148Z" fill="currentColor"/>
<path d="M4.00464 14.5C3.82475 14.5 3.65151 14.4268 3.53158 14.307L1.53275 12.3103C1.26624 12.0507 1.26624 11.6248 1.52609 11.3652V11.3585L3.52492 9.36183C3.78477 9.0956 4.20452 9.0956 4.47103 9.36183C4.73088 9.6214 4.73088 10.0407 4.47103 10.3069L3.60108 11.1722H13.9991C14.3655 11.1722 14.6654 11.465 14.6654 11.8377C14.6654 12.2038 14.3655 12.5033 13.9991 12.5033H3.61449L4.47103 13.3552C4.73088 13.6081 4.73088 14.0341 4.47103 14.2937H4.46437C4.33778 14.4135 4.16455 14.4867 3.99131 14.4867L4.00464 14.5Z" fill="currentColor"/>
</g>
</g>
</svg>
