<svg width="24" height="24" viewBox="0 0 24 24" fill="none" xmlns="http://www.w3.org/2000/svg">
<path fill-rule="evenodd" clip-rule="evenodd" d="M4.72568 16.186C3.61055 16.9279 3 17.8979 3 18.9842V20.0002H15V19.0002C15 18.9975 15 18.9949 15 18.9922C15 18.9895 15 18.9869 15 18.9842C15 17.8985 14.3895 16.9285 13.2743 16.1863C12.1524 15.4398 10.6011 14.9922 9 14.9922C7.39881 14.9922 5.84748 15.4396 4.72568 16.186ZM17 18.9922C17 18.9895 17 18.9869 17 18.9842C17 17.0449 15.8815 15.5189 14.3822 14.5213C12.8896 13.528 10.9409 12.9922 9 12.9922C7.05919 12.9922 5.11052 13.5277 3.61782 14.5209C2.11845 15.5184 1 17.0444 1 18.9842V20.0002C1 21.1045 1.89572 22.0002 3 22.0002H15C16.1043 22.0002 17 21.1045 17 20.0002V19.0002C17 18.9975 17 18.9949 17 18.9922Z" fill="currentColor"/>
<path fill-rule="evenodd" clip-rule="evenodd" d="M10.7619 5.72989C9.78873 4.7567 8.21089 4.7567 7.2377 5.72989C6.26452 6.70308 6.26452 8.28092 7.2377 9.25411C8.21089 10.2273 9.78873 10.2273 10.7619 9.25411C11.7351 8.28092 11.7351 6.70308 10.7619 5.72989ZM12.1761 4.31568C10.4219 2.56144 7.57772 2.56144 5.82349 4.31568C4.06925 6.06991 4.06925 8.91408 5.82349 10.6683C7.57772 12.4226 10.4219 12.4226 12.1761 10.6683C13.9304 8.91408 13.9304 6.06991 12.1761 4.31568Z" fill="currentColor"/>
<path d="M23 9.74023V8.95637C23 8.73991 22.8156 8.56443 22.5881 8.56443H18.2431L19.4976 7.22118C19.5756 7.14759 19.6194 7.04742 19.6194 6.94291C19.6194 6.83841 19.5756 6.73823 19.4976 6.66464L18.9128 6.11593C18.8354 6.04174 18.7302 6 18.6203 6C18.5105 6 18.4052 6.04174 18.3279 6.11593L15.6812 8.78392C15.5653 8.89406 15.5001 9.0435 15.5 9.19936V9.49723C15.5019 9.65276 15.5668 9.80159 15.6812 9.91268L18.3279 12.7146C18.4052 12.7888 18.5105 12.8305 18.6203 12.8305C18.7302 12.8305 18.8354 12.7888 18.9128 12.7146L19.4976 12.158C19.5751 12.0858 19.6188 11.9869 19.6188 11.8837C19.6188 11.7805 19.5751 11.6816 19.4976 11.6093L18.2431 10.1322L22.5881 10.1322C22.8156 10.1322 23 9.95669 23 9.74023Z" fill="currentColor"/>
</svg>
