<svg width="24" height="24" viewBox="0 0 24 24" fill="none" xmlns="http://www.w3.org/2000/svg">
<path d="M6.545 11.091C8.051 11.091 9.272 9.86999 9.272 8.36399C9.272 6.85799 8.052 5.63599 6.545 5.63599H2V18.363" stroke="currentColor" stroke-width="1.5" stroke-linecap="round" stroke-linejoin="round"/>
<path d="M2 18.364H7.455C9.463 18.364 11.091 16.736 11.091 14.728C11.091 12.72 9.463 11.092 7.455 11.092H2" stroke="currentColor" stroke-width="1.5" stroke-linecap="round" stroke-linejoin="round"/>
<path d="M15.6399 7.44998H20.1799" stroke="currentColor" stroke-width="1.5" stroke-linecap="round" stroke-linejoin="round"/>
<path d="M20.8021 17.165C20.0031 17.964 18.9561 18.363 17.9091 18.363C15.6501 18.363 13.8181 16.531 13.8181 14.272C13.8181 12.013 15.6501 10.181 17.9091 10.181C20.1681 10.181 22.0001 12.013 22.0001 14.273H13.8181" stroke="currentColor" stroke-width="1.5" stroke-linecap="round" stroke-linejoin="round"/>
</svg>
