<svg width="24" height="24" viewBox="0 0 24 24" fill="none" xmlns="http://www.w3.org/2000/svg">
<path fill-rule="evenodd" clip-rule="evenodd" d="M19.9956 5.5V4.5C19.9956 4.22386 19.7717 4 19.4956 4H14.9956V3C14.9956 2.44772 14.5479 2 13.9956 2H9.99561C9.44332 2 8.99561 2.44772 8.99561 3V4H4.49561C4.21946 4 3.99561 4.22386 3.99561 4.5V5.5C3.99561 5.77614 4.21946 6 4.49561 6H19.4956C19.7717 6 19.9956 5.77614 19.9956 5.5ZM7.71561 18H16.2756L16.9956 8H18.9956L18.1456 20.14C18.072 21.1896 17.1977 22.0026 16.1456 22H7.86561C6.81348 22.0026 5.93925 21.1896 5.86561 20.14L4.99561 8H6.99561L7.71561 18Z" fill="currentColor"/>
</svg>
