<svg width="24" height="24" viewBox="0 0 24 24" fill="none" xmlns="http://www.w3.org/2000/svg">
<path d="M14.0259 16.911V19.25C14.0258 19.7614 14.3147 20.2289 14.7722 20.4575L15.2944 20.7186C16.0546 21.0985 16.9492 21.0985 17.7094 20.7186L18.2316 20.4575C18.6891 20.2289 18.978 19.7614 18.9779 19.25V16.911" stroke="#5B6486" stroke-width="2" stroke-linecap="round" stroke-linejoin="round"/>
<path fill-rule="evenodd" clip-rule="evenodd" d="M12.4134 16.1177L15.5017 17.6604C16.1335 17.9755 16.8767 17.9755 17.5085 17.6604L20.5938 16.1177C20.8474 15.9913 21.0076 15.7323 21.0076 15.4489C21.0076 15.1656 20.8474 14.9066 20.5938 14.7802L17.5025 13.2375C16.8709 12.9214 16.1273 12.9214 15.4957 13.2375L12.4104 14.7802C12.1571 14.9072 11.9974 15.1665 11.998 15.4499C11.9987 15.7332 12.1595 15.9918 12.4134 16.1177Z" stroke="#5B6486" stroke-width="2" stroke-linecap="round" stroke-linejoin="round"/>
<path d="M21.0036 15.4484V17.2492" stroke="#5B6486" stroke-width="2" stroke-linecap="round" stroke-linejoin="round"/>
<path d="M19.0032 10.9995V4.99705C19.0032 3.89202 18.1074 2.99622 17.0024 2.99622H4.99742C3.89239 2.99622 2.99658 3.89202 2.99658 4.99705V18.0025" stroke="#5B6486" stroke-width="2" stroke-linecap="round" stroke-linejoin="round"/>
<path d="M6.99826 2.99622V16.0016" stroke="#5B6486" stroke-width="2" stroke-linecap="round" stroke-linejoin="round"/>
<path d="M8.99908 16.0016H4.99742C3.89239 16.0016 2.99658 16.8975 2.99658 18.0025V18.0025C2.99658 19.1075 3.89239 20.0033 4.99742 20.0033H10.9999" stroke="#5B6486" stroke-width="2" stroke-linecap="round" stroke-linejoin="round"/>
</svg>
