<svg width="104" height="104" viewBox="0 0 104 104" fill="none" xmlns="http://www.w3.org/2000/svg">
<path d="M82.3333 4.33325L60.6667 25.9999V73.6666L82.3333 54.1666V4.33325ZM91 21.6666V80.1666C86.2333 78.6499 81.0333 77.9999 75.8333 77.9999C68.4667 77.9999 57.85 80.8166 52 84.4999V25.9999C45.7167 21.2333 36.6167 19.4999 28.1667 19.4999C19.7167 19.4999 10.6167 21.2333 4.33333 25.9999V89.4833C4.33333 90.5666 5.41666 91.6499 6.49999 91.6499C6.93333 91.6499 7.15 91.4333 7.58333 91.4333C13.4333 88.6166 21.8833 86.6666 28.1667 86.6666C36.6167 86.6666 45.7167 88.3999 52 93.1666C57.85 89.4833 68.4667 86.6666 75.8333 86.6666C82.9833 86.6666 90.35 87.9666 96.4167 91.2166C96.85 91.4333 97.0667 91.4333 97.5 91.4333C98.5833 91.4333 99.6667 90.3499 99.6667 89.2666V25.9999C97.0667 24.0499 94.25 22.7499 91 21.6666ZM43.3333 79.7766C37.9167 78.3899 32.5 77.9999 28.1667 77.9999C23.5733 77.9999 18.1133 78.8233 13 80.1666V30.8966C16.9433 29.1633 22.2733 28.1666 28.1667 28.1666C34.06 28.1666 39.39 29.1633 43.3333 30.8966V79.7766Z" fill="currentColor"/>
</svg>
