<svg width="32" height="33" viewBox="0 0 16 17" fill="currentColor" xmlns="http://www.w3.org/2000/svg">
<path fill-rule="evenodd" clip-rule="evenodd" d="M0.666992 14.4997C0.666992 14.1315 0.965469 13.833 1.33366 13.833H14.667C15.0352 13.833 15.3337 14.1315 15.3337 14.4997C15.3337 14.8679 15.0352 15.1663 14.667 15.1663H1.33366C0.965469 15.1663 0.666992 14.8679 0.666992 14.4997Z" />
<path fill-rule="evenodd" clip-rule="evenodd" d="M5 10.8332C5 10.465 5.29848 10.1665 5.66667 10.1665H10.3333C10.7015 10.1665 11 10.465 11 10.8332C11 11.2014 10.7015 11.4998 10.3333 11.4998H5.66667C5.29848 11.4998 5 11.2014 5 10.8332Z" />
<path fill-rule="evenodd" clip-rule="evenodd" d="M8.00065 10.5C8.36884 10.5 8.66732 10.7985 8.66732 11.1667V14.5C8.66732 14.8682 8.36884 15.1667 8.00065 15.1667C7.63246 15.1667 7.33398 14.8682 7.33398 14.5V11.1667C7.33398 10.7985 7.63246 10.5 8.00065 10.5Z" />
<path fill-rule="evenodd" clip-rule="evenodd" d="M1.33398 9.83333C1.33398 9.09695 1.93094 8.5 2.66732 8.5H4.00065C4.36884 8.5 4.66732 8.79848 4.66732 9.16667C4.66732 9.53486 4.36884 9.83333 4.00065 9.83333H2.66732V14.5C2.66732 14.8682 2.36884 15.1667 2.00065 15.1667C1.63246 15.1667 1.33398 14.8682 1.33398 14.5V9.83333Z" />
<path fill-rule="evenodd" clip-rule="evenodd" d="M11.334 9.16667C11.334 8.79848 11.6325 8.5 12.0007 8.5H13.334C14.0704 8.5 14.6673 9.09695 14.6673 9.83333V14.5C14.6673 14.8682 14.3688 15.1667 14.0007 15.1667C13.6325 15.1667 13.334 14.8682 13.334 14.5V9.83333H12.0007C11.6325 9.83333 11.334 9.53486 11.334 9.16667Z" />
<path fill-rule="evenodd" clip-rule="evenodd" d="M10.0007 10.5C10.3688 10.5 10.6673 10.7985 10.6673 11.1667V14.5C10.6673 14.8682 10.3688 15.1667 10.0007 15.1667C9.63246 15.1667 9.33398 14.8682 9.33398 14.5V11.1667C9.33398 10.7985 9.63246 10.5 10.0007 10.5Z" />
<path fill-rule="evenodd" clip-rule="evenodd" d="M6.00065 10.5C6.36884 10.5 6.66732 10.7985 6.66732 11.1667V14.5C6.66732 14.8682 6.36884 15.1667 6.00065 15.1667C5.63246 15.1667 5.33398 14.8682 5.33398 14.5V11.1667C5.33398 10.7985 5.63246 10.5 6.00065 10.5Z" />
<path fill-rule="evenodd" clip-rule="evenodd" d="M7.33913 4.67568C7.74904 4.44144 8.25226 4.44144 8.66217 4.67568L11.9955 6.58044C12.4109 6.81783 12.6673 7.25962 12.6673 7.73809V14.5C12.6673 14.8682 12.3688 15.1667 12.0007 15.1667C11.6325 15.1667 11.334 14.8682 11.334 14.5L11.334 7.73809L8.00065 5.83333L8.33141 5.2545L8.00065 5.83333L7.66989 5.2545L8.00065 5.83333L4.66732 7.73809L4.33656 7.15926L4.66732 7.73809L4.66732 14.5C4.66732 14.8682 4.36884 15.1667 4.00065 15.1667C3.63246 15.1667 3.33398 14.8682 3.33398 14.5V7.73809C3.33399 7.25962 3.59037 6.81783 4.0058 6.58044L4.0058 6.58044L7.33913 4.67568Z" />
<path fill-rule="evenodd" clip-rule="evenodd" d="M8.00065 2.83301C8.36884 2.83301 8.66732 3.13148 8.66732 3.49967V5.16634C8.66732 5.53453 8.36884 5.83301 8.00065 5.83301C7.63246 5.83301 7.33398 5.53453 7.33398 5.16634V3.49967C7.33398 3.13148 7.63246 2.83301 8.00065 2.83301Z" />
<path fill-rule="evenodd" clip-rule="evenodd" d="M7.33398 2.1665C7.33398 1.61422 7.7817 1.1665 8.33398 1.1665H10.334C10.8863 1.1665 11.334 1.61422 11.334 2.1665V3.49984C11.334 4.05212 10.8863 4.49984 10.334 4.49984H8.33398C7.7817 4.49984 7.33398 4.05212 7.33398 3.49984V2.1665ZM8.66732 2.49984V3.1665H10.0007V2.49984H8.66732Z" />
<path fill-rule="evenodd" clip-rule="evenodd" d="M7.41487 7.40699C7.08776 7.72812 7.08241 8.25358 7.40309 8.5813C7.72396 8.90923 8.24987 8.91511 8.578 8.59444C8.90613 8.27377 8.91234 7.74786 8.59187 7.41953C8.2714 7.0912 7.7455 7.08467 7.41697 7.40493L7.41697 7.40493L7.41673 7.40517L7.41639 7.4055C7.41629 7.4056 7.41619 7.40569 7.41609 7.40579" />
</svg>
