<svg width="168" height="169" viewBox="0 0 168 169" fill="none" xmlns="http://www.w3.org/2000/svg">
<circle cx="84" cy="84.5" r="84" fill="#FCFCFC"/>
<g clip-path="url(#clip0_4742_35815)">
<path d="M84.1693 18.5H83.8313C83.1872 18.5 82.665 19.0154 82.665 19.6513V37.5577C82.665 38.1936 83.1872 38.709 83.8313 38.709H84.1693C84.8134 38.709 85.3355 38.1936 85.3355 37.5577V19.6513C85.3355 19.0154 84.8134 18.5 84.1693 18.5Z" fill="#FECE2F"/>
<path d="M54.1464 26.3534L53.8537 26.5202C53.2959 26.8381 53.1048 27.5422 53.4269 28.0929L62.4964 43.6003C62.8184 44.151 63.5317 44.3396 64.0895 44.0217L64.3822 43.8549C64.94 43.537 65.1311 42.8328 64.8091 42.2822L55.7395 26.7748C55.4175 26.2241 54.7042 26.0354 54.1464 26.3534Z" fill="#FECE2F"/>
<path d="M32.1242 47.9735L31.9552 48.2625C31.6331 48.8131 31.8243 49.5172 32.3821 49.8352L48.0909 58.7884C48.6487 59.1063 49.3619 58.9176 49.684 58.367L49.853 58.078C50.175 57.5274 49.9839 56.8233 49.4261 56.5054L33.7173 47.5521C33.1595 47.2342 32.4462 47.4229 32.1242 47.9735Z" fill="#FECE2F"/>
<path d="M24 77.5639V77.8976C24 78.5334 24.5221 79.0489 25.1662 79.0489H43.3052C43.9493 79.0489 44.4715 78.5334 44.4715 77.8976V77.5639C44.4715 76.9281 43.9493 76.4127 43.3052 76.4127H25.1662C24.5221 76.4127 24 76.9281 24 77.5639Z" fill="#FECE2F"/>
<path d="M31.952 107.198L32.121 107.487C32.443 108.038 33.1563 108.227 33.7141 107.909L49.4229 98.9554C49.9807 98.6375 50.1718 97.9334 49.8498 97.3828L49.6808 97.0938C49.3588 96.5432 48.6455 96.3545 48.0877 96.6724L32.3789 105.626C31.8211 105.944 31.6299 106.648 31.952 107.198Z" fill="#FECE2F"/>
<path d="M135.874 107.485L136.043 107.196C136.365 106.645 136.174 105.941 135.616 105.623L119.907 96.67C119.349 96.3521 118.636 96.5407 118.314 97.0914L118.145 97.3803C117.823 97.931 118.014 98.6351 118.572 98.953L134.281 107.906C134.839 108.224 135.552 108.035 135.874 107.485Z" fill="#FECE2F"/>
<path d="M144 77.8976V77.5639C144 76.9281 143.478 76.4127 142.834 76.4127H124.695C124.051 76.4127 123.529 76.9281 123.529 77.5639V77.8976C123.529 78.5334 124.051 79.0489 124.695 79.0489H142.834C143.478 79.0489 144 78.5334 144 77.8976Z" fill="#FECE2F"/>
<path d="M136.046 48.2601L135.877 47.9712C135.555 47.4205 134.842 47.2318 134.284 47.5498L118.575 56.503C118.017 56.8209 117.826 57.525 118.148 58.0757L118.317 58.3646C118.639 58.9153 119.353 59.1039 119.91 58.786L135.619 49.8328C136.177 49.5149 136.368 48.8108 136.046 48.2601Z" fill="#FECE2F"/>
<path d="M114.144 26.5216L113.851 26.3548C113.293 26.0369 112.58 26.2256 112.258 26.7762L103.188 42.2837C102.866 42.8343 103.057 43.5384 103.615 43.8563L103.908 44.0232C104.466 44.3411 105.179 44.1524 105.501 43.6018L114.57 28.0943C114.892 27.5437 114.701 26.8396 114.144 26.5216Z" fill="#FECE2F"/>
<path d="M111.945 77.5519C111.945 84.5257 109.323 90.8923 105.002 95.7499C101.071 100.169 98.2882 105.402 96.7748 111.005H91.1934C92.7098 105.402 95.4898 100.169 99.4209 95.7499C103.745 90.8923 106.367 84.5257 106.367 77.5519C106.367 69.5531 105.243 61.8909 101.957 56.4141C108.066 61.4731 111.948 69.0661 111.948 77.5519H111.945Z" fill="#FECE2F"/>
<path d="M106.367 77.552C106.367 84.5258 103.745 90.8924 99.4216 95.75C95.4905 100.169 92.7104 105.402 91.194 111.005H71.225C69.7116 105.402 66.9316 100.172 63.0005 95.756C58.6066 90.8202 55.9665 84.3184 56.0518 77.2063C56.2376 62.2456 68.6276 50.0715 83.7825 49.9603C90.7038 49.9092 97.0496 52.341 101.955 56.4111C105.244 61.8879 106.364 69.5501 106.364 77.549L106.367 77.552Z" fill="#FED947"/>
<path d="M95.2833 121.385C95.6304 121.042 95.8436 120.57 95.8436 120.047C95.8436 119.26 95.3564 118.583 94.6591 118.301C94.4703 118.225 94.3485 118.045 94.3485 117.844C94.3485 117.645 94.4703 117.465 94.656 117.39C94.8935 117.294 95.1036 117.152 95.2833 116.978C95.6304 116.635 95.8436 116.16 95.8436 115.64C95.8436 114.739 95.2041 113.984 94.3485 113.795C94.2115 113.765 94.0714 113.747 93.9252 113.747H74.0658C73.9196 113.747 73.7796 113.762 73.6426 113.795C73.2832 113.873 72.9605 114.053 72.7077 114.303C72.3606 114.645 72.1475 115.117 72.1475 115.64C72.1475 116.428 72.6377 117.107 73.332 117.39C73.5208 117.465 73.6426 117.645 73.6426 117.847C73.6426 118.045 73.5208 118.225 73.335 118.301C73.0975 118.397 72.8844 118.538 72.7077 118.712C72.3606 119.055 72.1475 119.527 72.1475 120.05C72.1475 120.838 72.6377 121.517 73.332 121.8C73.5208 121.875 73.6426 122.055 73.6426 122.256C73.6426 122.455 73.5208 122.635 73.335 122.71C73.0975 122.807 72.8844 122.948 72.7077 123.122C72.3606 123.465 72.1475 123.937 72.1475 124.46C72.1475 125.247 72.6377 125.927 73.332 126.209C73.5208 126.284 73.6426 126.465 73.6426 126.666V127.024H73.6547C73.8466 128.936 75.4756 130.436 77.464 130.436H78.1857C78.3532 130.436 78.5084 130.517 78.5998 130.655C79.2849 131.683 80.4633 132.362 81.8001 132.362H86.1818C87.5216 132.362 88.697 131.683 89.3821 130.655C89.4735 130.517 89.6287 130.436 89.7962 130.436H90.5179C92.5063 130.436 94.1384 128.939 94.3302 127.024H94.3424V126.666C94.3424 126.468 94.4642 126.287 94.6499 126.212C94.8874 126.116 95.0976 125.975 95.2772 125.8C95.6243 125.458 95.8375 124.983 95.8375 124.463C95.8375 123.675 95.3503 122.999 94.653 122.716C94.4642 122.641 94.3424 122.461 94.3424 122.259C94.3424 122.061 94.4642 121.881 94.6499 121.806C94.8874 121.709 95.0976 121.568 95.2772 121.394L95.2833 121.385Z" fill="#666666"/>
<path d="M78.417 130.339C79.0595 131.539 80.3353 132.359 81.8091 132.359H86.1909C87.6616 132.359 88.9374 131.542 89.583 130.339H78.42H78.417Z" fill="#262626"/>
<path d="M95.8464 115.634C95.8464 116.157 95.6332 116.632 95.2861 116.972C95.0334 117.221 94.7137 117.399 94.3543 117.48C94.2173 117.51 94.0772 117.528 93.9311 117.528H74.0717C73.9255 117.528 73.7854 117.513 73.6484 117.48C72.7928 117.291 72.1533 116.536 72.1533 115.634C72.1533 115.111 72.3665 114.639 72.7136 114.297C72.9663 114.047 73.2891 113.87 73.6484 113.789C73.7854 113.759 73.9255 113.741 74.0717 113.741H93.9311C94.0772 113.741 94.2173 113.756 94.3543 113.789C95.21 113.978 95.8494 114.733 95.8494 115.634H95.8464Z" fill="#808080"/>
<path d="M95.8464 120.044C95.8464 120.567 95.6332 121.039 95.2861 121.382C95.0334 121.631 94.7137 121.809 94.3543 121.89C94.2173 121.92 94.0772 121.938 93.9311 121.938H74.0717C73.9255 121.938 73.7854 121.923 73.6484 121.89C72.7928 121.7 72.1533 120.946 72.1533 120.044C72.1533 119.521 72.3665 119.049 72.7136 118.706C72.9663 118.457 73.2891 118.28 73.6484 118.198C73.7854 118.168 73.9255 118.15 74.0717 118.15H93.9311C94.0772 118.15 94.2173 118.165 94.3543 118.198C95.21 118.388 95.8494 119.142 95.8494 120.044H95.8464Z" fill="#808080"/>
<path d="M95.8464 124.457C95.8464 124.98 95.6332 125.455 95.2861 125.794C95.0334 126.044 94.7137 126.221 94.3543 126.302C94.2173 126.333 94.0772 126.351 93.9311 126.351H74.0717C73.9255 126.351 73.7854 126.336 73.6484 126.302C72.7928 126.113 72.1533 125.359 72.1533 124.457C72.1533 123.934 72.3665 123.462 72.7136 123.119C72.9663 122.87 73.2891 122.692 73.6484 122.611C73.7854 122.581 73.9255 122.563 74.0717 122.563H93.9311C94.0772 122.563 94.2173 122.578 94.3543 122.611C95.21 122.801 95.8494 123.555 95.8494 124.457H95.8464Z" fill="#808080"/>
<path d="M94.3513 126.928C94.2052 128.885 92.5487 130.433 90.5299 130.433H77.4699C75.448 130.433 73.7946 128.888 73.6484 126.928H94.3513Z" fill="#808080"/>
<path d="M79.5831 111.919C78.8828 106.391 77.9541 99.8982 76.3859 93.6428C75.987 92.0556 75.579 90.5016 75.0461 89.0136C73.9377 88.8603 72.6467 88.5748 71.657 87.7421C71.1455 87.3092 70.7983 86.7802 70.6583 86.2091C70.4878 85.5147 70.64 84.7933 71.0693 84.2792C71.7332 83.4857 72.8172 83.4015 73.6454 84.0748C74.4493 84.7271 75.0217 85.7792 75.2319 86.2001C75.5029 86.7471 75.7465 87.3032 75.9687 87.8684C77.9328 88.0908 79.574 87.8533 80.8438 87.162C81.7238 86.681 82.4698 86.0858 83.1427 85.4155C82.5429 84.7241 81.9887 83.9907 81.4223 83.2392L81.3766 83.1791C80.8773 82.5178 80.2804 81.625 80.0856 80.5789C79.8663 79.4006 80.2348 78.2523 81.0478 77.582C81.742 77.0109 82.8261 76.6952 84.0106 76.7042C85.1768 76.6922 86.2638 77.0079 86.9581 77.582C87.7681 78.2493 88.1365 79.3976 87.9203 80.5789C87.7254 81.625 87.1286 82.5178 86.6292 83.1791L86.5836 83.2392C86.0172 83.9907 85.463 84.7241 84.8632 85.4125C85.5361 86.0828 86.2791 86.678 87.1621 87.159C88.4319 87.8503 90.0731 88.0878 92.0372 87.8653C92.2594 87.3002 92.503 86.7441 92.774 86.197C92.9811 85.7762 93.5536 84.7271 94.3605 84.0718C95.1887 83.3985 96.2727 83.4827 96.9365 84.2762C97.3659 84.7873 97.5181 85.5087 97.3476 86.2061C97.2075 86.7772 96.8604 87.3062 96.3489 87.7391C95.3623 88.5717 94.0682 88.8573 92.9598 89.0106C92.4269 90.4986 92.0158 92.0526 91.62 93.6398C90.0488 99.8982 89.1231 106.391 88.4227 111.916L87.1652 111.76C87.8716 106.199 88.8034 99.6607 90.3898 93.3362C90.7461 91.9174 91.1115 90.5196 91.5682 89.1609C89.6042 89.2992 87.9173 88.9926 86.5531 88.2501C85.5635 87.712 84.7414 87.0567 84.0075 86.3323C83.2737 87.0567 82.4515 87.709 81.4619 88.2501C80.0977 88.9926 78.4139 89.2992 76.4468 89.1609C76.9036 90.5166 77.2689 91.9144 77.6252 93.3362C79.2117 99.6577 80.1465 106.196 80.8499 111.76L79.5923 111.916L79.5831 111.919ZM72.4305 84.8714C72.3056 84.8714 72.1716 84.9255 72.0437 85.0758C71.8732 85.2802 71.8123 85.6079 71.8885 85.9115C71.9646 86.2211 72.1747 86.5337 72.4792 86.7892C73.0364 87.2581 73.7703 87.5046 74.5102 87.6549C74.3793 87.3483 74.2392 87.0477 74.09 86.7471C73.8129 86.188 73.3379 85.4456 72.8385 85.0398C72.741 84.9616 72.5949 84.8714 72.4305 84.8714ZM95.5663 84.8714C95.4019 84.8714 95.2557 84.9616 95.1583 85.0398C94.6558 85.4456 94.1839 86.188 93.9068 86.7471C93.7576 87.0447 93.6205 87.3483 93.4866 87.6549C94.2265 87.5046 94.9603 87.2612 95.5176 86.7892C95.8221 86.5307 96.0322 86.2211 96.1083 85.9115C96.1844 85.6079 96.1205 85.2802 95.953 85.0758C95.8251 84.9225 95.6911 84.8714 95.5663 84.8714ZM83.9466 77.9577C83.0879 77.9577 82.2962 78.1802 81.8547 78.5439C81.401 78.9196 81.1939 79.629 81.3279 80.3535C81.4741 81.144 81.9704 81.8805 82.3876 82.4306L82.4333 82.4907C82.9509 83.1761 83.4594 83.8494 83.9984 84.4806C84.5373 83.8494 85.0459 83.1791 85.5635 82.4937L85.6092 82.4336C86.0263 81.8805 86.5227 81.147 86.6688 80.3565C86.8028 79.632 86.5958 78.9196 86.1421 78.5469C85.6883 78.1742 84.8692 77.9517 84.0075 77.9607C83.9862 77.9607 83.9679 77.9607 83.9466 77.9607V77.9577Z" fill="#262626"/>
<path d="M71.003 110.745C71.0091 110.769 71.0183 110.796 71.0244 110.82C71.472 112.488 72.9823 113.663 74.7301 113.663H92.8234C94.5713 113.663 96.0816 112.488 96.5292 110.82C96.5353 110.796 96.5444 110.769 96.5505 110.745H71H71.003Z" fill="#666666"/>
<path d="M66.3588 65.2817C70.4117 59.7056 76.8701 56.3299 83.8218 56.2157C84.7993 56.2007 84.8023 54.6977 83.8218 54.7157C76.2976 54.839 69.419 58.5092 65.0434 64.5242C64.4709 65.3117 65.7894 66.0602 66.3558 65.2817H66.3588Z" fill="#FECE2F"/>
<path d="M62.388 77.2754C62.4428 74.9428 62.8508 72.6973 63.6151 70.491C63.9318 69.5741 62.4641 69.1804 62.1474 70.0912C61.3435 72.4178 60.9233 74.8195 60.8655 77.2754C60.8441 78.2433 62.3636 78.2403 62.3849 77.2754H62.388Z" fill="#FECE2F"/>
<g style="mix-blend-mode:multiply">
<path opacity="0.04" d="M84.0021 149.74C106.323 149.74 124.418 146.775 124.418 143.118C124.418 139.46 106.323 136.496 84.0021 136.496C61.6809 136.496 43.5859 139.46 43.5859 143.118C43.5859 146.775 61.6809 149.74 84.0021 149.74Z" fill="#FEFEFE"/>
<path opacity="0.08" d="M83.9992 149.49C105.481 149.49 122.896 146.637 122.896 143.118C122.896 139.598 105.481 136.745 83.9992 136.745C62.5172 136.745 45.1025 139.598 45.1025 143.118C45.1025 146.637 62.5172 149.49 83.9992 149.49Z" fill="#FDFDFD"/>
<path opacity="0.12" d="M83.9993 149.241C104.642 149.241 121.377 146.499 121.377 143.118C121.377 139.736 104.642 136.995 83.9993 136.995C63.3564 136.995 46.6221 139.736 46.6221 143.118C46.6221 146.499 63.3564 149.241 83.9993 149.241Z" fill="#FCFCFC"/>
<path opacity="0.15" d="M83.9994 148.994C103.803 148.994 119.857 146.363 119.857 143.118C119.857 139.872 103.803 137.241 83.9994 137.241C64.1957 137.241 48.1416 139.872 48.1416 143.118C48.1416 146.363 64.1957 148.994 83.9994 148.994Z" fill="#FBFBFB"/>
<path opacity="0.19" d="M83.9986 148.745C102.965 148.745 118.34 146.226 118.34 143.118C118.34 140.01 102.965 137.491 83.9986 137.491C65.0324 137.491 49.6572 140.01 49.6572 143.118C49.6572 146.226 65.0324 148.745 83.9986 148.745Z" fill="#FAFAFA"/>
<path opacity="0.23" d="M83.9987 148.495C102.126 148.495 116.821 146.088 116.821 143.118C116.821 140.148 102.126 137.74 83.9987 137.74C65.8716 137.74 51.1768 140.148 51.1768 143.118C51.1768 146.088 65.8716 148.495 83.9987 148.495Z" fill="#F9F9F9"/>
<path opacity="0.27" d="M83.9988 148.246C101.287 148.246 115.301 145.95 115.301 143.118C115.301 140.286 101.287 137.99 83.9988 137.99C66.7109 137.99 52.6963 140.286 52.6963 143.118C52.6963 145.95 66.7109 148.246 83.9988 148.246Z" fill="#F8F8F8"/>
<path opacity="0.31" d="M83.999 147.996C100.449 147.996 113.785 145.812 113.785 143.118C113.785 140.423 100.449 138.239 83.999 138.239C67.5486 138.239 54.2129 140.423 54.2129 143.118C54.2129 145.812 67.5486 147.996 83.999 147.996Z" fill="#F7F7F7"/>
<path opacity="0.35" d="M83.9991 147.75C99.6103 147.75 112.266 145.676 112.266 143.118C112.266 140.559 99.6103 138.486 83.9991 138.486C68.3878 138.486 55.7324 140.559 55.7324 143.118C55.7324 145.676 68.3878 147.75 83.9991 147.75Z" fill="#F6F6F6"/>
<path opacity="0.38" d="M83.9991 147.5C98.7712 147.5 110.746 145.538 110.746 143.118C110.746 140.697 98.7712 138.735 83.9991 138.735C69.2271 138.735 57.252 140.697 57.252 143.118C57.252 145.538 69.2271 147.5 83.9991 147.5Z" fill="#F5F5F5"/>
<path opacity="0.42" d="M83.9993 147.251C97.9339 147.251 109.23 145.4 109.23 143.118C109.23 140.835 97.9339 138.985 83.9993 138.985C70.0648 138.985 58.7686 140.835 58.7686 143.118C58.7686 145.4 70.0648 147.251 83.9993 147.251Z" fill="#F4F4F4"/>
<path opacity="0.46" d="M84.0024 147.001C97.0978 147.001 107.714 145.263 107.714 143.118C107.714 140.973 97.0978 139.234 84.0024 139.234C70.9069 139.234 60.291 140.973 60.291 143.118C60.291 145.263 70.9069 147.001 84.0024 147.001Z" fill="#F3F3F3"/>
<path opacity="0.5" d="M83.9985 146.755C96.2548 146.755 106.19 145.127 106.19 143.118C106.19 141.109 96.2548 139.481 83.9985 139.481C71.7423 139.481 61.8066 141.109 61.8066 143.118C61.8066 145.127 71.7423 146.755 83.9985 146.755Z" fill="#F3F3F3"/>
<path opacity="0.54" d="M83.9987 146.505C95.4175 146.505 104.674 144.989 104.674 143.118C104.674 141.247 95.4175 139.73 83.9987 139.73C72.58 139.73 63.3232 141.247 63.3232 143.118C63.3232 144.989 72.58 146.505 83.9987 146.505Z" fill="#F2F2F2"/>
<path opacity="0.58" d="M83.9988 146.256C94.5784 146.256 103.155 144.851 103.155 143.118C103.155 141.385 94.5784 139.98 83.9988 139.98C73.4192 139.98 64.8428 141.385 64.8428 143.118C64.8428 144.851 73.4192 146.256 83.9988 146.256Z" fill="#F1F1F1"/>
<path opacity="0.62" d="M83.9989 146.007C93.7393 146.007 101.635 144.713 101.635 143.118C101.635 141.522 93.7393 140.229 83.9989 140.229C74.2585 140.229 66.3623 141.522 66.3623 143.118C66.3623 144.713 74.2585 146.007 83.9989 146.007Z" fill="#F0F0F0"/>
<path opacity="0.65" d="M83.9991 145.76C92.902 145.76 100.119 144.577 100.119 143.118C100.119 141.658 92.902 140.476 83.9991 140.476C75.0962 140.476 67.8789 141.658 67.8789 143.118C67.8789 144.577 75.0962 145.76 83.9991 145.76Z" fill="#EFEFEF"/>
<path opacity="0.69" d="M84.0021 145.511C92.0658 145.511 98.6028 144.439 98.6028 143.118C98.6028 141.796 92.0658 140.725 84.0021 140.725C75.9383 140.725 69.4014 141.796 69.4014 143.118C69.4014 144.439 75.9383 145.511 84.0021 145.511Z" fill="#EEEEEE"/>
<path opacity="0.73" d="M97.0834 143.118C97.0834 144.302 91.2279 145.261 84.0022 145.261C76.7764 145.261 70.9209 144.302 70.9209 143.118C70.9209 141.933 76.7764 140.975 84.0022 140.975C91.2279 140.975 97.0834 141.933 97.0834 143.118Z" fill="#EDEDED"/>
<path opacity="0.77" d="M83.9994 145.012C90.3865 145.012 95.5643 144.164 95.5643 143.118C95.5643 142.072 90.3865 141.224 83.9994 141.224C77.6123 141.224 72.4346 142.072 72.4346 143.118C72.4346 144.164 77.6123 145.012 83.9994 145.012Z" fill="#ECECEC"/>
<path opacity="0.81" d="M94.044 143.118C94.044 144.026 89.5465 144.765 83.9985 144.765C78.4506 144.765 73.9531 144.029 73.9531 143.118C73.9531 142.207 78.4506 141.471 83.9985 141.471C89.5465 141.471 94.044 142.207 94.044 143.118Z" fill="#EBEBEB"/>
<path opacity="0.85" d="M83.9986 144.516C88.7074 144.516 92.5246 143.89 92.5246 143.118C92.5246 142.346 88.7074 141.72 83.9986 141.72C79.2899 141.72 75.4727 142.346 75.4727 143.118C75.4727 143.89 79.2899 144.516 83.9986 144.516Z" fill="#EAEAEA"/>
<path opacity="0.88" d="M91.0082 143.118C91.0082 143.752 87.8718 144.266 84.0016 144.266C80.1315 144.266 76.9951 143.752 76.9951 143.118C76.9951 142.484 80.1315 141.969 84.0016 141.969C87.8718 141.969 91.0082 142.484 91.0082 143.118Z" fill="#E9E9E9"/>
<path opacity="0.92" d="M83.9989 144.017C87.031 144.017 89.489 143.614 89.489 143.118C89.489 142.621 87.031 142.219 83.9989 142.219C80.9668 142.219 78.5088 142.621 78.5088 143.118C78.5088 143.614 80.9668 144.017 83.9989 144.017Z" fill="#E8E8E8"/>
<path opacity="0.96" d="M83.999 143.767C86.1919 143.767 87.9697 143.476 87.9697 143.118C87.9697 142.759 86.1919 142.469 83.999 142.469C81.806 142.469 80.0283 142.759 80.0283 143.118C80.0283 143.476 81.806 143.767 83.999 143.767Z" fill="#E7E7E7"/>
<path d="M83.9991 143.521C85.3528 143.521 86.4503 143.34 86.4503 143.118C86.4503 142.895 85.3528 142.715 83.9991 142.715C82.6453 142.715 81.5479 142.895 81.5479 143.118C81.5479 143.34 82.6453 143.521 83.9991 143.521Z" fill="#E6E6E6"/>
</g>
</g>
<defs>
<clipPath id="clip0_4742_35815">
<rect width="120" height="131.489" fill="white" transform="translate(24 18.5)"/>
</clipPath>
</defs>
</svg>
