<svg width="12" height="14" viewBox="0 0 12 14" fill="currentColor" xmlns="http://www.w3.org/2000/svg">
<path fill-rule="evenodd" clip-rule="evenodd" d="M10.6667 2.16671H10V1.16671C10 0.982612 9.85076 0.833374 9.66667 0.833374H9C8.81591 0.833374 8.66667 0.982612 8.66667 1.16671V2.16671H3.33333V1.16671C3.33333 0.982612 3.18409 0.833374 3 0.833374H2.33333C2.14924 0.833374 2 0.982612 2 1.16671V2.16671H1.33333C0.596954 2.16671 0 2.76366 0 3.50004V12.1667C0 12.9031 0.596954 13.5 1.33333 13.5H10.6667C11.403 13.5 12 12.9031 12 12.1667V3.50004C12 2.76366 11.403 2.16671 10.6667 2.16671ZM10.6667 12.1667H1.33333V4.83337H10.6667V12.1667ZM6.33333 7.50004H5.66667C5.48257 7.50004 5.33333 7.3508 5.33333 7.16671V6.50004C5.33333 6.31595 5.48257 6.16671 5.66667 6.16671H6.33333C6.51743 6.16671 6.66667 6.31595 6.66667 6.50004V7.16671C6.66667 7.3508 6.51743 7.50004 6.33333 7.50004ZM8.33333 7.50004H9C9.18409 7.50004 9.33333 7.3508 9.33333 7.16671V6.50004C9.33333 6.31595 9.18409 6.16671 9 6.16671H8.33333C8.14924 6.16671 8 6.31595 8 6.50004V7.16671C8 7.3508 8.14924 7.50004 8.33333 7.50004ZM3.66667 7.50004H3C2.8159 7.50004 2.66667 7.3508 2.66667 7.16671V6.50004C2.66667 6.31595 2.8159 6.16671 3 6.16671H3.66667C3.85076 6.16671 4 6.31595 4 6.50004V7.16671C4 7.3508 3.85076 7.50004 3.66667 7.50004ZM5.66667 10.1667H6.33333C6.51743 10.1667 6.66667 10.0175 6.66667 9.83337V9.16671C6.66667 8.98261 6.51743 8.83337 6.33333 8.83337H5.66667C5.48257 8.83337 5.33333 8.98261 5.33333 9.16671V9.83337C5.33333 10.0175 5.48257 10.1667 5.66667 10.1667ZM3.66667 10.1667H3C2.8159 10.1667 2.66667 10.0175 2.66667 9.83337V9.16671C2.66667 8.98261 2.8159 8.83337 3 8.83337H3.66667C3.85076 8.83337 4 8.98261 4 9.16671V9.83337C4 10.0175 3.85076 10.1667 3.66667 10.1667Z"/>
</svg>
