<svg width="24" height="24" viewBox="0 0 24 24" fill="currentColor" xmlns="http://www.w3.org/2000/svg">
<path fill-rule="evenodd" clip-rule="evenodd" d="M12 2C6.47715 2 2 6.47715 2 12C2 17.5228 6.47715 22 12 22C17.5228 22 22 17.5228 22 12C22 9.34784 20.9464 6.8043 19.0711 4.92893C17.1957 3.05357 14.6522 2 12 2ZM12 20C7.58172 20 4 16.4183 4 12C4 7.58172 7.58172 4 12 4C16.4183 4 20 7.58172 20 12C20 14.1217 19.1571 16.1566 17.6569 17.6569C16.1566 19.1571 14.1217 20 12 20ZM15.1199 8.4901C15.3143 8.29953 15.6254 8.29953 15.8199 8.4901L16.3199 9.0201C16.4145 9.11398 16.4678 9.24178 16.4678 9.3751C16.4678 9.50842 16.4145 9.63621 16.3199 9.7301L10.6999 15.3501C10.6091 15.4468 10.4824 15.5016 10.3499 15.5016C10.2173 15.5016 10.0906 15.4468 9.99985 15.3501L7.64985 12.9801C7.5552 12.8862 7.50195 12.7584 7.50195 12.6251C7.50195 12.4918 7.5552 12.364 7.64985 12.2701L8.17985 11.7401C8.27059 11.6434 8.39727 11.5886 8.52985 11.5886C8.66244 11.5886 8.78912 11.6434 8.87985 11.7401L10.3799 13.2301L15.1199 8.4901Z"/>
</svg>
