<svg width="24" height="24" viewBox="0 0 24 24" fill="currentColor" xmlns="http://www.w3.org/2000/svg">
  <path d="M20.0854 10.2293c-.3995-.3995-1.0472-.3995-1.4467 0l-.7071-.707.7071.707c-.3995.3995-.3995 1.0472 0 1.4468l-.7071.7071.7071-.7071c.3995.3995 1.0472.3995 1.4467 0l.7071.7071-.7071-.7071c.3995-.3996.3995-1.0473 0-1.4468zm1.4142-1.4142c1.1806 1.1806 1.1806 3.0946 0 4.2752-1.1805 1.1805-3.0946 1.1805-4.2751 0-1.1806-1.1806-1.1806-3.0946 0-4.2752 1.1805-1.1805 3.0946-1.1805 4.2751 0zM13.4955 6.6195c-.826-.826-2.1651-.826-2.9911 0-.826.826-.826 2.165 0 2.991.826.826 2.1651.826 2.9911 0 .8259-.826.8259-2.165 0-2.991zm1.4142-1.4143c1.607 1.607 1.607 4.2125 0 5.8195-1.607 1.6071-4.2125 1.607-5.8195 0-1.607-1.607-1.607-4.2124 0-5.8194 1.607-1.607 4.2125-1.607 5.8195 0zM5.3614 10.2293c-.3995-.3995-1.0473-.3995-1.4468 0l-.707-.707.707.707c-.3995.3995-.3995 1.0472 0 1.4468l-.707.7071.707-.7071c.3995.3995 1.0473.3995 1.4468 0l.707.7071-.707-.7071c.3995-.3996.3995-1.0473 0-1.4468zm1.4142-1.4142c1.1805 1.1806 1.1805 3.0946 0 4.2752-1.1806 1.1805-3.0946 1.1805-4.2752 0-1.1805-1.1806-1.1805-3.0946 0-4.2752 1.1806-1.1805 3.0946-1.1805 4.2752 0zM18.699 15.4023c0-.5522.4477-1 1-1h.801c1.9333 0 3.5 1.5668 3.5 3.5v1.096c0 .5523-.4477 1-1 1s-1-.4477-1-1v-1.096c0-.8287-.6713-1.5-1.5-1.5h-.801c-.5523 0-1-.4477-1-1zM3.5 16.4023c-.8287 0-1.5.6713-1.5 1.5v1.096c0 .5523-.4477 1-1 1s-1-.4477-1-1v-1.096c0-1.9332 1.5667-3.5 3.5-3.5h.801c.5523 0 1 .4478 1 1 0 .5523-.4477 1-1 1H3.5zM5.66 17.3984c0-2.4852 2.0147-4.5 4.5-4.5h3.679c2.4853 0 4.5 2.0148 4.5 4.5v1.601c0 .5523-.4477 1-1 1s-1-.4477-1-1v-1.601c0-1.3807-1.1193-2.5-2.5-2.5H10.16c-1.3807 0-2.5 1.1193-2.5 2.5v1.601c0 .5523-.4477 1-1 1s-1-.4477-1-1v-1.601z"/>
</svg>
