<svg width="24" height="24" viewBox="0 0 24 24" fill="currentColor" xmlns="http://www.w3.org/2000/svg">
<path d="M17.8479 16.4379C17.9426 16.5318 17.9958 16.6596 17.9958 16.7929C17.9958 16.9262 17.9426 17.054 17.8479 17.1479L17.1479 17.8479C17.054 17.9426 16.9262 17.9958 16.7929 17.9958C16.6596 17.9958 16.5318 17.9426 16.4379 17.8479L11.9979 13.4079L7.5579 17.8479C7.46402 17.9426 7.33622 17.9958 7.2029 17.9958C7.06958 17.9958 6.94178 17.9426 6.8479 17.8479L6.1479 17.1479C6.05324 17.054 6 16.9262 6 16.7929C6 16.6596 6.05324 16.5318 6.1479 16.4379L10.5879 11.9979L6.1479 7.5579C6.05324 7.46402 6 7.33622 6 7.2029C6 7.06958 6.05324 6.94178 6.1479 6.8479L6.8479 6.1479C6.94178 6.05324 7.06958 6 7.2029 6C7.33622 6 7.46402 6.05324 7.5579 6.1479L11.9979 10.5879L16.4379 6.1479C16.5318 6.05324 16.6596 6 16.7929 6C16.9262 6 17.054 6.05324 17.1479 6.1479L17.8479 6.8479C17.9426 6.94178 17.9958 7.06958 17.9958 7.2029C17.9958 7.33622 17.9426 7.46402 17.8479 7.5579L13.4079 11.9979L17.8479 16.4379Z"/>
</svg>
