<svg width="58" height="25" viewBox="0 0 58 25" fill="none" xmlns="http://www.w3.org/2000/svg">
<g clip-path="url(#clip0_15703_300799)">
<path d="M5.19842 10.7105C4.91808 11.8405 3.94175 12.7205 2.67541 12.7205C1.11908 12.7205 0.0460815 11.4705 0.0460815 10.0205C0.0460815 8.52055 1.16742 7.32055 2.63675 7.32055C3.87408 7.32055 4.91808 8.13055 5.20808 9.37055H4.00942C3.80642 8.83055 3.33275 8.45055 2.68508 8.45055C2.25975 8.44055 1.92141 8.60055 1.64108 8.89055C1.38975 9.17055 1.23508 9.58055 1.23508 10.0205C1.23508 10.9405 1.85375 11.5905 2.68508 11.5905C3.41975 11.5905 3.83542 11.1405 4.00942 10.7205H5.19842V10.7105ZM6.97708 10.0205C6.97708 10.9105 7.63442 11.5705 8.43675 11.5705C9.23908 11.5705 9.88675 10.9105 9.88675 10.0105C9.88675 9.11055 9.23908 8.45055 8.43675 8.45055C7.63442 8.46055 6.97708 9.11055 6.97708 10.0205ZM5.80742 10.0005C5.80742 8.70055 6.72575 7.32055 8.43675 7.32055C10.1477 7.32055 11.0661 8.70055 11.0661 10.0105C11.0661 11.3305 10.1477 12.7105 8.43675 12.7105C6.72575 12.7105 5.80742 11.3305 5.80742 10.0005ZM11.8781 7.47055H12.9704V8.11055C13.0767 7.88055 13.5504 7.31055 14.4011 7.31055C14.8071 7.31055 15.2517 7.43055 15.6094 7.83055C15.7157 7.95055 15.8414 8.16055 15.9091 8.29055C15.9961 8.13055 16.1024 7.97055 16.2667 7.81055C16.5664 7.51055 17.0014 7.31055 17.5234 7.31055C17.9391 7.31055 18.4514 7.42055 18.8284 7.82055C19.2731 8.30055 19.3697 8.72055 19.3697 9.77055V12.5605H18.2001V9.82055C18.2001 9.50055 18.1711 9.14055 18.0068 8.88055C17.8811 8.63055 17.6491 8.46055 17.2334 8.46055C16.8177 8.46055 16.5374 8.65055 16.3827 8.92055C16.2281 9.20055 16.2087 9.47055 16.2087 9.77055V12.5605H15.0391V9.77055C15.0391 9.47055 15.0101 9.19055 14.8844 8.93055C14.7394 8.66055 14.4977 8.47055 14.0821 8.46055C13.6567 8.46055 13.3861 8.67055 13.2411 8.93055C13.0961 9.20055 13.0477 9.51055 13.0477 9.81055V12.5605H11.8781V7.47055ZM20.3267 7.47055H21.4287V8.11055C21.5351 7.88055 22.0087 7.31055 22.8594 7.31055C23.2654 7.31055 23.7101 7.43055 24.0677 7.83055C24.1741 7.95055 24.2997 8.16055 24.3674 8.29055C24.4544 8.13055 24.5607 7.97055 24.7251 7.81055C25.0247 7.51055 25.4597 7.31055 25.9817 7.31055C26.3974 7.31055 26.9097 7.42055 27.2867 7.82055C27.7314 8.30055 27.8281 8.72055 27.8281 9.77055V12.5605H26.6584V9.82055C26.6584 9.50055 26.6294 9.14055 26.4651 8.88055C26.3394 8.63055 26.1074 8.46055 25.6917 8.46055C25.2761 8.46055 24.9957 8.65055 24.8411 8.92055C24.6864 9.20055 24.6671 9.47055 24.6671 9.77055V12.5605H23.4877V9.77055C23.4877 9.47055 23.4587 9.19055 23.3331 8.93055C23.1881 8.66055 22.9464 8.47055 22.5308 8.46055C22.1054 8.46055 21.8347 8.67055 21.6897 8.93055C21.5447 9.20055 21.5061 9.51055 21.5061 9.81055V12.5605H20.3267V7.47055ZM29.8388 10.0205C29.8388 10.9105 30.4961 11.5705 31.2984 11.5705C32.1007 11.5705 32.7484 10.9105 32.7484 10.0105C32.7484 9.11055 32.1007 8.45055 31.2984 8.45055C30.4961 8.46055 29.8388 9.11055 29.8388 10.0205ZM28.6691 10.0005C28.6691 8.70055 29.5874 7.32055 31.2984 7.32055C33.0094 7.32055 33.9277 8.70055 33.9277 10.0105C33.9277 11.3305 33.0094 12.7105 31.2984 12.7105C29.5874 12.7105 28.6691 11.3305 28.6691 10.0005ZM34.7687 7.47055H35.8708C35.8708 7.69055 35.8708 7.91055 35.8611 8.15055C36.0737 7.75055 36.5184 7.31055 37.3884 7.32055C38.9931 7.33055 39.2928 8.60055 39.2928 9.50055V12.5705H38.1231V9.80055C38.1231 9.04055 37.8814 8.46055 37.0597 8.46055C36.2284 8.47055 35.9384 9.04055 35.9384 9.76055V12.5705H34.7687V7.47055ZM23.6617 17.3805C23.6617 18.0105 24.0967 18.9305 25.1601 18.9305C25.8174 18.9305 26.2427 18.5805 26.4651 18.1105C26.5811 17.8905 26.6391 17.6505 26.6488 17.4005C26.6584 17.1605 26.6101 16.9105 26.5134 16.6905C26.3104 16.2105 25.8464 15.7905 25.1408 15.7905C24.2031 15.7905 23.6617 16.5805 23.6617 17.3805ZM27.8184 19.9005H26.6488V19.1705C26.3394 19.7605 25.6821 20.0605 24.9958 20.0605C23.4201 20.0605 22.5017 18.7905 22.5017 17.3605C22.5017 15.7605 23.6231 14.6605 24.9958 14.6605C25.8948 14.6605 26.4361 15.1505 26.6488 15.5605V14.8205H27.8184V19.9005ZM32.8838 17.3505C32.8838 16.6205 32.3714 15.7805 31.3757 15.7805C30.9504 15.7805 30.5831 15.9605 30.3124 16.2405C30.0514 16.5205 29.8871 16.9205 29.8871 17.3605C29.8871 17.8005 30.0514 18.1805 30.3124 18.4605C30.5831 18.7405 30.9601 18.9105 31.3757 18.9105C32.2844 18.9305 32.8838 18.2005 32.8838 17.3505ZM28.7754 14.8205H29.8774V15.5605C30.2254 15.0505 30.7957 14.6605 31.6174 14.6605C33.3381 14.6605 34.0631 16.1705 34.0631 17.4005C34.0631 18.8405 33.0674 20.0605 31.6271 20.0605C30.6701 20.0605 30.1481 19.5505 29.9547 19.2305V19.9105V22.5605H28.7851V14.8205H28.7754ZM38.8771 17.3505C38.8771 16.6205 38.3647 15.7805 37.3691 15.7805C36.9438 15.7805 36.5764 15.9605 36.3058 16.2405C36.0448 16.5205 35.8804 16.9205 35.8804 17.3605C35.8804 17.8005 36.0448 18.1805 36.3058 18.4605C36.5764 18.7405 36.9534 18.9105 37.3691 18.9105C38.2778 18.9305 38.8771 18.2005 38.8771 17.3505ZM34.7687 14.8205H35.8708V15.5605C36.2188 15.0505 36.7891 14.6605 37.6108 14.6605C39.3314 14.6605 40.0564 16.1705 40.0564 17.4005C40.0564 18.8405 39.0608 20.0605 37.6204 20.0605C36.6634 20.0605 36.1414 19.5505 35.9481 19.2305V19.9105V22.5605H34.7784V14.8205H34.7687Z" fill="black"/>
<path d="M57.5241 0.540468C56.2578 1.15047 45.1701 6.54047 44.2421 7.01047C42.5118 7.91047 41.5934 9.25047 41.5934 10.9105C41.6031 12.3405 42.3571 13.2805 42.7148 13.6505C42.3668 14.0105 41.6224 14.9105 41.5934 16.1005C41.5451 17.8605 42.2894 19.2205 43.7588 20.0205L51.8691 24.0005C51.9174 24.0205 51.9754 24.0405 52.0238 24.0405C52.0914 24.0405 52.1591 24.0205 52.2171 23.9805C52.3234 23.9105 52.3814 23.7905 52.3814 23.6605V18.9005C52.3814 17.8005 51.7628 16.7905 50.8154 16.3205L45.4311 13.6305L56.4028 8.27047C57.3984 7.78047 58.0461 6.73047 58.0461 5.58047V0.960469C58.0461 0.880469 58.0461 0.640469 57.8818 0.530469C57.8238 0.490469 57.7754 0.480469 57.7271 0.480469C57.6304 0.480469 57.5628 0.520468 57.5241 0.540468ZM43.7878 12.6105C43.7781 12.6005 43.0434 11.9705 43.0434 10.8905C43.0434 10.3205 43.2078 9.83047 43.5461 9.40047C43.8554 9.01047 44.3001 8.66047 44.8704 8.36047C45.6341 7.98047 53.0871 4.35047 56.5864 2.66047V5.58047C56.5864 6.14047 56.2674 6.66047 55.7841 6.90047L43.9038 12.7005L43.7878 12.6105ZM44.4064 18.6505C43.4301 18.1105 43.0048 17.3305 43.0434 16.1305C43.0628 15.3205 43.7878 14.6605 43.8168 14.6405L43.9134 14.5605L50.1968 17.6705C50.6414 17.8905 50.9314 18.3705 50.9314 18.8905V21.8605L44.4064 18.6505Z" fill="url(#paint0_linear_15703_300799)"/>
</g>
<defs>
<linearGradient id="paint0_linear_15703_300799" x1="49.8129" y1="24.0202" x2="49.8129" y2="2.29793" gradientUnits="userSpaceOnUse">
<stop stop-color="#429AE2"/>
<stop offset="0.5129" stop-color="#38DAF9"/>
<stop offset="1" stop-color="#9AE9FF"/>
</linearGradient>
<clipPath id="clip0_15703_300799">
<rect width="58" height="24" fill="white" transform="translate(0 0.5)"/>
</clipPath>
</defs>
</svg>
