<svg width="32" height="33" viewBox="0 0 16 17" fill="none" xmlns="http://www.w3.org/2000/svg">
<path fill-rule="evenodd" clip-rule="evenodd" d="M7.99967 3.8335C8.36786 3.8335 8.66634 4.13197 8.66634 4.50016V5.50016C8.66634 5.86835 8.36786 6.16683 7.99967 6.16683C7.63148 6.16683 7.33301 5.86835 7.33301 5.50016V4.50016C7.33301 4.13197 7.63148 3.8335 7.99967 3.8335Z" fill="#5B6486"/>
<path fill-rule="evenodd" clip-rule="evenodd" d="M11.7709 4.72893C9.68811 2.64613 6.31124 2.64613 4.22844 4.72893L4.22844 4.72893C2.14564 6.81171 2.14564 10.1886 4.22844 12.2714L3.76429 12.7355L4.22844 12.2714C6.31122 14.3542 9.6881 14.3542 11.7709 12.2714L12.2423 12.7428L11.7709 12.2714C13.8537 10.1886 13.8537 6.81173 11.7709 4.72893ZM12.7135 3.78591C10.11 1.18262 5.88906 1.18269 3.28563 3.78612L12.7135 3.78591ZM12.7135 3.78591C12.7136 3.78598 12.7136 3.78605 12.7137 3.78612C15.3172 6.38961 15.3172 10.6107 12.7137 13.2142C10.1102 15.8177 5.88911 15.8177 3.28563 13.2142C0.682135 10.6107 0.682133 6.3896 3.28563 3.78612" fill="#5B6486"/>
<path fill-rule="evenodd" clip-rule="evenodd" d="M7.99967 10.8335C8.36786 10.8335 8.66634 11.132 8.66634 11.5002V12.5002C8.66634 12.8684 8.36786 13.1668 7.99967 13.1668C7.63148 13.1668 7.33301 12.8684 7.33301 12.5002V11.5002C7.33301 11.132 7.63148 10.8335 7.99967 10.8335Z" fill="#5B6486"/>
<path fill-rule="evenodd" clip-rule="evenodd" d="M7.40434 6.16683C6.99653 6.16683 6.66634 6.49702 6.66634 6.90483C6.66634 7.24304 6.89632 7.53785 7.22446 7.62018C7.22448 7.62018 7.2245 7.62018 7.22452 7.62019L9.09913 8.09018L9.09919 8.09019C10.0203 8.32122 10.6663 9.14905 10.6663 10.0988C10.6663 11.2432 9.73833 12.1702 8.59501 12.1702H7.49967C6.30282 12.1702 5.33301 11.2004 5.33301 10.0035H6.66634C6.66634 10.464 7.0392 10.8368 7.49967 10.8368H8.59501C9.00236 10.8368 9.33301 10.5064 9.33301 10.0988C9.33301 9.7606 9.10301 9.46578 8.77483 9.38347L6.90022 8.91348L6.90016 8.91347C5.97901 8.68244 5.33301 7.8546 5.33301 6.90483C5.33301 5.76064 6.26015 4.8335 7.40434 4.8335H8.49967C9.69653 4.8335 10.6663 5.80331 10.6663 7.00016H9.33301C9.33301 6.53969 8.96015 6.16683 8.49967 6.16683H7.40434Z" fill="#5B6486"/>
</svg>
