<svg width="24" height="24" viewBox="0 0 24 24" fill="none" xmlns="http://www.w3.org/2000/svg">
<g id="Type=DC">
<path id="Vector" d="M3.01929 17V7.90002H6.99729C7.98529 7.90002 8.85195 8.09069 9.59729 8.47202C10.3426 8.85335 10.9233 9.38202 11.3393 10.058C11.7553 10.734 11.9633 11.5313 11.9633 12.45C11.9633 13.36 11.7553 14.1573 11.3393 14.842C10.9233 15.518 10.3426 16.0467 9.59729 16.428C8.85195 16.8094 7.98529 17 6.99729 17H3.01929ZM4.70929 15.57H6.91929C7.60395 15.57 8.19329 15.44 8.68729 15.18C9.18995 14.92 9.57562 14.556 9.84429 14.088C10.1216 13.62 10.2603 13.074 10.2603 12.45C10.2603 11.8173 10.1216 11.2713 9.84429 10.812C9.57562 10.344 9.18995 9.98002 8.68729 9.72002C8.19329 9.46002 7.60395 9.33002 6.91929 9.33002H4.70929V15.57ZM17.1916 17.13C16.4982 17.13 15.8526 17.0173 15.2546 16.792C14.6652 16.558 14.1496 16.233 13.7076 15.817C13.2742 15.3924 12.9362 14.894 12.6936 14.322C12.4508 13.75 12.3295 13.126 12.3295 12.45C12.3295 11.774 12.4508 11.15 12.6936 10.578C12.9362 10.006 13.2786 9.51202 13.7206 9.09602C14.1626 8.67135 14.6782 8.34635 15.2676 8.12102C15.8569 7.88702 16.5026 7.77002 17.2046 7.77002C17.9499 7.77002 18.6302 7.90002 19.2456 8.16002C19.8609 8.41135 20.3809 8.78835 20.8056 9.29102L19.7136 10.318C19.3842 9.96269 19.0159 9.69835 18.6086 9.52502C18.2012 9.34302 17.7592 9.25202 17.2826 9.25202C16.8059 9.25202 16.3682 9.33002 15.9696 9.48602C15.5796 9.64202 15.2372 9.86302 14.9426 10.149C14.6566 10.435 14.4312 10.773 14.2666 11.163C14.1106 11.553 14.0326 11.982 14.0326 12.45C14.0326 12.918 14.1106 13.347 14.2666 13.737C14.4312 14.127 14.6566 14.465 14.9426 14.751C15.2372 15.037 15.5796 15.258 15.9696 15.414C16.3682 15.57 16.8059 15.648 17.2826 15.648C17.7592 15.648 18.2012 15.5613 18.6086 15.388C19.0159 15.206 19.3842 14.933 19.7136 14.569L20.8056 15.609C20.3809 16.103 19.8609 16.48 19.2456 16.74C18.6302 17 17.9456 17.13 17.1916 17.13Z" fill="currentColor"/>
</g>
</svg>
