<svg width="19" height="18" viewBox="0 0 19 18" fill="none" xmlns="http://www.w3.org/2000/svg">
<path d="M10.0009 2.07001C11.7499 2.32629 13.3372 3.23457 14.4443 4.61257C15.5514 5.99056 16.0963 7.73629 15.9698 9.49939C15.8432 11.2625 15.0545 12.9125 13.7619 14.1182C12.4693 15.3239 10.7685 15.9962 9.00091 16C7.5914 16.0001 6.2147 15.5746 5.051 14.7793C3.88729 13.984 2.99079 12.8559 2.47881 11.5426C1.96682 10.2294 1.86322 8.7922 2.18154 7.41911C2.49987 6.04601 3.22531 4.801 4.26291 3.84701L2.84791 2.43201C1.28796 3.89383 0.299321 5.86321 0.0590114 7.9875C-0.181298 10.1118 0.342421 12.2522 1.53639 14.0256C2.73035 15.799 4.51659 17.0894 6.57525 17.6658C8.6339 18.2423 10.8305 18.0671 12.7718 17.1716C14.713 16.2761 16.2721 14.7189 17.1699 12.7787C18.0677 10.8385 18.2455 8.64206 17.6715 6.58272C17.0975 4.52338 15.8092 2.73561 14.0373 1.53954C12.2653 0.343477 10.1255 -0.18278 8.00091 0.0550104V6.08501H10.0009V2.07201V2.07001Z" fill="currentColor"/>
<path d="M4.7088 5.70697C4.52133 5.8945 4.41602 6.14881 4.41602 6.41397C4.41602 6.67914 4.52133 6.93344 4.7088 7.12097L7.5378 9.94997C7.7264 10.1321 7.97901 10.2329 8.2412 10.2306C8.5034 10.2284 8.75421 10.1232 8.93962 9.93779C9.12503 9.75238 9.2302 9.50157 9.23248 9.23937C9.23475 8.97718 9.13396 8.72457 8.9518 8.53597L6.1218 5.70697C5.93427 5.5195 5.67997 5.41418 5.4148 5.41418C5.14964 5.41418 4.89533 5.5195 4.7078 5.70697H4.7088Z" fill="currentColor"/>
</svg>
