<svg width="24" height="24" viewBox="0 0 24 24" fill="none" xmlns="http://www.w3.org/2000/svg">
<g clip-path="url(#clip0_26625_827)">
<path d="M14.9668 10.4206C14.8421 9.97478 14.6203 9.5619 14.3172 9.2114C13.7364 8.55679 12.8809 8.2251 11.7772 8.2251H10.0768V13.734H11.2509V9.39567H11.779C12.1249 9.38879 12.4693 9.44286 12.7964 9.55537C13.0437 9.64379 13.2651 9.79215 13.4406 9.9871C13.8103 10.3995 13.9863 11.0664 13.9863 11.9667C13.9863 12.867 13.7927 13.5585 13.3966 13.9849C13.2019 14.1902 12.9604 14.3455 12.6925 14.4377C12.331 14.5597 11.9511 14.6191 11.5695 14.6132H11.522H8.00146V15.782H11.5607C12.7313 15.782 13.6378 15.4468 14.2539 14.7887C14.5787 14.4376 14.8195 14.0175 14.958 13.5602C15.1087 13.0475 15.1811 12.515 15.1727 11.9808V11.9808C15.179 11.4536 15.1096 10.9282 14.9668 10.4206V10.4206Z" fill="currentColor"/>
<path d="M16.7675 9.52197C16.5805 8.84283 16.2457 8.21308 15.787 7.67748C14.9122 6.68942 13.6131 6.1875 11.9233 6.1875H8.00146V13.7339H9.17907V7.36334H11.9251C12.5336 7.35103 13.1394 7.44793 13.7135 7.6494C14.1735 7.81432 14.5845 8.09193 14.9087 8.45669C15.2515 8.86214 15.502 9.33698 15.6427 9.84839C15.8274 10.5313 15.9157 11.2366 15.905 11.9438C15.9179 12.6675 15.823 13.3891 15.6233 14.0849C15.4715 14.613 15.2013 15.0997 14.833 15.5082C14.4726 15.8888 14.025 16.1767 13.5286 16.3471C12.8985 16.5561 12.237 16.6558 11.573 16.6419H8.00146V17.8213H11.573C12.3714 17.8354 13.1663 17.7125 13.9229 17.458C14.5933 17.223 15.1971 16.8305 15.6832 16.3137C16.1735 15.7764 16.5347 15.1349 16.7393 14.4377C16.9734 13.631 17.0861 12.7941 17.0738 11.9544C17.0877 11.1332 16.9846 10.3142 16.7675 9.52197V9.52197Z" fill="currentColor"/>
</g>
<defs>
<clipPath id="clip0_26625_827">
<rect width="9.375" height="12" fill="white" transform="translate(7.75 6)"/>
</clipPath>
</defs>
</svg>
