<svg width="26" height="32" viewBox="0 0 26 32" fill="none" xmlns="http://www.w3.org/2000/svg">
<g clip-path="url(#clip0_442_176831)">
<path d="M19.745 11.7882C19.4127 10.5994 18.8213 9.4984 18.013 8.56373C16.4639 6.8181 14.1827 5.93359 11.2395 5.93359H6.70512V20.624H9.83602V9.05512H11.2442C12.1667 9.03678 13.0852 9.18095 13.9573 9.481C14.6169 9.71677 15.2073 10.1124 15.6754 10.6323C16.6611 11.7321 17.1305 13.5104 17.1305 15.9113C17.1305 18.3121 16.6142 20.156 15.558 21.2932C15.0387 21.8405 14.3946 22.2547 13.6804 22.5006C12.7162 22.8259 11.7034 22.9841 10.6856 22.9686H10.5589H1.1709V26.0855H10.6622C13.7837 26.0855 16.2011 25.1916 17.844 23.4366C18.7102 22.5002 19.3522 21.3801 19.7216 20.1606C20.1235 18.7933 20.3165 17.3734 20.2942 15.9487C20.311 14.5429 20.126 13.1419 19.745 11.7882Z" fill="#06508F"/>
<path d="M24.547 9.39191C24.0483 7.58087 23.1556 5.90156 21.9324 4.47328C19.5995 1.83847 16.1354 0.5 11.6291 0.5H1.1709V20.6238H4.31118V3.63557H11.6338C13.2565 3.60275 14.8719 3.86114 16.4029 4.3984C17.6296 4.8382 18.7256 5.57849 19.5901 6.55118C20.5044 7.63238 21.1722 8.89862 21.5475 10.2624C22.0401 12.0835 22.2755 13.9643 22.2469 15.8502C22.2815 17.78 22.0284 19.7042 21.4959 21.5598C21.0911 22.9679 20.3704 24.2658 19.3883 25.3552C18.4273 26.3702 17.2338 27.1378 15.91 27.5922C14.2296 28.1496 12.4657 28.4156 10.695 28.3785H1.1709V31.5234H10.695C12.8241 31.561 14.9438 31.2333 16.9615 30.5547C18.7492 29.928 20.3593 28.8814 21.6555 27.5033C22.9631 26.0705 23.9262 24.3596 24.4719 22.5005C25.0962 20.3492 25.3967 18.1175 25.3638 15.8783C25.4009 13.6885 25.1259 11.5046 24.547 9.39191Z" fill="#06508F"/>
</g>
<defs>
<clipPath id="clip0_442_176831">
<rect width="25" height="32" fill="white" transform="translate(0.5)"/>
</clipPath>
</defs>
</svg>
