<svg width="76" height="24" viewBox="0 0 76 24" fill="none" xmlns="http://www.w3.org/2000/svg">
<path d="M14.3207 8.72922C14.0641 7.81546 13.608 6.97 12.9853 6.25377C11.791 4.90385 10.0357 4.21985 7.76292 4.21985H4.26327V15.5584H6.68082V6.61568H7.76654C8.47787 6.59996 9.18628 6.71149 9.85837 6.94501C10.3669 7.12734 10.8221 7.43329 11.183 7.83531C11.943 8.68941 12.3049 10.0647 12.3049 11.9212C12.3049 13.7778 11.8959 15.211 11.0816 16.0832C10.6813 16.5064 10.1847 16.8267 9.63399 17.0169C8.88905 17.2671 8.10715 17.3895 7.3214 17.3788H0V19.7891H7.31778C9.72446 19.7891 11.5883 19.1015 12.855 17.7443C13.5229 17.0202 14.0178 16.154 14.3026 15.211C14.6125 14.1536 14.7613 13.0556 14.7441 11.9538C14.7608 10.8641 14.6182 9.77772 14.3207 8.72922Z" fill="#005994"/>
<path d="M18.023 6.86539C17.6366 5.46891 16.9484 4.17421 16.0072 3.0726C14.1976 1.03506 11.5376 0 8.06331 0H0V15.562H2.42116V2.4284H8.06693C9.31543 2.39774 10.5594 2.59015 11.7403 2.9966C12.6856 3.33939 13.5303 3.91288 14.1976 4.66499C14.9046 5.49973 15.4197 6.4794 15.7068 7.53492C16.0901 8.94255 16.2716 10.3974 16.246 11.8561C16.2739 13.3482 16.08 14.8362 15.6706 16.2714C15.3557 17.3599 14.799 18.3632 14.042 19.2064C13.3011 19.9914 12.3809 20.585 11.3603 20.9364C10.0646 21.3674 8.70466 21.573 7.33949 21.5444H0V23.9873H7.33949C8.98112 24.0136 10.6152 23.759 12.171 23.2345C13.5497 22.7508 14.7913 21.9413 15.79 20.8748C16.7979 19.7666 17.5404 18.4436 17.9615 17.006C18.4432 15.3426 18.6737 13.6166 18.6455 11.8851C18.6777 10.1908 18.4681 8.50051 18.023 6.86539Z" fill="#005994"/>
<path d="M33.6175 11.6823C33.6175 13.4195 33.1471 14.7465 32.2061 15.6633C31.2651 16.5802 29.9104 17.0325 28.1419 17.0205H25.2285V6.52515H28.4495C30.0829 6.52515 31.352 6.97753 32.2568 7.8823C33.1615 8.78707 33.6151 10.0537 33.6175 11.6823ZM32.3219 11.7258C32.3219 10.3577 31.96 9.32269 31.2905 8.63145C30.6209 7.94021 29.5823 7.57106 28.2287 7.57106H26.4554V15.9637H27.9392C29.3868 15.9637 30.481 15.6018 31.2217 14.878C31.9624 14.1542 32.3291 13.0974 32.3219 11.7077V11.7258Z" fill="#005994"/>
<path d="M38.8254 17.1616C37.7984 17.2155 36.7969 16.8299 36.0712 16.1012C35.3981 15.3919 35.0615 14.4014 35.0615 13.1299C35.0615 11.8632 35.3728 10.8535 35.9989 10.108C36.6211 9.35805 37.5587 8.94284 38.5322 8.98608C39.4194 8.94191 40.2794 9.29945 40.8738 9.95961C41.4744 10.6772 41.7831 11.5944 41.7387 12.5292V13.2819H36.3101C36.2766 14.046 36.5252 14.7956 37.0086 15.3882C37.4988 15.8879 38.1808 16.1517 38.8796 16.112C39.7454 16.1099 40.6015 15.93 41.3949 15.5837V16.6441C41.0113 16.816 40.6111 16.9482 40.2006 17.0385C39.7476 17.1266 39.2868 17.1678 38.8254 17.1616ZM38.5033 9.99942C37.9326 9.97383 37.3796 10.2001 36.9905 10.6183C36.586 11.0982 36.3529 11.6993 36.3282 12.3265H40.4431C40.4864 11.7084 40.3081 11.0951 39.94 10.5966C39.5797 10.1855 39.0489 9.96486 38.5033 9.99942Z" fill="#005994"/>
<path d="M47.026 10.0718H45.0211V17.0205H43.8304V10.0718H42.4189V9.5326L43.8304 9.10193V8.6604C43.8304 6.73022 44.6748 5.76514 46.3637 5.76514C46.8559 5.77989 47.3434 5.86521 47.8114 6.01847L47.5218 6.97753C47.1435 6.84332 46.7468 6.76765 46.3456 6.75315C45.9583 6.7246 45.5827 6.89335 45.3468 7.20191C45.094 7.64031 44.9805 8.14514 45.0211 8.64954V9.14898H47.026V10.0718ZM48.3651 7.0101C48.3451 6.79089 48.4172 6.57326 48.5641 6.40933C48.7009 6.28309 48.8811 6.2144 49.0672 6.21752C49.2518 6.21458 49.4301 6.28484 49.563 6.41295C49.7148 6.57302 49.7912 6.79024 49.7729 7.0101C49.7904 7.23094 49.7142 7.44896 49.563 7.61087C49.2834 7.87742 48.8437 7.87742 48.5641 7.61087C48.4195 7.44564 48.3477 7.229 48.3651 7.0101ZM49.6571 17.0205H48.4628V9.14898H49.6571V17.0205Z" fill="#005994"/>
<path d="M57.2973 17.0205V11.9249C57.3413 11.4041 57.1847 10.8863 56.8594 10.4772C56.4905 10.1312 55.9916 9.95875 55.4878 10.0031C54.6626 10.0031 54.0594 10.2251 53.6782 10.669C53.2946 11.1142 53.1028 11.8525 53.1028 12.8767V17.0205H51.9121V9.14903H52.882L53.0738 10.2348H53.1317C53.3819 9.84295 53.7384 9.5304 54.1596 9.3336C54.6199 9.11663 55.1237 9.0077 55.6325 9.01513C56.5807 9.01513 57.2973 9.24313 57.775 9.69913C58.2527 10.1551 58.4988 10.8898 58.4988 11.8959V17.035L57.2973 17.0205Z" fill="#005994"/>
<path d="M63.9886 17.1616C62.9604 17.2166 61.9574 16.8309 61.2309 16.1012C60.5578 15.3919 60.2212 14.4015 60.2212 13.1299C60.1688 12.0477 60.5022 10.9819 61.1621 10.1225C61.7844 9.37255 62.722 8.95734 63.6955 9.00058C64.5836 8.95739 65.4443 9.31467 66.0407 9.97411C66.64 10.6922 66.9474 11.6094 66.902 12.5437V13.2964H61.4734C61.4398 14.0605 61.6885 14.8101 62.1719 15.4027C62.6632 15.903 63.3465 16.1668 64.0465 16.1265C64.9122 16.124 65.7683 15.9441 66.5618 15.5982V16.6586C66.1768 16.8301 65.7755 16.9623 65.3639 17.053C64.9104 17.1365 64.4496 17.1729 63.9886 17.1616ZM63.6629 9.99945C63.0924 9.97434 62.5395 10.2005 62.1502 10.6183C61.7456 11.0982 61.5126 11.6993 61.4879 12.3265H65.6064C65.6478 11.7092 65.4682 11.0972 65.0997 10.6002C64.74 10.1878 64.2091 9.96578 63.6629 9.99945Z" fill="#005994"/>
<path d="M73.9991 15.9637H73.934C73.3758 16.7673 72.4388 17.2214 71.4622 17.1616C70.5389 17.2101 69.6474 16.818 69.0591 16.1049C68.4873 15.4028 68.1978 14.4003 68.1978 13.101C68.1978 11.8018 68.4873 10.7957 69.0627 10.0791C69.6421 9.3533 70.5345 8.9495 71.4622 8.99336C72.4244 8.94357 73.3473 9.37991 73.9195 10.1551H74.0136L73.9629 9.59051L73.934 9.03679V5.83752H75.1283V17.0205H74.1584L73.9991 15.9637ZM71.6142 16.1628C72.4297 16.1628 73.0196 15.942 73.3839 15.5005C73.7458 15.0553 73.934 14.3424 73.934 13.3544V13.101C73.934 11.9863 73.7482 11.1901 73.3767 10.7124C73.0147 10.2383 72.414 9.98861 71.5997 9.98861C70.9574 9.9552 70.3457 10.2652 69.9928 10.8029C69.576 11.5044 69.3817 12.3158 69.4355 13.13C69.4355 14.1397 69.6201 14.8961 69.9892 15.41C70.3674 15.9212 70.9797 16.2049 71.6142 16.1628Z" fill="#005994"/>
</svg>
