<svg width="24" height="24" viewBox="0 0 24 24" fill="none" xmlns="http://www.w3.org/2000/svg">
<g clip-path="url(#clip0_27227_15083)">
<path d="M15.6225 9.89411C15.4563 9.29971 15.1606 8.7492 14.7565 8.28186C13.982 7.40905 12.8413 6.9668 11.3698 6.9668H9.10256V14.312H10.668V8.52756H11.3721C11.8333 8.51839 12.2926 8.59048 12.7287 8.7405C13.0585 8.85839 13.3537 9.0562 13.5877 9.31613C14.0805 9.86603 14.3152 10.7552 14.3152 11.9556C14.3152 13.156 14.0571 14.078 13.529 14.6466C13.2694 14.9202 12.9473 15.1273 12.5902 15.2503C12.1081 15.4129 11.6017 15.4921 11.0928 15.4843H11.0294H6.33545V17.0427H11.0811C12.6418 17.0427 13.8505 16.5958 14.672 15.7183C15.1051 15.2501 15.4261 14.6901 15.6108 14.0803C15.8117 13.3966 15.9083 12.6867 15.8971 11.9743V11.9743C15.9055 11.2714 15.813 10.5709 15.6225 9.89411V9.89411Z" fill="currentColor"/>
<path d="M18.0235 8.69595C17.7741 7.79043 17.3278 6.95078 16.7162 6.23664C15.5498 4.91923 13.8177 4.25 11.5646 4.25H6.33545V14.3119H7.90559V5.81778H11.5669C12.3783 5.80138 13.186 5.93057 13.9515 6.1992C14.5648 6.4191 15.1128 6.78925 15.5451 7.27559C16.0022 7.81619 16.3361 8.44931 16.5238 9.13119C16.77 10.0418 16.8877 10.9821 16.8735 11.9251C16.8908 12.89 16.7642 13.8521 16.498 14.7799C16.2956 15.4839 15.9352 16.1329 15.4442 16.6776C14.9636 17.1851 14.3669 17.5689 13.705 17.7961C12.8648 18.0748 11.9828 18.2078 11.0975 18.1892H6.33545V19.7617H11.0975C12.1621 19.7805 13.2219 19.6167 14.2308 19.2773C15.1246 18.964 15.9296 18.4407 16.5778 17.7517C17.2315 17.0353 17.7131 16.1798 17.9859 15.2502C18.2981 14.1746 18.4484 13.0588 18.4319 11.9392C18.4505 10.8443 18.313 9.75229 18.0235 8.69595V8.69595Z" fill="currentColor"/>
</g>
<defs>
<clipPath id="clip0_27227_15083">
<rect width="12.5" height="16" fill="white" transform="translate(6 4)"/>
</clipPath>
</defs>
</svg>
