<svg width="24" height="24" viewBox="0 0 24 24" fill="none" xmlns="http://www.w3.org/2000/svg">
<g id="Type=DL">
<path id="Vector" d="M3.85083 17V7.90002H7.82883C8.81683 7.90002 9.6835 8.0907 10.4288 8.47203C11.1742 8.85336 11.7548 9.38203 12.1708 10.058C12.5868 10.734 12.7948 11.5314 12.7948 12.45C12.7948 13.36 12.5868 14.1574 12.1708 14.842C11.7548 15.518 11.1742 16.0467 10.4288 16.428C9.6835 16.8094 8.81683 17 7.82883 17H3.85083ZM5.54083 15.57H7.75083C8.4355 15.57 9.02483 15.44 9.51883 15.18C10.0215 14.92 10.4072 14.556 10.6758 14.088C10.9532 13.62 11.0918 13.074 11.0918 12.45C11.0918 11.8174 10.9532 11.2714 10.6758 10.812C10.4072 10.344 10.0215 9.98003 9.51883 9.72003C9.02483 9.46003 8.4355 9.33003 7.75083 9.33003H5.54083V15.57ZM13.8111 17V7.90002H15.5011V15.57H20.2591V17H13.8111Z" fill="currentColor"/>
</g>
</svg>
