<svg xmlns="http://www.w3.org/2000/svg" fill="currentColor" viewBox="0 0 24 24">
    <path fill-rule="evenodd" d="M8.4 16H5.1A3.1 3.1 0 0 0 2 19.1v.4c0 .83.67 1.5 1.5 1.5H10c.83 0 1.5-.67 1.5-1.5v-.4A3.1 3.1 0 0 0 8.41 16Zm0 2c.58 0 1.05.44 1.1 1H4c.05-.56.52-1 1.1-1h3.3ZM6.75 11.5a1 1 0 0 0-1 1Zm-1 1a1 1 0 1 0 1-1m0-2a3 3 0 1 0-.02 6 3 3 0 0 0 .03-6ZM21 17a1 1 0 0 0-1 1 1 1 0 0 1-1 1 1 1 0 1 0 0 2 3 3 0 0 0 3-3 1 1 0 0 0-1-1Z" clip-rule="evenodd"/>
    <path fill-rule="evenodd" d="M21 4a1 1 0 0 1 1 1v13a1 1 0 1 1-2 0V5a1 1 0 0 1 1-1ZM20 20a1 1 0 0 0-1-1h-5a1 1 0 1 0 0 2h5a1 1 0 0 0 1-1ZM6 3.5a1 1 0 0 0-1-1 3 3 0 0 0-3 3 1 1 0 0 0 2 0 1 1 0 0 1 1-1 1 1 0 0 0 1-1Z" clip-rule="evenodd"/>
    <path fill-rule="evenodd" d="M3 4a1 1 0 0 0-1 1v4a1 1 0 1 0 2 0V5a1 1 0 0 0-1-1ZM20 3.5a1 1 0 0 0-1-1H5a1 1 0 0 0 0 2h14a1 1 0 0 0 1-1Z" clip-rule="evenodd"/>
    <path fill-rule="evenodd" d="M22 5.5a3 3 0 0 0-3-3 1 1 0 1 0 0 2 1 1 0 0 1 1 1 1 1 0 1 0 2 0Z" clip-rule="evenodd"/>
    <path fill-rule="evenodd" d="M22 7a1 1 0 0 0-1-1H3a1 1 0 0 0 0 2h18a1 1 0 0 0 1-1ZM19 11.5a1 1 0 0 0-1-1h-6a1 1 0 1 0 0 2h6a1 1 0 0 0 1-1ZM19 15.5a1 1 0 0 0-1-1h-3a1 1 0 1 0 0 2h3a1 1 0 0 0 1-1Z" clip-rule="evenodd"/>
</svg>