<svg width="331" height="177" viewBox="0 0 331 177" fill="none" xmlns="http://www.w3.org/2000/svg">
<rect x="0.5" y="0.0107422" width="330" height="83" rx="8" fill="#F3F4F7"/>
<rect x="16.5" y="16.0107" width="85" height="51" rx="4" fill="#DADDE6"/>
<rect x="117.5" y="16.0107" width="197" height="9" rx="4.5" fill="#B0B5C9"/>
<rect x="117.5" y="30.0107" width="165" height="9" rx="4.5" fill="#DADDE6"/>
<rect x="117.5" y="44.0107" width="72" height="9" rx="4.5" fill="#DADDE6"/>
<rect x="117.5" y="58.0107" width="28" height="9" rx="4.5" fill="#DADDE6"/>
<rect x="124.5" y="61.0107" width="14" height="3" rx="1.5" fill="#B0B5C9"/>
<rect x="149.5" y="58.0107" width="28" height="9" rx="4.5" fill="#DADDE6"/>
<rect x="156.5" y="61.0107" width="14" height="3" rx="1.5" fill="#B0B5C9"/>
<rect x="181.5" y="58.0107" width="28" height="9" rx="4.5" fill="#DADDE6"/>
<rect x="188.5" y="61.0107" width="14" height="3" rx="1.5" fill="#B0B5C9"/>
<rect x="0.5" y="93.0107" width="330" height="83" rx="8" fill="#F3F4F7"/>
<rect x="16.5" y="109.011" width="85" height="51" rx="4" fill="#DADDE6"/>
<rect x="117.5" y="109.011" width="197" height="9" rx="4.5" fill="#B0B5C9"/>
<rect x="117.5" y="123.011" width="165" height="9" rx="4.5" fill="#DADDE6"/>
<rect x="117.5" y="137.011" width="72" height="9" rx="4.5" fill="#DADDE6"/>
<rect x="117.5" y="151.011" width="28" height="9" rx="4.5" fill="#DADDE6"/>
<rect x="124.5" y="154.011" width="14" height="3" rx="1.5" fill="#B0B5C9"/>
<rect x="149.5" y="151.011" width="28" height="9" rx="4.5" fill="#DADDE6"/>
<rect x="156.5" y="154.011" width="14" height="3" rx="1.5" fill="#B0B5C9"/>
<rect x="181.5" y="151.011" width="28" height="9" rx="4.5" fill="#DADDE6"/>
<rect x="188.5" y="154.011" width="14" height="3" rx="1.5" fill="#B0B5C9"/>
</svg>
