<svg width="331" height="177" viewBox="0 0 331 177" fill="none" xmlns="http://www.w3.org/2000/svg">
<rect x="0.5" y="0.0107422" width="330" height="83" rx="8" fill="#F3F4F7"/>
<rect x="16.5" y="16.0107" width="85" height="51" rx="4" fill="#DADDE6"/>
<g opacity="0.2" clip-path="url(#clip0_9004_121047)">
<path d="M62.5082 38.6419C62.3353 37.9732 62.0278 37.3538 61.6075 36.8281C60.802 35.8462 59.6157 35.3486 58.0853 35.3486H55.7274V43.612H57.3555V37.1045H58.0877C58.5674 37.0942 59.045 37.1753 59.4986 37.344C59.8415 37.4767 60.1485 37.6992 60.3919 37.9916C60.9045 38.6103 61.1486 39.6106 61.1486 40.9611C61.1486 42.3115 60.8801 43.3487 60.3309 43.9884C60.0609 44.2963 59.7259 44.5292 59.3546 44.6676C58.8532 44.8505 58.3265 44.9396 57.7973 44.9308H57.7314H52.8496V46.6841H57.7851C59.4083 46.6841 60.6653 46.1813 61.5196 45.1941C61.9701 44.6674 62.3039 44.0373 62.496 43.3513C62.705 42.5822 62.8053 41.7835 62.7937 40.9821C62.8025 40.1913 62.7063 39.4033 62.5082 38.6419Z" fill="#005994"/>
<path d="M65.0052 37.2937C64.7458 36.275 64.2817 35.3304 63.6456 34.527C62.4325 33.0449 60.6311 32.292 58.2879 32.292H52.8496V43.6116H54.4826V34.0557H58.2903C59.1341 34.0373 59.9741 34.1826 60.7703 34.4848C61.4081 34.7322 61.978 35.1486 62.4276 35.6958C62.903 36.304 63.2503 37.0162 63.4455 37.7833C63.7016 38.8077 63.824 39.8656 63.8092 40.9265C63.8271 42.012 63.6955 43.0943 63.4186 44.1381C63.2081 44.9302 62.8333 45.6602 62.3227 46.2731C61.8229 46.844 61.2023 47.2758 60.514 47.5314C59.6401 47.8449 58.7229 47.9945 57.8022 47.9736H52.8496V49.7427H57.8022C58.9093 49.7638 60.0115 49.5795 61.0607 49.1977C61.9903 48.8453 62.8276 48.2565 63.5016 47.4814C64.1815 46.6754 64.6824 45.713 64.9661 44.6672C65.2907 43.4572 65.447 42.2019 65.4299 40.9423C65.4492 39.7105 65.3062 38.4821 65.0052 37.2937Z" fill="#005994"/>
</g>
<rect x="117.5" y="16.0107" width="197" height="9" rx="4.5" fill="#B0B5C9"/>
<rect x="117.5" y="30.0107" width="165" height="9" rx="4.5" fill="#DADDE6"/>
<rect x="117.5" y="44.0107" width="72" height="9" rx="4.5" fill="#DADDE6"/>
<rect x="117.5" y="58.0107" width="28" height="9" rx="4.5" fill="#DADDE6"/>
<rect x="124.5" y="61.0107" width="14" height="3" rx="1.5" fill="#B0B5C9"/>
<rect x="149.5" y="58.0107" width="28" height="9" rx="4.5" fill="#DADDE6"/>
<rect x="156.5" y="61.0107" width="14" height="3" rx="1.5" fill="#B0B5C9"/>
<rect x="181.5" y="58.0107" width="28" height="9" rx="4.5" fill="#DADDE6"/>
<rect x="188.5" y="61.0107" width="14" height="3" rx="1.5" fill="#B0B5C9"/>
<rect x="0.5" y="93.0107" width="330" height="83" rx="8" fill="#F3F4F7"/>
<rect x="16.5" y="109.011" width="85" height="51" rx="4" fill="#DADDE6"/>
<g opacity="0.2" clip-path="url(#clip1_9004_121047)">
<path d="M62.5082 131.642C62.3353 130.973 62.0278 130.354 61.6075 129.828C60.802 128.846 59.6157 128.349 58.0853 128.349H55.7274V136.612H57.3555V130.104H58.0877C58.5674 130.094 59.045 130.175 59.4986 130.344C59.8415 130.477 60.1485 130.699 60.3919 130.992C60.9045 131.61 61.1486 132.611 61.1486 133.961C61.1486 135.312 60.8801 136.349 60.3309 136.988C60.0609 137.296 59.7259 137.529 59.3546 137.668C58.8532 137.851 58.3265 137.94 57.7973 137.931H57.7314H52.8496V139.684H57.7851C59.4083 139.684 60.6653 139.181 61.5196 138.194C61.9701 137.667 62.3039 137.037 62.496 136.351C62.705 135.582 62.8053 134.784 62.7937 133.982C62.8025 133.191 62.7063 132.403 62.5082 131.642Z" fill="#005994"/>
<path d="M65.0052 130.294C64.7458 129.275 64.2817 128.33 63.6456 127.527C62.4325 126.045 60.6311 125.292 58.2879 125.292H52.8496V136.612H54.4826V127.056H58.2903C59.1341 127.037 59.9741 127.183 60.7703 127.485C61.4081 127.732 61.978 128.149 62.4276 128.696C62.903 129.304 63.2503 130.016 63.4455 130.783C63.7016 131.808 63.824 132.866 63.8092 133.927C63.8271 135.012 63.6955 136.094 63.4186 137.138C63.2081 137.93 62.8333 138.66 62.3227 139.273C61.8229 139.844 61.2023 140.276 60.514 140.531C59.6401 140.845 58.7229 140.994 57.8022 140.974H52.8496V142.743H57.8022C58.9093 142.764 60.0115 142.579 61.0607 142.198C61.9903 141.845 62.8276 141.257 63.5016 140.481C64.1815 139.675 64.6824 138.713 64.9661 137.667C65.2907 136.457 65.447 135.202 65.4299 133.942C65.4492 132.711 65.3062 131.482 65.0052 130.294Z" fill="#005994"/>
</g>
<rect x="117.5" y="109.011" width="197" height="9" rx="4.5" fill="#B0B5C9"/>
<rect x="117.5" y="123.011" width="165" height="9" rx="4.5" fill="#DADDE6"/>
<rect x="117.5" y="137.011" width="72" height="9" rx="4.5" fill="#DADDE6"/>
<rect x="117.5" y="151.011" width="28" height="9" rx="4.5" fill="#DADDE6"/>
<rect x="124.5" y="154.011" width="14" height="3" rx="1.5" fill="#B0B5C9"/>
<rect x="149.5" y="151.011" width="28" height="9" rx="4.5" fill="#DADDE6"/>
<rect x="156.5" y="154.011" width="14" height="3" rx="1.5" fill="#B0B5C9"/>
<rect x="181.5" y="151.011" width="28" height="9" rx="4.5" fill="#DADDE6"/>
<rect x="188.5" y="154.011" width="14" height="3" rx="1.5" fill="#B0B5C9"/>
<defs>
<clipPath id="clip0_9004_121047">
<rect width="13" height="18" fill="white" transform="translate(52.5 32.0107)"/>
</clipPath>
<clipPath id="clip1_9004_121047">
<rect width="13" height="18" fill="white" transform="translate(52.5 125.011)"/>
</clipPath>
</defs>
</svg>
