<svg width="280" height="125" viewBox="0 0 280 125" fill="none" xmlns="http://www.w3.org/2000/svg">
<rect width="280" height="56" rx="8" transform="matrix(-1 0 0 1 280 0.5)" fill="#F3F4F7"/>
<rect x="244.5" y="24.5" width="21" height="8" rx="4" fill="#B0B5C9"/>
<rect x="191.5" y="24.5" width="37" height="8" rx="4" fill="#B0B5C9"/>
<rect x="138.5" y="24.5" width="37" height="8" rx="4" fill="#B0B5C9"/>
<rect x="46.5" y="24.5" width="76" height="8" rx="4" fill="#B0B5C9"/>
<rect x="14.5" y="24.5" width="16" height="8" rx="4" fill="#B0B5C9"/>
<rect width="280" height="56" rx="8" transform="matrix(-1 0 0 1 280 68.5)" fill="#F3F4F7"/>
<rect x="244.5" y="92.5" width="21" height="8" rx="4" fill="#B0B5C9"/>
<rect x="191.5" y="92.5" width="37" height="8" rx="4" fill="#B0B5C9"/>
<rect x="138.5" y="92.5" width="37" height="8" rx="4" fill="#B0B5C9"/>
<rect x="46.5" y="92.5" width="76" height="8" rx="4" fill="#B0B5C9"/>
<rect x="14.5" y="92.5" width="16" height="8" rx="4" fill="#B0B5C9"/>
</svg>
