      <svg width="400" height="240" viewBox="0 0 224 134" fill="none" xmlns="http://www.w3.org/2000/svg">
<path d="M218.651 0H5.34925C2.39494 0 0 1.38714 0 3.09827V130.902C0 132.613 2.39494 134 5.34925 134H218.651C221.605 134 224 132.613 224 130.902V3.09827C224 1.38714 221.605 0 218.651 0Z" fill="#F3F4F7"/>
<path d="M207.953 28.8086H171.845C168.891 28.8086 166.496 31.2083 166.496 34.1686V77.7186C166.496 80.6788 168.891 83.0786 171.845 83.0786H207.953C210.907 83.0786 213.302 80.6788 213.302 77.7186V34.1686C213.302 31.2083 210.907 28.8086 207.953 28.8086Z" fill="white"/>
<path fill-rule="evenodd" clip-rule="evenodd" d="M193.943 59.3007C192.954 60.3486 191.554 61.0066 189.997 61.0066C187.005 61.0066 184.579 58.5919 184.579 55.6131C184.579 52.6344 187.005 50.2196 189.997 50.2196V40.2031C181.485 40.2031 174.518 47.1392 174.518 55.6131C174.518 64.0871 181.485 71.0231 189.997 71.0231C194.468 71.0231 198.509 69.14 201.264 66.1443L193.943 59.3007Z" fill="#F3F4F7"/>
<path fill-rule="evenodd" clip-rule="evenodd" d="M189.896 40.2031V50.2196C192.869 50.2196 195.279 52.6344 195.279 55.6131H205.276C205.276 47.1392 198.353 40.2031 189.896 40.2031Z" fill="#B0B5C9"/>
<path fill-rule="evenodd" clip-rule="evenodd" d="M195.295 55.6133C195.295 57.3253 194.49 58.8471 193.24 59.8296L199.389 67.6733C202.969 64.8652 205.276 60.5123 205.276 55.6133H195.295Z" fill="#DADDE6"/>
<path fill-rule="evenodd" clip-rule="evenodd" d="M5.34925 0H218.651C221.605 0 224 2.39975 224 5.36V18.09H0V5.36C0 2.39975 2.39494 0 5.34925 0Z" fill="#DADDE6"/>
<path d="M8.6922 12.0631C10.1694 12.0631 11.3668 10.8632 11.3668 9.38313C11.3668 7.903 10.1694 6.70312 8.6922 6.70312C7.21505 6.70312 6.01758 7.903 6.01758 9.38313C6.01758 10.8632 7.21505 12.0631 8.6922 12.0631Z" fill="white"/>
<path d="M16.7156 12.0631C18.1928 12.0631 19.3903 10.8632 19.3903 9.38313C19.3903 7.903 18.1928 6.70312 16.7156 6.70312C15.2385 6.70312 14.041 7.903 14.041 9.38313C14.041 10.8632 15.2385 12.0631 16.7156 12.0631Z" fill="white"/>
<path d="M24.7391 12.0631C26.2162 12.0631 27.4137 10.8632 27.4137 9.38313C27.4137 7.903 26.2162 6.70312 24.7391 6.70312C23.2619 6.70312 22.0645 7.903 22.0645 9.38313C22.0645 10.8632 23.2619 12.0631 24.7391 12.0631Z" fill="white"/>
<path d="M207.951 88.4414H171.843C168.889 88.4414 166.494 90.8412 166.494 93.8014V117.921C166.494 120.882 168.889 123.281 171.843 123.281H207.951C210.905 123.281 213.3 120.882 213.3 117.921V93.8014C213.3 90.8412 210.905 88.4414 207.951 88.4414Z" fill="white"/>
<path d="M177.194 108.05C177.194 107.408 176.295 106.887 175.188 106.887C174.08 106.887 173.182 107.408 173.182 108.05V115.42C173.182 116.063 174.08 116.584 175.188 116.584C176.295 116.584 177.194 116.063 177.194 115.42V108.05Z" fill="#DADDE6"/>
<path d="M184.549 101.843C184.549 101.201 183.651 100.68 182.543 100.68C181.435 100.68 180.537 101.201 180.537 101.843V115.42C180.537 116.062 181.435 116.583 182.543 116.583C183.651 116.583 184.549 116.062 184.549 115.42V101.843Z" fill="#DADDE6"/>
<path d="M191.905 98.7379C191.905 98.0952 191.006 97.5742 189.899 97.5742C188.791 97.5742 187.893 98.0952 187.893 98.7379V115.417C187.893 116.06 188.791 116.581 189.899 116.581C191.006 116.581 191.905 116.06 191.905 115.417V98.7379Z" fill="#DADDE6"/>
<path d="M199.258 101.843C199.258 101.201 198.36 100.68 197.252 100.68C196.144 100.68 195.246 101.201 195.246 101.843V115.42C195.246 116.062 196.144 116.583 197.252 116.583C198.36 116.583 199.258 116.062 199.258 115.42V101.843Z" fill="#DADDE6"/>
<path d="M206.615 95.6363C206.615 94.9937 205.717 94.4727 204.609 94.4727C203.502 94.4727 202.604 94.9937 202.604 95.6363V115.419C202.604 116.062 203.502 116.583 204.609 116.583C205.717 116.583 206.615 116.062 206.615 115.419V95.6363Z" fill="#DADDE6"/>
<path d="M158.472 28.8125H13.3738C11.8967 28.8125 10.6992 30.0124 10.6992 31.4925V57.6225C10.6992 59.1026 11.8967 60.3025 13.3738 60.3025H158.472C159.95 60.3025 161.147 59.1026 161.147 57.6225V31.4925C161.147 30.0124 159.95 28.8125 158.472 28.8125Z" fill="white"/>
<path d="M126.376 38.2578H18.7228C17.6149 38.2578 16.7168 39.1577 16.7168 40.2678V40.9713C16.7168 42.0814 17.6149 42.9813 18.7228 42.9813H126.376C127.484 42.9813 128.382 42.0814 128.382 40.9713V40.2678C128.382 39.1577 127.484 38.2578 126.376 38.2578Z" fill="#DADDE6"/>
<path d="M89.6645 46.1289H18.7228C17.6149 46.1289 16.7168 47.0288 16.7168 48.1389V48.8424C16.7168 49.9525 17.6149 50.8524 18.7228 50.8524H89.6645C90.7723 50.8524 91.6704 49.9525 91.6704 48.8424V48.1389C91.6704 47.0288 90.7723 46.1289 89.6645 46.1289Z" fill="#DADDE6"/>
<path d="M145.069 49.2511C147.654 49.2511 149.75 47.1513 149.75 44.5611C149.75 41.9709 147.654 39.8711 145.069 39.8711C142.484 39.8711 140.389 41.9709 140.389 44.5611C140.389 47.1513 142.484 49.2511 145.069 49.2511Z" fill="#DADDE6"/>
<path d="M145.068 46.5708C146.176 46.5708 147.074 45.6709 147.074 44.5608C147.074 43.4507 146.176 42.5508 145.068 42.5508C143.961 42.5508 143.062 43.4507 143.062 44.5608C143.062 45.6709 143.961 46.5708 145.068 46.5708Z" fill="#F3F4F7"/>
<path d="M158.472 65.6641H13.3738C11.8967 65.6641 10.6992 66.8639 10.6992 68.3441V89.1141C10.6992 90.5942 11.8967 91.7941 13.3738 91.7941H158.472C159.95 91.7941 161.147 90.5942 161.147 89.1141V68.3441C161.147 66.8639 159.95 65.6641 158.472 65.6641Z" fill="white"/>
<path d="M126.427 73.5039H18.6726C17.5924 73.5039 16.7168 74.3813 16.7168 75.4637C16.7168 76.546 17.5924 77.4234 18.6726 77.4234H126.427C127.507 77.4234 128.382 76.546 128.382 75.4637C128.382 74.3813 127.507 73.5039 126.427 73.5039Z" fill="#DADDE6"/>
<path d="M89.7146 80.0352H18.6726C17.5924 80.0352 16.7168 80.9126 16.7168 81.9949C16.7168 83.0772 17.5924 83.9547 18.6726 83.9547H89.7146C90.7948 83.9547 91.6704 83.0772 91.6704 81.9949C91.6704 80.9126 90.7948 80.0352 89.7146 80.0352Z" fill="#DADDE6"/>
<path d="M145.069 83.4191C147.654 83.4191 149.75 81.3193 149.75 78.7291C149.75 76.1388 147.654 74.0391 145.069 74.0391C142.484 74.0391 140.389 76.1388 140.389 78.7291C140.389 81.3193 142.484 83.4191 145.069 83.4191Z" fill="#DADDE6"/>
<path d="M145.068 80.7387C146.176 80.7387 147.074 79.8388 147.074 78.7287C147.074 77.6187 146.176 76.7188 145.068 76.7188C143.961 76.7188 143.062 77.6187 143.062 78.7287C143.062 79.8388 143.961 80.7387 145.068 80.7387Z" fill="#F3F4F7"/>
<path d="M158.472 97.1523H13.3738C11.8967 97.1523 10.6992 98.3522 10.6992 99.8323V120.602C10.6992 122.082 11.8967 123.282 13.3738 123.282H158.472C159.95 123.282 161.147 122.082 161.147 120.602V99.8323C161.147 98.3522 159.95 97.1523 158.472 97.1523Z" fill="white"/>
<path d="M126.427 104.992H18.6726C17.5924 104.992 16.7168 105.87 16.7168 106.952C16.7168 108.034 17.5924 108.912 18.6726 108.912H126.427C127.507 108.912 128.382 108.034 128.382 106.952C128.382 105.87 127.507 104.992 126.427 104.992Z" fill="#DADDE6"/>
<path d="M89.7146 111.523H18.6726C17.5924 111.523 16.7168 112.401 16.7168 113.483C16.7168 114.566 17.5924 115.443 18.6726 115.443H89.7146C90.7948 115.443 91.6704 114.566 91.6704 113.483C91.6704 112.401 90.7948 111.523 89.7146 111.523Z" fill="#DADDE6"/>
<path d="M145.069 114.907C147.654 114.907 149.75 112.808 149.75 110.217C149.75 107.627 147.654 105.527 145.069 105.527C142.484 105.527 140.389 107.627 140.389 110.217C140.389 112.808 142.484 114.907 145.069 114.907Z" fill="#DADDE6"/>
<path d="M145.068 112.227C146.176 112.227 147.074 111.327 147.074 110.217C147.074 109.107 146.176 108.207 145.068 108.207C143.961 108.207 143.062 109.107 143.062 110.217C143.062 111.327 143.961 112.227 145.068 112.227Z" fill="#B0B5C9"/>
</svg>
