<svg width="133" height="130" viewBox="0 0 133 130" fill="none" xmlns="http://www.w3.org/2000/svg">
<path fill-rule="evenodd" clip-rule="evenodd" d="M4 0C1.79086 0 0 1.79086 0 4V22.4577V28.1574V96.8171C0 102.116 0.98541 106.412 2.20097 106.412H121.604C122.819 106.412 123.805 102.116 123.805 96.8171V22.4577C123.805 17.1587 122.819 12.863 121.604 12.863H83.6976C81.4551 12.863 79.3156 11.9218 77.8003 10.2688L69.5764 1.29712C68.8188 0.470591 67.749 0 66.6278 0H4Z" fill="#F3F4F7"/>
<rect x="9.43359" y="35.0806" width="60" height="9" rx="4.5" fill="#B0B5C9"/>
<rect x="9.43359" y="49.0806" width="34" height="9" rx="4.5" fill="#9199B5"/>
<path fill-rule="evenodd" clip-rule="evenodd" d="M120.447 107.888C127.031 102.387 131.214 94.1502 131.214 84.944C131.214 68.384 117.678 54.9595 100.98 54.9595C84.2824 54.9595 70.7461 68.384 70.7461 84.944C70.7461 101.504 84.2824 114.929 100.98 114.929C105.679 114.929 110.127 113.866 114.094 111.969L125.808 127.96C127.038 129.639 129.404 130.014 131.093 128.797C132.782 127.58 133.153 125.233 131.923 123.554L120.447 107.888Z" fill="#B0B5C9"/>
<ellipse cx="100.98" cy="84.9445" rx="22.6756" ry="22.4884" fill="#DADDE6"/>
</svg>
