<svg width="24" height="24" viewBox="0 0 24 24" fill="currentColor" xmlns="http://www.w3.org/2000/svg">
<path fill-rule="evenodd" clip-rule="evenodd" d="M12.0002 15.5001V7.81836V15.5001Z" />
<path d="M12.0002 15.5001H11.0002C11.0002 15.9046 11.2439 16.2692 11.6176 16.424C11.9913 16.5788 12.4215 16.4932 12.7074 16.2071L12.0002 15.5001ZM13.0002 7.81836C13.0002 7.26607 12.5525 6.81836 12.0002 6.81836C11.4479 6.81836 11.0002 7.26607 11.0002 7.81836H13.0002ZM15.7085 13.205C16.0989 12.8144 16.0988 12.1813 15.7082 11.7908C15.3176 11.4004 14.6845 11.4005 14.294 11.7911L15.7085 13.205ZM9.70711 11.7909C9.31658 11.4004 8.68342 11.4004 8.29289 11.7909C7.90237 12.1815 7.90237 12.8146 8.29289 13.2052L9.70711 11.7909ZM11.2941 16.2064C11.6847 16.5969 12.3178 16.5969 12.7084 16.2064C13.0989 15.8159 13.0989 15.1827 12.7084 14.7922L11.2941 16.2064ZM4 20C3.44772 20 3 20.4477 3 21C3 21.5523 3.44772 22 4 22V20ZM6 22C6.55228 22 7 21.5523 7 21C7 20.4477 6.55228 20 6 20V22ZM11 20C10.4477 20 10 20.4477 10 21C10 21.5523 10.4477 22 11 22V20ZM13 22C13.5523 22 14 21.5523 14 21C14 20.4477 13.5523 20 13 20V22ZM18 20C17.4477 20 17 20.4477 17 21C17 21.5523 17.4477 22 18 22V20ZM20 22C20.5523 22 21 21.5523 21 21C21 20.4477 20.5523 20 20 20V22ZM4 3V2H3V3H4ZM20 3H21V2H20V3ZM3 6C3 6.55228 3.44772 7 4 7C4.55228 7 5 6.55228 5 6H3ZM19 6C19 6.55228 19.4477 7 20 7C20.5523 7 21 6.55228 21 6H19ZM13.0002 15.5001V7.81836H11.0002V15.5001H13.0002ZM12.7074 16.2071L15.7085 13.205L14.294 11.7911L11.293 14.7931L12.7074 16.2071ZM8.29289 13.2052L11.2941 16.2064L12.7084 14.7922L9.70711 11.7909L8.29289 13.2052ZM4 22H6V20H4V22ZM11 22H13V20H11V22ZM18 22H20V20H18V22ZM4 4H20V2H4V4ZM3 3V6H5V3H3ZM19 3V6H21V3H19Z"/>
</svg>
