<svg xmlns="http://www.w3.org/2000/svg" fill="currentColor" width="24px" height="24px" viewBox="0 0 24 24">
  <path d="M4 5a3 3 0 013-3h7.17a3 3 0 012.12.88l2.83 2.83A3 3 0 0120 7.83V19a3 3 0 01-3 3H7a3 3 0 01-3-3V5zm3-1a1 1 0 00-1 1v14a1 1 0 001 1h10a1 1 0 001-1V7.83a1 1 0 00-.3-.7l-2.82-2.84a1 1 0 00-.7-.29H7z"/>
  <path d="M10.16 11.16a.82.82 0 110 1.16m0-1.16a.82.82 0 000 1.16zm.1 1.06a.68.68 0 11.96-.96l-.96.96zm.26 3.04a4.46 4.46 0 015.1-3.74l-.23 1.49a2.96 2.96 0 00-3.42 2.95 2 2 0 00.04.42.75.75 0 01-1.49.23 4.39 4.39 0 010-1.35z"/>
  <path d="M9.66 10.25a.41.41 0 00-.41.41v4.68c0 .23.18.41.41.41h4.68a.4.4 0 00.41-.41v-4.68a.41.41 0 00-.41-.41H9.66zm-1.91.41c0-1.05.86-1.91 1.91-1.91h4.68c1.05 0 1.91.86 1.91 1.91v4.68c0 1.05-.86 1.91-1.91 1.91H9.66a1.91 1.91 0 01-1.91-1.91v-4.68z"/>
</svg>