<svg xmlns="http://www.w3.org/2000/svg" fill="currentColor" width="24px" height="24px" viewBox="0 0 24 24">
  <path d="M4 5a3 3 0 013-3h7.17a3 3 0 012.12.88l2.83 2.83A3 3 0 0120 7.83V19a3 3 0 01-3 3H7a3 3 0 01-3-3V5zm3-1a1 1 0 00-1 1v14a1 1 0 001 1h10a1 1 0 001-1V7.83a1 1 0 00-.3-.7l-2.82-2.84a1 1 0 00-.7-.29H7z"/>
  <path d="M8.25 9.5c0-.41.34-.75.75-.75h6a.75.75 0 010 1.5H9a.75.75 0 01-.75-.75zm0 3c0-.41.34-.75.75-.75h6a.75.75 0 010 1.5H9a.75.75 0 01-.75-.75zm0 3c0-.41.34-.75.75-.75h6a.75.75 0 010 1.5H9a.75.75 0 01-.75-.75z"/>
</svg>