<svg xmlns="http://www.w3.org/2000/svg" fill="currentColor" width="24px" height="24px" viewBox="0 0 24 24">
  <path d="M4 5a3 3 0 013-3h7.17a3 3 0 012.12.88l2.83 2.83A3 3 0 0120 7.83V19a3 3 0 01-3 3H7a3 3 0 01-3-3V5zm3-1a1 1 0 00-1 1v14a1 1 0 001 1h10a1 1 0 001-1V7.83a1 1 0 00-.3-.7l-2.82-2.84a1 1 0 00-.7-.29H7z"/>
  <path d="M10.75 10.8v4.4l3.5-2.2-3.5-2.2zm3.5 2.2c.01 0 0 0 0 0zm0 0c.01 0 0 0 0 0zm.01 0zm-2.81-3.53c-1.03-.65-2.2.2-2.2 1.27v4.52c0 1.08 1.17 1.92 2.2 1.27l3.6-2.26a1.5 1.5 0 000-2.54l-3.6-2.26z"/>
</svg>