<svg width="24" height="25" viewBox="0 0 24 25" fill="none" xmlns="http://www.w3.org/2000/svg">
<path fill-rule="evenodd" clip-rule="evenodd" d="M4 5.5C4 4.70435 4.31607 3.94129 4.87868 3.37868C5.44129 2.81607 6.20435 2.5 7 2.5H14.17C14.9654 2.5007 15.7279 2.81723 16.29 3.38L19.12 6.21C19.6828 6.77207 19.9993 7.53462 20 8.33V19.5C20 20.2956 19.6839 21.0587 19.1213 21.6213C18.5587 22.1839 17.7956 22.5 17 22.5H7C6.20435 22.5 5.44129 22.1839 4.87868 21.6213C4.31607 21.0587 4 20.2956 4 19.5V5.5ZM7 4.5C6.73478 4.5 6.48043 4.60536 6.29289 4.79289C6.10536 4.98043 6 5.23478 6 5.5V19.5C6 19.7652 6.10536 20.0196 6.29289 20.2071C6.48043 20.3946 6.73478 20.5 7 20.5H17C17.2652 20.5 17.5196 20.3946 17.7071 20.2071C17.8946 20.0196 18 19.7652 18 19.5V8.33C17.9962 8.06623 17.8884 7.81463 17.7 7.63L14.88 4.79C14.6937 4.60526 14.4423 4.5011 14.18 4.5H7Z" fill="#005994"/>
<path fill-rule="evenodd" clip-rule="evenodd" d="M10.1603 11.6599C10.275 11.5453 10.4211 11.4672 10.5801 11.4356C10.7392 11.404 10.904 11.4203 11.0538 11.4824C11.2036 11.5445 11.3317 11.6496 11.4218 11.7844C11.5118 11.9192 11.5599 12.0778 11.5599 12.2399C11.5599 12.4021 11.5118 12.5606 11.4218 12.6954C11.3317 12.8303 11.2036 12.9354 11.0538 12.9975C10.904 13.0595 10.7392 13.0758 10.5801 13.0442C10.4211 13.0126 10.275 12.9346 10.1603 12.8199V11.6599ZM10.1603 11.6599C10.0841 11.7361 10.0236 11.8265 9.98239 11.926C9.94115 12.0255 9.91992 12.1322 9.91992 12.2399C9.91992 12.3476 9.94115 12.4543 9.98239 12.5538C10.0236 12.6534 10.0841 12.7438 10.1603 12.8199V11.6599ZM10.5203 15.7599C10.6081 15.1788 10.8099 14.6208 11.114 14.1179C11.4182 13.615 11.8188 13.1772 12.2927 12.8297C12.7667 12.4821 13.3046 12.2316 13.8757 12.0927C14.4467 11.9537 15.0396 11.929 15.6203 12.0199L15.3903 13.5099C14.9657 13.4431 14.5316 13.4696 14.1183 13.5875C13.705 13.7053 13.3223 13.9118 12.9968 14.1926C12.6713 14.4733 12.4109 14.8216 12.2336 15.2131C12.0564 15.6047 11.9665 16.0301 11.9703 16.4599C11.9703 16.5999 11.9803 16.7399 12.0103 16.8799C12.0408 17.0775 11.9915 17.2791 11.8734 17.4404C11.7552 17.6017 11.5779 17.7094 11.3803 17.7399C11.1827 17.7704 10.9811 17.7212 10.8198 17.603C10.6585 17.4849 10.5508 17.3075 10.5203 17.1099C10.4507 16.6626 10.4507 16.2072 10.5203 15.7599Z" fill="#005994"/>
<path fill-rule="evenodd" clip-rule="evenodd" d="M9.66 10.75C9.55126 10.75 9.44698 10.7932 9.37009 10.8701C9.2932 10.947 9.25 11.0513 9.25 11.16V15.84C9.25 16.07 9.43 16.25 9.66 16.25H14.34C14.57 16.25 14.75 16.07 14.75 15.84V11.16C14.75 11.0513 14.7068 10.947 14.6299 10.8701C14.553 10.7932 14.4487 10.75 14.34 10.75H9.66ZM7.75 11.16C7.75 10.11 8.61 9.25 9.66 9.25H14.34C15.39 9.25 16.25 10.11 16.25 11.16V15.84C16.25 16.89 15.39 17.75 14.34 17.75H9.66C9.15344 17.75 8.66762 17.5488 8.30943 17.1906C7.95123 16.8324 7.75 16.3466 7.75 15.84V11.16Z" fill="#005994"/>
</svg>
