<svg width="12" height="14" viewBox="0 0 12 14" fill="none" xmlns="http://www.w3.org/2000/svg">
<path fill-rule="evenodd" clip-rule="evenodd" d="M5.49268 0.333496H9.99935C10.7357 0.333496 11.3327 0.93045 11.3327 1.66683V12.3335C11.3327 13.0699 10.7357 13.6668 9.99935 13.6668H1.99935C1.26297 13.6668 0.666016 13.0699 0.666016 12.3335V5.16016C0.666482 4.62991 0.877502 4.12154 1.25268 3.74683L4.07935 0.920163C4.45406 0.544983 4.96243 0.333963 5.49268 0.333496ZM1.99935 5.66683V12.3335H9.99935V1.66683H5.99935V5.00016C5.99935 5.36835 5.70087 5.66683 5.33268 5.66683H1.99935ZM3.33268 7.3335V8.00016C3.33268 8.18426 3.48192 8.3335 3.66602 8.3335H8.33268C8.51678 8.3335 8.66602 8.18426 8.66602 8.00016V7.3335C8.66602 7.1494 8.51678 7.00016 8.33268 7.00016H3.66602C3.48192 7.00016 3.33268 7.1494 3.33268 7.3335ZM3.66602 9.66683H6.33268C6.51678 9.66683 6.66602 9.81607 6.66602 10.0002V10.6668C6.66602 10.8509 6.51678 11.0002 6.33268 11.0002H3.66602C3.48192 11.0002 3.33268 10.8509 3.33268 10.6668V10.0002C3.33268 9.81607 3.48192 9.66683 3.66602 9.66683Z" fill="#06508F"/>
</svg>
