<svg width="16" height="16" viewBox="0 0 16 16" fill="none" xmlns="http://www.w3.org/2000/svg">
<g id="simple-line-icons:graph">
<path id="Vector" d="M14.75 3.5C14.0595 3.5 13.5 4.05975 13.5 4.75C13.5 4.89175 13.5288 5.0255 13.572 5.1525L10.525 7.77625C10.3112 7.606 10.0445 7.5 9.75 7.5C9.41027 7.5 9.10302 7.6365 8.878 7.8565L6.49125 6.6615C6.44477 6.01325 5.91002 5.5 5.25 5.5C4.55977 5.5 4 6.05975 4 6.75C4 6.939 4.045 7.11625 4.12 7.27675L1.6865 10.0828C1.55 10.0318 1.40425 10 1.25 10C0.55975 10 0 10.5598 0 11.25C0 11.9403 0.55975 12.5 1.25 12.5C1.94025 12.5 2.5 11.9403 2.5 11.25C2.5 11.0837 2.466 10.9255 2.407 10.7805L4.88 7.938C4.99775 7.9745 5.12025 8 5.25 8C5.61375 8 5.93823 7.842 6.16673 7.59375L8.50123 8.76425C8.5095 9.44775 9.06448 10 9.75 10C10.4405 10 11 9.44025 11 8.75C11 8.72775 10.9948 8.707 10.9935 8.685L14.245 5.89175C14.3997 5.96025 14.5697 6 14.75 6C15.4405 6 16 5.4405 16 4.75C16 4.05975 15.4405 3.5 14.75 3.5Z" fill="currentColor"/>
</g>
</svg>
