<svg width="436" height="348" viewBox="0 0 436 348" fill="currentColor" xmlns="http://www.w3.org/2000/svg">
<path fill-rule="evenodd" clip-rule="evenodd" d="M43.998 -0.000244141H391.998C416.022 -0.000244141 435.498 19.4754 435.498 43.4998V304.5C435.498 328.524 416.022 348 391.998 348H281.291H154.706H43.998C19.9737 348 0.498047 328.524 0.498047 304.5V43.4998C0.498047 19.4754 19.9737 -0.000244141 43.998 -0.000244141ZM391.999 279.053C392.058 281.955 390.932 284.756 388.879 286.808C386.827 288.861 384.026 289.988 381.124 289.928C377.684 290 374.43 288.373 372.424 285.578L275.636 156.6C273.532 153.94 270.327 152.389 266.936 152.389C263.545 152.389 260.34 153.94 258.236 156.6L196.249 237.293C194.173 240.005 190.964 241.609 187.549 241.643C184.345 241.646 181.31 240.209 179.284 237.728L147.094 199.665C144.999 197.15 141.884 195.712 138.611 195.75C135.317 195.826 132.219 197.335 130.129 199.883L63.3561 285.578C61.3479 288.227 58.1978 289.762 54.8736 289.71C51.9714 289.77 49.1704 288.643 47.1178 286.591C45.0652 284.538 43.9387 281.737 43.9986 278.835V43.5002H391.999V279.053ZM196.247 119.625C196.247 137.643 181.64 152.25 163.622 152.25C145.604 152.25 130.997 137.643 130.997 119.625C130.997 101.606 145.604 86.9995 163.622 86.9995C181.64 86.9995 196.247 101.606 196.247 119.625Z"/>
</svg>
