<svg width="48" height="49" viewBox="0 0 48 49" fill="none" xmlns="http://www.w3.org/2000/svg">
<rect y="0.5" width="48" height="48" rx="8" fill="#EBF7FF"/>
<path fill-rule="evenodd" clip-rule="evenodd" d="M37.0394 21.18L25.4794 12.8467C25.1494 12.6211 24.7591 12.5003 24.3594 12.5H23.6394C23.2396 12.5003 22.8493 12.6211 22.5194 12.8467L10.9594 21.18C10.7758 21.3012 10.6655 21.5067 10.666 21.7267V21.94C10.6655 22.16 10.7758 22.3654 10.9594 22.4867L22.5194 30.82C22.8493 31.0456 23.2396 31.1664 23.6394 31.1667H24.3594C24.7591 31.1664 25.1494 31.0456 25.4794 30.82L34.9994 23.9667V35.8333C34.9994 36.2015 35.2978 36.5 35.666 36.5H36.666C37.0342 36.5 37.3327 36.2015 37.3327 35.8333V21.7267C37.3332 21.5067 37.2229 21.3012 37.0394 21.18ZM24.146 28.5H23.866L14.666 21.8333L23.906 15.1667H24.186L33.3327 21.8333L24.146 28.5ZM21.146 32.7135C21.8793 33.22 22.7481 33.4941 23.6394 33.5002H24.3594C25.2306 33.4979 26.0809 33.233 26.7994 32.7402L31.9994 28.9935V31.1668C31.9994 34.1135 28.4127 36.5002 23.9994 36.5002C19.586 36.5002 15.9994 34.1135 15.9994 31.1668V28.9935L21.146 32.7135Z" fill="#005994"/>
</svg>
