<svg xmlns="http://www.w3.org/2000/svg" fill="currentColor" width="24px" height="24px" viewBox="0 0 24 24">
  <path d="M7 4a3 3 0 00-3 3v10a3 3 0 003 3h10a3 3 0 003-3v-4a1 1 0 012 0v4a5 5 0 01-5 5H7a5 5 0 01-5-5V7a5 5 0 015-5h4a1 1 0 110 2H7z"/>
  <path fill-rule="evenodd" d="M20.3 3.64a3.25 3.25 0 00-5.41 3.1 3.25 3.25 0 006.37-.22.75.75 0 111.48.24 4.75 4.75 0 01-9.32.31m6.87-3.43l-2.22 2.21-.85-.84a.75.75 0 00-1.06 1.06l1.38 1.37c.29.3.76.3 1.06 0l3.24-3.23c.26-.26.3-.67.09-.97a4.75 4.75 0 00-8.5 3.83M6 16a1 1 0 011-1h10a1 1 0 110 2H7a1 1 0 01-1-1zm0-4a1 1 0 011-1h5a1 1 0 110 2H7a1 1 0 01-1-1z"/>
</svg>