<svg width="24" height="24" viewBox="0 0 24 24" fill="none" xmlns="http://www.w3.org/2000/svg">
<path fill-rule="evenodd" clip-rule="evenodd" d="M20.9998 7.66014V8.00014C21.0006 9.06623 20.5759 10.0885 19.8198 10.8401L16.9998 13.6701C16.4737 14.1912 15.6259 14.1912 15.0998 13.6701L14.9998 13.5601C14.8092 13.3657 14.8092 13.0546 14.9998 12.8601L18.4398 9.42014C18.8069 9.03945 19.0082 8.52889 18.9998 8.00014V7.66014C19.0002 7.12709 18.7878 6.61593 18.4098 6.24014L17.7598 5.59014C17.384 5.2121 16.8728 4.99972 16.3398 5.00014H15.9998C15.4668 4.99972 14.9556 5.2121 14.5798 5.59014L11.1398 9.00014C10.9454 9.19071 10.6342 9.19071 10.4398 9.00014L10.3298 8.89014C9.80869 8.364 9.80869 7.51628 10.3298 6.99014L13.1598 4.15014C13.9163 3.40505 14.938 2.99133 15.9998 3.00014H16.3398C17.401 2.9993 18.419 3.42018 19.1698 4.17014L19.8298 4.83014C20.5798 5.58093 21.0006 6.59895 20.9998 7.66014ZM8.64937 13.9403L13.9394 8.65034C14.0332 8.55568 14.161 8.50244 14.2944 8.50244C14.4277 8.50244 14.5555 8.55568 14.6494 8.65034L15.3494 9.35034C15.444 9.44422 15.4973 9.57202 15.4973 9.70534C15.4973 9.83866 15.444 9.96646 15.3494 10.0603L10.0594 15.3503C9.96548 15.445 9.83768 15.4982 9.70437 15.4982C9.57105 15.4982 9.44325 15.445 9.34937 15.3503L8.64937 14.6503C8.55471 14.5565 8.50147 14.4287 8.50147 14.2953C8.50147 14.162 8.55471 14.0342 8.64937 13.9403ZM13.5595 15.0003C13.3651 14.8097 13.0539 14.8097 12.8595 15.0003L9.42951 18.4103C9.05128 18.7908 8.53602 19.0034 7.99951 19.0003H7.65951C7.12647 19.0007 6.61531 18.7883 6.23951 18.4103L5.58951 17.7603C5.21147 17.3845 4.99909 16.8733 4.99951 16.3403V16.0003C4.99909 15.4672 5.21147 14.9561 5.58951 14.5803L9.00951 11.1403C9.20009 10.9459 9.20009 10.6347 9.00951 10.4403L8.89951 10.3303C8.37337 9.80918 7.52565 9.80918 6.99951 10.3303L4.17951 13.1603C3.42344 13.9119 2.99867 14.9342 2.99951 16.0003V16.3503C3.00133 17.408 3.42201 18.422 4.16951 19.1703L4.82951 19.8303C5.5803 20.5802 6.59833 21.0011 7.65951 21.0003H7.99951C9.05296 21.0065 10.0663 20.5968 10.8195 19.8603L13.6695 17.0103C14.1906 16.4841 14.1906 15.6364 13.6695 15.1103L13.5595 15.0003Z" fill="currentColor"/>
</svg>
