<svg width="24" height="24" viewBox="0 0 24 24" fill="none" xmlns="http://www.w3.org/2000/svg">
<path d="M20.0032 8.99859V4.99693C20.0032 3.8919 19.1074 2.99609 18.0023 2.99609H4.99693C3.8919 2.99609 2.99609 3.8919 2.99609 4.99693V19.0028C2.99609 20.1078 3.8919 21.0036 4.99693 21.0036H9.99901" stroke="currentColor" stroke-width="2" stroke-linecap="round" stroke-linejoin="round"/>
<path fill-rule="evenodd" clip-rule="evenodd" d="M8 11C8 10.4477 8.39494 10 8.88212 10H12.1179C12.6051 10 13 10.4477 13 11C13 11.5523 12.6051 12 12.1179 12H8.88212C8.39494 12 8 11.5523 8 11Z" fill='currentColor'/>
<path fill-rule="evenodd" clip-rule="evenodd" d="M8 15C8 14.4477 8.39494 14 8.88212 14L9.61789 14C10.1051 14 10.5 14.4477 10.5 15C10.5 15.5523 10.1051 16 9.61789 16H8.88212C8.39494 16 8 15.5523 8 15Z" fill="currentColor"/>
<path fill-rule="evenodd" clip-rule="evenodd" d="M8 7C8 6.44772 8.36619 6 8.8179 6H16.1821C16.6338 6 17 6.44772 17 7C17 7.55228 16.6338 8 16.1821 8H8.8179C8.36619 8 8 7.55228 8 7Z" fill="currentColor"/>
<path fill-rule="evenodd" clip-rule="evenodd" d="M5 11C5 10.4477 5.44772 10 6 10C6.55228 10 7 10.4477 7 11C7 11.5523 6.55228 12 6 12C5.44772 12 5 11.5523 5 11Z" fill="currentColor"/>
<path fill-rule="evenodd" clip-rule="evenodd" d="M5 15C5 14.4477 5.44772 14 6 14C6.55228 14 7 14.4477 7 15C7 15.5523 6.55228 16 6 16C5.44772 16 5 15.5523 5 15Z" fill="currentColor"/>
<path fill-rule="evenodd" clip-rule="evenodd" d="M5 7C5 6.44772 5.44772 6 6 6C6.55228 6 7 6.44771 7 7C7 7.55228 6.55228 8 6 8C5.44771 8 5 7.55228 5 7Z" fill="currentColor"/>
<path fill-rule="evenodd" clip-rule="evenodd" d="M15.4056 13.2618L12.4638 14.7718C11.8454 15.0893 11.8454 15.9107 12.4638 16.2282L15.4056 17.7382C16.0859 18.0873 16.9136 18.0873 17.5944 17.7382L20.5362 16.2282C21.1546 15.9107 21.1546 15.0893 20.5362 14.7718L17.5944 13.2618C16.9136 12.9127 16.0864 12.9127 15.4056 13.2618Z" stroke="currentColor" stroke-width="2" stroke-linecap="round" stroke-linejoin="round"/>
<path d="M14 17V18.8911C14 19.3484 14.1976 19.7749 14.5259 20.028L15.1946 20.5431C15.9855 21.1523 17.0149 21.1523 17.8054 20.5431L18.4741 20.028C18.8028 19.7749 19 19.348 19 18.8911V17" stroke="currentColor" stroke-width="2" stroke-linecap="round" stroke-linejoin="round"/>
</svg>
