<svg width="25" height="24" viewBox="0 0 25 24" fill="none" xmlns="http://www.w3.org/2000/svg">
<path fill-rule="evenodd" clip-rule="evenodd" d="M8.75382 4H17.2364C18.0414 3.99999 18.7057 3.99998 19.2469 4.04419C19.809 4.09012 20.3257 4.18868 20.8111 4.43597C21.5637 4.81947 22.1756 5.43139 22.5591 6.18404C22.8064 6.66937 22.905 7.18608 22.9509 7.74817C22.9951 8.28936 22.9951 8.95372 22.9951 9.75868V14.2413C22.9951 15.0463 22.9951 15.7106 22.9509 16.2518C22.905 16.8139 22.8064 17.3306 22.5591 17.816C22.1756 18.5686 21.5637 19.1805 20.8111 19.564C20.3257 19.8113 19.809 19.9099 19.2469 19.9558C18.7057 20 18.0414 20 17.2364 20H8.75384C7.94886 20 7.28449 20 6.74329 19.9558C6.18119 19.9099 5.66449 19.8113 5.17916 19.564C4.42651 19.1805 3.81459 18.5686 3.43109 17.816C3.1838 17.3306 3.08524 16.8139 3.03931 16.2518C2.99509 15.7106 2.9951 15.0463 2.99512 14.2413V9.7587C2.9951 8.95373 2.99509 8.28937 3.03931 7.74818C3.08524 7.18608 3.1838 6.66937 3.43109 6.18404C3.81459 5.43139 4.42651 4.81947 5.17916 4.43597C5.66449 4.18868 6.18119 4.09012 6.74329 4.04419C7.28449 3.99998 7.94885 3.99999 8.75382 4ZM6.90616 6.03755C6.46774 6.07337 6.24354 6.1383 6.08714 6.21799C5.71081 6.40973 5.40485 6.7157 5.2131 7.09202C5.13342 7.24842 5.06849 7.47262 5.03267 7.91104C4.9959 8.36113 4.99512 8.94342 4.99512 9.8V14.2C4.99512 15.0566 4.9959 15.6389 5.03267 16.089C5.06849 16.5274 5.13342 16.7516 5.2131 16.908C5.40485 17.2843 5.71081 17.5903 6.08714 17.782C6.24354 17.8617 6.46774 17.9266 6.90616 17.9624C7.35625 17.9992 7.93854 18 8.79512 18H17.1951C18.0517 18 18.634 17.9992 19.0841 17.9624C19.5225 17.9266 19.7467 17.8617 19.9031 17.782C20.2794 17.5903 20.5854 17.2843 20.7771 16.908C20.8568 16.7516 20.9217 16.5274 20.9576 16.089C20.9943 15.6389 20.9951 15.0566 20.9951 14.2V9.8C20.9951 8.94342 20.9943 8.36113 20.9576 7.91104C20.9217 7.47262 20.8568 7.24842 20.7771 7.09202C20.5854 6.7157 20.2794 6.40973 19.9031 6.21799C19.7467 6.1383 19.5225 6.07337 19.0841 6.03755C18.634 6.00078 18.0517 6 17.1951 6H8.79512C7.93854 6 7.35625 6.00078 6.90616 6.03755Z" fill="currentcolor"/>
<path fill-rule="evenodd" clip-rule="evenodd" d="M7.1705 8.43431C7.48292 7.97889 8.10538 7.86296 8.56081 8.17538L12.4294 10.8293C12.7703 11.0631 13.2199 11.0631 13.5608 10.8293L17.4294 8.17538C17.8849 7.86296 18.5073 7.97889 18.8197 8.43431C19.1322 8.88974 19.0162 9.5122 18.5608 9.82462L14.6922 12.4785C13.6696 13.18 12.3207 13.18 11.2981 12.4785L7.42943 9.82462C6.97401 9.5122 6.85808 8.88974 7.1705 8.43431Z" fill="currentcolor"/>
</svg>
