<svg width="24" height="24" viewBox="0 0 24 24" fill="none" xmlns="http://www.w3.org/2000/svg">
<g id="match">
<g id="Vector">
<path d="M11.564 13.5976H11.7159C11.8173 13.5976 11.8375 13.5369 11.9084 13.456L14.6035 10.7664L16.2347 9.07786L17.1972 8.06674L18.5954 8.16785H18.7372C18.8771 8.17009 19.0159 8.1434 19.145 8.08945C19.274 8.03551 19.3905 7.95548 19.487 7.8544L21.9388 5.4176C21.9686 5.3885 21.9892 5.35131 21.998 5.31065C22.0068 5.26998 22.0035 5.22763 21.9884 5.18885C21.9732 5.15008 21.9471 5.11659 21.913 5.09254C21.879 5.06849 21.8387 5.05495 21.797 5.05359L20.3178 5.03337L20.8548 4.48736C20.9148 4.4298 20.9626 4.36072 20.9953 4.28427C21.0279 4.20782 21.0447 4.12557 21.0447 4.04247C21.0447 3.95936 21.0279 3.87712 20.9953 3.80067C20.9626 3.72421 20.9148 3.65513 20.8548 3.59758L20.4799 3.21335C20.3607 3.09724 20.2007 3.03224 20.0341 3.03224C19.8675 3.03224 19.7075 3.09724 19.5883 3.21335L18.9703 3.84024L18.8385 2.19212C18.8335 2.13938 18.8089 2.09043 18.7695 2.05488C18.7301 2.01934 18.6789 1.99976 18.6258 2C18.5696 2.00209 18.5159 2.02353 18.4738 2.06067L16.0321 4.50759C15.92 4.61291 15.8335 4.74231 15.7791 4.88597C15.7247 5.02963 15.7038 5.18377 15.718 5.33671V5.43782L15.8396 6.96461L14.948 7.84429L11.797 11.0091L10.6319 12.1719C10.5847 12.214 10.5469 12.2653 10.5207 12.3228C10.4945 12.3802 10.4806 12.4425 10.4799 12.5056V13.0415C10.4772 13.1145 10.4889 13.1874 10.5144 13.2559C10.54 13.3244 10.5788 13.3872 10.6287 13.4407C10.6785 13.4942 10.7385 13.5374 10.8051 13.5678C10.8717 13.5982 10.9437 13.6152 11.0169 13.6178C11.1995 13.626 11.3825 13.6192 11.564 13.5976Z" fill="currentColor"/>
<path d="M15.6276 10.7867L14.0774 12.3338C14.1133 12.6225 14.1133 12.9146 14.0774 13.2033C13.9651 13.8216 13.6726 14.393 13.2365 14.8463C12.8004 15.2995 12.24 15.6143 11.6256 15.7513C11.1676 15.8247 10.6987 15.7884 10.2576 15.6455C9.81638 15.5025 9.41555 15.2571 9.08807 14.9293C8.76058 14.6015 8.51582 14.2007 8.37393 13.76C8.23205 13.3193 8.1971 12.8512 8.27198 12.3944C8.40684 11.7906 8.71554 11.2392 9.16013 10.8081C9.60472 10.377 10.1658 10.0849 10.7745 9.96772C11.0672 9.93216 11.3632 9.93216 11.656 9.96772L13.196 8.43082C12.3505 8.03221 11.4079 7.88479 10.4807 8.00615C9.45748 8.19705 8.51211 8.68117 7.76004 9.3994C7.00797 10.1176 6.48175 11.0389 6.24563 12.0506C6.1202 12.8203 6.17973 13.6087 6.41931 14.3509C6.6589 15.0932 7.07168 15.768 7.6237 16.3199C8.17572 16.8718 8.85118 17.2849 9.59448 17.5254C10.3378 17.7658 11.1277 17.8266 11.8991 17.7028C12.9121 17.4691 13.835 16.9458 14.5547 16.197C15.2745 15.4482 15.76 14.5062 15.9518 13.4864C16.0965 12.5739 15.9843 11.6393 15.6276 10.7867Z" fill="currentColor"/>
<path d="M18.6869 8.86552H18.5248L17.1976 8.76441C18.0392 9.96879 18.4918 11.4012 18.4944 12.8696C18.4944 14.3133 18.066 15.7246 17.2633 16.9257C16.4607 18.1268 15.3196 19.0638 13.984 19.6185C12.6485 20.1733 11.1782 20.321 9.75865 20.043C8.3391 19.765 7.0338 19.0737 6.00737 18.0564C4.98093 17.0391 4.2793 15.7412 3.99096 14.3265C3.70262 12.9118 3.84047 11.4435 4.38714 10.1068C4.93381 8.77019 5.86482 7.625 7.06276 6.81568C8.26071 6.00635 9.67195 5.56913 11.1185 5.55915C12.566 5.56454 13.9783 6.00498 15.1712 6.82305V5.38726C15.1353 5.13236 15.1353 4.8737 15.1712 4.61881C13.9139 3.99503 12.5221 3.68946 11.1185 3.72902C9.31507 3.72902 7.55209 4.26273 6.05256 5.26266C4.55302 6.26259 3.38427 7.68384 2.69411 9.34666C2.00395 11.0095 1.82337 12.8392 2.17521 14.6045C2.52706 16.3697 3.39551 17.9912 4.67076 19.2639C5.94601 20.5365 7.57078 21.4032 9.33961 21.7544C11.1084 22.1055 12.9419 21.9253 14.6081 21.2365C16.2743 20.5478 17.6984 19.3814 18.7003 17.8849C19.7023 16.3884 20.2371 14.629 20.2371 12.8291C20.2421 11.392 19.8942 9.97563 19.2239 8.70374C19.0521 8.77905 18.8718 8.83337 18.6869 8.86552Z" fill="currentColor"/>
</g>
</g>
</svg>
