<svg width="16" height="16" viewBox="0 0 16 16" fill="none" xmlns="http://www.w3.org/2000/svg">
<g id="icon">
<path id="Vector" fill-rule="evenodd" clip-rule="evenodd" d="M2.66732 2H13.334C14.0704 2 14.6673 2.59695 14.6673 3.33333V11.3333C14.6673 12.0697 14.0704 12.6667 13.334 12.6667H9.94065C9.76576 12.6674 9.59816 12.7368 9.47398 12.86L8.48065 13.8533C8.38697 13.9471 8.25988 13.9999 8.12732 14H7.87398C7.74142 13.9999 7.61433 13.9471 7.52065 13.8533L6.52732 12.86C6.40314 12.7368 6.23554 12.6674 6.06065 12.6667H2.66732C1.93094 12.6667 1.33398 12.0697 1.33398 11.3333V3.33333C1.33398 2.59695 1.93094 2 2.66732 2ZM9.94065 11.3333H13.334V3.33333H2.66732V11.3333H6.06065C6.59091 11.3338 7.09927 11.5448 7.47398 11.92L8.00065 12.4467L8.52732 11.92C8.90203 11.5448 9.4104 11.3338 9.94065 11.3333ZM4.33398 9.33333H9.00065C9.18475 9.33333 9.33398 9.1841 9.33398 9V8.33333C9.33398 8.14924 9.18475 8 9.00065 8H4.33398C4.14989 8 4.00065 8.14924 4.00065 8.33333V9C4.00065 9.1841 4.14989 9.33333 4.33398 9.33333ZM11.6673 6.66667H4.33398C4.14989 6.66667 4.00065 6.51743 4.00065 6.33333V5.66667C4.00065 5.48257 4.14989 5.33333 4.33398 5.33333H11.6673C11.8514 5.33333 12.0007 5.48257 12.0007 5.66667V6.33333C12.0007 6.51743 11.8514 6.66667 11.6673 6.66667Z" fill="currentColor"/>
</g>
</svg>
