<svg width="24" height="24" viewBox="0 0 24 24" fill="currentColor" xmlns="http://www.w3.org/2000/svg">
<g id="Pie Char Outline">
<g id="Vector">
<path fill-rule="evenodd" clip-rule="evenodd" d="M2.15372 15.5608C1.84504 14.0089 2.00347 12.4004 2.60897 10.9386C3.21447 9.47675 4.23985 8.22732 5.55544 7.34827C6.71227 6.5753 8.04779 6.11925 9.42905 6.02042C10.3309 5.9559 11 6.69223 11 7.50003V13L16.5 13C17.3078 13 18.0441 13.6691 17.9796 14.571C17.8808 15.9522 17.4247 17.2878 16.6518 18.4446C15.7727 19.7602 14.5233 20.7856 13.0615 21.3911C11.5997 21.9966 9.99113 22.155 8.43928 21.8463C6.88743 21.5376 5.46197 20.7757 4.34315 19.6569C3.22433 18.5381 2.4624 17.1126 2.15372 15.5608ZM4.45673 11.7039C4.0026 12.8003 3.88378 14.0067 4.11529 15.1706C4.3468 16.3345 4.91825 17.4036 5.75736 18.2427C6.59648 19.0818 7.66558 19.6532 8.82946 19.8847C9.99335 20.1163 11.1997 19.9974 12.2961 19.5433C13.3925 19.0892 14.3295 18.3201 14.9888 17.3334C15.4611 16.6266 15.7757 15.8308 15.9161 15H11C9.89543 15 9 14.1046 9 13L9 8.08394C8.16919 8.22438 7.37341 8.53893 6.66658 9.01121C5.67989 9.6705 4.91085 10.6076 4.45673 11.7039Z"/>
<path fill-rule="evenodd" clip-rule="evenodd" d="M13 3.50003C13 2.69226 13.6691 1.9559 14.571 2.02043C15.4261 2.08161 16.2671 2.27996 17.0615 2.60899C18.0321 3.01103 18.914 3.60031 19.6569 4.34317C20.3997 5.08604 20.989 5.96796 21.391 6.93856C21.7201 7.73291 21.9184 8.57394 21.9796 9.42908C22.0441 10.331 21.3078 11 20.5 11H15C13.8954 11 13 10.1046 13 9.00003V3.50003ZM15 4.08395V9.00003H19.9161C19.8411 8.5564 19.7163 8.12156 19.5433 7.70393C19.2418 6.97597 18.7998 6.31454 18.2426 5.75739C17.6855 5.20024 17.0241 4.75828 16.2961 4.45675C15.8785 4.28376 15.4436 4.15894 15 4.08395Z"/>
</g>
</g>
</svg>
