<svg width="160" height="160" viewBox="0 0 160 160" fill="none" xmlns="http://www.w3.org/2000/svg">
<g clip-path="url(#clip0_436_62148)">
<path d="M80 160C124.183 160 160 124.183 160 80C160 35.8172 124.183 0 80 0C35.8172 0 0 35.8172 0 80C0 124.183 35.8172 160 80 160Z" fill="#DADDE6"/>
<mask id="mask0_436_62148" style="mask-type:alpha" maskUnits="userSpaceOnUse" x="0" y="0" width="160" height="160">
<path d="M80 160C124.183 160 160 124.183 160 80C160 35.8172 124.183 0 80 0C35.8172 0 0 35.8172 0 80C0 124.183 35.8172 160 80 160Z" fill="#DADDE6"/>
</mask>
<g mask="url(#mask0_436_62148)">
<path d="M45.5029 114.657C45.5029 108.767 50.2785 103.991 56.1696 103.991H103.83C109.721 103.991 114.496 108.767 114.496 114.657V174.977C114.496 192.65 100.17 206.977 82.4963 206.977H77.503C59.8299 206.977 45.5029 192.65 45.5029 174.977V114.657Z" fill="#FCFCFC"/>
<path d="M79.9997 90.2594C95.2414 90.2594 107.597 77.9638 107.597 62.7964C107.597 47.6291 95.2414 35.3335 79.9997 35.3335C64.7581 35.3335 52.4023 47.6291 52.4023 62.7964C52.4023 77.9638 64.7581 90.2594 79.9997 90.2594Z" fill="#FCFCFC"/>
</g>
</g>
<defs>
<clipPath id="clip0_436_62148">
<rect width="160" height="160" fill="white"/>
</clipPath>
</defs>
</svg>
