<svg width="24" height="24" viewBox="0 0 24 24" fill="none" xmlns="http://www.w3.org/2000/svg">
<path d="M19.5043 5.70423H15.3304C15.3304 4.98864 15.0678 4.30223 14.6 3.79536C14.1322 3.28849 13.4975 3.00248 12.8348 3L11.1652 3C10.5025 3.00248 9.86777 3.28849 9.39999 3.79536C8.93222 4.30223 8.66956 4.98864 8.66957 5.70423H4.49565C3.83447 5.7067 3.20102 5.99141 2.73349 6.49626C2.26596 7.0011 2.00229 7.68511 2 8.39906L2 18.2958C2 19.013 2.26385 19.7008 2.73351 20.208C3.20316 20.7151 3.84015 21 4.50435 21H19.5043C20.167 20.9975 20.8018 20.7115 21.2696 20.2046C21.7373 19.6978 22 19.0114 22 18.2958V8.39906C22 7.68186 21.7361 6.99403 21.2665 6.48688C20.7968 5.97974 20.1598 5.69484 19.4957 5.69484L19.5043 5.70423ZM11.1652 4.80282H12.8348C13.0562 4.80282 13.2685 4.89779 13.4251 5.06683C13.5816 5.23588 13.6696 5.46516 13.6696 5.70423H10.3304C10.3304 5.46516 10.4184 5.23588 10.5749 5.06683C10.7315 4.89779 10.9438 4.80282 11.1652 4.80282ZM3.66957 8.39906C3.66955 8.16161 3.75631 7.93375 3.91098 7.76497C4.06566 7.59619 4.27576 7.50013 4.49565 7.49765H19.4957C19.7171 7.49765 19.9294 7.59262 20.0859 7.76167C20.2425 7.93072 20.3304 8.15999 20.3304 8.39906V10.9155L14.487 13.216C14.458 13.0035 14.3597 12.8093 14.2099 12.6681C14.06 12.5269 13.8684 12.4482 13.6696 12.446H10.3304C10.1316 12.4482 9.94 12.5269 9.79015 12.6681C9.6403 12.8093 9.54203 13.0035 9.51304 13.216L3.66957 10.9155V8.39906ZM12.8348 14.2488V16.0516H11.1652V14.2488H12.8348ZM19.5043 19.1972H4.50435C4.28295 19.1972 4.07062 19.1022 3.91407 18.9332C3.75752 18.7641 3.66957 18.5348 3.66957 18.2958V12.831L9.49565 15.1221V16.9437C9.49565 17.062 9.51724 17.1793 9.5592 17.2886C9.60115 17.398 9.66264 17.4974 9.74015 17.5811C9.81767 17.6648 9.9097 17.7312 10.011 17.7765C10.1123 17.8218 10.2208 17.8451 10.3304 17.8451H13.6696C13.8895 17.8426 14.0996 17.7465 14.2542 17.5778C14.4089 17.409 14.4957 17.1811 14.4957 16.9437V15.1221L20.3304 12.831V18.2958C20.3304 18.5332 20.2437 18.7611 20.089 18.9299C19.9343 19.0986 19.7242 19.1947 19.5043 19.1972Z" fill="currentColor"/>
</svg>
