<svg width="26" height="26" viewBox="0 0 26 26" fill="none" xmlns="http://www.w3.org/2000/svg">
<g id="Group">
<path id="Path" d="M9.99884 22.0037H5.99717C4.89214 22.0037 3.99634 21.1079 3.99634 20.0029V5.99705C3.99634 4.89202 4.89214 3.99622 5.99717 3.99622H18.0022C19.1072 3.99622 20.003 4.89202 20.003 5.99705V8.9983" stroke="currentColor" stroke-width="2" stroke-linecap="round" stroke-linejoin="round"/>
<path id="Path_2" fill-rule="evenodd" clip-rule="evenodd" d="M13 22.0037L15.6251 21.6796C15.8098 21.6567 15.9816 21.573 16.1133 21.4415L22.4739 15.0808C23.1785 14.3793 23.1811 13.2396 22.4799 12.5348L22.4739 12.5298V12.5298C21.7724 11.8253 20.6327 11.8226 19.9279 12.5238V12.5298L13.6253 18.8324C13.497 18.9598 13.4141 19.1256 13.3892 19.3046L13 22.0037Z" stroke="currentColor" stroke-width="2" stroke-linecap="round" stroke-linejoin="round"/>
<path id="Path_3" fill-rule="evenodd" clip-rule="evenodd" d="M8.99843 18.0021V18.0021C8.16966 18.0021 7.4978 17.3303 7.4978 16.5015V16.5015C7.4978 15.6727 8.16966 15.0009 8.99843 15.0009V15.0009C9.8272 15.0009 10.4991 15.6727 10.4991 16.5015V16.5015C10.4991 17.3303 9.8272 18.0021 8.99843 18.0021Z" stroke="currentColor" stroke-width="2" stroke-linecap="round" stroke-linejoin="round"/>
<path id="Path_4" d="M7.4978 7.99789H15.5011" stroke="currentColor" stroke-width="2" stroke-linecap="round" stroke-linejoin="round"/>
<path id="Path_5" d="M7.4978 11.4994H11.4995" stroke="currentColor" stroke-width="2" stroke-linecap="round" stroke-linejoin="round"/>
</g>
</svg>
