<svg width="16" height="16" viewBox="0 0 16 16" fill="none" xmlns="http://www.w3.org/2000/svg">
<path fill-rule="evenodd" clip-rule="evenodd" d="M4.00033 10.6666C2.90185 10.6666 2.00033 11.5681 2.00033 12.6666C2.00033 13.0348 1.70185 13.3333 1.33366 13.3333C0.965469 13.3333 0.666992 13.0348 0.666992 12.6666C0.666992 10.8317 2.16547 9.33325 4.00033 9.33325H6.66699C8.50185 9.33325 10.0003 10.8317 10.0003 12.6666C10.0003 13.0348 9.70185 13.3333 9.33366 13.3333C8.96547 13.3333 8.66699 13.0348 8.66699 12.6666C8.66699 11.5681 7.76547 10.6666 6.66699 10.6666H4.00033Z" fill="#005994"/>
<path fill-rule="evenodd" clip-rule="evenodd" d="M6.53788 4.48018C5.82617 3.82803 4.72722 3.83826 4.15578 4.45365C3.54984 5.1062 3.56937 6.10973 4.22245 6.81305C4.796 7.43072 5.83517 7.4391 6.54695 6.77815C7.18344 6.18713 7.21201 5.16326 6.53788 4.48018ZM7.45094 3.50844C6.29525 2.43849 4.33709 2.29891 3.17873 3.54638C2.05133 4.7605 2.16514 6.55697 3.24539 7.72032C4.40517 8.96931 6.29934 8.8276 7.45422 7.75521C8.68058 6.61645 8.65565 4.7156 7.47514 3.53176C7.47121 3.52779 7.46722 3.52385 7.46317 3.51995C7.45913 3.51606 7.45505 3.51222 7.45094 3.50844Z" fill="#005994"/>
<path fill-rule="evenodd" clip-rule="evenodd" d="M10 9.33341C10 8.96522 10.2985 8.66675 10.6667 8.66675H12.6667C14.1682 8.66675 15.3333 9.83189 15.3333 11.3334C15.3333 11.7016 15.0349 12.0001 14.6667 12.0001C14.2985 12.0001 14 11.7016 14 11.3334C14 10.5683 13.4318 10.0001 12.6667 10.0001H10.6667C10.2985 10.0001 10 9.7016 10 9.33341Z" fill="#005994"/>
<path fill-rule="evenodd" clip-rule="evenodd" d="M12.4082 4.95075C11.9805 4.57836 11.3288 4.61466 11.0053 4.93817C10.9971 4.94644 10.9886 4.95448 10.9799 4.9623C10.6519 5.25753 10.6129 5.89131 11.0295 6.35413C11.3247 6.68216 11.9585 6.72111 12.4213 6.30457C12.7756 5.98571 12.816 5.37139 12.4082 4.95075ZM13.3085 3.96695C12.4064 3.15964 10.9481 3.12404 10.075 3.98297C9.08415 4.88892 9.25831 6.37932 10.0384 7.24608C10.9432 8.25138 12.4427 8.07909 13.3132 7.29563C14.2871 6.41915 14.2512 4.91282 13.3432 3.99991C13.3376 3.99424 13.3319 3.98865 13.3261 3.98313C13.3203 3.97761 13.3144 3.97222 13.3085 3.96695Z" fill="#005994"/>
</svg>
