<svg width="10" height="10" viewBox="0 0 10 10" fill="none" xmlns="http://www.w3.org/2000/svg">
<path fill-rule="evenodd" clip-rule="evenodd" d="M5 0C2.23858 0 0 2.23858 0 5C0 7.76142 2.23858 10 5 10C7.76142 10 10 7.76142 10 5C10 3.67392 9.47322 2.40215 8.53553 1.46447C7.59785 0.526784 6.32608 0 5 0ZM5 9C2.79086 9 1 7.20914 1 5C1 2.79086 2.79086 1 5 1C7.20914 1 9 2.79086 9 5C9 6.06087 8.57857 7.07828 7.82843 7.82843C7.07828 8.57857 6.06087 9 5 9ZM6.28015 3.45491L6.54515 3.71991C6.59349 3.76528 6.62091 3.82862 6.62091 3.89491C6.62091 3.9612 6.59349 4.02454 6.54515 4.06991L5.62015 4.99991L6.54515 5.92991C6.59349 5.97528 6.62091 6.03862 6.62091 6.10491C6.62091 6.1712 6.59349 6.23454 6.54515 6.27991L6.28015 6.54491C6.23479 6.59325 6.17145 6.62067 6.10515 6.62067C6.03886 6.62067 5.97552 6.59325 5.93015 6.54491L5.00015 5.61991L4.07015 6.54491C4.02479 6.59325 3.96145 6.62067 3.89515 6.62067C3.82886 6.62067 3.76552 6.59325 3.72015 6.54491L3.45515 6.27991C3.40682 6.23454 3.37939 6.1712 3.37939 6.10491C3.37939 6.03862 3.40682 5.97528 3.45515 5.92991L4.38015 4.99991L3.45515 4.06991C3.40682 4.02454 3.37939 3.9612 3.37939 3.89491C3.37939 3.82862 3.40682 3.76528 3.45515 3.71991L3.72015 3.45491C3.76552 3.40657 3.82886 3.37915 3.89515 3.37915C3.96145 3.37915 4.02479 3.40657 4.07015 3.45491L5.00015 4.37991L5.93015 3.45491C5.97552 3.40657 6.03886 3.37915 6.10515 3.37915C6.17145 3.37915 6.23479 3.40657 6.28015 3.45491Z" fill="#FB3B40"/>
</svg>
