<svg width="32" height="32" viewBox="0 0 32 32" fill="none" xmlns="http://www.w3.org/2000/svg">
<path d="M0 4C0 1.79086 1.79086 0 4 0H28C30.2091 0 32 1.79086 32 4V28C32 30.2091 30.2091 32 28 32H4C1.79086 32 0 30.2091 0 28V4Z" fill="#FB3B40"/>
<path d="M21.8479 20.4399C21.9426 20.5337 21.9958 20.6615 21.9958 20.7949C21.9958 20.9282 21.9426 21.056 21.8479 21.1499L21.1479 21.8499C21.054 21.9445 20.9262 21.9978 20.7929 21.9978C20.6596 21.9978 20.5318 21.9445 20.4379 21.8499L15.9979 17.4099L11.5579 21.8499C11.464 21.9445 11.3362 21.9978 11.2029 21.9978C11.0696 21.9978 10.9418 21.9445 10.8479 21.8499L10.1479 21.1499C10.0532 21.056 10 20.9282 10 20.7949C10 20.6615 10.0532 20.5337 10.1479 20.4399L14.5879 15.9999L10.1479 11.5599C10.0532 11.466 10 11.3382 10 11.2049C10 11.0715 10.0532 10.9437 10.1479 10.8499L10.8479 10.1499C10.9418 10.0552 11.0696 10.002 11.2029 10.002C11.3362 10.002 11.464 10.0552 11.5579 10.1499L15.9979 14.5899L20.4379 10.1499C20.5318 10.0552 20.6596 10.002 20.7929 10.002C20.9262 10.002 21.054 10.0552 21.1479 10.1499L21.8479 10.8499C21.9426 10.9437 21.9958 11.0715 21.9958 11.2049C21.9958 11.3382 21.9426 11.466 21.8479 11.5599L17.4079 15.9999L21.8479 20.4399Z" fill="white"/>
</svg>
