<svg width="24" height="24" viewBox="0 0 24 24" fill="none" xmlns="http://www.w3.org/2000/svg">
<path d="M23.5733 2.08105H0.426667C0.191025 2.08105 0 3.0499 0 4.24504V21.0159C0 22.2111 0.191025 23.1799 0.426667 23.1799H23.5733C23.809 23.1799 24 22.2111 24 21.0159V4.24504C24 3.0499 23.809 2.08105 23.5733 2.08105Z" fill="currentColor"/>
<path d="M0 1.17969C0 0.627403 0.447715 0.179688 1 0.179688H9.98313C10.2972 0.179688 10.593 0.327248 10.782 0.578149L13.794 4.57815C14.2903 5.23714 13.8201 6.17969 12.9952 6.17969H1C0.447715 6.17969 0 5.73197 0 5.17969V1.17969Z" fill="currentColor"/>
<rect x="1.82825" y="7.0918" width="11.8996" height="2.02985" rx="1.01492" fill="#737DA0"/>
<rect x="1.82825" y="10.249" width="6.74312" height="2.02985" rx="1.01492" fill="#5B6486"/>
</svg>
