<svg xmlns="http://www.w3.org/2000/svg" fill="currentColor" width="24px" height="24px" viewBox="0 0 24 24">
  <path d="M16.875 15.455l4 4.005a.501.501 0 01-.02.691l-.7.7a.5.5 0 01-.71 0l-4-4.004a2.612 2.612 0 01-.3-.36l-.75-1.001a6.995 6.995 0 01-4.37 1.531A7.011 7.011 0 016.973 3.69a6.995 6.995 0 018.518 1.971 7.015 7.015 0 01-.046 8.753l1 .691c.156.1.3.218.43.35zM5.025 10.01a5.003 5.003 0 005 5.006 4.997 4.997 0 003.535-1.466 5.01 5.01 0 001.465-3.54 5.003 5.003 0 00-5-5.006c-2.761 0-5 2.241-5 5.006z"/>
</svg>