<svg width="24" height="24" viewBox="0 0 24 24" fill="none" xmlns="http://www.w3.org/2000/svg">
<path d="M20.8 15.2C20.1 14.4 19.1 14 18 14C15.8 14 14 15.8 14 18C14 20.2 15.8 22 18 22C19.7 22 21.1 21 21.7 19.5H20C19.5 20.1 18.8 20.5 18 20.5C16.6 20.5 15.5 19.4 15.5 18C15.5 16.6 16.6 15.5 18 15.5C18.7 15.5 19.3 15.8 19.8 16.2L18 18H22V14L20.8 15.2Z" fill="currentColor"/>
<path d="M13.4841 21.9553C13.3863 21.9857 13.2825 22.0013 13.1754 21.9999H10.8754C10.38 22.0063 9.95467 21.6483 9.87544 21.1582L9.70544 20.1562C9.60122 19.5313 9.20814 18.9925 8.64544 18.7034C8.38794 18.5793 8.14052 18.4352 7.90544 18.2725C7.58353 18.0641 7.20866 17.9528 6.82544 17.9519C6.58598 17.9504 6.34843 17.9947 6.12544 18.0821L5.12544 18.4428C5.01514 18.4911 4.89577 18.515 4.77544 18.513C4.42033 18.5108 4.09299 18.3201 3.91544 18.012L2.75544 16.008C2.51437 15.582 2.61586 15.0439 2.99544 14.7354L3.79544 14.0741C4.28049 13.6707 4.54731 13.0617 4.51544 12.4309V11.5691C4.54731 10.9383 4.28049 10.3293 3.79544 9.92587L2.99544 9.26455C2.61586 8.95612 2.51437 8.41797 2.75544 7.99202L3.89544 5.98803C4.07299 5.67987 4.40033 5.48918 4.75544 5.48703C4.87577 5.48502 4.99514 5.50894 5.10544 5.55717L6.10544 5.91789C6.32843 6.00535 6.56598 6.04955 6.80544 6.04815C7.18866 6.04715 7.56353 5.93586 7.88544 5.72751C8.12052 5.56478 8.36794 5.42072 8.62544 5.29665C9.17279 4.99804 9.54993 4.46084 9.64544 3.84376L9.81544 2.84176C9.89467 2.35173 10.32 1.9937 10.8154 2.00008H13.1154C13.6108 1.9937 14.0362 2.35173 14.1154 2.84176L14.2854 3.84376C14.3897 4.46873 14.7827 5.0075 15.3454 5.29665C15.6029 5.42072 15.8504 5.56478 16.0854 5.72751C16.4073 5.93586 16.7822 6.04715 17.1654 6.04815C17.4049 6.04955 17.6424 6.00535 17.8654 5.91789L18.8654 5.55717C18.9757 5.50894 19.0951 5.48502 19.2154 5.48703C19.5706 5.48918 19.8979 5.67987 20.0754 5.98803L21.2354 7.99202C21.4788 8.41563 21.3816 8.95336 21.0054 9.26455L20.2054 9.92587C19.7204 10.3293 19.4536 10.9383 19.4854 11.5691V12.1864C19.0091 12.0647 18.5101 12 17.9958 12C17.8273 12 17.6604 12.007 17.4953 12.0206C17.4953 12.0138 17.4954 12.007 17.4954 12.0002C17.4954 8.95661 15.0329 6.48926 11.9954 6.48926C8.9578 6.48926 6.49536 8.95661 6.49536 12.0002C6.49536 15.0439 8.9578 17.5112 11.9954 17.5112C12.0021 17.5112 12.0088 17.5112 12.0155 17.5112C12.0025 17.6724 11.9958 17.8354 11.9958 18C11.9958 19.5152 12.5575 20.8993 13.4841 21.9553Z" fill="currentColor"/>
<path d="M11.9954 9.99601C10.8909 9.99601 9.99544 10.8932 9.99544 12C9.99544 13.1068 10.8909 14.004 11.9954 14.004C13.1 14.004 13.9954 13.1068 13.9954 12C13.9954 10.8932 13.1 9.99601 11.9954 9.99601Z" fill="currentColor"/>
</svg>
