<svg width="24" height="24" viewBox="0 0 24 24" fill="none" xmlns="http://www.w3.org/2000/svg">
<path fill-rule="evenodd" clip-rule="evenodd" d="M11.8571 2.00683C11.3858 2.05534 10.9674 2.34165 10.7535 2.77173L9.89894 4.49498L7.99146 4.77232C7.47134 4.84434 7.03269 5.2112 6.86783 5.7164L6.83034 5.85524C6.73006 6.32098 6.87556 6.81016 7.2229 7.14594L8.59994 8.48298L8.27443 10.3753C8.18903 10.9057 8.40556 11.4279 8.83225 11.7359L8.96413 11.8203C9.37074 12.0493 9.86951 12.0607 10.2896 11.842L11.9999 10.945L13.7078 11.8408C14.172 12.0869 14.7411 12.0471 15.1704 11.7358L15.2821 11.6457C15.6363 11.3286 15.8065 10.8487 15.7243 10.3736L15.3989 8.48298L16.7788 7.14421C17.1593 6.77251 17.295 6.21987 17.1308 5.7168L17.0795 5.58311C16.8868 5.14955 16.4835 4.84066 16.0073 4.77216L14.0999 4.49498L13.2471 2.7732C13.0111 2.29864 12.5283 1.99951 11.9999 1.99951L11.8571 2.00683ZM11.9999 4.76198L12.5408 5.85375L12.6017 5.95986C12.7577 6.19694 13.0088 6.35836 13.2935 6.39963L14.4949 6.57298L13.6281 7.41674L13.5455 7.50748C13.3671 7.72937 13.2905 8.01886 13.3394 8.30328L13.5439 9.49698L12.464 8.93119L12.3526 8.88122C12.0875 8.78128 11.7902 8.79794 11.5358 8.93119L10.4549 9.49698L10.6604 8.30361L10.6738 8.18158C10.6874 7.8971 10.5788 7.6179 10.3718 7.41674L9.50394 6.57298L10.7064 6.39963C11.0318 6.35246 11.3132 6.14837 11.4591 5.85375L11.9999 4.76198Z" fill="currentColor"/>
<path fill-rule="evenodd" clip-rule="evenodd" d="M4.95353 12.7717C5.16739 12.3416 5.58585 12.0553 6.05712 12.0068L6.19994 11.9995C6.72829 11.9995 7.2111 12.2986 7.44707 12.7732L8.29994 14.495L10.2073 14.7722C10.6835 14.8407 11.0868 15.1496 11.2795 15.5831L11.3308 15.7168C11.495 16.2199 11.3593 16.7725 10.9788 17.1442L9.59894 18.483L9.92432 20.3736C10.0065 20.8487 9.83634 21.3286 9.48214 21.6457L9.37043 21.7358C8.94105 22.0471 8.37199 22.0869 7.90784 21.8408L6.19994 20.945L4.48962 21.842C4.06951 22.0607 3.57074 22.0493 3.16413 21.8203L3.03225 21.7359C2.60556 21.4279 2.38903 20.9057 2.47443 20.3753L2.79994 18.483L1.42289 17.1459C1.07556 16.8102 0.930061 16.321 1.03034 15.8552L1.06783 15.7164C1.23269 15.2112 1.67134 14.8443 2.19146 14.7723L4.09894 14.495L4.95353 12.7717ZM6.7408 15.8538L6.19994 14.762L5.65907 15.8538C5.51317 16.1484 5.23178 16.3525 4.90641 16.3996L3.70394 16.573L4.57177 17.4167C4.77882 17.6179 4.8874 17.8971 4.87382 18.1816L4.86045 18.3036L4.65494 19.497L5.73584 18.9312C5.99017 18.7979 6.28754 18.7813 6.55262 18.8812L6.66404 18.9312L7.74394 19.497L7.53937 18.3033C7.49052 18.0189 7.56711 17.7294 7.7455 17.5075L7.82811 17.4167L8.69494 16.573L7.49346 16.3996C7.20877 16.3584 6.95774 16.1969 6.80169 15.9599L6.7408 15.8538Z" fill="currentColor"/>
<path fill-rule="evenodd" clip-rule="evenodd" d="M16.5535 12.7717C16.7674 12.3416 17.1858 12.0553 17.6571 12.0068L17.7999 11.9995C18.3283 11.9995 18.8111 12.2986 19.0471 12.7732L19.8999 14.495L21.8073 14.7722C22.2835 14.8407 22.6868 15.1496 22.8795 15.5831L22.9308 15.7168C23.095 16.2199 22.9593 16.7725 22.5788 17.1442L21.1989 18.483L21.5243 20.3736C21.6065 20.8487 21.4363 21.3286 21.0821 21.6457L20.9704 21.7358C20.5411 22.0471 19.972 22.0869 19.5078 21.8408L17.7999 20.945L16.0896 21.842C15.6695 22.0607 15.1707 22.0493 14.7641 21.8203L14.6322 21.7359C14.2056 21.4279 13.989 20.9057 14.0744 20.3753L14.3999 18.483L13.0229 17.1459C12.6756 16.8102 12.5301 16.321 12.6303 15.8552L12.6678 15.7164C12.8327 15.2112 13.2713 14.8443 13.7915 14.7723L15.6989 14.495L16.5535 12.7717ZM18.3408 15.8538L17.7999 14.762L17.2591 15.8538C17.1132 16.1484 16.8318 16.3525 16.5064 16.3996L15.3039 16.573L16.1718 17.4167C16.3788 17.6179 16.4874 17.8971 16.4738 18.1816L16.4604 18.3036L16.2549 19.497L17.3358 18.9312C17.5902 18.7979 17.8875 18.7813 18.1526 18.8812L18.264 18.9312L19.3439 19.497L19.1394 18.3033C19.0905 18.0189 19.1671 17.7294 19.3455 17.5075L19.4281 17.4167L20.2949 16.573L19.0935 16.3996C18.8088 16.3584 18.5577 16.1969 18.4017 15.9599L18.3408 15.8538Z" fill="currentColor"/>
</svg>
