<svg width="24" height="24" viewBox="0 0 24 24" fill="none" xmlns="http://www.w3.org/2000/svg">
<path fill-rule="evenodd" clip-rule="evenodd" d="M1.83398 11.5005C1.83398 5.97764 6.31114 1.50049 11.834 1.50049C14.4861 1.50049 17.0297 2.55406 18.9051 4.42942C20.7804 6.30478 21.834 8.84832 21.834 11.5005C21.834 17.0233 17.3568 21.5005 11.834 21.5005C6.31114 21.5005 1.83398 17.0233 1.83398 11.5005ZM3.83398 11.5005C3.83398 15.9188 7.41571 19.5005 11.834 19.5005C13.9557 19.5005 15.9905 18.6576 17.4908 17.1573C18.9911 15.6571 19.834 13.6222 19.834 11.5005C19.834 7.08221 16.2523 3.50049 11.834 3.50049C7.41571 3.50049 3.83398 7.08221 3.83398 11.5005Z" fill="currentColor"/>
<path d="M15.3335 11.4367V11.5705C15.3331 11.6979 15.2565 11.8158 15.1317 11.8812L10.2499 14.3713C9.95531 14.5242 9.80259 14.5242 9.67168 14.4573L9.53531 14.3904C9.41378 14.3268 9.33769 14.2133 9.3335 14.0893V8.91784C9.33394 8.79044 9.41052 8.67255 9.53531 8.60717L9.67168 8.54026C9.80259 8.47334 9.95531 8.47334 10.3371 8.6693L15.1317 11.126C15.2565 11.1914 15.3331 11.3093 15.3335 11.4367Z" fill="currentColor"/>
</svg>
