<svg width="20" height="19" viewBox="0 0 20 19" fill="none" xmlns="http://www.w3.org/2000/svg">
<path fill-rule="evenodd" clip-rule="evenodd" d="M9.39188 0.320111C9.47017 0.124506 9.66039 -0.00265616 9.87056 0.000111124H10.1298C10.3381 -0.00432043 10.5263 0.124159 10.5986 0.320111L13.0817 6.21011L19.4542 6.72011C19.6593 6.73266 19.8346 6.87254 19.893 7.07011L19.9728 7.32011C20.0383 7.5088 19.9831 7.71852 19.8331 7.85011L14.9865 12.0001L16.4225 18.2201C16.4712 18.4189 16.3965 18.6276 16.233 18.7501L16.0137 18.9001C15.9284 18.9671 15.8227 19.0024 15.7145 19.0001C15.6232 19.0021 15.5332 18.9778 15.4552 18.9301L10.0002 15.6001L4.57513 18.9301C4.49714 18.9778 4.40717 19.0021 4.31585 19.0001C4.2076 19.0024 4.10188 18.9671 4.01667 18.9001L3.76736 18.7501C3.60386 18.6276 3.52925 18.4189 3.57788 18.2201L5.01393 12.0001L0.177238 7.86011C0.0195079 7.72929 -0.0401977 7.51376 0.0276496 7.32011L0.137348 7.07011C0.195676 6.87254 0.371037 6.73266 0.57614 6.72011L6.9486 6.21011L9.39188 0.320111ZM16.6519 8.25011L11.8551 7.87011L10.0002 3.41011L8.14531 7.87011L3.34851 8.25011L7.00844 11.3801L5.88154 16.0601L10.0002 13.5501L14.1089 16.0601L12.992 11.3801L16.6519 8.25011Z" fill="#454C66"/>
</svg>
