<svg width="104" height="104" viewBox="0 0 104 104" fill="none" xmlns="http://www.w3.org/2000/svg">
<rect width="103.998" height="103.998" rx="8" fill="#FFEBEC"/>
<path d="M51.9975 79.0007H33.9979C30.683 79.0007 27.998 76.3157 27.998 73.0008V31.0018C27.998 27.6869 30.683 25.002 33.9979 25.002H69.997C73.312 25.002 75.9969 27.6869 75.9969 31.0018V46.0015" stroke="#FB3B40" stroke-width="4.49802" stroke-linecap="round" stroke-linejoin="round"/>
<path d="M42.998 49.0039V55.0038" stroke="#FB3B40" stroke-width="4.49802" stroke-linecap="round" stroke-linejoin="round"/>
<path fill-rule="evenodd" clip-rule="evenodd" d="M27.998 31.0101V72.9941C27.998 77.455 32.6929 80.356 36.6798 78.361L48.6796 72.3611C50.7135 71.3412 51.9975 69.2652 51.9975 66.9913V37.01C51.9975 34.736 50.7135 32.6601 48.6796 31.6431L36.6798 25.6433C32.6929 23.6483 27.998 26.5492 27.998 31.0101Z" stroke="#FB3B40" stroke-width="4.49802" stroke-linecap="round" stroke-linejoin="round"/>
<path fill-rule="evenodd" clip-rule="evenodd" d="M81.9956 68.4998C81.9956 74.3106 77.3067 78.9995 71.4958 78.9995C65.685 78.9995 60.9961 74.3106 60.9961 68.4998C60.9961 62.6889 65.685 58 71.4958 58C77.3067 58 81.9956 62.6889 81.9956 68.4998Z" stroke="#FB3B40" stroke-width="4.49802" stroke-linecap="round" stroke-linejoin="round"/>
<path d="M64.0742 75.9218L78.9179 61.0781" stroke="#FB3B40" stroke-width="4.49802" stroke-linecap="round" stroke-linejoin="round"/>
</svg>
