<svg xmlns="http://www.w3.org/2000/svg" fill="currentColor" viewBox="0 0 24 24">
    <path fill-rule="evenodd" d="M11.63 1.57a1 1 0 0 1 .74 0l7.5 3a1 1 0 0 1 .63.93v5a1 1 0 1 1-2 0V7.02l-1.5.64V10c0 1.19-.77 2.2-1.65 2.86A5.7 5.7 0 0 1 12 14a5.7 5.7 0 0 1-3.35-1.14C7.77 12.2 7 11.2 7 10V7.66L4.1 6.42a1 1 0 0 1 .03-1.85l7.5-3ZM9 8.44V10c0 .31.23.8.85 1.26.6.45 1.39.74 2.15.74s1.56-.3 2.15-.74c.62-.46.85-.95.85-1.26V8.44l-2.65 1a1 1 0 0 1-.7 0L9 8.44Zm6.63-2.37 1.26-.54L12 3.58 7.11 5.53l1.26.54L12 7.43l3.63-1.36ZM6.2 18.08c-1.6.71-2.2 1.54-2.2 2.2V21h16v-.72c0-.66-.6-1.48-2.2-2.2A14.89 14.89 0 0 0 12 17c-2.17 0-4.28.4-5.8 1.08ZM12 15c-2.38 0-4.78.44-6.61 1.25-1.76.78-3.39 2.1-3.39 4.03v.86C2 22.31 3.04 23 4 23h16c.96 0 2-.7 2-1.86v-.86c0-1.93-1.63-3.25-3.39-4.03A16.86 16.86 0 0 0 12 15Z"/>
</svg>