<svg width="24" height="24" viewBox="0 0 24 24" fill="none" xmlns="http://www.w3.org/2000/svg">
<path fill-rule="evenodd" clip-rule="evenodd" d="M5 13.75C4.30921 13.75 3.75 14.3092 3.75 15V19C3.75 19.6908 4.30921 20.25 5 20.25H9C9.69079 20.25 10.25 19.6908 10.25 19V15C10.25 14.3092 9.69079 13.75 9 13.75H5ZM2.25 15C2.25 13.4808 3.48079 12.25 5 12.25H9C10.5192 12.25 11.75 13.4808 11.75 15V19C11.75 20.5192 10.5192 21.75 9 21.75H5C3.48079 21.75 2.25 20.5192 2.25 19V15Z" fill="#231F28"/>
<path fill-rule="evenodd" clip-rule="evenodd" d="M6.25 10C6.25 8.48079 7.48079 7.25 9 7.25H14C15.5192 7.25 16.75 8.48079 16.75 10V15C16.75 16.5192 15.5192 17.75 14 17.75H11C10.5858 17.75 10.25 17.4142 10.25 17C10.25 16.5858 10.5858 16.25 11 16.25H14C14.6908 16.25 15.25 15.6908 15.25 15V10C15.25 9.30921 14.6908 8.75 14 8.75H9C8.30921 8.75 7.75 9.30921 7.75 10V13C7.75 13.4142 7.41421 13.75 7 13.75C6.58579 13.75 6.25 13.4142 6.25 13V10Z" fill="#231F28"/>
<path fill-rule="evenodd" clip-rule="evenodd" d="M9.25 5C9.25 3.48079 10.4808 2.25 12 2.25H19C20.5192 2.25 21.75 3.48079 21.75 5V12C21.75 13.5192 20.5192 14.75 19 14.75H16C15.5858 14.75 15.25 14.4142 15.25 14C15.25 13.5858 15.5858 13.25 16 13.25H19C19.6908 13.25 20.25 12.6908 20.25 12V5C20.25 4.30921 19.6908 3.75 19 3.75H12C11.3092 3.75 10.75 4.30921 10.75 5V8C10.75 8.41421 10.4142 8.75 10 8.75C9.58579 8.75 9.25 8.41421 9.25 8V5Z" fill="#231F28"/>
</svg>
