<svg width="24" height="24" viewBox="0 0 24 24" fill="none" xmlns="http://www.w3.org/2000/svg">
<g id="Group">
<g id="Group_2">
<path id="Path" d="M9.16454 10.1455C9.30786 10.2888 9.30786 10.5212 9.16454 10.6645C9.02122 10.8079 8.78884 10.8079 8.64552 10.6645C8.5022 10.5212 8.5022 10.2888 8.64552 10.1455C8.78884 10.0022 9.02122 10.0022 9.16454 10.1455" stroke="#3C4258" stroke-width="2" stroke-linecap="round" stroke-linejoin="round"/>
<path id="Path_2" fill-rule="evenodd" clip-rule="evenodd" d="M11.71 6.29L18.92 13.5C19.692 14.272 19.692 15.524 18.92 16.296L14.796 20.42C14.024 21.192 12.772 21.192 12 20.42L4.79 13.21C4.605 13.025 4.5 12.773 4.5 12.511V6.989C4.5 6.443 4.943 6 5.489 6H11.012C11.274 6 11.525 6.104 11.71 6.29V6.29Z" stroke="#3C4258" stroke-width="2" stroke-linecap="round" stroke-linejoin="round"/>
<path id="Path_3" d="M19.5 10L12.994 3.577C12.619 3.207 12.115 3 11.589 3H7.5" stroke="#3C4258" stroke-width="2" stroke-linecap="round" stroke-linejoin="round"/>
</g>
</g>
</svg>
