<svg width="51" height="44" viewBox="0 0 51 44" fill="none" xmlns="http://www.w3.org/2000/svg">
<path d="M24.0996 38.2008H11.4996C8.51727 38.2008 6.09961 35.7831 6.09961 32.8008V11.2008C6.09961 8.21844 8.51727 5.80078 11.4996 5.80078H41.1996C44.1819 5.80078 46.5996 8.21844 46.5996 11.2008V23.8008" stroke="#ED7700" stroke-width="2.7" stroke-linecap="round" stroke-linejoin="round"/>
<path fill-rule="evenodd" clip-rule="evenodd" d="M18.1866 27.2692C15.9825 27.2692 14.1735 29.0782 14.1735 31.2823C14.1735 32.0211 13.5746 32.62 12.8358 32.62C12.097 32.62 11.498 32.0211 11.498 31.2823C11.498 27.6006 14.5049 24.5938 18.1866 24.5938H23.5375C27.2193 24.5938 30.2261 27.6006 30.2261 31.2823C30.2261 32.0211 29.6272 32.62 28.8884 32.62C28.1496 32.62 27.5506 32.0211 27.5506 31.2823C27.5506 29.0782 25.7417 27.2692 23.5375 27.2692H18.1866Z" fill="#ED7700"/>
<path fill-rule="evenodd" clip-rule="evenodd" d="M23.2769 14.8556C21.8488 13.547 19.6437 13.5676 18.4971 14.8024C17.2812 16.1118 17.3204 18.1254 18.6308 19.5367C19.7817 20.7761 21.8669 20.7929 23.2951 19.4667C24.5723 18.2808 24.6296 16.2263 23.2769 14.8556ZM25.109 12.9058C22.7901 10.7588 18.8609 10.4788 16.5365 12.9819C14.2743 15.4181 14.5027 19.0229 16.6703 21.3572C18.9975 23.8634 22.7983 23.5791 25.1156 21.4272C27.5764 19.1422 27.5264 15.328 25.1576 12.9526C25.1497 12.9446 25.1417 12.9367 25.1336 12.9289C25.1255 12.9211 25.1173 12.9134 25.109 12.9058Z" fill="#ED7700"/>
<path fill-rule="evenodd" clip-rule="evenodd" d="M30.2266 24.5916C30.2266 23.8528 30.8255 23.2539 31.5643 23.2539H35.5774C38.5903 23.2539 40.9283 25.5919 40.9283 28.6048C40.9283 29.3436 40.3294 29.9425 39.5906 29.9425C38.8518 29.9425 38.2529 29.3436 38.2529 28.6048C38.2529 27.0695 37.1127 25.9293 35.5774 25.9293H31.5643C30.8255 25.9293 30.2266 25.3304 30.2266 24.5916Z" fill="#ED7700"/>
<path fill-rule="evenodd" clip-rule="evenodd" d="M35.0551 15.7997C34.1968 15.0525 32.8892 15.1253 32.24 15.7745C32.2234 15.7911 32.2064 15.8072 32.189 15.8229C31.5308 16.4153 31.4526 17.687 32.2884 18.6157C32.8808 19.2739 34.1526 19.3521 35.0812 18.5163C35.7922 17.8764 35.8732 16.6438 35.0551 15.7997ZM36.8614 13.8256C35.0514 12.2057 32.1253 12.1343 30.3733 13.8578C28.385 15.6757 28.7345 18.6662 30.2998 20.4055C32.1153 22.4227 35.1243 22.077 36.871 20.5049C38.8252 18.7462 38.7532 15.7236 36.9311 13.8918C36.9199 13.8804 36.9085 13.8692 36.8968 13.8581C36.8852 13.847 36.8734 13.8362 36.8614 13.8256Z" fill="#ED7700"/>
<path d="M42.0988 32.8008L49.2988 40.0008" stroke="#ED7700" stroke-width="2.7" stroke-linecap="round" stroke-linejoin="round"/>
<path d="M42.0988 40.0008L49.2988 32.8008" stroke="#ED7700" stroke-width="2.7" stroke-linecap="round" stroke-linejoin="round"/>
</svg>
