<svg width="24" height="24" viewBox="0 0 24 24" fill="none" xmlns="http://www.w3.org/2000/svg">
<path fill-rule="evenodd" clip-rule="evenodd" d="M6 16C4.35228 16 3 17.3523 3 19C3 19.5523 2.55228 20 2 20C1.44772 20 1 19.5523 1 19C1 16.2477 3.24772 14 6 14H10C12.7523 14 15 16.2477 15 19C15 19.5523 14.5523 20 14 20C13.4477 20 13 19.5523 13 19C13 17.3523 11.6477 16 10 16H6Z" fill="#1D202A"/>
<path fill-rule="evenodd" clip-rule="evenodd" d="M9.80585 6.72015C8.73829 5.74192 7.08985 5.75727 6.2327 6.68035C5.32379 7.65918 5.35307 9.16447 6.3327 10.2195C7.19303 11.146 8.75178 11.1585 9.81945 10.1671C10.7742 9.28057 10.817 7.74476 9.80585 6.72015ZM11.1754 5.26254C9.4419 3.65761 6.50466 3.44824 4.76711 5.31945C3.07602 7.14063 3.24674 9.83534 4.86711 11.5804C6.60678 13.4538 9.44803 13.2413 11.1804 11.6327C13.0199 9.92455 12.9825 7.07327 11.2117 5.29752C11.2058 5.29156 11.1999 5.28565 11.1938 5.27981C11.1877 5.27396 11.1816 5.26821 11.1754 5.26254Z" fill="#1D202A"/>
<path fill-rule="evenodd" clip-rule="evenodd" d="M15 14C15 13.4477 15.4477 13 16 13H19C21.2523 13 23 14.7477 23 17C23 17.5523 22.5523 18 22 18C21.4477 18 21 17.5523 21 17C21 15.8523 20.1477 15 19 15H16C15.4477 15 15 14.5523 15 14Z" fill="#1D202A"/>
<path fill-rule="evenodd" clip-rule="evenodd" d="M18.6119 7.42588C17.9703 6.8673 16.9928 6.92175 16.5075 7.40702C16.4951 7.41941 16.4824 7.43148 16.4694 7.4432C15.9773 7.88605 15.9189 8.83672 16.5437 9.53095C16.9865 10.023 17.9372 10.0814 18.6314 9.45662C19.1629 8.97832 19.2235 8.05685 18.6119 7.42588ZM19.9622 5.95018C18.6092 4.73921 16.4217 4.68582 15.112 5.97421C13.6257 7.33314 13.887 9.56873 15.0571 10.8689C16.4143 12.3768 18.6636 12.1184 19.9694 10.9432C21.4302 9.62848 21.3764 7.36899 20.0143 5.99963C20.006 5.99112 19.9974 5.98272 19.9887 5.97445C19.98 5.96618 19.9711 5.95808 19.9622 5.95018Z" fill="#1D202A"/>
</svg>
