<svg width="24" height="24" viewBox="0 0 24 24" fill="none" xmlns="http://www.w3.org/2000/svg">
<path d="M10.4139 15H3.58589L1.95489 19.505C1.92346 19.6002 1.87326 19.6882 1.80725 19.7637C1.74124 19.8392 1.66076 19.9006 1.57057 19.9445C1.48039 19.9883 1.38233 20.0136 1.28219 20.0189C1.18205 20.0242 1.08187 20.0093 0.987574 19.9752C0.893276 19.9411 0.806775 19.8885 0.733187 19.8203C0.6596 19.7522 0.60042 19.67 0.559147 19.5786C0.517875 19.4873 0.495348 19.3885 0.492899 19.2883C0.490451 19.188 0.50813 19.0883 0.544891 18.995L5.62489 4.965C5.72749 4.68272 5.91448 4.43885 6.16047 4.26652C6.40647 4.09419 6.69954 4.00175 6.99989 4.00175C7.30024 4.00175 7.59332 4.09419 7.83931 4.26652C8.0853 4.43885 8.27229 4.68272 8.37489 4.965L13.4549 18.995C13.4884 19.0877 13.5033 19.186 13.4988 19.2844C13.4943 19.3828 13.4704 19.4794 13.4286 19.5686C13.3867 19.6577 13.3277 19.7378 13.255 19.8042C13.1822 19.8706 13.097 19.922 13.0044 19.9555C12.9117 19.989 12.8134 20.0039 12.715 19.9994C12.6166 19.9949 12.52 19.971 12.4308 19.9292C12.3416 19.8873 12.2616 19.8284 12.1952 19.7556C12.1288 19.6828 12.0774 19.5977 12.0439 19.505L10.4139 15ZM14.9459 9.902C15.8589 8.219 17.6489 7.697 19.2299 7.697C20.2769 7.697 21.3139 8.009 22.1079 8.582C22.9089 9.159 23.4999 10.037 23.4999 11.13V19.25C23.4999 19.4489 23.4209 19.6397 23.2802 19.7803C23.1396 19.921 22.9488 20 22.7499 20C22.551 20 22.3602 19.921 22.2196 19.7803C22.0789 19.6397 21.9999 19.4489 21.9999 19.25V19.19L21.9559 19.215C21.0629 19.735 19.8599 20 18.5049 20C17.4539 20 16.4569 19.685 15.7099 19.052C14.9499 18.409 14.4929 17.474 14.4929 16.35C14.4929 15.431 14.8419 14.489 15.6609 13.787C16.4709 13.093 17.6609 12.7 19.2299 12.7H21.9999V11.13C21.9999 10.627 21.7369 10.163 21.2309 9.798C20.7179 9.428 19.9959 9.198 19.2299 9.198C17.9109 9.198 16.8009 9.628 16.2639 10.618C16.1678 10.7907 16.0075 10.9185 15.8177 10.9737C15.6279 11.0288 15.4241 11.0069 15.2504 10.9125C15.0768 10.8182 14.9474 10.6591 14.8903 10.4699C14.8333 10.2807 14.8533 10.0766 14.9459 9.902ZM9.86989 13.5L6.99989 5.572L4.12989 13.5H9.86989ZM21.9999 14.2H19.2299C17.8989 14.2 17.0959 14.533 16.6369 14.926C16.4306 15.1007 16.2658 15.3192 16.1545 15.5654C16.0431 15.8117 15.9879 16.0797 15.9929 16.35C15.9929 17.039 16.2599 17.553 16.6789 17.907C17.1089 18.272 17.7439 18.5 18.5049 18.5C19.6879 18.5 20.6069 18.265 21.2019 17.919C21.7839 17.579 21.9999 17.179 21.9999 16.785V14.2Z" fill="currentColor"/>
</svg>
