<svg xmlns="http://www.w3.org/2000/svg" width="24" height="24" viewBox="0 0 24 24" fill="currentColor">
    <path fill-rule="evenodd" clip-rule="evenodd" d="M10.9956 6C10.9956 4.89543 11.891 4 12.9956 4C14.1002 4 14.9956 4.89543 14.9956 6C14.9956 7.10457 14.1002 8 12.9956 8C11.891 8 10.9956 7.10457 10.9956 6ZM12.9956 10C11.891 10 10.9956 10.8954 10.9956 12C10.9956 13.1046 11.891 14 12.9956 14C14.1002 14 14.9956 13.1046 14.9956 12C14.9956 10.8954 14.1002 10 12.9956 10ZM10.9956 18C10.9956 16.8954 11.891 16 12.9956 16C14.1002 16 14.9956 16.8954 14.9956 18C14.9956 19.1046 14.1002 20 12.9956 20C11.891 20 10.9956 19.1046 10.9956 18Z"/>
</svg>
