<svg xmlns="http://www.w3.org/2000/svg" width="20" height="17"><path data-name="Icon color" d="M19.97 2.46a7.99 7.99 0 01-1.85 1.78v.55A12.18 12.18 0 015.77 17a12.22 12.22 0 01-5.44-1.26.25.25 0 01-.15-.23v-.11a.26.26 0 01.26-.26 8.84 8.84 0 005.11-1.84 4.36 4.36 0 01-3.88-2.56.26.26 0 01.26-.36 4 4 0 001.52-.14A4.36 4.36 0 010 6.44a.26.26 0 01.36-.26 4 4 0 001.58.34A4.28 4.28 0 01.23 1.59a.54.54 0 01.9-.19 12.34 12.34 0 008.4 3.88 4 4 0 01-.11-1 4.35 4.35 0 017.5-2.94A8.67 8.67 0 0019.3.52a.17.17 0 01.18 0 .17.17 0 010 .18 4.37 4.37 0 01-1.76 2 8.56 8.56 0 002-.48.16.16 0 01.18 0 .17.17 0 01.07.25z" /></svg>