<svg width="24" height="24" viewBox="0 0 24 24" fill="none" xmlns="http://www.w3.org/2000/svg">
<path d="M11.9998 3.31777V10.9995M11.9998 3.31777L8.99875 6.31934M11.9998 3.31777L15.001 6.31934M2.99609 15.0015H7.37992C7.75852 15.0015 8.10468 15.2152 8.27429 15.5537L8.72148 16.4491C8.89097 16.7883 9.23767 17.0025 9.61685 17.0023H14.3818C14.761 17.0025 15.1077 16.7883 15.2772 16.4491L15.7244 15.5547C15.8939 15.2155 16.2406 15.0013 16.6198 15.0015H21.0036M16 2.99658H18.0023C19.6599 2.99658 21.0036 4.34029 21.0036 5.99783V18.0028C21.0036 19.6604 19.6599 21.0041 18.0023 21.0041H5.99734C4.3398 21.0041 2.99609 19.6604 2.99609 18.0028V5.99783C2.99609 4.34029 4.3398 2.99658 5.99734 2.99658H8" stroke="currentColor" stroke-width="2" stroke-linecap="round" stroke-linejoin="round"/>
</svg>
