<svg xmlns="http://www.w3.org/2000/svg" fill="currentColor" width="24" height="24" viewBox="0 0 24 24">
    <path fill-rule="evenodd" d="M20 3H4C2.9 3 2 4 2 5.25v13.5C2 19.99 2.9 21 4 21h16c1.1 0 2-1 2-2.25V5.25C22 4.01 21.1 3 20 3zm-9 5.5a1.5 1.5 0 10-3 0 1.5 1.5 0 003 0zm8 9a.5.5 0 01-.5.5h-13a.5.5 0 01-.5-.5v-.34c0-.11.04-.22.11-.3L8 13.19c.09-.1.21-.18.35-.19.15 0 .3.06.39.18l1.45 1.75c.1.11.23.18.38.18.16 0 .3-.08.4-.2l2.88-3.72a.51.51 0 01.8 0l4.25 5.67c.06.09.1.2.1.3v.34zm0-9.75v.5c0 .19-.15.34-.33.34h-1.08v1.08c0 .18-.15.33-.34.33h-.5a.33.33 0 01-.34-.33V8.59h-1.08a.33.33 0 01-.33-.34v-.5c0-.19.15-.34.33-.34h1.08V6.33c0-.18.15-.33.34-.33h.5c.19 0 .34.15.34.33v1.08h1.08c.18 0 .33.15.33.34z"/>
</svg>
