<svg xmlns="http://www.w3.org/2000/svg" fill="currentColor" viewBox="0 0 24 24">
  <path fill-rule="evenodd" d="M7.726 16.186C6.61 16.928 6 17.898 6 18.984V20h12v-1.016c0-1.086-.61-2.056-1.726-2.798-1.122-.746-2.673-1.194-4.274-1.194s-3.153.448-4.274 1.194ZM20 18.992v-.008c0-1.94-1.119-3.465-2.618-4.463-1.492-.993-3.441-1.529-5.382-1.529-1.94 0-3.89.536-5.382 1.529C5.118 15.518 4 17.044 4 18.984V20a2 2 0 0 0 2 2h12a2 2 0 0 0 2-2v-1.008ZM13.762 5.73a2.492 2.492 0 1 0-3.524 3.524 2.492 2.492 0 0 0 3.524-3.524Zm1.414-1.414a4.492 4.492 0 1 0-6.353 6.352 4.492 4.492 0 0 0 6.353-6.352Z"/>
</svg>