<svg width="34" height="27" viewBox="0 0 34 27" fill="none" xmlns="http://www.w3.org/2000/svg">
    <path fill-rule="evenodd" clip-rule="evenodd" d="M30.3334 0.166748H3.66671C1.82576 0.166748 0.333374 1.65913 0.333374 3.50008V23.5001C0.333374 25.341 1.82576 26.8334 3.66671 26.8334H30.3334C32.1743 26.8334 33.6667 25.341 33.6667 23.5001V3.50008C33.6667 1.65913 32.1743 0.166748 30.3334 0.166748ZM30.3334 23.5001H3.66671V3.50008H30.3334V23.5001ZM22.1 14.5334L15.6167 18.8667C15.2339 19.1255 14.7397 19.152 14.3314 18.9356C13.9232 18.7193 13.6675 18.2954 13.6667 17.8334V9.16675C13.6675 8.70473 13.9232 8.28086 14.3314 8.06452C14.7397 7.84819 15.2339 7.87468 15.6167 8.13341L22.1 12.4667C22.4494 12.6944 22.6601 13.0831 22.6601 13.5001C22.6601 13.917 22.4494 14.3058 22.1 14.5334Z" fill="#06508F"/>
</svg>
