<svg width="24" height="24" viewBox="0 0 24 24" fill="none" xmlns="http://www.w3.org/2000/svg">
<path fill-rule="evenodd" clip-rule="evenodd" d="M18.6314 7.026L4.58261 10.7723L4.06016 8.68251C3.79523 7.62275 4.42963 6.54647 5.48512 6.265L17.6012 3.034C17.86 2.96496 18.1358 3.0027 18.3666 3.13875C18.5974 3.27479 18.764 3.49777 18.829 3.7577L19.3438 5.81717C19.4763 6.34707 19.1591 6.88527 18.6314 7.026Z" stroke="currentColor" stroke-width="1.5" stroke-linecap="round" stroke-linejoin="round"/>
<path fill-rule="evenodd" clip-rule="evenodd" d="M4.58252 10.7723H18.9999C19.5522 10.7723 19.9999 11.22 19.9999 11.7723V19C19.9999 20.1046 19.1045 21 17.9999 21H6.58252C5.47795 21 4.58252 20.1046 4.58252 19V10.7723Z" stroke="currentColor" stroke-width="1.5" stroke-linecap="round" stroke-linejoin="round"/>
<path d="M7.58252 9.96846V5.6909" stroke="currentColor" stroke-width="1.5" stroke-linecap="round" stroke-linejoin="round"/>
<path d="M11.5825 8.89667V4.62872" stroke="currentColor" stroke-width="1.5" stroke-linecap="round" stroke-linejoin="round"/>
<path d="M15.5825 7.82487V3.55692" stroke="currentColor" stroke-width="1.5" stroke-linecap="round" stroke-linejoin="round"/>
</svg>
