<svg width="33" height="32" viewBox="0 0 33 32" fill="none" xmlns="http://www.w3.org/2000/svg">
<path fill-rule="evenodd" clip-rule="evenodd" d="M16.292 6.66677C22.1509 6.60656 27.4444 10.1554 29.6172 15.6001C29.6389 15.7326 29.6389 15.8676 29.6172 16.0001C29.6216 16.1507 29.5943 16.3006 29.5373 16.4401C27.3624 21.8417 22.1119 25.3671 16.292 25.3334C10.4655 25.3627 5.21318 21.8256 3.04676 16.4134C2.99327 16.2822 2.9661 16.1418 2.96681 16.0001C2.96851 15.85 2.99554 15.7012 3.04676 15.5601C5.22165 10.1585 10.4721 6.63311 16.292 6.66677ZM5.72513 16.0001C7.67787 20.0665 11.7833 22.6566 16.292 22.6668C20.8007 22.6566 24.9062 20.0665 26.8589 16.0001C24.9129 11.9281 20.8029 9.33609 16.292 9.33609C11.7811 9.33609 7.67112 11.9281 5.72513 16.0001ZM16.292 13.3334C17.7639 13.3334 18.9571 14.5273 18.9571 16.0001C18.9571 17.4729 17.7639 18.6668 16.292 18.6668C14.8202 18.6668 13.627 17.4729 13.627 16.0001C13.627 14.5273 14.8202 13.3334 16.292 13.3334ZM10.9619 16.0001C10.9619 13.0546 13.3483 10.6668 16.292 10.6668C19.2357 10.6668 21.6221 13.0546 21.6221 16.0001C21.6221 18.9456 19.2357 21.3334 16.292 21.3334C13.3483 21.3334 10.9619 18.9456 10.9619 16.0001Z" fill="#3C4258"/>
</svg>
