<svg width="24" height="24" viewBox="0 0 24 24" fill="currentColor" xmlns="http://www.w3.org/2000/svg">
<path fill-rule="evenodd" clip-rule="evenodd" d="M12.8141 2.37L22.9065 19.63C23.0364 19.8667 23.0364 20.1533 22.9065 20.39L22.7665 20.62C22.6368 20.8573 22.3867 21.0035 22.1163 21H1.89151C1.62113 21.0035 1.37098 20.8573 1.24136 20.62L1.10133 20.39C0.971433 20.1533 0.971433 19.8667 1.10133 19.63L11.2137 2.37C11.3505 2.14121 11.5972 2.00081 11.8639 2H12.1639C12.4306 2.00081 12.6773 2.14121 12.8141 2.37ZM12.0039 5L3.79196 19H20.2058L12.0039 5ZM12.5043 15H11.504C11.2278 15 11.0039 15.2239 11.0039 15.5V16.5C11.0039 16.7761 11.2278 17 11.504 17H12.5043C12.7805 17 13.0044 16.7761 13.0044 16.5V15.5C13.0044 15.2239 12.7805 15 12.5043 15ZM11.224 12.78L10.8239 9.56001C10.8067 9.41736 10.8517 9.27418 10.9474 9.16699C11.0431 9.05981 11.1803 8.99897 11.324 9.00001H12.6844C12.8281 8.99897 12.9653 9.05981 13.061 9.16699C13.1568 9.27418 13.2017 9.41736 13.1845 9.56001L12.7844 12.78C12.7691 12.9063 12.6615 13.0009 12.5343 13H11.4741C11.3469 13.0009 11.2393 12.9063 11.224 12.78Z"/>
</svg>
