<svg width="24" height="24" viewBox="0 0 24 24" fill="currentColor" xmlns="http://www.w3.org/2000/svg">
<path fill-rule="evenodd" clip-rule="evenodd" d="M12.7265 21.974C17.9102 21.6018 22 17.2785 22 12C22 6.72141 17.9102 2.3981 12.7265 2.02594C12.6135 1.99966 12.4959 1.99293 12.3794 2.00701C12.2535 2.00232 12.127 1.99995 12 1.99995C11.873 1.99995 11.7465 2.00232 11.6206 2.00701C11.5041 1.99293 11.3865 1.99966 11.2735 2.02594C6.08981 2.3981 2 6.72141 2 12C2 17.2785 6.08981 21.6018 11.2735 21.974C11.3865 22.0002 11.5041 22.007 11.6206 21.9929C11.7465 21.9976 11.873 22 12 22C12.127 22 12.2535 21.9976 12.3794 21.9929C12.4959 22.007 12.6135 22.0002 12.7265 21.974ZM5.07026 7.99995C6.06706 6.27678 7.68814 4.95992 9.62424 4.35862C9.07272 5.53429 8.65523 6.75544 8.37178 7.99995H5.07026ZM4.25203 9.99995H8.0335C7.88511 11.329 7.88511 12.6709 8.0335 14H4.25203C4.08751 13.3607 4 12.6906 4 12C4 11.3094 4.08751 10.6392 4.25203 9.99995ZM15.6282 7.99995C15.3448 6.75544 14.9273 5.53429 14.3758 4.35863C16.3119 4.95992 17.9329 6.27678 18.9297 7.99995H15.6282ZM15.9665 9.99995C16.1149 11.329 16.1149 12.6709 15.9665 14H19.748C19.9125 13.3607 20 12.6906 20 12C20 11.3094 19.9125 10.6392 19.748 9.99995H15.9665ZM13.9525 14H10.0475C9.88043 12.6721 9.88043 11.3278 10.0475 9.99995H13.9525C14.1196 11.3278 14.1196 12.6721 13.9525 14ZM13.5702 16C13.224 17.3417 12.7006 18.6486 12 19.885C11.2994 18.6486 10.776 17.3417 10.4298 16H13.5702ZM14.3758 19.6413C14.9273 18.4656 15.3448 17.2445 15.6282 16H18.9297C17.9329 17.7231 16.3119 19.04 14.3758 19.6413ZM12 4.11488C11.2994 5.35134 10.776 6.65824 10.4298 7.99995H13.5702C13.224 6.65824 12.7006 5.35134 12 4.11488ZM5.07026 16H8.37178C8.65523 17.2445 9.07272 18.4656 9.62424 19.6413C7.68814 19.04 6.06706 17.7231 5.07026 16Z"/>
</svg>
