<?xml version="1.0" encoding="iso-8859-1"?>
<!-- Generator: Adobe Illustrator 19.0.0, SVG Export Plug-In . SVG Version: 6.00 Build 0)  -->
<svg version="1.1" id="Capa_1" xmlns="http://www.w3.org/2000/svg" xmlns:xlink="http://www.w3.org/1999/xlink" x="0px" y="0px"
	 viewBox="0 0 511.999 511.999" style="enable-background:new 0 0 511.999 511.999;" xml:space="preserve">
<g>
	<g>
		<path d="M361.042,205.814c-2.025-1.428-4.621-1.782-6.957-0.949l-35.541,12.693v-12.952c0-4.212-3.413-7.625-7.625-7.625h-54.919
			c-4.212,0-7.625,3.413-7.625,7.625c0,4.212,3.413,7.625,7.625,7.625h47.293v16.147c0,2.479,1.206,4.805,3.233,6.233
			c2.026,1.427,4.62,1.782,6.957,0.949l35.541-12.693v61.66l-35.541-12.693c-2.337-0.835-4.931-0.48-6.957,0.949
			c-2.027,1.428-3.233,3.753-3.233,6.233v16.147H181.104v-82.932h20.334c4.212,0,7.625-3.413,7.625-7.625
			c0-4.212-3.413-7.625-7.625-7.625h-27.959c-4.212,0-7.625,3.413-7.625,7.625v98.182c0,4.212,3.414,7.625,7.625,7.625h137.439
			c4.212,0,7.625-3.413,7.625-7.625v-12.952l35.541,12.693c2.336,0.834,4.932,0.481,6.957-0.949
			c2.027-1.428,3.233-3.753,3.233-6.233v-83.302C364.275,209.569,363.069,207.242,361.042,205.814z"/>
	</g>
</g>
<g>
	<g>
		<path d="M444.252,108.46c-0.003-0.122-0.009-0.243-0.018-0.364c-0.019-0.253-0.05-0.504-0.094-0.752
			c-0.018-0.105-0.038-0.208-0.061-0.313c-0.056-0.256-0.126-0.508-0.208-0.756c-0.038-0.113-0.077-0.224-0.12-0.336
			c-0.088-0.233-0.189-0.46-0.3-0.682c-0.047-0.095-0.094-0.187-0.144-0.28c-0.132-0.239-0.279-0.47-0.437-0.694
			c-0.067-0.096-0.136-0.188-0.207-0.281c-0.168-0.217-0.346-0.425-0.537-0.624c-0.033-0.035-0.059-0.073-0.093-0.107L340.997,2.233
			c-0.007-0.007-0.015-0.012-0.022-0.019c-0.233-0.231-0.483-0.44-0.74-0.638c-0.072-0.055-0.143-0.109-0.218-0.161
			c-0.265-0.189-0.539-0.366-0.825-0.519c-0.027-0.014-0.056-0.025-0.083-0.04c-0.265-0.137-0.54-0.255-0.818-0.36
			c-0.087-0.033-0.174-0.064-0.262-0.094c-0.296-0.1-0.595-0.186-0.902-0.249c-0.034-0.007-0.068-0.011-0.103-0.018
			c-0.292-0.055-0.589-0.089-0.888-0.111c-0.099-0.007-0.197-0.011-0.297-0.014C335.762,0.009,335.683,0,335.604,0H227.195
			c-4.212,0-7.625,3.413-7.625,7.625s3.413,7.625,7.625,7.625h100.784v93.412c0,4.212,3.413,7.625,7.625,7.625h93.407v380.462
			H82.989V15.251h34.888c4.212,0,7.625-3.413,7.625-7.625c0-4.212-3.412-7.626-7.625-7.626H75.364c-4.212,0-7.625,3.413-7.625,7.625
			v496.749c0,4.212,3.413,7.625,7.625,7.625h361.272c4.212,0,7.625-3.413,7.625-7.625V108.663
			C444.26,108.594,444.253,108.528,444.252,108.46z M343.229,101.037V26.035l74.998,75.002H343.229z"/>
	</g>
</g>
<g>
	<g>
		<path d="M109.934,50.518c-4.212,0-7.625,3.414-7.625,7.625v88.99c0,4.212,3.413,7.625,7.625,7.625s7.625-3.413,7.625-7.625v-88.99
			C117.559,53.931,114.147,50.518,109.934,50.518z"/>
	</g>
</g>
<g>
</g>
<g>
</g>
<g>
</g>
<g>
</g>
<g>
</g>
<g>
</g>
<g>
</g>
<g>
</g>
<g>
</g>
<g>
</g>
<g>
</g>
<g>
</g>
<g>
</g>
<g>
</g>
<g>
</g>
</svg>
