<?xml version="1.0" standalone="no"?>
<!DOCTYPE svg PUBLIC "-//W3C//DTD SVG 20010904//EN"
 "http://www.w3.org/TR/2001/REC-SVG-20010904/DTD/svg10.dtd">
<svg version="1.0" xmlns="http://www.w3.org/2000/svg"
 width="700.000000pt" height="700.000000pt" viewBox="0 0 700.000000 700.000000"
 preserveAspectRatio="xMidYMid meet">
<metadata>
Created by potrace 1.14, written by Peter Selinger 2001-2017
</metadata>
<g transform="translate(0.000000,700.000000) scale(0.100000,-0.100000)"
fill="#000000" stroke="none">
<path d="M899 6788 c0 -2 -3 -946 -5 -2098 l-5 -2095 308 2 c169 1 323 2 340
2 l33 1 2 1762 3 1762 650 0 c570 -1 803 -5 871 -18 11 -2 44 -7 74 -11 30 -4
64 -9 75 -11 289 -53 560 -148 801 -281 142 -78 131 -71 244 -148 331 -225
619 -543 820 -905 56 -100 140 -283 140 -303 0 -7 4 -17 9 -23 14 -14 95 -273
108 -344 2 -14 8 -44 14 -68 34 -152 47 -316 44 -542 -2 -118 -6 -231 -9 -250
-11 -62 -16 -94 -22 -140 -16 -120 -101 -425 -151 -540 -158 -361 -327 -613
-583 -870 -342 -342 -783 -591 -1245 -701 -127 -30 -199 -43 -365 -65 -25 -3
-517 -8 -1093 -9 -577 -2 -1051 -6 -1054 -9 -4 -4 -7 -554 -4 -659 1 -17 46
-18 1079 -14 592 3 1093 7 1112 9 19 3 60 9 90 12 30 4 73 10 95 12 87 12 297
57 415 90 323 91 623 227 910 412 79 51 269 187 280 201 3 4 30 26 60 50 30
25 127 117 215 205 444 447 740 982 874 1581 27 116 49 237 57 303 1 13 6 55
11 95 16 142 8 646 -12 757 -3 14 -7 41 -10 60 -6 36 -35 193 -40 220 -55 255
-186 599 -321 843 -164 297 -330 515 -578 762 -296 294 -647 531 -1027 693
-177 76 -453 165 -578 187 -19 3 -37 8 -41 10 -10 6 -209 39 -300 50 -25 3
-65 8 -90 12 -44 6 -2199 17 -2201 11z"/>
<path d="M2038 5730 c-11 -4 -13 -265 -13 -1568 l0 -1562 63 0 c81 -1 542 -1
587 0 l34 0 0 1113 c1 611 1 1165 1 1229 l0 118 113 -4 c184 -7 302 -28 467
-83 393 -131 720 -415 903 -783 61 -121 116 -277 133 -375 2 -14 6 -37 9 -52
18 -91 24 -294 12 -419 -21 -225 -115 -482 -248 -682 -262 -393 -686 -646
-1164 -697 -51 -5 -475 -6 -1484 -2 l-555 2 -1 -325 c0 -179 1 -332 3 -341 3
-15 95 -16 1055 -15 579 0 1057 4 1062 7 6 4 41 10 80 14 38 4 73 9 76 11 4 2
24 6 45 10 210 31 509 145 729 277 526 316 901 824 1035 1402 44 191 58 329
54 545 -2 102 -5 194 -7 205 -5 22 -14 77 -23 140 -18 129 -91 366 -157 510
-69 152 -188 350 -274 456 -243 300 -524 521 -852 669 -163 73 -346 132 -496
159 -33 6 -69 13 -80 15 -11 2 -42 6 -70 10 -27 3 -72 9 -100 12 -62 8 -918
12 -937 4z"/>
</g>
</svg>
