<svg xmlns="http://www.w3.org/2000/svg" width="100.92" height="53.274" viewBox="0 0 100.92 53.274">
  <g id="Paper_Planes" data-name="Paper Planes" transform="translate(0 8.313)">
    <path id="Path_879" data-name="Path 879" d="M0,55.036c.628-.527,1.3-1.054,1.964-1.575l.295.364C1.594,54.37.941,54.879.295,55.4Zm4.456-3.508c.665-.5,1.337-1.01,2.015-1.513l.282.383c-.684.5-1.349,1-2.015,1.506ZM9.025,48.17c.678-.477,1.368-.96,2.071-1.437l.264.389c-.7.477-1.387.954-2.065,1.437Zm4.682-3.213,2.115-1.368.251.4-2.109,1.368ZM18.5,41.919c.709-.433,1.431-.866,2.159-1.3l.238.408c-.728.427-1.443.86-2.153,1.293Zm4.883-2.881c.722-.414,1.456-.822,2.2-1.255l.226.408c-.741.408-1.469.822-2.19,1.255Zm4.971-2.73c.734-.389,1.481-.772,2.234-1.161l.213.42c-.753.383-1.494.772-2.228,1.161Zm5.021-2.573c.747-.37,1.5-.734,2.266-1.1l.2.42-2.259,1.1ZM38.491,31.3l2.3-1.023.188.427-2.291,1.036Zm5.184-2.291c.766-.333,1.544-.628,2.322-.979l.182.433-2.322.973Z" transform="translate(0 -10.438)" fill="#454c66"/>
    <path id="Path_880" data-name="Path 880" d="M78.406,26.216l1.167-.477L79.4,25.3l-1.174.464Z" transform="translate(-29.133 -9.422)" fill="#454c66"/>
    <path id="Path_881" data-name="Path 881" d="M74.906,12,69.53,26.766l11.28-8.808L123.947,2.31Z" transform="translate(-23.027 -8.745)" fill="#005994"/>
    <path id="Path_882" data-name="Path 882" d="M74.906,12,69.53,26.766l11.28-8.808L123.947,2.31Z" transform="translate(-23.027 -8.745)" fill="#003756" opacity="0.51"/>
    <path id="Path_883" data-name="Path 883" d="M82.258,24.982,69.53,30.358,80.81,21.55Z" transform="translate(-23.027 -12.337)" fill="#454c66"/>
    <path id="Path_884" data-name="Path 884" d="M83.4,17.958,126.536,2.31,91.159,36.842Z" transform="translate(-25.616 -8.745)" fill="#005994"/>
    <path id="Path_885" data-name="Path 885" d="M72.023,11.573,54.09,0l66.974,1.879Z" transform="translate(-20.144 -8.313)" fill="#005994"/>
  </g>
</svg>
