<svg xmlns="http://www.w3.org/2000/svg" width="18" height="18" viewBox="0 0 18 18">
  <g id="tabs" transform="translate(-3 -2)">
    <path id="Icon_color" data-name="Icon color" d="M17.2,16H2.8A2.065,2.065,0,0,1,1,13.75V.25A2.065,2.065,0,0,1,2.8-2H17.2A2.065,2.065,0,0,1,19,.25v13.5A2.065,2.065,0,0,1,17.2,16ZM2.8.25h0v13.5H17.2V.25c-.005,0-.155,0-2.048,0L9.8.248H9.674l-5.629,0H2.8ZM5.333,12a1.253,1.253,0,1,1,0-2.5,1.253,1.253,0,1,1,0,2.5Zm10.333-.625H8.333A.324.324,0,0,1,8,11.063v-.625a.324.324,0,0,1,.333-.312h7.333a.324.324,0,0,1,.334.312v.625A.324.324,0,0,1,15.666,11.375ZM5.333,8.25A1.3,1.3,0,0,1,4,7,1.3,1.3,0,0,1,5.333,5.75,1.3,1.3,0,0,1,6.666,7,1.3,1.3,0,0,1,5.333,8.25Zm10.333-.626H8.333A.324.324,0,0,1,8,7.313V6.687a.323.323,0,0,1,.333-.311h7.333A.324.324,0,0,1,16,6.687v.626A.324.324,0,0,1,15.666,7.625ZM5.333,4.5A1.3,1.3,0,0,1,4,3.25,1.3,1.3,0,0,1,5.333,2a1.373,1.373,0,0,1,.943.366,1.208,1.208,0,0,1,.39.884A1.3,1.3,0,0,1,5.333,4.5Zm10.333-.626H8.333A.324.324,0,0,1,8,3.562V2.938a.324.324,0,0,1,.333-.312h7.333A.324.324,0,0,1,16,2.938v.625A.324.324,0,0,1,15.666,3.875Z" transform="translate(2 4)"/>
  </g>
</svg>
