<svg xmlns="http://www.w3.org/2000/svg" viewBox="-5 -5 32 32">
  <path d="M20.13 2.88h-4.8A2.88 2.88 0 0012.46 0h-1.92a2.88 2.88 0 00-2.87 2.88h-4.8A2.88 2.88 0 000 5.75v10.54a2.88 2.88 0 002.88 2.88h17.25A2.88 2.88 0 0023 16.29V5.75a2.88 2.88 0 00-2.88-2.88zm-9.59-.96h1.92a.96.96 0 01.96.96H9.58a.96.96 0 01.96-.96zM1.92 5.75a.96.96 0 01.95-.96h17.25a.96.96 0 01.96.96v2.68l-6.72 2.45a.96.96 0 00-.94-.82H9.58a.96.96 0 00-.94.82L1.92 8.43zm10.54 6.23v1.92h-1.92v-1.92zm7.67 5.27H2.88a.96.96 0 01-.96-.96v-5.82l6.7 2.44v1.94a.96.96 0 00.96.96h3.84a.96.96 0 00.95-.96v-1.94l6.71-2.44v5.82a.96.96 0 01-.95.96z"/></svg>
