<svg xmlns="http://www.w3.org/2000/svg" fill="currentColor" width="24px" height="24px" viewBox="0 0 24 24">
  <path d="M12 20.92v.58a.5.5 0 01-.5.5H9.57a1 1 0 01-.86-.49l-2.28-3.8a2.72 2.72 0 01-.36-1h2.44a4.14 4.14 0 011.57.3l.42 2.75a1 1 0 00.75.57l.33.06a.5.5 0 01.42.53zM22 11a4 4 0 01-.8 2.4.51.51 0 01-.75 0l-.72-.72a.5.5 0 01-.06-.63 2 2 0 000-2.2.5.5 0 01.06-.63l.72-.72a.51.51 0 01.39-.15.54.54 0 01.36.2A4 4 0 0122 11zm-4-8v16a1 1 0 01-1 1h-.59a1 1 0 01-.7-.29l-3-2.95A6 6 0 008.51 15H5a3 3 0 01-3-3v-2a3 3 0 013-3h3.51a6 6 0 004.25-1.76l3-2.95a1 1 0 01.7-.29H17a1 1 0 011 1zm-2 1.83l-1.83 1.83A7.92 7.92 0 0110 8.86v4.28a7.92 7.92 0 014.17 2.2L16 17.17z"/>
</svg>
