<svg id="Layer_1" data-name="Layer 1" xmlns="http://www.w3.org/2000/svg" viewBox="0 0 209.18 149.27"><defs><style>.cls-1{fill:#34abcd;}</style></defs><path class="cls-1" d="M410.92-895.26h0c-8.14,9.28,0,13.69,0,13.69a7.7,7.7,0,0,0,.92.39A38,38,0,0,1,410.92-895.26Z" transform="translate(-350 983.53)"/><path class="cls-1" d="M464-883.23c-6.37,4.32-13.81,18.75-13.81,18.75l-3.85,0a81.88,81.88,0,0,0,5.06-13.82c-1,.33-1.53.49-1.53.49a73.81,73.81,0,0,1-22.37,4.07C434.78-862.93,448-861,448-861c18.63,2.5,32.76-7.69,40.35-15.08C472.69-884.6,464-883.23,464-883.23Z" transform="translate(-350 983.53)"/><path class="cls-1" d="M524.35-923.3s12.26-30.52-15.83-51.44c0,0-45-29.59-70.15,19.83,0,0-18-18-40.19-4-19,11.93-15.83,28-14.12,36.1,0,0-35.83,10.52-34,48.65,1.37,28.41,28.8,37,39.48,39.21a34.65,34.65,0,0,0,7.11.72H514.27a34.42,34.42,0,0,0,6.87-.68c10.75-2.17,38.55-10.72,38-40.88C558.52-913.17,524.35-923.3,524.35-923.3Zm-77.23,68.43c-23.81-.27-32.26-18.13-32.26-18.13-.48-1-.91-1.89-1.3-2.83-6.54-2.43-10.4-7-9.5-13.88s8.68-13.69,8.68-13.69h0A62.37,62.37,0,0,1,427.45-927s8.55-9.12,17.86-13.79l16.2,2.51c-36.74,15-38.62,45.9-38.62,45.9a33.14,33.14,0,0,0,1.43,12c2.74-.2,4.74-.5,4.74-.5a94.46,94.46,0,0,0,23.52-6.73c-.22-6.09-3-7.61-3-7.61s-3.34-3.8-17-6l1.31-1.82a39.44,39.44,0,0,0,14.43,0c8.34-1.6,16-7.31,24.45-19l4.11-.18c-8.32,11-8.9,19.37-7.5,24.86a61,61,0,0,0,12.21-11.59c14.95-20.9-5.82-17.72-5.82-17.72L482-934c31.75,6.88,2.61,35.56,2.61,35.56a69.56,69.56,0,0,1-10.86,9c.55.58,6.05,6.24,16.6,11.32a47.71,47.71,0,0,0,4.25-5.09l4.18.75C474-852.63,447.12-854.87,447.12-854.87Zm11.28-59.55a6.71,6.71,0,0,1-6.54,6.39,6.68,6.68,0,0,1-6.82-7,6.71,6.71,0,0,1,6.54-6.39A6.69,6.69,0,0,1,458.4-914.42Z" transform="translate(-350 983.53)"/></svg>