<svg width="59" height="24" viewBox="0 0 59 24" fill="none" xmlns="http://www.w3.org/2000/svg">
<g clip-path="url(#clip0_13833_245987)">
<path d="M6.19335 10.2096C5.91302 11.3396 4.93668 12.2196 3.67035 12.2196C2.11402 12.2196 1.04102 10.9696 1.04102 9.51957C1.04102 8.01957 2.16235 6.81957 3.63168 6.81957C4.86902 6.81957 5.91302 7.62957 6.20302 8.86957H5.00435C4.80135 8.32957 4.32768 7.94957 3.68002 7.94957C3.25468 7.93957 2.91635 8.09957 2.63602 8.38957C2.38468 8.66957 2.23002 9.07957 2.23002 9.51957C2.23002 10.4396 2.84868 11.0896 3.68002 11.0896C4.41468 11.0896 4.83035 10.6396 5.00435 10.2196H6.19335V10.2096ZM7.97202 9.51957C7.97202 10.4096 8.62935 11.0696 9.43168 11.0696C10.234 11.0696 10.8817 10.4096 10.8817 9.50957C10.8817 8.60957 10.234 7.94957 9.43168 7.94957C8.62935 7.95957 7.97202 8.60957 7.97202 9.51957ZM6.80235 9.49957C6.80235 8.19957 7.72068 6.81957 9.43168 6.81957C11.1427 6.81957 12.061 8.19957 12.061 9.50957C12.061 10.8296 11.1427 12.2096 9.43168 12.2096C7.72068 12.2096 6.80235 10.8296 6.80235 9.49957ZM12.873 6.96957H13.9653V7.60957C14.0717 7.37957 14.5453 6.80957 15.396 6.80957C15.802 6.80957 16.2467 6.92957 16.6044 7.32957C16.7107 7.44957 16.8364 7.65957 16.904 7.78957C16.991 7.62957 17.0973 7.46957 17.2617 7.30957C17.5613 7.00957 17.9963 6.80957 18.5184 6.80957C18.934 6.80957 19.4464 6.91957 19.8234 7.31957C20.268 7.79957 20.3647 8.21957 20.3647 9.26957V12.0596H19.195V9.31957C19.195 8.99957 19.166 8.63957 19.0017 8.37957C18.876 8.12957 18.644 7.95957 18.2283 7.95957C17.8127 7.95957 17.5324 8.14957 17.3777 8.41957C17.223 8.69957 17.2037 8.96957 17.2037 9.26957V12.0596H16.034V9.26957C16.034 8.96957 16.005 8.68957 15.8793 8.42957C15.7343 8.15957 15.4927 7.96957 15.077 7.95957C14.6517 7.95957 14.381 8.16957 14.236 8.42957C14.091 8.69957 14.0427 9.00957 14.0427 9.30957V12.0596H12.873V6.96957ZM21.3217 6.96957H22.4237V7.60957C22.53 7.37957 23.0037 6.80957 23.8543 6.80957C24.2603 6.80957 24.705 6.92957 25.0627 7.32957C25.169 7.44957 25.2947 7.65957 25.3624 7.78957C25.4494 7.62957 25.5557 7.46957 25.72 7.30957C26.0197 7.00957 26.4547 6.80957 26.9767 6.80957C27.3923 6.80957 27.9047 6.91957 28.2817 7.31957C28.7263 7.79957 28.823 8.21957 28.823 9.26957V12.0596H27.6533V9.31957C27.6533 8.99957 27.6243 8.63957 27.46 8.37957C27.3343 8.12957 27.1023 7.95957 26.6867 7.95957C26.271 7.95957 25.9907 8.14957 25.836 8.41957C25.6814 8.69957 25.662 8.96957 25.662 9.26957V12.0596H24.4827V9.26957C24.4827 8.96957 24.4537 8.68957 24.328 8.42957C24.183 8.15957 23.9414 7.96957 23.5257 7.95957C23.1004 7.95957 22.8297 8.16957 22.6847 8.42957C22.5397 8.69957 22.501 9.00957 22.501 9.30957V12.0596H21.3217V6.96957ZM30.8337 9.51957C30.8337 10.4096 31.491 11.0696 32.2934 11.0696C33.0957 11.0696 33.7434 10.4096 33.7434 9.50957C33.7434 8.60957 33.0957 7.94957 32.2934 7.94957C31.491 7.95957 30.8337 8.60957 30.8337 9.51957ZM29.664 9.49957C29.664 8.19957 30.5823 6.81957 32.2934 6.81957C34.0043 6.81957 34.9227 8.19957 34.9227 9.50957C34.9227 10.8296 34.0043 12.2096 32.2934 12.2096C30.5823 12.2096 29.664 10.8296 29.664 9.49957ZM35.7637 6.96957H36.8657C36.8657 7.18957 36.8657 7.40957 36.856 7.64957C37.0687 7.24957 37.5134 6.80957 38.3834 6.81957C39.988 6.82957 40.2877 8.09957 40.2877 8.99957V12.0696H39.118V9.29957C39.118 8.53957 38.8764 7.95957 38.0547 7.95957C37.2234 7.96957 36.9333 8.53957 36.9333 9.25957V12.0696H35.7637V6.96957ZM24.6567 16.8796C24.6567 17.5096 25.0917 18.4296 26.155 18.4296C26.8123 18.4296 27.2377 18.0796 27.46 17.6096C27.576 17.3896 27.634 17.1496 27.6437 16.8996C27.6534 16.6596 27.605 16.4096 27.5083 16.1896C27.3053 15.7096 26.8414 15.2896 26.1357 15.2896C25.198 15.2896 24.6567 16.0796 24.6567 16.8796ZM28.8133 19.3996H27.6437V18.6696C27.3344 19.2596 26.677 19.5596 25.9907 19.5596C24.415 19.5596 23.4967 18.2896 23.4967 16.8596C23.4967 15.2596 24.618 14.1596 25.9907 14.1596C26.8897 14.1596 27.431 14.6496 27.6437 15.0596V14.3196H28.8133V19.3996ZM33.8787 16.8496C33.8787 16.1196 33.3664 15.2796 32.3707 15.2796C31.9454 15.2796 31.578 15.4596 31.3074 15.7396C31.0464 16.0196 30.882 16.4196 30.882 16.8596C30.882 17.2996 31.0464 17.6796 31.3074 17.9596C31.578 18.2396 31.955 18.4096 32.3707 18.4096C33.2794 18.4296 33.8787 17.6996 33.8787 16.8496ZM29.7704 14.3196H30.8724V15.0596C31.2204 14.5496 31.7907 14.1596 32.6124 14.1596C34.333 14.1596 35.058 15.6696 35.058 16.8996C35.058 18.3396 34.0624 19.5596 32.622 19.5596C31.665 19.5596 31.143 19.0496 30.9497 18.7296V19.4096V22.0596H29.78V14.3196H29.7704ZM39.872 16.8496C39.872 16.1196 39.3597 15.2796 38.364 15.2796C37.9387 15.2796 37.5714 15.4596 37.3007 15.7396C37.0397 16.0196 36.8754 16.4196 36.8754 16.8596C36.8754 17.2996 37.0397 17.6796 37.3007 17.9596C37.5714 18.2396 37.9484 18.4096 38.364 18.4096C39.2727 18.4296 39.872 17.6996 39.872 16.8496ZM35.7637 14.3196H36.8657V15.0596C37.2137 14.5496 37.784 14.1596 38.6057 14.1596C40.3264 14.1596 41.0513 15.6696 41.0513 16.8996C41.0513 18.3396 40.0557 19.5596 38.6154 19.5596C37.6584 19.5596 37.1363 19.0496 36.943 18.7296V19.4096V22.0596H35.7733V14.3196H35.7637Z" fill="black"/>
<path d="M58.5188 0.0404678C57.2525 0.650468 46.1648 6.04047 45.2368 6.51047C43.5065 7.41047 42.5881 8.75047 42.5881 10.4105C42.5978 11.8405 43.3518 12.7805 43.7095 13.1505C43.3615 13.5105 42.6171 14.4105 42.5881 15.6005C42.5398 17.3605 43.2842 18.7205 44.7535 19.5205L52.8638 23.5005C52.9122 23.5205 52.9702 23.5405 53.0185 23.5405C53.0862 23.5405 53.1538 23.5205 53.2118 23.4805C53.3182 23.4105 53.3762 23.2905 53.3762 23.1605V18.4005C53.3762 17.3005 52.7575 16.2905 51.8102 15.8205L46.4258 13.1305L57.3975 7.77047C58.3932 7.28047 59.0408 6.23047 59.0408 5.08047V0.460469C59.0408 0.380469 59.0408 0.140469 58.8765 0.0304688C58.8185 -0.00953125 58.7702 -0.0195312 58.7218 -0.0195312C58.6252 -0.0195312 58.5575 0.0204678 58.5188 0.0404678ZM44.7825 12.1105C44.7728 12.1005 44.0381 11.4705 44.0381 10.3905C44.0381 9.82047 44.2025 9.33047 44.5408 8.90047C44.8502 8.51047 45.2948 8.16047 45.8652 7.86047C46.6288 7.48047 54.0818 3.85047 57.5812 2.16047V5.08047C57.5812 5.64047 57.2622 6.16047 56.7788 6.40047L44.8985 12.2005L44.7825 12.1105ZM45.4012 18.1505C44.4248 17.6105 43.9995 16.8305 44.0381 15.6305C44.0575 14.8205 44.7825 14.1605 44.8115 14.1405L44.9081 14.0605L51.1915 17.1705C51.6361 17.3905 51.9262 17.8705 51.9262 18.3905V21.3605L45.4012 18.1505Z" fill="url(#paint0_linear_13833_245987)"/>
</g>
<defs>
<linearGradient id="paint0_linear_13833_245987" x1="50.8077" y1="23.5202" x2="50.8077" y2="1.79793" gradientUnits="userSpaceOnUse">
<stop stop-color="#429AE2"/>
<stop offset="0.5129" stop-color="#38DAF9"/>
<stop offset="1" stop-color="#9AE9FF"/>
</linearGradient>
<clipPath id="clip0_13833_245987">
<rect width="58" height="24" fill="white" transform="translate(0.994141)"/>
</clipPath>
</defs>
</svg>
