<svg xmlns="http://www.w3.org/2000/svg" fill="currentColor" width="24px" height="24px" viewBox="0 0 24 24">
  <path d="M20,3H4A2,2,0,0,0,2,5V17a2,2,0,0,0,2,2H9.09a1,1,0,0,1,.7.29l1.49,1.49a.75.75,0,0,0,.53.22h.38a.75.75,0,0,0,.53-.22l1.49-1.49a1,1,0,0,1,.7-.29H20a2,2,0,0,0,2-2V5A2,2,0,0,0,20,3Zm0,14H14.91a3,3,0,0,0-2.12.88l-.79.79-.79-.79A3,3,0,0,0,9.09,17H4V5H20ZM6.5,14h7a.5.5,0,0,0,.5-.5v-1a.5.5,0,0,0-.5-.5h-7a.5.5,0,0,0-.5.5v1A.5.5,0,0,0,6.5,14Zm0-4h11a.5.5,0,0,0,.5-.5v-1a.5.5,0,0,0-.5-.5H6.5a.5.5,0,0,0-.5.5v1A.5.5,0,0,0,6.5,10Z"/>
</svg>