<svg xmlns="http://www.w3.org/2000/svg" fill="currentColor" width="24px" height="24px" viewBox="0 0 24 24">
  <path fill-rule="evenodd"
    d="M17.14 5.01l-.09-.15c-.1-.17-.25-.32-.43-.42l-3.95-2.28c-.18-.1-.38-.16-.59-.16h-.17c-.2 0-.4.06-.59.16L7.38 4.44c-.18.1-.33.25-.43.43l-.09.15c-.1.18-.15.38-.15.59v4.55c0 .21.05.41.15.6l.09.14c.1.18.25.32.43.43l3.95 2.28c.18.1.38.16.59.15h.16c.2 0 .41-.05.6-.15l3.94-2.29c.18-.1.33-.25.43-.43l.09-.14c.1-.18.15-.38.15-.6V5.6c0-.2-.05-.41-.15-.59zM11.9 3.18h.17l3.45 1.98L12 7.2 8.47 5.16l3.44-1.98zm.68 9.11l3.44-1.98.09-.15V6.18l-3.53 2.04v4.07z" />
  <path fill-rule="evenodd"
    d="M12.43 13.25l-.08-.15c-.1-.18-.26-.33-.44-.43L7.96 10.4c-.17-.1-.38-.15-.58-.15H7.2c-.21 0-.41.05-.6.15l-3.94 2.29c-.18.1-.33.25-.43.43l-.08.14c-.1.18-.16.38-.16.6v4.55c0 .2.06.41.16.59l.08.15c.1.17.25.32.43.42l3.95 2.28c.18.1.38.16.6.16h.16c.2 0 .4-.06.58-.16l3.95-2.28c.18-.1.33-.25.43-.43l.09-.15c.1-.18.16-.38.16-.59v-4.55c0-.21-.06-.41-.16-.6zM7.2 11.4h.17l3.44 1.99-3.53 2.04-3.53-2.04 3.45-1.99zm.67 9.12l3.44-1.99.1-.15v-3.97l-3.54 2.04v4.07z" />
  <path fill-rule="evenodd"
    d="M21.84 13.25l-.08-.15c-.1-.18-.26-.33-.44-.43l-3.94-2.28c-.18-.1-.39-.15-.6-.15h-.16c-.2 0-.41.05-.6.15l-3.94 2.29c-.18.1-.32.25-.43.43l-.08.14c-.1.18-.16.38-.16.6v4.55c0 .2.06.41.16.59l.08.15c.1.17.26.32.43.42l3.96 2.28c.17.1.38.16.58.16h.17c.2 0 .4-.06.59-.16l3.94-2.28c.18-.1.33-.25.43-.43l.1-.15c.1-.18.15-.38.15-.59v-4.55c0-.21-.06-.41-.16-.6zm-5.22-1.84h.17l3.45 1.99-3.53 2.04-3.53-2.04 3.44-1.99zm.67 9.12l3.45-1.99.08-.15v-3.97l-3.53 2.04v4.07z" />
</svg>