<svg viewBox="0 0 260 245" fill="none" xmlns="http://www.w3.org/2000/svg">
<rect y="0.207886" width="260" height="60" rx="8" fill="#F3F4F7"/>
<path d="M30 44.7079C38.0081 44.7079 44.5 38.216 44.5 30.2079C44.5 22.1998 38.0081 15.7079 30 15.7079C21.9919 15.7079 15.5 22.1998 15.5 30.2079C15.5 38.216 21.9919 44.7079 30 44.7079Z" fill="#FCFCFC" stroke="#F3F4F7"/>
<path fill-rule="evenodd" clip-rule="evenodd" d="M26.4368 33.6962C25.5075 34.3144 24.9987 35.1228 24.9987 36.028V36.8747H34.9987V36.0413C34.9987 36.0391 34.9987 36.0369 34.9987 36.0347C34.9987 36.0324 34.9987 36.0302 34.9987 36.028C34.9987 35.1233 34.49 34.3149 33.5606 33.6965C32.6257 33.0744 31.3329 32.7013 29.9987 32.7013C28.6644 32.7013 27.3716 33.0742 26.4368 33.6962ZM36.6653 36.0347C36.6654 36.0324 36.6654 36.0302 36.6654 36.028C36.6654 34.4119 35.7333 33.1403 34.4839 32.3089C33.24 31.4812 31.6161 31.0347 29.9987 31.0347C28.3814 31.0347 26.7575 31.481 25.5135 32.3086C24.2641 33.1399 23.332 34.4116 23.332 36.028V36.8747C23.332 37.7949 24.0785 38.5413 24.9987 38.5413H34.9987C35.9189 38.5413 36.6654 37.7949 36.6654 36.8747V36.0413C36.6654 36.0391 36.6654 36.0369 36.6653 36.0347Z" fill="#DADDE6"/>
<path fill-rule="evenodd" clip-rule="evenodd" d="M31.4696 24.9828C30.6586 24.1718 29.3437 24.1718 28.5327 24.9828C27.7217 25.7938 27.7217 27.1087 28.5327 27.9196C29.3437 28.7306 30.6586 28.7306 31.4696 27.9196C32.2806 27.1087 32.2806 25.7938 31.4696 24.9828ZM32.6481 23.8043C31.1862 22.3424 28.8161 22.3424 27.3542 23.8043C25.8923 25.2661 25.8923 27.6363 27.3542 29.0982C28.8161 30.56 31.1862 30.56 32.6481 29.0982C34.1099 27.6363 34.1099 25.2661 32.6481 23.8043Z" fill="#DADDE6"/>
<rect x="60" y="25.7079" width="80" height="9" rx="4.5" fill="#DADDE6"/>
<rect x="208" y="25.7079" width="36" height="9" rx="4.5" fill="#B0B5C9"/>
<rect y="72.2079" width="260" height="60" rx="8" fill="#F3F4F7"/>
<path d="M30 116.708C38.0081 116.708 44.5 110.216 44.5 102.208C44.5 94.1998 38.0081 87.7079 30 87.7079C21.9919 87.7079 15.5 94.1998 15.5 102.208C15.5 110.216 21.9919 116.708 30 116.708Z" fill="#FCFCFC" stroke="#F3F4F7"/>
<path fill-rule="evenodd" clip-rule="evenodd" d="M26.4368 105.696C25.5075 106.314 24.9987 107.123 24.9987 108.028V108.875H34.9987V108.041C34.9987 108.039 34.9987 108.037 34.9987 108.035C34.9987 108.032 34.9987 108.03 34.9987 108.028C34.9987 107.123 34.49 106.315 33.5606 105.696C32.6257 105.074 31.3329 104.701 29.9987 104.701C28.6644 104.701 27.3716 105.074 26.4368 105.696ZM36.6653 108.035C36.6654 108.032 36.6654 108.03 36.6654 108.028C36.6654 106.412 35.7333 105.14 34.4839 104.309C33.24 103.481 31.6161 103.035 29.9987 103.035C28.3814 103.035 26.7575 103.481 25.5135 104.309C24.2641 105.14 23.332 106.412 23.332 108.028V108.875C23.332 109.795 24.0785 110.541 24.9987 110.541H34.9987C35.9189 110.541 36.6654 109.795 36.6654 108.875V108.041C36.6654 108.039 36.6654 108.037 36.6653 108.035Z" fill="#DADDE6"/>
<path fill-rule="evenodd" clip-rule="evenodd" d="M31.4696 96.9828C30.6586 96.1718 29.3437 96.1718 28.5327 96.9828C27.7217 97.7938 27.7217 99.1087 28.5327 99.9196C29.3437 100.731 30.6586 100.731 31.4696 99.9196C32.2806 99.1087 32.2806 97.7938 31.4696 96.9828ZM32.6481 95.8043C31.1862 94.3424 28.8161 94.3424 27.3542 95.8043C25.8923 97.2661 25.8923 99.6363 27.3542 101.098C28.8161 102.56 31.1862 102.56 32.6481 101.098C34.1099 99.6363 34.1099 97.2661 32.6481 95.8043Z" fill="#DADDE6"/>
<rect x="60" y="97.7079" width="80" height="9" rx="4.5" fill="#DADDE6"/>
<rect x="208" y="97.7079" width="36" height="9" rx="4.5" fill="#B0B5C9"/>
<rect y="144.208" width="260" height="60" rx="8" fill="#F3F4F7"/>
<path d="M30 188.708C38.0081 188.708 44.5 182.216 44.5 174.208C44.5 166.2 38.0081 159.708 30 159.708C21.9919 159.708 15.5 166.2 15.5 174.208C15.5 182.216 21.9919 188.708 30 188.708Z" fill="#FCFCFC" stroke="#F3F4F7"/>
<path fill-rule="evenodd" clip-rule="evenodd" d="M26.4368 177.696C25.5075 178.314 24.9987 179.123 24.9987 180.028V180.875H34.9987V180.041C34.9987 180.039 34.9987 180.037 34.9987 180.035C34.9987 180.032 34.9987 180.03 34.9987 180.028C34.9987 179.123 34.49 178.315 33.5606 177.696C32.6257 177.074 31.3329 176.701 29.9987 176.701C28.6644 176.701 27.3716 177.074 26.4368 177.696ZM36.6653 180.035C36.6654 180.032 36.6654 180.03 36.6654 180.028C36.6654 178.412 35.7333 177.14 34.4839 176.309C33.24 175.481 31.6161 175.035 29.9987 175.035C28.3814 175.035 26.7575 175.481 25.5135 176.309C24.2641 177.14 23.332 178.412 23.332 180.028V180.875C23.332 181.795 24.0785 182.541 24.9987 182.541H34.9987C35.9189 182.541 36.6654 181.795 36.6654 180.875V180.041C36.6654 180.039 36.6654 180.037 36.6653 180.035Z" fill="#DADDE6"/>
<path fill-rule="evenodd" clip-rule="evenodd" d="M31.4696 168.983C30.6586 168.172 29.3437 168.172 28.5327 168.983C27.7217 169.794 27.7217 171.109 28.5327 171.92C29.3437 172.731 30.6586 172.731 31.4696 171.92C32.2806 171.109 32.2806 169.794 31.4696 168.983ZM32.6481 167.804C31.1862 166.342 28.8161 166.342 27.3542 167.804C25.8923 169.266 25.8923 171.636 27.3542 173.098C28.8161 174.56 31.1862 174.56 32.6481 173.098C34.1099 171.636 34.1099 169.266 32.6481 167.804Z" fill="#DADDE6"/>
<rect x="60" y="169.708" width="80" height="9" rx="4.5" fill="#DADDE6"/>
<rect x="208" y="169.708" width="36" height="9" rx="4.5" fill="#B0B5C9"/>
<path fill-rule="evenodd" clip-rule="evenodd" d="M236.024 217.938C244.241 211.107 249.462 200.878 249.462 189.445C249.462 168.88 232.569 152.208 211.731 152.208C190.893 152.208 174 168.88 174 189.445C174 210.011 190.893 226.682 211.731 226.682C217.595 226.682 223.146 225.362 228.096 223.007L242.712 242.861C244.25 244.949 247.204 245.417 249.311 243.906C251.419 242.395 251.881 239.477 250.344 237.389L236.024 217.938Z" fill="#B0B5C9"/>
<ellipse cx="211.732" cy="189.446" rx="28.2982" ry="27.9279" fill="#DADDE6"/>
</svg>
