<svg width="320" height="64" viewBox="0 0 320 64" fill="currentColor" xmlns="http://www.w3.org/2000/svg">
<rect y="-0.00549316" width="320" height="64" rx="8" fill="#F3F4F7"/>
<rect x="16" y="15.9945" width="32" height="32" rx="8" fill="#FCFCFC"/>
<g clip-path="url(#clip0_3282_89900)">
<path d="M35.5082 29.8886C35.3353 29.2942 35.0278 28.7437 34.6075 28.2764C33.802 27.4036 32.6157 26.9613 31.0853 26.9613H28.7274V34.3065H30.3555V28.5221H31.0877C31.5674 28.5129 32.045 28.585 32.4986 28.735C32.8415 28.8529 33.1485 29.0507 33.3919 29.3106C33.9045 29.8605 34.1486 30.7497 34.1486 31.9501C34.1486 33.1505 33.8801 34.0725 33.3309 34.6411C33.0609 34.9147 32.7259 35.1218 32.3546 35.2448C31.8532 35.4074 31.3265 35.4866 30.7973 35.4788H30.7314H25.8496V37.0372H30.7851C32.4083 37.0372 33.6653 36.5903 34.5196 35.7128C34.9701 35.2446 35.3039 34.6846 35.496 34.0748C35.705 33.3912 35.8053 32.6812 35.7937 31.9689C35.8025 31.2659 35.7063 30.5654 35.5082 29.8886Z" fill="#9199B5"/>
<path d="M38.0052 28.6905C37.7458 27.7849 37.2817 26.9453 36.6456 26.2311C35.4325 24.9137 33.6311 24.2445 31.2879 24.2445H25.8496V34.3064H27.4826V25.8123H31.2903C32.1341 25.7959 32.9742 25.9251 33.7703 26.1937C34.4081 26.4136 34.978 26.7838 35.4276 27.2701C35.903 27.8107 36.2503 28.4438 36.4455 29.1257C36.7016 30.0363 36.824 30.9766 36.8092 31.9196C36.8271 32.8845 36.6955 33.8466 36.4186 34.7744C36.2081 35.4785 35.8333 36.1274 35.3227 36.6721C34.8229 37.1796 34.2023 37.5634 33.514 37.7906C32.6401 38.0693 31.7229 38.2023 30.8022 38.1837H25.8496V39.7562H30.8022C31.9093 39.775 33.0115 39.6112 34.0607 39.2718C34.9903 38.9585 35.8276 38.4352 36.5016 37.7462C37.1815 37.0298 37.6824 36.1743 37.9661 35.2447C38.2907 34.1691 38.447 33.0533 38.4299 31.9337C38.4492 30.8388 38.3062 29.7468 38.0052 28.6905Z" fill="#9199B5"/>
</g>
<rect x="64" y="20.9945" width="105" height="9" rx="4.5" fill="#B0B5C9"/>
<rect x="64" y="33.9945" width="48" height="9" rx="4.5" fill="#DADDE6"/>
<rect x="272" y="15.9945" width="32" height="32" rx="8" fill="#FCFCFC"/>
<path fill-rule="evenodd" clip-rule="evenodd" d="M282.667 26.6611H293.334C294.07 26.6611 294.667 27.2581 294.667 27.9945V35.9945C294.667 36.7308 294.07 37.3278 293.334 37.3278H282.667C281.931 37.3278 281.334 36.7308 281.334 35.9945V27.9945C281.334 27.2581 281.931 26.6611 282.667 26.6611ZM290.667 27.9945V29.9945H293.334V27.9945H290.667ZM286.501 29.9945V27.9945H289.501V29.9945H286.501ZM282.667 27.9945V29.9945H285.334V27.9945H282.667ZM290.667 32.8278V31.1611H293.334V32.8278H290.667ZM286.501 31.1611V32.8278H289.501V31.1611H286.501ZM282.667 32.8278V31.1611H285.334V32.8278H282.667ZM290.667 33.9945V35.9945H293.334V33.9945H290.667ZM286.501 35.9945V33.9945H289.501V35.9945H286.501ZM282.667 33.9945V35.9945H285.334V33.9945H282.667Z" fill="#9199B5"/>
<defs>
<clipPath id="clip0_3282_89900">
<rect width="13" height="16" fill="white" transform="translate(25.5 23.9945)"/>
</clipPath>
</defs>
</svg>
