<svg width="130" height="131" viewBox="0 0 130 131" fill="none" xmlns="http://www.w3.org/2000/svg">
<path fill-rule="evenodd" clip-rule="evenodd" d="M4 0.5C1.79086 0.5 0 2.29086 0 4.5V22.958V28.6574V97.3174C0 102.616 0.963182 106.912 2.15133 106.912H118.861C120.049 106.912 121.012 102.616 121.012 97.3174V22.958C121.012 17.659 120.049 13.3633 118.861 13.3633H81.9437C79.6696 13.3633 77.5029 12.3955 75.9854 10.7018L68.0372 1.83076C67.2784 0.983912 66.1951 0.5 65.0581 0.5H4Z" fill="#F3F4F7"/>
<rect x="9.2207" y="35.5811" width="60" height="9" rx="4.5" fill="#B0B5C9"/>
<rect x="9.2207" y="49.5811" width="34" height="9" rx="4.5" fill="#9199B5"/>
<path fill-rule="evenodd" clip-rule="evenodd" d="M118.015 108.788C124.808 103.288 129.15 94.8809 129.15 85.46C129.15 68.8914 115.719 55.46 99.1504 55.46C82.5818 55.46 69.1504 68.8914 69.1504 85.46C69.1504 102.029 82.5818 115.46 99.1504 115.46C103.63 115.46 107.88 114.478 111.697 112.718L122.986 128.482C124.179 130.149 126.485 130.515 128.136 129.298C129.786 128.081 130.157 125.743 128.963 124.076L118.015 108.788Z" fill="#B0B5C9"/>
<ellipse cx="98.7032" cy="85.4455" rx="22.1641" ry="22.4884" fill="#DADDE6"/>
</svg>
