<svg width="300" height="297" fill="none" xmlns="http://www.w3.org/2000/svg"><g clip-path="url(#a)"><path d="M264.75 180.75h-252c-6.62742 0-12 5.373-12 12v54c0 6.627 5.37258 12 12 12h252c6.627 0 12-5.373 12-12v-54c0-6.627-5.373-12-12-12Z" fill="#F3F4F7"/><path d="M39.75 241.5c12.0121 0 21.75-9.738 21.75-21.75S51.7621 198 39.75 198 18 207.738 18 219.75s9.7379 21.75 21.75 21.75Z" fill="#FCFCFC" stroke="#F3F4F7"/><path fill-rule="evenodd" clip-rule="evenodd" d="M34.4072 224.982c-1.3939.927-2.1571 2.14-2.1571 3.498v1.27h15V228.48c0-1.358-.7631-2.57-2.1572-3.498-1.4023-.933-3.3415-1.493-5.3428-1.493-2.0015 0-3.9407.56-5.3429 1.493ZM49.75 228.49c.0001-.004.0001-.007.0001-.01 0-2.424-1.3981-4.332-3.2722-5.579-1.8659-1.242-4.3017-1.911-6.7278-1.911-2.426 0-4.8618.669-6.7277 1.911-1.8742 1.247-3.2724 3.155-3.2724 5.579v1.27c0 1.38 1.1198 2.499 2.5001 2.499h15c1.3803 0 2.5-1.119 2.5-2.499v-1.251c0-.003 0-.006-.0001-.009ZM41.9506 211.913c-1.2165-1.217-3.1889-1.217-4.4054 0-1.2165 1.216-1.2165 3.189 0 4.405 1.2165 1.217 3.1889 1.217 4.4054 0 1.2165-1.216 1.2165-3.189 0-4.405Zm1.7677-1.769c-2.1928-2.191-5.748-2.191-7.9408 0-2.1929 2.193-2.1929 5.748 0 7.941 2.1928 2.193 5.748 2.193 7.9408 0 2.1927-2.193 2.1927-5.748 0-7.941Z" fill="#B0B5C9"/><path d="M255.516 203.25H81.9836c-1.7859 0-3.2336 2.286-3.2336 5.106v1.788c0 2.82 1.4477 5.106 3.2336 5.106H255.516c1.787 0 3.234-2.286 3.234-5.106v-1.788c0-2.82-1.447-5.106-3.234-5.106ZM202.838 224.25H82.1622c-1.8845 0-3.4122 2.286-3.4122 5.106v1.788c0 2.82 1.5277 5.106 3.4122 5.106H202.838c1.885 0 3.412-2.286 3.412-5.106v-1.788c0-2.82-1.527-5.106-3.412-5.106Z" fill="#DADDE6"/><path d="M264.75 90.75h-252c-6.62742 0-12 5.3726-12 12v54c0 6.627 5.37258 12 12 12h252c6.627 0 12-5.373 12-12v-54c0-6.6274-5.373-12-12-12Z" fill="#F3F4F7"/><path d="M39.75 151.5c12.0121 0 21.75-9.738 21.75-21.75S51.7621 108 39.75 108 18 117.738 18 129.75s9.7379 21.75 21.75 21.75Z" fill="#FCFCFC" stroke="#F3F4F7"/><path fill-rule="evenodd" clip-rule="evenodd" d="M34.4072 134.982c-1.3939.928-2.1571 2.14-2.1571 3.498v1.27h15v-1.27c0-1.357-.7631-2.569-2.1572-3.497-1.4023-.933-3.3415-1.493-5.3428-1.493-2.0015 0-3.9407.559-5.3429 1.492ZM49.75 138.49c.0001-.003.0001-.007.0001-.01 0-2.424-1.3981-4.331-3.2722-5.578-1.8659-1.242-4.3017-1.912-6.7278-1.912-2.426 0-4.8618.67-6.7277 1.911-1.8742 1.247-3.2724 3.154-3.2724 5.579v1.27c0 1.381 1.1198 2.5 2.5001 2.5h15c1.3803 0 2.5-1.119 2.5-2.5v-1.25c0-.003 0-.006-.0001-.01ZM41.9506 121.912c-1.2165-1.216-3.1889-1.216-4.4054 0-1.2165 1.217-1.2165 3.189 0 4.406 1.2165 1.216 3.1889 1.216 4.4054 0 1.2165-1.217 1.2165-3.189 0-4.406Zm1.7677-1.767c-2.1928-2.193-5.748-2.193-7.9408 0-2.1929 2.192-2.1929 5.748 0 7.94 2.1928 2.193 5.748 2.193 7.9408 0 2.1927-2.192 2.1927-5.748 0-7.94Z" fill="#B0B5C9"/><path d="M255.516 113.25H81.9836c-1.7859 0-3.2336 2.286-3.2336 5.106v1.788c0 2.82 1.4477 5.106 3.2336 5.106H255.516c1.787 0 3.234-2.286 3.234-5.106v-1.788c0-2.82-1.447-5.106-3.234-5.106ZM202.838 134.25H82.1622c-1.8845 0-3.4122 2.286-3.4122 5.106v1.788c0 2.82 1.5277 5.106 3.4122 5.106H202.838c1.885 0 3.412-2.286 3.412-5.106v-1.788c0-2.82-1.527-5.106-3.412-5.106Z" fill="#DADDE6"/><path d="M264.75.75h-252c-6.62742 0-12 5.37258-12 12v54c0 6.6274 5.37258 12 12 12h252c6.627 0 12-5.3726 12-12v-54c0-6.62742-5.373-12-12-12Z" fill="#F3F4F7"/><path d="M39.75 61.5c12.0121 0 21.75-9.7379 21.75-21.75S51.7621 18 39.75 18 18 27.7379 18 39.75 27.7379 61.5 39.75 61.5Z" fill="#FCFCFC" stroke="#F3F4F7"/><path fill-rule="evenodd" clip-rule="evenodd" d="M34.4072 44.9825c-1.3939.9273-2.1571 2.1399-2.1571 3.4977v1.27h15v-1.27c0-1.3572-.7631-2.5697-2.1572-3.4973-1.4023-.9331-3.3415-1.4928-5.3428-1.4928-2.0015 0-3.9407.5594-5.3429 1.4924ZM49.75 48.4902c.0001-.0034.0001-.0067.0001-.01 0-2.4242-1.3981-4.3316-3.2722-5.5787-1.8659-1.2415-4.3017-1.9113-6.7278-1.9113-2.426 0-4.8618.6695-6.7277 1.9109-1.8742 1.2469-3.2724 3.1543-3.2724 5.5791v1.27c0 1.3803 1.1198 2.4999 2.5001 2.4999h15c1.3803 0 2.5-1.1196 2.5-2.4999v-1.2501c0-.0033 0-.0066-.0001-.0099ZM41.9506 31.9124c-1.2165-1.2165-3.1889-1.2165-4.4054 0-1.2165 1.2165-1.2165 3.1888 0 4.4053 1.2165 1.2164 3.1889 1.2164 4.4054 0 1.2165-1.2165 1.2165-3.1888 0-4.4053Zm1.7677-1.7678c-2.1928-2.1928-5.748-2.1928-7.9408 0-2.1929 2.1929-2.1929 5.748 0 7.9409 2.1928 2.1927 5.748 2.1927 7.9408 0 2.1927-2.1929 2.1927-5.748 0-7.9409Z" fill="#B0B5C9"/><path d="M255.516 23.25H81.9836c-1.7859 0-3.2336 2.2862-3.2336 5.1065v1.7871c0 2.8203 1.4477 5.1064 3.2336 5.1064H255.516c1.787 0 3.234-2.2861 3.234-5.1064v-1.7871c0-2.8203-1.447-5.1065-3.234-5.1065ZM202.838 44.25H82.1622c-1.8845 0-3.4122 2.2862-3.4122 5.1065v1.7871c0 2.8203 1.5277 5.1064 3.4122 5.1064H202.838c1.885 0 3.412-2.2861 3.412-5.1064v-1.7871c0-2.8203-1.527-5.1065-3.412-5.1065Z" fill="#DADDE6"/><path fill-rule="evenodd" clip-rule="evenodd" d="M277.665 257.872c11.646-9.729 19.047-24.298 19.047-40.584 0-29.292-23.945-53.038-53.481-53.038s-53.481 23.746-53.481 53.038c0 29.294 23.945 53.04 53.481 53.04 8.311 0 16.179-1.88 23.196-5.234l20.722 28.285c2.175 2.97 6.362 3.633 9.348 1.48 2.987-2.152 3.645-6.304 1.469-9.274l-20.301-27.713Z" fill="#B0B5C9"/><path d="M243.228 257.07c22.152 0 40.11-17.81 40.11-39.78 0-21.969-17.958-39.779-40.11-39.779-22.153 0-40.111 17.81-40.111 39.779 0 21.97 17.958 39.78 40.111 39.78Z" fill="#DADDE6"/></g><defs><clipPath id="a"><path fill="#fff" d="M0 .75h300v295.5H0z"/></clipPath></defs></svg>