<svg width="628" height="197" viewBox="0 0 628 197" fill="none" xmlns="http://www.w3.org/2000/svg">
<path d="M137.605 0.193359H4.29116C2.44471 0.193359 0.947876 1.79789 0.947876 3.77717V151.61C0.947876 153.589 2.44471 155.193 4.29116 155.193H137.605C139.451 155.193 140.948 153.589 140.948 151.61V3.77717C140.948 1.79789 139.451 0.193359 137.605 0.193359Z" fill="#F3F4F7"/>
<g clip-path="url(#clip0_13776_237574)">
<path d="M135.449 12.1934H8.65652C7.36573 12.1934 6.31934 15.8669 6.31934 20.3985V83.9882C6.31934 88.5198 7.36573 92.1934 8.65652 92.1934H135.449C136.74 92.1934 137.786 88.5198 137.786 83.9882V20.3985C137.786 15.8669 136.74 12.1934 135.449 12.1934Z" fill="#FCFCFC"/>
<ellipse cx="112.929" cy="106.02" rx="71.2571" ry="49.3827" fill="#DADDE6"/>
<ellipse cx="23.4432" cy="101.576" rx="71.2571" ry="53.8272" fill="#B0B5C9"/>
</g>
<rect x="16.9479" y="16.1934" width="108" height="72" rx="4" stroke="#FCFCFC" stroke-width="8"/>
<circle cx="112.948" cy="28.1934" r="8" fill="#9199B5"/>
<rect x="12.9479" y="104.193" width="73" height="9" rx="4.5" fill="#B0B5C9"/>
<rect x="12.9479" y="118.193" width="50" height="9" rx="4.5" fill="#DADDE6"/>
<path d="M293.605 0.193359H160.291C158.445 0.193359 156.948 1.79789 156.948 3.77717V151.61C156.948 153.589 158.445 155.193 160.291 155.193H293.605C295.451 155.193 296.948 153.589 296.948 151.61V3.77717C296.948 1.79789 295.451 0.193359 293.605 0.193359Z" fill="#F3F4F7"/>
<g clip-path="url(#clip1_13776_237574)">
<path d="M291.449 12.1934H164.657C163.366 12.1934 162.319 15.8669 162.319 20.3985V83.9882C162.319 88.5198 163.366 92.1934 164.657 92.1934H291.449C292.74 92.1934 293.786 88.5198 293.786 83.9882V20.3985C293.786 15.8669 292.74 12.1934 291.449 12.1934Z" fill="#FCFCFC"/>
<ellipse cx="268.929" cy="106.02" rx="71.2571" ry="49.3827" fill="#DADDE6"/>
<ellipse cx="179.443" cy="101.576" rx="71.2571" ry="53.8272" fill="#B0B5C9"/>
</g>
<rect x="172.948" y="16.1934" width="108" height="72" rx="4" stroke="#FCFCFC" stroke-width="8"/>
<circle cx="268.948" cy="28.1934" r="8" fill="#9199B5"/>
<rect x="168.948" y="104.193" width="73" height="9" rx="4.5" fill="#B0B5C9"/>
<rect x="168.948" y="118.193" width="50" height="9" rx="4.5" fill="#DADDE6"/>
<path d="M449.605 0.193359H316.291C314.445 0.193359 312.948 1.79789 312.948 3.77717V151.61C312.948 153.589 314.445 155.193 316.291 155.193H449.605C451.451 155.193 452.948 153.589 452.948 151.61V3.77717C452.948 1.79789 451.451 0.193359 449.605 0.193359Z" fill="#F3F4F7"/>
<g clip-path="url(#clip2_13776_237574)">
<path d="M447.449 12.1934H320.657C319.366 12.1934 318.319 15.8669 318.319 20.3985V83.9882C318.319 88.5198 319.366 92.1934 320.657 92.1934H447.449C448.74 92.1934 449.786 88.5198 449.786 83.9882V20.3985C449.786 15.8669 448.74 12.1934 447.449 12.1934Z" fill="#FCFCFC"/>
<ellipse cx="424.929" cy="106.02" rx="71.2571" ry="49.3827" fill="#DADDE6"/>
<ellipse cx="335.443" cy="101.576" rx="71.2571" ry="53.8272" fill="#B0B5C9"/>
</g>
<rect x="328.948" y="16.1934" width="108" height="72" rx="4" stroke="#FCFCFC" stroke-width="8"/>
<circle cx="424.948" cy="28.1934" r="8" fill="#9199B5"/>
<rect x="324.948" y="104.193" width="73" height="9" rx="4.5" fill="#B0B5C9"/>
<rect x="324.948" y="118.193" width="50" height="9" rx="4.5" fill="#DADDE6"/>
<path d="M623.741 42.2245L491.725 23.6709C489.897 23.4139 488.191 24.7945 487.916 26.7545L467.342 173.148C467.066 175.108 468.325 176.905 470.154 177.162L602.17 195.716C603.998 195.973 605.704 194.592 605.979 192.632L626.553 46.2387C626.829 44.2787 625.57 42.4815 623.741 42.2245Z" fill="#F3F4F7"/>
<g clip-path="url(#clip3_13776_237574)">
<path d="M619.937 53.8078L494.378 36.1617C493.1 35.9821 491.552 39.4742 490.922 43.9617L482.072 106.933C481.441 111.42 481.966 115.203 483.244 115.383L608.803 133.029C610.081 133.209 611.628 129.717 612.259 125.229L621.109 62.2583C621.74 57.7709 621.215 53.9874 619.937 53.8078Z" fill="#FCFCFC"/>
<ellipse cx="584.578" cy="143.587" rx="71.2571" ry="49.3827" transform="rotate(8 584.578 143.587)" fill="#DADDE6"/>
<ellipse cx="496.581" cy="126.732" rx="71.2571" ry="53.8272" transform="rotate(8 496.581 126.732)" fill="#B0B5C9"/>
</g>
<rect x="502.032" y="41.2766" width="108" height="72" rx="4" transform="rotate(8 502.032 41.2766)" stroke="#FCFCFC" stroke-width="8"/>
<circle cx="595.428" cy="66.5204" r="8" transform="rotate(8 595.428 66.5204)" fill="#9199B5"/>
<rect x="485.824" y="127.863" width="73" height="9" rx="4.5" transform="rotate(8 485.824 127.863)" fill="#B0B5C9"/>
<rect x="483.875" y="141.727" width="50" height="9" rx="4.5" transform="rotate(8 483.875 141.727)" fill="#DADDE6"/>
<defs>
<clipPath id="clip0_13776_237574">
<rect x="12.9479" y="12.1934" width="116" height="80" rx="8" fill="white"/>
</clipPath>
<clipPath id="clip1_13776_237574">
<rect x="168.948" y="12.1934" width="116" height="80" rx="8" fill="white"/>
</clipPath>
<clipPath id="clip2_13776_237574">
<rect x="324.948" y="12.1934" width="116" height="80" rx="8" fill="white"/>
</clipPath>
<clipPath id="clip3_13776_237574">
<rect x="498.628" y="36.7588" width="116" height="80" rx="8" transform="rotate(8 498.628 36.7588)" fill="white"/>
</clipPath>
</defs>
</svg>
