<svg width="16" height="17" viewBox="0 0 16 17" fill="currentColor" xmlns="http://www.w3.org/2000/svg">
<path fill-rule="evenodd" clip-rule="evenodd" d="M1.43598 10.8738C1.23019 9.83919 1.33581 8.76683 1.73947 7.79229C2.14314 6.81775 2.82673 5.9848 3.70379 5.39877C4.47501 4.88345 5.36536 4.57942 6.2862 4.51354C6.88743 4.47052 7.3335 4.96141 7.3335 5.49994V9.1666L11.0002 9.1666C11.5387 9.1666 12.0296 9.61267 11.9866 10.2139C11.9207 11.1347 11.6166 12.0251 11.1013 12.7963C10.5153 13.6734 9.68235 14.357 8.70781 14.7606C7.73327 15.1643 6.66092 15.2699 5.62635 15.0641C4.59179 14.8583 3.64148 14.3504 2.8956 13.6045C2.14972 12.8586 1.64176 11.9083 1.43598 10.8738ZM2.97131 8.30254C2.66856 9.03344 2.58935 9.83771 2.74369 10.6136C2.89803 11.3896 3.27899 12.1023 3.83841 12.6617C4.39781 13.2211 5.11055 13.6021 5.88647 13.7564C6.6624 13.9108 7.46666 13.8315 8.19757 13.5288C8.92847 13.226 9.55319 12.7133 9.99271 12.0556C10.3076 11.5843 10.5173 11.0538 10.6109 10.4999H7.3335C6.59712 10.4999 6.00016 9.90298 6.00016 9.1666V5.88921C5.44629 5.98284 4.91577 6.19254 4.44455 6.50739C3.78675 6.94692 3.27406 7.57163 2.97131 8.30254Z"/>
<path fill-rule="evenodd" clip-rule="evenodd" d="M8.66683 2.83327C8.66683 2.29476 9.11288 1.80385 9.71413 1.84687C10.2842 1.88766 10.8449 2.01989 11.3745 2.23925C12.0215 2.50727 12.6095 2.90012 13.1047 3.39537C13.6 3.89061 13.9928 4.47856 14.2609 5.12563C14.4802 5.6552 14.6124 6.21588 14.6532 6.78597C14.6963 7.38723 14.2053 7.83327 13.6668 7.83327H10.0002C9.26379 7.83327 8.66683 7.23632 8.66683 6.49994V2.83327ZM10.0002 3.22255V6.49994H13.2776C13.2276 6.20419 13.1443 5.91429 13.029 5.63587C12.828 5.15057 12.5334 4.70961 12.1619 4.33818C11.7905 3.96674 11.3495 3.67211 10.8642 3.47109C10.5858 3.35576 10.2959 3.27254 10.0002 3.22255Z" />
</svg>
