<svg width="24" height="24" viewBox="0 0 24 24" fill="none" xmlns="http://www.w3.org/2000/svg">
<path fill-rule="evenodd" clip-rule="evenodd" d="M4 5C4 4.20435 4.31607 3.44129 4.87868 2.87868C5.44129 2.31607 6.20435 2 7 2H14.17C14.9654 2.0007 15.7279 2.31723 16.29 2.88L19.12 5.71C19.6828 6.27207 19.9993 7.03462 20 7.83V19C20 19.7956 19.6839 20.5587 19.1213 21.1213C18.5587 21.6839 17.7956 22 17 22H7C6.20435 22 5.44129 21.6839 4.87868 21.1213C4.31607 20.5587 4 19.7956 4 19V5ZM7 4C6.73478 4 6.48043 4.10536 6.29289 4.29289C6.10536 4.48043 6 4.73478 6 5V19C6 19.2652 6.10536 19.5196 6.29289 19.7071C6.48043 19.8946 6.73478 20 7 20H17C17.2652 20 17.5196 19.8946 17.7071 19.7071C17.8946 19.5196 18 19.2652 18 19V7.83C17.9962 7.56623 17.8884 7.31463 17.7 7.13L14.88 4.29C14.6937 4.10526 14.4423 4.0011 14.18 4H7Z" fill="currentColor"/>
<path fill-rule="evenodd" clip-rule="evenodd" d="M8.25 9.5C8.25 9.09 8.59 8.75 9 8.75H15C15.1989 8.75 15.3897 8.82902 15.5303 8.96967C15.671 9.11032 15.75 9.30109 15.75 9.5C15.75 9.69891 15.671 9.88968 15.5303 10.0303C15.3897 10.171 15.1989 10.25 15 10.25H9C8.80109 10.25 8.61032 10.171 8.46967 10.0303C8.32902 9.88968 8.25 9.69891 8.25 9.5ZM8.25 12.5C8.25 12.09 8.59 11.75 9 11.75H15C15.1989 11.75 15.3897 11.829 15.5303 11.9697C15.671 12.1103 15.75 12.3011 15.75 12.5C15.75 12.6989 15.671 12.8897 15.5303 13.0303C15.3897 13.171 15.1989 13.25 15 13.25H9C8.80109 13.25 8.61032 13.171 8.46967 13.0303C8.32902 12.8897 8.25 12.6989 8.25 12.5ZM8.25 15.5C8.25 15.09 8.59 14.75 9 14.75H15C15.1989 14.75 15.3897 14.829 15.5303 14.9697C15.671 15.1103 15.75 15.3011 15.75 15.5C15.75 15.6989 15.671 15.8897 15.5303 16.0303C15.3897 16.171 15.1989 16.25 15 16.25H9C8.80109 16.25 8.61032 16.171 8.46967 16.0303C8.32902 15.8897 8.25 15.6989 8.25 15.5Z" fill="currentColor"/>
</svg>
