<svg xmlns="http://www.w3.org/2000/svg" fill="currentColor" width="24px" height="24px" viewBox="0 0 24 24">
  <path d="M4 5a3 3 0 013-3h7.17a3 3 0 012.12.88l2.83 2.83A3 3 0 0120 7.83V19a3 3 0 01-3 3H7a3 3 0 01-3-3V5zm3-1a1 1 0 00-1 1v14a1 1 0 001 1h10a1 1 0 001-1V7.83a1 1 0 00-.3-.7l-2.82-2.84a1 1 0 00-.7-.29H7z"/>
  <path d="M12 9c.41 0 .75.34.75.75v7a.75.75 0 01-1.5 0v-7c0-.41.34-.75.75-.75z"/>
  <path d="M7.25 13.5c0-.41.34-.75.75-.75h8a.75.75 0 010 1.5H8a.75.75 0 01-.75-.75z"/>
  <path d="M9 10.5a.25.25 0 00-.25.25v5c0 .14.11.25.25.25h6c.14 0 .25-.11.25-.25v-5a.25.25 0 00-.25-.25H9zm-1.75.25C7.25 9.78 8.03 9 9 9h6c.97 0 1.75.78 1.75 1.75v5c0 .97-.78 1.75-1.75 1.75H9c-.97 0-1.75-.78-1.75-1.75v-5z"/>
</svg>
