<svg width="25" height="20" viewBox="0 0 25 20" fill="none" xmlns="http://www.w3.org/2000/svg">
<path fill-rule="evenodd" clip-rule="evenodd" d="M5.9 0.399902C6.23137 0.399902 6.5 0.668531 6.5 0.999902V2.1999C6.5 2.53127 6.23137 2.7999 5.9 2.7999H2.9V5.7999C2.9 6.13127 2.63137 6.3999 2.3 6.3999H1.1C0.768629 6.3999 0.5 6.13127 0.5 5.7999V2.7999C0.5 1.47442 1.57452 0.399902 2.9 0.399902H5.9ZM24.5 5.8V2.8C24.5 1.47452 23.4255 0.400001 22.1 0.400001H19.1C18.7686 0.400001 18.5 0.66863 18.5 1V2.2C18.5 2.53137 18.7686 2.8 19.1 2.8H22.1V5.8C22.1 6.13137 22.3686 6.4 22.7 6.4H23.9C24.2314 6.4 24.5 6.13137 24.5 5.8ZM23.9 13.6H22.7C22.3686 13.6 22.1 13.8686 22.1 14.2V17.2H19.1C18.7686 17.2 18.5 17.4686 18.5 17.8V19C18.5 19.3314 18.7686 19.6 19.1 19.6H22.1C23.4255 19.6 24.5 18.5255 24.5 17.2V14.2C24.5 13.8686 24.2314 13.6 23.9 13.6ZM5.9 17.2C6.23137 17.2 6.5 17.4686 6.5 17.8V19C6.5 19.3314 6.23137 19.6 5.9 19.6H2.9C1.57452 19.6 0.5 18.5255 0.5 17.2V14.2C0.5 13.8686 0.76863 13.6 1.1 13.6H2.3C2.63137 13.6 2.9 13.8686 2.9 14.2V17.2H5.9Z" fill="#06508F"/>
</svg>
