<svg xmlns="http://www.w3.org/2000/svg" fill="none" viewBox="0 0 24 24">
    <path stroke="currentColor" stroke-linecap="round" stroke-linejoin="round" stroke-width="1.5" d="m7.998 3.997 1.3-1.626a1 1 0 0 1 .782-.375h3.84a1 1 0 0 1 .782.375l1.3 1.626v1a1 1 0 0 1-1.001 1H8.998a1 1 0 0 1-1-1v-1Z" clip-rule="evenodd"/>
    <path stroke="currentColor" stroke-linecap="round" stroke-linejoin="round" stroke-width="1.5" d="M7.998 17.002h2M7.998 8.999h8.003M7.998 13H12M15.357 21.004h-9.36a2 2 0 0 1-2-2.001V5.997a2 2 0 0 1 2-2H8M16.002 3.997h2a2 2 0 0 1 2.002 2v8.541M17.997 16v.65M17.997 19.237v.651M16.17 16.972l.612.321M19.223 18.595l.603.321M16.17 18.916l.612-.321M19.223 17.293l.603-.321M17.997 16.647c.779 0 1.41.581 1.41 1.297s-.631 1.297-1.41 1.297c-.78 0-1.41-.58-1.41-1.297 0-.716.63-1.297 1.41-1.297"/>
    <path stroke="currentColor" stroke-linecap="round" stroke-linejoin="round" stroke-width="1.5" d="M18.003 22.004a4.002 4.002 0 1 1 0-8.003 4.002 4.002 0 0 1 0 8.003"/>
</svg>