<svg width="24" height="24" viewBox="0 0 24 24" fill="none" xmlns="http://www.w3.org/2000/svg">
<path fill-rule="evenodd" clip-rule="evenodd" d="M12.781 21.9701C12.7629 21.9715 12.7447 21.9728 12.7265 21.9741C12.6135 22.0004 12.4959 22.0072 12.3794 21.9931C12.2535 21.9978 12.127 22.0001 12 22.0001C11.873 22.0001 11.7465 21.9978 11.6206 21.9931C11.5041 22.0072 11.3865 22.0004 11.2735 21.9741C6.08981 21.602 2 17.2787 2 12.0001C2 6.72159 6.08981 2.39828 11.2735 2.02612C11.3865 1.99984 11.5041 1.99311 11.6206 2.0072C11.7465 2.0025 11.873 2.00013 12 2.00013C12.127 2.00013 12.2535 2.0025 12.3794 2.0072C12.4959 1.99311 12.6135 1.99984 12.7265 2.02612C17.9102 2.39828 22 6.72159 22 12.0001C22 12.2629 21.9899 12.5233 21.97 12.7809C21.3969 12.2379 20.725 11.7982 19.9841 11.4916C19.952 10.9799 19.8718 10.4812 19.748 10.0001H15.9665C16.0096 10.386 16.0402 10.773 16.0582 11.1605C15.3467 11.3216 14.6795 11.5994 14.0778 11.9728C14.0766 11.3139 14.0349 10.655 13.9525 10.0001H10.0475C9.88043 11.328 9.88043 12.6722 10.0475 14.0001H12.0217C11.6341 14.6057 11.3441 15.2798 11.1739 16.0001H10.4298C10.5859 16.6053 10.7781 17.2034 11.0064 17.7911C11.0776 19.4076 11.7393 20.8707 12.781 21.9701ZM9.62424 4.3588C7.68814 4.9601 6.06706 6.27696 5.07026 8.00013H8.37178C8.65523 6.75562 9.07272 5.53447 9.62424 4.3588ZM8.0335 10.0001H4.25203C4.08751 10.6394 4 11.3095 4 12.0001C4 12.6907 4.08751 13.3609 4.25203 14.0001H8.0335C7.88511 12.6711 7.88511 11.3292 8.0335 10.0001ZM14.3758 4.35881C14.9273 5.53448 15.3448 6.75562 15.6282 8.00013H18.9297C17.9329 6.27696 16.3119 4.9601 14.3758 4.35881ZM10.4298 8.00013C10.776 6.65842 11.2994 5.35153 12 4.11507C12.7006 5.35153 13.224 6.65842 13.5702 8.00013H10.4298ZM8.37178 16.0001H5.07026C6.06706 17.7233 7.68814 19.0402 9.62424 19.6415C9.07272 18.4658 8.65523 17.2446 8.37178 16.0001Z" fill="#1D202A"/>
<path d="M19.6959 16.0937C19.6067 16.0937 19.5293 16.0343 19.4989 15.9504C19.4446 15.8009 19.3763 15.6654 19.2939 15.5439C19.1859 15.382 19.0538 15.2457 18.8976 15.1349C18.7442 15.0212 18.568 14.9346 18.3692 14.8749C18.1732 14.8153 17.9558 14.7854 17.7172 14.7854C17.2712 14.7854 16.8791 14.8962 16.5411 15.1178C16.2058 15.3394 15.9445 15.6618 15.757 16.0851C15.5695 16.5056 15.4757 17.0198 15.4757 17.6278C15.4757 18.2357 15.568 18.7528 15.7527 19.1789C15.9374 19.605 16.1987 19.9303 16.5368 20.1547C16.8749 20.3763 17.274 20.4871 17.7342 20.4871C18.1519 20.4871 18.5084 20.4133 18.8038 20.2655C19.1021 20.115 19.3294 19.9033 19.4857 19.6306C19.6405 19.3652 19.72 19.0526 19.7241 18.693C19.7243 18.6773 19.7382 18.6653 19.7537 18.6676C19.7852 18.6723 19.7818 18.7187 19.75 18.7187H18.0033C17.9182 18.7187 17.8493 18.6497 17.8493 18.5647V17.5295C17.8493 17.419 17.9388 17.3295 18.0493 17.3295H21.3013C21.4117 17.3295 21.5013 17.419 21.5013 17.5295V18.4289C21.5013 19.1959 21.3394 19.855 21.0155 20.4062C20.6916 20.9545 20.2456 21.3778 19.6774 21.6761C19.1092 21.9715 18.4587 22.1192 17.7257 22.1192C16.9075 22.1192 16.1888 21.9388 15.5695 21.578C14.9501 21.2144 14.4672 20.6988 14.1206 20.0312C13.7769 19.3607 13.605 18.5653 13.605 17.6448C13.605 16.9374 13.7073 16.3067 13.9118 15.7528C14.1192 15.1959 14.409 14.7243 14.7811 14.338C15.1533 13.9516 15.5865 13.6576 16.0808 13.4559C16.5751 13.2542 17.1107 13.1533 17.6874 13.1533C18.1817 13.1533 18.6419 13.2258 19.068 13.3707C19.4942 13.5127 19.872 13.7144 20.2016 13.9758C20.534 14.2371 20.8053 14.5482 21.0155 14.909C21.1884 15.2035 21.3104 15.523 21.3815 15.8675C21.406 15.9863 21.3121 16.0937 21.1908 16.0937H19.6959Z" fill="#1D202A"/>
</svg>
