<svg xmlns="http://www.w3.org/2000/svg" fill="currentColor" width="24px" height="24px" viewBox="0 0 24 24">
  <path d="M2.5 14a.5.5 0 01-.5-.5v-2.09a1 1 0 01.29-.7l7.42-7.42a1 1 0 01.7-.29h3.18a1 1 0 01.7.29l7.42 7.42a1 1 0 01.29.7v2.09a.5.5 0 01-.5.5H20v6a1 1 0 01-1 1h-5a1 1 0 01-1-1v-4.75a.25.25 0 00-.25-.25h-1.5a.25.25 0 00-.25.25V20a1 1 0 01-1 1H5a1 1 0 01-1-1v-6H2.5zM15 14v5h3v-6.5c0-.28.22-.5.5-.5H20a.89.89 0 00-.29-.46L13.17 5h-2.34l-6.54 6.54a.89.89 0 00-.24.46H5.5c.28 0 .5.22.5.5V19h3v-5a1 1 0 011-1h4a1 1 0 011 1z"/>
</svg>