<svg xmlns="http://www.w3.org/2000/svg" fill="currentColor" width="24px" height="24px" viewBox="0 0 24 24">
  <path fill-rule="evenodd" d="M18 7V4h.5a.5.5 0 00.5-.5v-1a.5.5 0 00-.5-.5h-13a.5.5 0 00-.5.5v1c0 .28.22.5.5.5H6v3a3 3 0 001.13 2.38L10.4 12l-3.27 2.62A3 3 0 006 17v3h-.5a.5.5 0 00-.5.5v1c0 .28.22.5.5.5h13a.5.5 0 00.5-.5v-1a.5.5 0 00-.5-.5H18v-3a3 3 0 00-1.13-2.34L13.6 12l3.27-2.62A3 3 0 0018 7zm-2.38 9.14c.26.2.4.53.38.86v3H8v-3c0-.3.14-.6.38-.78L12 13.28l3.62 2.86zM12 10.72l3.62-2.94v.04A1 1 0 0016 7V4H8v3a1 1 0 00.38.82l3.62 2.9z"/>
</svg>