<svg width="18" height="16" viewBox="0 0 18 16" fill="currentColor" xmlns="http://www.w3.org/2000/svg">
<path d="M9.02441 3.20006V13.0001H7.20441V8.80006H2.13641V13.0001H0.316406V3.20006H2.13641V7.24606H7.20441V3.20006H9.02441Z"/>
<path d="M13.5684 13.1401C12.8124 13.1401 12.0797 13.0327 11.3704 12.8181C10.6704 12.6034 10.1151 12.3187 9.70439 11.9641L10.3344 10.5501C10.7357 10.8674 11.2257 11.1287 11.8044 11.3341C12.3924 11.5301 12.9804 11.6281 13.5684 11.6281C14.2964 11.6281 14.8377 11.5114 15.1924 11.2781C15.5564 11.0447 15.7384 10.7367 15.7384 10.3541C15.7384 10.0741 15.6357 9.84539 15.4304 9.66806C15.2344 9.48139 14.9824 9.33673 14.6744 9.23406C14.3664 9.13139 13.9464 9.01473 13.4144 8.88406C12.6677 8.70673 12.0611 8.52939 11.5944 8.35206C11.1371 8.17473 10.7404 7.89939 10.4044 7.52606C10.0777 7.14339 9.91439 6.63006 9.91439 5.98606C9.91439 5.44473 10.0591 4.95473 10.3484 4.51606C10.6471 4.06806 11.0904 3.71339 11.6784 3.45206C12.2757 3.19073 13.0037 3.06006 13.8624 3.06006C14.4597 3.06006 15.0477 3.13473 15.6264 3.28406C16.2051 3.43339 16.7044 3.64806 17.1244 3.92806L16.5504 5.34206C16.1211 5.09006 15.6731 4.89873 15.2064 4.76806C14.7397 4.63739 14.2871 4.57206 13.8484 4.57206C13.1297 4.57206 12.5931 4.69339 12.2384 4.93606C11.8931 5.17873 11.7204 5.50073 11.7204 5.90206C11.7204 6.18206 11.8184 6.41073 12.0144 6.58806C12.2197 6.76539 12.4764 6.90539 12.7844 7.00806C13.0924 7.11073 13.5124 7.22739 14.0444 7.35806C14.7724 7.52606 15.3697 7.70339 15.8364 7.89006C16.3031 8.06739 16.6997 8.34273 17.0264 8.71606C17.3624 9.08939 17.5304 9.59339 17.5304 10.2281C17.5304 10.7694 17.3811 11.2594 17.0824 11.6981C16.7931 12.1367 16.3497 12.4867 15.7524 12.7481C15.1551 13.0094 14.4271 13.1401 13.5684 13.1401Z"/>
</svg>
