<svg width="13" height="10" viewBox="0 0 13 10" fill="none" xmlns="http://www.w3.org/2000/svg">
<path fill-rule="evenodd" clip-rule="evenodd" d="M12.1667 1.66683H0.833333C0.649238 1.66683 0.5 1.51759 0.5 1.3335V0.666829C0.5 0.482734 0.649238 0.333496 0.833333 0.333496H12.1667C12.3508 0.333496 12.5 0.482734 12.5 0.666829V1.3335C12.5 1.51759 12.3508 1.66683 12.1667 1.66683ZM12.5 5.3335V4.66683C12.5 4.48273 12.3508 4.3335 12.1667 4.3335H0.833333C0.649238 4.3335 0.5 4.48273 0.5 4.66683V5.3335C0.5 5.51759 0.649238 5.66683 0.833333 5.66683H12.1667C12.3508 5.66683 12.5 5.51759 12.5 5.3335ZM12.5 8.66683V9.3335C12.5 9.51759 12.3508 9.66683 12.1667 9.66683H0.833333C0.649238 9.66683 0.5 9.51759 0.5 9.3335V8.66683C0.5 8.48273 0.649238 8.3335 0.833333 8.3335H12.1667C12.3508 8.3335 12.5 8.48273 12.5 8.66683Z" fill="#06508F"/>
</svg>
