<svg width="17" height="16" viewBox="0 0 17 16" fill="none" xmlns="http://www.w3.org/2000/svg">
<path opacity="0.2" d="M1.40515 10.1447C1.16723 9.25681 1.10653 8.33071 1.22651 7.41932C1.3465 6.50794 1.64482 5.6291 2.10445 4.83301L3.45578 5.6132C3.09861 6.23184 2.86679 6.91477 2.77355 7.623C2.68031 8.33122 2.72748 9.05088 2.91236 9.74088L1.40515 10.1447Z" fill="#06508F"/>
<path opacity="0.5" d="M2.10445 4.83301C2.56407 4.03691 3.176 3.33914 3.9053 2.77953C4.63459 2.21993 5.46696 1.80945 6.35489 1.57153L6.75875 3.07874C6.06875 3.26363 5.42192 3.58261 4.8552 4.01747C4.28847 4.45233 3.81295 4.99456 3.45578 5.6132L2.10445 4.83301Z" fill="#06508F"/>
<path opacity="0.8" d="M6.35489 1.57153C7.54178 1.2535 8.79147 1.2535 9.97836 1.57153C11.1652 1.88955 12.2475 2.5144 13.1164 3.38326L12.013 4.48662C11.3378 3.81144 10.4968 3.32588 9.5745 3.07874C8.65219 2.83161 7.68107 2.83161 6.75875 3.07874L6.35489 1.57153Z" fill="#06508F"/>
<path d="M13.1164 3.38326C13.9852 4.25212 14.6101 5.33439 14.9281 6.52127C15.2461 7.70816 15.2461 8.95785 14.9281 10.1447L13.4209 9.74088C13.668 8.81857 13.668 7.84745 13.4209 6.92513C13.1738 6.00281 12.6882 5.1618 12.013 4.48662L13.1164 3.38326Z" fill="#06508F"/>
</svg>
