<svg width="25" height="24" viewBox="0 0 25 24" fill="none" xmlns="http://www.w3.org/2000/svg">
<path d="M18.6531 16.6572L14.4101 20.9002C14.2245 21.0859 14.0042 21.2333 13.7617 21.3338C13.5191 21.4344 13.2591 21.4861 12.9966 21.4861C12.734 21.4861 12.4741 21.4344 12.2315 21.3338C11.989 21.2333 11.7687 21.0859 11.5831 20.9002L7.3391 16.6572C6.22032 15.5384 5.45843 14.1129 5.14978 12.5611C4.84114 11.0092 4.99959 9.40071 5.6051 7.93893C6.21061 6.47714 7.23599 5.22774 8.55158 4.3487C9.86716 3.46967 11.4139 3.00049 12.9961 3.00049C14.5783 3.00049 16.125 3.46967 17.4406 4.3487C18.7562 5.22774 19.7816 6.47714 20.3871 7.93893C20.9926 9.40071 21.1511 11.0092 20.8424 12.5611C20.5338 14.1129 19.7719 15.5384 18.6531 16.6572V16.6572Z" stroke="currentColor" stroke-width="2" stroke-linecap="round" stroke-linejoin="round"/>
<path d="M15.9961 11C15.9961 11.7956 15.68 12.5587 15.1174 13.1213C14.5548 13.6839 13.7917 14 12.9961 14C12.2004 14 11.4374 13.6839 10.8748 13.1213C10.3122 12.5587 9.99609 11.7956 9.99609 11C9.99609 10.2044 10.3122 9.44129 10.8748 8.87868C11.4374 8.31607 12.2004 8 12.9961 8C13.7917 8 14.5548 8.31607 15.1174 8.87868C15.68 9.44129 15.9961 10.2044 15.9961 11V11Z" stroke="currentColor" stroke-width="2" stroke-linecap="round" stroke-linejoin="round"/>
</svg>
