<svg xmlns="http://www.w3.org/2000/svg" viewBox="0 0 442.82 567"><defs><style>.cls-1{fill:#005994;}</style></defs><g id="Layer_2" data-name="Layer 2"><g id="Layer_3" data-name="Layer 3"><path class="cls-1" d="M42,41h74.5c89.88,0,163,72.49,163,161a159.44,159.44,0,0,1-.83,16.28,173.62,173.62,0,0,0-25.16,6.91,136.24,136.24,0,0,0,2-23.19c0-75.67-62.48-136.85-139-137H70V258h42V106.59h4.66c53.41.09,96.84,42.85,96.84,95.41s-43.51,95.41-97,95.41L.5,297v42h116a139.61,139.61,0,0,0,98.15-40h.52a133.79,133.79,0,0,1,194.52-.16l29.69-29.69a175.58,175.58,0,0,0-118.31-53.94q.42-6.56.43-13.21c0-111.67-92-202-205-202H.5V41L0,258H42Z"/><path class="cls-1" d="M413.09,479.43A133.73,133.73,0,0,1,312.5,525c-72.4,0-131.57-57.72-133.92-129.56a202.41,202.41,0,0,0,23-8.84c-.05,1.46-.09,2.93-.09,4.4a111,111,0,0,0,195.17,72.28l-29.83-29.83a69,69,0,1,1-108.41-85.24q5.31-5.06,10.25-10.47a68.86,68.86,0,0,1,95.46,7.57l29.72-29.73a110.83,110.83,0,0,0-166.31,4.06A163.39,163.39,0,0,1,116.5,363H.5v42h116q10.36,0,20.48-1c6.67,91,82.84,163,175.52,163a175.59,175.59,0,0,0,130.32-57.83Z"/></g></g></svg>