<svg xmlns="http://www.w3.org/2000/svg" viewBox="0 0 3333.17 567"><g id="Layer_2" data-name="Layer 2"><g id="Logo"><path  d="M539.05,126.6h98.82a195.24,195.24,0,0,1,55.3,8.13,148.68,148.68,0,0,1,50,25.62q22.37,17.49,36.2,44.73t13.82,65.48q0,37-13.82,64a133.77,133.77,0,0,1-36.2,44.74,155.49,155.49,0,0,1-50,26.43,182.54,182.54,0,0,1-55.3,8.74H539.05Zm40.26,252.53h50.43a152.79,152.79,0,0,0,48.18-7.32,111.31,111.31,0,0,0,38.23-21.14,94.71,94.71,0,0,0,25-34.16q8.94-20.33,9-45.95,0-26.85-9-47.18a92.84,92.84,0,0,0-25-33.95,110.56,110.56,0,0,0-38.23-20.74,156.94,156.94,0,0,0-48.18-7.12H579.31Z"/><path  d="M1018.5,316.51V323a52.56,52.56,0,0,1-.41,6.51H864.78a56.85,56.85,0,0,0,5.49,22.82,60.19,60.19,0,0,0,13.62,18.58,63.09,63.09,0,0,0,19.72,12.31,63.91,63.91,0,0,0,23.79,4.44q19.53,0,33.76-8.54a68.82,68.82,0,0,0,22.36-20.74L1010.36,380Q994.91,400.44,974,410.12T927.4,419.8a110.56,110.56,0,0,1-40.66-7.32,93.8,93.8,0,0,1-32.13-20.54A95,95,0,0,1,833.47,360q-7.74-18.7-7.73-41.48a110.33,110.33,0,0,1,7.54-41.27,94.33,94.33,0,0,1,21-32.33A96.24,96.24,0,0,1,886.05,224a103.24,103.24,0,0,1,39.53-7.52q21.2,0,38.51,6.91a79.53,79.53,0,0,1,29.34,19.93A89.71,89.71,0,0,1,1012,274.83Q1018.49,293.34,1018.5,316.51Zm-39-15.46a73.12,73.12,0,0,0-3.87-21.34,49,49,0,0,0-10.16-17.29,48,48,0,0,0-16.68-11.59q-10-4.26-23.38-4.27a62,62,0,0,0-23,4.27,59.67,59.67,0,0,0-18.7,11.59,61.09,61.09,0,0,0-13,17.29,55.06,55.06,0,0,0-5.89,21.34Z"/><path  d="M1153.91,253.07h-44.73V414.51H1071V253.07h-38.22V221.76H1071V181.5a121.51,121.51,0,0,1,3.87-31.52,65,65,0,0,1,12.6-25,60.71,60.71,0,0,1,22.37-16.67q13.62-6.1,33.14-6.1a89.54,89.54,0,0,1,24,2.85L1162.45,138c-3-.81-6-1.48-8.94-2a57.59,57.59,0,0,0-10.17-.81q-11,0-17.69,3.86a27.32,27.32,0,0,0-10.37,10.37,42.55,42.55,0,0,0-4.88,14.84,119.9,119.9,0,0,0-1.22,17.29v40.26h44.73Zm82.15-100.85a22.77,22.77,0,0,1-7.47,17.48,25.43,25.43,0,0,1-17.95,6.92,24.4,24.4,0,0,1-17.75-7.12,23.28,23.28,0,0,1-7.26-17.28,23.76,23.76,0,0,1,7.26-17.69,24.44,24.44,0,0,1,17.75-7.12,25.1,25.1,0,0,1,17.95,7.12A23.43,23.43,0,0,1,1236.06,152.22ZM1230,414.51h-38.23V221.76H1230Z"/><path  d="M1323.08,221.76q.81,7.32,1.22,16.47t.4,15.25h1.22a56,56,0,0,1,10-14.44,72.26,72.26,0,0,1,14.43-11.79,71.15,71.15,0,0,1,17.9-7.93,72.11,72.11,0,0,1,20.33-2.85q18.71,0,32.13,6.3A65.15,65.15,0,0,1,1443,239.65a68.39,68.39,0,0,1,13.22,24.81,105.9,105.9,0,0,1,4.27,30.5V414.51H1422.3V307.56a131,131,0,0,0-1.83-22.36,53.79,53.79,0,0,0-6.71-18.71,36.29,36.29,0,0,0-13.42-13q-8.53-4.89-22-4.88-22.77,0-37.21,17.28T1326.74,312V414.51h-38.23V263.24q0-7.73-.41-19.93t-1.22-21.55Z"/><path  d="M1697.2,316.51V323a52.56,52.56,0,0,1-.41,6.51H1543.48a57,57,0,0,0,5.49,22.82,60.19,60.19,0,0,0,13.62,18.58,63.93,63.93,0,0,0,43.52,16.75q19.52,0,33.75-8.54a68.82,68.82,0,0,0,22.36-20.74L1689.06,380q-15.45,20.49-36.39,30.17t-46.56,9.68a110.65,110.65,0,0,1-40.67-7.32,93.89,93.89,0,0,1-32.13-20.54A95,95,0,0,1,1512.17,360q-7.74-18.7-7.73-41.48a110.33,110.33,0,0,1,7.54-41.27,94.33,94.33,0,0,1,21-32.33A96.24,96.24,0,0,1,1564.75,224a103.24,103.24,0,0,1,39.53-7.52q21.2,0,38.51,6.91a79.65,79.65,0,0,1,29.35,19.93,89.84,89.84,0,0,1,18.54,31.52Q1697.19,293.34,1697.2,316.51Zm-39-15.46a73.12,73.12,0,0,0-3.87-21.34,49,49,0,0,0-10.16-17.29,47.81,47.81,0,0,0-16.67-11.59q-10-4.26-23.39-4.27a61.9,61.9,0,0,0-23,4.27,59.72,59.72,0,0,0-18.71,11.59,60.87,60.87,0,0,0-13,17.29,54.9,54.9,0,0,0-5.9,21.34Z"/><path  d="M1895.65,384a71.16,71.16,0,0,1-29.89,26.64,90,90,0,0,1-39.65,9.15q-22.36,0-40.26-7.93a90.11,90.11,0,0,1-30.5-21.76,98.1,98.1,0,0,1-19.52-32.53,114,114,0,0,1-6.91-39.85,112.35,112.35,0,0,1,6.91-39.65,97,97,0,0,1,19.72-32.33,90,90,0,0,1,30.7-21.55,98.5,98.5,0,0,1,39.45-7.73q23.58,0,41.07,10t27.66,24.2h.81V107.08h38.23V414.51h-37V384Zm-126.88-66.08a83.48,83.48,0,0,0,4.07,25.95,65.74,65.74,0,0,0,12.2,22.3A61.2,61.2,0,0,0,1805,381.8q11.79,5.88,27.65,5.87a61.43,61.43,0,0,0,26.64-5.67,64.15,64.15,0,0,0,20.54-15.21,68.54,68.54,0,0,0,13.21-22.1,76.55,76.55,0,0,0,0-52.71,71.08,71.08,0,0,0-13.21-22.29,62.71,62.71,0,0,0-20.54-15.41,61.44,61.44,0,0,0-26.64-5.68q-15.85,0-27.65,5.68A58.82,58.82,0,0,0,1785,269.69a65.79,65.79,0,0,0-12.2,22.29A83.52,83.52,0,0,0,1768.77,317.93Z"/><path  d="M2198.6,194.1a65.64,65.64,0,0,0-29.68-22.57,98.44,98.44,0,0,0-35.79-7.11q-22.37,0-40.66,8.13A95.42,95.42,0,0,0,2061,194.92a99.33,99.33,0,0,0-20.33,33.34,117.91,117.91,0,0,0-7.12,41.48q0,23.6,6.91,43.11a97.34,97.34,0,0,0,19.73,33.55,88.47,88.47,0,0,0,30.7,21.75q17.89,7.74,40.26,7.73,23.18,0,41.07-9.15a80.18,80.18,0,0,0,28.87-24.2l41.08,28.88a131.66,131.66,0,0,1-46.77,37.21q-27.66,13.2-64.66,13.21-33.75,0-62-11.18a140.15,140.15,0,0,1-80.32-79.3Q1977,303.49,1977,269.74q0-34.56,12-62.42a138.89,138.89,0,0,1,32.94-47.38,146.27,146.27,0,0,1,49.41-30.09q28.45-10.56,61.81-10.57a167.16,167.16,0,0,1,28.87,2.64,147.57,147.57,0,0,1,28.88,8.14,139.35,139.35,0,0,1,26,13.62,83.57,83.57,0,0,1,20.74,19.52Z"/><path  d="M2377.13,389.71h-1.22q-7.32,13-23.59,21.35t-37,8.33a105.75,105.75,0,0,1-24.6-3.05,73.21,73.21,0,0,1-23.59-10.16,58.92,58.92,0,0,1-17.89-18.71q-7.12-11.6-7.12-28.67,0-22,12.4-35t31.93-19.93a180.3,180.3,0,0,1,43.3-9.15q23.79-2.24,46.57-2.23v-4.88q0-18.3-13.22-27.05t-31.52-8.74a70.57,70.57,0,0,0-29.68,6.51,79.94,79.94,0,0,0-23.59,15.86l-25.21-29.69a110,110,0,0,1,38.43-23.18,131,131,0,0,1,44.12-7.73q26,0,42.9,7.32t26.64,19.12a68.35,68.35,0,0,1,13.62,26.43,114.15,114.15,0,0,1,3.87,29.28V414.51h-45.55Zm-.81-64.26h-11q-11.81,0-24.81,1a108,108,0,0,0-24,4.47,51.34,51.34,0,0,0-18.3,9.76q-7.32,6.32-7.32,17.29a20.81,20.81,0,0,0,3,11.59,23.31,23.31,0,0,0,7.93,7.52,35.44,35.44,0,0,0,11,4.07,62.32,62.32,0,0,0,12.2,1.22q25.2,0,38.22-13.42t13-36.6Z"/><path  d="M2471.47,219.32h46.77v32.53h.81a71.14,71.14,0,0,1,22.77-27.65q14.64-10.57,34.16-10.58,2.85,0,6.1.21a22.9,22.9,0,0,1,5.7,1v44.74a67.17,67.17,0,0,0-8.34-1.63,57.76,57.76,0,0,0-6.71-.41q-16.68,0-26.84,6.1A48.78,48.78,0,0,0,2530,278.28a52.55,52.55,0,0,0-7.73,17.49,67.76,67.76,0,0,0-2,14.23V414.51h-48.8Z"/><path  d="M2790.29,319.35v6.51a54.69,54.69,0,0,1-.4,6.51H2641.46a48.18,48.18,0,0,0,5.49,19.31,48.92,48.92,0,0,0,12.4,15.05,61.48,61.48,0,0,0,17.49,10,57.39,57.39,0,0,0,20.33,3.66q18.3,0,30.91-6.71a57.88,57.88,0,0,0,20.74-18.5l32.53,26q-28.87,39-83.77,39a119.24,119.24,0,0,1-41.89-7.12A98.58,98.58,0,0,1,2622.55,393a90.81,90.81,0,0,1-22-31.92q-7.93-18.92-7.93-42.91,0-23.56,7.93-42.9a95.45,95.45,0,0,1,54.49-54.08,109.48,109.48,0,0,1,40.87-7.53,103.2,103.2,0,0,1,37.62,6.71,81.74,81.74,0,0,1,29.89,19.93q12.6,13.22,19.72,32.94T2790.29,319.35Zm-48.79-22a60.3,60.3,0,0,0-2.65-17.9,39.87,39.87,0,0,0-22.77-25.41,50.42,50.42,0,0,0-20.54-3.87q-22,0-37.21,13.22t-16.87,34Z"/><path  d="M3015.58,319.35v6.51a52.68,52.68,0,0,1-.41,6.51H2866.74a48.18,48.18,0,0,0,5.49,19.31,48.92,48.92,0,0,0,12.4,15.05,61.48,61.48,0,0,0,17.49,10,57.43,57.43,0,0,0,20.33,3.66q18.3,0,30.91-6.71a57.88,57.88,0,0,0,20.74-18.5l32.53,26q-28.87,39-83.77,39a119.24,119.24,0,0,1-41.89-7.12A98.78,98.78,0,0,1,2847.83,393a90.81,90.81,0,0,1-22-31.92q-7.92-18.92-7.93-42.91,0-23.56,7.93-42.9a95.5,95.5,0,0,1,54.5-54.08,109.39,109.39,0,0,1,40.86-7.53,103.16,103.16,0,0,1,37.62,6.71,81.74,81.74,0,0,1,29.89,19.93q12.6,13.22,19.72,32.94T3015.58,319.35Zm-48.8-22a60.29,60.29,0,0,0-2.64-17.9,39.92,39.92,0,0,0-22.78-25.41,50.37,50.37,0,0,0-20.53-3.87q-22,0-37.21,13.22t-16.88,34Z"/><path  d="M3054.61,219.32h46.77v32.53h.81A71.23,71.23,0,0,1,3125,224.2q14.64-10.57,34.16-10.58,2.85,0,6.1.21a22.9,22.9,0,0,1,5.7,1v44.74a67.17,67.17,0,0,0-8.34-1.63,57.76,57.76,0,0,0-6.71-.41q-16.68,0-26.84,6.1a48.89,48.89,0,0,0-15.86,14.64,52.32,52.32,0,0,0-7.72,17.49,67.89,67.89,0,0,0-2,14.23V414.51h-48.8Z"/><path  d="M3301.46,271.37a56.41,56.41,0,0,0-17.9-14.84,50.4,50.4,0,0,0-24.8-6.31,47.57,47.57,0,0,0-21.56,4.88q-9.75,4.89-9.76,16.27t10.78,16.06q10.77,4.68,31.52,9.56a178.55,178.55,0,0,1,22.16,6.51,81.06,81.06,0,0,1,20.33,10.77,53.11,53.11,0,0,1,14.84,16.67q5.7,10,5.7,24.2,0,17.89-6.71,30.3a57.12,57.12,0,0,1-17.89,20.13,75.38,75.38,0,0,1-26,11.18,135.21,135.21,0,0,1-30.7,3.46,122,122,0,0,1-44.33-8.34q-21.56-8.33-35.79-23.79L3203.45,358a64,64,0,0,0,21.15,17.48,60.43,60.43,0,0,0,28.87,6.92,49.85,49.85,0,0,0,10.78-1.22,36.68,36.68,0,0,0,10.16-3.87,21.05,21.05,0,0,0,7.53-7.11,20.1,20.1,0,0,0,2.84-11q0-12.21-11.18-17.49t-33.55-10.57a161,161,0,0,1-21.35-6.31,69.57,69.57,0,0,1-18.5-10.16,47.06,47.06,0,0,1-13-15.66q-4.87-9.34-4.88-23.18,0-16.26,6.71-28.06a57.72,57.72,0,0,1,17.69-19.31,79.37,79.37,0,0,1,24.81-11.19,110.75,110.75,0,0,1,28.47-3.66,119.9,119.9,0,0,1,41.27,7.32q20.13,7.32,31.92,22.37Z"/><path  d="M413.09,479.43A133.73,133.73,0,0,1,312.5,525c-72.4,0-131.57-57.72-133.92-129.56a202.41,202.41,0,0,0,23-8.84c-.05,1.46-.09,2.93-.09,4.4a111,111,0,0,0,195.17,72.28l-29.83-29.83a69,69,0,1,1-108.41-85.24q5.31-5.06,10.25-10.47a68.86,68.86,0,0,1,95.46,7.57l29.72-29.73a110.83,110.83,0,0,0-166.31,4.06A163.39,163.39,0,0,1,116.5,363H.5v42h116q10.36,0,20.48-1c6.67,91,82.84,163,175.52,163a175.59,175.59,0,0,0,130.32-57.83Z"/><path  d="M42,41h74.5c89.88,0,163,72.49,163,161a159.44,159.44,0,0,1-.83,16.28,173.62,173.62,0,0,0-25.16,6.91,136.24,136.24,0,0,0,2-23.19c0-75.67-62.48-136.85-139-137H70V258h42V106.59h4.66c53.41.09,96.84,42.85,96.84,95.41s-43.51,95.41-97,95.41L.5,297v42h116a139.61,139.61,0,0,0,98.15-40h.52a133.79,133.79,0,0,1,194.52-.16l29.69-29.69a175.58,175.58,0,0,0-118.31-53.94q.42-6.56.43-13.21c0-111.67-92-202-205-202H.5V41L0,258H42Z"/></g></g></svg>