<svg xmlns="http://www.w3.org/2000/svg" fill="none"  width="185px" height="32px" viewBox="0 0 185 32">
  <g clip-path="url(#clip0)">
    <path fill="#06508F" d="M19.25 11.79a8.38 8.38 0 00-1.74-3.23c-1.55-1.74-3.83-2.63-6.77-2.63H6.2v14.7h3.13V9.05h1.4c.93-.02 1.85.12 2.72.42.66.24 1.25.63 1.72 1.15.98 1.1 1.45 2.88 1.45 5.28 0 2.4-.52 4.25-1.57 5.38a4.7 4.7 0 01-1.88 1.21c-.96.33-1.98.48-3 .47H.68v3.12h9.5c3.11 0 5.53-.9 7.17-2.65a8.42 8.42 0 001.88-3.28c.4-1.37.6-2.79.57-4.21.02-1.4-.16-2.8-.54-4.16z"/>
    <path fill="#06508F" d="M24.05 9.4c-.5-1.82-1.4-3.5-2.62-4.93C19.1 1.84 15.63.5 11.13.5H.67v20.12h3.14V3.64h7.32c1.63-.04 3.24.22 4.77.76a7.77 7.77 0 013.19 2.15 9.76 9.76 0 011.96 3.71c.49 1.82.73 3.7.7 5.59.03 1.93-.22 3.85-.75 5.71a8.66 8.66 0 01-5.59 6.03c-1.68.56-3.44.83-5.21.79H.67v3.14h9.53c2.12.04 4.24-.29 6.26-.97a11.8 11.8 0 007.51-8.05c.63-2.15.93-4.38.9-6.62.03-2.2-.24-4.38-.82-6.49z"/>
  </g>
  <g class="logotype-text">
    <path fill="#D34443" d="M115.46 11.2a3.23 3.23 0 00-2.78 1.35c-.66.89-.98 2.14-.98 3.74 0 3.33 1.25 5 3.75 5 1.31-.06 2.6-.32 3.82-.8v2.66c-1.3.52-2.7.77-4.1.75-2.2 0-3.87-.66-5-1.98-1.15-1.31-1.73-3.2-1.74-5.67-.03-1.4.26-2.78.85-4.05a6.13 6.13 0 012.44-2.69 7.24 7.24 0 013.76-.93c1.52.01 3.02.37 4.38 1.05l-1.04 2.57c-.55-.26-1.12-.5-1.7-.7-.53-.19-1.1-.29-1.66-.3zM129.07 23.71l-.6-1.55h-.09a4.6 4.6 0 01-1.61 1.37c-.7.28-1.43.4-2.17.37a3.52 3.52 0 01-2.6-.94 3.6 3.6 0 01-.93-2.67 3 3 0 011.27-2.68c.85-.58 2.14-.9 3.85-.94l1.98-.06v-.5c0-1.16-.59-1.74-1.78-1.74a8.14 8.14 0 00-3.23.82l-1.03-2.1a9.31 9.31 0 014.35-1.03c1.53 0 2.71.33 3.53 1 .82.67 1.23 1.68 1.23 3.04v7.61h-2.17zm-.94-5.29l-1.2.04c-.7-.03-1.4.13-2.03.47a1.54 1.54 0 00-.67 1.37c0 .88.5 1.32 1.52 1.32a2.4 2.4 0 001.74-.63 2.21 2.21 0 00.64-1.65v-.92zM140.44 12.08c.36 0 .71.02 1.06.1l-.24 2.91c-.3-.07-.62-.1-.94-.1a3.3 3.3 0 00-2.34.77 2.76 2.76 0 00-.84 2.14v5.81h-3.12V12.3h2.37l.47 1.93h.15c.35-.63.85-1.17 1.46-1.55.59-.39 1.27-.6 1.97-.6zM148.34 23.9c-1.84 0-3.28-.5-4.32-1.52-1.04-1.02-1.56-2.45-1.56-4.31 0-1.91.48-3.4 1.44-4.44a5.13 5.13 0 013.98-1.57c1.62 0 2.88.47 3.76 1.4a5.34 5.34 0 011.35 3.81v1.51h-7.36c-.01.77.27 1.51.79 2.08a2.77 2.77 0 002.06.74 8.78 8.78 0 003.89-.9v2.41c-.56.28-1.15.49-1.76.61-.74.14-1.5.2-2.27.18zm-.44-9.62a2 2 0 00-1.56.62 2.9 2.9 0 00-.62 1.8h4.39a2.6 2.6 0 00-.63-1.78 2.05 2.05 0 00-1.58-.62v-.02zM160.32 23.9c-1.85 0-3.29-.5-4.33-1.52s-1.55-2.45-1.55-4.31c0-1.91.48-3.4 1.44-4.44a5.14 5.14 0 013.98-1.57 5 5 0 013.77 1.4c.9.94 1.34 2.19 1.34 3.8v1.52h-7.37c0 .77.28 1.5.8 2.07a2.78 2.78 0 002.07.75 8.77 8.77 0 003.88-.9v2.4a7.1 7.1 0 01-1.75.62c-.75.14-1.52.2-2.28.18zm-.44-9.62a1.99 1.99 0 00-1.56.62c-.4.51-.63 1.14-.65 1.79h4.39a2.62 2.62 0 00-.6-1.79 2.05 2.05 0 00-1.59-.6v-.02zM173.5 12.08c.36 0 .71.02 1.06.1l-.24 2.91c-.3-.07-.62-.1-.94-.1a3.3 3.3 0 00-2.34.77 2.75 2.75 0 00-.84 2.14v5.81h-3.12V12.3h2.34l.47 1.93h.15c.36-.64.88-1.17 1.5-1.55a3.55 3.55 0 011.96-.6zM184.21 20.32A3.13 3.13 0 01183 23c-.82.62-2.04.93-3.66.93-.72.01-1.43-.04-2.13-.17a8.37 8.37 0 01-1.66-.5V20.7a10.88 10.88 0 003.89.96c1.13 0 1.7-.32 1.7-.97a.82.82 0 00-.23-.6c-.23-.21-.5-.39-.78-.52-.37-.2-.85-.42-1.47-.68a9.34 9.34 0 01-1.95-1.04c-.38-.28-.7-.65-.9-1.08-.2-.47-.3-.98-.28-1.5a2.73 2.73 0 011.18-2.33 5.8 5.8 0 013.36-.84c1.4 0 2.77.31 4.03.9l-.94 2.25c-.53-.23-1.06-.43-1.61-.6-.5-.16-1.01-.24-1.53-.24-.94 0-1.4.25-1.4.75a.87.87 0 00.46.72c.63.36 1.28.67 1.96.91a9 9 0 011.96 1.01c.4.28.72.66.94 1.09.2.45.3.95.28 1.44z"/>
    <path fill="#06508F" d="M44.24 16.41c0 2.34-.64 4.14-1.91 5.38-1.28 1.24-3.12 1.86-5.52 1.87h-3.94V9.44h4.36c2.22 0 3.94.61 5.17 1.84 1.22 1.22 1.84 2.94 1.84 5.13zm-1.75.06c0-1.86-.47-3.25-1.41-4.2-.94-.93-2.32-1.4-4.16-1.4h-2.4v11.34h2.02c1.98 0 3.47-.48 4.46-1.45.99-.96 1.49-2.4 1.49-4.3zM51.29 23.84a4.93 4.93 0 01-3.76-1.44c-.91-.96-1.37-2.29-1.37-4 0-1.7.42-3.07 1.27-4.08a4.22 4.22 0 013.42-1.52 4.02 4.02 0 013.2 1.32 5.04 5.04 0 011.16 3.47v1.02h-7.36a4.2 4.2 0 00.94 2.85 3.29 3.29 0 002.54.97 8.6 8.6 0 003.42-.72v1.44c-.53.23-1.07.4-1.63.53-.6.11-1.22.17-1.83.16zm-.45-9.69a2.66 2.66 0 00-2.05.86 3.87 3.87 0 00-.9 2.31h5.59a3.57 3.57 0 00-.68-2.34 2.42 2.42 0 00-1.96-.83zM62.38 14.25h-2.7v9.4h-1.62v-9.4h-1.91v-.73l1.91-.58v-.6c0-2.61 1.15-3.92 3.44-3.92.67.02 1.34.13 1.99.34l-.42 1.3a5.36 5.36 0 00-1.6-.3 1.56 1.56 0 00-1.35.6c-.35.59-.5 1.27-.45 1.95V13h2.72v1.25zm1.81-4.14a1.07 1.07 0 01.28-.81 1.01 1.01 0 011.35 0 1.06 1.06 0 01.29.8 1.07 1.07 0 01-.29.82.94.94 0 01-.67.26.94.94 0 01-.68-.26 1.09 1.09 0 01-.28-.8zm1.76 13.53h-1.61V13h1.61v10.64zM76.3 23.64v-6.89c.05-.7-.17-1.39-.6-1.94a2.42 2.42 0 00-1.88-.64c-1.12 0-1.94.3-2.46.9-.51.6-.78 1.6-.78 2.99v5.58h-1.62V13h1.32l.26 1.45h.08c.34-.53.83-.95 1.4-1.22a4.5 4.5 0 012-.43c1.29 0 2.26.32 2.91.94.65.62.97 1.61.97 2.97v6.93h-1.6zM85.34 23.84a4.94 4.94 0 01-3.75-1.44c-.91-.96-1.37-2.29-1.37-4 0-1.7.42-3.07 1.27-4.08a4.22 4.22 0 013.42-1.52 4.03 4.03 0 013.17 1.32 5.04 5.04 0 011.17 3.47v1.02h-7.33a4.2 4.2 0 00.93 2.85 3.29 3.29 0 002.54.97 8.6 8.6 0 003.42-.72v1.44c-.53.23-1.07.4-1.63.53-.6.11-1.22.17-1.84.16zm-.43-9.69a2.65 2.65 0 00-2.06.86 3.82 3.82 0 00-.9 2.31h5.59a3.54 3.54 0 00-.69-2.34 2.4 2.4 0 00-1.94-.83zM98.9 22.21h-.09a3.8 3.8 0 01-3.35 1.63 3.98 3.98 0 01-3.28-1.4c-.78-.96-1.17-2.31-1.17-4.07 0-1.75.39-3.11 1.17-4.09a4.34 4.34 0 016.57.12h.13l-.03-.8-.04-.74V8.53h1.62v15.11H99.1l-.2-1.43zm-3.24.28c1.1 0 1.9-.3 2.4-.9.5-.6.75-1.57.75-2.9v-.34c0-1.51-.25-2.59-.75-3.23-.5-.64-1.31-.96-2.42-.97a2.49 2.49 0 00-2.17 1.1 5.48 5.48 0 00-.75 3.12c0 1.36.25 2.39.75 3.08a2.54 2.54 0 002.2 1.05v-.01z"/>
  </g>
  <defs>
    <clipPath id="clip0">
      <path fill="#fff" d="M0 0h184v31H0z" transform="translate(.67 .5)"/>
    </clipPath>
  </defs>
</svg>
