<svg width="20" height="16" viewBox="0 0 20 16" fill="currentColor" xmlns="http://www.w3.org/2000/svg">
<path d="M9.31841 13.0001L9.30441 6.50406L6.08441 11.8801H5.27241L2.05241 6.58806V13.0001H0.316406V3.20006H1.81441L5.70641 9.69606L9.52841 3.20006H11.0264L11.0404 13.0001H9.31841Z"/>
<path d="M15.6055 13.1401C14.8495 13.1401 14.1168 13.0327 13.4075 12.8181C12.7075 12.6034 12.1522 12.3187 11.7415 11.9641L12.3715 10.5501C12.7728 10.8674 13.2628 11.1287 13.8415 11.3341C14.4295 11.5301 15.0175 11.6281 15.6055 11.6281C16.3335 11.6281 16.8748 11.5114 17.2295 11.2781C17.5935 11.0447 17.7755 10.7367 17.7755 10.3541C17.7755 10.0741 17.6728 9.84539 17.4675 9.66806C17.2715 9.48139 17.0195 9.33673 16.7115 9.23406C16.4035 9.13139 15.9835 9.01473 15.4515 8.88406C14.7048 8.70673 14.0982 8.52939 13.6315 8.35206C13.1742 8.17473 12.7775 7.89939 12.4415 7.52606C12.1148 7.14339 11.9515 6.63006 11.9515 5.98606C11.9515 5.44473 12.0962 4.95473 12.3855 4.51606C12.6842 4.06806 13.1275 3.71339 13.7155 3.45206C14.3128 3.19073 15.0408 3.06006 15.8995 3.06006C16.4968 3.06006 17.0848 3.13473 17.6635 3.28406C18.2422 3.43339 18.7415 3.64806 19.1615 3.92806L18.5875 5.34206C18.1582 5.09006 17.7102 4.89873 17.2435 4.76806C16.7768 4.63739 16.3242 4.57206 15.8855 4.57206C15.1668 4.57206 14.6302 4.69339 14.2755 4.93606C13.9302 5.17873 13.7575 5.50073 13.7575 5.90206C13.7575 6.18206 13.8555 6.41073 14.0515 6.58806C14.2568 6.76539 14.5135 6.90539 14.8215 7.00806C15.1295 7.11073 15.5495 7.22739 16.0815 7.35806C16.8095 7.52606 17.4068 7.70339 17.8735 7.89006C18.3402 8.06739 18.7368 8.34273 19.0635 8.71606C19.3995 9.08939 19.5675 9.59339 19.5675 10.2281C19.5675 10.7694 19.4182 11.2594 19.1195 11.6981C18.8302 12.1367 18.3868 12.4867 17.7895 12.7481C17.1922 13.0094 16.4642 13.1401 15.6055 13.1401Z"/>
</svg>
