<svg width="16" height="17" viewBox="0 0 16 17" fill="none" xmlns="http://www.w3.org/2000/svg">
<g clip-path="url(#clip0_13656_233735)">
<path d="M7.70931 9.56503H7.81063C7.87817 9.56503 7.89168 9.52459 7.93896 9.47066L8.70897 8.70221L9.73565 7.6776L10.8231 6.55189L11.4648 5.8778L12.3969 5.94521H12.4915C12.5847 5.94671 12.6773 5.92891 12.7633 5.89295C12.8493 5.85698 12.927 5.80363 12.9913 5.73625L14.6259 4.11171C14.6458 4.09231 14.6595 4.06752 14.6653 4.04041C14.6712 4.0133 14.669 3.98507 14.6589 3.95922C14.6488 3.93337 14.6314 3.91104 14.6087 3.89501C14.586 3.87898 14.5591 3.86995 14.5313 3.86904L13.5452 3.85556L13.9032 3.49156C13.9432 3.45318 13.9751 3.40713 13.9968 3.35616C14.0186 3.30519 14.0298 3.25036 14.0298 3.19496C14.0298 3.13956 14.0186 3.08472 13.9968 3.03376C13.9751 2.98279 13.9432 2.93674 13.9032 2.89836L13.6532 2.64221C13.5738 2.56481 13.4671 2.52148 13.3561 2.52148C13.245 2.52148 13.1383 2.56481 13.0589 2.64221L12.6468 3.06014L12.559 1.96139C12.5557 1.92623 12.5392 1.8936 12.513 1.8699C12.4867 1.8462 12.4526 1.83315 12.4172 1.83331C12.3797 1.83471 12.3439 1.849 12.3159 1.87376L10.688 3.50504C10.6134 3.57525 10.5557 3.66152 10.5194 3.75729C10.4831 3.85307 10.4692 3.95583 10.4786 4.05778V4.12519L10.5597 5.14306L9.96531 5.72951L8.91161 6.78781L7.86466 7.83938L7.0879 8.61458C7.05648 8.64262 7.03125 8.67687 7.0138 8.71517C6.99636 8.75346 6.98709 8.79496 6.98658 8.83702V9.19429C6.98478 9.24298 6.99261 9.29155 7.00962 9.33723C7.02664 9.3829 7.05252 9.42477 7.08576 9.46046C7.11901 9.49614 7.15898 9.52494 7.20339 9.5452C7.2478 9.56545 7.29577 9.57677 7.34457 9.57851C7.46631 9.58398 7.5883 9.57947 7.70931 9.56503Z" fill="#005994"/>
<path d="M10.4184 7.69113L9.38496 8.72248C9.40884 8.91498 9.40884 9.10969 9.38496 9.30219C9.31006 9.71436 9.11504 10.0953 8.8243 10.3975C8.53357 10.6996 8.16002 10.9095 7.75038 11.0009C7.44506 11.0498 7.13248 11.0256 6.83836 10.9303C6.54425 10.835 6.27703 10.6714 6.05871 10.4528C5.84039 10.2343 5.67721 9.96711 5.58262 9.6733C5.48803 9.3795 5.46473 9.06747 5.51465 8.76292C5.60456 8.36037 5.81036 7.99281 6.10675 7.7054C6.40314 7.41798 6.77722 7.22325 7.183 7.14513C7.37816 7.12142 7.57548 7.12142 7.77064 7.14513L8.79732 6.12052C8.23364 5.85478 7.60524 5.7565 6.98712 5.83741C6.30498 5.96468 5.67474 6.28743 5.17336 6.76625C4.67198 7.24507 4.32116 7.85923 4.16375 8.53374C4.08013 9.04685 4.11982 9.57245 4.27954 10.0673C4.43926 10.5621 4.71445 11.012 5.08246 11.3799C5.45047 11.7478 5.90078 12.0233 6.39632 12.1836C6.89185 12.3438 7.41844 12.3844 7.93275 12.3019C8.60809 12.146 9.2233 11.7972 9.70314 11.298C10.183 10.7988 10.5066 10.1708 10.6345 9.49093C10.731 8.8826 10.6562 8.25949 10.4184 7.69113Z" fill="#005994"/>
<path d="M12.4579 6.41031H12.3498L11.465 6.3429C12.0261 7.14582 12.3278 8.10077 12.3295 9.07967C12.3295 10.0421 12.0439 10.9831 11.5088 11.7838C10.9737 12.5845 10.213 13.2091 9.3226 13.579C8.43223 13.9488 7.45206 14.0473 6.50569 13.862C5.55932 13.6766 4.68912 13.2158 4.00483 12.5376C3.32054 11.8594 2.85278 10.9941 2.66056 10.051C2.46833 9.1078 2.56023 8.12896 2.92468 7.23786C3.28913 6.34676 3.9098 5.5833 4.70843 5.04375C5.50706 4.5042 6.44789 4.21272 7.41228 4.20606C8.37725 4.20966 9.31875 4.50328 10.1141 5.04866V4.17236V4.09147C10.0901 3.92154 10.0901 3.7491 10.1141 3.57917C9.27585 3.16332 8.348 2.9596 7.41228 2.98597C6.20996 2.98597 5.03465 3.34178 4.03496 4.0084C3.03526 4.67502 2.2561 5.62252 1.79599 6.73107C1.33589 7.83962 1.2155 9.05944 1.45006 10.2363C1.68462 11.4131 2.26359 12.4941 3.11376 13.3425C3.96393 14.191 5.04711 14.7688 6.22632 15.0029C7.40554 15.237 8.62783 15.1168 9.73863 14.6576C10.8494 14.1985 11.7988 13.4209 12.4668 12.4232C13.1348 11.4255 13.4913 10.2526 13.4913 9.05271C13.4946 8.09466 13.2627 7.15038 12.8159 6.30246C12.7013 6.35266 12.5811 6.38887 12.4579 6.41031Z" fill="#005994"/>
</g>
<defs>
<clipPath id="clip0_13656_233735">
<rect width="13.3333" height="13.3333" fill="white" transform="translate(1.33325 1.83331)"/>
</clipPath>
</defs>
</svg>
