<svg width="24" height="24" viewBox="0 0 24 24" fill="none" xmlns="http://www.w3.org/2000/svg">
<path d="M9.32617 14.6713L14.6684 9.3291" stroke="currentColor" stroke-width="2" stroke-linecap="round" stroke-linejoin="round"/>
<path d="M14.9111 14.4843C15.0256 14.6025 15.0235 14.7907 14.9066 14.9064C14.7897 15.0221 14.6014 15.0221 14.4844 14.9064C14.3675 14.7907 14.3655 14.6025 14.4799 14.4843C14.5365 14.4259 14.6143 14.393 14.6955 14.393C14.7768 14.393 14.8546 14.4259 14.9111 14.4843" stroke="currentColor" stroke-width="2" stroke-linecap="round" stroke-linejoin="round"/>
<path d="M9.51853 9.08487C9.63298 9.20304 9.63097 9.39131 9.51403 9.50701C9.39709 9.62272 9.2088 9.62272 9.09186 9.50701C8.97492 9.39131 8.97291 9.20304 9.08735 9.08487C9.14389 9.02649 9.22168 8.99354 9.30294 8.99354C9.38421 8.99354 9.462 9.02649 9.51853 9.08487" stroke="currentColor" stroke-width="2" stroke-linecap="round" stroke-linejoin="round"/>
<rect x="2.99609" y="2.99658" width="18.0075" height="18.0075" rx="5" stroke="currentColor" stroke-width="2" stroke-linecap="round" stroke-linejoin="round"/>
</svg>
