<svg width="80" height="80" viewBox="0 0 80 80" fill="none" xmlns="http://www.w3.org/2000/svg">
<path fill-rule="evenodd" clip-rule="evenodd" d="M39.9801 16.6669C54.6272 16.5164 67.8611 25.3885 73.2931 39.0003C73.3472 39.3314 73.3472 39.6691 73.2931 40.0003C73.3039 40.3769 73.2358 40.7516 73.0932 41.1003C67.656 54.6044 54.5298 63.4178 39.9801 63.3336C25.4139 63.4069 12.283 54.5639 6.8669 41.0336C6.73318 40.7056 6.66526 40.3545 6.66703 40.0003C6.67128 39.6249 6.73886 39.253 6.8669 38.9003C12.3041 25.3962 25.4303 16.5828 39.9801 16.6669ZM13.5626 40.0004C18.4444 50.1664 28.7081 56.6417 39.9798 56.6671C51.2515 56.6417 61.5152 50.1664 66.3971 40.0004C61.5321 29.8204 51.257 23.3404 39.9798 23.3404C28.7026 23.3404 18.4275 29.8204 13.5626 40.0004ZM39.9801 33.3338C43.6597 33.3338 46.6427 36.3186 46.6427 40.0005C46.6427 43.6823 43.6597 46.6671 39.9801 46.6671C36.3004 46.6671 33.3175 43.6823 33.3175 40.0005C33.3175 36.3186 36.3004 33.3338 39.9801 33.3338ZM26.6546 40.0002C26.6546 32.6364 32.6205 26.6669 39.9798 26.6669C47.3391 26.6669 53.305 32.6364 53.305 40.0002C53.305 47.364 47.3391 53.3336 39.9798 53.3336C32.6205 53.3336 26.6546 47.364 26.6546 40.0002Z" fill="currentColor"/>
</svg>
