<svg xmlns="http://www.w3.org/2000/svg" fill="none" viewBox="0 0 24 24"><path fill="#323232" fill-rule="evenodd" d="M13.2601 4.0426a1.3657 1.3657 0 0 0-1.7037 1.3199c.0002.0926.0095.1849.0277.2756a.9998.9998 0 0 1-.9803 1.1972H7.7231a.8887.8887 0 0 0-.8886.8883v2.8362a1 1 0 0 1-.9991 1.0445c-.075 0-.149-.0083-.2193-.024a1.4045 1.4045 0 0 0-.7101.0518 1.3341 1.3341 0 0 0-.8622.9381l-.0012.0047a1.3654 1.3654 0 0 0 1.3202 1.7035 1.4086 1.4086 0 0 0 .2755-.0278.9998.9998 0 0 1 1.1971.9804v2.8803c.0003.4902.398.8879.8884.8878l1.8746.0006a3.3656 3.3656 0 0 1 4.1546-2.7307 3.3346 3.3346 0 0 1 2.3426 2.1551c.0641.1878.1116.3805.1419.575h1.874A.8887.8887 0 0 0 19 18.1107v-1.8751a3.3658 3.3658 0 0 1-2.7311-4.1546 3.334 3.334 0 0 1 2.1551-2.3424 3.4112 3.4112 0 0 1 .5751-.142V7.7228a.9124.9124 0 0 1 .0004-.0287.8885.8885 0 0 0-.888-.8588h-2.8807a1 1 0 0 1-.9803-1.1979 1.4043 1.4043 0 0 0-.0473-.7309 1.3377 1.3377 0 0 0-.9392-.863l-.0039-.001Zm7.739 3.7238v2.7925A1.0001 1.0001 0 0 1 20 11.6034c-.075 0-.149-.0083-.2193-.024a1.4062 1.4062 0 0 0-.7097.0516 1.3344 1.3344 0 0 0-.8627.9383l-.0012.0047a1.3654 1.3654 0 0 0 1.3203 1.7035 1.4085 1.4085 0 0 0 .2755-.0278A1 1 0 0 1 21 15.2301v2.8806a2.8884 2.8884 0 0 1-2.8885 2.8884h-2.8362A1 1 0 0 1 14.2308 20c0-.075.0082-.149.0239-.2193a1.4037 1.4037 0 0 0-.0516-.7096m6.796-11.3047A1.0075 1.0075 0 0 0 21 7.7237a2.8883 2.8883 0 0 0-2.8885-2.8884h-1.8738a3.4073 3.4073 0 0 0-.142-.5755l-.0004-.0012a3.3374 3.3374 0 0 0-2.3419-2.1542 3.3658 3.3658 0 0 0-4.155 2.7309H7.7232a2.8887 2.8887 0 0 0-2.8887 2.8884v1.8738a3.404 3.404 0 0 0-.5746.1418 3.3351 3.3351 0 0 0-2.1556 2.3426 3.3652 3.3652 0 0 0 .602 2.8938 3.366 3.366 0 0 0 2.1291 1.2608v1.8751c.0005 1.5948 1.2935 2.8875 2.8883 2.8875L10.6035 21a.9997.9997 0 0 0 .9806-1.1971 1.4181 1.4181 0 0 1-.0277-.2757 1.3654 1.3654 0 0 1 1.7037-1.3199l.0047.0012c.4386.1099.7919.4349.9383.8626" clip-rule="evenodd"/></svg>
