<svg xmlns="http://www.w3.org/2000/svg" fill="currentColor" width="24px" height="24px" viewBox="0 0 24 24">
  <path d="M22 6v2.5a.5.5 0 01-.5.5h-1a.5.5 0 01-.5-.5V6h-2.5a.5.5 0 01-.5-.5v-1a.5.5 0 01.5-.5H20a2 2 0 012 2zM2.5 9h1a.5.5 0 00.5-.5V6h2.5a.5.5 0 00.5-.5v-1a.5.5 0 00-.5-.5H4a2 2 0 00-2 2v2.5a.5.5 0 00.5.5zm19 6h-1a.5.5 0 00-.5.5V18h-2.5a.5.5 0 00-.5.5v1a.5.5 0 00.5.5H20a2 2 0 002-2v-2.5a.5.5 0 00-.5-.5zm-15 3H4v-2.5a.5.5 0 00-.5-.5h-1a.5.5 0 00-.5.5V18a2 2 0 002 2h2.5a.5.5 0 00.5-.5v-1a.5.5 0 00-.5-.5zm1-10A1.5 1.5 0 109 9.5 1.5 1.5 0 007.5 8z"/>
</svg>