<svg width="24" height="24" viewBox="0 0 24 24" fill="none" xmlns="http://www.w3.org/2000/svg">
<path d="M12.125 12.5051H16.3027" stroke="currentColor" stroke-width="2" stroke-linecap="round" stroke-linejoin="round"/>
<path d="M12.125 16.4967L18.1275 16.5017" stroke="currentColor" stroke-width="2" stroke-linecap="round" stroke-linejoin="round"/>
<rect x="3.99609" y="3.49658" width="18.0075" height="18.0075" rx="2" stroke="currentColor" stroke-width="2" stroke-linecap="round" stroke-linejoin="round"/>
<path d="M12.125 8.49337H18.1275" stroke="currentColor" stroke-width="2" stroke-linecap="round" stroke-linejoin="round"/>
<path d="M8.12225 8.24816C7.98426 8.24871 7.87278 8.36093 7.87315 8.49892C7.87352 8.63692 7.98559 8.74855 8.12359 8.74836C8.26158 8.74818 8.37336 8.63626 8.37336 8.49826C8.37363 8.43167 8.34723 8.36775 8.30005 8.32076C8.25287 8.27377 8.18884 8.24762 8.12225 8.24816" stroke="currentColor" stroke-width="2" stroke-linecap="round" stroke-linejoin="round"/>
<path d="M8.12225 12.2501C7.98426 12.2507 7.87278 12.3629 7.87315 12.5009C7.87352 12.6389 7.98559 12.7505 8.12359 12.7503C8.26158 12.7501 8.37336 12.6382 8.37336 12.5002C8.37363 12.4336 8.34723 12.3697 8.30005 12.3227C8.25287 12.2757 8.18884 12.2496 8.12225 12.2501" stroke="currentColor" stroke-width="2" stroke-linecap="round" stroke-linejoin="round"/>
<path d="M8.12225 16.2516C7.98426 16.2521 7.87278 16.3643 7.87315 16.5023C7.87352 16.6403 7.98559 16.752 8.12359 16.7518C8.26158 16.7516 8.37336 16.6397 8.37336 16.5017C8.37363 16.4351 8.34723 16.3712 8.30005 16.3242C8.25287 16.2772 8.18884 16.251 8.12225 16.2516" stroke="currentColor" stroke-width="2" stroke-linecap="round" stroke-linejoin="round"/>
</svg>
