<svg width="24" height="24" viewBox="0 0 24 24" fill="none" stroke="currentColor" xmlns="http://www.w3.org/2000/svg">
  <path clip-rule="evenodd" d="M18.74 2.67h2.52c.78 0 1.4.63 1.4 1.4v9.86c0 .77-.62 1.4-1.4 1.4h-2.52a1.4 1.4 0 01-1.4-1.4V4.07c0-.77.62-1.4 1.4-1.4v0z" stroke-width="2" stroke-linecap="round" stroke-linejoin="round"/>
  <path d="M17.33 13.9l-4.86 6.34a2.31 2.31 0 01-3.62.06v0a2.39 2.39 0 01-.55-1.52v-4.36H4.18c-.8 0-1.55-.4-2-1.07l-.44-.65a2.4 2.4 0 01-.31-2l1.81-6.3a2.4 2.4 0 012.3-1.73h8.4c.66 0 1.3.27 1.75.76l1.64 1.77" stroke-width="2" stroke-linecap="round" stroke-linejoin="round"/>
</svg>
