<svg width="24" height="24" viewBox="0 0 24 24" fill="none" stroke="currentColor" xmlns="http://www.w3.org/2000/svg">
  <path clip-rule="evenodd" d="M5.26 21.33H2.74a1.4 1.4 0 01-1.4-1.4v-9.86c0-.77.62-1.4 1.4-1.4h2.52c.78 0 1.4.63 1.4 1.4v9.86c0 .77-.62 1.4-1.4 1.4v0z" stroke-width="2" stroke-linecap="round" stroke-linejoin="round"/>
  <path d="M6.67 10.1l4.86-6.34a2.31 2.31 0 013.62-.06v0c.35.43.55.97.55 1.52v4.36h4.12c.8 0 1.55.4 2 1.07l.44.65c.4.6.5 1.32.31 2l-1.81 6.3a2.4 2.4 0 01-2.3 1.73h-8.4a2.4 2.4 0 01-1.75-.76L6.67 18.8" stroke-width="2" stroke-linecap="round" stroke-linejoin="round"/>
</svg>
