<svg width="454" height="494" viewBox="0 0 454 494" fill="none" xmlns="http://www.w3.org/2000/svg">
<path d="M128.51 22.2241C149.066 26.3514 162.076 51.0155 172.733 80.9695C183.576 110.899 191.973 146.224 177.548 164.481C163.03 182.844 125.596 184.244 96.0252 176.711C66.5473 169.26 44.839 152.982 38.8015 130.492C32.6713 107.92 42.212 79.1358 60.9394 56.7393C79.7604 34.2364 107.862 18.0151 128.51 22.2241Z" fill="#FFFBE4"/>
<path d="M353.815 145.869C390.088 184.25 404.995 246.25 398.535 301.271C392.324 356.561 364.499 404.873 328.226 440.301C292.201 475.73 247.482 498.275 207.979 492.639C168.477 487.002 134.191 453.184 104.627 417.756C75.0617 382.327 50.2173 345.288 45.7454 303.418C41.2734 261.548 57.1738 214.847 86.7386 176.466C116.303 138.086 159.533 108.025 209.967 100.51C260.152 92.7264 317.543 107.488 353.815 145.869Z" fill="#E8FAF4"/>
<path d="M409.29 437.457C380.248 456.064 293.086 489.53 248.633 462.122C203.983 434.965 202.042 346.682 200.067 305.444C198.091 263.954 240.284 211.979 283.749 187.337C327.016 162.694 376.761 158.785 407.779 181.667C438.995 204.549 452.755 260.434 453.941 312.233C455.126 364.284 438.53 418.849 409.29 437.457Z" fill="#FFF7EE"/>
<path d="M34.7961 168.537C38.8832 172.618 40.5628 179.21 39.835 185.06C39.1351 190.939 35.9998 196.076 31.9128 199.843C27.8537 203.61 22.8148 206.008 18.3638 205.408C13.9128 204.809 10.0497 201.213 6.71848 197.446C3.38724 193.679 0.58787 189.741 0.0839842 185.289C-0.419901 180.837 1.37169 175.871 4.70294 171.79C8.03418 167.709 12.9051 164.513 18.5878 163.714C24.2425 162.886 30.709 164.456 34.7961 168.537Z" fill="#FFF7EE"/>
</svg>
