<svg width="154" height="132" viewBox="0 0 154 132" fill="none" xmlns="http://www.w3.org/2000/svg">
<path d="M77.0004 15.8184V33.8184" stroke="#B0B5C9" stroke-width="8.1875" stroke-linecap="round" stroke-linejoin="round"/>
<path d="M8 77.7812C8 71.1538 13.3726 65.7812 20 65.7812H134C140.627 65.7812 146 71.1538 146 77.7812V127.781H8V77.7812Z" fill="#DADDE6"/>
<path fill-rule="evenodd" clip-rule="evenodd" d="M33.7996 127.619V54.5902C33.7996 52.0065 35.184 49.6208 37.4274 48.3389L73.4274 27.7675C75.6409 26.5026 78.3582 26.5026 80.5718 27.7675L116.572 48.3389C118.815 49.6208 120.2 52.0065 120.2 54.5902V127.619" fill="#F3F4F7"/>
<path d="M51.8004 98.4945H102.2" stroke="#B0B5C9" stroke-width="8.1875" stroke-linecap="round" stroke-linejoin="round"/>
<path d="M77.0005 98.8184V127.618" stroke="#B0B5C9" stroke-width="8.1875" stroke-linecap="round" stroke-linejoin="round"/>
<path d="M98.6004 98.8184V127.618" stroke="#B0B5C9" stroke-width="8.1875" stroke-linecap="round" stroke-linejoin="round"/>
<path d="M55.4004 127.618V98.8184" stroke="#B0B5C9" stroke-width="8.1875" stroke-linecap="round" stroke-linejoin="round"/>
<rect x="77" y="4.78125" width="22" height="15" rx="2.72917" stroke="#B0B5C9" stroke-width="8.1875" stroke-linecap="round" stroke-linejoin="round"/>
<path d="M75.7216 56.1503L75.7247 56.1472C76.4267 55.4629 77.5505 55.4769 78.2352 56.1784C78.92 56.88 78.9067 58.0037 78.2056 58.6889C77.5045 59.3741 76.3807 59.3616 75.6951 58.6609C75.0094 57.9601 75.0213 56.8364 75.7216 56.1503" stroke="#B0B5C9" stroke-width="8.1875" stroke-linecap="round" stroke-linejoin="round"/>
<path d="M5 127.619H149" stroke="#B0B5C9" stroke-width="8.1875" stroke-linecap="round" stroke-linejoin="round"/>
</svg>
