<svg width="320" height="197" viewBox="0 0 320 197" fill="none" xmlns="http://www.w3.org/2000/svg">
<path d="M289.358 0H10.3224C4.6215 0 0 4.6215 0 10.3224V156.126C0 161.827 4.6215 166.449 10.3224 166.449H289.358C295.059 166.449 299.68 161.827 299.68 156.126V10.3224C299.68 4.6215 295.059 0 289.358 0Z" fill="#F3F4F7"/>
<path d="M134.191 18.0642H20.6446C19.2193 18.0642 18.064 19.2196 18.064 20.6448V30.9672C18.064 32.3924 19.2193 33.5478 20.6446 33.5478H134.191C135.616 33.5478 136.772 32.3924 136.772 30.9672V20.6448C136.772 19.2196 135.616 18.0642 134.191 18.0642Z" fill="#B0B5C9"/>
<path d="M98.0626 38.709H20.6446C19.2193 38.709 18.064 39.8644 18.064 41.2896V51.612C18.064 53.0372 19.2193 54.1926 20.6446 54.1926H98.0626C99.4878 54.1926 100.643 53.0372 100.643 51.612V41.2896C100.643 39.8644 99.4878 38.709 98.0626 38.709Z" fill="#DADDE6"/>
<path d="M31.298 127.74H20.9756C19.5504 127.74 18.395 128.895 18.395 130.32V145.804C18.395 147.229 19.5504 148.385 20.9756 148.385H31.298C32.7233 148.385 33.8786 147.229 33.8786 145.804V130.32C33.8786 128.895 32.7233 127.74 31.298 127.74Z" fill="#DADDE6"/>
<path d="M51.9426 127.74H41.6202C40.1949 127.74 39.0396 128.895 39.0396 130.32V145.804C39.0396 147.229 40.1949 148.385 41.6202 148.385H51.9426C53.3678 148.385 54.5232 147.229 54.5232 145.804V130.32C54.5232 128.895 53.3678 127.74 51.9426 127.74Z" fill="#DADDE6"/>
<path d="M72.5876 94.1919H62.2652C60.8399 94.1919 59.6846 95.3473 59.6846 96.7725V145.804C59.6846 147.229 60.8399 148.385 62.2652 148.385H72.5876C74.0128 148.385 75.1682 147.229 75.1682 145.804V96.7725C75.1682 95.3473 74.0128 94.1919 72.5876 94.1919Z" fill="#DADDE6"/>
<path d="M93.2321 127.74H82.9097C81.4845 127.74 80.3291 128.895 80.3291 130.32V145.804C80.3291 147.229 81.4845 148.385 82.9097 148.385H93.2321C94.6573 148.385 95.8127 147.229 95.8127 145.804V130.32C95.8127 128.895 94.6573 127.74 93.2321 127.74Z" fill="#DADDE6"/>
<path d="M113.877 94.1919H103.555C102.129 94.1919 100.974 95.3473 100.974 96.7725V145.804C100.974 147.229 102.129 148.385 103.555 148.385H113.877C115.302 148.385 116.458 147.229 116.458 145.804V96.7725C116.458 95.3473 115.302 94.1919 113.877 94.1919Z" fill="#DADDE6"/>
<path d="M134.687 82.5791H124.365C122.94 82.5791 121.784 83.7345 121.784 85.1597V145.804C121.784 147.229 122.94 148.384 124.365 148.384H134.687C136.112 148.384 137.268 147.229 137.268 145.804V85.1597C137.268 83.7345 136.112 82.5791 134.687 82.5791Z" fill="#DADDE6"/>
<path d="M155.167 94.1919H144.844C143.419 94.1919 142.264 95.3473 142.264 96.7725V145.804C142.264 147.229 143.419 148.385 144.844 148.385H155.167C156.592 148.385 157.747 147.229 157.747 145.804V96.7725C157.747 95.3473 156.592 94.1919 155.167 94.1919Z" fill="#DADDE6"/>
<path d="M175.811 64.5151H165.489C164.064 64.5151 162.908 65.6705 162.908 67.0957V145.804C162.908 147.229 164.064 148.385 165.489 148.385H175.811C177.236 148.385 178.392 147.229 178.392 145.804V67.0957C178.392 65.6705 177.236 64.5151 175.811 64.5151Z" fill="#DADDE6"/>
<path d="M196.622 82.5791H186.299C184.874 82.5791 183.719 83.7345 183.719 85.1597V145.804C183.719 147.229 184.874 148.384 186.299 148.384H196.622C198.047 148.384 199.202 147.229 199.202 145.804V85.1597C199.202 83.7345 198.047 82.5791 196.622 82.5791Z" fill="#DADDE6"/>
<path d="M217.266 94.1919H206.944C205.519 94.1919 204.363 95.3473 204.363 96.7725V145.804C204.363 147.229 205.519 148.385 206.944 148.385H217.266C218.692 148.385 219.847 147.229 219.847 145.804V96.7725C219.847 95.3473 218.692 94.1919 217.266 94.1919Z" fill="#DADDE6"/>
<path d="M237.911 82.5791H227.589C226.164 82.5791 225.008 83.7345 225.008 85.1597V145.804C225.008 147.229 226.164 148.384 227.589 148.384H237.911C239.337 148.384 240.492 147.229 240.492 145.804V85.1597C240.492 83.7345 239.337 82.5791 237.911 82.5791Z" fill="#DADDE6"/>
<path d="M258.556 64.5151H248.233C246.808 64.5151 245.653 65.6705 245.653 67.0957V145.804C245.653 147.229 246.808 148.385 248.233 148.385H258.556C259.981 148.385 261.136 147.229 261.136 145.804V67.0957C261.136 65.6705 259.981 64.5151 258.556 64.5151Z" fill="#DADDE6"/>
<path d="M279.035 64.5151H268.713C267.288 64.5151 266.132 65.6705 266.132 67.0957V145.804C266.132 147.229 267.288 148.385 268.713 148.385H279.035C280.461 148.385 281.616 147.229 281.616 145.804V67.0957C281.616 65.6705 280.461 64.5151 279.035 64.5151Z" fill="#DADDE6"/>
<path fill-rule="evenodd" clip-rule="evenodd" d="M304.838 169.291C313.68 162.131 319.333 151.188 319.333 138.925C319.333 117.358 301.849 99.875 280.282 99.875C258.715 99.875 241.232 117.358 241.232 138.925C241.232 160.492 258.715 177.976 280.282 177.976C286.113 177.976 291.646 176.698 296.615 174.407L311.308 194.927C312.862 197.097 315.864 197.572 318.012 195.989C320.161 194.405 320.643 191.362 319.089 189.191L304.838 169.291Z" fill="#B0B5C9"/>
<ellipse cx="279.7" cy="138.907" rx="28.8506" ry="29.2728" fill="#DADDE6"/>
</svg>
