<svg width="320" height="171" viewBox="0 0 320 171" fill="none" xmlns="http://www.w3.org/2000/svg">
<g clip-path="url(#clip0_521_11164)">
<path d="M144.505 0.00012207H6.49462C2.90774 0.00012207 0 4.89624 0 10.9359V138.064C0 144.104 2.90774 149 6.49462 149H144.505C148.092 149 151 144.104 151 138.064V10.9359C151 4.89624 148.092 0.00012207 144.505 0.00012207Z" fill="#F3F4F7"/>
<path fill-rule="evenodd" clip-rule="evenodd" d="M84.3706 70.1143C81.7866 72.8506 78.1262 74.5688 74.0551 74.5688C66.2325 74.5688 59.891 68.2634 59.891 60.4852C59.891 52.707 66.2325 46.4015 74.0551 46.4015V20.2462C51.8013 20.2462 33.5863 38.3578 33.5863 60.4852C33.5863 82.6126 51.8013 100.724 74.0551 100.724C85.7445 100.724 96.3089 95.8069 103.51 87.9845L84.3706 70.1143Z" fill="#DADDE6"/>
<path fill-rule="evenodd" clip-rule="evenodd" d="M73.7927 20.2462V46.4015C81.5646 46.4015 87.8649 52.707 87.8649 60.4852H113.999C113.999 38.3578 95.9022 20.2462 73.7927 20.2462Z" fill="#9199B5"/>
<path fill-rule="evenodd" clip-rule="evenodd" d="M87.9055 60.4843C87.9055 64.9547 85.8019 68.9284 82.5341 71.4941L98.6102 91.9756C107.968 84.643 114 73.2767 114 60.4843H87.9055Z" fill="#B0B5C9"/>
<path d="M302.505 51.0001H164.495C160.908 51.0001 158 54.2204 158 58.1928V141.807C158 145.78 160.908 149 164.495 149H302.505C306.092 149 309 145.78 309 141.807V58.1928C309 54.2204 306.092 51.0001 302.505 51.0001Z" fill="#F3F4F7"/>
<path d="M177 116.12C177 114.398 174.985 113 172.5 113C170.015 113 168 114.398 168 116.12V135.88C168 137.604 170.015 139 172.5 139C174.985 139 177 137.604 177 135.88V116.12Z" fill="#DADDE6"/>
<path d="M193 100.073C193 98.3761 190.538 97.0001 187.5 97.0001C184.463 97.0001 182 98.3761 182 100.073V135.927C182 137.624 184.463 139 187.5 139C190.538 139 193 137.624 193 135.927V100.073Z" fill="#DADDE6"/>
<path d="M209 92.0619C209 90.371 206.538 89.0001 203.5 89.0001C200.463 89.0001 198 90.371 198 92.0619V135.939C198 137.63 200.463 139 203.5 139C206.538 139 209 137.63 209 135.939V92.0619Z" fill="#DADDE6"/>
<path d="M223 100.073C223 98.3761 220.762 97.0001 218 97.0001C215.239 97.0001 213 98.3761 213 100.073V135.927C213 137.624 215.239 139 218 139C220.762 139 223 137.624 223 135.927V100.073Z" fill="#DADDE6"/>
<path d="M239 83.1059C239 81.3903 236.538 80.0001 233.5 80.0001C230.463 80.0001 228 81.3903 228 83.1059V135.895C228 137.61 230.463 139 233.5 139C236.538 139 239 137.61 239 135.895V83.1059Z" fill="#DADDE6"/>
<path d="M253 83.1059C253 81.3903 250.985 80.0001 248.5 80.0001C246.015 80.0001 244 81.3903 244 83.1059V135.895C244 137.61 246.015 139 248.5 139C250.985 139 253 137.61 253 135.895V83.1059Z" fill="#DADDE6"/>
<path d="M269 100.073C269 98.3761 266.538 97.0001 263.5 97.0001C260.463 97.0001 258 98.3761 258 100.073V135.927C258 137.624 260.463 139 263.5 139C266.538 139 269 137.624 269 135.927V100.073Z" fill="#DADDE6"/>
<path d="M285 75.5262C285 73.5789 282.538 72.0001 279.5 72.0001C276.463 72.0001 274 73.5789 274 75.5262V135.474C274 137.421 276.463 139 279.5 139C282.538 139 285 137.421 285 135.474V75.5262Z" fill="#DADDE6"/>
<path d="M299 65.1054C299 62.8381 296.985 61.0001 294.5 61.0001C292.015 61.0001 290 62.8381 290 65.1054V134.895C290 137.162 292.015 139 294.5 139C296.985 139 299 137.162 299 134.895V65.1054Z" fill="#DADDE6"/>
<path d="M129.11 109.881H21.0142C19.9018 109.881 19 111.185 19 112.793V113.812C19 115.42 19.9018 116.723 21.0142 116.723H129.11C130.223 116.723 131.124 115.42 131.124 113.812V112.793C131.124 111.185 130.223 109.881 129.11 109.881Z" fill="#DADDE6"/>
<path d="M110.679 121.723H39.4455C38.3331 121.723 37.4313 123.027 37.4313 124.635V125.654C37.4313 127.262 38.3331 128.566 39.4455 128.566H110.679C111.791 128.566 112.693 127.262 112.693 125.654V124.635C112.693 123.027 111.791 121.723 110.679 121.723Z" fill="#DADDE6"/>
<path d="M306.03 0.196777H160.335C158.852 0.196777 157.649 1.93492 157.649 4.07901V41.9308C157.649 44.0749 158.852 45.813 160.335 45.813H306.03C307.513 45.813 308.715 44.0749 308.715 41.9308V4.07901C308.715 1.93492 307.513 0.196777 306.03 0.196777Z" fill="#F3F4F7"/>
<path d="M273.803 13.8818H165.707C164.595 13.8818 163.693 15.1855 163.693 16.7935V17.8126C163.693 19.4207 164.595 20.7242 165.707 20.7242H273.803C274.916 20.7242 275.817 19.4207 275.817 17.8126V16.7935C275.817 15.1855 274.916 13.8818 273.803 13.8818Z" fill="#DADDE6"/>
<path d="M236.941 25.2856H165.707C164.595 25.2856 163.693 26.5893 163.693 28.1973V29.2164C163.693 30.8245 164.595 32.1281 165.707 32.1281H236.941C238.052 32.1281 238.955 30.8245 238.955 29.2164V28.1973C238.955 26.5893 238.052 25.2856 236.941 25.2856Z" fill="#DADDE6"/>
<path fill-rule="evenodd" clip-rule="evenodd" d="M310.454 153.119C315.97 148.653 319.497 141.825 319.497 134.174C319.497 120.717 308.588 109.808 295.132 109.808C281.675 109.808 270.766 120.717 270.766 134.174C270.766 147.631 281.675 158.539 295.132 158.539C298.77 158.539 302.222 157.742 305.322 156.312L314.49 169.115C315.46 170.469 317.333 170.766 318.674 169.778C320.014 168.79 320.314 166.891 319.345 165.537L310.454 153.119Z" fill="#B0B5C9"/>
<path d="M294.769 152.427C304.711 152.427 312.77 144.249 312.77 134.162C312.77 124.075 304.711 115.897 294.769 115.897C284.827 115.897 276.767 124.075 276.767 134.162C276.767 144.249 284.827 152.427 294.769 152.427Z" fill="#DADDE6"/>
</g>
<defs>
<clipPath id="clip0_521_11164">
<rect width="320" height="170.558" fill="white"/>
</clipPath>
</defs>
</svg>
