<svg width="120" height="120" viewBox="0 0 120 120" fill="none" xmlns="http://www.w3.org/2000/svg">
<path d="M59.9992 39.599C62.6502 39.599 64.7992 37.1814 64.7992 34.1992C64.7992 31.2169 62.6502 28.7993 59.9992 28.7993C57.3483 28.7993 55.1992 31.2169 55.1992 34.1992C55.1992 37.1814 57.3483 39.599 59.9992 39.599Z" fill="#DADDE6"/>
<path d="M109.57 20.87V62.6089C106.803 62.6091 104.149 63.7085 102.192 65.6652C100.235 67.622 99.1357 70.2759 99.1355 73.0432H79.4375C79.0802 72.4279 78.6606 71.8509 78.1853 71.3213C78.3294 69.8089 78.1376 68.2833 77.6235 66.8537C77.1094 65.424 76.2858 64.1257 75.2114 63.0514C74.1371 61.9771 72.8387 61.1535 71.409 60.6394C69.9794 60.1253 68.4537 59.9335 66.9413 60.0776C65.0436 58.3489 62.569 57.3908 60.002 57.3908C57.435 57.3908 54.9604 58.3489 53.0627 60.0776C51.5503 59.9335 50.0246 60.1253 48.595 60.6394C47.1653 61.1535 45.8669 61.9771 44.7926 63.0514C43.7183 64.1257 42.8946 65.424 42.3805 66.8537C41.8664 68.2833 41.6746 69.8089 41.8187 71.3213C41.3434 71.8509 40.9238 72.4279 40.5665 73.0432H20.8727C20.8725 70.2758 19.7731 67.6218 17.8161 65.665C15.8591 63.7082 13.205 62.6089 10.4375 62.6089V20.87C11.8079 20.87 13.1648 20.6 14.4309 20.0756C15.6969 19.5512 16.8473 18.7826 17.8163 17.8136C18.7853 16.8447 19.554 15.6943 20.0784 14.4283C20.6028 13.1623 20.8727 11.8054 20.8727 10.4351H99.1355C99.1355 13.2025 100.235 15.8565 102.192 17.8134C104.149 19.7703 106.803 20.8698 109.57 20.87ZM65.2217 33.913C65.2217 32.8806 64.9156 31.8714 64.342 31.013C63.7684 30.1546 62.9531 29.4855 61.9993 29.0905C61.0455 28.6954 59.9959 28.592 58.9833 28.7934C57.9707 28.9948 57.0406 29.492 56.3106 30.222C55.5806 30.952 55.0834 31.8821 54.882 32.8946C54.6806 33.9072 54.784 34.9567 55.179 35.9105C55.5741 36.8643 56.2432 37.6796 57.1016 38.2531C57.96 38.8267 58.9693 39.1328 60.0017 39.1328C61.3861 39.1328 62.7139 38.5829 63.6928 37.604C64.6717 36.625 65.2217 35.2974 65.2217 33.913Z" fill="#FCFCFC"/>
<path d="M120 0V83.478H79.434C80.3735 81.8998 80.8695 80.0972 80.8695 78.2605C80.8695 76.4238 80.3735 74.6212 79.434 73.0431H99.1302C99.1302 70.2756 100.23 67.6214 102.187 65.6645C104.144 63.7076 106.798 62.6082 109.565 62.6082V20.8692C106.798 20.8692 104.144 19.7698 102.187 17.8129C100.23 15.856 99.1302 13.2018 99.1302 10.4343H20.8698C20.8698 13.2017 19.7705 15.8558 17.8136 17.8127C15.8568 19.7696 13.2027 20.869 10.4352 20.8692V62.6082C13.2028 62.6082 15.857 63.7076 17.814 65.6645C19.771 67.6214 20.8704 70.2756 20.8704 73.0431H40.566C39.6265 74.6212 39.1305 76.4238 39.1305 78.2605C39.1305 80.0972 39.6265 81.8998 40.566 83.478H0V0H120Z" fill="#DADDE6"/>
<path d="M62.1728 32.9084C62.5937 32.4876 62.4607 31.6723 61.8758 31.0875C61.291 30.5027 60.4758 30.3697 60.0549 30.7905C59.6341 31.2114 59.7671 32.0266 60.3519 32.6114C60.9368 33.1962 61.752 33.3292 62.1728 32.9084Z" fill="#FCFCFC"/>
<path d="M94.2016 23.9993H72.6016V28.7991H94.2016V23.9993Z" fill="#DADDE6"/>
<path d="M94.2016 33.5989H72.6016V39.5987H94.2016V33.5989Z" fill="#DADDE6"/>
<path d="M47.4008 23.9993H25.8008V28.7991H47.4008V23.9993Z" fill="#DADDE6"/>
<path d="M47.4008 33.5989H25.8008V39.5987H47.4008V33.5989Z" fill="#DADDE6"/>
<path d="M94.2008 44.3987H25.8008V49.1985H94.2008V44.3987Z" fill="#DADDE6"/>
<path d="M60.0022 26.0867C58.4543 26.0867 56.9411 26.5457 55.6541 27.4056C54.367 28.2656 53.3639 29.4878 52.7715 30.9179C52.1792 32.3479 52.0242 33.9215 52.3262 35.4396C52.6282 36.9578 53.3735 38.3523 54.4681 39.4468C55.5626 40.5413 56.9572 41.2867 58.4753 41.5886C59.9935 41.8906 61.5671 41.7356 62.9972 41.1433C64.4273 40.5509 65.6496 39.5478 66.5096 38.2608C67.3696 36.9738 67.8286 35.4607 67.8286 33.9128C67.8286 32.8851 67.6261 31.8674 67.2328 30.9179C66.8395 29.9684 66.263 29.1056 65.5363 28.3789C64.8095 27.6522 63.9468 27.0757 62.9972 26.6824C62.0477 26.2891 61.03 26.0867 60.0022 26.0867ZM60.0022 39.1303C58.9698 39.1303 57.9605 38.8241 57.1021 38.2506C56.2437 37.677 55.5746 36.8618 55.1795 35.908C54.7844 34.9542 54.6811 33.9046 54.8825 32.8921C55.0839 31.8795 55.5811 30.9495 56.3111 30.2195C57.0411 29.4894 57.9712 28.9923 58.9838 28.7909C59.9964 28.5895 61.046 28.6929 61.9998 29.0879C62.9536 29.483 63.7689 30.152 64.3425 31.0104C64.916 31.8688 65.2222 32.8781 65.2222 33.9104C65.2222 34.5959 65.0872 35.2747 64.8248 35.908C64.5625 36.5413 64.178 37.1167 63.6933 37.6014C63.2086 38.0861 62.6331 38.4706 61.9998 38.7329C61.3665 38.9953 60.6877 39.1303 60.0022 39.1303Z" fill="#F3F4F7"/>
<path d="M60.0015 99.1302L49.5669 120L44.3469 109.565L33.9141 114.783L43.8795 92.3738C44.1472 92.768 44.4531 93.135 44.7927 93.4693C45.8718 94.5367 47.1709 95.3557 48.5992 95.8694C50.0275 96.3831 51.5507 96.579 53.0625 96.4435C54.9651 98.1639 57.4363 99.1207 60.0015 99.1302Z" fill="#F3F4F7"/>
<path d="M76.1259 92.3738L86.0913 114.783L75.6561 109.563L70.4361 119.998L60.0039 99.1302C62.5693 99.1208 65.0407 98.164 66.9435 96.4435C68.4553 96.579 69.9785 96.3831 71.4068 95.8694C72.8351 95.3557 74.1341 94.5367 75.2133 93.4693C75.5527 93.135 75.8583 92.768 76.1259 92.3738Z" fill="#F3F4F7"/>
<path d="M60.0021 67.5744C62.8588 67.5427 65.6112 68.6471 67.6537 70.6446C69.6962 72.6422 70.8615 75.3692 70.8933 78.2259C70.8615 81.0826 69.6962 83.8096 67.6537 85.8071C65.6112 87.8047 62.8588 88.9091 60.0021 88.8774C57.1457 88.9084 54.394 87.8037 52.352 85.8063C50.3101 83.8088 49.1451 81.0821 49.1133 78.2259C49.1451 75.3696 50.3101 72.6429 52.352 70.6455C54.394 68.648 57.1457 67.5434 60.0021 67.5744Z" fill="#DADDE6"/>
<path d="M79.4393 73.043C80.3788 74.6212 80.8748 76.4238 80.8748 78.2605C80.8748 80.0972 80.3788 81.8997 79.4393 83.4779C79.082 84.0933 78.6624 84.6703 78.1871 85.1999C78.4198 87.7646 77.6846 90.3237 76.1261 92.3739C75.8584 92.7681 75.5525 93.1351 75.2129 93.4694C74.1337 94.5368 72.8347 95.3558 71.4064 95.8695C69.9781 96.3832 68.4549 96.5791 66.9431 96.4436C65.0454 98.1722 62.5708 99.1303 60.0038 99.1303C57.4368 99.1303 54.9622 98.1722 53.0645 96.4436C51.5527 96.5791 50.0295 96.3832 48.6012 95.8695C47.1729 95.3558 45.8739 94.5368 44.7947 93.4694C44.4551 93.1351 44.1492 92.7681 43.8815 92.3739C42.323 90.3237 41.5878 87.7646 41.8205 85.1999C41.3452 84.6703 40.9256 84.0933 40.5683 83.4779C39.6288 81.8997 39.1328 80.0972 39.1328 78.2605C39.1328 76.4238 39.6288 74.6212 40.5683 73.043C40.9256 72.4277 41.3452 71.8507 41.8205 71.3211C41.6764 69.8087 41.8682 68.2831 42.3823 66.8535C42.8964 65.4238 43.7201 64.1255 44.7944 63.0512C45.8687 61.9769 47.1671 61.1533 48.5968 60.6392C50.0264 60.1251 51.5521 59.9333 53.0645 60.0774C54.9622 58.3488 57.4368 57.3906 60.0038 57.3906C62.5708 57.3906 65.0454 58.3488 66.9431 60.0774C68.4555 59.9333 69.9812 60.1251 71.4108 60.6392C72.8405 61.1533 74.1389 61.9769 75.2132 63.0512C76.2875 64.1255 77.1112 65.4238 77.6253 66.8535C78.1394 68.2831 78.3312 69.8087 78.1871 71.3211C78.6624 71.8507 79.082 72.4277 79.4393 73.043ZM70.4393 78.2629C70.4398 76.199 69.8282 74.1812 68.6818 72.4649C67.5355 70.7486 65.9059 69.4107 63.9991 68.6206C62.0924 67.8304 59.9942 67.6234 57.9698 68.0258C55.9454 68.4282 54.0858 69.4218 52.6262 70.8811C51.1665 72.3403 50.1724 74.1996 49.7696 76.2239C49.3667 78.2481 49.5733 80.3463 50.363 82.2532C51.1527 84.1601 52.4903 85.7899 54.2064 86.9366C55.9225 88.0833 57.9401 88.6954 60.0041 88.6954C62.7716 88.6952 65.4257 87.5958 67.3825 85.6389C69.3394 83.682 70.4387 81.0279 70.4387 78.2605L70.4393 78.2629Z" fill="#F3F4F7"/>
<path d="M66.5059 77.0059C67.3462 76.1655 67.0796 74.5365 65.9103 73.3672C64.741 72.198 63.1119 71.9314 62.2716 72.7717C61.4312 73.612 61.6979 75.2411 62.8672 76.4103C64.0364 77.5795 65.6655 77.8462 66.5059 77.0059Z" fill="#F3F4F7"/>
<path d="M56.958 79.8627C57.3788 79.4419 57.2458 78.6267 56.661 78.0419C56.0762 77.457 55.2609 77.3241 54.8401 77.7449C54.4193 78.1657 54.5522 78.9809 55.1371 79.5658C55.7219 80.1506 56.5372 80.2835 56.958 79.8627Z" fill="#F3F4F7"/>
<path d="M60.0019 83.4778C57.6934 83.4747 55.4516 82.7041 53.629 81.2873C51.8065 79.8705 50.5068 77.8879 49.9345 75.6516C49.5121 77.1996 49.4523 78.8242 49.76 80.3991C50.0676 81.974 50.7343 83.4567 51.7082 84.732C52.6822 86.0073 53.9371 87.0408 55.3755 87.7522C56.8139 88.4635 58.3969 88.8336 60.0016 88.8336C61.6063 88.8336 63.1894 88.4635 64.6277 87.7522C66.0661 87.0408 67.3211 86.0073 68.295 84.732C69.2689 83.4567 69.9356 81.974 70.2433 80.3991C70.5509 78.8242 70.4912 77.1996 70.0687 75.6516C69.4964 77.8878 68.1968 79.8703 66.3744 81.2871C64.552 82.7039 62.3103 83.4745 60.0019 83.4778Z" fill="#DADDE6"/>
<path d="M60.0049 65.2168C57.4251 65.2168 54.9032 65.9818 52.7581 67.415C50.613 68.8483 48.9411 70.8854 47.9539 73.2688C46.9666 75.6523 46.7083 78.2749 47.2116 80.8051C47.7149 83.3353 48.9572 85.6595 50.7814 87.4837C52.6057 89.3078 54.9299 90.5501 57.4602 91.0534C59.9905 91.5567 62.6132 91.2984 64.9967 90.3112C67.3801 89.3239 69.4173 87.6521 70.8506 85.5071C72.2839 83.3621 73.0489 80.8402 73.0489 78.2604C73.0489 74.801 71.6747 71.4833 69.2284 69.0372C66.7822 66.591 63.4644 65.2168 60.0049 65.2168ZM60.0049 88.6947C57.941 88.6948 55.9234 88.0829 54.2072 86.9364C52.4911 85.7898 51.1535 84.1601 50.3636 82.2534C49.5737 80.3466 49.367 78.2484 49.7696 76.2242C50.1722 74.2 51.1661 72.3406 52.6255 70.8812C54.085 69.4218 55.9444 68.428 57.9687 68.0254C59.993 67.6228 62.0912 67.8295 63.998 68.6193C65.9048 69.4092 67.5346 70.7468 68.6811 72.4629C69.8277 74.179 70.4397 76.1965 70.4395 78.2604C70.4394 81.0277 69.34 83.6816 67.3831 85.6384C65.4263 87.5952 62.7723 88.6946 60.0049 88.6947Z" fill="#DADDE6"/>
<path d="M51.3236 95.687L44.3516 109.565L49.5716 119.999L60.29 98.6269C58.6232 98.2195 52.7552 96.1952 51.3236 95.687Z" fill="#DADDE6"/>
<path d="M59.7812 98.6357L70.4372 119.999L75.6572 109.564L68.747 95.7048C67.3148 96.2094 61.448 98.2284 59.7812 98.6357Z" fill="#DADDE6"/>
<path d="M79.4393 73.043C79.082 72.4277 78.6624 71.8507 78.1871 71.3211C78.3312 69.8087 78.1394 68.2831 77.6253 66.8535C77.1112 65.4238 76.2875 64.1255 75.2132 63.0512C74.1389 61.9769 72.8405 61.1533 71.4108 60.6392C69.9812 60.1251 68.4555 59.9333 66.9431 60.0774C65.0454 58.3488 62.5708 57.3906 60.0038 57.3906C57.4368 57.3906 54.9622 58.3488 53.0645 60.0774C51.5521 59.9333 50.0264 60.1251 48.5968 60.6392C47.1671 61.1533 45.8687 61.9769 44.7944 63.0512C43.7201 64.1255 42.8964 65.4238 42.3823 66.8535C41.8682 68.2831 41.6764 69.8087 41.8205 71.3211C41.3452 71.8507 40.9256 72.4277 40.5683 73.043C39.6288 74.6212 39.1328 76.4238 39.1328 78.2605C39.1328 80.0972 39.6288 81.8997 40.5683 83.4779C40.9256 84.0933 41.3452 84.6703 41.8205 85.1999C41.5878 87.7646 42.323 90.3237 43.8815 92.3739C44.1492 92.7681 44.4551 93.1351 44.7947 93.4694C45.8739 94.5368 47.1729 95.3558 48.6012 95.8695C50.0295 96.3832 51.5527 96.5791 53.0645 96.4436C54.9622 98.1722 57.4368 99.1303 60.0038 99.1303C62.5708 99.1303 65.0454 98.1722 66.9431 96.4436C68.4549 96.5791 69.9781 96.3832 71.4064 95.8695C72.8347 95.3558 74.1337 94.5368 75.2129 93.4694C75.5525 93.1351 75.8584 92.7681 76.1261 92.3739C77.6846 90.3237 78.4198 87.7646 78.1871 85.1999C78.6624 84.6703 79.082 84.0933 79.4393 83.4779C80.3788 81.8997 80.8748 80.0972 80.8748 78.2605C80.8748 76.4238 80.3788 74.6212 79.4393 73.043ZM77.0105 82.8228C76.6961 83.3616 76.3287 83.8677 75.9137 84.3335C76.1167 86.5777 75.4727 88.8166 74.1083 90.6099C73.8748 90.9556 73.6075 91.2771 73.3103 91.5699C72.3667 92.5041 71.2307 93.2213 69.9815 93.6714C68.7323 94.1216 67.3999 94.2938 66.0773 94.1762C64.4162 95.6886 62.2506 96.5267 60.0041 96.5267C57.7576 96.5267 55.592 95.6886 53.9309 94.1762C52.6074 94.2941 51.2741 94.1218 50.0241 93.6712C48.7741 93.2207 47.6376 92.5027 46.6937 91.5675C46.3965 91.2747 46.1292 90.9532 45.8957 90.6075C44.5313 88.8142 43.8873 86.5753 44.0903 84.3311C43.6759 83.8662 43.3089 83.3611 42.9947 82.8233C42.1733 81.4422 41.7398 79.865 41.7398 78.2581C41.7398 76.6512 42.1733 75.074 42.9947 73.6928C43.3082 73.1546 43.6753 72.6495 44.0903 72.1851C43.9645 70.8616 44.1326 69.5267 44.5826 68.2757C45.0327 67.0247 45.7535 65.8886 46.6936 64.9485C47.6337 64.0085 48.7698 63.2877 50.0208 62.8377C51.2718 62.3877 52.6068 62.2196 53.9303 62.3453C55.5914 60.833 57.757 59.9949 60.0035 59.9949C62.25 59.9949 64.4156 60.833 66.0767 62.3453C67.4002 62.2196 68.7352 62.3877 69.9862 62.8377C71.2372 63.2877 72.3733 64.0085 73.3134 64.9485C74.2535 65.8886 74.9743 67.0247 75.4244 68.2757C75.8744 69.5267 76.0425 70.8616 75.9167 72.1851C76.3317 72.6495 76.6988 73.1546 77.0123 73.6928C77.8336 75.074 78.2672 76.6512 78.2672 78.2581C78.2672 79.865 77.8336 81.4422 77.0123 82.8233L77.0105 82.8228Z" fill="#DADDE6"/>
<path d="M84.2964 71.7386C83.8506 70.9689 83.326 70.2477 82.731 69.5865C82.91 67.6963 82.6693 65.7898 82.0262 64.0034C81.3831 62.2169 80.3534 60.5945 79.0107 59.2521C77.668 57.9096 76.0454 56.8803 74.2587 56.2375C72.4721 55.5947 70.5656 55.3544 68.6754 55.5337C66.3029 53.3736 63.2097 52.1765 60.0012 52.1765C56.7926 52.1765 53.6995 53.3736 51.327 55.5337C49.4367 55.3543 47.5301 55.5945 45.7434 56.2373C43.9567 56.88 42.334 57.9094 40.9912 59.2518C39.6484 60.5943 38.6187 62.2167 37.9756 64.0032C37.3324 65.7897 37.0918 67.6962 37.2708 69.5865C36.354 70.6166 35.6025 71.7826 35.043 73.043H40.5684C40.9257 72.4276 41.3453 71.8506 41.8206 71.321C41.6764 69.8086 41.8683 68.2831 42.3824 66.8534C42.8965 65.4238 43.7201 64.1254 44.7944 63.0511C45.8687 61.9769 47.1672 61.1532 48.5968 60.6391C50.0265 60.1251 51.5521 59.9332 53.0646 60.0774C54.9622 58.3487 57.4368 57.3906 60.0039 57.3906C62.5709 57.3906 65.0455 58.3487 66.9432 60.0774C68.4556 59.9332 69.9812 60.1251 71.4109 60.6391C72.8406 61.1532 74.139 61.9769 75.2133 63.0511C76.2876 64.1254 77.1113 65.4238 77.6254 66.8534C78.1395 68.2831 78.3313 69.8086 78.1872 71.321C78.6624 71.8506 79.082 72.4276 79.4394 73.043H84.9648C84.7673 72.5958 84.5443 72.1603 84.297 71.7386H84.2964Z" fill="#F3F4F7"/>
<path d="M39.4764 80.8715C39.0168 79.1619 39.0168 77.3612 39.4764 75.6516H34.2091C33.8157 77.3693 33.8157 79.1538 34.2091 80.8715H39.4764Z" fill="#DADDE6"/>
<path d="M85.794 75.6516H80.5273C80.9869 77.3612 80.9869 79.1619 80.5273 80.8715H85.794C86.1874 79.1538 86.1874 77.3693 85.794 75.6516Z" fill="#DADDE6"/>
<path d="M39.4776 75.6517C39.5979 75.1958 39.7497 74.7487 39.9318 74.3137C40.1157 73.8766 40.3283 73.452 40.5683 73.043H35.0431C34.672 73.8798 34.3929 74.7545 34.2109 75.6517H39.4776Z" fill="#DADDE6"/>
<path d="M79.4375 73.0432C79.6763 73.4488 79.8881 73.8697 80.0717 74.3032C80.2538 74.7381 80.4055 75.1852 80.5259 75.6411H85.7925C85.6103 74.745 85.3313 73.8713 84.9603 73.0354L79.4375 73.0432Z" fill="#DADDE6"/>
<path d="M39.9298 82.2101C39.7487 81.774 39.598 81.326 39.4786 80.8691H35.2188C35.5647 80.8691 35.8965 81.0066 36.1411 81.2512C36.3857 81.4958 36.5231 81.8276 36.5231 82.1735C36.5231 82.5194 36.3857 82.8512 36.1411 83.0958C35.8965 83.3404 35.5647 83.4779 35.2188 83.4779H40.5664C40.3272 83.0725 40.1153 82.6515 39.9322 82.2179L39.9298 82.2101Z" fill="#DADDE6"/>
<path d="M84.7842 80.8691H80.5244C80.404 81.3261 80.2523 81.7741 80.0702 82.2101C79.8866 82.6465 79.6739 83.07 79.4336 83.4779H84.9588C85.331 82.6412 85.6111 81.7664 85.794 80.8691H84.7842Z" fill="#DADDE6"/>
</svg>
