<svg width="380" height="304" viewBox="0 0 380 304" fill="none" xmlns="http://www.w3.org/2000/svg">
<path fill-rule="evenodd" clip-rule="evenodd" d="M374.151 77.8102C373.861 77.5996 373.174 77.5249 372.855 77.4619C371.526 77.2 370.158 77.0859 368.803 77.0859C364.627 77.0922 360.383 77.5021 356.276 78.2117C353.668 78.6621 350.516 80.1779 347.922 79.3547C343.403 77.9204 338.836 77.9908 334.548 80.0385C330.629 81.9109 327.653 85.4671 325.917 89.3096C325.655 89.8897 324.592 92.0246 324.291 93.4637C324.162 93.758 324.038 94.0543 323.927 94.355C323.611 95.2087 323.327 96.0775 323.064 96.948C322.951 97.3193 322.668 98.1392 323.004 98.2977C322.467 99.2892 321.991 100.311 321.594 101.366C320.441 104.434 319.179 107.799 318.774 111.051C318.624 112.255 318.618 113.466 318.758 114.673C318.826 115.269 318.798 116.468 319.202 116.922C320.06 117.884 320.501 116.537 320.404 115.895C319.665 111.006 321.092 106.415 322.782 101.819C323.875 98.8473 325.671 96.1284 327.682 93.6662C329.31 91.6731 331.057 90.1036 333.289 88.7822C336.018 87.1663 338.936 85.8599 341.827 84.5496C343.728 83.6874 345.632 82.8483 347.586 82.1055C348.021 81.9402 348.705 81.5164 349.187 81.5148C350.206 81.5111 351.65 82.2631 352.634 82.5429C355.872 83.4634 359.151 84.6419 362.497 85.112C364.643 85.4138 366.654 85.0741 368.661 84.359C368.867 84.2862 369.21 84.0984 369.632 83.8303C371.122 83.257 372.532 82.5355 373.759 81.4947C374.466 80.895 375.108 80.12 375.693 79.4106C375.868 79.1986 375.946 78.9554 375.948 78.7244C376.081 78.6551 376.169 78.5742 376.189 78.4796C376.335 77.7815 375.003 77.7686 374.151 77.8102Z" fill="#C2E7FF"/>
<path fill-rule="evenodd" clip-rule="evenodd" d="M34.8913 136.008C34.072 136.671 33.2684 137.349 32.4844 138.054C31.8869 138.592 30.8295 139.235 30.615 140.049C30.392 140.895 31.0959 141.687 31.652 142.199C34.5927 144.904 37.904 146.734 41.9788 147.038C48.253 147.506 53.7134 145.904 59.1571 142.751C62.9811 140.537 65.514 137.261 66.0672 132.838C70.6212 134.73 75.0257 137.339 78.7685 140.541C80.6153 142.121 82.2059 143.871 83.6772 145.811C84.6194 147.054 85.531 148.317 86.3768 149.628C86.7445 150.198 87.1183 151.209 87.7253 151.537C88.438 151.922 89.2992 151.318 89.2639 150.526C89.2346 149.866 88.5224 149.101 88.1896 148.562C87.6365 147.667 87.0752 146.778 86.4841 145.907C85.5277 144.498 84.5391 143.108 83.4609 141.789C81.038 138.825 77.955 136.377 74.7592 134.289C68.6282 130.284 61.8995 127.761 54.4395 127.547C49.8523 127.416 45.9935 128.983 42.0708 131.323C39.6286 132.781 37.1075 134.213 34.8913 136.008Z" fill="#DADDE6"/>
<path fill-rule="evenodd" clip-rule="evenodd" d="M94.3937 116.636C89.6135 111.713 84.8167 106.852 79.4761 102.517C76.3287 99.9625 73.0115 97.6397 69.7629 95.2177C70.1379 95.546 70.5054 95.8839 70.8642 96.23C69.8502 95.5416 68.5227 95.1526 67.4476 94.5154C66.2484 93.8047 65.1022 92.9918 63.9778 92.1723C61.7831 90.5731 59.6214 88.9435 57.3655 87.4277C54.8519 85.7391 52.2471 84.1787 49.6908 82.5537C47.5213 81.1745 45.3252 79.665 43.0043 78.5376C41.7394 77.9231 40.4714 77.1947 39.2013 76.5537C38.7762 76.3393 34.4628 73.6156 34.4737 73.6075C34.7121 73.4278 36.8827 74.4477 37.2183 74.5849C38.1989 74.9854 39.1366 75.4644 40.0794 75.942C39.5619 74.9214 39.1523 73.849 38.9294 72.7203C38.8605 72.3719 38.3086 69.8355 38.591 69.6227C38.732 69.5165 40.1082 74.0543 40.1787 74.4906C40.2359 74.845 40.2275 75.3554 40.3435 75.6909C40.5308 76.2329 40.5214 76.0692 40.934 76.3745C41.6902 76.9341 42.694 77.2838 43.5124 77.7516C43.9538 77.998 45.3203 78.975 46.1433 79.2535C48.6337 80.4631 51.1579 82.324 53.5241 83.8689C52.9031 82.7018 52.4305 81.4814 52.0859 80.2025C52.0039 79.8989 51.1195 77.1751 51.3341 77.0134C51.5755 76.8315 53.2606 80.9914 53.3605 81.3853C53.5459 82.1168 53.5844 82.931 53.8165 83.6428C54.0714 84.424 54.8665 84.7009 55.5832 85.1563C58.2201 86.8316 60.7663 88.6118 63.2702 90.4737C66.0022 85.6148 62.8521 79.7473 60.1972 75.6704C58.2836 72.7323 55.7072 70.2132 52.987 68.0141C49.3567 65.079 45.2032 62.7343 41.0547 60.5896C36.2209 58.0905 30.9964 56.5421 25.5649 55.8268C22.7242 55.4526 19.8179 55.4631 16.9485 55.583C15.5467 55.6416 14.2013 55.8272 12.8579 56.2844C12.2525 56.4907 11.6674 56.7507 11.0971 57.0418C10.6639 57.2629 9.61583 57.4964 9.36675 57.826C7.3162 60.4949 6.26716 63.1544 6.42735 66.5081C6.57884 69.6829 7.5815 72.8592 8.94221 75.6911C10.4576 78.8444 12.4066 81.7063 14.9555 84.1084C16.9003 85.941 19.0745 87.536 21.2344 89.11C28.9164 94.7086 38.6559 99.5778 48.6054 98.3269C51.8261 97.9221 54.8894 96.7958 57.7521 95.2652C58.4266 94.9046 59.0971 94.5398 59.7338 94.1139C60.1631 93.8269 61.3108 92.5333 61.7425 92.4864C62.3344 92.4219 63.6095 93.6258 64.1648 93.9923C68.3848 96.778 72.4943 99.7146 76.5176 102.77C80.7981 106.021 84.8687 109.493 88.8194 113.128C90.4998 114.674 92.1694 116.224 93.801 117.822C94.1808 118.194 95.1096 119.563 95.7984 119.625C96.234 119.664 96.5276 119.292 96.4655 118.889C96.3574 118.188 94.8831 117.14 94.3937 116.636Z" fill="#EBF7FF"/>
<path fill-rule="evenodd" clip-rule="evenodd" d="M369.132 97.5295C367.281 97.125 365.236 97.156 363.35 97.1894C353.235 97.3269 343.302 102.116 336.837 109.768C331.333 116.283 329.82 124.382 328.733 132.569C328.625 133.382 328.579 134.19 328.518 135.005C328.505 135.179 328.486 135.335 328.465 135.482C328.037 135.864 327.813 136.31 328.066 136.8C327.124 138.861 326.327 140.975 325.643 143.155C323.631 149.571 321.584 156.11 322.845 162.857C323.14 159.144 323.759 155.347 324.5 151.695C324.543 151.485 324.589 151.277 324.637 151.07C324.642 151.048 324.647 151.026 324.651 151.005C324.914 149.886 325.255 148.801 325.67 147.733C325.674 147.722 325.678 147.71 325.683 147.699C325.737 147.558 325.796 147.418 325.853 147.279C325.972 146.989 326.094 146.7 326.223 146.413C326.267 146.315 326.309 146.216 326.349 146.117C326.953 144.637 327.208 142.97 327.749 141.439C327.878 141.091 328.014 140.744 328.155 140.399C328.164 140.378 328.172 140.358 328.181 140.338C328.564 139.41 328.987 138.493 329.434 137.585C329.678 137.402 329.808 136.949 330.017 136.537C330.061 136.455 330.4 135.914 330.501 135.602C330.764 135.092 331.027 134.582 331.292 134.073C331.284 134.076 331.276 134.079 331.269 134.082C331.534 133.593 331.8 133.107 332.065 132.622C332.123 132.516 332.182 132.409 332.24 132.302C332.335 132.132 332.43 131.963 332.525 131.793C333.411 130.208 334.35 128.654 335.326 127.119C335.674 126.571 336.506 125.786 336.665 125.171C336.671 125.148 336.673 125.127 336.676 125.105C338.793 122.132 341.231 119.389 344.153 117.216C343.8 117.598 343.049 118.894 342.851 119.15C342.243 119.936 341.583 120.667 340.921 121.408C339.735 122.734 338.578 124.102 337.549 125.549C335.668 128.194 334.045 130.979 332.511 133.819C332.496 133.836 332.48 133.852 332.466 133.869C331.695 134.819 331.21 136.256 330.655 137.343C332.852 136.326 335.28 135.663 337.535 134.76C339.783 133.859 341.97 132.856 344.081 131.678C346.888 130.113 349.799 128.346 352.45 126.346C355.489 124.461 358.042 121.867 360.296 119.144C362.963 115.923 365.407 112.674 366.918 108.763C367.66 106.841 368.244 104.837 368.591 102.81C368.606 102.721 368.625 102.625 368.646 102.526C369.001 101.826 369.317 101.11 369.583 100.377C370.005 99.2156 371.002 97.9378 369.132 97.5295Z" fill="#C2E7FF"/>
<path fill-rule="evenodd" clip-rule="evenodd" d="M55.3762 111.139C54.7961 110.51 54.1446 109.944 53.3797 109.54C53.1863 109.438 51.7458 108.753 51.6519 108.903C51.4334 109.253 55.2019 110.938 55.3762 111.139ZM62.206 106.943C62.2013 106.969 62.7008 107.817 62.8368 108.078C63.1262 108.632 63.3935 109.197 63.6449 109.762C63.2727 108.763 62.8902 107.836 62.206 106.943ZM27.2761 113.842C26.795 113.997 26.2166 113.386 26.8406 113.236C27.3455 113.115 27.3208 113.087 27.5475 112.68C27.7316 112.35 27.845 111.947 28.0065 111.6C28.3492 110.865 28.7378 110.164 29.2149 109.508C30.2375 108.099 31.4833 106.886 32.8806 105.863C35.3191 104.079 38.0533 102.448 40.9537 101.629C45.5654 100.326 50.8141 100.246 55.433 101.149C58.2936 101.708 60.9078 102.681 62.8073 104.984C63.7567 106.135 64.5019 107.484 64.8277 108.968C64.9127 109.357 64.8968 109.788 65.0032 110.168C65.1668 110.752 65.0946 110.597 65.778 110.711C66.5241 110.835 67.2697 110.961 68.015 111.09C69.9664 111.428 71.9293 111.786 73.8308 112.334C74.4567 112.514 75.0687 112.734 75.6666 112.99C76.1189 113.184 77.9196 113.791 78.1383 114.379C78.5026 115.356 77.2822 114.913 76.903 114.7C76.5708 114.514 76.2298 114.34 75.8838 114.179C75.0126 113.776 74.1049 113.464 73.1767 113.216C72.1737 112.948 71.1501 112.748 70.1305 112.547C69.1796 112.36 68.2252 112.19 67.2695 112.028C66.7387 111.937 66.2073 111.849 65.676 111.762C65.4945 111.732 65.1743 111.575 65.1985 111.811C64.0815 111.595 62.8734 111.626 61.7355 111.567C60.3418 111.494 58.9429 111.435 57.5446 111.478C56.536 111.51 55.5266 111.576 54.5232 111.711C53.9368 111.791 53.3599 111.906 52.7846 112.053C52.4686 112.134 51.2225 112.305 51.0504 112.58C51.1244 112.462 52.4996 112.577 52.6746 112.57C53.3747 112.544 54.0694 112.474 54.7669 112.396C56.0614 112.252 57.3564 112.176 58.6548 112.187C58.6499 112.415 57.763 112.821 57.5464 112.972C57.061 113.311 56.596 113.681 56.1622 114.086C55.3981 114.8 54.4831 115.684 53.9545 116.53C54.1103 116.281 54.8787 115.956 55.1515 115.766C55.5883 115.461 56.0163 115.135 56.4213 114.787C56.7951 114.466 57.144 114.119 57.487 113.764C57.8301 113.409 58.2956 112.672 58.7464 112.435C58.7736 112.421 58.9701 112.576 59.0817 112.524C59.1942 112.47 59.3344 112.205 59.363 112.194C59.7826 112.032 60.5795 112.233 61.0206 112.254C62.1645 112.306 63.3074 112.375 64.4506 112.438C64.8047 112.458 65.1056 112.377 65.2394 112.638C65.3819 112.917 65.1208 113.649 65.0465 113.953C64.7708 115.08 64.2813 116.09 63.5107 116.963C62.0675 118.599 60.288 119.689 58.2776 120.419C50.5775 123.212 42.3856 124.331 34.6877 121.425C31.5009 120.222 26.7014 118.072 27.2761 113.842Z" fill="#C2E7FF"/>
<g opacity="0.6">
<path opacity="0.6" fill-rule="evenodd" clip-rule="evenodd" d="M379.843 245.454C385.082 280.916 258.04 304.046 148.693 287.904C39.3452 271.762 -10.8183 208.725 41.3605 175.137C93.5393 141.548 374.605 209.993 379.843 245.454Z" fill="#DADDE6"/>
</g>
<path d="M156.343 13.0288H78.7144C76.3159 13.0288 74.3716 14.9732 74.3716 17.3717V172.629C74.3716 175.027 76.3159 176.972 78.7144 176.972H156.343C158.742 176.972 160.686 175.027 160.686 172.629V17.3717C160.686 14.9732 158.742 13.0288 156.343 13.0288Z" fill="#F3F4F7"/>
<path d="M117.257 166.657C121.755 166.657 125.4 163.012 125.4 158.514C125.4 154.017 121.755 150.372 117.257 150.372C112.76 150.372 109.115 154.017 109.115 158.514C109.115 163.012 112.76 166.657 117.257 166.657Z" fill="#FCFCFC"/>
<path d="M110.2 23.8858C110.8 23.8858 111.286 23.3997 111.286 22.8001C111.286 22.2004 110.8 21.7144 110.2 21.7144C109.601 21.7144 109.115 22.2004 109.115 22.8001C109.115 23.3997 109.601 23.8858 110.2 23.8858Z" fill="#FCFCFC"/>
<path d="M124.315 21.7144H115.086C114.486 21.7144 114 22.2004 114 22.8001C114 23.3997 114.486 23.8858 115.086 23.8858H124.315C124.914 23.8858 125.4 23.3997 125.4 22.8001C125.4 22.2004 124.914 21.7144 124.315 21.7144Z" fill="#FCFCFC"/>
<path d="M150.915 28.229H84.1431C82.9439 28.229 81.9717 29.2012 81.9717 30.4004V55.3719C81.9717 56.5711 82.9439 57.5433 84.1431 57.5433H150.915C152.114 57.5433 153.086 56.5711 153.086 55.3719V30.4004C153.086 29.2012 152.114 28.229 150.915 28.229Z" fill="#FCFCFC"/>
<path d="M141.143 37.0229H104.771C103.872 37.0229 103.143 37.7521 103.143 38.6515V39.7915C103.143 40.691 103.872 41.4201 104.771 41.4201H141.143C142.042 41.4201 142.771 40.691 142.771 39.7915V38.6515C142.771 37.7521 142.042 37.0229 141.143 37.0229Z" fill="#DADDE6"/>
<path d="M128.114 44.3516H104.772C103.872 44.3516 103.143 45.0807 103.143 45.9801V47.1201C103.143 48.0196 103.872 48.7487 104.772 48.7487H128.114C129.014 48.7487 129.743 48.0196 129.743 47.1201V45.9801C129.743 45.0807 129.014 44.3516 128.114 44.3516Z" fill="#DADDE6"/>
<path d="M93.3715 49.4006C96.9692 49.4006 99.8857 46.4841 99.8857 42.8864C99.8857 39.2886 96.9692 36.3721 93.3715 36.3721C89.7737 36.3721 86.8572 39.2886 86.8572 42.8864C86.8572 46.4841 89.7737 49.4006 93.3715 49.4006Z" fill="#B0B5C9"/>
<path d="M150.914 61.8862H84.1429C82.9436 61.8862 81.9714 62.8584 81.9714 64.0577V82.5148C81.9714 83.7141 82.9436 84.6862 84.1429 84.6862H150.914C152.114 84.6862 153.086 83.7141 153.086 82.5148V64.0577C153.086 62.8584 152.114 61.8862 150.914 61.8862Z" fill="#FCFCFC"/>
<path d="M141.143 68.7261H104.771C103.872 68.7261 103.143 69.4552 103.143 70.3546V70.5175C103.143 71.4169 103.872 72.1461 104.771 72.1461H141.143C142.042 72.1461 142.771 71.4169 142.771 70.5175V70.3546C142.771 69.4552 142.042 68.7261 141.143 68.7261Z" fill="#DADDE6"/>
<path d="M128.114 74.4263H104.771C103.872 74.4263 103.143 75.1554 103.143 76.0548V76.2177C103.143 77.1171 103.872 77.8463 104.771 77.8463H128.114C129.014 77.8463 129.743 77.1171 129.743 76.2177V76.0548C129.743 75.1554 129.014 74.4263 128.114 74.4263Z" fill="#DADDE6"/>
<path d="M93.3712 79.8005C96.969 79.8005 99.8855 76.884 99.8855 73.2863C99.8855 69.6885 96.969 66.772 93.3712 66.772C89.7735 66.772 86.8569 69.6885 86.8569 73.2863C86.8569 76.884 89.7735 79.8005 93.3712 79.8005Z" fill="#B0B5C9"/>
<path d="M150.914 89.0293H84.1429C82.9436 89.0293 81.9714 90.0015 81.9714 91.2007V109.658C81.9714 110.857 82.9436 111.829 84.1429 111.829H150.914C152.114 111.829 153.086 110.857 153.086 109.658V91.2007C153.086 90.0015 152.114 89.0293 150.914 89.0293Z" fill="#FCFCFC"/>
<path d="M141.143 95.8691H104.771C103.872 95.8691 103.143 96.5983 103.143 97.4977V97.6606C103.143 98.56 103.872 99.2891 104.771 99.2891H141.143C142.042 99.2891 142.771 98.56 142.771 97.6606V97.4977C142.771 96.5983 142.042 95.8691 141.143 95.8691Z" fill="#DADDE6"/>
<path d="M128.114 101.569H104.771C103.872 101.569 103.143 102.298 103.143 103.198V103.361C103.143 104.26 103.872 104.989 104.771 104.989H128.114C129.014 104.989 129.743 104.26 129.743 103.361V103.198C129.743 102.298 129.014 101.569 128.114 101.569Z" fill="#DADDE6"/>
<path d="M93.3712 106.944C96.969 106.944 99.8855 104.027 99.8855 100.429C99.8855 96.8316 96.969 93.915 93.3712 93.915C89.7735 93.915 86.8569 96.8316 86.8569 100.429C86.8569 104.027 89.7735 106.944 93.3712 106.944Z" fill="#9199B5"/>
<path d="M150.914 116.172H84.1429C82.9436 116.172 81.9714 117.144 81.9714 118.343V136.8C81.9714 138 82.9436 138.972 84.1429 138.972H150.914C152.114 138.972 153.086 138 153.086 136.8V118.343C153.086 117.144 152.114 116.172 150.914 116.172Z" fill="#FCFCFC"/>
<path d="M141.143 123.012H104.771C103.872 123.012 103.143 123.741 103.143 124.641V124.804C103.143 125.703 103.872 126.432 104.771 126.432H141.143C142.042 126.432 142.771 125.703 142.771 124.804V124.641C142.771 123.741 142.042 123.012 141.143 123.012Z" fill="#DADDE6"/>
<path d="M128.114 128.712H104.771C103.872 128.712 103.143 129.442 103.143 130.341V130.504C103.143 131.403 103.872 132.132 104.771 132.132H128.114C129.014 132.132 129.743 131.403 129.743 130.504V130.341C129.743 129.442 129.014 128.712 128.114 128.712Z" fill="#DADDE6"/>
<path d="M93.3712 134.086C96.969 134.086 99.8855 131.17 99.8855 127.572C99.8855 123.974 96.969 121.058 93.3712 121.058C89.7735 121.058 86.8569 123.974 86.8569 127.572C86.8569 131.17 89.7735 134.086 93.3712 134.086Z" fill="#B0B5C9"/>
<path fill-rule="evenodd" clip-rule="evenodd" d="M90.7337 145.486C90.0145 145.486 89.2975 145.5 88.5792 145.538C88.0317 145.566 87.195 145.453 86.7317 145.794C86.2504 146.148 86.2835 146.874 86.3587 147.387C86.7562 150.096 87.7264 152.499 89.7561 154.419C92.8811 157.375 96.4637 158.877 100.703 159.546C103.681 160.016 106.43 159.363 108.622 157.246C110.224 160.218 111.439 163.508 112.049 166.828C112.349 168.467 112.441 170.085 112.388 171.753C112.354 172.822 112.295 173.888 112.181 174.951C112.131 175.414 111.895 176.113 112.076 176.55C112.289 177.062 113.005 177.112 113.326 176.675C113.594 176.311 113.544 175.596 113.599 175.165C113.69 174.45 113.775 173.734 113.835 173.015C113.933 171.852 114.006 170.685 114 169.517C113.988 166.893 113.405 164.259 112.607 161.769C111.076 156.99 108.592 152.743 104.729 149.411C102.354 147.363 99.6351 146.533 96.5508 146.087C94.6306 145.81 92.679 145.486 90.7337 145.486Z" fill="#C2E7FF"/>
<path fill-rule="evenodd" clip-rule="evenodd" d="M101.825 164.486C94.0628 164.486 88.835 170.742 86.3631 177.244C85.4313 179.695 85.213 182.386 84.8538 184.959C84.7385 185.785 84.7813 187.044 84.446 187.779C84.3244 188.046 84.0455 188.142 84.1788 188.506C84.2596 188.726 84.418 188.861 84.6558 188.904C85.1441 188.994 85.8344 188.462 86.253 188.253C89.7252 186.511 92.0064 183.819 93.8675 180.524C95.0211 178.483 96.1916 176.363 96.8769 174.121C97.2955 172.752 97.5392 171.31 97.6823 169.889C97.7386 169.33 97.7931 168.757 97.7898 168.194C97.7865 167.636 97.5267 167.341 97.34 166.855C99.93 165.874 102.853 165.607 105.477 166.623C107.904 167.563 109.919 169.379 111.048 171.66C111.341 172.253 111.567 172.879 111.732 173.517C111.84 173.935 111.845 174.477 112.045 174.855C112.53 175.771 113.549 175.158 113.451 174.306C113.178 171.927 111.818 169.539 110.079 167.886C107.885 165.8 104.912 164.486 101.825 164.486Z" fill="#C2E7FF"/>
<path d="M192.172 27.1431H114.543C112.145 27.1431 110.2 29.0874 110.2 31.4859V186.743C110.2 189.142 112.145 191.086 114.543 191.086H192.172C194.57 191.086 196.514 189.142 196.514 186.743V31.4859C196.514 29.0874 194.57 27.1431 192.172 27.1431Z" fill="#DADDE6"/>
<path d="M153.086 180.772C157.583 180.772 161.229 177.126 161.229 172.629C161.229 168.132 157.583 164.486 153.086 164.486C148.589 164.486 144.943 168.132 144.943 172.629C144.943 177.126 148.589 180.772 153.086 180.772Z" fill="#FCFCFC"/>
<path d="M146.029 38C146.628 38 147.115 37.514 147.115 36.9143C147.115 36.3147 146.628 35.8286 146.029 35.8286C145.429 35.8286 144.943 36.3147 144.943 36.9143C144.943 37.514 145.429 38 146.029 38Z" fill="#FCFCFC"/>
<path d="M160.143 35.8286H150.915C150.315 35.8286 149.829 36.3147 149.829 36.9143C149.829 37.514 150.315 38 150.915 38H160.143C160.743 38 161.229 37.514 161.229 36.9143C161.229 36.3147 160.743 35.8286 160.143 35.8286Z" fill="#FCFCFC"/>
<path d="M186.743 42.3433H119.971C118.772 42.3433 117.8 43.3154 117.8 44.5147V69.4861C117.8 70.6854 118.772 71.6575 119.971 71.6575H186.743C187.942 71.6575 188.914 70.6854 188.914 69.4861V44.5147C188.914 43.3154 187.942 42.3433 186.743 42.3433Z" fill="#FCFCFC"/>
<path d="M160.685 51.1372H124.314C123.414 51.1372 122.685 51.8663 122.685 52.7658V53.9058C122.685 54.8052 123.414 55.5344 124.314 55.5344H160.685C161.585 55.5344 162.314 54.8052 162.314 53.9058V52.7658C162.314 51.8663 161.585 51.1372 160.685 51.1372Z" fill="#DADDE6"/>
<path d="M147.656 58.4663H124.314C123.414 58.4663 122.685 59.1954 122.685 60.0949V61.2349C122.685 62.1343 123.414 62.8635 124.314 62.8635H147.656C148.556 62.8635 149.285 62.1343 149.285 61.2349V60.0949C149.285 59.1954 148.556 58.4663 147.656 58.4663Z" fill="#DADDE6"/>
<path d="M181.314 60.8002C183.413 60.8002 185.114 59.0989 185.114 57.0002C185.114 54.9015 183.413 53.2002 181.314 53.2002C179.215 53.2002 177.514 54.9015 177.514 57.0002C177.514 59.0989 179.215 60.8002 181.314 60.8002Z" fill="#DADDE6"/>
<path d="M181.314 58.6287C182.213 58.6287 182.942 57.8996 182.942 57.0002C182.942 56.1007 182.213 55.3716 181.314 55.3716C180.414 55.3716 179.685 56.1007 179.685 57.0002C179.685 57.8996 180.414 58.6287 181.314 58.6287Z" fill="#F3F4F7"/>
<path d="M186.743 76H119.971C118.772 76 117.8 76.9722 117.8 78.1714V96.6286C117.8 97.8278 118.772 98.8 119.971 98.8H186.743C187.942 98.8 188.914 97.8278 188.914 96.6286V78.1714C188.914 76.9722 187.942 76 186.743 76Z" fill="#FCFCFC"/>
<path d="M176.971 82.8398H140.599C139.7 82.8398 138.971 83.569 138.971 84.4684V84.6313C138.971 85.5307 139.7 86.2598 140.599 86.2598H176.971C177.87 86.2598 178.599 85.5307 178.599 84.6313V84.4684C178.599 83.569 177.87 82.8398 176.971 82.8398Z" fill="#DADDE6"/>
<path d="M163.942 88.54H140.599C139.7 88.54 138.97 89.2692 138.97 90.1686V90.3315C138.97 91.2309 139.7 91.96 140.599 91.96H163.942C164.841 91.96 165.57 91.2309 165.57 90.3315V90.1686C165.57 89.2692 164.841 88.54 163.942 88.54Z" fill="#DADDE6"/>
<path d="M129.199 93.9143C132.797 93.9143 135.714 90.9978 135.714 87.4C135.714 83.8023 132.797 80.8857 129.199 80.8857C125.602 80.8857 122.685 83.8023 122.685 87.4C122.685 90.9978 125.602 93.9143 129.199 93.9143Z" fill="#B0B5C9"/>
<path d="M186.743 103.143H119.971C118.772 103.143 117.8 104.115 117.8 105.314V123.772C117.8 124.971 118.772 125.943 119.971 125.943H186.743C187.942 125.943 188.914 124.971 188.914 123.772V105.314C188.914 104.115 187.942 103.143 186.743 103.143Z" fill="#FCFCFC"/>
<path d="M160.685 109.983H124.314C123.414 109.983 122.685 110.713 122.685 111.612V111.775C122.685 112.674 123.414 113.403 124.314 113.403H160.685C161.584 113.403 162.314 112.674 162.314 111.775V111.612C162.314 110.713 161.584 109.983 160.685 109.983Z" fill="#DADDE6"/>
<path d="M147.656 115.684H124.313C123.414 115.684 122.685 116.413 122.685 117.312V117.475C122.685 118.374 123.414 119.104 124.313 119.104H147.656C148.556 119.104 149.285 118.374 149.285 117.475V117.312C149.285 116.413 148.556 115.684 147.656 115.684Z" fill="#9199B5"/>
<path d="M181.314 118.343C183.412 118.343 185.114 116.642 185.114 114.543C185.114 112.444 183.412 110.743 181.314 110.743C179.215 110.743 177.514 112.444 177.514 114.543C177.514 116.642 179.215 118.343 181.314 118.343Z" fill="#DADDE6"/>
<path d="M181.313 116.172C182.213 116.172 182.942 115.443 182.942 114.543C182.942 113.644 182.213 112.915 181.313 112.915C180.414 112.915 179.685 113.644 179.685 114.543C179.685 115.443 180.414 116.172 181.313 116.172Z" fill="#F3F4F7"/>
<path d="M186.743 130.286H119.971C118.772 130.286 117.8 131.258 117.8 132.458V150.915C117.8 152.114 118.772 153.086 119.971 153.086H186.743C187.942 153.086 188.914 152.114 188.914 150.915V132.458C188.914 131.258 187.942 130.286 186.743 130.286Z" fill="#FCFCFC"/>
<path d="M176.971 137.126H140.599C139.7 137.126 138.971 137.855 138.971 138.755V138.917C138.971 139.817 139.7 140.546 140.599 140.546H176.971C177.87 140.546 178.599 139.817 178.599 138.917V138.755C178.599 137.855 177.87 137.126 176.971 137.126Z" fill="#DADDE6"/>
<path d="M163.942 142.826H140.599C139.7 142.826 138.97 143.555 138.97 144.455V144.618C138.97 145.517 139.7 146.246 140.599 146.246H163.942C164.841 146.246 165.57 145.517 165.57 144.618V144.455C165.57 143.555 164.841 142.826 163.942 142.826Z" fill="#DADDE6"/>
<path d="M129.199 148.2C132.797 148.2 135.714 145.284 135.714 141.686C135.714 138.088 132.797 135.172 129.199 135.172C125.602 135.172 122.685 138.088 122.685 141.686C122.685 145.284 125.602 148.2 129.199 148.2Z" fill="#B0B5C9"/>
<path d="M323.543 40.7144H150.371C147.973 40.7144 146.029 42.6587 146.029 45.0572V224.2C146.029 226.599 147.973 228.543 150.371 228.543H323.543C325.941 228.543 327.886 226.599 327.886 224.2V45.0572C327.886 42.6587 325.941 40.7144 323.543 40.7144Z" fill="#F3F4F7"/>
<path d="M314.858 64.0576H285.543C283.145 64.0576 281.2 66.002 281.2 68.4005V103.686C281.2 106.085 283.145 108.029 285.543 108.029H314.858C317.256 108.029 319.2 106.085 319.2 103.686V68.4005C319.2 66.002 317.256 64.0576 314.858 64.0576Z" fill="#FCFCFC"/>
<path d="M300.2 89.5716C304.997 89.5716 308.886 85.6829 308.886 80.8859C308.886 76.0889 304.997 72.2002 300.2 72.2002C295.403 72.2002 291.514 76.0889 291.514 80.8859C291.514 85.6829 295.403 89.5716 300.2 89.5716Z" fill="#DADDE6"/>
<path d="M312.143 91.7432H288.257C287.358 91.7432 286.628 92.4723 286.628 93.3717C286.628 94.2712 287.358 95.0003 288.257 95.0003H312.143C313.042 95.0003 313.771 94.2712 313.771 93.3717C313.771 92.4723 313.042 91.7432 312.143 91.7432Z" fill="#DADDE6"/>
<path d="M307.8 97.1719H292.6C291.701 97.1719 290.971 97.901 290.971 98.8004C290.971 99.6999 291.701 100.429 292.6 100.429H307.8C308.699 100.429 309.429 99.6999 309.429 98.8004C309.429 97.901 308.699 97.1719 307.8 97.1719Z" fill="#DADDE6"/>
<path fill-rule="evenodd" clip-rule="evenodd" d="M150.371 40.7144H323.543C325.941 40.7144 327.886 42.6587 327.886 45.0572V55.3715H146.029V45.0572C146.029 42.6587 147.973 40.7144 150.371 40.7144Z" fill="#B0B5C9"/>
<path d="M153.086 50.4859C154.285 50.4859 155.257 49.5137 155.257 48.3145C155.257 47.1152 154.285 46.1431 153.086 46.1431C151.887 46.1431 150.915 47.1152 150.915 48.3145C150.915 49.5137 151.887 50.4859 153.086 50.4859Z" fill="#F3F4F7"/>
<path d="M159.6 50.4859C160.799 50.4859 161.772 49.5137 161.772 48.3145C161.772 47.1152 160.799 46.1431 159.6 46.1431C158.401 46.1431 157.429 47.1152 157.429 48.3145C157.429 49.5137 158.401 50.4859 159.6 50.4859Z" fill="#F3F4F7"/>
<path d="M166.114 50.4859C167.314 50.4859 168.286 49.5137 168.286 48.3145C168.286 47.1152 167.314 46.1431 166.114 46.1431C164.915 46.1431 163.943 47.1152 163.943 48.3145C163.943 49.5137 164.915 50.4859 166.114 50.4859Z" fill="#F3F4F7"/>
<path d="M314.858 112.372H285.543C283.145 112.372 281.2 114.316 281.2 116.714V213.343C281.2 215.742 283.145 217.686 285.543 217.686H314.858C317.256 217.686 319.2 215.742 319.2 213.343V116.714C319.2 114.316 317.256 112.372 314.858 112.372Z" fill="#FCFCFC"/>
<path d="M307.258 122.143H293.143C291.944 122.143 290.972 123.115 290.972 124.314V134.086C290.972 135.285 291.944 136.257 293.143 136.257H307.258C308.457 136.257 309.429 135.285 309.429 134.086V124.314C309.429 123.115 308.457 122.143 307.258 122.143Z" fill="#DADDE6"/>
<path d="M307.257 140.6H293.143C291.944 140.6 290.972 141.572 290.972 142.772V152C290.972 153.199 291.944 154.172 293.143 154.172H307.257C308.457 154.172 309.429 153.199 309.429 152V142.772C309.429 141.572 308.457 140.6 307.257 140.6Z" fill="#9199B5"/>
<path d="M307.257 158.514H293.143C291.944 158.514 290.972 159.486 290.972 160.686V169.914C290.972 171.113 291.944 172.086 293.143 172.086H307.257C308.457 172.086 309.429 171.113 309.429 169.914V160.686C309.429 159.486 308.457 158.514 307.257 158.514Z" fill="#DADDE6"/>
<path d="M307.257 194.343H293.143C291.944 194.343 290.972 195.315 290.972 196.515V205.743C290.972 206.943 291.944 207.915 293.143 207.915H307.257C308.457 207.915 309.429 206.943 309.429 205.743V196.515C309.429 195.315 308.457 194.343 307.257 194.343Z" fill="#DADDE6"/>
<path d="M307.257 176.429H293.143C291.944 176.429 290.972 177.401 290.972 178.6V187.829C290.972 189.028 291.944 190 293.143 190H307.257C308.457 190 309.429 189.028 309.429 187.829V178.6C309.429 177.401 308.457 176.429 307.257 176.429Z" fill="#B0B5C9"/>
<path d="M274.686 64.6001H156.886C155.687 64.6001 154.715 65.5723 154.715 66.7715V87.943C154.715 89.1422 155.687 90.1144 156.886 90.1144H274.686C275.885 90.1144 276.857 89.1422 276.857 87.943V66.7715C276.857 65.5723 275.885 64.6001 274.686 64.6001Z" fill="#FCFCFC"/>
<path d="M248.629 72.2544H161.229C160.329 72.2544 159.6 72.9835 159.6 73.883V74.453C159.6 75.3524 160.329 76.0815 161.229 76.0815H248.629C249.528 76.0815 250.257 75.3524 250.257 74.453V73.883C250.257 72.9835 249.528 72.2544 248.629 72.2544Z" fill="#DADDE6"/>
<path d="M218.824 78.6328H161.229C160.329 78.6328 159.6 79.3619 159.6 80.2614V80.8314C159.6 81.7308 160.329 82.46 161.229 82.46H218.824C219.723 82.46 220.452 81.7308 220.452 80.8314V80.2614C220.452 79.3619 219.723 78.6328 218.824 78.6328Z" fill="#DADDE6"/>
<path d="M263.804 81.1576C265.903 81.1576 267.604 79.4563 267.604 77.3576C267.604 75.2589 265.903 73.5576 263.804 73.5576C261.705 73.5576 260.004 75.2589 260.004 77.3576C260.004 79.4563 261.705 81.1576 263.804 81.1576Z" fill="#DADDE6"/>
<path d="M263.804 78.9861C264.703 78.9861 265.432 78.257 265.432 77.3576C265.432 76.4581 264.703 75.729 263.804 75.729C262.904 75.729 262.175 76.4581 262.175 77.3576C262.175 78.257 262.904 78.9861 263.804 78.9861Z" fill="#F3F4F7"/>
<path d="M274.686 94.4575H156.886C155.687 94.4575 154.715 95.4297 154.715 96.6289V113.458C154.715 114.657 155.687 115.629 156.886 115.629H274.686C275.885 115.629 276.857 114.657 276.857 113.458V96.6289C276.857 95.4297 275.885 94.4575 274.686 94.4575Z" fill="#FCFCFC"/>
<path d="M248.669 100.809H161.188C160.311 100.809 159.6 101.52 159.6 102.396C159.6 103.273 160.311 103.984 161.188 103.984H248.669C249.546 103.984 250.257 103.273 250.257 102.396C250.257 101.52 249.546 100.809 248.669 100.809Z" fill="#DADDE6"/>
<path d="M218.864 106.102H161.188C160.311 106.102 159.6 106.812 159.6 107.689C159.6 108.566 160.311 109.277 161.188 109.277H218.864C219.741 109.277 220.452 108.566 220.452 107.689C220.452 106.812 219.741 106.102 218.864 106.102Z" fill="#DADDE6"/>
<path d="M263.804 108.843C265.903 108.843 267.604 107.142 267.604 105.043C267.604 102.944 265.903 101.243 263.804 101.243C261.705 101.243 260.004 102.944 260.004 105.043C260.004 107.142 261.705 108.843 263.804 108.843Z" fill="#DADDE6"/>
<path d="M263.804 106.672C264.703 106.672 265.432 105.943 265.432 105.043C265.432 104.144 264.703 103.415 263.804 103.415C262.904 103.415 262.175 104.144 262.175 105.043C262.175 105.943 262.904 106.672 263.804 106.672Z" fill="#F3F4F7"/>
<path d="M274.686 119.972H156.886C155.687 119.972 154.715 120.944 154.715 122.143V138.972C154.715 140.171 155.687 141.143 156.886 141.143H274.686C275.885 141.143 276.857 140.171 276.857 138.972V122.143C276.857 120.944 275.885 119.972 274.686 119.972Z" fill="#FCFCFC"/>
<path d="M248.669 126.323H161.188C160.311 126.323 159.6 127.034 159.6 127.911C159.6 128.788 160.311 129.499 161.188 129.499H248.669C249.546 129.499 250.257 128.788 250.257 127.911C250.257 127.034 249.546 126.323 248.669 126.323Z" fill="#DADDE6"/>
<path d="M218.864 131.616H161.188C160.311 131.616 159.6 132.327 159.6 133.204C159.6 134.081 160.311 134.791 161.188 134.791H218.864C219.741 134.791 220.452 134.081 220.452 133.204C220.452 132.327 219.741 131.616 218.864 131.616Z" fill="#DADDE6"/>
<path d="M263.804 134.357C265.903 134.357 267.604 132.656 267.604 130.557C267.604 128.459 265.903 126.757 263.804 126.757C261.705 126.757 260.004 128.459 260.004 130.557C260.004 132.656 261.705 134.357 263.804 134.357Z" fill="#DADDE6"/>
<path d="M263.804 132.186C264.703 132.186 265.432 131.457 265.432 130.557C265.432 129.658 264.703 128.929 263.804 128.929C262.904 128.929 262.175 129.658 262.175 130.557C262.175 131.457 262.904 132.186 263.804 132.186Z" fill="#9199B5"/>
<path d="M274.686 196.515H156.886C155.687 196.515 154.715 197.487 154.715 198.686V215.515C154.715 216.714 155.687 217.686 156.886 217.686H274.686C275.885 217.686 276.857 216.714 276.857 215.515V198.686C276.857 197.487 275.885 196.515 274.686 196.515Z" fill="#FCFCFC"/>
<path d="M248.669 202.866H161.188C160.311 202.866 159.6 203.577 159.6 204.454C159.6 205.331 160.311 206.041 161.188 206.041H248.669C249.546 206.041 250.257 205.331 250.257 204.454C250.257 203.577 249.546 202.866 248.669 202.866Z" fill="#DADDE6"/>
<path d="M218.864 208.159H161.188C160.311 208.159 159.6 208.87 159.6 209.747C159.6 210.623 160.311 211.334 161.188 211.334H218.864C219.741 211.334 220.452 210.623 220.452 209.747C220.452 208.87 219.741 208.159 218.864 208.159Z" fill="#DADDE6"/>
<path d="M263.804 210.9C265.903 210.9 267.604 209.199 267.604 207.1C267.604 205.002 265.903 203.3 263.804 203.3C261.705 203.3 260.004 205.002 260.004 207.1C260.004 209.199 261.705 210.9 263.804 210.9Z" fill="#DADDE6"/>
<path d="M263.804 208.729C264.703 208.729 265.432 208 265.432 207.1C265.432 206.201 264.703 205.472 263.804 205.472C262.904 205.472 262.175 206.201 262.175 207.1C262.175 208 262.904 208.729 263.804 208.729Z" fill="#F3F4F7"/>
<path d="M274.686 171H156.886C155.687 171 154.715 171.972 154.715 173.171V190C154.715 191.199 155.687 192.171 156.886 192.171H274.686C275.885 192.171 276.857 191.199 276.857 190V173.171C276.857 171.972 275.885 171 274.686 171Z" fill="#FCFCFC"/>
<path d="M248.669 177.352H161.188C160.311 177.352 159.6 178.062 159.6 178.939C159.6 179.816 160.311 180.527 161.188 180.527H248.669C249.546 180.527 250.257 179.816 250.257 178.939C250.257 178.062 249.546 177.352 248.669 177.352Z" fill="#DADDE6"/>
<path d="M218.864 182.644H161.188C160.311 182.644 159.6 183.355 159.6 184.232C159.6 185.109 160.311 185.82 161.188 185.82H218.864C219.741 185.82 220.452 185.109 220.452 184.232C220.452 183.355 219.741 182.644 218.864 182.644Z" fill="#DADDE6"/>
<path d="M263.804 185.386C265.903 185.386 267.604 183.684 267.604 181.586C267.604 179.487 265.903 177.786 263.804 177.786C261.705 177.786 260.004 179.487 260.004 181.586C260.004 183.684 261.705 185.386 263.804 185.386Z" fill="#DADDE6"/>
<path d="M263.804 183.214C264.703 183.214 265.432 182.485 265.432 181.586C265.432 180.686 264.703 179.957 263.804 179.957C262.904 179.957 262.175 180.686 262.175 181.586C262.175 182.485 262.904 183.214 263.804 183.214Z" fill="#F3F4F7"/>
<path d="M274.686 145.486H156.886C155.687 145.486 154.715 146.459 154.715 147.658V164.486C154.715 165.686 155.687 166.658 156.886 166.658H274.686C275.885 166.658 276.857 165.686 276.857 164.486V147.658C276.857 146.459 275.885 145.486 274.686 145.486Z" fill="#FCFCFC"/>
<path d="M248.669 151.837H161.188C160.311 151.837 159.6 152.548 159.6 153.425C159.6 154.302 160.311 155.013 161.188 155.013H248.669C249.546 155.013 250.257 154.302 250.257 153.425C250.257 152.548 249.546 151.837 248.669 151.837Z" fill="#DADDE6"/>
<path d="M218.864 157.13H161.188C160.311 157.13 159.6 157.841 159.6 158.718C159.6 159.595 160.311 160.306 161.188 160.306H218.864C219.741 160.306 220.452 159.595 220.452 158.718C220.452 157.841 219.741 157.13 218.864 157.13Z" fill="#DADDE6"/>
<path d="M263.804 159.872C265.903 159.872 267.604 158.171 267.604 156.072C267.604 153.973 265.903 152.272 263.804 152.272C261.705 152.272 260.004 153.973 260.004 156.072C260.004 158.171 261.705 159.872 263.804 159.872Z" fill="#DADDE6"/>
<path d="M263.804 157.701C264.703 157.701 265.432 156.971 265.432 156.072C265.432 155.172 264.703 154.443 263.804 154.443C262.904 154.443 262.175 155.172 262.175 156.072C262.175 156.971 262.904 157.701 263.804 157.701Z" fill="#F3F4F7"/>
<path fill-rule="evenodd" clip-rule="evenodd" d="M372.935 133.204C370.794 131.752 367.947 131.372 365.384 131.372C355.376 131.372 345.969 135.085 337.842 140.617C333.389 143.649 329.406 147.51 325.889 151.529C323.859 153.849 322.049 156.36 320.768 159.151C319.903 161.035 319.309 162.999 318.907 165.024C318.417 167.492 318.027 170.01 317.851 172.519C317.782 173.507 317.208 178.749 318.85 178.838C318.841 178.967 318.839 179.09 318.849 179.201C315.282 184.778 313.078 191.314 311.035 197.511C309.257 202.903 307.672 208.341 306.644 213.92C305.29 221.265 304.4 228.72 303.977 236.17C303.887 237.771 303.824 239.373 303.77 240.976C303.725 242.344 303.679 243.711 303.634 245.079C303.584 246.611 303.314 248.376 303.558 249.899C303.77 251.226 304.918 251.025 304.969 249.705C305.03 248.11 305.02 246.513 305.09 244.917C305.183 242.799 305.278 240.682 305.382 238.564C306.103 223.857 308.81 209.367 313.805 195.474C315.826 189.853 318.142 184.531 321.119 179.33C323.736 174.758 326.885 170.331 330.103 166.208C333.231 162.202 336.482 158.288 340.315 154.894C343.425 152.139 346.846 149.739 350.362 147.506C354.829 144.671 359.286 141.904 364.124 139.727C366.639 138.595 369.202 137.582 371.736 136.496C372.192 136.301 372.681 136.112 373.12 135.885C374.583 135.131 374.101 133.995 372.935 133.204Z" fill="#EBF7FF"/>
<path fill-rule="evenodd" clip-rule="evenodd" d="M332.673 184.571C336.732 184.571 340.344 185.099 344.084 186.712C347.312 188.104 350.254 189.947 353.111 191.954C357.129 194.776 360.294 198.06 362.509 202.412C363.832 205.012 364.803 208.691 363.914 211.527C362.867 214.867 359.993 217.652 356.206 217.064C353.865 216.7 351.719 215.15 349.939 213.692C347.811 211.947 346.107 209.848 344.7 207.518C342.404 203.716 341.055 199.419 339.106 195.447C338.181 193.561 337.286 191.662 336.178 189.871C335.63 188.983 335.046 188.105 334.213 187.445C333.768 187.093 331.891 186.482 332.609 185.69C322.083 185.828 312.757 193.912 310.737 203.919C310.548 204.852 310.401 205.792 310.246 206.73C310.148 207.323 310.188 209.508 309.658 209.887C308.49 210.722 308.981 208.185 309.031 207.82C309.16 206.876 309.299 205.933 309.444 204.991C310.233 199.87 312.513 195.109 316.315 191.457C320.663 187.28 326.529 184.571 332.673 184.571Z" fill="#C2E7FF"/>
<path fill-rule="evenodd" clip-rule="evenodd" d="M40.1375 171.943C50.2708 188.943 62.0728 205.403 69.1603 223.99C68.8747 221.799 68.5718 219.611 68.2329 217.425C66.4345 205.84 64.1994 194.34 61.8507 182.853C60.6547 177.005 59.3897 171.178 58.0922 165.351C57.3944 162.222 56.7051 159.09 55.993 155.964C55.8204 155.206 55.6722 153.884 55.4563 152.543C62.3442 175.146 68.9865 197.766 73.8451 220.912C74.4825 223.949 75.0253 226.982 75.4699 230.009C75.622 229.318 75.7716 228.627 75.9353 227.939C77.9012 219.683 80.8501 211.494 84.3613 203.775C86.0398 200.083 87.9679 196.473 90.238 193.109C91.6536 191.011 94.992 188.519 96.2833 186.371C89.2209 199.324 86.6708 215.532 82.5929 229.614C81.5976 233.051 80.5961 236.482 79.6147 239.919C85.7643 227.586 95.3056 217.453 108.571 213.062C92.5137 223.672 82.8821 242.252 76.3918 261.255C76.3704 261.481 76.345 261.706 76.323 261.932C78.2329 258.307 80.6386 255.029 83.8992 252.732C90.8777 247.817 98.6191 249.249 105.388 253.465C100.076 250.088 90.4738 253.164 86.0036 256.596C82.8034 259.053 80.0684 262.35 77.6934 265.566C77.1244 266.337 76.348 267.236 75.5278 268.196C74.3778 275.66 72.5038 283.074 69.8506 290.429C70.2884 288.318 69.9719 284.941 70.0933 283.368C70.1065 283.198 70.1172 283.027 70.1303 282.857C69.727 284.467 69.3374 286.059 68.9622 287.626C69.708 284.637 70.1133 281.517 70.4297 278.364C70.5112 277.01 70.5907 275.655 70.6746 274.3C70.648 271.729 70.5421 269.148 70.363 266.563C69.728 264.05 69.0169 261.68 68.4305 259.709C66.3144 252.597 63.2124 245.784 59.3943 239.428C55.9107 233.627 51.7408 228.373 46.927 223.622C44.3319 221.061 41.616 218.622 38.9384 216.149C37.9701 215.255 36.2395 213.057 34.7427 211.912C45.6435 217.921 56.8635 224.423 64.8157 234.106C63.8834 230.526 62.8707 226.996 61.7996 223.538C56.3653 205.99 49.5037 187.803 40.1375 171.943Z" fill="#C2E7FF"/>
<path fill-rule="evenodd" clip-rule="evenodd" d="M51.0283 268.172C51.0283 287.66 52.5716 303.458 73.2855 303.458C93.9994 303.458 95.5426 287.66 95.5426 268.172" fill="#B0B5C9"/>
<path d="M285 19.0002C285 18.1007 284.27 17.3716 283.371 17.3716C282.472 17.3716 281.742 18.1007 281.742 19.0002V29.3144C281.742 30.2139 282.472 30.943 283.371 30.943C284.27 30.943 285 30.2139 285 29.3144V19.0002Z" fill="#DADDE6"/>
<path d="M292.6 10.3141C292.6 9.41468 291.871 8.68555 290.971 8.68555C290.072 8.68555 289.343 9.41468 289.343 10.3141V29.3141C289.343 30.2136 290.072 30.9427 290.971 30.9427C291.871 30.9427 292.6 30.2136 292.6 29.3141V10.3141Z" fill="#DADDE6"/>
<path d="M300.2 5.97134C300.2 5.07191 299.471 4.34277 298.571 4.34277C297.672 4.34277 296.943 5.07191 296.943 5.97134V29.3142C296.943 30.2136 297.672 30.9428 298.571 30.9428C299.471 30.9428 300.2 30.2136 300.2 29.3142V5.97134Z" fill="#DADDE6"/>
<path d="M307.8 10.3141C307.8 9.41468 307.07 8.68555 306.171 8.68555C305.272 8.68555 304.542 9.41468 304.542 10.3141V29.3141C304.542 30.2136 305.272 30.9427 306.171 30.9427C307.07 30.9427 307.8 30.2136 307.8 29.3141V10.3141Z" fill="#DADDE6"/>
<path d="M315.4 1.62857C315.4 0.729136 314.671 0 313.771 0C312.872 0 312.143 0.729136 312.143 1.62857V29.3143C312.143 30.2137 312.872 30.9429 313.771 30.9429C314.671 30.9429 315.4 30.2137 315.4 29.3143V1.62857Z" fill="#B0B5C9"/>
<path fill-rule="evenodd" clip-rule="evenodd" d="M14.6573 166.254C14.6573 160.207 19.5441 155.257 25.5144 155.257V166.254L18.0946 174.257C15.984 172.301 14.6573 169.43 14.6573 166.254Z" fill="#F3F4F7"/>
<path fill-rule="evenodd" clip-rule="evenodd" d="M25.2272 166.114H36.1914C36.1914 168.949 35.0352 171.604 33.2075 173.534C31.1972 175.645 28.3345 176.971 25.2272 176.971C22.365 176.971 19.7451 175.827 17.7343 174.017L25.2272 166.114Z" fill="#9199B5"/>
<path fill-rule="evenodd" clip-rule="evenodd" d="M36.3716 166.114C36.3716 160.144 31.4848 155.257 25.5144 155.257V166.114H36.3716ZM20.0859 155.257L24.4287 165.029L14.6573 160.686C15.6236 158.153 17.7934 156.224 20.0859 155.257Z" fill="#B0B5C9"/>
<path fill-rule="evenodd" clip-rule="evenodd" d="M367.931 171.097C366.887 172.204 365.41 172.9 363.766 172.9C360.608 172.9 358.048 170.348 358.048 167.2C358.048 164.052 360.608 161.5 363.766 161.5V150.914C354.782 150.914 347.429 158.244 347.429 167.2C347.429 176.155 354.782 183.485 363.766 183.485C368.485 183.485 372.75 181.495 375.657 178.329L367.931 171.097Z" fill="#F3F4F7"/>
<path fill-rule="evenodd" clip-rule="evenodd" d="M363.715 150.914V161.5C366.863 161.5 369.415 164.052 369.415 167.2H380C380 158.244 372.67 150.914 363.715 150.914Z" fill="#9199B5"/>
<path fill-rule="evenodd" clip-rule="evenodd" d="M369.196 167.2C369.196 169.049 368.325 170.693 366.972 171.755L373.628 180.228C377.503 177.195 380 172.492 380 167.2H369.196Z" fill="#B0B5C9"/>
<path fill-rule="evenodd" clip-rule="evenodd" d="M264.399 21.4447C263.597 22.2938 262.46 22.8269 261.196 22.8269C258.766 22.8269 256.797 20.8704 256.797 18.4569C256.797 16.0434 258.766 14.0869 261.196 14.0869V5.97119C254.285 5.97119 248.628 11.591 248.628 18.4569C248.628 25.3228 254.285 30.9426 261.196 30.9426C264.826 30.9426 268.106 29.4169 270.343 26.9896L264.399 21.4447Z" fill="#F3F4F7"/>
<path fill-rule="evenodd" clip-rule="evenodd" d="M261.114 5.97119V14.0869C263.528 14.0869 265.484 16.0434 265.484 18.4569H273.6C273.6 11.591 267.98 5.97119 261.114 5.97119Z" fill="#9199B5"/>
<path fill-rule="evenodd" clip-rule="evenodd" d="M265.496 18.457C265.496 19.8442 264.843 21.0772 263.828 21.8733L268.82 28.2285C271.726 25.9532 273.6 22.4264 273.6 18.457H265.496Z" fill="#B0B5C9"/>
<path fill-rule="evenodd" clip-rule="evenodd" d="M66.7752 30.9356C66.773 30.941 66.7708 30.9465 66.7676 30.953C66.7708 30.9475 66.7752 30.9258 66.7752 30.9356Z" fill="#B0B5C9"/>
<path fill-rule="evenodd" clip-rule="evenodd" d="M66.7701 30.9441C66.7701 30.9451 66.769 30.9473 66.769 30.9495C66.769 30.9441 66.7788 30.9278 66.7701 30.9441Z" fill="#B0B5C9"/>
<path fill-rule="evenodd" clip-rule="evenodd" d="M66.8078 30.8521C66.8002 30.8738 66.7904 30.8944 66.7817 30.9161C66.786 30.9053 66.7904 30.8966 66.7947 30.8857C66.6818 31.168 66.7535 30.9845 66.8078 30.8521Z" fill="#B0B5C9"/>
<path fill-rule="evenodd" clip-rule="evenodd" d="M66.7836 30.9175C66.7792 30.9273 66.7749 30.9381 66.7705 30.9479C66.7391 31.0087 66.7836 30.9175 66.7836 30.9175Z" fill="#B0B5C9"/>
<path fill-rule="evenodd" clip-rule="evenodd" d="M66.7708 30.9437C66.7708 30.9428 66.7708 30.9428 66.7717 30.9419C66.7708 30.9428 66.7708 30.9428 66.7708 30.9437Z" fill="#B0B5C9"/>
<path fill-rule="evenodd" clip-rule="evenodd" d="M66.7657 30.9517C66.7592 30.9647 66.7961 30.9018 66.7657 30.9517V30.9517Z" fill="#B0B5C9"/>
<path fill-rule="evenodd" clip-rule="evenodd" d="M66.7705 30.9437L66.7723 30.9419C66.7714 30.9428 66.7714 30.9437 66.7705 30.9437Z" fill="#B0B5C9"/>
<path d="M90.1141 2.71436H42.8855C41.6863 2.71436 40.7141 3.68654 40.7141 4.88578V34.7429C40.7141 35.9422 41.6863 36.9144 42.8855 36.9144H90.1141C91.3134 36.9144 92.2855 35.9422 92.2855 34.7429V4.88578C92.2855 3.68654 91.3134 2.71436 90.1141 2.71436Z" fill="#DADDE6"/>
<path fill-rule="evenodd" clip-rule="evenodd" d="M60.2571 12.4863L45.0571 36.9149H75.4571L60.2571 12.4863Z" fill="#9199B5"/>
<path fill-rule="evenodd" clip-rule="evenodd" d="M75.1857 19.0005L61.8857 36.9148H88.4857L75.1857 19.0005Z" fill="#B0B5C9"/>
<path d="M80.8857 19.0004C83.584 19.0004 85.7714 16.813 85.7714 14.1147C85.7714 11.4164 83.584 9.229 80.8857 9.229C78.1874 9.229 76 11.4164 76 14.1147C76 16.813 78.1874 19.0004 80.8857 19.0004Z" fill="#FCFCFC"/>
<path fill-rule="evenodd" clip-rule="evenodd" d="M325.711 262.735C325.713 262.741 325.715 262.746 325.719 262.753C325.715 262.747 325.711 262.726 325.711 262.735Z" fill="#B0B5C9"/>
<path fill-rule="evenodd" clip-rule="evenodd" d="M325.716 262.744C325.716 262.745 325.717 262.747 325.717 262.749C325.717 262.744 325.707 262.728 325.716 262.744Z" fill="#B0B5C9"/>
<path fill-rule="evenodd" clip-rule="evenodd" d="M325.678 262.652C325.686 262.674 325.695 262.694 325.704 262.716C325.7 262.705 325.695 262.696 325.691 262.686C325.804 262.968 325.732 262.784 325.678 262.652Z" fill="#B0B5C9"/>
<path fill-rule="evenodd" clip-rule="evenodd" d="M325.702 262.717C325.707 262.727 325.711 262.738 325.715 262.748C325.747 262.808 325.702 262.717 325.702 262.717Z" fill="#B0B5C9"/>
<path fill-rule="evenodd" clip-rule="evenodd" d="M325.715 262.744C325.715 262.743 325.715 262.743 325.714 262.742C325.715 262.743 325.715 262.743 325.715 262.744Z" fill="#B0B5C9"/>
<path fill-rule="evenodd" clip-rule="evenodd" d="M325.72 262.752C325.727 262.765 325.69 262.702 325.72 262.752V262.752Z" fill="#B0B5C9"/>
<path fill-rule="evenodd" clip-rule="evenodd" d="M325.716 262.744L325.714 262.742C325.715 262.743 325.715 262.744 325.716 262.744Z" fill="#B0B5C9"/>
<path d="M289.343 220.943H362.086C363.285 220.943 364.257 221.915 364.257 223.114V269.8C364.257 270.999 363.285 271.971 362.086 271.971H289.343C288.144 271.971 287.172 270.999 287.172 269.8V223.114C287.172 221.915 288.144 220.943 289.343 220.943Z" fill="#DADDE6"/>
<path fill-rule="evenodd" clip-rule="evenodd" d="M335.635 235.6L357.922 271.972H313.348L335.635 235.6Z" fill="#9199B5"/>
<path fill-rule="evenodd" clip-rule="evenodd" d="M312.655 245.343L332.358 271.972H292.952L312.655 245.343Z" fill="#B0B5C9"/>
<path d="M304.272 245.371C300.224 245.371 296.943 242.09 296.943 238.043C296.943 233.995 300.224 230.714 304.272 230.714C308.319 230.714 311.6 233.995 311.6 238.043C311.6 242.09 308.319 245.371 304.272 245.371Z" fill="#FCFCFC"/>
</svg>
