<svg height="229" viewBox="0 0 412 229" fill="none" xmlns="http://www.w3.org/2000/svg">
<path fill-rule="evenodd" clip-rule="evenodd" d="M369.5 60.5C370.881 61.8807 373.119 61.8807 374.5 60.5L389.5 45.4999C390.881 44.1193 390.881 41.8807 389.5 40.5001L387 38.0002C387 38.0001 387 38.0001 387 38.0001C387 38 387 38 387 37.9999L374.5 25.5C373.119 24.1193 370.881 24.1193 369.5 25.5C368.119 26.8807 368.119 29.1193 369.5 30.5L379.172 40.1715C380.734 41.7336 380.734 44.2662 379.172 45.8283L369.5 55.5C368.119 56.8807 368.119 59.1193 369.5 60.5Z" fill="#B0B5C9"/>
<path opacity="0.2" fill-rule="evenodd" clip-rule="evenodd" d="M354.413 60.5002C355.793 61.881 358.032 61.881 359.413 60.5002L374.413 45.5002C375.793 44.1195 375.793 41.881 374.413 40.5003L371.913 38.0004C371.913 38.0004 371.913 38.0003 371.913 38.0003C371.913 38.0003 371.913 38.0002 371.913 38.0002L359.413 25.5002C358.032 24.1195 355.794 24.1195 354.413 25.5002C353.032 26.881 353.032 29.1195 354.413 30.5002L364.084 40.1717C365.646 41.7338 365.646 44.2665 364.084 45.8286L354.413 55.5002C353.032 56.881 353.032 59.1195 354.413 60.5002Z" fill="#005994"/>
<path fill-rule="evenodd" clip-rule="evenodd" d="M49.4999 132.5C50.8806 133.881 53.1192 133.881 54.4999 132.5L69.4999 117.5C70.8806 116.119 70.8806 113.881 69.4999 112.5L67.0001 110C67 110 67 110 67.0001 110C67.0001 110 67.0001 110 67.0001 110L54.5001 97.5C53.1194 96.1193 50.8808 96.1193 49.5001 97.5C48.1194 98.8807 48.1194 101.119 49.5001 102.5L59.1716 112.171C60.7337 113.734 60.7337 116.266 59.1716 117.828L49.4999 127.5C48.1192 128.881 48.1192 131.119 49.4999 132.5Z" fill="#B0B5C9"/>
<path opacity="0.2" fill-rule="evenodd" clip-rule="evenodd" d="M34.4126 132.5C35.7933 133.881 38.0319 133.881 39.4126 132.5L54.4127 117.5C55.7933 116.12 55.7933 113.881 54.4126 112.5L51.9128 110C51.9127 110 51.9127 110 51.9128 110C51.9128 110 51.9128 110 51.9128 110L39.4128 97.5002C38.0321 96.1195 35.7935 96.1195 34.4128 97.5002C33.0321 98.881 33.0321 101.12 34.4128 102.5L44.0843 112.172C45.6464 113.734 45.6464 116.266 44.0843 117.829L34.4126 127.5C33.0319 128.881 33.0319 131.12 34.4126 132.5Z" fill="#005994"/>
<rect x="6.92773" y="150.681" width="235" height="72" rx="14" fill="#F3F4F7"/>
<rect x="28.9277" y="175.181" width="105" height="9" rx="4.5" fill="#B0B5C9"/>
<rect x="28.9277" y="189.181" width="72" height="9" rx="4.5" fill="white"/>
<path d="M205.928 200.681C213.66 200.681 219.928 194.413 219.928 186.681C219.928 178.949 213.66 172.681 205.928 172.681C198.196 172.681 191.928 178.949 191.928 186.681C191.928 194.413 198.196 200.681 205.928 200.681Z" fill="white"/>
<g opacity="0.2">
<path d="M197.928 184.474C197.928 184.474 198.163 178.681 205.928 178.681C213.692 178.681 213.928 184.474 213.928 184.474" stroke="#005994" stroke-width="3" stroke-linecap="round"/>
<path d="M197.928 188.888C197.928 188.888 198.163 194.681 205.928 194.681C213.692 194.681 213.928 188.888 213.928 188.888" stroke="#005994" stroke-width="3" stroke-linecap="round"/>
<line x1="203.428" y1="186.285" x2="208.428" y2="186.285" stroke="#005994" stroke-width="3" stroke-linecap="round"/>
</g>
<path d="M185.928 200.681C193.66 200.681 199.928 194.413 199.928 186.681C199.928 178.949 193.66 172.681 185.928 172.681C178.196 172.681 171.928 178.949 171.928 186.681C171.928 194.413 178.196 200.681 185.928 200.681Z" fill="white"/>
<g opacity="0.2">
<path d="M177.928 184.474C177.928 184.474 178.163 178.681 185.928 178.681C193.692 178.681 193.928 184.474 193.928 184.474" stroke="#005994" stroke-width="3" stroke-linecap="round"/>
<path d="M177.928 188.888C177.928 188.888 178.163 194.681 185.928 194.681C193.692 194.681 193.928 188.888 193.928 188.888" stroke="#005994" stroke-width="3" stroke-linecap="round"/>
<line x1="183.428" y1="186.285" x2="188.428" y2="186.285" stroke="#005994" stroke-width="3" stroke-linecap="round"/>
</g>
<rect x="6.92773" y="150.681" width="235" height="72" rx="14" stroke="white" stroke-width="12"/>
<rect x="110.928" y="78.6812" width="235" height="72" rx="14" fill="#F3F4F7"/>
<rect x="132.928" y="103.181" width="105" height="9" rx="4.5" fill="#B0B5C9"/>
<rect x="132.928" y="117.181" width="72" height="9" rx="4.5" fill="white"/>
<path d="M309.928 128.681C317.66 128.681 323.928 122.413 323.928 114.681C323.928 106.949 317.66 100.681 309.928 100.681C302.196 100.681 295.928 106.949 295.928 114.681C295.928 122.413 302.196 128.681 309.928 128.681Z" fill="white"/>
<g opacity="0.2">
<path d="M301.928 112.474C301.928 112.474 302.163 106.681 309.928 106.681C317.692 106.681 317.928 112.474 317.928 112.474" stroke="#005994" stroke-width="3" stroke-linecap="round"/>
<path d="M301.928 116.888C301.928 116.888 302.163 122.681 309.928 122.681C317.692 122.681 317.928 116.888 317.928 116.888" stroke="#005994" stroke-width="3" stroke-linecap="round"/>
<line x1="307.428" y1="114.285" x2="312.428" y2="114.285" stroke="#005994" stroke-width="3" stroke-linecap="round"/>
</g>
<path d="M289.928 128.681C297.66 128.681 303.928 122.413 303.928 114.681C303.928 106.949 297.66 100.681 289.928 100.681C282.196 100.681 275.928 106.949 275.928 114.681C275.928 122.413 282.196 128.681 289.928 128.681Z" fill="white"/>
<g opacity="0.2">
<path d="M281.928 112.474C281.928 112.474 282.163 106.681 289.928 106.681C297.692 106.681 297.928 112.474 297.928 112.474" stroke="#005994" stroke-width="3" stroke-linecap="round"/>
<path d="M281.928 116.888C281.928 116.888 282.163 122.681 289.928 122.681C297.692 122.681 297.928 116.888 297.928 116.888" stroke="#005994" stroke-width="3" stroke-linecap="round"/>
<line x1="287.428" y1="114.285" x2="292.428" y2="114.285" stroke="#005994" stroke-width="3" stroke-linecap="round"/>
</g>
<rect x="110.928" y="78.6812" width="235" height="72" rx="14" stroke="white" stroke-width="12"/>
<rect x="78.9277" y="6.68115" width="235" height="72" rx="14" fill="#F3F4F7"/>
<rect x="100.928" y="31.1812" width="105" height="9" rx="4.5" fill="#B0B5C9"/>
<rect x="100.928" y="45.1812" width="72" height="9" rx="4.5" fill="white"/>
<path d="M277.928 56.6812C285.66 56.6812 291.928 50.4131 291.928 42.6812C291.928 34.9492 285.66 28.6812 277.928 28.6812C270.196 28.6812 263.928 34.9492 263.928 42.6812C263.928 50.4131 270.196 56.6812 277.928 56.6812Z" fill="white"/>
<g opacity="0.2">
<path d="M269.928 40.4743C269.928 40.4743 270.163 34.6812 277.928 34.6812C285.692 34.6812 285.928 40.4743 285.928 40.4743" stroke="#005994" stroke-width="3" stroke-linecap="round"/>
<path d="M269.928 44.888C269.928 44.888 270.163 50.6812 277.928 50.6812C285.692 50.6812 285.928 44.888 285.928 44.888" stroke="#005994" stroke-width="3" stroke-linecap="round"/>
<line x1="275.428" y1="42.2847" x2="280.428" y2="42.2847" stroke="#005994" stroke-width="3" stroke-linecap="round"/>
</g>
<path d="M257.928 56.6812C265.66 56.6812 271.928 50.4131 271.928 42.6812C271.928 34.9492 265.66 28.6812 257.928 28.6812C250.196 28.6812 243.928 34.9492 243.928 42.6812C243.928 50.4131 250.196 56.6812 257.928 56.6812Z" fill="white"/>
<g opacity="0.2">
<path d="M249.928 40.4743C249.928 40.4743 250.163 34.6812 257.928 34.6812C265.692 34.6812 265.928 40.4743 265.928 40.4743" stroke="#005994" stroke-width="3" stroke-linecap="round"/>
<path d="M249.928 44.888C249.928 44.888 250.163 50.6812 257.928 50.6812C265.692 50.6812 265.928 44.888 265.928 44.888" stroke="#005994" stroke-width="3" stroke-linecap="round"/>
<line x1="255.428" y1="42.2847" x2="260.428" y2="42.2847" stroke="#005994" stroke-width="3" stroke-linecap="round"/>
</g>
<rect x="78.9277" y="6.68115" width="235" height="72" rx="14" stroke="white" stroke-width="12"/>
</svg>
