<svg height="149" viewBox="0 0 149 149" fill="none" xmlns="http://www.w3.org/2000/svg">
<path fill-rule="evenodd" clip-rule="evenodd" d="M4.5 0.5C2.29086 0.5 0.5 2.29086 0.5 4.5V22.9577V28.6574V97.3171C0.5 102.616 1.48541 106.912 2.70097 106.912H122.104C123.319 106.912 124.305 102.616 124.305 97.3171V22.9577C124.305 17.6587 123.319 13.363 122.104 13.363H84.1976C81.9551 13.363 79.8156 12.4218 78.3003 10.7688L70.0764 1.79712C69.3188 0.970591 68.249 0.5 67.1278 0.5H4.5Z" fill="#F3F4F7"/>
<rect x="9.93359" y="35.5808" width="60" height="9" rx="4.5" fill="#B0B5C9"/>
<rect x="9.93359" y="49.5808" width="34" height="9" rx="4.5" fill="#9199B5"/>
<path fill-rule="evenodd" clip-rule="evenodd" d="M133.27 121.511C141.487 114.647 146.707 104.368 146.707 92.8791C146.707 72.2129 129.815 55.4596 108.976 55.4596C88.1381 55.4596 71.2454 72.2129 71.2454 92.8791C71.2454 113.545 88.1381 130.299 108.976 130.299C114.84 130.299 120.391 128.972 125.342 126.605L139.962 146.561C141.497 148.657 144.449 149.124 146.557 147.606C148.664 146.087 149.128 143.158 147.593 141.063L133.27 121.511Z" fill="#B0B5C9"/>
<ellipse cx="108.978" cy="92.8797" rx="28.2982" ry="28.0647" fill="#DADDE6"/>
</svg>
