<svg width="200" height="212" viewBox="0 0 200 212" fill="none" xmlns="http://www.w3.org/2000/svg">
<path fill-rule="evenodd" clip-rule="evenodd" d="M16 71.6484C7.16344 71.6484 0 78.8119 0 87.6484V135.181C0 152.854 14.3269 167.181 32 167.181C38.7341 167.181 44.9824 165.1 50.1374 161.548C50.0464 160.379 50 159.197 50 158.005V89.6387C50 83.5336 53.4194 78.2271 58.4474 75.5299C55.6443 73.1111 51.993 71.6484 48 71.6484H16Z" fill="#F3F4F7"/>
<path fill-rule="evenodd" clip-rule="evenodd" d="M141.55 75.5295C146.578 78.2267 149.998 83.5333 149.998 89.6387V158.005C149.998 159.198 149.951 160.379 149.86 161.548C155.015 165.101 161.263 167.181 167.997 167.181C185.67 167.181 199.997 152.854 199.997 135.181V87.6484C199.997 78.8119 192.833 71.6484 183.997 71.6484H151.997C148.004 71.6484 144.353 73.111 141.55 75.5295Z" fill="#F3F4F7"/>
<ellipse cx="37.5" cy="33.3367" rx="24.5" ry="24.3806" fill="#F3F4F7"/>
<ellipse cx="162.5" cy="33.3367" rx="24.5" ry="24.3806" fill="#F3F4F7"/>
<path d="M60 95.6103C60 86.7738 67.1634 79.6104 76 79.6104H124C132.837 79.6104 140 86.7738 140 95.6104V159.026C140 181.117 122.091 199.026 100 199.026C77.9086 199.026 60 181.117 60 159.026V95.6103Z" fill="#DADDE6"/>
<ellipse cx="100" cy="31.8441" rx="32" ry="31.8441" fill="#DADDE6"/>
<path fill-rule="evenodd" clip-rule="evenodd" d="M168.023 185.145C176.239 178.314 181.46 168.085 181.46 156.652C181.46 136.087 164.567 119.415 143.729 119.415C122.891 119.415 105.998 136.087 105.998 156.652C105.998 177.218 122.891 193.889 143.729 193.889C149.593 193.889 155.144 192.569 160.094 190.214L174.71 210.068C176.248 212.156 179.202 212.624 181.31 211.113C183.417 209.602 183.879 206.684 182.342 204.596L168.023 185.145Z" fill="#B0B5C9"/>
<ellipse cx="143.731" cy="156.652" rx="28.2982" ry="27.9279" fill="#DADDE6"/>
</svg>
