<svg height="336" viewBox="0 0 561 336" fill="none" xmlns="http://www.w3.org/2000/svg">
<path d="M121.039 0H2.96119C1.32577 0 0 1.44925 0 3.23699V136.763C0 138.551 1.32577 140 2.96119 140H121.039C122.674 140 124 138.551 124 136.763V3.23699C124 1.44925 122.674 0 121.039 0Z" fill="white"/>
<rect x="16" y="56" width="56" height="9" rx="4.5" fill="#B0B5C9"/>
<rect x="16" y="69" width="43" height="9" rx="4.5" fill="#DADDE6"/>
<circle cx="28" cy="28" r="12" fill="#9199B5"/>
<path d="M261.039 0H142.961C141.326 0 140 1.44925 140 3.23699V136.763C140 138.551 141.326 140 142.961 140H261.039C262.674 140 264 138.551 264 136.763V3.23699C264 1.44925 262.674 0 261.039 0Z" fill="white"/>
<rect x="156" y="56" width="56" height="9" rx="4.5" fill="#B0B5C9"/>
<rect x="156" y="69" width="43" height="9" rx="4.5" fill="#DADDE6"/>
<circle cx="168" cy="28" r="12" fill="#9199B5"/>
<path d="M401.039 0H282.961C281.326 0 280 1.44925 280 3.23699V136.763C280 138.551 281.326 140 282.961 140H401.039C402.674 140 404 138.551 404 136.763V3.23699C404 1.44925 402.674 0 401.039 0Z" fill="white"/>
<rect x="296" y="56" width="56" height="9" rx="4.5" fill="#B0B5C9"/>
<rect x="296" y="69" width="43" height="9" rx="4.5" fill="#DADDE6"/>
<circle cx="308" cy="28" r="12" fill="#9199B5"/>
<path d="M541.039 0H422.961C421.326 0 420 1.44925 420 3.23699V136.763C420 138.551 421.326 140 422.961 140H541.039C542.674 140 544 138.551 544 136.763V3.23699C544 1.44925 542.674 0 541.039 0Z" fill="white"/>
<rect x="436" y="56" width="56" height="9" rx="4.5" fill="#B0B5C9"/>
<rect x="436" y="69" width="43" height="9" rx="4.5" fill="#DADDE6"/>
<circle cx="448" cy="28" r="12" fill="#9199B5"/>
<path d="M121.039 164H2.96119C1.32577 164 0 165.449 0 167.237V300.763C0 302.551 1.32577 304 2.96119 304H121.039C122.674 304 124 302.551 124 300.763V167.237C124 165.449 122.674 164 121.039 164Z" fill="white"/>
<rect x="16" y="220" width="56" height="9" rx="4.5" fill="#B0B5C9"/>
<rect x="16" y="233" width="43" height="9" rx="4.5" fill="#DADDE6"/>
<circle cx="28" cy="192" r="12" fill="#9199B5"/>
<path d="M261.039 164H142.961C141.326 164 140 165.449 140 167.237V300.763C140 302.551 141.326 304 142.961 304H261.039C262.674 304 264 302.551 264 300.763V167.237C264 165.449 262.674 164 261.039 164Z" fill="white"/>
<rect x="156" y="220" width="56" height="9" rx="4.5" fill="#B0B5C9"/>
<rect x="156" y="233" width="43" height="9" rx="4.5" fill="#DADDE6"/>
<circle cx="168" cy="192" r="12" fill="#9199B5"/>
<path d="M401.039 164H282.961C281.326 164 280 165.449 280 167.237V300.763C280 302.551 281.326 304 282.961 304H401.039C402.674 304 404 302.551 404 300.763V167.237C404 165.449 402.674 164 401.039 164Z" fill="white"/>
<rect x="296" y="220" width="56" height="9" rx="4.5" fill="#B0B5C9"/>
<rect x="296" y="233" width="43" height="9" rx="4.5" fill="#DADDE6"/>
<circle cx="308" cy="192" r="12" fill="#9199B5"/>
<path d="M557.207 196.898L440.278 180.465C438.659 180.237 437.144 181.488 436.895 183.258L418.312 315.485C418.063 317.255 419.174 318.875 420.794 319.102L537.722 335.535C539.342 335.763 540.856 334.512 541.105 332.742L559.688 200.515C559.937 198.745 558.826 197.125 557.207 196.898Z" fill="white"/>
<rect x="445.396" y="237.734" width="56" height="9" rx="4.5" transform="rotate(8 445.396 237.734)" fill="#B0B5C9"/>
<rect x="443.587" y="250.608" width="43" height="9" rx="4.5" transform="rotate(8 443.587 250.608)" fill="#DADDE6"/>
<circle cx="461.177" cy="211.677" r="12" transform="rotate(8 461.177 211.677)" fill="#9199B5"/>
</svg>
