<svg viewBox="0 0 576 1016" xmlns="http://www.w3.org/2000/svg"><mask id="a" maskUnits="userSpaceOnUse" x="0" y="0" width="576" height="1016"><path d="M0 0h560a16 16 0 0116 16v984a16 16 0 01-16 16H16a16 16 0 01-16-16V0z" fill="#F0F2F7"/></mask><g mask="url(#a)"><path d="M651.82-102.63c36.27 38.38 51.17 100.38 44.71 155.4-6.2 55.3-34.03 103.6-70.3 139.03-36.03 35.43-80.75 57.97-120.25 52.34-39.5-5.64-73.79-39.46-103.35-74.88-29.57-35.43-54.41-72.47-58.88-114.34-4.48-41.87 11.42-88.57 40.99-126.95 29.56-38.38 72.8-68.44 123.23-75.96 50.18-7.78 107.57 6.98 143.85 45.36z" fill="#D2EBE7"/><path d="M430.88 105.83c15.02 15.25 21.19 39.9 18.51 61.77-2.57 21.97-14.1 41.17-29.11 55.25-14.92 14.09-33.44 23.05-49.8 20.8-16.35-2.23-30.55-15.67-42.79-29.76-12.24-14.08-22.53-28.8-24.38-45.44-1.85-16.64 4.73-35.2 16.97-50.46 12.25-15.26 30.15-27.2 51.03-30.2 20.78-3.08 44.55 2.78 59.57 18.04z" fill="#FEEED3"/><path d="M699.16 625.48c16.53 28.24.9 68.78-23.46 112-24.13 43.43-57.2 89.54-93.84 91.46-36.86 1.92-77.52-40.35-99.42-82.62-21.9-42.07-25.24-84.15-4.91-114.31 20.33-30.36 64.34-48.8 110.37-49.95 46.25-1.15 94.73 14.98 111.26 43.42z" fill="#F0E7E1"/><path d="M-105.78 891.56c-13.92-21.73-38.97-86.93-18.45-120.18 20.32-33.4 86.39-34.85 117.25-36.33 31.05-1.48 69.95 30.08 88.39 62.6 18.44 32.36 21.36 69.57 4.24 92.77-17.12 23.36-58.95 33.65-97.71 34.54-38.95.88-79.79-11.53-93.72-33.4z" fill="#FEEED3"/></g></svg>