<svg width="230" height="218" viewBox="0 0 230 218" fill="none" xmlns="http://www.w3.org/2000/svg">
<rect width="230" height="218" fill="white"/>
<path d="M142.005 104.606H136.44C136.44 103.652 136.09 102.736 135.466 102.06C134.842 101.385 133.996 101.003 133.112 101H130.886C130.003 101.003 129.156 101.385 128.533 102.06C127.909 102.736 127.559 103.652 127.559 104.606H121.994C121.112 104.609 120.267 104.989 119.644 105.662C119.021 106.335 118.669 107.247 118.666 108.199V121.394C118.666 122.351 119.018 123.268 119.644 123.944C120.27 124.62 121.12 125 122.005 125H142.005C142.889 124.997 143.735 124.615 144.359 123.94C144.982 123.264 145.333 122.348 145.333 121.394V108.199C145.333 107.242 144.981 106.325 144.355 105.649C143.728 104.973 142.879 104.593 141.994 104.593L142.005 104.606ZM130.886 103.404H133.112C133.408 103.404 133.691 103.53 133.899 103.756C134.108 103.981 134.225 104.287 134.225 104.606H129.773C129.773 104.287 129.891 103.981 130.099 103.756C130.308 103.53 130.591 103.404 130.886 103.404ZM120.892 108.199C120.892 107.882 121.008 107.578 121.214 107.353C121.42 107.128 121.7 107 121.994 106.997H141.994C142.289 106.997 142.572 107.123 142.781 107.349C142.989 107.574 143.107 107.88 143.107 108.199V111.554L135.315 114.621C135.277 114.338 135.146 114.079 134.946 113.891C134.746 113.703 134.491 113.598 134.225 113.595H129.773C129.508 113.598 129.253 113.703 129.053 113.891C128.853 114.079 128.722 114.338 128.683 114.621L120.892 111.554V108.199ZM133.112 115.998V118.402H130.886V115.998H133.112ZM142.005 122.596H122.005C121.71 122.596 121.427 122.47 121.218 122.244C121.009 122.019 120.892 121.713 120.892 121.394V114.108L128.66 117.163V119.592C128.66 119.749 128.689 119.906 128.745 120.051C128.801 120.197 128.883 120.33 128.986 120.441C129.09 120.553 129.212 120.642 129.347 120.702C129.482 120.762 129.627 120.793 129.773 120.793H134.225C134.519 120.79 134.799 120.662 135.005 120.437C135.211 120.212 135.327 119.908 135.327 119.592V117.163L143.107 114.108V121.394C143.107 121.711 142.991 122.015 142.785 122.24C142.578 122.465 142.298 122.593 142.005 122.596Z" fill="white"/>
<path d="M182.813 64.1118C191.911 64.1118 199.286 56.9233 199.286 48.0559C199.286 39.1885 191.911 32 182.813 32C173.715 32 166.34 39.1885 166.34 48.0559C166.34 56.9233 173.715 64.1118 182.813 64.1118Z" fill="#F2F2F2"/>
<path d="M182.813 36.2395C183.328 36.2395 183.746 35.8326 183.746 35.3307C183.746 34.8288 183.328 34.4219 182.813 34.4219C182.298 34.4219 181.881 34.8288 181.881 35.3307C181.881 35.8326 182.298 36.2395 182.813 36.2395Z" fill="black" fill-opacity="0.1"/>
<path d="M169.759 48.9661C170.274 48.9661 170.691 48.5592 170.691 48.0573C170.691 47.5553 170.274 47.1484 169.759 47.1484C169.244 47.1484 168.826 47.5553 168.826 48.0573C168.826 48.5592 169.244 48.9661 169.759 48.9661Z" fill="black" fill-opacity="0.1"/>
<path d="M195.868 48.9661C196.383 48.9661 196.8 48.5592 196.8 48.0573C196.8 47.5553 196.383 47.1484 195.868 47.1484C195.353 47.1484 194.936 47.5553 194.936 48.0573C194.936 48.5592 195.353 48.9661 195.868 48.9661Z" fill="black" fill-opacity="0.1"/>
<path d="M182.813 61.6887C183.328 61.6887 183.746 61.2818 183.746 60.7799C183.746 60.278 183.328 59.8711 182.813 59.8711C182.298 59.8711 181.881 60.278 181.881 60.7799C181.881 61.2818 182.298 61.6887 182.813 61.6887Z" fill="black" fill-opacity="0.1"/>
<path fill-rule="evenodd" clip-rule="evenodd" d="M182.813 37.1484L183.435 47.7514H182.191L182.813 37.1484Z" fill="#AFB9C5"/>
<path fill-rule="evenodd" clip-rule="evenodd" d="M188.312 53.4167L182.598 48.7041L183.477 47.8472L188.312 53.4167Z" fill="#AFB9C5"/>
<path d="M182.812 49.2673C183.498 49.2673 184.055 48.7248 184.055 48.0555C184.055 47.3863 183.498 46.8438 182.812 46.8438C182.125 46.8438 181.568 47.3863 181.568 48.0555C181.568 48.7248 182.125 49.2673 182.812 49.2673Z" fill="#C5CFD6"/>
<g opacity="0.345889">
<path opacity="0.5" fill-rule="evenodd" clip-rule="evenodd" d="M150.03 114.222C147.887 90.8813 32.907 45.8302 11.5615 67.9386C-9.7841 90.0469 10.737 131.539 55.4694 142.163C100.202 152.788 152.173 137.564 150.03 114.222Z" fill="#F2F2F2"/>
<path opacity="0.5" fill-rule="evenodd" clip-rule="evenodd" d="M78.9628 129.388C80.8824 109.559 183.876 71.2866 202.997 90.0685C222.117 108.85 217.278 148.356 177.208 157.382C137.139 166.409 77.0433 149.218 78.9628 129.388Z" fill="#DDE3E9"/>
</g>
<path d="M26.6802 63.5191C33.9755 63.5191 39.8896 60.4674 39.8896 56.7029C39.8896 52.9384 33.9755 49.8867 26.6802 49.8867C19.3848 49.8867 13.4707 52.9384 13.4707 56.7029C13.4707 60.4674 19.3848 63.5191 26.6802 63.5191Z" fill="#F2F2F2"/>
<path fill-rule="evenodd" clip-rule="evenodd" d="M42.0652 61.3971C42.0652 53.0316 35.177 46.25 26.6801 46.25C18.1831 46.25 11.2949 53.0316 11.2949 61.3971" fill="#DDE3E9"/>
<path d="M27.4564 0H25.9023V48.4706H27.4564V0Z" fill="#DDE3E9"/>
<g opacity="0.7">
<g opacity="0.7">
<path opacity="0.7" d="M50.7683 48.1656C56.2214 48.1656 60.642 45.7028 60.642 42.6648C60.642 39.6268 56.2214 37.1641 50.7683 37.1641C45.3152 37.1641 40.8945 39.6268 40.8945 42.6648C40.8945 45.7028 45.3152 48.1656 50.7683 48.1656Z" fill="#F2F2F2"/>
<path opacity="0.7" fill-rule="evenodd" clip-rule="evenodd" d="M62.2676 46.4544C62.2676 39.7033 57.1188 34.2305 50.7676 34.2305C44.4163 34.2305 39.2676 39.7033 39.2676 46.4544" fill="#DDE3E9"/>
</g>
<path opacity="0.7" d="M51.6986 0H50.1445V41.2H51.6986V0Z" fill="#DDE3E9"/>
</g>
<path d="M187.676 103.96L193.447 98.3313C194.418 97.3846 195.992 97.3843 196.963 98.3306C196.963 98.3308 196.964 98.331 196.964 98.3313L212.328 113.314C213.26 114.223 213.784 115.455 213.784 116.741V215.977" stroke="#9199B5" stroke-width="3"/>
<path d="M221.864 215.676H205.391C204.876 215.676 204.459 216.083 204.459 216.585V216.888C204.459 217.389 204.876 217.796 205.391 217.796H221.864C222.379 217.796 222.797 217.389 222.797 216.888V216.585C222.797 216.083 222.379 215.676 221.864 215.676Z" fill="#AFB9C5"/>
<path fill-rule="evenodd" clip-rule="evenodd" d="M191.147 100.659C195.153 104.563 195.153 110.893 191.147 114.797L184.993 120.795L170.488 106.657L176.642 100.659C180.647 96.7547 187.142 96.7547 191.147 100.659Z" fill="#B0B5C9"/>
<path d="M176.558 114.955C180.563 118.859 184.45 121.401 185.239 120.632C186.028 119.863 183.42 116.075 179.415 112.171C175.409 108.266 171.523 105.725 170.734 106.494C169.945 107.263 172.552 111.051 176.558 114.955Z" fill="#F2F2F2"/>
<path fill-rule="evenodd" clip-rule="evenodd" d="M25.8228 145.748C26.7132 145.642 27.6634 145.679 28.4914 146.022C30.2521 146.75 30.7525 148.777 30.7284 150.425C30.7024 152.199 30.3159 154.136 31.6994 155.565C32.3353 156.222 33.1264 156.725 33.7508 157.394C34.4181 158.109 34.9416 158.927 35.3293 159.805C36.041 161.419 36.3904 163.316 35.7395 165.009C35.1664 166.499 33.7246 167.844 34.0362 169.539C34.3611 171.307 36.1897 172.658 37.3329 173.975C38.6268 175.465 39.818 177.37 40.0137 179.324C40.2014 181.196 39.365 183.091 38.0815 184.506C35.517 187.335 31.6621 188.722 27.7752 188.713C26.125 188.709 24.2565 188.637 22.8324 187.772C22.3923 187.505 22.16 187.205 21.8984 186.789C21.6638 186.415 21.3539 186.172 20.9952 185.908C20.2071 185.327 19.6379 184.544 19.2747 183.668C17.8643 180.265 18.9916 176.055 20.9659 173.034C21.4337 172.318 21.8167 171.629 21.5894 170.775C21.3523 169.885 20.7694 169.081 20.2538 168.315C19.7444 167.559 19.1628 166.837 18.7646 166.019C18.3475 165.161 18.2301 164.264 18.3038 163.326C18.4423 161.564 19.2227 159.938 20.3276 158.521C21.3918 157.156 22.6414 155.849 22.6442 154.061C22.6473 152.165 21.3471 150.479 21.901 148.552C22.1304 147.754 22.591 146.935 23.3334 146.456C24.0454 145.998 24.9855 145.847 25.8228 145.748Z" fill="#DDE3E9"/>
<path fill-rule="evenodd" clip-rule="evenodd" d="M25.2414 148.778C25.2581 148.524 25.5679 148.371 25.8118 148.437C26.1329 148.525 26.1267 148.817 26.1182 149.078C26.0922 149.878 26.2112 150.657 26.4086 151.434C26.8191 153.049 27.5776 154.537 28.1785 156.089C28.779 157.639 29.0608 159.24 28.7086 160.88C28.3765 162.427 27.8549 163.933 27.515 165.482C27.2155 166.847 26.8968 168.286 27.353 169.648C27.7919 170.958 28.7623 172.026 29.461 173.21C30.9076 175.662 31.5493 178.382 31.6351 181.18C31.6749 182.48 31.6391 183.792 31.3298 185.067C31.1517 185.801 30.9124 186.792 30.2671 187.299C29.9695 187.533 29.4606 187.614 29.2101 187.268C28.975 186.943 29.1813 186.441 29.2559 186.095C29.5792 184.597 29.6442 183.067 29.5669 181.546C29.4919 180.073 29.3134 178.603 28.8378 177.196C28.3963 175.89 27.7257 174.718 26.9364 173.576C26.1322 172.412 25.296 171.246 24.9637 169.867C24.6261 168.466 24.9004 167.041 25.2672 165.667C25.655 164.214 26.1631 162.803 26.6884 161.389C27.2002 160.012 27.3817 158.708 27.0991 157.267C26.5409 154.418 25.0467 151.745 25.2414 148.778Z" fill="#C5CFD6"/>
<path fill-rule="evenodd" clip-rule="evenodd" d="M49.3304 149.206C50.4322 149.532 51.5264 150.058 52.3118 150.883C53.9819 152.637 53.4695 155.289 52.5475 157.225C51.5552 159.309 50.0515 161.404 50.8992 163.796C51.2888 164.895 51.944 165.891 52.3136 166.999C52.7084 168.183 52.8789 169.416 52.8572 170.651C52.817 172.92 52.1977 175.341 50.5164 177.013C49.0361 178.485 46.6155 179.345 46.062 181.507C45.4845 183.762 46.8963 186.288 47.5232 188.424C48.2326 190.843 48.5971 193.699 47.7669 196.109C46.9714 198.419 44.9633 200.235 42.6902 201.258C38.1483 203.303 32.8749 202.989 28.3207 201.008C26.3871 200.166 24.235 199.133 23.0334 197.389C22.662 196.85 22.5522 196.377 22.4713 195.752C22.3987 195.191 22.167 194.747 21.8897 194.252C21.2802 193.166 21.0371 191.951 21.0862 190.731C21.2773 185.992 24.8824 181.585 28.8368 179.012C29.7737 178.403 30.5965 177.782 30.7927 176.658C30.9976 175.484 30.7496 174.238 30.5602 173.071C30.373 171.918 30.0823 170.769 30.059 169.6C30.0347 168.375 30.3837 167.254 30.9788 166.182C32.0968 164.168 33.894 162.641 35.9585 161.525C37.9469 160.45 40.1209 159.539 41.0941 157.426C42.1256 155.185 41.5151 152.532 43.2099 150.533C43.9117 149.706 44.896 148.971 46.0262 148.782C47.1102 148.6 48.2942 148.899 49.3304 149.206Z" fill="#DDE3E9"/>
<path fill-rule="evenodd" clip-rule="evenodd" d="M47.0792 152.91C47.2355 152.617 47.6798 152.594 47.9293 152.797C48.2577 153.065 48.0934 153.408 47.9435 153.712C47.4829 154.647 47.2038 155.63 47.0173 156.651C46.6292 158.773 46.7165 160.923 46.5855 163.067C46.4545 165.21 45.924 167.25 44.6307 169.012C43.4113 170.674 41.9918 172.192 40.7623 173.853C39.6786 175.316 38.5325 176.858 38.3343 178.703C38.1433 180.479 38.7045 182.239 38.8852 183.998C39.2594 187.641 38.5483 191.189 37.1447 194.548C36.4929 196.107 35.7462 197.642 34.6995 198.994C34.0969 199.772 33.2841 200.825 32.2573 201.095C31.7837 201.22 31.1452 201.056 31.0383 200.518C30.9378 200.013 31.449 199.524 31.7221 199.152C32.9049 197.544 33.8033 195.764 34.5299 193.924C35.2337 192.142 35.8151 190.309 36.0148 188.4C36.2001 186.629 36.046 184.897 35.7367 183.142C35.4216 181.353 35.0706 179.544 35.4229 177.742C35.7807 175.911 36.8672 174.363 38.0342 172.924C39.2686 171.401 40.621 169.989 41.9948 168.583C43.3336 167.214 44.2461 165.763 44.6904 163.911C45.5682 160.253 45.2576 156.323 47.0792 152.91Z" fill="#C5CFD6"/>
<path fill-rule="evenodd" clip-rule="evenodd" d="M15.2704 162.66C17.1024 162.66 18.7131 163.607 19.8229 164.95C21.1221 166.522 21.3844 168.442 21.912 170.316C22.1745 171.249 22.626 172.174 23.4172 172.808C24.1368 173.384 25.0504 173.5 25.9118 173.781C27.6333 174.344 29.0234 175.699 29.5724 177.353C30.2421 179.37 29.5327 181.404 29.6549 183.448C29.767 185.326 31.6662 186.497 33.1942 187.397C34.7009 188.285 36.0583 189.115 36.5121 190.844C36.9933 192.678 37.1547 194.725 36.4882 196.536C35.3785 199.552 32.1308 200.88 28.9927 201.086C26.1448 201.273 22.5639 200.979 20.4251 198.965C19.1453 197.759 18.6818 196.072 18.7393 194.395C18.7751 193.351 18.9871 192.318 19.2612 191.31C19.4555 190.595 19.718 189.884 19.7928 189.145C19.9916 187.181 18.1288 186.804 16.5432 186.264C14.5283 185.579 13.1177 184.284 12.1368 182.48C11.2233 180.801 10.8401 178.915 11.3877 177.066C11.6673 176.122 12.1746 175.265 12.8626 174.537C13.1654 174.216 13.5922 173.949 13.8656 173.612C14.1207 173.297 14.0652 172.889 13.9772 172.521C13.5707 170.819 12.304 169.409 11.851 167.71C11.4421 166.176 11.6838 164.267 13.1225 163.278C13.7441 162.85 14.5107 162.665 15.2704 162.66Z" fill="#C5CFD6"/>
<path fill-rule="evenodd" clip-rule="evenodd" d="M17.7679 167.097C19.7096 169.113 20.2374 171.848 20.3923 174.499C20.479 175.986 20.3887 177.554 20.8368 178.996C21.2202 180.23 22.1191 181.173 23.0456 182.065C24.9106 183.86 26.9906 185.684 27.5361 188.282C27.8562 189.806 27.6401 191.381 28.0824 192.889C28.4845 194.259 29.1926 195.606 30.0538 196.763C30.7473 197.695 31.6507 198.408 32.4087 199.277C32.64 199.542 32.9712 199.932 32.8758 200.307C32.7641 200.745 32.1912 200.884 31.7847 200.815C30.8369 200.654 30.0391 199.772 29.4194 199.131C28.5132 198.193 27.7432 197.185 27.1174 196.053C26.4226 194.797 25.8631 193.464 25.6241 192.054C25.376 190.592 25.4995 189.068 24.933 187.664C23.9799 185.303 21.668 183.909 19.9965 182.069C17.914 179.775 18.2245 176.921 18.4379 174.1C18.555 172.55 18.6715 170.799 17.8678 169.383C17.561 168.843 16.8769 168.339 16.745 167.725C16.6242 167.162 17.2836 166.594 17.7679 167.097Z" fill="#AFB9C5"/>
<path fill-rule="evenodd" clip-rule="evenodd" d="M19.8379 200.227C19.838 211.756 21.7684 217.797 31.9595 217.797C42.1507 217.797 44.0811 211.756 44.0811 200.227H19.8379Z" fill="#89C5CC"/>
<path fill-rule="evenodd" clip-rule="evenodd" d="M94.8827 181H133.063H142.723V218H133.063V188.827H94.8827V218H85.2227V181H94.8827Z" fill="#F2F2F2"/>
<path fill-rule="evenodd" clip-rule="evenodd" d="M178.159 132.426C180.905 138.785 185.572 143.203 188.043 149.814C189.509 153.735 190.12 157.998 190.157 162.364C190.177 164.736 190.135 167.109 190.124 169.48C190.113 171.793 190.048 174.091 189.847 176.389C189.644 178.699 189.418 180.981 189.318 183.306C189.24 185.117 189.204 187.223 188.575 188.875C188.074 190.189 186.801 190.381 186.463 188.788C186.275 187.902 186.299 186.913 186.32 186.003C186.346 184.835 186.416 183.669 186.451 182.501C186.594 177.815 186.409 173.129 186.506 168.441C186.6 163.861 187.204 159.286 186.536 154.737C185.984 150.98 184.582 147.753 182.971 144.661C181.421 141.685 179.734 138.782 178.686 135.397C178.385 134.425 178.153 133.418 178.041 132.372C178.09 132.35 178.129 132.368 178.159 132.426Z" fill="#C1DEE2"/>
<path fill-rule="evenodd" clip-rule="evenodd" d="M177.412 144.972C177.956 145.355 178.259 145.914 178.627 146.467C179.084 147.153 179.621 147.773 180.078 148.46C181.03 149.893 181.867 151.413 182.736 152.904C184.384 155.733 185.636 158.748 186.256 162.021C186.898 165.413 187.072 168.914 187.341 172.356C187.627 176.005 187.915 179.68 187.953 183.343C187.97 184.984 188.061 186.726 187.859 188.356C187.733 189.37 187.263 190.234 186.204 190.226C183.955 190.209 182.899 187.781 182.458 185.789C181.808 182.857 181.679 179.742 181.782 176.744C181.906 173.128 182.55 169.566 182.828 165.964C183.124 162.151 182.957 158.405 181.612 154.815C180.932 153.001 180.144 151.23 179.436 149.428C179.134 148.66 178.887 147.872 178.48 147.158C178.027 146.363 177.464 145.641 177.109 144.785C177.21 144.848 177.311 144.91 177.412 144.972Z" fill="#89C5CC"/>
<path fill-rule="evenodd" clip-rule="evenodd" d="M203.321 137.368C203.39 137.316 203.459 137.263 203.528 137.211C203.33 138.027 202.971 138.689 202.697 139.435C202.45 140.105 202.325 140.864 202.159 141.597C201.769 143.318 201.318 145 200.95 146.735C200.221 150.17 200.359 153.87 200.837 157.68C201.289 161.28 202.003 164.873 202.343 168.472C202.625 171.456 202.746 174.534 202.477 177.381C202.295 179.315 201.695 181.624 200.062 181.429C199.293 181.337 198.892 180.435 198.731 179.417C198.471 177.781 198.417 176.062 198.316 174.436C198.09 170.806 198.045 167.187 198 163.595C197.958 160.205 197.842 156.749 198.074 153.445C198.298 150.257 198.999 147.384 200.001 144.733C200.529 143.336 201.032 141.907 201.625 140.576C201.91 139.938 202.257 139.374 202.542 138.736C202.771 138.223 202.953 137.696 203.321 137.368Z" fill="#C1DEE2"/>
<path fill-rule="evenodd" clip-rule="evenodd" d="M178.106 155.478C178.403 154.991 179.058 156.596 179.158 156.798C179.116 156.698 179.073 156.598 179.031 156.497C179.621 157.454 180.161 158.45 180.497 159.547C180.829 160.633 181.114 161.741 181.426 162.835C182.011 164.887 182.766 166.881 183.296 168.952C183.812 170.969 183.943 172.953 183.818 175.04C183.688 177.209 183.608 179.412 183.76 181.58C183.832 182.615 184.177 183.58 184.414 184.576C184.651 185.574 184.837 186.585 185.117 187.571C185.182 187.442 185.19 187.872 185.19 187.904C185.188 188.15 185.153 188.357 185.071 188.59C184.863 189.191 184.472 189.701 183.877 189.866C182.803 190.165 181.806 189.213 181.459 188.207C180.962 186.764 180.688 185.169 180.451 183.652C180.234 182.261 180.183 180.862 180.247 179.452C180.375 176.672 180.891 173.927 181.03 171.147C181.182 168.121 180.567 165.278 180.052 162.332C179.804 160.912 179.567 159.506 179.084 158.154C178.889 157.606 178.634 157.123 178.367 156.617C178.215 156.329 177.907 155.816 178.106 155.478Z" fill="#C1DEE2"/>
<path fill-rule="evenodd" clip-rule="evenodd" d="M186.823 150.752C186.7 154.219 186.487 157.659 186.013 161.09C185.529 164.591 184.973 168.08 184.508 171.584C184.054 174.995 183.579 178.462 183.642 181.92C183.689 184.468 183.256 188.777 186.158 190.035C189.098 191.308 189.729 185.87 189.922 184.076C190.292 180.632 190.172 177.153 189.993 173.691C189.808 170.138 189.501 166.602 189.119 163.062C188.696 159.13 188.363 155.18 188.097 151.236C187.965 149.285 187.932 147.338 187.969 145.387C188.003 143.546 187.931 141.686 187.26 139.938C187.224 139.962 187.19 139.987 187.154 140.012" fill="#69A1AC"/>
<path fill-rule="evenodd" clip-rule="evenodd" d="M202 161.734C201.471 162.484 200.938 163.228 200.439 164.023C199.545 165.446 198.737 167.028 198.494 169.062C197.986 173.32 198.394 177.918 198.492 182.306C198.512 183.202 198.396 184.072 198.759 184.925C199.087 185.699 199.702 186.289 200.288 186.286C201.542 186.279 201.351 183.285 201.353 181.967C201.357 179.658 201.091 177.325 201.114 175.018C201.137 172.732 201.279 170.44 201.619 168.269C201.963 166.072 202.468 163.962 203.133 161.993C203.225 161.719 203.888 159.608 203.262 159.972" fill="#89C5CC"/>
<path fill-rule="evenodd" clip-rule="evenodd" d="M196.46 139.027C195.636 139.027 195.641 143.034 195.616 143.549C195.526 145.406 195.547 147.264 195.491 149.121C195.367 153.175 195.214 157.264 194.59 161.271C194.253 163.428 193.863 165.576 193.444 167.716C193.023 169.863 192.458 172.008 192.182 174.182C191.916 176.272 192.066 178.403 192.103 180.503C192.139 182.616 192.204 184.733 192.489 186.828C192.559 187.345 192.641 187.86 192.729 188.374C192.802 188.802 192.759 189.333 192.883 189.74C193.082 190.392 193.934 190.605 194.507 190.503C196.059 190.227 197.05 188.328 197.58 186.94C198.257 185.169 198.616 183.247 198.971 181.38C199.372 179.264 199.608 177.117 199.718 174.963C199.942 170.586 199.654 166.205 199.333 161.842C199.154 159.415 198.947 157 198.631 154.588C198.316 152.187 197.912 149.797 197.649 147.389C197.457 145.639 197.269 143.887 197.145 142.13C197.116 141.711 197.091 139.027 196.46 139.027Z" fill="#69A1AC"/>
<path fill-rule="evenodd" clip-rule="evenodd" d="M195.428 168.152C195.294 163.946 193.559 145.468 193.164 140.381C193.065 139.108 192.115 133.807 191.992 132.363C191.658 132.771 191.686 139.122 191.69 140.581C191.694 142.024 191.51 143.444 191.416 144.879C191.319 146.344 189.097 165.263 188.809 166.671C188.235 169.471 187.852 172.344 187.555 175.208C187.267 177.998 186.819 180.942 187.205 183.748C187.293 184.393 187.434 185.029 187.662 185.622C187.909 186.263 188.078 186.856 188.277 187.527C188.596 188.607 189.173 189.555 190.06 190.001C191.878 190.916 192.854 188.846 193.349 187.043C194.139 184.165 194.646 181.239 194.884 178.216C195.147 174.871 195.536 171.52 195.428 168.152Z" fill="#89C5CC"/>
<path d="M203.84 180.531H176.799C176.456 180.531 176.178 180.803 176.178 181.137V207.493C176.178 207.828 176.456 208.099 176.799 208.099H203.84C204.183 208.099 204.462 207.828 204.462 207.493V181.137C204.462 180.803 204.183 180.531 203.84 180.531Z" fill="#F3F4F7"/>
<path d="M175.555 183.562H173.69C173.347 183.562 173.068 183.834 173.068 184.168V217.189C173.068 217.524 173.347 217.795 173.69 217.795H175.555C175.898 217.795 176.176 217.524 176.176 217.189V184.168C176.176 183.834 175.898 183.562 175.555 183.562Z" fill="#DADDE6"/>
<path d="M191.096 183.562H189.231C188.888 183.562 188.609 183.834 188.609 184.168V217.189C188.609 217.524 188.888 217.795 189.231 217.795H191.096C191.439 217.795 191.717 217.524 191.717 217.189V184.168C191.717 183.834 191.439 183.562 191.096 183.562Z" fill="#DADDE6"/>
<path d="M206.945 183.562H205.081C204.737 183.562 204.459 183.834 204.459 184.168V217.189C204.459 217.524 204.737 217.795 205.081 217.795H206.945C207.289 217.795 207.567 217.524 207.567 217.189V184.168C207.567 183.834 207.289 183.562 206.945 183.562Z" fill="#DADDE6"/>
<path d="M85.9062 158.192L86.4565 175.203C86.5524 178.169 89.0008 180.53 91.9999 180.547L132.972 180.787C134.976 180.799 136.684 179.351 136.976 177.389C137.617 173.093 138.433 165.406 137.514 158.191H85.9062V158.192Z" fill="url(#paint0_linear_7230_95370)"/>
<path d="M131.521 179.742H131.521L131.222 179.74C131.194 179.74 131.173 179.718 131.173 179.691C131.173 179.664 131.195 179.642 131.222 179.642H131.223L131.521 179.643C131.548 179.643 131.571 179.666 131.571 179.693C131.571 179.72 131.548 179.742 131.521 179.742ZM132.217 179.737C132.191 179.737 132.169 179.717 132.168 179.691C132.166 179.664 132.187 179.64 132.214 179.639C132.312 179.633 132.41 179.623 132.507 179.609C132.534 179.605 132.559 179.624 132.563 179.651C132.567 179.679 132.548 179.703 132.521 179.707C132.421 179.721 132.32 179.731 132.22 179.737C132.219 179.737 132.218 179.737 132.217 179.737V179.737ZM130.526 179.736H130.526L130.227 179.734C130.2 179.734 130.178 179.712 130.178 179.685C130.178 179.658 130.2 179.636 130.228 179.636H130.228L130.526 179.637C130.554 179.637 130.576 179.66 130.576 179.687C130.576 179.714 130.553 179.736 130.526 179.736ZM129.531 179.731H129.531L129.233 179.729C129.205 179.729 129.183 179.707 129.183 179.679C129.183 179.652 129.206 179.63 129.233 179.63H129.233L129.532 179.632C129.559 179.632 129.581 179.654 129.581 179.681C129.581 179.709 129.559 179.731 129.531 179.731ZM128.537 179.725H128.536L128.238 179.723C128.21 179.723 128.188 179.701 128.188 179.673C128.188 179.646 128.215 179.626 128.239 179.624L128.537 179.626C128.564 179.626 128.586 179.648 128.586 179.676C128.586 179.703 128.564 179.725 128.537 179.725ZM127.542 179.719H127.542L127.243 179.717C127.216 179.717 127.194 179.695 127.194 179.667C127.194 179.64 127.216 179.618 127.244 179.618H127.244L127.542 179.62C127.57 179.62 127.592 179.643 127.592 179.67C127.592 179.697 127.569 179.719 127.542 179.719ZM126.547 179.713H126.547L126.249 179.711C126.221 179.711 126.199 179.689 126.199 179.662C126.199 179.634 126.226 179.612 126.249 179.612L126.548 179.614C126.575 179.614 126.597 179.636 126.597 179.664C126.597 179.691 126.575 179.713 126.547 179.713ZM125.553 179.707H125.552L125.254 179.705C125.227 179.705 125.204 179.683 125.204 179.656C125.204 179.629 125.227 179.606 125.254 179.606H125.254L125.553 179.608C125.581 179.608 125.602 179.63 125.602 179.658C125.602 179.685 125.58 179.707 125.553 179.707ZM124.558 179.701H124.558L124.259 179.699C124.232 179.699 124.21 179.677 124.21 179.65C124.21 179.623 124.232 179.601 124.259 179.601H124.26L124.558 179.602C124.586 179.602 124.608 179.624 124.608 179.652C124.608 179.679 124.585 179.701 124.558 179.701ZM123.563 179.695H123.563L123.264 179.694C123.237 179.694 123.215 179.671 123.215 179.644C123.215 179.617 123.237 179.595 123.265 179.595H123.265L123.564 179.596C123.591 179.596 123.613 179.619 123.613 179.646C123.613 179.673 123.591 179.695 123.563 179.695ZM122.569 179.69H122.568L122.27 179.688C122.242 179.688 122.22 179.666 122.22 179.638C122.22 179.611 122.243 179.589 122.27 179.589H122.27L122.569 179.591C122.596 179.591 122.618 179.613 122.618 179.64C122.618 179.668 122.596 179.69 122.569 179.69ZM121.574 179.684H121.574L121.275 179.682C121.248 179.682 121.226 179.659 121.226 179.632C121.226 179.605 121.248 179.583 121.275 179.583H121.276L121.574 179.585C121.602 179.585 121.624 179.607 121.624 179.634C121.624 179.662 121.601 179.684 121.574 179.684ZM120.579 179.678H120.579L120.28 179.676C120.253 179.676 120.231 179.654 120.231 179.626C120.231 179.599 120.253 179.577 120.281 179.577H120.281L120.579 179.579C120.607 179.579 120.629 179.602 120.629 179.629C120.629 179.656 120.606 179.678 120.579 179.678ZM119.584 179.672H119.584L119.286 179.67C119.258 179.67 119.236 179.648 119.236 179.621C119.236 179.593 119.259 179.571 119.286 179.571H119.286L119.585 179.573C119.612 179.573 119.634 179.595 119.634 179.623C119.634 179.65 119.612 179.672 119.584 179.672ZM118.59 179.666H118.589L118.291 179.664C118.263 179.664 118.241 179.642 118.241 179.615C118.241 179.587 118.264 179.565 118.291 179.565H118.292L118.59 179.567C118.618 179.567 118.639 179.589 118.639 179.617C118.639 179.644 118.617 179.666 118.59 179.666ZM117.595 179.66H117.595L117.296 179.658C117.269 179.658 117.247 179.636 117.247 179.609C117.247 179.581 117.269 179.559 117.297 179.559H117.297L117.595 179.561C117.623 179.561 117.645 179.584 117.645 179.611C117.645 179.638 117.622 179.66 117.595 179.66ZM116.6 179.654H116.6L116.302 179.653C116.274 179.653 116.252 179.63 116.252 179.603C116.252 179.576 116.278 179.557 116.302 179.554L116.601 179.555C116.628 179.555 116.65 179.578 116.65 179.605C116.65 179.632 116.628 179.654 116.6 179.654ZM115.606 179.649H115.605L115.307 179.647C115.279 179.647 115.257 179.625 115.257 179.597C115.257 179.57 115.28 179.548 115.307 179.548H115.307L115.606 179.55C115.633 179.55 115.655 179.572 115.655 179.599C115.655 179.627 115.633 179.649 115.606 179.649ZM114.611 179.643H114.611L114.312 179.641C114.285 179.641 114.263 179.619 114.263 179.591C114.263 179.564 114.288 179.543 114.313 179.542L114.611 179.544C114.639 179.544 114.661 179.566 114.661 179.593C114.661 179.621 114.638 179.643 114.611 179.643ZM113.616 179.637H113.616L113.317 179.635C113.29 179.635 113.268 179.613 113.268 179.586C113.268 179.558 113.29 179.536 113.318 179.536H113.318L113.617 179.538C113.644 179.538 113.666 179.56 113.666 179.588C113.666 179.615 113.644 179.637 113.616 179.637ZM112.622 179.631H112.621L112.323 179.629C112.295 179.629 112.273 179.607 112.273 179.58C112.273 179.552 112.299 179.53 112.323 179.53L112.622 179.532C112.649 179.532 112.671 179.555 112.671 179.582C112.671 179.609 112.649 179.631 112.622 179.631ZM111.627 179.625H111.627L111.328 179.623C111.3 179.623 111.279 179.601 111.279 179.574C111.279 179.546 111.301 179.524 111.328 179.524H111.329L111.627 179.526C111.655 179.526 111.677 179.548 111.677 179.576C111.677 179.603 111.654 179.625 111.627 179.625ZM110.632 179.619H110.632L110.333 179.617C110.306 179.617 110.284 179.595 110.284 179.568C110.284 179.54 110.306 179.518 110.334 179.518H110.334L110.632 179.52C110.66 179.52 110.682 179.543 110.682 179.57C110.682 179.597 110.659 179.619 110.632 179.619ZM109.637 179.613H109.637L109.339 179.612C109.311 179.612 109.289 179.589 109.289 179.562C109.289 179.535 109.312 179.513 109.339 179.513H109.339L109.638 179.514C109.665 179.514 109.687 179.537 109.687 179.564C109.687 179.591 109.665 179.613 109.637 179.613ZM108.643 179.608H108.642L108.344 179.606C108.317 179.606 108.294 179.584 108.294 179.556C108.294 179.529 108.317 179.507 108.344 179.507H108.345L108.643 179.509C108.671 179.509 108.692 179.531 108.692 179.558C108.692 179.586 108.67 179.608 108.643 179.608ZM107.648 179.602H107.648L107.349 179.6C107.322 179.6 107.3 179.577 107.3 179.55C107.3 179.523 107.322 179.501 107.35 179.501H107.35L107.648 179.503C107.676 179.503 107.698 179.525 107.698 179.552C107.698 179.58 107.675 179.602 107.648 179.602ZM106.653 179.596H106.653L106.355 179.594C106.327 179.594 106.305 179.572 106.305 179.545C106.305 179.517 106.328 179.495 106.355 179.495H106.355L106.654 179.497C106.681 179.497 106.703 179.519 106.703 179.547C106.703 179.574 106.681 179.596 106.653 179.596ZM105.659 179.59H105.658L105.36 179.588C105.332 179.588 105.31 179.566 105.31 179.539C105.31 179.511 105.333 179.489 105.36 179.489H105.36L105.659 179.491C105.687 179.491 105.708 179.513 105.708 179.541C105.708 179.568 105.686 179.59 105.659 179.59ZM104.664 179.584H104.664L104.365 179.582C104.338 179.582 104.316 179.56 104.316 179.533C104.316 179.505 104.338 179.483 104.365 179.483H104.366L104.664 179.485C104.692 179.485 104.714 179.507 104.714 179.535C104.714 179.562 104.691 179.584 104.664 179.584ZM103.669 179.578H103.669L103.37 179.576C103.343 179.576 103.321 179.554 103.321 179.527C103.321 179.499 103.343 179.477 103.371 179.477H103.371L103.67 179.479C103.697 179.479 103.719 179.502 103.719 179.529C103.719 179.556 103.697 179.578 103.669 179.578ZM102.675 179.572H102.674L102.376 179.571C102.348 179.571 102.326 179.548 102.326 179.521C102.326 179.494 102.351 179.474 102.376 179.472L102.675 179.473C102.702 179.473 102.724 179.496 102.724 179.523C102.724 179.55 102.702 179.572 102.675 179.572ZM101.68 179.567H101.68L101.381 179.565C101.353 179.565 101.332 179.543 101.332 179.515C101.332 179.488 101.354 179.466 101.381 179.466H101.382L101.68 179.468C101.707 179.468 101.73 179.49 101.73 179.517C101.73 179.545 101.707 179.567 101.68 179.567ZM100.685 179.561H100.685L100.386 179.559C100.359 179.559 100.337 179.536 100.337 179.509C100.337 179.482 100.361 179.461 100.387 179.46L100.685 179.462C100.713 179.462 100.735 179.484 100.735 179.512C100.735 179.539 100.712 179.561 100.685 179.561ZM99.6904 179.555H99.6902L99.3917 179.553C99.3641 179.553 99.3422 179.531 99.3422 179.503C99.3422 179.476 99.3646 179.454 99.3919 179.454H99.3922L99.6907 179.456C99.7183 179.456 99.7402 179.478 99.7402 179.506C99.7402 179.533 99.7178 179.555 99.6904 179.555ZM133.195 179.55C133.174 179.55 133.154 179.537 133.147 179.516C133.138 179.49 133.153 179.462 133.179 179.453C133.272 179.423 133.364 179.388 133.454 179.35C133.48 179.34 133.509 179.351 133.52 179.377C133.53 179.402 133.518 179.431 133.493 179.441C133.401 179.48 133.305 179.516 133.21 179.547C133.205 179.549 133.2 179.549 133.195 179.549V179.55ZM98.6957 179.549H98.6955L98.397 179.548C98.3694 179.548 98.3475 179.525 98.3475 179.498C98.3475 179.471 98.3718 179.448 98.3975 179.449L98.696 179.45C98.7236 179.45 98.7455 179.473 98.7455 179.5C98.7455 179.527 98.7231 179.549 98.6957 179.549ZM97.701 179.543H97.7008L97.4023 179.542C97.3747 179.542 97.3528 179.519 97.3528 179.492C97.3528 179.465 97.3752 179.443 97.4025 179.443H97.4028L97.7013 179.444C97.7289 179.444 97.7508 179.467 97.7508 179.494C97.7508 179.521 97.7284 179.543 97.701 179.543ZM96.7063 179.537H96.7061L96.4076 179.536C96.38 179.536 96.3581 179.514 96.3581 179.486C96.3581 179.459 96.3805 179.437 96.4078 179.437H96.4081L96.7066 179.439C96.7342 179.439 96.7561 179.461 96.7561 179.488C96.7561 179.515 96.7337 179.537 96.7063 179.537ZM95.7116 179.531H95.7114L95.4129 179.53C95.3853 179.53 95.3634 179.508 95.3634 179.48C95.3634 179.453 95.3858 179.431 95.4131 179.431H95.4134L95.7119 179.433C95.7395 179.433 95.7614 179.455 95.7614 179.482C95.7614 179.509 95.739 179.531 95.7116 179.531ZM94.7169 179.526H94.7167L94.4182 179.524C94.3908 179.524 94.3687 179.502 94.3687 179.474C94.3687 179.447 94.3911 179.425 94.4184 179.425H94.4187L94.7172 179.427C94.7448 179.427 94.7667 179.449 94.7667 179.477C94.7667 179.504 94.7443 179.526 94.7169 179.526ZM93.7222 179.52H93.722L93.4235 179.518C93.3959 179.518 93.374 179.496 93.374 179.468C93.374 179.441 93.3964 179.419 93.4237 179.419H93.424L93.7225 179.421C93.7501 179.421 93.772 179.444 93.772 179.471C93.772 179.498 93.7496 179.52 93.7222 179.52ZM92.7275 179.509C92.7275 179.509 92.7259 179.509 92.7251 179.509C92.6256 179.504 92.5247 179.496 92.4249 179.486C92.3976 179.483 92.3779 179.458 92.3807 179.431C92.3837 179.404 92.4075 179.384 92.4353 179.387C92.5332 179.398 92.6321 179.405 92.73 179.41C92.7573 179.411 92.7787 179.434 92.7773 179.462C92.7759 179.488 92.7541 179.509 92.7275 179.509ZM91.7446 179.368C91.7408 179.368 91.7369 179.368 91.7328 179.367C91.6358 179.344 91.5379 179.317 91.4423 179.289C91.416 179.281 91.401 179.253 91.4089 179.227C91.4169 179.201 91.4447 179.186 91.471 179.194C91.565 179.222 91.6609 179.248 91.7561 179.271C91.7829 179.277 91.7993 179.304 91.7927 179.33C91.7872 179.353 91.7667 179.368 91.7443 179.368H91.7446ZM134.088 179.12C134.072 179.12 134.056 179.112 134.047 179.098C134.031 179.075 134.038 179.044 134.061 179.029C134.143 178.976 134.223 178.919 134.301 178.859C134.322 178.843 134.354 178.847 134.37 178.868C134.387 178.89 134.383 178.921 134.361 178.938C134.282 178.999 134.2 179.057 134.115 179.112C134.107 179.118 134.098 179.12 134.088 179.12V179.12ZM90.8051 179.048C90.7983 179.048 90.7914 179.046 90.7846 179.043C90.6939 179.003 90.6028 178.959 90.5143 178.913C90.4899 178.9 90.4804 178.87 90.4932 178.846C90.5061 178.822 90.5359 178.812 90.5605 178.825C90.6477 178.87 90.7368 178.913 90.8259 178.953C90.851 178.964 90.862 178.994 90.8508 179.019C90.8426 179.037 90.8242 179.048 90.8054 179.048H90.8051ZM89.9427 178.559C89.9329 178.559 89.9228 178.556 89.9143 178.55C89.8325 178.493 89.7514 178.433 89.6729 178.372C89.6513 178.355 89.6478 178.323 89.6647 178.302C89.6817 178.281 89.7131 178.277 89.7347 178.294C89.8118 178.354 89.8913 178.413 89.9717 178.469C89.9941 178.485 89.9996 178.516 89.9837 178.538C89.9741 178.551 89.9586 178.559 89.943 178.559L89.9427 178.559ZM134.84 178.477C134.828 178.477 134.816 178.473 134.807 178.465C134.786 178.446 134.785 178.415 134.803 178.395C134.868 178.322 134.931 178.247 134.991 178.169C135.007 178.148 135.038 178.144 135.06 178.16C135.082 178.177 135.086 178.208 135.07 178.229C135.009 178.309 134.944 178.387 134.877 178.461C134.867 178.472 134.853 178.477 134.84 178.477L134.84 178.477ZM89.1864 177.919C89.1735 177.919 89.1604 177.914 89.1508 177.904C89.0811 177.833 89.0122 177.759 88.9466 177.684C88.9286 177.664 88.9308 177.632 88.9516 177.614C88.9723 177.596 89.0035 177.599 89.0218 177.619C89.0863 177.693 89.1536 177.766 89.2222 177.835C89.2413 177.855 89.241 177.886 89.2214 177.905C89.2118 177.914 89.1992 177.919 89.1866 177.919H89.1864ZM135.4 177.664C135.393 177.664 135.385 177.662 135.378 177.658C135.353 177.646 135.344 177.616 135.356 177.592C135.4 177.505 135.441 177.416 135.479 177.326C135.489 177.301 135.518 177.289 135.544 177.299C135.569 177.31 135.581 177.339 135.571 177.364C135.533 177.456 135.49 177.548 135.445 177.637C135.436 177.654 135.419 177.664 135.401 177.664L135.4 177.664ZM88.5626 177.151C88.5465 177.151 88.5306 177.143 88.521 177.129C88.4656 177.045 88.412 176.96 88.3617 176.874C88.3477 176.85 88.3557 176.82 88.3795 176.806C88.4032 176.793 88.4336 176.801 88.4475 176.824C88.497 176.908 88.5495 176.992 88.6039 177.074C88.6189 177.097 88.6129 177.127 88.5899 177.142C88.5815 177.148 88.5719 177.151 88.5626 177.151V177.151ZM135.729 176.734C135.726 176.734 135.722 176.733 135.719 176.733C135.692 176.727 135.675 176.701 135.681 176.674C135.696 176.602 135.709 176.527 135.72 176.453L135.731 176.385C135.735 176.358 135.76 176.338 135.787 176.343C135.814 176.347 135.833 176.372 135.829 176.399L135.819 176.467C135.807 176.543 135.794 176.62 135.778 176.694C135.773 176.718 135.752 176.734 135.729 176.734ZM88.0944 176.279C88.0749 176.279 88.0564 176.268 88.0484 176.249C88.0099 176.157 87.9735 176.063 87.9399 175.969C87.9309 175.943 87.9443 175.915 87.9703 175.906C87.9959 175.897 88.0244 175.91 88.0337 175.936C88.0665 176.028 88.1023 176.121 88.14 176.211C88.1507 176.236 88.1386 176.265 88.1132 176.275C88.1069 176.278 88.1004 176.279 88.0941 176.279H88.0944ZM135.878 175.756C135.876 175.756 135.874 175.756 135.872 175.755C135.844 175.751 135.825 175.726 135.829 175.699C135.843 175.603 135.856 175.505 135.87 175.406C135.874 175.379 135.898 175.36 135.926 175.363C135.953 175.367 135.972 175.392 135.968 175.419C135.955 175.518 135.941 175.616 135.928 175.713C135.924 175.738 135.903 175.756 135.878 175.756ZM87.7994 175.335C87.7765 175.335 87.7557 175.319 87.7508 175.296C87.7303 175.198 87.7125 175.099 87.6977 175.001C87.6936 174.974 87.7125 174.949 87.7396 174.945C87.7672 174.941 87.792 174.96 87.7961 174.986C87.8106 175.083 87.8281 175.18 87.8483 175.276C87.8541 175.302 87.8369 175.329 87.8098 175.334C87.8065 175.335 87.803 175.335 87.7997 175.335H87.7994ZM136.01 174.775C136.007 174.775 136.006 174.775 136.003 174.775C135.976 174.771 135.957 174.746 135.96 174.72L135.997 174.425C136.001 174.398 136.026 174.379 136.053 174.382C136.08 174.386 136.1 174.41 136.096 174.437L136.059 174.732C136.056 174.757 136.034 174.775 136.01 174.775V174.775ZM87.6882 174.354C87.6614 174.354 87.6392 174.333 87.6384 174.306L87.6288 174.01C87.628 173.983 87.6496 173.96 87.677 173.959C87.7046 173.956 87.7273 173.979 87.7283 174.006L87.7379 174.303C87.7387 174.33 87.7171 174.353 87.6898 174.354C87.6893 174.354 87.6887 174.354 87.6882 174.354ZM136.13 173.793C136.128 173.793 136.126 173.793 136.124 173.793C136.097 173.789 136.077 173.765 136.08 173.738C136.092 173.64 136.103 173.542 136.114 173.443C136.117 173.416 136.142 173.397 136.169 173.399C136.196 173.402 136.216 173.427 136.213 173.454C136.202 173.553 136.191 173.652 136.179 173.749C136.176 173.774 136.155 173.793 136.13 173.793ZM87.6562 173.365C87.6294 173.365 87.6073 173.344 87.6064 173.318L87.5969 173.021C87.596 172.994 87.6176 172.971 87.645 172.97C87.672 172.968 87.6955 172.991 87.6964 173.018L87.7059 173.314C87.7068 173.341 87.6852 173.364 87.6578 173.365C87.6573 173.365 87.6567 173.365 87.6562 173.365ZM136.238 172.809C136.237 172.809 136.235 172.809 136.233 172.809C136.206 172.807 136.186 172.782 136.189 172.755C136.199 172.657 136.209 172.559 136.219 172.46C136.222 172.433 136.246 172.413 136.274 172.416C136.301 172.418 136.321 172.442 136.318 172.47C136.308 172.569 136.298 172.667 136.288 172.765C136.285 172.791 136.263 172.809 136.238 172.809H136.238ZM87.6242 172.377C87.5974 172.377 87.5753 172.355 87.5745 172.329L87.5649 172.032C87.5641 172.005 87.5857 171.982 87.613 171.981C87.6365 171.977 87.6636 172.002 87.6644 172.029L87.674 172.326C87.6748 172.353 87.6532 172.376 87.6258 172.377C87.6253 172.377 87.6247 172.377 87.6242 172.377ZM136.336 171.825C136.334 171.825 136.333 171.825 136.331 171.825C136.304 171.822 136.284 171.798 136.287 171.771C136.296 171.673 136.305 171.575 136.314 171.475C136.316 171.448 136.34 171.428 136.367 171.431C136.395 171.433 136.415 171.457 136.413 171.484C136.404 171.583 136.395 171.682 136.386 171.78C136.383 171.806 136.361 171.825 136.336 171.825ZM87.5922 171.388C87.5654 171.388 87.5433 171.367 87.5425 171.34L87.5329 171.044C87.5321 171.016 87.5537 170.994 87.581 170.993C87.6048 170.989 87.6313 171.013 87.6324 171.04L87.642 171.337C87.6428 171.364 87.6212 171.387 87.5939 171.388C87.5933 171.388 87.5928 171.388 87.5922 171.388ZM136.422 170.839C136.422 170.839 136.419 170.839 136.418 170.839C136.39 170.837 136.37 170.813 136.372 170.786L136.396 170.49C136.398 170.463 136.421 170.442 136.449 170.445C136.477 170.447 136.497 170.47 136.495 170.498L136.471 170.794C136.469 170.82 136.448 170.839 136.422 170.839V170.839ZM87.5602 170.399C87.5335 170.399 87.5113 170.378 87.5105 170.351L87.5009 170.055C87.5001 170.028 87.5217 170.005 87.549 170.004C87.5755 170.002 87.5996 170.024 87.6004 170.052L87.61 170.348C87.6108 170.375 87.5892 170.398 87.5619 170.399C87.5613 170.399 87.5608 170.399 87.5602 170.399ZM136.496 169.852C136.496 169.852 136.494 169.852 136.492 169.852C136.465 169.851 136.444 169.827 136.446 169.8L136.466 169.504C136.468 169.477 136.491 169.457 136.519 169.458C136.547 169.459 136.567 169.483 136.566 169.51L136.546 169.807C136.544 169.833 136.522 169.853 136.496 169.853L136.496 169.852ZM87.5283 169.411C87.5015 169.411 87.4793 169.389 87.4785 169.363L87.4689 169.066C87.4681 169.039 87.4897 169.016 87.5171 169.015C87.5433 169.012 87.5676 169.036 87.5684 169.063L87.578 169.359C87.5788 169.387 87.5572 169.409 87.5299 169.411H87.5283ZM136.558 168.865C136.558 168.865 136.556 168.865 136.555 168.865C136.528 168.864 136.507 168.84 136.508 168.813C136.514 168.715 136.519 168.616 136.524 168.517C136.526 168.49 136.55 168.468 136.577 168.47C136.604 168.471 136.625 168.495 136.624 168.522C136.618 168.621 136.613 168.72 136.607 168.818C136.606 168.845 136.584 168.865 136.558 168.865H136.558ZM87.4963 168.422C87.4695 168.422 87.4473 168.401 87.4465 168.374L87.437 168.078C87.4361 168.051 87.4577 168.028 87.4851 168.027C87.5113 168.025 87.5356 168.047 87.5365 168.075L87.546 168.371C87.5468 168.398 87.5253 168.421 87.4979 168.422C87.4974 168.422 87.4968 168.422 87.4963 168.422ZM136.607 167.877C136.607 167.877 136.606 167.877 136.605 167.877C136.577 167.876 136.556 167.853 136.557 167.826C136.562 167.727 136.566 167.628 136.569 167.529C136.571 167.502 136.594 167.48 136.621 167.482C136.648 167.483 136.67 167.506 136.669 167.533C136.665 167.632 136.661 167.731 136.657 167.83C136.656 167.857 136.633 167.877 136.607 167.877ZM87.4643 167.434C87.4375 167.434 87.4154 167.413 87.4145 167.386L87.405 167.089C87.4042 167.062 87.4258 167.039 87.4531 167.038C87.4774 167.035 87.5034 167.059 87.5045 167.086L87.514 167.383C87.5149 167.41 87.4933 167.433 87.4659 167.434C87.4654 167.434 87.4648 167.434 87.4643 167.434ZM136.643 166.889H136.642C136.614 166.888 136.592 166.865 136.593 166.838C136.596 166.739 136.599 166.64 136.601 166.541C136.602 166.514 136.624 166.493 136.653 166.493C136.68 166.494 136.702 166.517 136.701 166.544C136.699 166.643 136.696 166.742 136.693 166.841C136.692 166.868 136.67 166.889 136.643 166.889V166.889ZM87.4323 166.445C87.4055 166.445 87.3834 166.424 87.3826 166.397L87.373 166.101C87.3722 166.074 87.3938 166.051 87.4211 166.05C87.4454 166.047 87.4714 166.07 87.4725 166.097L87.4821 166.394C87.4829 166.421 87.4613 166.444 87.434 166.445C87.4334 166.445 87.4329 166.445 87.4323 166.445ZM136.665 165.9H136.664C136.637 165.899 136.615 165.877 136.615 165.849C136.617 165.751 136.618 165.652 136.619 165.553C136.62 165.525 136.645 165.505 136.67 165.504C136.697 165.504 136.719 165.526 136.719 165.554C136.718 165.653 136.716 165.752 136.715 165.851C136.714 165.878 136.692 165.9 136.665 165.9ZM87.4003 165.457C87.3735 165.457 87.3514 165.435 87.3506 165.409L87.341 165.112C87.3402 165.085 87.3618 165.062 87.3891 165.061C87.4135 165.058 87.4394 165.082 87.4405 165.109L87.4501 165.406C87.4509 165.433 87.4293 165.456 87.402 165.457C87.4014 165.457 87.4009 165.457 87.4003 165.457ZM136.673 164.911C136.645 164.911 136.623 164.889 136.623 164.861V164.837C136.623 164.746 136.623 164.656 136.623 164.565C136.623 164.538 136.645 164.515 136.672 164.515C136.699 164.515 136.722 164.537 136.722 164.564C136.722 164.655 136.722 164.746 136.722 164.837V164.861C136.722 164.889 136.7 164.911 136.673 164.911H136.673ZM87.3684 164.468C87.3416 164.468 87.3194 164.447 87.3186 164.42L87.309 164.124C87.3082 164.096 87.3298 164.074 87.3571 164.073C87.3848 164.069 87.4074 164.093 87.4085 164.12L87.4181 164.417C87.4189 164.444 87.3973 164.467 87.37 164.468H87.3684ZM136.665 163.922C136.638 163.922 136.616 163.9 136.616 163.873C136.614 163.774 136.612 163.676 136.61 163.577C136.61 163.55 136.632 163.527 136.659 163.526C136.683 163.524 136.709 163.547 136.71 163.575C136.712 163.674 136.714 163.773 136.715 163.871C136.715 163.899 136.694 163.921 136.666 163.922H136.665ZM87.3364 163.479C87.3096 163.479 87.2874 163.458 87.2866 163.431L87.2771 163.135C87.2762 163.108 87.2978 163.085 87.3252 163.084C87.3498 163.081 87.3755 163.104 87.3766 163.132L87.3861 163.428C87.3869 163.455 87.3653 163.478 87.338 163.479H87.3364ZM136.642 162.933C136.615 162.933 136.593 162.912 136.592 162.885C136.589 162.787 136.586 162.688 136.582 162.589C136.581 162.562 136.603 162.539 136.63 162.538C136.658 162.535 136.681 162.558 136.682 162.585C136.686 162.684 136.689 162.783 136.692 162.882C136.693 162.909 136.671 162.932 136.644 162.933H136.642H136.642ZM87.3044 162.491C87.2776 162.491 87.2555 162.469 87.2546 162.443L87.2451 162.146C87.2443 162.119 87.2658 162.096 87.2932 162.095C87.3205 162.093 87.3435 162.116 87.3446 162.143L87.3541 162.439C87.355 162.467 87.3334 162.489 87.306 162.491C87.3055 162.491 87.3049 162.491 87.3044 162.491ZM136.602 161.945C136.576 161.945 136.554 161.924 136.552 161.898C136.547 161.799 136.542 161.701 136.537 161.602C136.535 161.575 136.556 161.551 136.584 161.55C136.611 161.549 136.635 161.569 136.636 161.596C136.642 161.695 136.647 161.794 136.652 161.893C136.653 161.92 136.632 161.943 136.605 161.945C136.604 161.945 136.603 161.945 136.602 161.945H136.602ZM87.2724 161.502C87.2456 161.502 87.2235 161.481 87.2227 161.454L87.2131 161.158C87.2123 161.13 87.2339 161.108 87.2612 161.106C87.2899 161.106 87.3118 161.127 87.3126 161.154L87.3222 161.451C87.323 161.478 87.3014 161.501 87.274 161.502H87.2724ZM136.544 160.958C136.518 160.958 136.496 160.937 136.494 160.911C136.488 160.813 136.481 160.714 136.473 160.616C136.471 160.588 136.492 160.565 136.519 160.563C136.548 160.561 136.571 160.581 136.573 160.608C136.58 160.707 136.587 160.806 136.594 160.905C136.595 160.932 136.575 160.955 136.547 160.957C136.546 160.957 136.545 160.957 136.544 160.957L136.544 160.958ZM87.2402 160.513C87.2134 160.513 87.1912 160.492 87.1904 160.466L87.1808 160.169C87.18 160.142 87.2016 160.119 87.2289 160.118C87.2538 160.114 87.2792 160.138 87.2803 160.166L87.2899 160.462C87.2907 160.49 87.2691 160.512 87.2418 160.513C87.2412 160.513 87.2407 160.513 87.2402 160.513ZM136.466 159.972C136.441 159.972 136.419 159.952 136.417 159.926C136.408 159.828 136.399 159.73 136.39 159.631C136.387 159.604 136.407 159.58 136.435 159.577C136.462 159.575 136.486 159.595 136.489 159.622C136.498 159.721 136.507 159.819 136.516 159.918C136.518 159.945 136.498 159.969 136.471 159.971C136.469 159.971 136.468 159.971 136.466 159.971V159.972ZM87.2082 159.525C87.1814 159.525 87.1592 159.504 87.1584 159.477L87.1489 159.18C87.148 159.153 87.1696 159.13 87.197 159.129C87.2221 159.128 87.2473 159.15 87.2484 159.177L87.2579 159.474C87.2587 159.501 87.2371 159.524 87.2098 159.525H87.2082ZM136.369 158.987C136.344 158.987 136.322 158.968 136.32 158.943C136.309 158.845 136.298 158.746 136.286 158.648C136.283 158.621 136.303 158.597 136.33 158.593C136.358 158.59 136.382 158.61 136.385 158.637C136.397 158.735 136.408 158.834 136.419 158.932C136.422 158.959 136.402 158.984 136.375 158.987C136.373 158.987 136.371 158.987 136.369 158.987V158.987ZM87.1762 158.536C87.1494 158.536 87.1273 158.515 87.1264 158.488L87.1152 158.141H87.2956C87.3232 158.141 87.3454 158.163 87.3454 158.19C87.3454 158.218 87.3232 158.24 87.2956 158.24H87.2177L87.2257 158.485C87.2265 158.512 87.2049 158.535 87.1776 158.536H87.1759H87.1762ZM136.042 158.24H135.744C135.716 158.24 135.694 158.217 135.694 158.19C135.694 158.163 135.716 158.141 135.744 158.141H136.042C136.07 158.141 136.092 158.163 136.092 158.19C136.092 158.218 136.07 158.24 136.042 158.24ZM135.048 158.24H134.749C134.722 158.24 134.7 158.217 134.7 158.19C134.7 158.163 134.722 158.141 134.749 158.141H135.048C135.075 158.141 135.098 158.163 135.098 158.19C135.098 158.218 135.075 158.24 135.048 158.24ZM134.053 158.24H133.755C133.727 158.24 133.705 158.217 133.705 158.19C133.705 158.163 133.727 158.141 133.755 158.141H134.053C134.081 158.141 134.103 158.163 134.103 158.19C134.103 158.218 134.081 158.24 134.053 158.24ZM133.058 158.24H132.76C132.732 158.24 132.71 158.217 132.71 158.19C132.71 158.163 132.732 158.141 132.76 158.141H133.058C133.086 158.141 133.108 158.163 133.108 158.19C133.108 158.218 133.086 158.24 133.058 158.24ZM132.064 158.24H131.765C131.738 158.24 131.715 158.217 131.715 158.19C131.715 158.163 131.738 158.141 131.765 158.141H132.064C132.091 158.141 132.113 158.163 132.113 158.19C132.113 158.218 132.091 158.24 132.064 158.24ZM131.069 158.24H130.771C130.743 158.24 130.721 158.217 130.721 158.19C130.721 158.163 130.743 158.141 130.771 158.141H131.069C131.097 158.141 131.119 158.163 131.119 158.19C131.119 158.218 131.097 158.24 131.069 158.24ZM130.074 158.24H129.776C129.748 158.24 129.726 158.217 129.726 158.19C129.726 158.163 129.748 158.141 129.776 158.141H130.074C130.102 158.141 130.124 158.163 130.124 158.19C130.124 158.218 130.102 158.24 130.074 158.24ZM129.08 158.24H128.781C128.753 158.24 128.731 158.217 128.731 158.19C128.731 158.163 128.753 158.141 128.781 158.141H129.08C129.107 158.141 129.129 158.163 129.129 158.19C129.129 158.218 129.107 158.24 129.08 158.24ZM128.085 158.24H127.786C127.759 158.24 127.737 158.217 127.737 158.19C127.737 158.163 127.759 158.141 127.786 158.141H128.085C128.113 158.141 128.135 158.163 128.135 158.19C128.135 158.218 128.113 158.24 128.085 158.24ZM127.09 158.24H126.792C126.764 158.24 126.742 158.217 126.742 158.19C126.742 158.163 126.764 158.141 126.792 158.141H127.09C127.118 158.141 127.14 158.163 127.14 158.19C127.14 158.218 127.118 158.24 127.09 158.24ZM126.095 158.24H125.797C125.769 158.24 125.747 158.217 125.747 158.19C125.747 158.163 125.769 158.141 125.797 158.141H126.095C126.123 158.141 126.145 158.163 126.145 158.19C126.145 158.218 126.123 158.24 126.095 158.24ZM125.101 158.24H124.802C124.775 158.24 124.753 158.217 124.753 158.19C124.753 158.163 124.775 158.141 124.802 158.141H125.101C125.128 158.141 125.151 158.163 125.151 158.19C125.151 158.218 125.128 158.24 125.101 158.24ZM124.106 158.24H123.808C123.78 158.24 123.758 158.217 123.758 158.19C123.758 158.163 123.78 158.141 123.808 158.141H124.106C124.134 158.141 124.156 158.163 124.156 158.19C124.156 158.218 124.134 158.24 124.106 158.24ZM123.111 158.24H122.813C122.785 158.24 122.763 158.217 122.763 158.19C122.763 158.163 122.785 158.141 122.813 158.141H123.111C123.139 158.141 123.161 158.163 123.161 158.19C123.161 158.218 123.139 158.24 123.111 158.24ZM122.117 158.24H121.818C121.791 158.24 121.768 158.217 121.768 158.19C121.768 158.163 121.791 158.141 121.818 158.141H122.117C122.144 158.141 122.166 158.163 122.166 158.19C122.166 158.218 122.144 158.24 122.117 158.24ZM121.122 158.24H120.824C120.796 158.24 120.774 158.217 120.774 158.19C120.774 158.163 120.796 158.141 120.824 158.141H121.122C121.15 158.141 121.172 158.163 121.172 158.19C121.172 158.218 121.15 158.24 121.122 158.24ZM120.127 158.24H119.829C119.801 158.24 119.779 158.217 119.779 158.19C119.779 158.163 119.801 158.141 119.829 158.141H120.127C120.155 158.141 120.177 158.163 120.177 158.19C120.177 158.218 120.155 158.24 120.127 158.24ZM119.133 158.24H118.834C118.806 158.24 118.784 158.217 118.784 158.19C118.784 158.163 118.806 158.141 118.834 158.141H119.133C119.16 158.141 119.182 158.163 119.182 158.19C119.182 158.218 119.16 158.24 119.133 158.24ZM118.138 158.24H117.839C117.812 158.24 117.79 158.217 117.79 158.19C117.79 158.163 117.812 158.141 117.839 158.141H118.138C118.166 158.141 118.188 158.163 118.188 158.19C118.188 158.218 118.166 158.24 118.138 158.24ZM117.143 158.24H116.845C116.817 158.24 116.795 158.217 116.795 158.19C116.795 158.163 116.817 158.141 116.845 158.141H117.143C117.171 158.141 117.193 158.163 117.193 158.19C117.193 158.218 117.171 158.24 117.143 158.24ZM116.148 158.24H115.85C115.822 158.24 115.8 158.217 115.8 158.19C115.8 158.163 115.822 158.141 115.85 158.141H116.148C116.176 158.141 116.198 158.163 116.198 158.19C116.198 158.218 116.176 158.24 116.148 158.24ZM115.154 158.24H114.855C114.828 158.24 114.806 158.217 114.806 158.19C114.806 158.163 114.828 158.141 114.855 158.141H115.154C115.181 158.141 115.204 158.163 115.204 158.19C115.204 158.218 115.181 158.24 115.154 158.24ZM114.159 158.24H113.861C113.833 158.24 113.811 158.217 113.811 158.19C113.811 158.163 113.833 158.141 113.861 158.141H114.159C114.187 158.141 114.209 158.163 114.209 158.19C114.209 158.218 114.187 158.24 114.159 158.24ZM113.164 158.24H112.866C112.838 158.24 112.816 158.217 112.816 158.19C112.816 158.163 112.838 158.141 112.866 158.141H113.164C113.192 158.141 113.214 158.163 113.214 158.19C113.214 158.218 113.192 158.24 113.164 158.24ZM112.17 158.24H111.871C111.844 158.24 111.821 158.217 111.821 158.19C111.821 158.163 111.844 158.141 111.871 158.141H112.17C112.197 158.141 112.219 158.163 112.219 158.19C112.219 158.218 112.197 158.24 112.17 158.24ZM111.175 158.24H110.877C110.849 158.24 110.827 158.217 110.827 158.19C110.827 158.163 110.849 158.141 110.877 158.141H111.175C111.203 158.141 111.225 158.163 111.225 158.19C111.225 158.218 111.203 158.24 111.175 158.24ZM110.18 158.24H109.882C109.854 158.24 109.832 158.217 109.832 158.19C109.832 158.163 109.854 158.141 109.882 158.141H110.18C110.208 158.141 110.23 158.163 110.23 158.19C110.23 158.218 110.208 158.24 110.18 158.24ZM109.186 158.24H108.887C108.859 158.24 108.837 158.217 108.837 158.19C108.837 158.163 108.859 158.141 108.887 158.141H109.186C109.213 158.141 109.235 158.163 109.235 158.19C109.235 158.218 109.213 158.24 109.186 158.24ZM108.191 158.24H107.892C107.865 158.24 107.843 158.217 107.843 158.19C107.843 158.163 107.865 158.141 107.892 158.141H108.191C108.219 158.141 108.241 158.163 108.241 158.19C108.241 158.218 108.219 158.24 108.191 158.24ZM107.196 158.24H106.898C106.87 158.24 106.848 158.217 106.848 158.19C106.848 158.163 106.87 158.141 106.898 158.141H107.196C107.224 158.141 107.246 158.163 107.246 158.19C107.246 158.218 107.224 158.24 107.196 158.24ZM106.201 158.24H105.903C105.875 158.24 105.853 158.217 105.853 158.19C105.853 158.163 105.875 158.141 105.903 158.141H106.201C106.229 158.141 106.251 158.163 106.251 158.19C106.251 158.218 106.229 158.24 106.201 158.24ZM105.207 158.24H104.908C104.881 158.24 104.859 158.217 104.859 158.19C104.859 158.163 104.881 158.141 104.908 158.141H105.207C105.234 158.141 105.257 158.163 105.257 158.19C105.257 158.218 105.234 158.24 105.207 158.24ZM104.212 158.24H103.914C103.886 158.24 103.864 158.217 103.864 158.19C103.864 158.163 103.886 158.141 103.914 158.141H104.212C104.24 158.141 104.262 158.163 104.262 158.19C104.262 158.218 104.24 158.24 104.212 158.24ZM103.217 158.24H102.919C102.891 158.24 102.869 158.217 102.869 158.19C102.869 158.163 102.891 158.141 102.919 158.141H103.217C103.245 158.141 103.267 158.163 103.267 158.19C103.267 158.218 103.245 158.24 103.217 158.24ZM102.223 158.24H101.924C101.897 158.24 101.874 158.217 101.874 158.19C101.874 158.163 101.897 158.141 101.924 158.141H102.223C102.25 158.141 102.272 158.163 102.272 158.19C102.272 158.218 102.25 158.24 102.223 158.24ZM101.228 158.24H100.93C100.902 158.24 100.88 158.217 100.88 158.19C100.88 158.163 100.902 158.141 100.93 158.141H101.228C101.256 158.141 101.278 158.163 101.278 158.19C101.278 158.218 101.256 158.24 101.228 158.24ZM100.233 158.24H99.9348C99.9072 158.24 99.8851 158.217 99.8851 158.19C99.8851 158.163 99.9072 158.141 99.9348 158.141H100.233C100.261 158.141 100.283 158.163 100.283 158.19C100.283 158.218 100.261 158.24 100.233 158.24ZM99.2386 158.24H98.9401C98.9125 158.24 98.8904 158.217 98.8904 158.19C98.8904 158.163 98.9125 158.141 98.9401 158.141H99.2386C99.2662 158.141 99.2883 158.163 99.2883 158.19C99.2883 158.218 99.2662 158.24 99.2386 158.24ZM98.2439 158.24H97.9454C97.9178 158.24 97.8957 158.217 97.8957 158.19C97.8957 158.163 97.9178 158.141 97.9454 158.141H98.2439C98.2715 158.141 98.2936 158.163 98.2936 158.19C98.2936 158.218 98.2715 158.24 98.2439 158.24ZM97.2492 158.24H96.9507C96.9231 158.24 96.901 158.217 96.901 158.19C96.901 158.163 96.9231 158.141 96.9507 158.141H97.2492C97.2768 158.141 97.2989 158.163 97.2989 158.19C97.2989 158.218 97.2768 158.24 97.2492 158.24ZM96.2545 158.24H95.956C95.9284 158.24 95.9063 158.217 95.9063 158.19C95.9063 158.163 95.9284 158.141 95.956 158.141H96.2545C96.2821 158.141 96.3042 158.163 96.3042 158.19C96.3042 158.218 96.2821 158.24 96.2545 158.24ZM95.2598 158.24H94.9613C94.9337 158.24 94.9116 158.217 94.9116 158.19C94.9116 158.163 94.9337 158.141 94.9613 158.141H95.2598C95.2874 158.141 95.3095 158.163 95.3095 158.19C95.3095 158.218 95.2874 158.24 95.2598 158.24ZM94.2651 158.24H93.9666C93.939 158.24 93.9169 158.217 93.9169 158.19C93.9169 158.163 93.939 158.141 93.9666 158.141H94.2651C94.2927 158.141 94.3148 158.163 94.3148 158.19C94.3148 158.218 94.2927 158.24 94.2651 158.24ZM93.2704 158.24H92.9719C92.9443 158.24 92.9222 158.217 92.9222 158.19C92.9222 158.163 92.9443 158.141 92.9719 158.141H93.2704C93.298 158.141 93.3201 158.163 93.3201 158.19C93.3201 158.218 93.298 158.24 93.2704 158.24ZM92.2757 158.24H91.9772C91.9496 158.24 91.9275 158.217 91.9275 158.19C91.9275 158.163 91.9496 158.141 91.9772 158.141H92.2757C92.3033 158.141 92.3254 158.163 92.3254 158.19C92.3254 158.218 92.3033 158.24 92.2757 158.24ZM91.281 158.24H90.9825C90.9549 158.24 90.9328 158.217 90.9328 158.19C90.9328 158.163 90.9549 158.141 90.9825 158.141H91.281C91.3086 158.141 91.3307 158.163 91.3307 158.19C91.3307 158.218 91.3086 158.24 91.281 158.24ZM90.2863 158.24H89.9878C89.9602 158.24 89.9381 158.217 89.9381 158.19C89.9381 158.163 89.9602 158.141 89.9878 158.141H90.2863C90.3139 158.141 90.336 158.163 90.336 158.19C90.336 158.218 90.3139 158.24 90.2863 158.24ZM89.2916 158.24H88.9931C88.9655 158.24 88.9434 158.217 88.9434 158.19C88.9434 158.163 88.9655 158.141 88.9931 158.141H89.2916C89.3192 158.141 89.3414 158.163 89.3414 158.19C89.3414 158.218 89.3192 158.24 89.2916 158.24ZM88.2969 158.24H87.9984C87.9708 158.24 87.9487 158.217 87.9487 158.19C87.9487 158.163 87.9708 158.141 87.9984 158.141H88.2969C88.3245 158.141 88.3466 158.163 88.3466 158.19C88.3466 158.218 88.3245 158.24 88.2969 158.24Z" fill="white"/>
<path d="M97.9141 145.844L98.0373 144.532C98.1765 144.218 98.4654 143.997 98.8068 143.943C100.083 143.741 103.249 143.386 104.773 144.518L105.001 146.043L97.9141 145.844Z" fill="#3C4258"/>
<path d="M101.9 144.581C101.606 144.652 101.312 144.652 101.017 144.579C100.66 144.492 100.408 144.175 100.408 143.811V139.703H102.511V143.808C102.511 144.174 102.259 144.494 101.9 144.581Z" fill="#3C4258"/>
<path d="M118.281 145.844L118.405 144.532C118.544 144.218 118.833 143.997 119.174 143.943C120.45 143.741 123.616 143.386 125.14 144.518L125.368 146.043L118.281 145.844Z" fill="#3C4258"/>
<path d="M122.267 144.58C121.973 144.651 121.679 144.651 121.384 144.579C121.027 144.492 120.775 144.174 120.775 143.811V139.27H122.878V143.807C122.878 144.173 122.626 144.493 122.267 144.58V144.58Z" fill="#3C4258"/>
<path d="M100.195 140.71L122.808 139.965C123.324 139.949 123.761 139.579 123.85 139.076C123.973 138.372 124.083 137.318 123.92 136.226C123.735 134.984 122.66 134.061 121.392 134.031C117.173 133.931 106.434 133.934 100.514 136.262C99.8885 136.508 99.4241 137.04 99.2656 137.688C99.1144 138.306 99.0138 139.131 99.2114 139.971C99.3164 140.418 99.7316 140.725 100.194 140.71H100.195Z" fill="url(#paint1_linear_7230_95370)"/>
<path d="M87.4217 145.33C94.7274 145.237 126.332 144.907 135.512 146.008C136.302 146.103 136.947 146.678 137.119 147.447C137.661 149.886 138.752 155.55 138.623 161.164C138.606 161.928 138.042 162.573 137.283 162.716L116.328 166.658H108.884L86.5555 162.245C85.7685 162.089 85.1882 161.427 85.1475 160.633C85.0023 157.808 84.7754 151.181 85.5438 146.915C85.707 146.008 86.4915 145.342 87.422 145.33H87.4217Z" fill="url(#paint2_linear_7230_95370)"/>
<path d="M116.155 164.913H115.856C115.829 164.913 115.807 164.891 115.807 164.863C115.807 164.836 115.829 164.814 115.856 164.814H116.155C116.182 164.814 116.205 164.836 116.205 164.863C116.205 164.891 116.182 164.913 116.155 164.913ZM115.16 164.913H114.862C114.834 164.913 114.812 164.891 114.812 164.863C114.812 164.836 114.834 164.814 114.862 164.814H115.16C115.188 164.814 115.21 164.836 115.21 164.863C115.21 164.891 115.188 164.913 115.16 164.913ZM114.165 164.913H113.867C113.84 164.913 113.817 164.891 113.817 164.863C113.817 164.836 113.84 164.814 113.867 164.814H114.165C114.193 164.814 114.215 164.836 114.215 164.863C114.215 164.891 114.193 164.913 114.165 164.913ZM113.171 164.913H112.872C112.845 164.913 112.823 164.891 112.823 164.863C112.823 164.836 112.845 164.814 112.872 164.814H113.171C113.198 164.814 113.221 164.836 113.221 164.863C113.221 164.891 113.198 164.913 113.171 164.913ZM112.176 164.913H111.878C111.85 164.913 111.828 164.891 111.828 164.863C111.828 164.836 111.85 164.814 111.878 164.814H112.176C112.204 164.814 112.226 164.836 112.226 164.863C112.226 164.891 112.204 164.913 112.176 164.913ZM111.181 164.913H110.883C110.856 164.913 110.833 164.891 110.833 164.863C110.833 164.836 110.856 164.814 110.883 164.814H111.181C111.209 164.814 111.231 164.836 111.231 164.863C111.231 164.891 111.209 164.913 111.181 164.913ZM110.187 164.913H109.888C109.861 164.913 109.838 164.891 109.838 164.863C109.838 164.836 109.861 164.814 109.888 164.814H110.187C110.214 164.814 110.236 164.836 110.236 164.863C110.236 164.891 110.214 164.913 110.187 164.913ZM109.192 164.913H109.062L108.76 164.854C108.733 164.848 108.715 164.823 108.72 164.796C108.726 164.769 108.752 164.751 108.779 164.757L109.072 164.815L109.192 164.814C109.22 164.814 109.242 164.836 109.242 164.863C109.242 164.891 109.22 164.913 109.192 164.913ZM116.84 164.784C116.817 164.784 116.796 164.768 116.791 164.744C116.786 164.717 116.804 164.691 116.831 164.686L117.124 164.631C117.151 164.626 117.177 164.643 117.182 164.67C117.188 164.697 117.17 164.723 117.143 164.728L116.849 164.783C116.846 164.784 116.843 164.784 116.84 164.784ZM108.086 164.72C108.083 164.72 108.08 164.719 108.076 164.718L107.784 164.661C107.757 164.655 107.739 164.629 107.745 164.602C107.75 164.576 107.776 164.558 107.803 164.564L108.096 164.621C108.123 164.627 108.14 164.653 108.135 164.68C108.13 164.703 108.11 164.719 108.086 164.719V164.72ZM117.818 164.6C117.794 164.6 117.773 164.584 117.769 164.56C117.763 164.533 117.781 164.507 117.808 164.502L118.102 164.447C118.129 164.442 118.155 164.459 118.16 164.486C118.165 164.513 118.147 164.539 118.12 164.544L117.827 164.599C117.824 164.6 117.821 164.6 117.818 164.6ZM107.111 164.527C107.107 164.527 107.104 164.526 107.101 164.526L106.808 164.468C106.781 164.462 106.764 164.436 106.769 164.409C106.774 164.383 106.8 164.365 106.828 164.371L107.12 164.429C107.147 164.434 107.165 164.46 107.159 164.487C107.155 164.51 107.134 164.526 107.111 164.526V164.527ZM118.795 164.416C118.772 164.416 118.751 164.4 118.746 164.376C118.741 164.349 118.759 164.323 118.786 164.318L119.079 164.263C119.106 164.258 119.132 164.275 119.137 164.302C119.143 164.329 119.125 164.355 119.098 164.36L118.804 164.415C118.801 164.416 118.798 164.416 118.795 164.416ZM106.135 164.334C106.132 164.334 106.128 164.333 106.125 164.333L105.832 164.275C105.805 164.269 105.788 164.243 105.793 164.217C105.799 164.19 105.824 164.172 105.852 164.178L106.144 164.236C106.171 164.241 106.189 164.267 106.184 164.294C106.179 164.317 106.158 164.333 106.135 164.333V164.334ZM119.773 164.232C119.749 164.232 119.728 164.216 119.724 164.192C119.718 164.165 119.736 164.139 119.763 164.134L120.057 164.079C120.084 164.074 120.11 164.092 120.115 164.118C120.12 164.145 120.102 164.171 120.075 164.176L119.782 164.231C119.779 164.232 119.776 164.232 119.773 164.232ZM105.159 164.141C105.156 164.141 105.152 164.14 105.149 164.14L104.856 164.082C104.83 164.076 104.812 164.05 104.817 164.024C104.823 163.997 104.849 163.979 104.876 163.985L105.169 164.043C105.195 164.048 105.213 164.074 105.208 164.101C105.203 164.124 105.182 164.14 105.159 164.14V164.141ZM120.75 164.048C120.727 164.048 120.706 164.032 120.701 164.008C120.696 163.981 120.714 163.955 120.741 163.95L121.034 163.895C121.061 163.89 121.087 163.908 121.092 163.934C121.097 163.961 121.08 163.987 121.053 163.992L120.759 164.047C120.756 164.048 120.753 164.048 120.75 164.048ZM104.183 163.948C104.18 163.948 104.177 163.947 104.174 163.947L103.881 163.889C103.854 163.883 103.836 163.858 103.842 163.831C103.847 163.804 103.873 163.786 103.9 163.792L104.193 163.85C104.22 163.855 104.238 163.881 104.232 163.908C104.227 163.931 104.207 163.947 104.183 163.947V163.948ZM121.728 163.864C121.704 163.864 121.683 163.848 121.679 163.824C121.673 163.797 121.691 163.771 121.718 163.766L122.012 163.711C122.039 163.706 122.065 163.724 122.07 163.75C122.075 163.777 122.057 163.803 122.03 163.808L121.737 163.863C121.734 163.864 121.731 163.864 121.728 163.864ZM103.208 163.755C103.204 163.755 103.201 163.755 103.198 163.754L102.905 163.696C102.878 163.69 102.86 163.665 102.866 163.638C102.871 163.611 102.897 163.593 102.924 163.599L103.217 163.657C103.244 163.662 103.262 163.688 103.256 163.715C103.252 163.738 103.231 163.755 103.208 163.755V163.755ZM122.705 163.68C122.681 163.68 122.661 163.664 122.656 163.64C122.651 163.613 122.669 163.587 122.696 163.582L122.989 163.527C123.016 163.522 123.042 163.54 123.047 163.566C123.052 163.593 123.035 163.619 123.008 163.624L122.714 163.68C122.711 163.68 122.708 163.68 122.705 163.68ZM102.232 163.562C102.229 163.562 102.225 163.562 102.222 163.561L101.929 163.503C101.902 163.497 101.885 163.472 101.89 163.445C101.896 163.418 101.922 163.4 101.949 163.406L102.241 163.464C102.268 163.469 102.286 163.495 102.28 163.522C102.276 163.546 102.255 163.562 102.232 163.562V163.562ZM123.682 163.497C123.659 163.497 123.638 163.48 123.634 163.456C123.628 163.429 123.646 163.404 123.673 163.398L123.966 163.343C123.994 163.339 124.02 163.356 124.025 163.383C124.03 163.41 124.012 163.435 123.985 163.441L123.692 163.496C123.689 163.496 123.685 163.497 123.682 163.497ZM101.256 163.369C101.253 163.369 101.249 163.369 101.246 163.368L100.953 163.31C100.927 163.305 100.909 163.279 100.914 163.252C100.92 163.225 100.946 163.208 100.973 163.213L101.266 163.271C101.292 163.276 101.31 163.302 101.305 163.329C101.3 163.353 101.279 163.369 101.256 163.369V163.369ZM124.66 163.313C124.636 163.313 124.616 163.296 124.611 163.272C124.606 163.245 124.624 163.22 124.651 163.215L124.944 163.159C124.971 163.154 124.997 163.172 125.002 163.199C125.007 163.226 124.99 163.251 124.963 163.257L124.669 163.312C124.666 163.312 124.663 163.313 124.66 163.313ZM100.28 163.176C100.277 163.176 100.274 163.176 100.271 163.175L99.9778 163.117C99.951 163.112 99.9332 163.086 99.9387 163.059C99.9439 163.032 99.9699 163.014 99.9972 163.02L100.29 163.078C100.317 163.084 100.335 163.109 100.329 163.136C100.324 163.16 100.304 163.176 100.28 163.176V163.176ZM125.637 163.129C125.614 163.129 125.593 163.112 125.589 163.089C125.583 163.062 125.601 163.036 125.628 163.031L125.921 162.976C125.948 162.971 125.974 162.988 125.98 163.015C125.985 163.042 125.967 163.068 125.94 163.073L125.647 163.128C125.644 163.129 125.64 163.129 125.637 163.129ZM99.3045 162.984C99.3013 162.984 99.298 162.983 99.2947 162.982L99.002 162.925C98.9752 162.919 98.9574 162.893 98.9629 162.866C98.9683 162.84 98.994 162.822 99.0214 162.828L99.3141 162.885C99.3409 162.891 99.3587 162.917 99.3532 162.944C99.3486 162.967 99.3278 162.983 99.3045 162.983V162.984ZM126.615 162.945C126.591 162.945 126.571 162.929 126.566 162.905C126.561 162.878 126.579 162.852 126.606 162.847L126.899 162.792C126.926 162.787 126.952 162.804 126.957 162.831C126.962 162.858 126.945 162.884 126.918 162.889L126.624 162.944C126.621 162.945 126.618 162.945 126.615 162.945ZM98.3287 162.791C98.3254 162.791 98.3221 162.791 98.3189 162.79L98.0261 162.732C97.9993 162.726 97.9816 162.701 97.987 162.674C97.9925 162.647 98.0182 162.629 98.0455 162.635L98.3383 162.693C98.3651 162.698 98.3828 162.724 98.3774 162.751C98.3727 162.775 98.3519 162.791 98.3287 162.791V162.791ZM127.592 162.761C127.569 162.761 127.548 162.745 127.543 162.721C127.538 162.694 127.556 162.669 127.583 162.663L127.876 162.608C127.903 162.603 127.929 162.621 127.935 162.648C127.94 162.675 127.922 162.7 127.895 162.705L127.602 162.761C127.599 162.761 127.595 162.761 127.592 162.761ZM97.3531 162.598C97.3499 162.598 97.3466 162.598 97.3433 162.597L97.0505 162.539C97.0238 162.534 97.006 162.508 97.0115 162.481C97.0169 162.454 97.0426 162.436 97.07 162.442L97.3627 162.5C97.3895 162.505 97.4073 162.531 97.4018 162.558C97.3972 162.582 97.3764 162.598 97.3531 162.598V162.598ZM128.57 162.578C128.546 162.578 128.526 162.561 128.521 162.538C128.516 162.511 128.534 162.485 128.561 162.48L128.854 162.424C128.881 162.42 128.907 162.437 128.912 162.464C128.917 162.491 128.9 162.517 128.872 162.522L128.579 162.577C128.576 162.577 128.573 162.578 128.57 162.578ZM96.3773 162.405C96.374 162.405 96.3707 162.405 96.3675 162.404L96.0747 162.346C96.0479 162.341 96.0302 162.315 96.0356 162.288C96.0411 162.262 96.0668 162.244 96.0941 162.249L96.3869 162.307C96.4137 162.313 96.4314 162.339 96.426 162.366C96.4213 162.389 96.4005 162.405 96.3773 162.405V162.405ZM129.547 162.394C129.524 162.394 129.503 162.377 129.498 162.354C129.493 162.327 129.511 162.301 129.538 162.296L129.831 162.241C129.858 162.236 129.884 162.253 129.89 162.28C129.895 162.307 129.877 162.333 129.85 162.338L129.557 162.393C129.554 162.394 129.55 162.394 129.547 162.394ZM95.4015 162.213C95.3982 162.213 95.3949 162.212 95.3916 162.212L95.0989 162.154C95.0721 162.148 95.0543 162.123 95.0598 162.096C95.0653 162.069 95.0909 162.051 95.1183 162.057L95.411 162.115C95.4378 162.12 95.4556 162.146 95.4501 162.173C95.4455 162.196 95.4247 162.212 95.4015 162.212V162.213ZM130.525 162.21C130.501 162.21 130.481 162.194 130.476 162.17C130.471 162.143 130.488 162.117 130.516 162.112L130.809 162.057C130.836 162.052 130.862 162.07 130.867 162.096C130.872 162.123 130.854 162.149 130.827 162.154L130.534 162.21C130.531 162.21 130.528 162.21 130.525 162.21ZM131.502 162.026C131.479 162.026 131.458 162.01 131.453 161.986C131.448 161.959 131.466 161.933 131.493 161.928L131.786 161.873C131.813 161.868 131.839 161.886 131.845 161.912C131.85 161.939 131.832 161.965 131.805 161.97L131.512 162.026C131.509 162.026 131.505 162.026 131.502 162.026ZM94.4256 162.02C94.4223 162.02 94.4191 162.02 94.4158 162.019L94.123 161.961C94.0962 161.955 94.0785 161.93 94.0839 161.903C94.0891 161.876 94.1154 161.858 94.1424 161.864L94.4352 161.922C94.462 161.927 94.4797 161.953 94.4743 161.98C94.4696 162.004 94.4489 162.02 94.4256 162.02V162.02ZM132.48 161.842C132.456 161.842 132.436 161.826 132.431 161.802C132.426 161.775 132.443 161.749 132.471 161.744L132.764 161.689C132.791 161.684 132.817 161.702 132.822 161.728C132.827 161.755 132.809 161.781 132.782 161.786L132.489 161.842C132.486 161.842 132.483 161.842 132.48 161.842ZM93.4501 161.827C93.4468 161.827 93.4435 161.827 93.4402 161.826L93.1475 161.768C93.1207 161.762 93.1029 161.737 93.1084 161.71C93.1138 161.683 93.1395 161.665 93.1669 161.671L93.4596 161.729C93.4864 161.734 93.5042 161.76 93.4987 161.787C93.4941 161.811 93.4733 161.827 93.4501 161.827V161.827ZM133.457 161.658C133.434 161.658 133.413 161.642 133.408 161.618C133.403 161.591 133.421 161.565 133.448 161.56L133.741 161.505C133.769 161.5 133.794 161.518 133.799 161.544C133.805 161.571 133.787 161.597 133.76 161.602L133.467 161.658C133.464 161.658 133.46 161.658 133.457 161.658ZM92.4742 161.634C92.4709 161.634 92.4677 161.634 92.4644 161.633L92.1716 161.575C92.1448 161.569 92.1271 161.544 92.1325 161.517C92.138 161.49 92.164 161.472 92.191 161.478L92.4838 161.536C92.5106 161.541 92.5283 161.567 92.5229 161.594C92.5182 161.618 92.4975 161.634 92.4742 161.634V161.634ZM134.435 161.474C134.411 161.474 134.39 161.458 134.386 161.434C134.381 161.407 134.398 161.381 134.425 161.376L134.719 161.321C134.746 161.316 134.772 161.334 134.777 161.361C134.782 161.387 134.764 161.413 134.737 161.418L134.444 161.474C134.441 161.474 134.438 161.474 134.435 161.474ZM91.4984 161.441C91.4951 161.441 91.4918 161.441 91.4885 161.44L91.1958 161.382C91.169 161.377 91.1512 161.351 91.1567 161.324C91.1619 161.297 91.1879 161.279 91.2152 161.285L91.5079 161.343C91.5347 161.348 91.5525 161.374 91.547 161.401C91.5424 161.425 91.5216 161.441 91.4984 161.441ZM135.412 161.29C135.389 161.29 135.368 161.274 135.363 161.25C135.358 161.223 135.376 161.197 135.403 161.192L135.696 161.137C135.723 161.132 135.749 161.15 135.754 161.177C135.76 161.203 135.742 161.229 135.715 161.234L135.422 161.29C135.419 161.29 135.415 161.29 135.412 161.29ZM90.5228 161.248C90.5195 161.248 90.5163 161.248 90.513 161.247L90.2202 161.189C90.1934 161.184 90.1757 161.158 90.1811 161.131C90.1866 161.104 90.2123 161.087 90.2396 161.092L90.5324 161.15C90.5592 161.155 90.5769 161.181 90.5715 161.208C90.5668 161.232 90.5461 161.248 90.5228 161.248V161.248ZM136.39 161.106C136.366 161.106 136.345 161.09 136.341 161.066C136.336 161.039 136.353 161.013 136.38 161.008L136.674 160.953C136.701 160.948 136.727 160.966 136.732 160.993C136.737 161.019 136.719 161.045 136.692 161.05L136.399 161.106C136.396 161.106 136.393 161.106 136.39 161.106ZM89.547 161.055C89.5437 161.055 89.5404 161.055 89.5371 161.054L89.2444 160.996C89.2176 160.991 89.1998 160.965 89.2053 160.938C89.2108 160.911 89.2365 160.893 89.2638 160.899L89.5565 160.957C89.5833 160.962 89.6011 160.988 89.5956 161.015C89.591 161.039 89.5702 161.055 89.547 161.055V161.055ZM88.5711 160.862C88.5679 160.862 88.5646 160.862 88.5613 160.861L88.2685 160.803C88.2418 160.798 88.224 160.772 88.2295 160.745C88.2349 160.718 88.2606 160.701 88.288 160.706L88.5807 160.764C88.6075 160.769 88.6253 160.795 88.6198 160.822C88.6151 160.846 88.5944 160.862 88.5711 160.862V160.862ZM87.5953 160.669C87.592 160.669 87.5887 160.669 87.5855 160.668L87.2927 160.61C87.2659 160.605 87.2482 160.579 87.2536 160.552C87.2588 160.525 87.2848 160.507 87.3121 160.513L87.6049 160.571C87.6317 160.576 87.6494 160.602 87.644 160.629C87.6393 160.653 87.6185 160.669 87.5953 160.669V160.669ZM136.828 160.472C136.8 160.472 136.778 160.45 136.778 160.423V160.126C136.778 160.099 136.801 160.077 136.828 160.077C136.855 160.077 136.878 160.099 136.878 160.126V160.423C136.877 160.45 136.855 160.472 136.828 160.472V160.472ZM86.9319 160.208C86.9057 160.208 86.8835 160.188 86.8821 160.161C86.8775 160.066 86.8729 159.967 86.8685 159.864C86.8674 159.837 86.8884 159.814 86.916 159.813C86.9439 159.812 86.9666 159.833 86.968 159.86C86.9726 159.962 86.9773 160.061 86.9816 160.156C86.983 160.183 86.9617 160.207 86.9344 160.208C86.9335 160.208 86.9327 160.208 86.9319 160.208ZM136.82 159.483C136.793 159.483 136.771 159.462 136.77 159.435C136.768 159.336 136.766 159.237 136.763 159.139C136.763 159.112 136.784 159.089 136.812 159.088C136.842 159.086 136.862 159.109 136.863 159.136C136.865 159.235 136.868 159.334 136.87 159.433C136.87 159.46 136.848 159.483 136.821 159.484H136.82V159.483ZM86.889 159.22C86.8625 159.22 86.8403 159.199 86.8392 159.172L86.828 158.875C86.8269 158.848 86.8485 158.825 86.8759 158.824C86.9021 158.823 86.9264 158.845 86.9272 158.872L86.9385 159.168C86.9395 159.196 86.9182 159.219 86.8906 159.22C86.8901 159.22 86.8893 159.22 86.8887 159.22H86.889ZM136.79 158.496C136.763 158.496 136.741 158.475 136.74 158.448C136.736 158.349 136.731 158.251 136.727 158.153C136.725 158.125 136.747 158.102 136.774 158.101C136.801 158.099 136.825 158.121 136.826 158.148C136.831 158.247 136.835 158.345 136.839 158.444C136.84 158.471 136.819 158.494 136.792 158.495C136.791 158.495 136.79 158.495 136.789 158.495L136.79 158.496ZM86.8548 158.231C86.828 158.231 86.8059 158.21 86.8051 158.183L86.7963 157.886C86.7955 157.859 86.8171 157.836 86.8447 157.836C86.8729 157.836 86.895 157.856 86.8958 157.884L86.9046 158.18C86.9054 158.207 86.8838 158.23 86.8564 158.231H86.8548ZM136.738 157.508C136.713 157.508 136.69 157.488 136.689 157.462C136.683 157.363 136.676 157.264 136.67 157.166C136.668 157.139 136.689 157.115 136.716 157.113C136.745 157.112 136.767 157.132 136.769 157.159C136.776 157.258 136.782 157.356 136.788 157.455C136.79 157.483 136.769 157.506 136.742 157.508C136.741 157.508 136.74 157.508 136.739 157.508L136.738 157.508ZM86.8291 157.242C86.8021 157.242 86.7799 157.221 86.7794 157.194L86.7734 156.897C86.7728 156.87 86.7947 156.847 86.8223 156.846C86.8485 156.844 86.8723 156.868 86.8729 156.895L86.8789 157.192C86.8794 157.219 86.8575 157.242 86.8302 157.242H86.8291ZM136.668 156.521C136.642 156.521 136.62 156.502 136.618 156.476C136.611 156.377 136.602 156.278 136.594 156.18C136.591 156.153 136.612 156.129 136.639 156.127C136.666 156.123 136.691 156.144 136.693 156.172C136.702 156.27 136.71 156.369 136.718 156.468C136.72 156.495 136.7 156.519 136.672 156.521C136.671 156.521 136.67 156.521 136.668 156.521L136.668 156.521ZM86.8124 156.253C86.7854 156.253 86.763 156.231 86.7627 156.204L86.7594 155.907C86.7594 155.88 86.7813 155.857 86.8086 155.857H86.8092C86.8365 155.857 86.8586 155.879 86.8589 155.906L86.8622 156.202C86.8625 156.23 86.8406 156.252 86.813 156.252H86.8124V156.253ZM136.579 155.535C136.554 155.535 136.532 155.516 136.53 155.491C136.52 155.392 136.51 155.294 136.5 155.196C136.497 155.169 136.517 155.144 136.544 155.141C136.572 155.139 136.596 155.158 136.599 155.185C136.609 155.283 136.619 155.382 136.629 155.481C136.632 155.508 136.612 155.532 136.584 155.535C136.583 155.535 136.581 155.535 136.579 155.535V155.535ZM86.8056 155.264C86.7783 155.264 86.7559 155.242 86.7559 155.214V154.918C86.7559 154.891 86.778 154.868 86.8056 154.868C86.8332 154.868 86.8554 154.89 86.8554 154.918V155.214C86.8554 155.242 86.8332 155.264 86.8059 155.264L86.8056 155.264ZM136.474 154.552C136.45 154.552 136.428 154.533 136.425 154.508C136.413 154.409 136.402 154.311 136.39 154.213C136.387 154.186 136.406 154.162 136.434 154.158C136.462 154.155 136.486 154.175 136.489 154.202C136.501 154.299 136.512 154.398 136.524 154.497C136.527 154.524 136.507 154.548 136.48 154.552C136.478 154.552 136.476 154.552 136.474 154.552L136.474 154.552ZM86.8094 154.275H86.8089C86.7816 154.275 86.7594 154.252 86.7597 154.225C86.7605 154.126 86.7616 154.028 86.763 153.928C86.7632 153.901 86.7854 153.88 86.8127 153.88H86.8133C86.8406 153.88 86.8627 153.902 86.8625 153.93C86.8611 154.028 86.86 154.127 86.8592 154.226C86.8592 154.253 86.8368 154.275 86.8094 154.275V154.275ZM136.353 153.569C136.329 153.569 136.307 153.551 136.304 153.526C136.291 153.428 136.278 153.33 136.265 153.232C136.261 153.205 136.28 153.181 136.307 153.177C136.335 153.173 136.36 153.192 136.363 153.219C136.377 153.316 136.39 153.415 136.403 153.513C136.406 153.541 136.387 153.565 136.36 153.569C136.358 153.569 136.356 153.569 136.353 153.569ZM86.8247 153.286H86.8236C86.7963 153.286 86.7744 153.263 86.775 153.236C86.7772 153.137 86.7796 153.038 86.7821 152.939C86.7826 152.911 86.8048 152.888 86.8332 152.891C86.8605 152.892 86.8824 152.914 86.8816 152.942C86.8791 153.041 86.8767 153.139 86.8745 153.238C86.8739 153.265 86.8518 153.287 86.8247 153.287V153.286ZM136.217 152.589C136.193 152.589 136.172 152.572 136.168 152.547C136.154 152.448 136.139 152.35 136.124 152.253C136.12 152.226 136.139 152.201 136.166 152.197C136.193 152.193 136.219 152.212 136.223 152.239C136.237 152.336 136.252 152.434 136.266 152.532C136.271 152.56 136.252 152.585 136.224 152.588C136.222 152.589 136.219 152.589 136.217 152.589V152.589ZM86.8534 152.297C86.8534 152.297 86.8523 152.297 86.8515 152.297C86.8242 152.296 86.8026 152.273 86.8037 152.246C86.8072 152.147 86.8111 152.048 86.8152 151.949C86.8163 151.922 86.8417 151.901 86.8668 151.902C86.8942 151.903 86.9155 151.926 86.9144 151.953C86.9103 152.052 86.9065 152.151 86.9029 152.25C86.9018 152.276 86.88 152.297 86.8532 152.297H86.8534ZM136.066 151.611C136.042 151.611 136.021 151.594 136.017 151.569C136.001 151.471 135.985 151.373 135.969 151.277C135.965 151.25 135.983 151.224 136.01 151.22C136.038 151.215 136.063 151.234 136.067 151.261C136.083 151.357 136.099 151.455 136.115 151.554C136.12 151.581 136.101 151.606 136.074 151.611C136.071 151.611 136.069 151.611 136.066 151.611L136.066 151.611ZM86.8975 151.308C86.8975 151.308 86.8955 151.308 86.8947 151.308C86.8674 151.307 86.8461 151.284 86.8477 151.256C86.8532 151.157 86.8586 151.058 86.8644 150.959C86.866 150.932 86.889 150.911 86.9169 150.913C86.9442 150.915 86.9652 150.938 86.9636 150.965C86.9579 151.064 86.9521 151.163 86.9469 151.262C86.9456 151.288 86.9237 151.308 86.8972 151.308H86.8975ZM135.901 150.635C135.877 150.635 135.856 150.618 135.852 150.594C135.835 150.495 135.818 150.398 135.8 150.302C135.795 150.275 135.813 150.25 135.84 150.245C135.867 150.24 135.893 150.258 135.898 150.285C135.915 150.381 135.933 150.478 135.95 150.577C135.955 150.604 135.937 150.63 135.91 150.635C135.907 150.635 135.904 150.635 135.901 150.635L135.901 150.635ZM86.9598 150.32C86.9598 150.32 86.9573 150.32 86.9559 150.32C86.9286 150.319 86.9078 150.295 86.91 150.267C86.9174 150.168 86.9248 150.07 86.9327 149.971C86.9349 149.944 86.9581 149.924 86.9863 149.926C87.0136 149.928 87.0341 149.952 87.0319 149.979C87.024 150.077 87.0164 150.176 87.0092 150.275C87.0073 150.301 86.9855 150.321 86.9598 150.321V150.32ZM135.722 149.662C135.699 149.662 135.678 149.645 135.673 149.621C135.654 149.522 135.636 149.425 135.617 149.33C135.612 149.303 135.629 149.277 135.656 149.272C135.683 149.267 135.709 149.284 135.714 149.311C135.733 149.406 135.752 149.504 135.771 149.603C135.776 149.63 135.758 149.656 135.731 149.661C135.728 149.662 135.725 149.662 135.722 149.662L135.722 149.662ZM87.0442 149.335C87.0426 149.335 87.041 149.335 87.0393 149.335C87.012 149.332 86.992 149.308 86.9948 149.281C87.0046 149.181 87.0147 149.083 87.0251 148.985C87.0281 148.958 87.0519 148.938 87.0798 148.941C87.1071 148.944 87.1268 148.968 87.1241 148.995C87.1137 149.093 87.1036 149.191 87.0937 149.29C87.0913 149.316 87.0697 149.335 87.0442 149.335ZM135.529 148.691C135.505 148.691 135.485 148.675 135.48 148.652C135.459 148.551 135.439 148.454 135.419 148.361C135.413 148.334 135.431 148.308 135.457 148.302C135.484 148.297 135.511 148.314 135.516 148.34C135.536 148.433 135.557 148.53 135.578 148.631C135.583 148.658 135.566 148.684 135.539 148.69C135.536 148.69 135.532 148.691 135.529 148.691H135.529ZM87.1563 148.352C87.1541 148.352 87.1519 148.352 87.1497 148.351C87.1224 148.348 87.1033 148.323 87.1068 148.296C87.1197 148.197 87.1333 148.098 87.147 148.001C87.1508 147.974 87.176 147.956 87.2033 147.959C87.2304 147.963 87.2495 147.988 87.2457 148.015C87.2318 148.112 87.2184 148.21 87.2055 148.308C87.2022 148.333 87.1809 148.351 87.1563 148.351V148.352ZM135.21 147.829C135.208 147.829 135.206 147.829 135.204 147.829C135.108 147.818 135.009 147.807 134.908 147.796C134.88 147.793 134.861 147.769 134.864 147.741C134.867 147.714 134.89 147.695 134.919 147.698C135.021 147.709 135.119 147.72 135.215 147.731C135.243 147.734 135.262 147.759 135.259 147.786C135.256 147.811 135.235 147.83 135.21 147.83V147.829ZM134.22 147.727C134.219 147.727 134.217 147.727 134.216 147.727C134.118 147.718 134.02 147.709 133.918 147.7C133.891 147.698 133.871 147.674 133.873 147.647C133.876 147.62 133.9 147.6 133.927 147.602C134.028 147.611 134.128 147.62 134.225 147.629C134.252 147.631 134.272 147.655 134.27 147.682C134.267 147.708 134.246 147.727 134.22 147.727V147.727ZM133.229 147.644C133.229 147.644 133.226 147.644 133.225 147.644C133.127 147.637 133.028 147.629 132.928 147.622C132.9 147.62 132.879 147.597 132.882 147.569C132.884 147.542 132.908 147.522 132.935 147.523C133.036 147.531 133.135 147.538 133.233 147.545C133.26 147.548 133.281 147.571 133.279 147.598C133.277 147.624 133.255 147.644 133.229 147.644H133.229ZM132.236 147.574C132.236 147.574 132.234 147.574 132.233 147.574L131.935 147.555C131.908 147.554 131.887 147.53 131.889 147.503C131.89 147.476 131.913 147.455 131.942 147.457L132.24 147.476C132.267 147.477 132.288 147.501 132.286 147.528C132.284 147.554 132.262 147.574 132.237 147.574L132.236 147.574ZM131.243 147.514C131.243 147.514 131.241 147.514 131.24 147.514L130.943 147.498C130.915 147.496 130.894 147.473 130.895 147.445C130.897 147.418 130.92 147.398 130.948 147.399L131.246 147.415C131.274 147.417 131.295 147.44 131.293 147.467C131.292 147.494 131.269 147.514 131.243 147.514H131.243ZM130.25 147.462C130.25 147.462 130.248 147.462 130.247 147.462L129.949 147.447C129.922 147.446 129.901 147.423 129.902 147.395C129.903 147.368 129.927 147.347 129.954 147.348L130.252 147.363C130.279 147.364 130.301 147.387 130.299 147.415C130.298 147.441 130.276 147.462 130.25 147.462ZM129.256 147.415C129.256 147.415 129.254 147.415 129.254 147.415L128.955 147.402C128.928 147.401 128.907 147.378 128.908 147.351C128.909 147.324 128.933 147.303 128.96 147.304L129.258 147.316C129.285 147.317 129.307 147.34 129.305 147.368C129.304 147.395 129.282 147.415 129.256 147.415ZM128.262 147.374C128.262 147.374 128.26 147.374 128.26 147.374L127.962 147.363C127.934 147.361 127.913 147.339 127.914 147.311C127.915 147.284 127.94 147.261 127.966 147.264L128.264 147.275C128.291 147.276 128.313 147.299 128.312 147.326C128.31 147.353 128.289 147.374 128.262 147.374ZM87.3047 147.373C87.302 147.373 87.299 147.373 87.2963 147.373C87.2692 147.368 87.2512 147.342 87.2558 147.315L87.2725 147.222C87.2878 147.137 87.3586 147.077 87.4444 147.076H87.4704C87.5007 147.071 87.5204 147.096 87.5209 147.124C87.5215 147.151 87.4994 147.174 87.472 147.174H87.4461C87.4078 147.175 87.3774 147.201 87.3706 147.24L87.3542 147.333C87.3501 147.357 87.3291 147.374 87.3053 147.374L87.3047 147.373ZM127.268 147.337C127.268 147.337 127.267 147.337 127.266 147.337L126.968 147.327C126.94 147.326 126.919 147.303 126.919 147.276C126.921 147.248 126.943 147.226 126.971 147.228L127.269 147.238C127.296 147.239 127.318 147.262 127.317 147.289C127.316 147.316 127.294 147.337 127.267 147.337H127.268ZM126.273 147.304C126.273 147.304 126.272 147.304 126.272 147.304L125.973 147.295C125.946 147.294 125.924 147.271 125.925 147.244C125.926 147.217 125.949 147.196 125.977 147.196L126.275 147.205C126.302 147.206 126.324 147.229 126.323 147.256C126.322 147.283 126.3 147.304 126.273 147.304V147.304ZM125.279 147.274H125.277L124.979 147.265C124.952 147.265 124.93 147.242 124.931 147.215C124.932 147.187 124.954 147.164 124.982 147.167L125.28 147.175C125.308 147.176 125.33 147.199 125.329 147.226C125.328 147.253 125.306 147.274 125.279 147.274H125.279ZM124.284 147.247H124.283L123.985 147.239C123.957 147.239 123.936 147.216 123.936 147.189C123.937 147.161 123.956 147.141 123.988 147.14L124.286 147.148C124.313 147.149 124.335 147.171 124.334 147.199C124.334 147.226 124.311 147.247 124.285 147.247H124.284ZM123.29 147.223H123.289L122.99 147.216C122.963 147.215 122.941 147.192 122.942 147.165C122.942 147.138 122.961 147.117 122.993 147.117L123.291 147.124C123.318 147.124 123.34 147.147 123.34 147.174C123.339 147.201 123.317 147.223 123.29 147.223H123.29ZM122.295 147.201H122.294L121.996 147.194C121.968 147.194 121.946 147.171 121.947 147.144C121.948 147.116 121.973 147.095 121.998 147.095L122.296 147.102C122.324 147.102 122.346 147.125 122.345 147.152C122.344 147.179 122.322 147.201 122.295 147.201H122.295ZM121.3 147.181H121.299L121.001 147.175C120.973 147.174 120.951 147.152 120.952 147.125C120.952 147.098 120.973 147.073 121.002 147.076L121.301 147.082C121.328 147.082 121.35 147.105 121.349 147.132C121.349 147.159 121.327 147.181 121.3 147.181H121.3ZM88.1677 147.165C88.1403 147.165 88.1182 147.144 88.1179 147.117C88.1177 147.089 88.1395 147.067 88.1671 147.067L88.4656 147.063C88.4891 147.062 88.5156 147.084 88.5159 147.112C88.5162 147.139 88.4943 147.162 88.4667 147.162L88.1682 147.165H88.1677ZM120.306 147.162H120.305L120.007 147.158C119.979 147.157 119.957 147.135 119.958 147.107C119.958 147.08 119.981 147.059 120.008 147.059H120.008L120.307 147.064C120.334 147.064 120.356 147.087 120.356 147.114C120.355 147.141 120.333 147.162 120.306 147.162H120.306ZM89.1632 147.154C89.1361 147.154 89.1137 147.132 89.1135 147.105C89.1132 147.077 89.135 147.055 89.1627 147.055L89.4611 147.052C89.4893 147.049 89.5112 147.073 89.5114 147.101C89.5117 147.128 89.4898 147.15 89.4622 147.151L89.1637 147.154H89.1632ZM119.311 147.146H119.31L119.012 147.142C118.984 147.141 118.962 147.119 118.963 147.092C118.963 147.064 118.983 147.041 119.013 147.043L119.312 147.048C119.339 147.048 119.361 147.07 119.361 147.098C119.36 147.125 119.338 147.146 119.311 147.146ZM90.1584 147.143C90.1311 147.143 90.109 147.121 90.1087 147.094C90.1084 147.067 90.1303 147.044 90.1579 147.044L90.4564 147.041C90.4867 147.042 90.5064 147.062 90.5067 147.09C90.507 147.117 90.4848 147.139 90.4575 147.14L90.159 147.143H90.1584ZM91.1537 147.133C91.1264 147.133 91.1042 147.111 91.1039 147.084C91.1037 147.056 91.1258 147.034 91.1531 147.034L91.4516 147.031C91.4823 147.033 91.5017 147.052 91.5019 147.08C91.5022 147.107 91.4801 147.129 91.4527 147.13L91.1542 147.133H91.1537ZM118.316 147.132H118.315L118.017 147.128C117.99 147.127 117.967 147.105 117.968 147.078C117.968 147.051 117.991 147.029 118.018 147.029H118.018L118.317 147.033C118.344 147.033 118.366 147.056 118.366 147.083C118.365 147.11 118.343 147.132 118.316 147.132L118.316 147.132ZM92.1489 147.123C92.1216 147.123 92.0995 147.101 92.0992 147.074C92.0992 147.046 92.1211 147.024 92.1484 147.024L92.4469 147.021C92.4775 147.024 92.4969 147.043 92.4972 147.07C92.4972 147.097 92.4753 147.12 92.448 147.12L92.1495 147.123H92.1489ZM117.321 147.119H117.321L117.022 147.115C116.995 147.115 116.973 147.092 116.973 147.065C116.974 147.038 116.995 147.014 117.024 147.016L117.322 147.02C117.349 147.02 117.372 147.043 117.371 147.07C117.371 147.097 117.349 147.119 117.321 147.119ZM93.1442 147.114C93.1169 147.114 93.0947 147.092 93.0944 147.065C93.0944 147.038 93.1163 147.015 93.1436 147.015L93.4421 147.012H93.4427C93.47 147.012 93.4922 147.034 93.4924 147.061C93.4924 147.089 93.4706 147.111 93.4432 147.111L93.1447 147.114H93.1442ZM116.327 147.107H116.326L116.028 147.104C116 147.104 115.978 147.082 115.979 147.054C115.979 147.027 116.003 147.004 116.029 147.005L116.327 147.008C116.355 147.009 116.377 147.031 116.377 147.058C116.376 147.086 116.354 147.107 116.327 147.107ZM94.1394 147.105C94.1121 147.105 94.09 147.083 94.0897 147.056C94.0897 147.029 94.1116 147.007 94.1389 147.006L94.4374 147.004H94.4377C94.465 147.004 94.4871 147.026 94.4874 147.053C94.4874 147.081 94.4655 147.103 94.4379 147.103L94.1394 147.105H94.1389H94.1394ZM95.1347 147.098C95.1073 147.098 95.0852 147.076 95.0849 147.048C95.0849 147.021 95.1068 146.999 95.1344 146.999L95.4329 146.996H95.4332C95.4605 146.996 95.4826 147.018 95.4829 147.046C95.4829 147.073 95.4611 147.095 95.4334 147.095L95.135 147.098H95.1347ZM115.332 147.097H115.332L115.033 147.094C115.005 147.094 114.984 147.072 114.984 147.044C114.984 147.017 115.006 146.995 115.034 146.995H115.034L115.333 146.998C115.36 146.998 115.382 147.021 115.382 147.048C115.382 147.075 115.359 147.097 115.332 147.097ZM96.1299 147.09C96.1026 147.09 96.0805 147.068 96.0802 147.041C96.0802 147.014 96.102 146.992 96.1297 146.992L96.4281 146.99C96.4552 146.987 96.4779 147.011 96.4782 147.039C96.4782 147.066 96.4563 147.088 96.4287 147.089L96.1302 147.09H96.1299ZM114.337 147.088H114.337L114.038 147.086C114.011 147.086 113.989 147.063 113.989 147.036C113.989 147.009 114.011 146.987 114.039 146.987H114.039L114.337 146.989C114.365 146.989 114.387 147.012 114.387 147.039C114.387 147.066 114.364 147.088 114.337 147.088H114.337ZM97.1252 147.084C97.0978 147.084 97.0757 147.062 97.0754 147.035C97.0754 147.007 97.0973 146.985 97.1249 146.985L97.4234 146.983H97.4237C97.451 146.983 97.4731 147.005 97.4734 147.032C97.4734 147.06 97.4515 147.082 97.4239 147.082L97.1254 147.084H97.1252ZM113.343 147.08H113.342L113.044 147.078C113.017 147.078 112.994 147.056 112.994 147.029C112.994 147.001 113.019 146.976 113.044 146.979L113.343 146.981C113.371 146.981 113.392 147.004 113.392 147.031C113.392 147.058 113.37 147.08 113.343 147.08ZM98.1204 147.078C98.0931 147.078 98.0709 147.056 98.0707 147.029C98.0707 147.001 98.0925 146.979 98.1201 146.979L98.4186 146.977H98.4189C98.4462 146.977 98.4684 146.999 98.4687 147.027C98.4687 147.054 98.4465 147.076 98.4192 147.076L98.1207 147.078H98.1204ZM112.348 147.074H112.348L112.049 147.072C112.022 147.072 112 147.05 112 147.023C112 146.995 112.022 146.975 112.05 146.973L112.348 146.975C112.376 146.975 112.398 146.997 112.398 147.025C112.398 147.052 112.375 147.074 112.348 147.074ZM99.1157 147.073C99.0883 147.073 99.0662 147.051 99.0659 147.024C99.0659 146.996 99.0881 146.974 99.1154 146.974L99.4139 146.973C99.4412 146.973 99.4634 146.995 99.4636 147.022C99.4636 147.049 99.4418 147.071 99.4142 147.071L99.1157 147.073ZM111.353 147.068L111.055 147.067C111.027 147.067 111.005 147.045 111.005 147.017C111.005 146.99 111.028 146.968 111.055 146.968L111.354 146.97C111.381 146.97 111.403 146.992 111.403 147.019C111.403 147.046 111.381 147.068 111.353 147.068ZM100.111 147.068C100.084 147.068 100.061 147.046 100.061 147.019C100.061 146.992 100.083 146.97 100.111 146.969L100.409 146.968C100.436 146.968 100.459 146.99 100.459 147.017C100.459 147.045 100.437 147.067 100.409 147.067L100.111 147.068ZM101.106 147.064C101.079 147.064 101.056 147.042 101.056 147.015C101.056 146.988 101.079 146.966 101.106 146.965L101.404 146.964C101.432 146.964 101.454 146.986 101.454 147.014C101.454 147.041 101.432 147.063 101.405 147.063L101.106 147.064ZM110.359 147.064L110.06 147.063C110.032 147.063 110.01 147.041 110.011 147.013C110.011 146.986 110.033 146.964 110.06 146.964L110.359 146.965C110.386 146.965 110.409 146.987 110.408 147.015C110.408 147.042 110.386 147.064 110.359 147.064ZM102.101 147.061C102.074 147.061 102.051 147.039 102.051 147.012C102.051 146.984 102.074 146.962 102.101 146.962L102.399 146.961C102.427 146.961 102.449 146.983 102.449 147.011C102.449 147.038 102.427 147.06 102.4 147.06L102.101 147.061V147.061ZM109.364 147.061L109.065 147.06C109.038 147.06 109.015 147.037 109.016 147.01C109.016 146.983 109.038 146.961 109.065 146.961L109.364 146.962C109.391 146.962 109.414 146.984 109.413 147.011C109.413 147.038 109.391 147.06 109.364 147.06V147.061ZM103.096 147.058C103.069 147.058 103.046 147.036 103.046 147.009C103.046 146.981 103.068 146.959 103.096 146.959L103.395 146.959C103.422 146.959 103.444 146.981 103.444 147.008C103.444 147.036 103.422 147.058 103.395 147.058L103.096 147.058ZM108.369 147.058L108.07 147.057C108.043 147.057 108.02 147.035 108.02 147.008C108.02 146.981 108.043 146.958 108.07 146.958L108.369 146.959C108.396 146.959 108.418 146.981 108.418 147.008C108.418 147.036 108.396 147.058 108.369 147.058ZM104.091 147.056C104.064 147.056 104.041 147.034 104.041 147.007C104.041 146.98 104.063 146.958 104.091 146.958H104.39C104.417 146.957 104.439 146.979 104.439 147.006C104.439 147.034 104.417 147.056 104.39 147.056H104.091V147.056ZM107.374 147.056H107.075C107.048 147.056 107.025 147.034 107.025 147.007C107.025 146.98 107.048 146.957 107.075 146.957H107.374C107.401 146.958 107.423 146.98 107.423 147.007C107.423 147.034 107.401 147.057 107.374 147.057V147.056ZM105.086 147.056C105.058 147.056 105.036 147.034 105.036 147.006C105.036 146.979 105.058 146.957 105.086 146.957H105.384C105.411 146.957 105.433 146.979 105.433 147.006C105.433 147.033 105.411 147.056 105.384 147.056H105.086V147.056ZM106.379 147.056H106.08C106.053 147.056 106.03 147.034 106.03 147.006C106.03 146.979 106.053 146.957 106.08 146.957H106.379C106.406 146.957 106.428 146.979 106.428 147.007C106.428 147.034 106.406 147.056 106.379 147.056V147.056Z" fill="white"/>
<path d="M115.627 169.767H109.105C108.251 169.767 107.531 169.134 107.43 168.295L106.676 162.056C106.556 161.062 107.34 160.188 108.352 160.188H116.186C117.177 160.188 117.955 161.028 117.867 162.005L117.308 168.244C117.23 169.106 116.501 169.767 115.627 169.767Z" fill="#06508F"/>
<defs>
<linearGradient id="paint0_linear_7230_95370" x1="111.441" y1="179.3" x2="112.073" y2="156.219" gradientUnits="userSpaceOnUse">
<stop stop-color="#086BBF"/>
<stop offset="1" stop-color="#06508F"/>
</linearGradient>
<linearGradient id="paint1_linear_7230_95370" x1="113.137" y1="126.774" x2="111.129" y2="141.588" gradientUnits="userSpaceOnUse">
<stop stop-color="#086BBF"/>
<stop offset="1" stop-color="#06508F"/>
</linearGradient>
<linearGradient id="paint2_linear_7230_95370" x1="113.751" y1="138.307" x2="106.387" y2="207.433" gradientUnits="userSpaceOnUse">
<stop stop-color="#086BBF"/>
<stop offset="1" stop-color="#06508F"/>
</linearGradient>
</defs>
</svg>
