<svg width="279" height="168" viewBox="0 0 279 168" fill="none" xmlns="http://www.w3.org/2000/svg">
<path d="M128.51 -68.7759C149.066 -64.6486 162.076 -39.9845 172.733 -10.0305C183.576 19.8988 191.973 55.2243 177.548 73.4809C163.03 91.8438 125.596 93.2439 96.0252 85.7112C66.5473 78.2601 44.839 61.9824 38.8015 39.4922C32.6713 16.9203 42.212 -11.8642 60.9394 -34.2607C79.7604 -56.7636 107.862 -72.9849 128.51 -68.7759Z" fill="#FFFBE4"/>
<path d="M353.815 54.8691C390.088 93.2499 404.995 155.25 398.535 210.271C392.324 265.561 364.499 313.873 328.226 349.301C292.201 384.73 247.482 407.275 207.979 401.639C168.477 396.002 134.191 362.184 104.627 326.756C75.0617 291.327 50.2173 254.288 45.7454 212.418C41.2734 170.548 57.1738 123.847 86.7386 85.4664C116.303 47.0855 159.533 17.025 209.967 9.50989C260.152 1.72636 317.543 16.4882 353.815 54.8691Z" fill="#E8FAF4"/>
<path d="M289.29 346.457C260.248 365.064 173.086 398.53 128.633 371.122C83.9829 343.965 82.0425 255.682 80.0668 214.444C78.0911 172.954 120.284 120.979 163.749 96.3367C207.016 71.6943 256.761 67.785 287.779 90.6672C318.995 113.549 332.755 169.434 333.941 221.233C335.126 273.284 318.53 327.849 289.29 346.457Z" fill="#FFF7EE"/>
<path d="M34.7961 77.5367C38.8832 81.6177 40.5628 88.2101 39.835 94.0605C39.1351 99.9394 35.9998 105.076 31.9128 108.843C27.8537 112.61 22.8148 115.008 18.3638 114.408C13.9128 113.809 10.0497 110.213 6.71848 106.446C3.38724 102.679 0.58787 98.7408 0.0839842 94.2888C-0.419901 89.8368 1.37169 84.8711 4.70294 80.7901C8.03418 76.7091 12.9051 73.5128 18.5878 72.7137C24.2425 71.8861 30.709 73.4557 34.7961 77.5367Z" fill="#FFF7EE"/>
</svg>
