<svg xmlns="http://www.w3.org/2000/svg" width="1440" height="1080"><defs><clipPath id="a"><path d="M0 0h1440v1080H0z"/></clipPath></defs><g data-name="Assessment - Study Preferences – 1" clip-path="url(#a)"><path data-name="Fill 3" d="M428.7 1483s-215.3-18.2-179.9-138.9 55.6-127.6-9-269.2 342.4-299.5 544-154.3 311.8 50.5 453.6 134.6 48.4 328.6-109 427.8H428.8" fill="#feeed3"/><path data-name="Fill 3" d="M-480.7 385.8s-94 120.3 10.8 189.9 119.9 64.5 190 199 386.9 46 382.3-159.3S221 423.8 230.9 292.5 17.5 31-132.5 37.5l-348.2 348.3" fill="#d2ebe7"/><path data-name="Fill 3" d="M1873.6 364s21.2-151.2-104.3-159-136.1 4-264.1-77.4-358.1 153.4-251.5 329-7 225.3 50.2 344 315.5 119.8 442.1 39.1L1873.6 364" fill="#f0e7e1"/></g></svg>