<svg xmlns="http://www.w3.org/2000/svg" width="1440" height="1080"><defs><clipPath id="a"><path d="M0 0h1440v1080H0z"/></clipPath></defs><g data-name="Assessment - Interests Assessment – 1"><g data-name="Background v2" clip-path="url(#a)"><path data-name="Fill 3" d="M20 1346s-148.3-18.2-123.9-138.9 38.3-127.6-6.2-269.2 235.8-299.5 374.7-154.3 214.7 50.5 312.3 134.6 33.3 328.6-75 427.8H20" fill="#feeed3"/><path data-name="Fill 3" d="M982.3 1494s165.7-20.3 138.4-155.1-42.7-142.6 7-300.9S864.1 703.3 709 865.6 469 922 360 1016s-37.3 367.2 83.7 478h538.6" fill="#d2ebe7"/><path data-name="Fill 3" d="M1657.5 1216.8s151.5-18.6 126.6-142-39.1-130.3 6.3-275-241-306.1-382.9-157.7-219.4 51.6-319.2 137.5-34 335.8 76.7 437.2h492.5" fill="#f0e7e1"/></g></g></svg>