<svg width="380" height="251" viewBox="0 0 380 251" fill="none" xmlns="http://www.w3.org/2000/svg">
<path d="M256.325 0.31543H11.6512C5.2164 0.31543 0 5.53183 0 11.9666V64.3968C0 70.8316 5.2164 76.048 11.6512 76.048H256.325C262.76 76.048 267.977 70.8316 267.977 64.3968V11.9666C267.977 5.53183 262.76 0.31543 256.325 0.31543Z" fill="#F3F4F7"/>
<path d="M53.2811 0.31543H2.42187C1.08431 0.31543 0 5.50027 0 11.8961V64.0091C0 70.4049 1.08431 75.5897 2.42187 75.5897H53.2811C54.6187 75.5897 55.703 70.4049 55.703 64.0091V11.8961C55.703 5.50027 54.6187 0.31543 53.2811 0.31543Z" fill="#A5C1D7"/>
<g clip-path="url(#clip0_21216_344948)">
<path d="M23.25 36.0462L28.1277 29.683C28.3403 29.4056 28.6127 29.1798 28.9248 29.0225C29.2368 28.8652 29.5804 28.7805 29.9298 28.7747C30.2792 28.7689 30.6254 28.8422 30.9425 28.9891C31.2596 29.1359 31.5394 29.3525 31.761 29.6227C32.1123 30.0543 32.313 30.5963 32.313 31.1483V35.5243H36.4481C37.251 35.5243 38.0037 35.9257 38.4554 36.5982L38.897 37.2505C39.2985 37.8527 39.3988 38.5754 39.2081 39.2579L37.3915 45.5809C37.2461 46.081 36.9426 46.5204 36.5264 46.8335C36.1103 47.1465 35.6038 47.3162 35.0831 47.3172H26.6524C26.323 47.3169 25.9972 47.2491 25.6951 47.1179C25.393 46.9867 25.121 46.7949 24.896 46.5544L23.25 44.778M21.8328 47.3184H19.3036C18.9309 47.3184 18.5735 47.1704 18.31 46.9068C18.0465 46.6433 17.8984 46.2859 17.8984 45.9133V36.0172C17.8984 35.2444 18.5207 34.6121 19.3036 34.6121H21.8328C22.6156 34.6121 23.2379 35.2444 23.2379 36.0172V45.9133C23.2379 46.6861 22.6156 47.3184 21.8328 47.3184Z" stroke="#FCFCFC" stroke-width="2" stroke-linecap="round" stroke-linejoin="round"/>
</g>
<path d="M96.5787 59.2999C108.242 59.2999 117.696 49.8451 117.696 38.1822C117.696 26.5192 108.242 17.0645 96.5787 17.0645C84.9157 17.0645 75.4609 26.5192 75.4609 38.1822C75.4609 49.8451 84.9157 59.2999 96.5787 59.2999Z" fill="#FCFCFC" stroke="#F3F4F7"/>
<path fill-rule="evenodd" clip-rule="evenodd" d="M91.3968 43.2624C90.0434 44.1628 89.3024 45.3401 89.3024 46.6584V47.8916H103.866V46.6778C103.866 46.6746 103.866 46.6714 103.866 46.6682C103.866 46.6649 103.866 46.6617 103.866 46.6584C103.866 45.3407 103.125 44.1635 101.772 43.2629C100.41 42.3568 98.5275 41.8135 96.5843 41.8135C94.6411 41.8135 92.7583 42.3565 91.3968 43.2624ZM106.294 46.6682C106.294 46.6649 106.294 46.6617 106.294 46.6584C106.294 44.3048 104.936 42.4528 103.117 41.242C101.305 40.0365 98.9399 39.3862 96.5843 39.3862C94.2289 39.3862 91.8639 40.0362 90.0523 41.2415C88.2325 42.4522 86.875 44.3042 86.875 46.6584V47.8916C86.875 49.2317 87.9622 50.3188 89.3024 50.3188H103.866C105.206 50.3188 106.294 49.2317 106.294 47.8916V46.6778C106.294 46.6746 106.294 46.6714 106.294 46.6682Z" fill="#B0B5C9"/>
<path fill-rule="evenodd" clip-rule="evenodd" d="M98.7155 30.5725C97.5343 29.3913 95.6193 29.3913 94.4382 30.5725C93.2571 31.7536 93.2571 33.6686 94.4382 34.8498C95.6193 36.0307 97.5343 36.0307 98.7155 34.8498C99.8966 33.6686 99.8966 31.7536 98.7155 30.5725ZM100.432 28.8561C98.3027 26.727 94.8509 26.727 92.7218 28.8561C90.5927 30.9852 90.5927 34.437 92.7218 36.5661C94.8509 38.6951 98.3027 38.6951 100.432 36.5661C102.561 34.437 102.561 30.9852 100.432 28.8561Z" fill="#B0B5C9"/>
<path d="M227.134 21.6211H135.696C134.755 21.6211 133.992 23.9156 133.992 26.7462V28.5399C133.992 31.3705 134.755 33.665 135.696 33.665H227.134C228.075 33.665 228.838 31.3705 228.838 28.5399V26.7462C228.838 23.9156 228.075 21.6211 227.134 21.6211Z" fill="#DADDE6"/>
<path d="M199.926 42.6978H135.805C134.804 42.6978 133.992 44.9923 133.992 47.8229V49.6165C133.992 52.4471 134.804 54.7416 135.805 54.7416H199.926C200.928 54.7416 201.739 52.4471 201.739 49.6165V47.8229C201.739 44.9923 200.928 42.6978 199.926 42.6978Z" fill="#DADDE6"/>
<path d="M256.325 87.6338H11.6512C5.2164 87.6338 0 92.8502 0 99.2849V151.715C0 158.15 5.2164 163.366 11.6512 163.366H256.325C262.76 163.366 267.977 158.15 267.977 151.715V99.2849C267.977 92.8502 262.76 87.6338 256.325 87.6338Z" fill="#F3F4F7"/>
<path d="M53.2811 87.6338H2.42187C1.08431 87.6338 0 92.8186 0 99.2145V151.327C0 157.723 1.08431 162.908 2.42187 162.908H53.2811C54.6187 162.908 55.703 157.723 55.703 151.327V99.2145C55.703 92.8186 54.6187 87.6338 53.2811 87.6338Z" fill="#A5C1D7"/>
<g clip-path="url(#clip1_21216_344948)">
<path d="M23.25 123.364L28.1277 117.001C28.3403 116.723 28.6127 116.498 28.9248 116.34C29.2368 116.183 29.5804 116.098 29.9298 116.093C30.2792 116.087 30.6254 116.16 30.9425 116.307C31.2596 116.454 31.5394 116.67 31.761 116.941C32.1123 117.372 32.313 117.914 32.313 118.466V122.842H36.4481C37.251 122.842 38.0037 123.244 38.4554 123.916L38.897 124.568C39.2985 125.171 39.3988 125.893 39.2081 126.576L37.3915 132.899C37.2461 133.399 36.9426 133.838 36.5264 134.151C36.1103 134.464 35.6038 134.634 35.0831 134.635H26.6524C26.323 134.635 25.9972 134.567 25.6951 134.436C25.393 134.305 25.121 134.113 24.896 133.872L23.25 132.096M21.8328 134.636H19.3036C18.9309 134.636 18.5735 134.488 18.31 134.225C18.0465 133.961 17.8984 133.604 17.8984 133.231V123.335C17.8984 122.562 18.5207 121.93 19.3036 121.93H21.8328C22.6156 121.93 23.2379 122.562 23.2379 123.335V133.231C23.2379 134.004 22.6156 134.636 21.8328 134.636Z" stroke="#FCFCFC" stroke-width="2" stroke-linecap="round" stroke-linejoin="round"/>
</g>
<path d="M96.5787 146.618C108.242 146.618 117.696 137.163 117.696 125.5C117.696 113.837 108.242 104.382 96.5787 104.382C84.9157 104.382 75.4609 113.837 75.4609 125.5C75.4609 137.163 84.9157 146.618 96.5787 146.618Z" fill="#FCFCFC" stroke="#F3F4F7"/>
<path fill-rule="evenodd" clip-rule="evenodd" d="M91.3968 130.58C90.0434 131.481 89.3024 132.658 89.3024 133.976V135.209H103.866V133.996C103.866 133.992 103.866 133.989 103.866 133.986C103.866 133.983 103.866 133.98 103.866 133.976C103.866 132.659 103.125 131.481 101.772 130.581C100.41 129.675 98.5275 129.131 96.5843 129.131C94.6411 129.131 92.7583 129.674 91.3968 130.58ZM106.294 133.986C106.294 133.983 106.294 133.98 106.294 133.976C106.294 131.623 104.936 129.771 103.117 128.56C101.305 127.354 98.9399 126.704 96.5843 126.704C94.2289 126.704 91.8639 127.354 90.0523 128.559C88.2325 129.77 86.875 131.622 86.875 133.976V135.209C86.875 136.55 87.9622 137.637 89.3024 137.637H103.866C105.206 137.637 106.294 136.55 106.294 135.209V133.996C106.294 133.992 106.294 133.989 106.294 133.986Z" fill="#B0B5C9"/>
<path fill-rule="evenodd" clip-rule="evenodd" d="M98.7155 117.89C97.5343 116.709 95.6193 116.709 94.4382 117.89C93.2571 119.071 93.2571 120.986 94.4382 122.168C95.6193 123.349 97.5343 123.349 98.7155 122.168C99.8966 120.986 99.8966 119.071 98.7155 117.89ZM100.432 116.174C98.3027 114.045 94.8509 114.045 92.7218 116.174C90.5927 118.303 90.5927 121.755 92.7218 123.884C94.8509 126.013 98.3027 126.013 100.432 123.884C102.561 121.755 102.561 118.303 100.432 116.174Z" fill="#B0B5C9"/>
<path d="M227.134 108.939H135.696C134.755 108.939 133.992 111.234 133.992 114.065V115.858C133.992 118.689 134.755 120.983 135.696 120.983H227.134C228.075 120.983 228.838 118.689 228.838 115.858V114.065C228.838 111.234 228.075 108.939 227.134 108.939Z" fill="#DADDE6"/>
<path d="M199.926 130.016H135.805C134.804 130.016 133.992 132.311 133.992 135.141V136.935C133.992 139.765 134.804 142.06 135.805 142.06H199.926C200.928 142.06 201.739 139.765 201.739 136.935V135.141C201.739 132.311 200.928 130.016 199.926 130.016Z" fill="#DADDE6"/>
<path d="M256.325 174.952H11.6512C5.2164 174.952 0 180.168 0 186.603V239.033C0 245.468 5.2164 250.684 11.6512 250.684H256.325C262.76 250.684 267.977 245.468 267.977 239.033V186.603C267.977 180.168 262.76 174.952 256.325 174.952Z" fill="#F3F4F7"/>
<path d="M37.8677 233.936C49.5307 233.936 58.9854 224.481 58.9854 212.818C58.9854 201.155 49.5307 191.7 37.8677 191.7C26.2048 191.7 16.75 201.155 16.75 212.818C16.75 224.481 26.2048 233.936 37.8677 233.936Z" fill="#FCFCFC" stroke="#F3F4F7"/>
<path fill-rule="evenodd" clip-rule="evenodd" d="M32.6859 217.898C31.3325 218.799 30.5914 219.976 30.5914 221.294V222.527H45.1554V221.314C45.1554 221.31 45.1554 221.307 45.1554 221.304C45.1554 221.301 45.1554 221.297 45.1554 221.294C45.1554 219.976 44.4145 218.799 43.0609 217.899C41.6994 216.993 39.8165 216.449 37.8734 216.449C35.9301 216.449 34.0473 216.992 32.6859 217.898ZM47.5826 221.304C47.5828 221.301 47.5828 221.297 47.5828 221.294C47.5828 218.941 46.2253 217.089 44.4056 215.878C42.594 214.672 40.229 214.022 37.8734 214.022C35.518 214.022 33.1529 214.672 31.3413 215.877C29.5216 217.088 28.1641 218.94 28.1641 221.294V222.527C28.1641 223.867 29.2513 224.955 30.5914 224.955H45.1554C46.4956 224.955 47.5828 223.867 47.5828 222.527V221.314C47.5828 221.31 47.5828 221.307 47.5826 221.304Z" fill="#B0B5C9"/>
<path fill-rule="evenodd" clip-rule="evenodd" d="M40.0045 205.209C38.8234 204.028 36.9084 204.028 35.7273 205.209C34.5461 206.39 34.5461 208.305 35.7273 209.486C36.9084 210.667 38.8234 210.667 40.0045 209.486C41.1857 208.305 41.1857 206.39 40.0045 205.209ZM41.7209 203.492C39.5918 201.363 36.14 201.363 34.0109 203.492C31.8818 205.621 31.8818 209.073 34.0109 211.202C36.14 213.331 39.5918 213.331 41.7209 211.202C43.8499 209.073 43.8499 205.621 41.7209 203.492Z" fill="#B0B5C9"/>
<path d="M168.415 196.257H76.9773C76.0362 196.257 75.2734 198.552 75.2734 201.382V203.176C75.2734 206.007 76.0362 208.301 76.9773 208.301H168.415C169.356 208.301 170.119 206.007 170.119 203.176V201.382C170.119 198.552 169.356 196.257 168.415 196.257Z" fill="#DADDE6"/>
<path d="M141.207 217.334H77.0865C76.0852 217.334 75.2734 219.628 75.2734 222.459V224.253C75.2734 227.083 76.0852 229.378 77.0865 229.378H141.207C142.209 229.378 143.02 227.083 143.02 224.253V222.459C143.02 219.628 142.209 217.334 141.207 217.334Z" fill="#DADDE6"/>
<path fill-rule="evenodd" clip-rule="evenodd" d="M295.526 22.897C263.071 22.897 236.757 45.9619 236.757 74.4165C236.757 102.871 263.071 125.936 295.526 125.936C327.98 125.936 354.305 102.871 354.305 74.4165C354.305 45.9619 327.993 22.897 295.526 22.897Z" fill="#B0B5C9"/>
<path fill-rule="evenodd" clip-rule="evenodd" d="M334.427 58.0576H256.613C251.423 58.0576 247.157 62.3106 247.157 67.5036V81.3292C247.157 86.5222 251.423 90.7752 256.613 90.7752H334.427C339.63 90.7752 343.883 86.5222 343.883 81.3292V67.5036C343.883 62.3106 339.63 58.0576 334.427 58.0576Z" fill="#DADDE6"/>
<path fill-rule="evenodd" clip-rule="evenodd" d="M325.124 139.668H265.902C258.352 139.668 251.619 145.875 252.163 153.407L256.202 209.127C256.756 216.659 262.388 222.866 269.938 222.866H321.084C328.637 222.866 334.28 216.666 334.823 209.127L338.859 153.407C339.406 145.868 332.683 139.668 325.124 139.668Z" fill="#B0B5C9"/>
<path fill-rule="evenodd" clip-rule="evenodd" d="M285.371 125.176C288.668 125.672 292.057 125.936 295.514 125.936C298.97 125.936 302.37 125.672 305.656 125.176V139.665H285.371V125.176Z" fill="#B0B5C9"/>
<path fill-rule="evenodd" clip-rule="evenodd" d="M321.608 67.814C317.955 67.814 314.999 70.7737 314.999 74.4168C314.999 78.0599 317.955 81.0297 321.608 81.0297C325.261 81.0297 328.211 78.0699 328.211 74.4168C328.211 70.7637 325.251 67.814 321.608 67.814ZM269.422 67.814C265.779 67.814 262.809 70.7737 262.809 74.4168C262.809 78.0599 265.776 81.0297 269.422 81.0297C273.068 81.0297 276.035 78.0699 276.035 74.4168C276.035 70.7637 273.075 67.814 269.422 67.814Z" fill="#FCFCFC"/>
<path fill-rule="evenodd" clip-rule="evenodd" d="M269.044 139.668H321.977V180.079C321.977 194.634 310.067 206.544 295.512 206.544C280.956 206.544 269.044 194.634 269.044 180.079V139.668Z" fill="#DADDE6"/>
<path fill-rule="evenodd" clip-rule="evenodd" d="M354.983 56.4609H350.624C352.99 62.0472 354.294 68.0967 354.294 74.4163C354.294 78.8126 353.667 83.0856 352.484 87.152H354.983C360.416 87.152 364.859 82.709 364.859 77.2727V66.3402C364.859 60.9039 360.413 56.4609 354.983 56.4609ZM240.415 56.4609H234.386C228.949 56.4609 224.5 60.9039 224.5 66.3402V77.2727C224.5 82.709 228.953 87.152 234.386 87.152H238.559C237.375 83.0856 236.745 78.8126 236.745 74.4163C236.745 68.0967 238.042 62.0472 240.415 56.4609Z" fill="#DADDE6"/>
<path fill-rule="evenodd" clip-rule="evenodd" d="M340.786 144.654H335.913C337.943 147.041 339.116 150.091 338.869 153.407L337.676 169.879H340.786C347.719 169.879 353.398 164.206 353.398 157.267C353.398 150.327 347.719 144.654 340.786 144.654ZM255.129 144.654H250.266C243.323 144.654 237.654 150.327 237.654 157.267C237.654 164.206 243.323 169.879 250.266 169.879H253.376L252.173 153.407C251.939 150.091 253.102 147.041 255.129 144.654Z" fill="#DADDE6"/>
<path fill-rule="evenodd" clip-rule="evenodd" d="M350.603 218.743L365.022 193.808C365.659 195.311 366.765 196.625 368.289 197.508C369.812 198.391 371.508 198.691 373.125 198.494L358.706 223.429C360.203 225.139 361.263 227.149 361.832 229.289C362.796 232.895 362.379 236.878 360.359 240.361V240.371L353.55 236.428H353.56C354.49 234.822 354.68 232.982 354.226 231.319C353.783 229.655 352.703 228.162 351.097 227.236C349.49 226.306 347.654 226.109 345.987 226.559C344.327 226.999 342.824 228.082 341.894 229.685V229.695L335.084 225.752C337.104 222.269 340.354 219.92 343.96 218.963C346.1 218.39 348.373 218.296 350.6 218.746L350.603 218.743Z" fill="#B0B5C9"/>
<path fill-rule="evenodd" clip-rule="evenodd" d="M364.65 188.781L347.868 167.689C350.648 165.793 352.631 162.816 353.221 159.376L371.977 182.948C368.457 183.051 365.507 185.495 364.65 188.781Z" fill="#B0B5C9"/>
<path fill-rule="evenodd" clip-rule="evenodd" d="M372.197 198.561C367.888 198.561 364.394 195.068 364.394 190.758C364.394 186.448 367.884 182.955 372.197 182.955C376.51 182.955 380 186.448 380 190.758C380 195.068 376.51 198.561 372.197 198.561Z" fill="#DADDE6"/>
<path fill-rule="evenodd" clip-rule="evenodd" d="M178.69 156.965L203.85 170.985C202.352 171.655 201.058 172.779 200.203 174.317C199.341 175.853 199.062 177.55 199.29 179.168L174.13 165.148C172.448 166.662 170.449 167.758 168.317 168.361C164.735 169.381 160.738 169.031 157.225 167.073L157.215 167.07L161.053 160.196L161.05 160.205C162.672 161.108 164.506 161.263 166.17 160.794C167.827 160.324 169.299 159.221 170.211 157.602C171.117 155.981 171.272 154.133 170.802 152.476C170.329 150.825 169.226 149.346 167.604 148.44L171.435 141.564L171.432 141.573C174.955 143.534 177.348 146.737 178.365 150.328C178.974 152.462 179.092 154.735 178.684 156.96L178.69 156.965Z" fill="#B0B5C9"/>
<path fill-rule="evenodd" clip-rule="evenodd" d="M209.889 169.326L237.651 157.23V157.267C237.651 160.61 238.967 163.673 241.117 165.936L213.629 177.908C213.759 177.325 213.839 176.725 213.839 176.105C213.839 173.202 212.249 170.669 209.893 169.326H209.889Z" fill="#B0B5C9"/>
<path fill-rule="evenodd" clip-rule="evenodd" d="M206.025 168.299C210.335 168.299 213.828 171.792 213.828 176.102C213.828 180.412 210.335 183.908 206.025 183.908C201.716 183.908 198.216 180.415 198.216 176.102C198.216 171.789 201.712 168.299 206.025 168.299Z" fill="#DADDE6"/>
<path fill-rule="evenodd" clip-rule="evenodd" d="M321.275 222.809H269.765C267.849 222.809 266.282 224.369 266.282 226.292C266.282 228.215 267.852 229.775 269.765 229.775H321.275C323.191 229.775 324.758 228.205 324.758 226.292C324.758 224.379 323.188 222.809 321.275 222.809Z" fill="#DADDE6"/>
<path fill-rule="evenodd" clip-rule="evenodd" d="M315.596 229.774H275.439C273.099 229.774 271.176 230.104 271.176 233.154C271.176 249.74 319.859 250.003 319.859 233.154C319.859 230.101 317.943 229.774 315.596 229.774Z" fill="#B0B5C9"/>
<path fill-rule="evenodd" clip-rule="evenodd" d="M252.778 39.0491C263.494 29.1032 278.676 22.897 295.518 22.897C309.191 22.897 321.776 26.99 331.766 33.8562C323.006 42.8822 307.181 48.9017 289.112 48.9017C274.79 48.9017 261.877 45.1187 252.778 39.0491Z" fill="#DADDE6"/>
<defs>
<clipPath id="clip0_21216_344948">
<rect width="24.0878" height="24.0878" fill="white" transform="translate(16.5547 25.9087)"/>
</clipPath>
<clipPath id="clip1_21216_344948">
<rect width="24.0878" height="24.0878" fill="white" transform="translate(16.5547 113.227)"/>
</clipPath>
</defs>
</svg>
