<svg width="169" height="141" viewBox="0 0 169 141" fill="none" xmlns="http://www.w3.org/2000/svg">
<path d="M12.3484 108.427L55.2796 106.491V97.1849L12.3484 101.017V108.427Z" fill="#FCFCFC"/>
<path d="M12.3484 94.5087L55.2796 89.0143V79.7084L12.3484 87.0984V94.5087Z" fill="#FCFCFC"/>
<path d="M12.3484 80.5903L55.2796 71.5276V62.2317L12.3484 73.19V80.5903Z" fill="#FCFCFC"/>
<path d="M12.3484 66.6717L55.2796 54.0509V44.7449L12.3484 59.2715V66.6717Z" fill="#FCFCFC"/>
<path d="M122.148 95.7657L111.452 94.9648V106.4L122.148 106.765V95.7657Z" fill="#FCFCFC"/>
<path d="M136.08 96.8199L126.509 96.1002V106.917L136.08 107.241V96.8199Z" fill="#FCFCFC"/>
<path d="M148.631 97.7728L139.997 97.124V107.373L148.631 107.667V97.7728Z" fill="#FCFCFC"/>
<path d="M122.148 79.8503L111.452 78.4006V89.8355L122.148 90.839V79.8503Z" fill="#FCFCFC"/>
<path d="M136.08 81.7358L126.509 80.4382V91.2546L136.08 92.1569V81.7358Z" fill="#FCFCFC"/>
<path d="M148.631 83.4388L139.997 82.2729V92.5217L148.631 93.3327V83.4388Z" fill="#FCFCFC"/>
<path d="M122.148 63.9347L111.452 61.8363V73.2711L122.148 74.9234V63.9347Z" fill="#FCFCFC"/>
<path d="M136.08 66.6515L126.509 64.7863V75.5926L136.08 77.0726V66.6515Z" fill="#FCFCFC"/>
<path d="M148.631 69.1047L139.997 67.4219V77.6707L148.631 79.0088V69.1047Z" fill="#FCFCFC"/>
<path d="M122.148 48.0091L111.452 45.2822V56.717L122.148 58.9979V48.0091Z" fill="#FCFCFC"/>
<path d="M136.08 51.5673L126.509 49.1241V59.9305L136.08 61.9883V51.5673Z" fill="#FCFCFC"/>
<path d="M148.631 54.7707L139.997 52.5709V62.8196L148.631 64.6748V54.7707Z" fill="#FCFCFC"/>
<path d="M122.148 32.0937L111.452 28.718V40.1528L122.148 43.0825V32.0937Z" fill="#FCFCFC"/>
<path d="M136.08 36.4831L126.509 33.4622V44.2786L136.08 46.9041V36.4831Z" fill="#FCFCFC"/>
<path d="M148.631 40.4466L139.997 37.7197V47.9786L148.631 50.3406V40.4466Z" fill="#FCFCFC"/>
<path d="M122.148 16.168L111.452 12.1537V23.5885L122.148 27.1669V16.168Z" fill="#FCFCFC"/>
<path d="M136.08 21.3989L126.509 17.8103V28.6166L136.08 31.8199V21.3989Z" fill="#FCFCFC"/>
<path d="M148.631 26.1126L139.997 22.8688V33.1276L148.631 36.0066V26.1126Z" fill="#FCFCFC"/>
<path d="M106.075 114.398V0.840698L59.631 19.8075V34.3544L9.31934 53.4631V114.408H106.075V114.398ZM90.0114 16.2088L100.707 12.1944V23.6292L90.0114 27.1975V16.2088ZM90.0114 32.1242L100.707 28.7587V40.1934L90.0114 43.1231V32.1343V32.1242ZM90.0114 48.0498L100.707 45.3229V56.7577L90.0114 59.0487V48.0599V48.0498ZM90.0114 63.9653L100.707 61.877V73.3118L90.0114 74.954V63.9653ZM90.0114 79.8909L100.707 78.4413V89.876L90.0114 90.8796V79.8909ZM90.0114 95.8063L100.707 94.9953V106.43L90.0114 106.795V95.8063ZM76.0694 21.4396L85.6502 17.8409V28.6573L76.0694 31.8505V21.4396ZM76.0694 36.5238L85.6502 33.5029V44.3193L76.0694 46.9449V36.5339V36.5238ZM76.0694 51.608L85.6502 49.1649V59.9813L76.0694 62.0291V51.6181V51.608ZM76.0694 66.6922L85.6502 64.8168V75.6332L76.0694 77.1133V66.7023V66.6922ZM76.0694 81.7764L85.6502 80.4788V91.2953L76.0694 92.1974V81.7865V81.7764ZM76.0694 96.8606L85.6502 96.1408V106.957L76.0694 107.282V96.8707V96.8606ZM63.5186 26.1432L72.1522 22.9095V33.1582L63.5186 36.0372V26.1432ZM63.5186 40.4773L72.1522 37.7605V48.0093L63.5186 50.3713V40.4773ZM63.5186 54.8114L72.1522 52.6115V62.8603L63.5186 64.7053V54.8114ZM63.5186 69.1454L72.1522 67.4626V77.7113L63.5186 79.0393V69.1454ZM63.5186 83.4693L72.1522 82.3035V92.5523L63.5186 93.3632V83.4693ZM63.5186 97.8033L72.1522 97.1545V107.403L63.5186 107.697V97.8033ZM55.2797 106.491L12.3485 108.427V101.017L55.2797 97.185V106.491ZM55.2797 89.0144L12.3485 94.5087V87.0984L55.2797 79.7084V89.0144ZM55.2797 71.5277L12.3485 80.5903V73.18L55.2797 62.2217V71.5277ZM55.2797 54.0511L12.3485 66.6719V59.2616L55.2797 44.735V54.0409V54.0511Z" fill="#B0B5C9"/>
<path d="M72.1522 97.1545L63.5186 97.8033V107.697L72.1522 107.403V97.1545Z" fill="#FCFCFC"/>
<path d="M85.6502 96.1306L76.0693 96.8605V107.271L85.6502 106.947V96.1306Z" fill="#FCFCFC"/>
<path d="M100.707 94.9951L90.0114 95.8061V106.795L100.707 106.43V94.9951Z" fill="#FCFCFC"/>
<path d="M72.1522 82.3035L63.5186 83.4692V93.3733L72.1522 92.5623V82.3035Z" fill="#FCFCFC"/>
<path d="M85.6502 80.4786L76.0693 81.7762V92.1872L85.6502 91.285V80.4786Z" fill="#FCFCFC"/>
<path d="M100.707 78.4412L90.0114 79.8908V90.8795L100.707 89.8759V78.4412Z" fill="#FCFCFC"/>
<path d="M72.1522 67.4524L63.5186 69.1453V79.0392L72.1522 77.7113V67.4524Z" fill="#FCFCFC"/>
<path d="M85.6502 64.8167L76.0693 66.692V77.103L85.6502 75.6331V64.8167Z" fill="#FCFCFC"/>
<path d="M100.707 61.8768L90.0114 63.9651V74.9539L100.707 73.3117V61.8768Z" fill="#FCFCFC"/>
<path d="M72.1522 52.6013L63.5186 54.8113V64.7052L72.1522 62.8602V52.6013Z" fill="#FCFCFC"/>
<path d="M85.6502 49.1545L76.0693 51.6077V62.0187L85.6502 59.9709V49.1545Z" fill="#FCFCFC"/>
<path d="M100.707 45.3125L90.0114 48.0496V59.0384L100.707 56.7473V45.3125Z" fill="#FCFCFC"/>
<path d="M72.1522 37.7502L63.5186 40.4772V50.3711L72.1522 48.0091V37.7502Z" fill="#FCFCFC"/>
<path d="M85.6502 33.5028L76.0693 36.5237V46.9346L85.6502 44.3091V33.5028Z" fill="#FCFCFC"/>
<path d="M100.707 28.7587L90.0114 32.1242V43.1231L100.707 40.1934V28.7587Z" fill="#FCFCFC"/>
<path d="M72.1522 22.9094L63.5186 26.1432V36.0372L72.1522 33.1581V22.9094Z" fill="#FCFCFC"/>
<path d="M85.6502 17.8408L76.0693 21.4395V31.8505L85.6502 28.6572V17.8408Z" fill="#FCFCFC"/>
<path d="M100.707 12.1943L90.0114 16.2087V27.1974L100.707 23.6292V12.1943Z" fill="#FCFCFC"/>
<path d="M152.519 114.398V19.7668L106.075 0.800049V114.398H0.734985V120.825H161.103V114.398H152.509H152.519ZM139.997 22.8688L148.631 26.1127V36.0066L139.997 33.1277V22.879V22.8688ZM139.997 37.7198L148.631 40.4467V50.3407L139.997 47.9787V37.73V37.7198ZM139.997 52.5709L148.631 54.7707V64.6646L139.997 62.8196V52.5709ZM139.997 67.4219L148.631 69.1047V78.9987L139.997 77.6707V67.4219ZM139.997 82.273L148.631 83.4388V93.3327L139.997 92.5217V82.273ZM139.997 97.124L148.631 97.7728V107.667L139.997 107.373V97.124ZM126.509 17.8104L136.09 21.4091V31.82L126.509 28.6166V17.8002V17.8104ZM126.509 33.4622L136.09 36.4831V46.894L126.509 44.2685V33.4521V33.4622ZM126.509 49.1242L136.09 51.5673V61.9782L126.509 59.9305V49.1141V49.1242ZM126.509 64.7862L136.09 66.6616V77.0726L126.509 75.5926V64.7761V64.7862ZM126.509 80.4381L136.09 81.7357V92.1466L126.509 91.2444V80.428V80.4381ZM126.509 96.1002L136.09 96.8199V107.231L126.509 106.906V96.09V96.1002ZM111.452 12.1538L122.148 16.1681V27.1569L111.452 23.5885V12.1538ZM111.452 28.718L122.148 32.0937V43.0825L111.452 40.1528V28.718ZM111.452 45.2822L122.148 48.0091V58.9979L111.452 56.7069V45.2721V45.2822ZM111.452 61.8363L122.148 63.9246V74.9133L111.452 73.261V61.8262V61.8363ZM111.452 78.4005L122.148 79.8502V90.8389L111.452 89.8354V78.4005ZM111.452 94.9648L122.148 95.7758V106.765L111.452 106.4V94.9648Z" fill="#DADDE6"/>
<path fill-rule="evenodd" clip-rule="evenodd" d="M159.44 123.39C164.39 119.141 167.535 112.779 167.535 105.669C167.535 92.8784 157.359 82.5098 144.806 82.5098C132.253 82.5098 122.077 92.8784 122.077 105.669C122.077 118.459 132.253 128.828 144.806 128.828C148.338 128.828 151.682 128.007 154.664 126.542L163.485 138.912C164.402 140.198 166.175 140.479 167.444 139.539C168.714 138.6 168.999 136.795 168.082 135.509L159.44 123.39Z" fill="#B0B5C9"/>
<ellipse cx="144.807" cy="105.669" rx="17.0468" ry="17.3692" fill="#DADDE6"/>
</svg>
