<svg width="193" height="80" viewBox="0 0 193 80" fill="none" xmlns="http://www.w3.org/2000/svg">
<g clip-path="url(#clip0_21645_348113)">
<path d="M17.7083 34.0326C16.7803 37.7992 13.5483 40.7326 9.35634 40.7326C4.20434 40.7326 0.652344 36.5659 0.652344 31.7326C0.652344 26.7326 4.36435 22.7325 9.22835 22.7325C13.3243 22.7325 16.7803 25.4325 17.7403 29.5659H13.7723C13.1003 27.7659 11.5323 26.4992 9.38835 26.4992C7.98035 26.4659 6.86034 26.9992 5.93234 27.9659C5.10034 28.8992 4.58835 30.2659 4.58835 31.7326C4.58835 34.7992 6.63635 36.9659 9.38835 36.9659C11.8203 36.9659 13.1963 35.4659 13.7723 34.0659H17.7083V34.0326ZM23.5963 31.7326C23.5963 34.6992 25.7723 36.8992 28.4283 36.8992C31.0843 36.8992 33.2284 34.6992 33.2284 31.6992C33.2284 28.6992 31.0843 26.4992 28.4283 26.4992C25.7723 26.5325 23.5963 28.6992 23.5963 31.7326ZM19.7243 31.6659C19.7243 27.3326 22.7643 22.7325 28.4283 22.7325C34.0924 22.7325 37.1324 27.3326 37.1324 31.6992C37.1324 36.0992 34.0924 40.6992 28.4283 40.6992C22.7643 40.6992 19.7243 36.0992 19.7243 31.6659ZM39.8204 23.2325H43.4363V25.3659C43.7883 24.5992 45.3563 22.6992 48.1724 22.6992C49.5163 22.6992 50.9884 23.0992 52.1724 24.4326C52.5244 24.8326 52.9404 25.5325 53.1644 25.9659C53.4524 25.4325 53.8044 24.8992 54.3484 24.3659C55.3404 23.3659 56.7804 22.6992 58.5084 22.6992C59.8844 22.6992 61.5804 23.0659 62.8284 24.3992C64.3004 25.9992 64.6204 27.3992 64.6204 30.8992V40.1992H60.7484V31.0659C60.7484 29.9992 60.6524 28.7992 60.1084 27.9326C59.6924 27.0992 58.9244 26.5326 57.5484 26.5326C56.1724 26.5326 55.2444 27.1659 54.7324 28.0659C54.2204 28.9992 54.1563 29.8992 54.1563 30.8992V40.1992H50.2844V30.8992C50.2844 29.8992 50.1884 28.9659 49.7724 28.0992C49.2924 27.1992 48.4924 26.5659 47.1163 26.5326C45.7083 26.5326 44.8124 27.2326 44.3324 28.0992C43.8524 28.9992 43.6923 30.0326 43.6923 31.0326V40.1992H39.8204V23.2325ZM67.7884 23.2325H71.4364V25.3659C71.7884 24.5992 73.3564 22.6992 76.1724 22.6992C77.5163 22.6992 78.9884 23.0992 80.1724 24.4326C80.5244 24.8326 80.9404 25.5325 81.1644 25.9659C81.4524 25.4325 81.8044 24.8992 82.3484 24.3659C83.3404 23.3659 84.7804 22.6992 86.5084 22.6992C87.8844 22.6992 89.5804 23.0659 90.8284 24.3992C92.3004 25.9992 92.6204 27.3992 92.6204 30.8992V40.1992H88.7484V31.0659C88.7484 29.9992 88.6524 28.7992 88.1084 27.9326C87.6924 27.0992 86.9244 26.5326 85.5483 26.5326C84.1723 26.5326 83.2444 27.1659 82.7324 28.0659C82.2204 28.9992 82.1564 29.8992 82.1564 30.8992V40.1992H78.2524V30.8992C78.2524 29.8992 78.1564 28.9659 77.7404 28.0992C77.2604 27.1992 76.4604 26.5659 75.0844 26.5326C73.6764 26.5326 72.7803 27.2326 72.3004 28.0992C71.8204 28.9992 71.6924 30.0326 71.6924 31.0326V40.1992H67.7884V23.2325ZM99.2764 31.7326C99.2764 34.6992 101.452 36.8992 104.108 36.8992C106.764 36.8992 108.908 34.6992 108.908 31.6992C108.908 28.6992 106.764 26.4992 104.108 26.4992C101.452 26.5325 99.2764 28.6992 99.2764 31.7326ZM95.4044 31.6659C95.4044 27.3326 98.4444 22.7325 104.108 22.7325C109.772 22.7325 112.812 27.3326 112.812 31.6992C112.812 36.0992 109.772 40.6992 104.108 40.6992C98.4444 40.6992 95.4044 36.0992 95.4044 31.6659ZM115.596 23.2325H119.244C119.244 23.9659 119.244 24.6992 119.212 25.4992C119.916 24.1659 121.388 22.6992 124.268 22.7325C129.58 22.7659 130.572 26.9992 130.572 29.9992V40.2326H126.7V30.9992C126.7 28.4659 125.9 26.5326 123.18 26.5326C120.428 26.5659 119.468 28.4659 119.468 30.8659V40.2326H115.596V23.2325ZM78.8284 56.2659C78.8284 58.3659 80.2684 61.4325 83.7884 61.4325C85.9644 61.4325 87.3724 60.2659 88.1084 58.6992C88.4924 57.9659 88.6844 57.1659 88.7164 56.3326C88.7484 55.5326 88.5883 54.6992 88.2683 53.9659C87.5964 52.3659 86.0604 50.9659 83.7244 50.9659C80.6204 50.9659 78.8284 53.5992 78.8284 56.2659ZM92.5884 64.6659H88.7164V62.2326C87.6924 64.1992 85.5164 65.1992 83.2444 65.1992C78.0284 65.1992 74.9884 60.9659 74.9884 56.1992C74.9884 50.8659 78.7004 47.1992 83.2444 47.1992C86.2204 47.1992 88.0124 48.8326 88.7164 50.1992V47.7326H92.5884V64.6659ZM109.356 56.1659C109.356 53.7325 107.66 50.9325 104.364 50.9325C102.956 50.9325 101.74 51.5325 100.844 52.4659C99.9804 53.3992 99.4364 54.7326 99.4364 56.1992C99.4364 57.6659 99.9804 58.9326 100.844 59.8659C101.74 60.7992 102.988 61.3659 104.364 61.3659C107.372 61.4326 109.356 58.9992 109.356 56.1659ZM95.7564 47.7326H99.4044V50.1992C100.556 48.4992 102.444 47.1992 105.164 47.1992C110.86 47.1992 113.26 52.2326 113.26 56.3326C113.26 61.1325 109.964 65.1992 105.196 65.1992C102.028 65.1992 100.3 63.4992 99.6604 62.4325V64.6992V73.5326H95.7884V47.7326H95.7564ZM129.196 56.1659C129.196 53.7325 127.5 50.9325 124.204 50.9325C122.796 50.9325 121.58 51.5325 120.684 52.4659C119.82 53.3992 119.276 54.7326 119.276 56.1992C119.276 57.6659 119.82 58.9326 120.684 59.8659C121.58 60.7992 122.828 61.3659 124.204 61.3659C127.212 61.4326 129.196 58.9992 129.196 56.1659ZM115.596 47.7326H119.244V50.1992C120.396 48.4992 122.284 47.1992 125.004 47.1992C130.7 47.1992 133.1 52.2326 133.1 56.3326C133.1 61.1325 129.804 65.1992 125.036 65.1992C121.868 65.1992 120.14 63.4992 119.5 62.4325V64.6992V73.5326H115.628V47.7326H115.596Z" fill="black"/>
<path d="M190.925 0.133591C186.733 2.16692 150.029 20.1336 146.957 21.7003C141.229 24.7003 138.189 29.1669 138.189 34.7003C138.221 39.4669 140.717 42.6003 141.901 43.8336C140.749 45.0336 138.285 48.0336 138.189 52.0003C138.029 57.8669 140.493 62.4003 145.357 65.0669L172.205 78.3336C172.365 78.4003 172.557 78.4669 172.717 78.4669C172.941 78.4669 173.165 78.4003 173.357 78.2669C173.709 78.0336 173.901 77.6336 173.901 77.2003V61.3336C173.901 57.6669 171.853 54.3003 168.717 52.7336L150.893 43.7669L187.213 25.9003C190.509 24.2669 192.653 20.7669 192.653 16.9336V1.53359C192.653 1.26693 192.653 0.466927 192.109 0.10026C191.917 -0.0330729 191.757 -0.0664062 191.597 -0.0664062C191.277 -0.0664062 191.053 0.066924 190.925 0.133591ZM145.453 40.3669C145.421 40.3336 142.989 38.2336 142.989 34.6336C142.989 32.7336 143.533 31.1003 144.653 29.6669C145.677 28.3669 147.149 27.2003 149.037 26.2003C151.565 24.9336 176.237 12.8336 187.821 7.20026V16.9336C187.821 18.8003 186.765 20.5336 185.165 21.3336L145.837 40.6669L145.453 40.3669ZM147.501 60.5003C144.269 58.7003 142.861 56.1003 142.989 52.1003C143.053 49.4003 145.453 47.2003 145.549 47.1336L145.869 46.8669L166.669 57.2336C168.141 57.9669 169.101 59.5669 169.101 61.3003V71.2003L147.501 60.5003Z" fill="url(#paint0_linear_21645_348113)"/>
</g>
<defs>
<linearGradient id="paint0_linear_21645_348113" x1="165.398" y1="78.3992" x2="165.398" y2="5.99179" gradientUnits="userSpaceOnUse">
<stop stop-color="#429AE2"/>
<stop offset="0.5129" stop-color="#38DAF9"/>
<stop offset="1" stop-color="#9AE9FF"/>
</linearGradient>
<clipPath id="clip0_21645_348113">
<rect width="192" height="80" fill="white" transform="translate(0.5)"/>
</clipPath>
</defs>
</svg>
