<svg width="214" height="255" viewBox="0 0 214 255" fill="none" xmlns="http://www.w3.org/2000/svg">
<path d="M90.838 238.679C90.838 238.679 129.283 228.832 149.559 238.679C169.835 248.527 146.269 249.192 133.498 251.855C120.727 254.519 108.453 255.181 102.347 251.057C96.2422 246.932 81.0953 243.071 90.838 238.679Z" fill="#FEEED3"/>
<path d="M112.427 11.9463H134.736C135.119 11.9328 135.481 11.7661 135.742 11.483C136.004 11.1999 136.144 10.8235 136.131 10.4363C136.143 10.0494 136.004 9.67329 135.742 9.39049C135.48 9.10768 135.119 8.94127 134.736 8.92773H112.427C112.044 8.94126 111.682 9.10787 111.421 9.39097C111.159 9.67407 111.019 10.0505 111.032 10.4377C111.02 10.8246 111.16 11.2007 111.421 11.4835C111.683 11.7663 112.045 11.9328 112.427 11.9463" fill="#1D202A"/>
<path d="M45.3961 19.6396H62.3597C62.7427 19.6261 63.1048 19.4595 63.3664 19.1764C63.628 18.8933 63.7678 18.5168 63.755 18.1297C63.7674 17.7428 63.6275 17.3666 63.3659 17.0838C63.1043 16.801 62.7425 16.6346 62.3597 16.6211H45.3961C45.0133 16.6346 44.6515 16.801 44.3899 17.0838C44.1283 17.3666 43.9884 17.7428 44.0008 18.1297C43.988 18.5168 44.1278 18.8933 44.3894 19.1764C44.651 19.4595 45.0131 19.6261 45.3961 19.6396Z" fill="#FEEED3"/>
<path d="M69.7086 19.6396H134.731C135.112 19.6244 135.473 19.457 135.733 19.1741C135.993 18.8912 136.132 18.5157 136.119 18.1297C136.132 17.7439 135.993 17.3688 135.732 17.0862C135.472 16.8036 135.112 16.6364 134.731 16.6211H69.7086C69.3258 16.6346 68.964 16.801 68.7024 17.0838C68.4408 17.3666 68.3009 17.7428 68.3133 18.1297C68.3005 18.5168 68.4403 18.8933 68.7019 19.1764C68.9635 19.4595 69.3256 19.6261 69.7086 19.6396Z" fill="#FEEED3"/>
<path d="M45.3961 27.3285H134.732C135.115 27.315 135.477 27.1484 135.739 26.8653C136.001 26.5822 136.14 26.2057 136.128 25.8186C136.14 25.4314 136.001 25.0549 135.739 24.7718C135.477 24.4887 135.115 24.3221 134.732 24.3086H45.3961C45.0131 24.3221 44.651 24.4887 44.3894 24.7718C44.1278 25.0549 43.988 25.4314 44.0008 25.8186C43.9884 26.2056 44.1283 26.5819 44.3898 26.8649C44.6513 27.1479 45.0132 27.3146 45.3961 27.3285" fill="#FEEED3"/>
<path d="M45.3961 35.0185H73.7935C74.1762 35.0047 74.5378 34.8381 74.7993 34.5554C75.0608 34.2727 75.2008 33.8968 75.1888 33.51C75.2016 33.1228 75.0618 32.7463 74.8002 32.4632C74.5386 32.1801 74.1765 32.0135 73.7935 32H45.3961C45.0131 32.0135 44.651 32.1801 44.3894 32.4632C44.1278 32.7463 43.988 33.1228 44.0008 33.51C43.9888 33.8968 44.1288 34.2727 44.3903 34.5554C44.6518 34.8381 45.0134 35.0047 45.3961 35.0185" fill="#FEEED3"/>
<path d="M80.857 35.0185H134.729C135.112 35.005 135.474 34.8386 135.735 34.5558C135.997 34.273 136.137 33.8969 136.124 33.51C136.131 33.3182 136.1 33.127 136.033 32.9474C135.967 32.7677 135.866 32.6031 135.736 32.4628C135.606 32.3226 135.451 32.2096 135.278 32.1302C135.105 32.0508 134.919 32.0065 134.729 32H80.857C80.474 32.0135 80.1119 32.1801 79.8503 32.4632C79.5887 32.7463 79.449 33.1228 79.4617 33.51C79.4497 33.8968 79.5898 34.2727 79.8512 34.5554C80.1127 34.8381 80.4744 35.0047 80.857 35.0185" fill="#FEEED3"/>
<path d="M45.3961 11.9463H105.098C105.288 11.9403 105.475 11.8965 105.648 11.8174C105.821 11.7383 105.977 11.6255 106.107 11.4854C106.237 11.3453 106.339 11.1807 106.406 11.0009C106.473 10.8211 106.505 10.6297 106.498 10.4377C106.511 10.0505 106.371 9.67407 106.11 9.39097C105.848 9.10787 105.486 8.94126 105.103 8.92773H45.3961C45.0131 8.94126 44.651 9.10787 44.3894 9.39097C44.1278 9.67407 43.988 10.0505 44.0008 10.4377C43.9884 10.8246 44.1283 11.2007 44.3899 11.4835C44.6515 11.7663 45.0133 11.9328 45.3961 11.9463" fill="#1D202A"/>
<path d="M112.427 67.2393H134.736C135.119 67.2257 135.481 67.0591 135.742 66.776C136.004 66.4929 136.144 66.1165 136.131 65.7293C136.143 65.3424 136.004 64.9663 135.742 64.6835C135.48 64.4007 135.119 64.2342 134.736 64.2207H112.427C112.044 64.2342 111.682 64.4008 111.421 64.6839C111.159 64.967 111.019 65.3435 111.032 65.7307C111.02 66.1176 111.16 66.4937 111.421 66.7765C111.683 67.0593 112.045 67.2257 112.427 67.2393" fill="#3C4258"/>
<path d="M45.396 74.9287H62.3597C62.7427 74.9152 63.1048 74.7486 63.3664 74.4655C63.628 74.1824 63.7677 73.8059 63.755 73.4187C63.767 73.0319 63.6269 72.656 63.3655 72.3733C63.104 72.0906 62.7423 71.924 62.3597 71.9102H45.396C45.0131 71.924 44.6513 72.0908 44.3898 72.3738C44.1282 72.6568 43.9884 73.033 44.0008 73.4201C43.9884 73.807 44.1283 74.1832 44.3899 74.466C44.6514 74.7488 45.0133 74.9152 45.396 74.9287" fill="#FEEED3"/>
<path d="M69.7085 74.9287H134.731C135.112 74.9138 135.473 74.7467 135.733 74.464C135.993 74.1813 136.132 73.806 136.119 73.4201C136.132 73.0341 135.993 72.6586 135.733 72.3757C135.473 72.0928 135.112 71.9254 134.731 71.9102H69.7085C69.3256 71.924 68.9638 72.0908 68.7023 72.3738C68.4407 72.6568 68.3009 73.033 68.3133 73.4201C68.3009 73.807 68.4408 74.1832 68.7024 74.466C68.9639 74.7488 69.3258 74.9152 69.7085 74.9287" fill="#FEEED3"/>
<path d="M45.396 82.624H134.732C135.115 82.6105 135.477 82.4439 135.739 82.1608C136.001 81.8777 136.14 81.5012 136.128 81.1141C136.14 80.7271 136 80.351 135.739 80.0682C135.477 79.7854 135.115 79.619 134.732 79.6055H45.396C45.0131 79.6194 44.6513 79.7861 44.3898 80.0691C44.1282 80.3521 43.9884 80.7284 44.0008 81.1154C43.9887 81.5023 44.1288 81.8782 44.3903 82.1609C44.6518 82.4436 45.0134 82.6101 45.396 82.624" fill="#FEEED3"/>
<path d="M45.396 90.3135H73.7935C74.1761 90.2996 74.5378 90.1331 74.7993 89.8503C75.0608 89.5676 75.2008 89.1917 75.1888 88.8049C75.2012 88.4178 75.0613 88.0416 74.7998 87.7585C74.5382 87.4755 74.1764 87.3088 73.7935 87.2949H45.396C45.0131 87.3088 44.6513 87.4755 44.3898 87.7585C44.1282 88.0416 43.9884 88.4178 44.0008 88.8049C43.9887 89.1917 44.1288 89.5676 44.3903 89.8503C44.6518 90.1331 45.0134 90.2996 45.396 90.3135" fill="#FEEED3"/>
<path d="M80.857 90.3135H134.729C135.112 90.2999 135.474 90.1335 135.735 89.8507C135.997 89.5679 136.137 89.1918 136.124 88.8049C136.137 88.4177 135.997 88.0413 135.736 87.7582C135.474 87.4751 135.112 87.3085 134.729 87.2949H80.857C80.4741 87.3088 80.1122 87.4755 79.8507 87.7585C79.5892 88.0416 79.4493 88.4178 79.4617 88.8049C79.4497 89.1917 79.5897 89.5676 79.8512 89.8503C80.1127 90.1331 80.4743 90.2996 80.857 90.3135" fill="#FEEED3"/>
<path d="M45.396 67.2393H105.098C105.481 67.2268 105.844 67.0609 106.107 66.778C106.37 66.4951 106.51 66.1184 106.498 65.7307C106.511 65.3436 106.371 64.9673 106.109 64.6843C105.848 64.4013 105.486 64.2346 105.103 64.2207H45.396C45.0131 64.2346 44.6513 64.4013 44.3898 64.6843C44.1282 64.9673 43.9884 65.3436 44.0008 65.7307C43.9887 66.1175 44.1288 66.4934 44.3903 66.7761C44.6518 67.0588 45.0134 67.2254 45.396 67.2393" fill="#1D202A"/>
<path d="M112.427 120.595H134.736C135.119 120.581 135.481 120.415 135.742 120.131C136.004 119.848 136.144 119.472 136.131 119.085C136.143 118.698 136.004 118.322 135.742 118.039C135.48 117.756 135.119 117.59 134.736 117.576H112.427C112.044 117.59 111.682 117.756 111.421 118.039C111.159 118.323 111.019 118.699 111.032 119.086C111.02 119.473 111.16 119.849 111.421 120.132C111.683 120.415 112.045 120.581 112.427 120.595" fill="#3C4258"/>
<path d="M45.396 128.288H62.3597C62.7426 128.274 63.1044 128.107 63.3659 127.824C63.6275 127.541 63.7674 127.165 63.755 126.778C63.767 126.391 63.6269 126.015 63.3655 125.733C63.104 125.45 62.7423 125.283 62.3597 125.27H45.396C45.0131 125.283 44.6513 125.45 44.3898 125.733C44.1282 126.016 43.9884 126.392 44.0008 126.779C43.9887 127.166 44.1288 127.542 44.3903 127.825C44.6518 128.108 45.0134 128.274 45.396 128.288" fill="#FEEED3"/>
<path d="M69.7085 128.288H134.731C135.112 128.273 135.472 128.106 135.732 127.823C135.993 127.54 136.132 127.165 136.119 126.779C136.132 126.393 135.993 126.018 135.733 125.735C135.473 125.452 135.112 125.285 134.731 125.27H69.7085C69.3256 125.283 68.9638 125.45 68.7023 125.733C68.4407 126.016 68.3009 126.392 68.3133 126.779C68.3012 127.166 68.4413 127.542 68.7028 127.825C68.9643 128.108 69.3259 128.274 69.7085 128.288" fill="#FEEED3"/>
<path d="M45.396 135.978H134.732C135.115 135.964 135.477 135.797 135.739 135.514C136.001 135.231 136.14 134.855 136.128 134.468C136.14 134.081 136 133.705 135.739 133.422C135.477 133.139 135.115 132.973 134.732 132.959H45.396C45.0131 132.973 44.6513 133.14 44.3898 133.423C44.1282 133.706 43.9884 134.082 44.0008 134.469C43.9887 134.856 44.1288 135.232 44.3903 135.514C44.6518 135.797 45.0134 135.964 45.396 135.978" fill="#FEEED3"/>
<path d="M45.396 143.671H73.7935C74.1761 143.657 74.5378 143.49 74.7993 143.208C75.0608 142.925 75.2008 142.549 75.1888 142.162C75.2012 141.775 75.0613 141.399 74.7998 141.116C74.5382 140.833 74.1764 140.666 73.7935 140.652H45.396C45.0131 140.666 44.6513 140.833 44.3898 141.116C44.1282 141.399 43.9884 141.775 44.0008 142.162C43.9887 142.549 44.1288 142.925 44.3903 143.208C44.6518 143.49 45.0134 143.657 45.396 143.671" fill="#FEEED3"/>
<path d="M80.857 143.671H134.729C135.112 143.657 135.474 143.491 135.735 143.208C135.997 142.925 136.137 142.549 136.124 142.162C136.137 141.775 135.997 141.399 135.736 141.116C135.474 140.832 135.112 140.666 134.729 140.652H80.857C80.4741 140.666 80.1122 140.833 79.8507 141.116C79.5892 141.399 79.4493 141.775 79.4617 142.162C79.4497 142.549 79.5897 142.925 79.8512 143.208C80.1127 143.49 80.4743 143.657 80.857 143.671" fill="#FEEED3"/>
<path d="M45.396 120.595H105.098C105.481 120.582 105.844 120.416 106.107 120.133C106.37 119.851 106.51 119.474 106.498 119.086C106.511 118.699 106.371 118.323 106.109 118.04C105.848 117.757 105.486 117.59 105.103 117.576H45.396C45.0131 117.59 44.6513 117.757 44.3898 118.04C44.1282 118.323 43.9884 118.699 44.0008 119.086C43.9887 119.473 44.1288 119.849 44.3903 120.132C44.6518 120.414 45.0134 120.581 45.396 120.595" fill="#1D202A"/>
<path d="M112.427 174.923H134.736C135.119 174.909 135.481 174.743 135.742 174.46C136.004 174.177 136.144 173.8 136.131 173.413C136.143 173.026 136.004 172.65 135.742 172.367C135.48 172.084 135.119 171.918 134.736 171.904H112.427C112.044 171.918 111.682 172.084 111.421 172.368C111.159 172.651 111.019 173.027 111.032 173.414C111.02 173.801 111.16 174.177 111.421 174.46C111.683 174.743 112.045 174.909 112.427 174.923" fill="#1D202A"/>
<path d="M45.396 182.612H62.3597C62.7426 182.598 63.1044 182.432 63.3659 182.149C63.6275 181.866 63.7674 181.489 63.755 181.102C63.767 180.716 63.6269 180.34 63.3655 180.057C63.104 179.774 62.7423 179.608 62.3597 179.594H45.396C45.0131 179.608 44.6513 179.774 44.3898 180.057C44.1282 180.34 43.9884 180.717 44.0008 181.104C43.9887 181.491 44.1288 181.866 44.3903 182.149C44.6518 182.432 45.0134 182.598 45.396 182.612" fill="#FEEED3"/>
<path d="M69.7085 182.612H134.731C135.112 182.597 135.472 182.43 135.732 182.147C135.993 181.865 136.132 181.489 136.119 181.104C136.132 180.718 135.993 180.342 135.733 180.059C135.473 179.776 135.112 179.609 134.731 179.594H69.7085C69.3256 179.608 68.9638 179.774 68.7023 180.057C68.4407 180.34 68.3009 180.717 68.3133 181.104C68.3012 181.491 68.4413 181.866 68.7028 182.149C68.9643 182.432 69.3259 182.598 69.7085 182.612" fill="#FEEED3"/>
<path d="M45.396 190.302H134.732C135.115 190.288 135.477 190.122 135.739 189.839C136.001 189.555 136.14 189.179 136.128 188.792C136.14 188.405 136 188.029 135.739 187.746C135.477 187.463 135.115 187.297 134.732 187.283H45.396C45.0131 187.297 44.6513 187.464 44.3898 187.747C44.1282 188.03 43.9884 188.406 44.0008 188.793C43.9887 189.18 44.1288 189.556 44.3903 189.839C44.6518 190.121 45.0134 190.288 45.396 190.302" fill="#FEEED3"/>
<path d="M45.396 197.995H73.7935C74.1761 197.981 74.5378 197.815 74.7993 197.532C75.0608 197.249 75.2008 196.873 75.1888 196.487C75.2012 196.099 75.0613 195.723 74.7998 195.44C74.5382 195.157 74.1764 194.99 73.7935 194.977H45.396C45.0131 194.99 44.6513 195.157 44.3898 195.44C44.1282 195.723 43.9884 196.099 44.0008 196.487C43.9887 196.873 44.1288 197.249 44.3903 197.532C44.6518 197.815 45.0134 197.981 45.396 197.995" fill="#FEEED3"/>
<path d="M80.857 197.995H134.729C135.112 197.982 135.474 197.815 135.735 197.532C135.997 197.25 136.137 196.873 136.124 196.487C136.137 196.099 135.997 195.723 135.736 195.44C135.474 195.157 135.112 194.99 134.729 194.977H80.857C80.4741 194.99 80.1122 195.157 79.8507 195.44C79.5892 195.723 79.4493 196.099 79.4617 196.487C79.4497 196.873 79.5897 197.249 79.8512 197.532C80.1127 197.815 80.4743 197.981 80.857 197.995" fill="#FEEED3"/>
<path d="M45.396 174.923H105.098C105.481 174.91 105.844 174.744 106.107 174.462C106.37 174.179 106.51 173.802 106.498 173.414C106.511 173.027 106.371 172.651 106.109 172.368C105.848 172.085 105.486 171.918 105.103 171.904H45.396C45.0131 171.918 44.6513 172.085 44.3898 172.368C44.1282 172.651 43.9884 173.027 44.0008 173.414C43.9887 173.801 44.1288 174.177 44.3903 174.46C44.6518 174.742 45.0134 174.909 45.396 174.923" fill="#1D202A"/>
<path d="M142.97 30.2396V30.5126H164.299C164.442 30.5126 164.58 30.4551 164.681 30.3527C164.782 30.2503 164.839 30.1114 164.839 29.9665V8.39571C164.839 8.25087 164.782 8.11197 164.681 8.00956C164.58 7.90714 164.442 7.84961 164.299 7.84961H142.97C142.827 7.84961 142.689 7.90714 142.588 8.00956C142.487 8.11197 142.43 8.25087 142.43 8.39571V29.9529C142.43 30.0977 142.487 30.2366 142.588 30.339C142.689 30.4414 142.827 30.499 142.97 30.499V29.9665L142.955 29.9529V8.39571L142.97 8.38342H164.299L164.311 8.39571V29.9529L164.298 29.9665H142.97V30.2396" fill="#1D202A"/>
<path d="M142.97 85.3509V85.6239H164.299C164.442 85.6239 164.58 85.5664 164.681 85.464C164.782 85.3616 164.839 85.2227 164.839 85.0779V63.507C164.839 63.3622 164.782 63.2233 164.681 63.1209C164.58 63.0185 164.442 62.9609 164.299 62.9609H142.97C142.827 62.9609 142.689 63.0185 142.588 63.1209C142.487 63.2233 142.43 63.3622 142.43 63.507V85.0642C142.43 85.209 142.487 85.3479 142.588 85.4503C142.689 85.5528 142.827 85.6103 142.97 85.6103V85.0779L142.955 85.0642V63.507L142.97 63.4947H164.299L164.311 63.507V85.0642L164.298 85.0779H142.97V85.3509" fill="#1D202A"/>
<path d="M142.97 140.466V140.739H164.299C164.442 140.739 164.58 140.682 164.681 140.579C164.782 140.477 164.839 140.338 164.839 140.193V118.622C164.839 118.477 164.782 118.339 164.681 118.236C164.58 118.134 164.442 118.076 164.299 118.076H142.97C142.827 118.076 142.689 118.134 142.588 118.236C142.487 118.339 142.43 118.477 142.43 118.622V140.179C142.43 140.324 142.487 140.463 142.588 140.566C142.689 140.668 142.827 140.726 142.97 140.726V140.193L142.955 140.179V118.622L142.97 118.61H164.299L164.311 118.622V140.179L164.298 140.193H142.97V140.466" fill="#1D202A"/>
<path d="M142.97 195.576V195.849H164.299C164.442 195.849 164.58 195.791 164.681 195.689C164.782 195.586 164.839 195.447 164.839 195.302V173.732C164.839 173.587 164.782 173.448 164.681 173.345C164.58 173.243 164.442 173.186 164.299 173.186H142.97C142.827 173.186 142.689 173.243 142.588 173.345C142.487 173.448 142.43 173.587 142.43 173.732V195.289C142.43 195.434 142.487 195.573 142.588 195.675C142.689 195.777 142.827 195.835 142.97 195.835V195.302L142.955 195.289V173.732L142.97 173.719H164.299L164.311 173.732V195.289L164.298 195.302H142.97V195.576" fill="#1D202A"/>
<path d="M152.471 81.6888C152.227 81.6889 151.986 81.6344 151.765 81.5294C151.544 81.4244 151.349 81.2714 151.193 81.0813L142.944 71.0086C142.663 70.6658 142.529 70.2244 142.57 69.7813C142.611 69.3383 142.825 68.9299 143.164 68.646C143.503 68.3621 143.939 68.226 144.378 68.2676C144.816 68.3092 145.22 68.5252 145.501 68.8679L152.288 77.1562L166.94 53.7983C167.176 53.4247 167.55 53.1611 167.978 53.0651C168.407 52.9692 168.856 53.0486 169.226 53.2861C169.597 53.5237 169.86 53.8999 169.956 54.3326C170.053 54.7653 169.977 55.2192 169.744 55.595L153.873 80.9038C153.733 81.1278 153.542 81.315 153.317 81.45C153.092 81.5851 152.838 81.6641 152.576 81.6807H152.471" fill="#ED7700"/>
<path d="M152.471 136.579C152.227 136.579 151.986 136.524 151.765 136.419C151.544 136.314 151.349 136.161 151.193 135.971L142.945 125.899C142.805 125.729 142.701 125.533 142.636 125.323C142.572 125.112 142.549 124.891 142.57 124.671C142.611 124.228 142.824 123.819 143.163 123.535C143.502 123.251 143.939 123.115 144.378 123.157C144.816 123.198 145.22 123.414 145.501 123.757L152.289 132.046L166.94 108.687C167.177 108.313 167.55 108.05 167.979 107.954C168.407 107.858 168.856 107.937 169.227 108.175C169.597 108.412 169.86 108.789 169.957 109.221C170.054 109.654 169.977 110.108 169.744 110.484L153.873 135.794C153.733 136.018 153.542 136.204 153.317 136.339C153.092 136.474 152.838 136.554 152.576 136.571H152.471" fill="#ED7700"/>
<path d="M148.527 14.3769L151.256 0.653494C151.256 0.653494 154.349 -0.954761 154.021 0.874663C153.93 1.36615 151.996 13.4349 151.996 13.4349C152.123 13.8239 152.106 14.2465 151.947 14.6234C151.788 15.0004 151.499 15.3059 151.133 15.4827C149.806 16.134 149.047 16.2132 148.527 14.3769Z" fill="#1D202A"/>
<path d="M93.1767 135.626H93.1605C92.6054 135.581 92.1529 135.163 91.8098 134.385C91.3126 132.969 91.1098 131.465 91.2141 129.966C91.1742 128.746 91.4336 127.536 91.9692 126.442C92.6148 125.613 92.3947 118.997 92.1623 111.994C92.0192 107.361 91.8557 102.574 91.9759 99.6942C92.0299 97.389 92.5445 95.1186 93.4887 93.0196C94.9522 89.4591 95.8094 85.674 96.024 81.8246C97.1289 69.9552 98.1365 67.8131 100.171 65.7557C102.205 63.6983 109.674 60.7958 109.749 60.7671C109.823 60.7384 117.163 57.8045 120.24 57.8045C120.597 57.7819 120.955 57.8504 121.28 58.0038C121.689 58.2075 122.143 58.3015 122.598 58.2769C125.152 58.2769 129.583 56.4529 130.628 55.9655C132.844 54.1128 134.909 52.082 136.801 49.8929C138.409 48.1372 142.183 43.905 142.474 42.5206C142.96 40.2434 147.704 25.963 148.222 24.5117C148.518 23.6901 148.635 22.8142 148.567 21.9428C148.499 21.0714 148.247 20.2249 147.828 19.4603C147.362 18.7337 147.091 17.8964 147.043 17.0316C146.969 16.6409 146.981 16.2384 147.079 15.8529C147.176 15.4675 147.357 15.1087 147.608 14.8021C148.013 14.4499 148.218 14.3188 148.371 14.3188C148.572 14.3188 148.675 14.5564 148.861 14.9878C148.906 15.0916 148.956 15.2076 149.014 15.3346C149.083 15.5115 149.206 15.6622 149.364 15.7657C149.522 15.8692 149.708 15.9204 149.896 15.9121C150.517 15.8507 151.1 15.586 151.559 15.1585C152.13 14.6533 152.004 13.4178 151.937 12.7556C151.922 12.6027 151.91 12.4826 151.91 12.4075C151.91 12.2232 152.438 12.1836 152.881 12.1836C153.616 12.1853 154.349 12.2603 155.069 12.4075C155.718 12.5822 156.847 16.424 156.847 18.4514C156.847 19.8822 155.303 21.8536 154.063 23.4373C153.571 24.0653 153.107 24.6592 152.799 25.1397C152.258 25.9916 151.645 30.8492 151.001 35.9907C150.378 40.9629 149.734 46.103 149.144 47.3959C147.573 49.6402 145.796 51.7288 143.835 53.6337C140.017 57.7294 135.264 62.8395 133.739 66.1612C132.35 69.1838 132.118 72.7935 131.883 76.2831C131.817 79.2397 131.379 82.1758 130.579 85.0206C129.553 88.1006 120.288 101.438 112.118 112.527C103.646 124.024 94.5031 135.626 93.1767 135.626ZM101.844 87.8781C101.547 87.8781 101.367 87.889 101.366 87.8903C101.331 88.0733 97.7719 106.519 98.327 113.566C98.3851 114.308 98.5688 114.685 98.8673 114.685C100.133 114.685 103.268 108.09 105.567 101.715C106.509 99.1729 107.293 96.5739 107.913 93.9329C108.425 91.5765 108.444 90.1102 107.968 89.7129C106.177 88.4484 104.028 87.8046 101.844 87.8781V87.8781Z" fill="white"/>
<path d="M93.181 135.895H93.1445C92.9336 135.878 92.7289 135.815 92.5448 135.709C92.3614 135.602 92.1977 135.464 92.0613 135.3C91.7645 134.927 91.542 134.5 91.4062 134.042C91.0823 132.917 90.9275 131.748 90.9469 130.576C90.946 129.916 90.987 129.256 91.0698 128.601C91.1322 128.06 91.2471 127.527 91.4129 127.009C91.4927 126.75 91.6136 126.507 91.7709 126.288C91.8003 126.244 91.8235 126.195 91.8398 126.145C91.8728 126.043 91.8999 125.94 91.9208 125.836C91.981 125.501 92.0225 125.164 92.0451 124.824C92.1072 124.043 92.1383 122.996 92.1383 121.621C92.1383 118.959 92.0208 115.429 91.9073 112.014V111.942V111.904C91.7898 108.462 91.6709 104.901 91.6709 102.15C91.6709 101.181 91.6858 100.376 91.7155 99.693C91.7513 98.5749 91.8838 97.4621 92.1112 96.3672C92.2967 95.533 92.546 94.7146 92.8568 93.9194C92.9825 93.5876 93.1121 93.2668 93.2486 92.9255C93.8536 91.4904 94.3463 90.0096 94.7222 88.4966C95.2314 86.2956 95.58 84.0597 95.7649 81.8069C96.1701 77.4273 96.5673 74.3473 97.0116 72.1137C97.2717 70.4591 97.8007 68.8593 98.5771 67.3791C98.9657 66.716 99.4404 66.1085 99.9886 65.5729C100.311 65.2592 100.66 64.9755 101.033 64.725C101.423 64.452 101.888 64.1653 102.417 63.8636C103.295 63.3653 104.376 62.8178 105.633 62.2362C107.49 61.3802 109.167 60.714 109.635 60.531H109.646H109.661C109.796 60.4764 110.819 60.0709 112.165 59.5917C114.116 58.8968 115.819 58.363 117.23 58.0217C118.215 57.7499 119.226 57.5919 120.245 57.5507C120.462 57.5485 120.679 57.5659 120.892 57.6026C121.077 57.6329 121.255 57.6953 121.419 57.7869C121.574 57.872 121.741 57.931 121.915 57.9616C122.142 58.0037 122.372 58.0234 122.602 58.0203H122.613C123.751 57.9671 124.876 57.7637 125.962 57.4155C127.227 57.0524 128.447 56.5964 129.248 56.2756C129.83 56.0435 130.289 55.8441 130.524 55.7295C130.572 55.7065 130.617 55.6791 130.659 55.6475C130.727 55.5984 130.807 55.537 130.889 55.4701C131.067 55.3254 131.294 55.126 131.564 54.8776C132.087 54.3984 132.768 53.7348 133.536 52.9594C135.194 51.2829 136.996 49.3429 138.477 47.6349C139.628 46.3107 140.538 45.1871 141.179 44.2969C141.503 43.8643 141.794 43.408 142.051 42.9317C142.129 42.7882 142.188 42.6355 142.228 42.4771C142.275 42.2573 142.363 41.9392 142.473 41.531C142.582 41.1227 142.729 40.6435 142.895 40.0906C143.195 39.0954 143.595 37.8161 144.111 36.1806C144.9 33.7054 145.947 30.5012 146.908 27.6096C147.431 26.0355 147.832 24.8491 147.981 24.434C148.364 23.258 148.418 21.9979 148.136 20.7929C148.044 20.3735 147.87 19.9768 147.626 19.6257C147.336 19.2132 147.124 18.7504 147 18.2604C146.85 17.7247 146.772 17.1708 146.769 16.6139C146.764 16.2304 146.814 15.8481 146.919 15.4794C147.008 15.143 147.19 14.8391 147.443 14.6029C147.603 14.4664 147.72 14.3667 147.827 14.2903C147.926 14.2145 148.035 14.1517 148.15 14.1032C148.223 14.0726 148.3 14.0564 148.379 14.0555C148.444 14.0552 148.507 14.0677 148.567 14.0923C148.623 14.1163 148.675 14.1501 148.72 14.192C148.8 14.2709 148.866 14.3633 148.916 14.465C148.982 14.5893 149.044 14.7381 149.115 14.9005C149.16 15.0029 149.207 15.1122 149.26 15.2309C149.315 15.3653 149.409 15.4795 149.53 15.5586C149.643 15.6228 149.772 15.6549 149.902 15.6514C150.171 15.6388 150.434 15.5676 150.673 15.4426C150.932 15.3154 151.174 15.1543 151.391 14.9634C151.456 14.9049 151.51 14.835 151.551 14.7572C151.599 14.6636 151.636 14.5646 151.662 14.4623C151.719 14.2149 151.745 13.9613 151.74 13.7073C151.735 13.3915 151.715 13.0762 151.678 12.7626L151.668 12.6424C151.659 12.5482 151.653 12.4759 151.653 12.409C151.655 12.3302 151.681 12.254 151.729 12.1919C151.765 12.1426 151.811 12.1016 151.864 12.0718C151.953 12.0236 152.049 11.9904 152.148 11.9735C152.393 11.9318 152.642 11.9136 152.891 11.9189C153.504 11.9248 154.117 11.9745 154.724 12.0677C154.866 12.0887 155.007 12.117 155.146 12.1523C155.212 12.1711 155.274 12.2017 155.329 12.2424C155.378 12.2831 155.424 12.3289 155.464 12.3789C155.558 12.4884 155.64 12.6074 155.71 12.7339C155.891 13.0714 156.046 13.4235 156.17 13.7865C156.499 14.7196 156.751 15.6785 156.924 16.6535C157.038 17.2499 157.102 17.8551 157.113 18.4625C157.099 18.9164 156.997 19.3632 156.812 19.7772C156.607 20.2561 156.361 20.7161 156.077 21.152C155.537 21.9971 154.861 22.8585 154.267 23.619L154.098 23.8347C153.702 24.3412 153.288 24.8709 153.018 25.2928C152.961 25.3968 152.916 25.5066 152.883 25.6204C152.833 25.7679 152.777 25.9617 152.715 26.2129C152.604 26.6717 152.486 27.2778 152.361 28.0151C152.102 29.5591 151.837 31.551 151.612 33.2958C151.498 34.1832 151.382 35.1089 151.27 36.0045C150.871 39.1827 150.459 42.4689 150.064 44.742C149.906 45.6431 149.762 46.3202 149.627 46.8131C149.565 47.0524 149.485 47.2866 149.387 47.5134C149.213 47.8597 149.004 48.1872 148.764 48.491C148.494 48.8568 148.144 49.2828 147.705 49.792C146.869 50.7627 145.77 51.9518 144.622 53.1874L144.092 53.7553C141.849 56.1636 139.307 58.8941 137.27 61.4075C135.99 62.8952 134.886 64.5291 133.982 66.276C132.844 69.2175 132.242 72.3428 132.205 75.5009C132.186 75.7739 132.167 76.0502 132.149 76.3296C132.082 79.3023 131.639 82.2542 130.832 85.1136C130.687 85.5148 130.514 85.9049 130.314 86.2808C130.077 86.7437 129.773 87.2966 129.403 87.9191C128.695 89.1287 127.739 90.6496 126.567 92.4504C124.357 95.8239 121.387 100.13 117.979 104.903C111.075 114.57 103.526 124.539 98.75 130.296C97.2642 132.092 96.0486 133.473 95.1423 134.403C94.7527 134.818 94.3337 135.204 93.8888 135.558C93.7452 135.672 93.5877 135.767 93.4201 135.84C93.3443 135.873 93.2633 135.892 93.181 135.895V135.895ZM120.232 58.0763C119.33 58.1151 118.435 58.2524 117.563 58.4859C116.646 58.703 115.56 59.0129 114.335 59.4102C112.192 60.1037 110.292 60.8478 109.933 60.9911L109.852 61.0239L109.706 61.0826L109.637 61.1099L109.302 61.2464C108.807 61.4457 108.344 61.6382 107.889 61.8321C106.842 62.2772 105.287 62.9652 103.837 63.7161C102.973 64.1454 102.136 64.6287 101.331 65.1633C100.985 65.3953 100.661 65.658 100.361 65.9483C99.8452 66.4518 99.3982 67.023 99.0323 67.6467C98.5741 68.4736 98.2223 69.3563 97.9855 70.2734C97.1079 74.08 96.5409 77.953 96.2904 81.8534C96.0915 84.341 95.6848 86.8073 95.0747 89.2257C94.7137 90.5499 94.267 91.8488 93.7375 93.1139L93.6484 93.3596C93.3366 94.1011 93.0661 94.8595 92.8379 95.6314C92.4796 96.96 92.2801 98.3273 92.2436 99.7039C92.2153 100.387 92.2004 101.206 92.2004 102.148C92.2004 104.963 92.3247 108.66 92.4341 111.923V111.979C92.5475 115.4 92.665 118.942 92.665 121.62C92.6909 122.942 92.6341 124.265 92.4949 125.579C92.4655 125.828 92.4121 126.074 92.3355 126.312C92.3011 126.418 92.2505 126.517 92.1855 126.606C92.0668 126.779 91.9757 126.971 91.9154 127.173C91.8142 127.476 91.7361 127.788 91.6817 128.104C91.5419 128.918 91.4732 129.744 91.4764 130.571C91.4726 131.332 91.5336 132.092 91.6588 132.842C91.7494 133.463 91.9435 134.063 92.2328 134.617C92.3656 134.872 92.5633 135.087 92.8055 135.238C92.9208 135.305 93.0488 135.345 93.181 135.357V135.357L93.208 135.349C93.2441 135.337 93.2789 135.321 93.312 135.303C93.4304 135.237 93.5429 135.161 93.6484 135.076C94.0113 134.778 94.3564 134.459 94.6817 134.12C95.4799 133.301 96.5524 132.101 97.8666 130.532C100.298 127.629 103.54 123.523 107.214 118.655C114.517 109.004 122.342 98.0178 126.664 91.3199C128.015 89.2393 129.009 87.5928 129.635 86.4297C129.906 85.9502 130.14 85.4504 130.335 84.9347C131.128 82.1009 131.563 79.1769 131.628 76.2327V76.2217C131.645 75.9678 131.662 75.7134 131.679 75.4586C131.721 72.2329 132.34 69.0415 133.505 66.0384C134.048 64.9301 134.697 63.8784 135.444 62.8983C136.219 61.8376 137.159 60.6675 138.317 59.3228C140.032 57.3282 141.963 55.2612 143.656 53.4372L144.819 52.1867C146.026 50.8829 147.25 49.5381 148.047 48.5428C148.379 48.1536 148.668 47.7293 148.91 47.2773C148.977 47.1211 149.034 46.9605 149.079 46.7967C149.141 46.5823 149.203 46.3407 149.261 46.0799C149.38 45.5557 149.503 44.9017 149.638 44.0812C149.918 42.3829 150.199 40.2585 150.411 38.5861C150.522 37.7233 150.634 36.8277 150.742 35.9621C151.139 32.7866 151.552 29.5073 151.932 27.3898C152.032 26.7699 152.167 26.1563 152.337 25.5522C152.391 25.3536 152.471 25.1631 152.575 24.9856C152.891 24.4927 153.351 23.9057 153.839 23.2818C154.005 23.0688 154.175 22.8517 154.347 22.6305C155.021 21.8012 155.617 20.911 156.13 19.9711C156.397 19.5079 156.555 18.989 156.592 18.4543C156.573 17.714 156.482 16.9773 156.322 16.2549C156.16 15.4781 155.945 14.7135 155.679 13.9667C155.556 13.6047 155.4 13.2554 155.211 12.9237C155.161 12.8323 155.096 12.7501 155.018 12.6807L155.005 12.6725C154.921 12.6506 154.788 12.6233 154.641 12.6001C154.47 12.5728 154.283 12.5496 154.101 12.5291C153.677 12.4841 153.235 12.4581 152.885 12.4581C152.727 12.4581 152.59 12.4581 152.472 12.4731C152.376 12.4795 152.282 12.4937 152.188 12.5155V12.5155C152.188 12.5387 152.188 12.5646 152.196 12.5933C152.196 12.6534 152.209 12.723 152.217 12.7994V12.8076L152.225 12.895C152.248 13.1339 152.271 13.4138 152.271 13.7019C152.272 13.9264 152.255 14.1506 152.219 14.3722C152.186 14.5938 152.117 14.8084 152.014 15.007C151.945 15.1401 151.854 15.2599 151.744 15.3606C151.491 15.5837 151.209 15.7715 150.907 15.919C150.596 16.0791 150.255 16.1681 149.907 16.1798C149.68 16.1858 149.456 16.1287 149.259 16.0146C149.046 15.8808 148.879 15.6845 148.78 15.4521C148.724 15.3292 148.675 15.2173 148.633 15.1176L148.564 14.9606C148.522 14.8538 148.473 14.7499 148.417 14.6493C148.403 14.6262 148.387 14.6047 148.369 14.5852L148.34 14.5947C148.299 14.6125 148.259 14.634 148.221 14.6589C148.07 14.7629 147.925 14.8774 147.789 15.0016C147.612 15.1731 147.486 15.391 147.424 15.631C147.336 15.9494 147.293 16.2791 147.299 16.6098C147.302 17.1176 147.372 17.6227 147.508 18.1116C147.616 18.5363 147.799 18.9378 148.048 19.2966C148.338 19.7064 148.542 20.1706 148.651 20.6619C148.783 21.2093 148.848 21.7709 148.845 22.3343C148.853 23.1103 148.729 23.8818 148.479 24.6156C148.351 24.9733 148.016 25.9645 147.603 27.2096C147.174 28.4888 146.642 30.1012 146.063 31.8691C145.262 34.3266 143.81 38.8005 143.098 41.2552C142.922 41.8627 142.798 42.3269 142.74 42.5945C142.663 42.8832 142.545 43.1592 142.389 43.4136C142.176 43.7814 141.945 44.1382 141.696 44.4826C141.172 45.2198 140.448 46.1359 139.543 47.2049C138.014 49.0125 135.968 51.2419 134.071 53.1683C132.904 54.3533 131.932 55.2844 131.332 55.7909C131.163 55.9274 131.025 56.0407 130.913 56.1172C130.859 56.1542 130.803 56.1875 130.744 56.2169C130.415 56.3711 129.56 56.7411 128.448 57.1493C127.281 57.5891 126.087 57.9539 124.874 58.2415C124.13 58.4267 123.367 58.5293 122.601 58.5473C122.336 58.5502 122.072 58.5273 121.812 58.4791C121.58 58.4371 121.357 58.3564 121.152 58.2401C121.04 58.1813 120.919 58.1408 120.795 58.12C120.612 58.0895 120.428 58.0753 120.243 58.0777L120.232 58.0763ZM98.8729 114.956C98.7467 114.956 98.624 114.914 98.5231 114.838C98.4217 114.759 98.3403 114.657 98.2854 114.54C98.1549 114.24 98.0825 113.918 98.072 113.591C98.0328 113.085 98.0125 112.499 98.0125 111.868C98.0489 109.482 98.2108 107.099 98.4974 104.729C98.7554 102.398 99.1147 99.7462 99.5631 96.8492C100.328 91.9138 101.108 87.8618 101.114 87.8386L101.153 87.6365L101.357 87.6229C101.357 87.6229 101.539 87.6106 101.854 87.6106C102.802 87.6101 103.747 87.7103 104.674 87.9096C105.944 88.1491 107.136 88.6968 108.15 89.5055C108.238 89.5828 108.311 89.6753 108.367 89.7786C108.425 89.888 108.471 90.0039 108.502 90.124C108.569 90.4125 108.6 90.7083 108.594 91.0046C108.553 92.0824 108.402 93.1531 108.142 94.1992C107.862 95.443 107.466 96.8819 106.96 98.4752C105.941 101.666 104.758 104.801 103.414 107.867C102.693 109.548 101.875 111.185 100.962 112.769C100.626 113.363 100.229 113.919 99.7766 114.428C99.616 114.611 99.4226 114.762 99.2066 114.873C99.1029 114.926 98.9889 114.954 98.8729 114.956ZM101.845 88.1485H101.585L101.549 88.3424C101.496 88.6154 101.423 89.0072 101.339 89.4687C101.158 90.4653 100.915 91.8142 100.646 93.4183C100.149 96.3659 99.4632 100.732 99.0148 104.785C98.7299 107.135 98.5689 109.498 98.5325 111.864C98.5325 112.48 98.5528 113.045 98.592 113.545C98.6034 113.716 98.6282 113.886 98.6663 114.054C98.6868 114.153 98.7228 114.249 98.773 114.337C98.787 114.362 98.8058 114.384 98.8284 114.402C98.8396 114.412 98.8541 114.417 98.8689 114.416C98.8987 114.415 98.9281 114.408 98.9553 114.395C99.0101 114.374 99.0623 114.346 99.1107 114.312C99.2683 114.19 99.4115 114.05 99.5375 113.894C99.9546 113.377 100.327 112.825 100.65 112.244C101.659 110.439 102.561 108.575 103.352 106.663C105.205 102.416 106.675 98.0087 107.743 93.4948C107.927 92.6787 108.032 91.8466 108.058 91.01C108.06 90.8117 108.045 90.6135 108.015 90.4175C107.995 90.2871 107.956 90.1604 107.898 90.0421C107.875 89.9967 107.844 89.956 107.807 89.9219C106.859 89.1679 105.743 88.6586 104.557 88.4379C103.666 88.2469 102.759 88.1499 101.849 88.1485H101.845Z" fill="#1D202A"/>
<path d="M99.665 84.5818C96.7596 98.4731 94.4998 109.511 97.9928 118.826V114.102C97.9602 110.098 98.2175 106.096 98.7627 102.129C98.7627 102.129 101.71 83.7203 103.293 77.9808C104.504 73.5712 104.016 68.8616 101.929 64.8008C102.405 68.6268 102.503 72.4913 102.222 76.3371C101.786 80.3741 99.9892 83.0268 99.665 84.5818" fill="#FFF7EE"/>
<path d="M124.305 58.3427C124.305 58.3427 128.211 80.1019 118.775 82.8952C109.339 85.6885 107.805 76.9523 107.805 76.9523C107.805 76.9523 108.111 91.0635 123.428 85.9561C123.428 85.9561 130.522 76.809 128.608 70.4306C127.43 66.2194 126.883 61.8536 126.985 57.4785C126.985 57.4785 126.942 57.6997 124.308 58.3427" fill="#FFF7EE"/>
<path d="M99.3844 157.086C98.6195 160.8 98.1556 164.572 97.9972 168.363C97.8 174.251 103.43 194.712 103.626 198.808C103.822 202.903 103.626 209.088 103.626 209.088L113.204 207.391C113.204 207.391 108.76 202.203 108.86 192.418C108.96 182.634 110.154 156.287 110.154 156.287L99.3844 157.086Z" fill="white"/>
<path d="M99.3785 157.092L99.1205 157.028C98.3518 160.76 97.8856 164.549 97.7266 168.357C97.7266 168.461 97.7266 168.57 97.7266 168.683C97.7446 169.675 97.8236 170.665 97.9629 171.647C98.487 175.695 99.7959 181.613 100.995 186.968C101.594 189.645 102.166 192.178 102.599 194.261C102.813 195.301 102.996 196.228 103.127 197.004C103.238 197.605 103.316 198.211 103.36 198.821C103.427 200.178 103.448 201.77 103.448 203.292C103.448 204.814 103.427 206.257 103.4 207.325C103.389 207.857 103.378 208.297 103.368 208.601C103.368 208.754 103.368 208.874 103.359 208.954C103.35 209.033 103.359 209.077 103.359 209.077L103.348 209.406L113.707 207.571L113.4 207.216C112.509 206.06 111.776 204.788 111.22 203.434C109.795 200.054 109.08 196.412 109.121 192.739C109.121 192.634 109.121 192.527 109.121 192.422C109.17 187.54 109.491 178.506 109.797 170.697C109.951 166.794 110.102 163.188 110.215 160.571C110.271 159.259 110.318 158.191 110.35 157.453C110.368 157.083 110.38 156.795 110.388 156.599C110.396 156.404 110.402 156.302 110.402 156.302L110.423 156L99.1637 156.836L99.1205 157.028L99.3785 157.092L99.3987 157.358L110.163 156.554L110.142 156.288L109.883 156.273C109.883 156.273 109.587 162.86 109.279 170.671C108.971 178.481 108.648 187.515 108.604 192.412C108.604 192.52 108.604 192.629 108.604 192.736C108.557 196.526 109.301 200.284 110.788 203.764C111.354 205.126 112.099 206.404 113.003 207.565L113.203 207.392L113.158 207.127L103.579 208.824L103.625 209.087L103.895 209.096C103.895 209.096 103.983 206.341 103.983 203.292C103.983 201.766 103.961 200.166 103.895 198.794C103.838 198.046 103.737 197.303 103.593 196.568C103.005 193.264 101.671 187.657 100.486 182.184C99.8931 179.453 99.3366 176.749 98.9287 174.393C98.5585 172.51 98.3332 170.601 98.2547 168.683C98.2547 168.575 98.2547 168.473 98.2547 168.375C98.3585 165.757 98.6151 163.147 99.0232 160.56C99.1826 159.522 99.3366 158.666 99.4501 158.072C99.5068 157.775 99.5541 157.543 99.5851 157.39C99.6027 157.311 99.6149 157.253 99.623 157.211C99.6311 157.169 99.6365 157.151 99.6365 157.151L99.3785 157.092L99.3987 157.358L99.3785 157.092Z" fill="#1D202A"/>
<path d="M116.07 160.48C116.07 160.48 112.218 169.462 114.391 196.709C114.391 196.709 115.202 207.689 114.899 210.282C114.597 212.876 122.587 206.596 122.587 206.596C122.587 206.596 119.722 202.697 122.094 192.918C124.466 183.139 129.302 157.285 129.302 157.285L116.065 160.48" fill="white"/>
<path d="M116.069 160.479L115.826 160.373C115.808 160.415 113.461 165.916 113.461 181.279C113.461 185.612 113.647 190.73 114.125 196.731C114.125 196.731 114.135 196.851 114.151 197.072C114.207 197.842 114.344 199.82 114.469 202.044C114.593 204.268 114.704 206.736 114.704 208.483C114.712 209.075 114.689 209.667 114.635 210.257C114.628 210.314 114.624 210.371 114.624 210.428C114.624 210.532 114.642 210.636 114.677 210.734C114.703 210.807 114.742 210.876 114.791 210.936C114.863 211.022 114.956 211.088 115.062 211.126C115.165 211.162 115.274 211.179 115.383 211.178C115.689 211.162 115.99 211.093 116.273 210.974C116.957 210.694 117.616 210.354 118.242 209.958C119.796 208.984 121.3 207.93 122.748 206.802L122.952 206.641L122.798 206.431L122.742 206.473L122.798 206.432L122.742 206.474L122.798 206.433C122.785 206.412 121.418 204.522 121.417 200.044C121.446 197.661 121.759 195.29 122.349 192.983C123.536 188.082 125.336 179.174 126.844 171.487C128.351 163.801 129.56 157.339 129.56 157.339L129.636 156.93L115.879 160.251L115.826 160.373L116.069 160.479L116.13 160.739L129.367 157.545L129.301 157.285L129.04 157.236L128.986 157.528C128.716 158.965 127.481 165.506 126.04 172.833C124.599 180.161 122.944 188.277 121.835 192.852C121.237 195.202 120.919 197.615 120.89 200.041C120.89 204.698 122.345 206.71 122.376 206.749L122.588 206.59L122.426 206.379L122.365 206.427C122.062 206.661 120.681 207.726 119.181 208.728C118.468 209.215 117.73 209.663 116.97 210.072C116.669 210.232 116.358 210.373 116.039 210.494C115.832 210.578 115.612 210.628 115.388 210.642C115.343 210.644 115.297 210.638 115.253 210.626C115.225 210.62 115.201 210.603 115.184 210.58C115.159 210.531 115.149 210.476 115.153 210.421C115.151 210.386 115.151 210.35 115.153 210.315C115.21 209.706 115.234 209.094 115.226 208.483C115.226 206.465 115.08 203.52 114.937 201.075C114.794 198.63 114.654 196.691 114.654 196.69C114.175 190.699 113.989 185.6 113.989 181.279C113.911 175.887 114.302 170.499 115.156 165.176C115.36 163.986 115.627 162.809 115.956 161.648C116.064 161.277 116.154 161.008 116.216 160.829C116.247 160.741 116.272 160.677 116.288 160.636L116.307 160.593V160.582L116.069 160.479L116.13 160.739L116.069 160.479Z" fill="#1D202A"/>
<path d="M113.8 30.9297C116.137 32.2122 118.005 34.218 119.131 36.6528C119.455 37.2203 119.969 37.6526 120.579 37.8719C121.633 38.272 124.529 38.7593 124.529 39.158C124.529 39.5566 123.131 41.0202 123.131 41.0202C123.131 41.0202 124.579 45.4122 123.789 46.5658C122.999 47.7194 117.65 52.7872 117.552 53.1831C117.455 53.579 104.715 46.4934 108.003 40.4454C109.751 37.1626 111.687 33.9854 113.8 30.9297" fill="white"/>
<path d="M113.798 30.9269L113.69 31.1699L113.706 31.1289L113.688 31.1699L113.706 31.1289L113.688 31.1699C114.349 31.5085 114.967 31.9276 115.528 32.4177C116.934 33.6182 118.08 35.0995 118.893 36.7687L119.129 36.65L118.891 36.766C118.991 36.9566 119.116 37.1329 119.263 37.2903C119.599 37.6611 120.018 37.9457 120.485 38.1203C120.767 38.2268 121.15 38.3333 121.574 38.4425C122.207 38.605 122.924 38.7743 123.481 38.9367C123.706 38.9982 123.927 39.0748 124.143 39.1661C124.194 39.188 124.242 39.216 124.287 39.2494V39.2494L124.351 39.1879L124.272 39.2262C124.276 39.2346 124.281 39.2424 124.287 39.2494L124.351 39.1879L124.272 39.2262L124.425 39.1511H124.256C124.256 39.1772 124.262 39.2029 124.274 39.2262L124.426 39.1511H124.33L124.259 39.1429V39.1511H124.332L124.26 39.1429H124.287H124.26H124.287H124.26V39.1524C124.242 39.2061 124.217 39.2574 124.187 39.3054C124.091 39.4651 123.983 39.618 123.866 39.7627C123.667 40.0166 123.432 40.2856 123.249 40.4877C123.157 40.59 123.077 40.6761 123.02 40.7361L122.955 40.8058L122.931 40.8303L122.82 40.9464L122.87 41.102L122.88 41.1321C122.927 41.2795 123.15 41.9703 123.353 42.8222C123.581 43.6812 123.715 44.563 123.751 45.4517C123.754 45.648 123.738 45.8442 123.702 46.0374C123.682 46.1699 123.636 46.297 123.567 46.4114C123.422 46.6117 123.266 46.8031 123.099 46.9848C122.715 47.4163 122.169 47.9869 121.567 48.6054C120.662 49.5324 119.629 50.5645 118.811 51.4C118.406 51.8164 118.047 52.1837 117.789 52.469C117.654 52.6055 117.554 52.7311 117.474 52.8281C117.435 52.8772 117.401 52.9209 117.374 52.9646C117.36 52.9857 117.347 53.0075 117.335 53.0301C117.319 53.0592 117.307 53.0905 117.3 53.123V53.123L117.54 53.1844L117.358 53.0151C117.33 53.0455 117.31 53.0826 117.3 53.123L117.54 53.1844L117.358 53.0151L117.534 53.1776L117.469 52.9455C117.426 52.9583 117.388 52.9823 117.358 53.0151L117.534 53.1776L117.469 52.9455L117.52 53.1325V52.9373C117.503 52.9372 117.485 52.94 117.469 52.9455L117.52 53.1325V53.0397L117.531 52.9387H117.513V53.0411L117.524 52.94V52.9564V52.94V52.9564V52.94C117.502 52.9339 117.481 52.9256 117.461 52.9155C117.359 52.8807 117.259 52.8401 117.162 52.7939C116.361 52.3995 115.586 51.9507 114.844 51.4505C113.13 50.3408 111.555 49.0251 110.153 47.5323C109.465 46.7934 108.875 45.9674 108.397 45.0749C107.976 44.2982 107.745 43.4307 107.723 42.5451C107.724 41.8531 107.9 41.1728 108.235 40.5696C109.876 37.5483 111.323 35.1755 112.356 33.5577C112.874 32.7495 113.287 32.1296 113.572 31.7132C113.707 31.5044 113.823 31.3474 113.898 31.2422L113.983 31.1221L114.01 31.0839L113.798 30.9269L113.69 31.1699L113.798 30.9269L113.583 30.7685C111.466 33.8333 109.527 37.0196 107.775 40.3115C107.396 40.9939 107.197 41.7628 107.195 42.5451C107.204 43.2596 107.348 43.9658 107.619 44.6257C108.16 45.8762 108.919 47.0177 109.862 47.9951C111.265 49.4747 112.835 50.7825 114.54 51.8915C115.275 52.3762 115.934 52.7653 116.442 53.0342C116.696 53.1708 116.91 53.2731 117.083 53.3469C117.169 53.3824 117.243 53.4124 117.309 53.4342C117.341 53.445 117.373 53.4541 117.405 53.4615C117.44 53.4694 117.476 53.4736 117.512 53.4738C117.559 53.4751 117.605 53.4658 117.647 53.4465C117.686 53.4291 117.72 53.403 117.748 53.3701C117.775 53.3372 117.795 53.2985 117.805 53.2568V53.2568L117.658 53.2199L117.793 53.2868C117.798 53.2773 117.802 53.2672 117.804 53.2568L117.657 53.2199L117.792 53.2868L117.766 53.2568L117.796 53.2731L117.766 53.2568L117.796 53.2731C117.796 53.2731 117.804 53.2581 117.817 53.239C117.831 53.2199 117.894 53.1407 117.952 53.0656C118.194 52.783 118.653 52.3038 119.209 51.7372C120.042 50.8867 121.1 49.8259 122.015 48.8907C122.475 48.4211 122.897 47.9787 123.24 47.6047C123.411 47.4176 123.563 47.247 123.69 47.0968C123.799 46.9733 123.9 46.8439 123.994 46.7091C124.106 46.5358 124.182 46.3411 124.217 46.137C124.259 45.9088 124.279 45.677 124.276 45.4448C124.268 44.9539 124.22 44.4644 124.133 43.9813C123.945 42.9474 123.69 41.9272 123.369 40.9273L123.118 41.0119L123.307 41.1989C123.307 41.1989 123.663 40.8276 124.02 40.4044C124.197 40.1984 124.364 39.9834 124.52 39.76C124.586 39.665 124.645 39.5656 124.698 39.4624C124.722 39.4154 124.741 39.3665 124.757 39.3163C124.776 39.2627 124.785 39.2064 124.786 39.1497C124.785 39.1012 124.774 39.0534 124.755 39.0091C124.723 38.942 124.677 38.8831 124.62 38.8371C124.521 38.7614 124.413 38.6998 124.298 38.6541C124.034 38.5458 123.763 38.4546 123.488 38.3811C123.014 38.2446 122.457 38.108 121.942 37.9838C121.428 37.8596 120.955 37.7271 120.665 37.6179C120.277 37.4719 119.929 37.2352 119.649 36.9271C119.566 36.8369 119.491 36.7396 119.425 36.6363C119.4 36.6008 119.386 36.5721 119.375 36.553L119.364 36.5326L119.296 36.5667L119.364 36.5339L119.296 36.568L119.364 36.5353C118.514 34.7881 117.314 33.2389 115.84 31.9863C115.251 31.4724 114.601 31.0349 113.904 30.6839L113.71 30.5938L113.583 30.7685L113.798 30.9255" fill="#1D202A"/>
<path d="M115.924 34.916C115.538 37.5948 114.958 40.2414 114.189 42.8344C113.367 44.8304 115.77 49.688 119.322 50.7856L116.823 53.5502C116.823 53.5502 107.706 47.1623 110.532 41.0077C113.357 34.8532 115.924 34.916 115.924 34.916Z" fill="#FFF7EE"/>
<path d="M98.6797 162.741C98.6797 162.741 104.516 165.89 109.476 164.03L109.872 160.083L99.2943 158.705L98.6797 162.741Z" fill="#FFF7EE"/>
<path d="M116.169 160.943C116.169 160.943 115.445 163.462 115.246 164.616C115.246 164.616 118.083 168.262 127.524 164.968L128.314 160.943H116.169Z" fill="#FFF7EE"/>
<path d="M115.664 30.3291C115.865 30.357 116.057 30.4288 116.228 30.5397C116.398 30.6505 116.543 30.7976 116.652 30.9708C116.76 31.1439 116.83 31.3389 116.856 31.5422C116.883 31.7454 116.865 31.952 116.804 32.1476C116.408 33.6998 113.689 41.6401 112.284 43.6811C110.88 45.7222 115.575 52.9525 122.158 56.012C122.158 56.012 116.596 65.8595 107.461 62.0013C98.3261 58.1431 95.3045 68.7893 95.0344 55.8809C94.7643 42.9726 99.4242 24.2073 115.664 30.3291Z" fill="#1D202A"/>
<path d="M102.095 64.3601C102.808 66.5474 103.312 68.799 103.598 71.0839C103.96 74.4437 103.796 80.7061 100.701 84.7581C100.701 84.7581 102.762 93.4752 102.26 96.5347C102.26 96.5347 93.46 127.741 89.9062 156.286C92.9317 156.389 95.8611 157.385 98.332 159.153C101.755 161.948 123.481 162.879 130.062 161.283C136.642 159.687 147.31 155.554 147.31 155.554C147.31 155.554 140.068 113.103 130.719 96.8678C130.719 96.8678 131.904 84.2257 132.365 80.433C132.643 78.5841 132.731 76.711 132.628 74.8437C132.628 74.8437 129.995 75.3762 129.534 69.6558C129.072 63.9355 128.909 56.686 128.909 56.686C128.909 56.686 129.138 56.3597 127.932 56.686C126.725 57.0123 125.946 57.0956 126.041 57.3687C126.135 57.6417 129.443 79.3927 121.059 83.0748C112.675 86.7568 108.639 80.9013 107.892 75.4008C107.165 71.1869 106.039 67.0532 104.532 63.0563C104.532 63.0563 104.432 62.719 104.185 62.7709C103.937 62.8228 101.591 63.7443 102.09 64.3642" fill="#005994"/>
<path d="M102.092 64.3613L101.842 64.4473L101.854 64.4841C102.555 66.6411 103.05 68.8612 103.332 71.1137C103.423 71.9913 103.468 72.8731 103.467 73.7555C103.475 75.6208 103.27 77.4808 102.855 79.2984C102.441 81.212 101.635 83.0166 100.488 84.5955L100.407 84.6952L100.437 84.8194L100.456 84.8972C100.545 85.2822 100.949 87.0461 101.33 89.1418C101.52 90.1889 101.705 91.3193 101.842 92.4006C101.976 93.3789 102.052 94.3646 102.067 95.3522C102.072 95.7337 102.047 96.1149 101.992 96.4922L102.252 96.5359L101.998 96.4622C101.998 96.4622 93.1972 127.676 89.638 156.253L89.6016 156.551H89.8974H89.9095C90.9271 156.592 91.9386 156.729 92.9311 156.96C94.8302 157.35 96.6181 158.166 98.1624 159.349C98.5566 159.648 98.9927 159.885 99.4564 160.054C100.656 160.49 101.891 160.817 103.148 161.03C108.651 161.925 114.218 162.356 119.791 162.316C121.931 162.316 123.961 162.253 125.735 162.123C127.21 162.04 128.677 161.843 130.123 161.534C133.432 160.731 137.748 159.299 141.241 158.066C144.734 156.833 147.399 155.8 147.4 155.8L147.604 155.721L147.567 155.503C147.567 155.503 145.756 144.883 142.774 132.232C141.288 125.906 139.501 119.072 137.506 112.799C135.862 107.231 133.664 101.847 130.947 96.727L130.72 96.8636L130.983 96.8895L131.035 96.3434C131.151 95.1079 131.448 91.9664 131.768 88.7199C132.088 85.4734 132.426 82.119 132.627 80.467C132.819 78.9902 132.921 77.503 132.935 76.0136C132.935 75.2177 132.893 74.8258 132.892 74.8149L132.861 74.5268L132.579 74.5828L132.602 74.6989L132.581 74.5828L132.604 74.6989L132.584 74.5828C132.542 74.5887 132.5 74.5914 132.457 74.591C132.267 74.5892 132.079 74.5502 131.903 74.4763C131.38 74.2341 130.956 73.8151 130.705 73.2913C130.153 72.1497 129.846 70.9036 129.802 69.6338C129.572 66.7791 129.415 63.5394 129.318 61.0151C129.269 59.7522 129.233 58.6696 129.211 57.9009C129.2 57.5159 129.192 57.2183 129.187 57.0026C129.182 56.7869 129.178 56.6831 129.178 56.6831H128.907L129.122 56.8388C129.135 56.8197 129.147 56.7996 129.157 56.7787C129.177 56.7321 129.188 56.682 129.188 56.6313C129.188 56.5738 129.173 56.5174 129.145 56.4674C129.122 56.4266 129.091 56.3913 129.053 56.3637C129.005 56.3278 128.95 56.3031 128.891 56.2913C128.835 56.2784 128.777 56.2725 128.72 56.2736C128.428 56.2892 128.14 56.341 127.861 56.4278C127.299 56.5807 126.83 56.679 126.484 56.7746C126.333 56.8112 126.187 56.8633 126.047 56.9302C125.981 56.9644 125.922 57.0107 125.872 57.0668C125.842 57.0977 125.818 57.1337 125.801 57.1733C125.78 57.2202 125.77 57.2708 125.77 57.3221C125.77 57.3688 125.779 57.415 125.795 57.4586V57.4586L125.966 57.3944L125.789 57.4395C125.789 57.4395 125.789 57.4395 125.789 57.4586L125.959 57.3944L125.782 57.4395C125.782 57.4395 125.782 57.4709 125.797 57.5146C125.826 57.6798 125.886 58.0607 125.956 58.6177C126.308 61.4011 126.488 64.2039 126.496 67.0098C126.559 70.2435 126.189 73.4709 125.398 76.6047C125.037 77.9702 124.461 79.2682 123.692 80.4493C123.019 81.4874 122.069 82.3116 120.952 82.8262C119.458 83.5276 117.838 83.9115 116.192 83.9538C115.063 83.9673 113.948 83.712 112.935 83.2084C111.546 82.4729 110.404 81.338 109.653 79.9469C108.868 78.5289 108.358 76.9724 108.151 75.361C107.713 72.5523 107.054 69.7834 106.18 67.0808C105.431 64.6753 104.775 62.9578 104.774 62.9551L104.528 63.0506L104.781 62.9728C104.757 62.8958 104.723 62.8227 104.678 62.7557C104.637 62.6898 104.583 62.6324 104.52 62.5864C104.464 62.5455 104.4 62.5168 104.333 62.5022C104.265 62.4876 104.195 62.4875 104.127 62.5018L104.181 62.7639L104.13 62.5018C104.101 62.5076 104.072 62.5154 104.043 62.525C103.929 62.5605 103.745 62.6288 103.522 62.7243C103.144 62.8819 102.779 63.0724 102.433 63.2936C102.268 63.398 102.117 63.5227 101.982 63.665C101.92 63.7321 101.867 63.8074 101.824 63.8889C101.78 63.9779 101.758 64.0761 101.758 64.1756C101.757 64.2394 101.768 64.3029 101.79 64.3626C101.813 64.423 101.845 64.4792 101.885 64.5292L102.09 64.3613L101.84 64.4473L102.09 64.3613L102.298 64.192L102.289 64.177C102.289 64.1697 102.289 64.1624 102.289 64.1551C102.311 64.1044 102.342 64.0581 102.381 64.0186C102.511 63.8895 102.656 63.7767 102.813 63.6827C103.099 63.5129 103.396 63.3637 103.703 63.2363C103.838 63.1762 103.973 63.1271 104.065 63.0902L104.185 63.0479L104.223 63.037H104.234V63.0083V63.0383V63.0097V62.996L104.219 63.0356H104.234V62.9865L104.219 63.0261V63.0056L104.208 63.0233V63.0028L104.197 63.0206C104.214 63.0379 104.228 63.0577 104.238 63.0793C104.246 63.0943 104.253 63.1093 104.257 63.1175V63.1271L104.392 63.082L104.257 63.1244L104.392 63.0793L104.257 63.1216V63.1312V63.1421L104.287 63.2186C104.431 63.6008 105.086 65.3743 105.793 67.6925C106.592 70.2195 107.198 72.8052 107.604 75.4265C107.869 77.6728 108.737 79.8032 110.112 81.5879C110.812 82.4602 111.687 83.1734 112.679 83.6808C113.765 84.2209 114.961 84.4954 116.171 84.4822C117.89 84.4404 119.582 84.0412 121.142 83.3094C122.35 82.7554 123.378 81.8669 124.107 80.7469C125.304 78.8205 126.092 76.6639 126.422 74.4135C126.832 71.9655 127.027 69.4857 127.006 67.003C127.006 64.4186 126.835 62.0281 126.66 60.2669C126.571 59.3877 126.483 58.6655 126.413 58.1535C126.377 57.8982 126.346 57.6948 126.322 57.5514C126.341 57.4886 126.325 57.4313 126.317 57.389C126.309 57.3466 126.317 57.3494 126.306 57.333V57.3084C126.306 57.2989 126.306 57.292 126.295 57.2729L126.16 57.3248H126.303C126.302 57.306 126.297 57.2875 126.29 57.2702L126.155 57.3221H126.138L126.286 57.3862C126.294 57.366 126.299 57.3442 126.299 57.3221H126.138L126.286 57.3862L126.174 57.3371L126.265 57.419C126.273 57.4094 126.28 57.3989 126.286 57.3876L126.174 57.3371L126.265 57.419L126.225 57.3849L126.261 57.4245L126.221 57.3903L126.257 57.4299C126.305 57.3989 126.357 57.375 126.411 57.3589C126.546 57.3098 126.769 57.2552 127.039 57.1896C127.309 57.1241 127.631 57.0531 127.994 56.9507C128.229 56.8766 128.471 56.8307 128.716 56.8142C128.745 56.8142 128.763 56.8142 128.768 56.8142L128.776 56.7801L128.772 56.8101L128.78 56.776L128.772 56.8101L128.826 56.6586L128.702 56.7541C128.72 56.7791 128.744 56.7985 128.772 56.8101L128.826 56.6586L128.702 56.7541L128.861 56.6299H128.66C128.66 56.6746 128.674 56.7182 128.701 56.7541L128.86 56.6299H128.83L128.675 56.5603C128.664 56.5823 128.659 56.6067 128.66 56.6313H128.832L128.675 56.5603L128.832 56.6313L128.697 56.5316C128.69 56.541 128.685 56.551 128.68 56.5616L128.837 56.6326L128.702 56.533L128.637 56.604V56.6927C128.637 56.6927 128.799 63.9421 129.263 69.6761C129.324 70.6671 129.508 71.6463 129.811 72.5909C130.047 73.427 130.537 74.1666 131.213 74.7043C131.572 74.9717 132.003 75.1196 132.449 75.1276C132.525 75.1283 132.601 75.1219 132.676 75.1084L132.625 74.8463L132.361 74.8764C132.361 74.9118 132.402 75.2859 132.402 76.0136C132.388 77.4811 132.286 78.9464 132.098 80.4015C131.867 82.3033 131.455 86.4085 131.101 90.0483C130.747 93.688 130.451 96.8445 130.451 96.8445L130.443 96.9305L130.486 97.0056C133.184 102.092 135.366 107.441 136.998 112.972C139.983 122.351 142.498 133.01 144.262 141.328C145.146 145.485 145.84 149.055 146.317 151.585C146.553 152.852 146.735 153.856 146.857 154.545C146.919 154.889 146.965 155.154 146.992 155.333L147.038 155.606L147.3 155.561L147.206 155.311L147.085 155.357C146.49 155.585 143.752 156.63 140.395 157.804C137.039 158.978 133.059 160.279 129.995 161.023C128.577 161.328 127.137 161.522 125.69 161.603C123.934 161.732 121.917 161.794 119.789 161.794C115.415 161.8 111.044 161.549 106.699 161.045C104.946 160.843 103.206 160.539 101.488 160.133C100.861 159.982 100.245 159.791 99.6428 159.561C99.2299 159.412 98.8408 159.203 98.4879 158.94C96.8353 157.673 94.9164 156.806 92.8797 156.409C91.8997 156.188 90.902 156.058 89.8987 156.019V156.293L90.1608 156.325C91.9821 142.69 94.4873 129.156 97.6667 115.778C98.989 110.086 100.199 105.294 101.083 101.926C101.523 100.241 101.88 98.9114 102.127 98.0035C102.251 97.5489 102.347 97.2008 102.412 96.966C102.477 96.7311 102.51 96.6096 102.51 96.6096V96.5946V96.5796C102.571 96.173 102.599 95.7621 102.594 95.3509C102.575 94.2666 102.489 93.1845 102.336 92.1112C101.873 88.5957 100.952 84.6993 100.95 84.6938L100.692 84.7566L100.903 84.9191C102.095 83.2815 102.934 81.4089 103.364 79.4226C103.791 77.5642 104.001 75.6619 103.992 73.7541C103.995 72.8522 103.95 71.9507 103.857 71.0537C103.569 68.7498 103.061 66.4793 102.342 64.2739L102.327 64.2288L102.298 64.192L102.093 64.3613" fill="#1D202A"/>
<path d="M103.937 71.5273C103.937 71.5273 105.2 79.8116 104.274 85.5989C103.347 91.3861 105.037 96.4826 109.87 97.6772C114.703 98.8718 121.047 98.9209 128.687 97.4997C128.687 97.4997 125.182 100.171 109.87 100.87C94.5581 101.569 110.334 161.913 115.381 161.662C111.616 161.537 107.862 161.2 104.135 160.654C98.0457 159.756 98.9331 158.63 97.2879 158.093C95.1348 156.807 92.6951 156.092 90.1953 156.014C90.1953 156.014 91.7689 144.717 92.3402 142.162C92.3402 142.162 94.9741 126.269 97.0367 119.09C97.0367 119.09 100.857 102.524 101.764 99.493L102.472 96.7625C102.58 92.7346 102.085 88.7134 101.001 84.8357C101.001 84.8357 104.695 80.1106 103.937 71.5273Z" fill="#005994"/>
<path d="M102.197 96.7941C106.987 97.8468 111.855 98.4921 116.752 98.7231C116.791 98.7335 116.832 98.7349 116.872 98.7272C116.912 98.7194 116.949 98.7027 116.982 98.6783C117.014 98.6538 117.041 98.6223 117.06 98.5861C117.079 98.5498 117.089 98.5098 117.091 98.4689C117.092 98.4279 117.084 98.3872 117.068 98.3497C117.052 98.3122 117.028 98.2788 116.997 98.2521C116.966 98.2254 116.93 98.206 116.891 98.1954C116.852 98.1847 116.811 98.1831 116.771 98.1907C113.424 98.0469 110.09 97.694 106.786 97.134C105.437 96.9115 104.319 96.6944 103.538 96.5388C103.146 96.4555 102.841 96.3899 102.633 96.3449L102.397 96.2916L102.316 96.2725C102.279 96.2558 102.239 96.2474 102.199 96.2481C102.159 96.2487 102.12 96.2584 102.084 96.2763C102.048 96.2942 102.017 96.32 101.992 96.3517C101.967 96.3834 101.949 96.4204 101.94 96.4598C101.932 96.4992 101.931 96.5402 101.94 96.5797C101.948 96.6192 101.966 96.6563 101.99 96.6883C102.015 96.7203 102.046 96.7464 102.082 96.7647C102.117 96.783 102.157 96.793 102.197 96.7941" fill="white"/>
<path d="M119.966 98.7303C119.966 98.7303 120.331 98.7535 120.955 98.7535C124.304 98.7574 127.631 98.2049 130.803 97.118C130.843 97.1126 130.881 97.0983 130.915 97.0761C130.949 97.0538 130.977 97.0242 130.998 96.9894C131.019 96.9546 131.032 96.9155 131.036 96.8749C131.04 96.8344 131.035 96.7934 131.022 96.7551C131.008 96.7167 130.986 96.6819 130.958 96.6532C130.929 96.6246 130.894 96.6027 130.856 96.5894C130.818 96.576 130.777 96.5714 130.737 96.5759C130.697 96.5804 130.659 96.594 130.625 96.6156C127.51 97.6815 124.243 98.2234 120.955 98.2197C120.65 98.2197 120.414 98.2197 120.247 98.2088L120.061 98.2006H120.015H120C119.961 98.1895 119.92 98.1874 119.88 98.1943C119.84 98.2013 119.803 98.2172 119.77 98.2409C119.737 98.2645 119.71 98.2954 119.69 98.3311C119.67 98.3668 119.659 98.4065 119.657 98.4473C119.654 98.4881 119.661 98.5288 119.676 98.5666C119.692 98.6044 119.715 98.6383 119.745 98.6657C119.775 98.6931 119.811 98.7134 119.849 98.7251C119.888 98.7367 119.929 98.7394 119.969 98.733" fill="white"/>
<path d="M121.751 250.859L116.451 247.976C116.451 247.963 116.47 246.583 116.49 244.552L98.8082 236.6V242.171L94.5723 239.791V239.761C94.5197 238.035 94.0766 222.738 94.5723 217.035C95.0681 211.333 96.0959 211.18 96.2054 211.18H96.2175L121.746 215.947V250.856L121.751 250.859ZM100.456 219.371C100.264 219.365 100.073 219.401 99.896 219.476C99.7189 219.551 99.5598 219.664 99.4295 219.807C98.9529 220.542 98.7341 221.417 98.8082 222.293V232.6L116.521 240.655C116.558 235.592 116.575 229.242 116.45 227.746C116.234 225.158 113.32 223.855 113.291 223.842C113.193 223.807 103.525 220.112 101.046 219.453C100.854 219.4 100.655 219.373 100.456 219.371V219.371Z" fill="#ED7700"/>
<path d="M122.019 251.303L116.189 248.133V247.972C116.189 247.972 116.189 247.885 116.189 247.724C116.189 247.563 116.189 247.328 116.197 247.028C116.197 246.462 116.212 245.669 116.222 244.726L99.0758 237.011V242.618L94.3172 239.949V239.799C94.3023 239.485 94.0781 232.183 94.0781 225.625C94.0781 221.705 94.1578 218.807 94.3131 217.01C94.4089 215.645 94.6135 214.29 94.925 212.958C95.0507 212.365 95.2843 211.801 95.6139 211.294C95.7183 211.142 95.8617 211.022 96.0286 210.947C96.0863 210.924 96.1475 210.911 96.2096 210.91C96.2315 210.908 96.2537 210.908 96.2757 210.91V210.91L122.019 215.724V251.302V251.303ZM98.5476 236.188L116.757 244.379V244.555C116.74 246.177 116.727 247.377 116.722 247.817L121.492 250.411V216.169L96.2136 211.448C96.1891 211.461 96.1664 211.477 96.1461 211.496C95.982 211.662 95.8554 211.862 95.7746 212.083C95.2152 213.682 94.9 215.358 94.8399 217.054C94.6846 218.846 94.6063 221.73 94.6063 225.625C94.6063 231.345 94.7778 237.654 94.8305 239.45V239.631L98.5476 241.71V236.189V236.188ZM116.782 241.067L98.7043 232.844L98.5476 232.772V222.3C98.5476 222.21 98.5409 222.113 98.5409 222.012C98.5399 221.723 98.5607 221.435 98.603 221.149C98.6538 220.782 98.7618 220.425 98.9231 220.091C99.0369 219.857 99.1969 219.649 99.3932 219.48C99.6883 219.23 100.062 219.096 100.447 219.102H100.459C100.681 219.104 100.902 219.135 101.117 219.194C101.702 219.35 102.708 219.678 104.104 220.166C105.262 220.576 106.678 221.084 108.201 221.646C110.924 222.651 113.364 223.584 113.393 223.593H113.401H113.41C113.752 223.754 114.08 223.944 114.39 224.161C115.068 224.615 115.648 225.203 116.095 225.89C116.448 226.44 116.663 227.07 116.722 227.723C116.755 228.142 116.781 228.935 116.797 230.149C116.812 231.168 116.819 232.478 116.819 234.152C116.819 236.439 116.804 238.959 116.793 240.656V241.066L116.782 241.067ZM100.459 219.634C100.195 219.625 99.9367 219.713 99.7322 219.882C99.5412 220.054 99.3958 220.271 99.3094 220.515C99.1421 220.997 99.0598 221.505 99.0663 222.016C99.0663 222.146 99.0663 222.233 99.0731 222.263V232.432L116.26 240.249C116.274 238.02 116.283 235.969 116.283 234.159C116.283 232.418 116.283 231.147 116.262 230.163C116.246 228.976 116.22 228.172 116.187 227.775C116.136 227.215 115.953 226.676 115.653 226.202C115.379 225.77 115.042 225.382 114.652 225.053C114.209 224.669 113.716 224.347 113.187 224.097V224.097L112.96 224.011L112.894 223.985L112.286 223.743C111.679 223.513 110.862 223.204 109.99 222.878C107.526 221.959 105.489 221.215 103.938 220.669C102.507 220.169 101.542 219.85 100.988 219.713C100.816 219.663 100.638 219.637 100.459 219.634Z" fill="#1D202A"/>
<path d="M121.754 250.861L121.808 216.174L121.943 216.148C125.356 215.509 136.643 213.426 138.419 213.307H138.532C138.721 213.303 138.909 213.34 139.083 213.414C139.257 213.489 139.414 213.599 139.543 213.738C140.108 214.602 140.384 215.626 140.33 216.66V240.193L136.446 242.721C136.446 242.705 136.458 241.075 136.471 238.789L125.582 244.321V248.177L121.754 250.859V250.861ZM135.165 222.023C134.863 222.027 134.562 222.073 134.272 222.159C134.218 222.181 128.925 223.762 127.228 224.289C125.532 224.816 125.58 228.51 125.582 228.548V240.391L136.483 235.806C136.517 228.103 136.505 223.826 136.444 223.094C136.437 222.936 136.398 222.781 136.328 222.64C136.258 222.498 136.16 222.373 136.04 222.272C135.919 222.171 135.779 222.097 135.629 222.054C135.478 222.011 135.32 222 135.165 222.023Z" fill="#ED7700"/>
<path d="M121.484 251.371L121.54 215.948L121.755 215.906C121.783 215.906 124.576 215.378 127.854 214.784C130.872 214.24 134.92 213.524 137.077 213.207C137.723 213.113 138.141 213.061 138.395 213.043C138.436 213.043 138.479 213.043 138.53 213.043H138.537C138.766 213.042 138.992 213.089 139.202 213.18C139.395 213.264 139.571 213.386 139.719 213.537C139.998 213.842 140.204 214.209 140.32 214.608C140.504 215.232 140.595 215.881 140.59 216.533C140.59 216.606 140.59 216.653 140.59 216.669V240.344L136.172 243.211V242.717C136.172 242.717 136.172 242.614 136.172 242.427C136.172 242.333 136.172 242.217 136.172 242.08C136.172 241.944 136.172 241.794 136.172 241.623C136.172 241.286 136.172 240.88 136.179 240.422V240.393L136.186 239.226L125.842 244.486V248.315L121.484 251.369V251.371ZM138.432 213.575C138.231 213.588 137.873 213.631 137.367 213.704C136.926 213.767 136.365 213.854 135.602 213.977C134.369 214.177 132.772 214.451 130.856 214.796C128.478 215.216 125.661 215.73 122.481 216.32L122.067 216.397L122.015 250.348L125.314 248.037V244.157L136.733 238.353V238.789C136.72 240.344 136.712 241.572 136.708 242.228L140.061 240.043V216.62C140.061 216.599 140.061 216.571 140.061 216.531C140.06 216.182 140.032 215.834 139.978 215.489C139.92 215.031 139.774 214.589 139.549 214.187C139.419 213.958 139.222 213.775 138.986 213.663C138.841 213.6 138.684 213.569 138.526 213.571C138.495 213.571 138.464 213.571 138.434 213.571L138.432 213.575ZM125.312 240.789V228.492C125.315 228.094 125.339 227.697 125.385 227.302C125.447 226.666 125.595 226.042 125.823 225.446C125.974 225.046 126.212 224.685 126.52 224.391C126.701 224.228 126.914 224.106 127.145 224.033C128.778 223.524 133.641 222.07 134.181 221.906C134.496 221.812 134.822 221.762 135.15 221.757C135.399 221.752 135.648 221.796 135.882 221.886C136.147 221.988 136.368 222.181 136.507 222.432C136.614 222.63 136.677 222.849 136.691 223.075C136.703 223.211 136.712 223.457 136.72 223.812C136.729 224.167 136.734 224.631 136.738 225.102C136.746 226.141 136.752 227.452 136.752 228.893C136.752 230.758 136.752 233.086 136.733 235.811V235.989L125.68 240.635L125.315 240.789H125.312ZM135.162 222.288C134.887 222.293 134.614 222.335 134.351 222.415V222.415L134.119 222.485L133.641 222.626L133.481 222.673L131.455 223.281C130.546 223.554 128.322 224.226 127.294 224.544C127.135 224.595 126.989 224.68 126.864 224.792C126.727 224.919 126.609 225.066 126.516 225.228C126.301 225.611 126.146 226.025 126.057 226.456C125.913 227.124 125.839 227.804 125.835 228.487V239.982L136.21 235.613C136.21 234.521 136.227 231.672 136.227 228.876C136.227 226.379 136.218 224.721 136.198 223.807C136.188 223.437 136.18 223.213 136.172 223.102C136.164 222.985 136.138 222.87 136.095 222.761C136.063 222.681 136.017 222.607 135.96 222.544C135.842 222.429 135.693 222.351 135.532 222.323C135.41 222.298 135.286 222.286 135.162 222.288V222.288Z" fill="#1D202A"/>
<path d="M104.119 207.275C104.119 207.275 96.0212 210.05 96.2143 211.181C96.4075 212.313 117.421 221.029 122.024 219.498C126.627 217.968 139.732 215.02 139.798 213.965C139.864 212.91 132.623 209.783 132.099 209.716C131.575 209.65 104.119 207.275 104.119 207.275Z" fill="#ED7700"/>
<path d="M104.121 207.275L104.034 207.021C104.034 207.021 102.053 207.704 100.069 208.523C99.1311 208.9 98.2148 209.33 97.3241 209.81C96.993 209.988 96.6792 210.196 96.3867 210.433C96.275 210.524 96.1752 210.63 96.0896 210.747C96.051 210.803 96.0188 210.863 95.9937 210.926C95.9675 210.993 95.9537 211.065 95.9532 211.137C95.9528 211.168 95.9555 211.198 95.9613 211.227V211.227C95.9712 211.278 95.9894 211.327 96.0153 211.372C96.0611 211.444 96.1165 211.509 96.1801 211.565C96.342 211.705 96.5155 211.83 96.6988 211.94C97.1134 212.199 97.701 212.515 98.429 212.871C102.034 214.573 105.732 216.065 109.505 217.34C111.638 218.067 113.773 218.718 115.693 219.187C117.301 219.623 118.953 219.878 120.617 219.946C121.119 219.959 121.62 219.894 122.103 219.753C123.244 219.374 124.926 218.904 126.802 218.396C129.616 217.634 132.87 216.789 135.432 216.034C136.714 215.656 137.821 215.301 138.622 214.987C138.954 214.863 139.276 214.714 139.585 214.541C139.694 214.479 139.796 214.404 139.888 214.318C139.93 214.278 139.967 214.232 139.997 214.182C140.033 214.122 140.054 214.055 140.059 213.985V213.948C140.059 213.881 140.046 213.814 140.023 213.75C139.976 213.633 139.908 213.525 139.823 213.431C139.624 213.215 139.402 213.023 139.16 212.859C138.568 212.453 137.952 212.085 137.315 211.757C136.25 211.191 135.05 210.629 134.073 210.202C133.584 209.988 133.152 209.809 132.818 209.679C132.653 209.615 132.512 209.562 132.4 209.524C132.343 209.503 132.293 209.488 132.25 209.476C132.208 209.464 132.166 209.454 132.124 209.447L131.989 209.433C130.939 209.334 123.979 208.726 117.278 208.145L104.144 207.002H104.089L104.034 207.021L104.121 207.275L104.098 207.538L104.406 207.566C105.915 207.702 112.709 208.284 119.187 208.848L127.966 209.614L130.869 209.869L131.716 209.945L131.959 209.969L132.066 209.98C132.077 209.98 132.137 209.999 132.219 210.025C132.371 210.075 132.606 210.161 132.894 210.283C133.911 210.692 135.61 211.453 137.043 212.213C137.674 212.538 138.285 212.903 138.871 213.305C139.06 213.436 139.236 213.584 139.398 213.748C139.442 213.794 139.481 213.846 139.514 213.902C139.521 213.915 139.528 213.929 139.533 213.943V213.951H139.552H139.533H139.552H139.533H139.642L139.541 213.907C139.536 213.919 139.533 213.932 139.533 213.944H139.642L139.541 213.901L139.576 213.917L139.542 213.896L139.577 213.913L139.543 213.892L139.534 213.905C139.461 213.976 139.377 214.036 139.287 214.082C138.912 214.282 138.522 214.452 138.121 214.59C137.224 214.923 135.988 215.304 134.588 215.708C132.485 216.313 130.009 216.965 127.717 217.581C125.424 218.197 123.317 218.773 121.941 219.229C121.51 219.352 121.063 219.407 120.616 219.394C119.663 219.372 118.714 219.266 117.779 219.076C113.153 218.051 108.622 216.626 104.237 214.818C102.046 213.946 100.09 213.09 98.6789 212.397C97.9792 212.053 97.4011 211.746 97.0121 211.507C96.859 211.416 96.7123 211.314 96.5731 211.203C96.539 211.176 96.5078 211.145 96.4799 211.111L96.4718 211.098L96.38 211.152L96.4799 211.132C96.479 211.12 96.4758 211.108 96.4705 211.098L96.3786 211.152L96.4799 211.132H96.4448H96.4813H96.4462H96.4813C96.4919 211.094 96.5108 211.06 96.5367 211.031C96.6928 210.852 96.875 210.698 97.077 210.575C97.6883 210.193 98.3262 209.857 98.9855 209.569C100.128 209.05 101.434 208.541 102.453 208.158C102.963 207.967 103.398 207.81 103.712 207.698L104.076 207.571L104.211 207.526L104.121 207.275L104.098 207.538L104.121 207.275Z" fill="#1D202A"/>
<path d="M103.526 202.395C103.526 202.395 103.538 206.168 109.987 202.395C110.059 202.296 110.157 202.22 110.271 202.175C110.384 202.131 110.507 202.119 110.627 202.143C110.746 202.166 110.856 202.223 110.945 202.308C111.033 202.392 111.096 202.5 111.127 202.619C111.566 203.594 118.015 205.944 120.869 205.635C123.723 205.325 123.765 209.582 122.49 210.823C121.215 212.064 103.056 212.646 102.66 211.494C102.265 210.342 102.243 200.535 103.526 202.395Z" fill="#1D202A"/>
<path d="M103.527 202.404H103.257C103.261 202.508 103.275 202.612 103.297 202.715C103.368 203.096 103.545 203.45 103.808 203.733C103.992 203.924 104.214 204.073 104.46 204.17C104.775 204.291 105.11 204.35 105.446 204.344C107.124 204.179 108.733 203.591 110.128 202.634L110.156 202.614L110.182 202.585L110.079 202.487L110.18 202.585L110.079 202.487L110.18 202.585L110.19 202.577C110.236 202.533 110.287 202.494 110.341 202.461C110.403 202.42 110.475 202.396 110.549 202.391C110.599 202.392 110.646 202.41 110.684 202.442C110.773 202.522 110.843 202.622 110.887 202.734C110.935 202.833 110.999 202.922 111.077 202.999C111.26 203.171 111.463 203.321 111.681 203.445C112.234 203.766 112.81 204.045 113.405 204.278C114.543 204.739 115.711 205.121 116.9 205.422C118.013 205.726 119.157 205.899 120.309 205.938C120.506 205.939 120.703 205.929 120.898 205.908C120.985 205.898 121.072 205.892 121.159 205.892C121.453 205.886 121.744 205.958 122.003 206.099C122.356 206.312 122.628 206.638 122.774 207.026C122.95 207.466 123.037 207.936 123.032 208.411C123.035 208.853 122.968 209.292 122.834 209.713C122.735 210.058 122.556 210.373 122.313 210.635C122.267 210.673 122.216 210.704 122.161 210.727C121.923 210.827 121.675 210.904 121.422 210.957C120.661 211.121 119.891 211.244 119.117 211.325C115.699 211.679 112.265 211.854 108.83 211.85C107.162 211.85 105.662 211.802 104.57 211.701C104.136 211.669 103.705 211.608 103.28 211.518C103.166 211.494 103.054 211.46 102.947 211.414C102.928 211.405 102.909 211.393 102.892 211.38V211.38L102.858 211.414L102.896 211.387V211.379L102.858 211.414L102.896 211.387L102.8 211.455L102.911 211.414C102.908 211.403 102.903 211.393 102.896 211.384L102.8 211.452L102.911 211.414C102.894 211.358 102.88 211.3 102.869 211.242C102.797 210.785 102.752 210.324 102.734 209.862C102.699 209.252 102.687 208.529 102.687 207.774C102.677 206.521 102.736 205.268 102.865 204.021C102.907 203.594 102.987 203.171 103.104 202.757C103.134 202.651 103.18 202.549 103.239 202.455C103.244 202.447 103.249 202.439 103.255 202.431H103.263L103.254 202.41V202.425V202.41V202.425L103.223 202.354V202.434C103.236 202.434 103.249 202.431 103.261 202.425L103.223 202.354V202.367L103.199 202.429C103.207 202.431 103.215 202.431 103.223 202.429V202.367L103.199 202.429V202.413V202.429V202.413V202.429H103.207C103.247 202.466 103.282 202.508 103.309 202.555L103.527 202.404L103.743 202.251C103.684 202.16 103.611 202.079 103.527 202.012C103.44 201.942 103.334 201.902 103.223 201.898C103.132 201.899 103.044 201.926 102.969 201.978C102.909 202.019 102.856 202.071 102.814 202.13C102.732 202.248 102.669 202.377 102.625 202.513C102.524 202.826 102.451 203.149 102.406 203.475C102.224 204.901 102.141 206.337 102.159 207.774C102.159 208.647 102.181 209.475 102.223 210.146C102.245 210.482 102.271 210.775 102.3 211.015C102.317 211.137 102.331 211.243 102.35 211.339C102.364 211.422 102.385 211.505 102.411 211.585C102.438 211.66 102.485 211.727 102.546 211.777C102.648 211.859 102.764 211.921 102.888 211.96C103.19 212.054 103.499 212.12 103.813 212.157C105.48 212.336 107.155 212.413 108.831 212.388C111.601 212.388 114.824 212.258 117.461 212.033C118.779 211.919 119.949 211.781 120.85 211.623C121.233 211.559 121.612 211.473 121.986 211.365C122.124 211.325 122.259 211.275 122.391 211.216C122.499 211.169 122.599 211.104 122.687 211.024C122.992 210.702 123.217 210.311 123.342 209.884C123.491 209.407 123.565 208.91 123.562 208.411C123.583 207.684 123.395 206.967 123.022 206.346C122.831 206.049 122.573 205.803 122.268 205.628C121.93 205.442 121.55 205.348 121.166 205.355C121.06 205.355 120.954 205.36 120.848 205.373V205.373C120.669 205.392 120.489 205.401 120.308 205.4C119.429 205.377 118.554 205.262 117.697 205.059C116.268 204.738 114.867 204.297 113.51 203.74C112.992 203.532 112.489 203.29 112.003 203.015C111.843 202.924 111.692 202.82 111.549 202.705C111.503 202.669 111.461 202.629 111.422 202.585C111.402 202.564 111.385 202.54 111.372 202.514C111.293 202.321 111.169 202.151 111.01 202.019C110.878 201.914 110.716 201.858 110.549 201.857C110.443 201.858 110.338 201.879 110.24 201.919C110.126 201.964 110.02 202.027 109.925 202.105C109.88 202.139 109.838 202.177 109.798 202.218L109.993 202.404L109.858 202.17C108.544 203.077 107.029 203.64 105.447 203.808C105.108 203.822 104.772 203.744 104.472 203.583C104.321 203.496 104.188 203.378 104.083 203.236C103.96 203.066 103.873 202.872 103.828 202.666C103.813 202.6 103.802 202.533 103.796 202.465C103.795 202.448 103.795 202.43 103.796 202.413V202.404V202.318L103.743 202.249L103.527 202.404Z" fill="#1D202A"/>
<path d="M114.815 203.635C114.815 203.635 114.826 207.408 121.274 203.635C121.347 203.536 121.445 203.46 121.558 203.415C121.672 203.371 121.795 203.36 121.915 203.383C122.034 203.406 122.144 203.464 122.233 203.548C122.322 203.632 122.385 203.74 122.416 203.859C122.855 204.833 129.304 207.184 132.157 206.874C135.01 206.565 135.054 210.821 133.778 212.062C132.501 213.303 114.344 213.886 113.949 212.734C113.555 211.582 113.531 201.775 114.815 203.635Z" fill="#1D202A"/>
<path d="M114.817 203.642H114.547C114.551 203.747 114.565 203.851 114.587 203.953C114.657 204.335 114.834 204.688 115.098 204.97C115.282 205.162 115.504 205.312 115.75 205.408C116.065 205.529 116.4 205.588 116.736 205.582C118.413 205.417 120.023 204.829 121.417 203.873L121.446 203.852L121.473 203.823L121.364 203.72L121.471 203.823L121.364 203.72L121.471 203.823L121.48 203.815C121.526 203.771 121.577 203.732 121.631 203.699C121.694 203.658 121.765 203.634 121.839 203.63C121.889 203.63 121.937 203.648 121.975 203.68C122.065 203.759 122.134 203.86 122.177 203.972C122.225 204.071 122.29 204.161 122.369 204.237C122.552 204.409 122.754 204.559 122.971 204.683C123.525 205.003 124.101 205.281 124.695 205.516C125.834 205.977 127.002 206.359 128.192 206.66C129.304 206.965 130.448 207.137 131.6 207.175C131.796 207.176 131.993 207.166 132.189 207.145V207.145C132.275 207.136 132.362 207.131 132.449 207.13C132.744 207.125 133.034 207.196 133.294 207.338C133.646 207.55 133.917 207.876 134.063 208.263C134.239 208.703 134.327 209.174 134.323 209.649C134.324 210.091 134.257 210.53 134.124 210.951C134.025 211.296 133.846 211.611 133.603 211.873C133.557 211.911 133.506 211.942 133.452 211.966C133.213 212.066 132.966 212.142 132.713 212.195C131.951 212.359 131.181 212.482 130.407 212.564C126.989 212.917 123.555 213.092 120.119 213.088C118.452 213.088 116.951 213.04 115.858 212.939C115.424 212.906 114.993 212.844 114.567 212.752C114.454 212.73 114.344 212.696 114.238 212.652C114.218 212.643 114.199 212.632 114.182 212.618V212.618L114.148 212.652L114.186 212.625V212.617L114.148 212.652L114.186 212.625L114.089 212.693L114.201 212.652C114.197 212.642 114.192 212.633 114.186 212.624L114.089 212.692L114.201 212.652C114.182 212.594 114.168 212.535 114.158 212.475C114.086 212.018 114.041 211.558 114.023 211.096C113.995 210.49 113.976 209.766 113.976 209.013C113.967 207.759 114.027 206.505 114.155 205.258C114.196 204.831 114.276 204.408 114.393 203.995C114.423 203.889 114.469 203.787 114.528 203.694L114.546 203.668L114.543 203.649L114.551 203.662L114.543 203.649L114.551 203.662L114.513 203.593V203.672C114.526 203.672 114.539 203.669 114.551 203.662L114.513 203.593V203.604L114.488 203.668C114.496 203.669 114.505 203.669 114.513 203.668V203.604L114.488 203.668V203.653V203.668V203.653V203.668H114.497C114.537 203.704 114.572 203.746 114.6 203.793L114.817 203.642L115.033 203.489C114.974 203.398 114.901 203.318 114.817 203.25C114.731 203.179 114.624 203.14 114.513 203.137C114.422 203.136 114.333 203.164 114.258 203.216C114.198 203.258 114.146 203.309 114.104 203.369C114.022 203.486 113.959 203.615 113.915 203.751C113.814 204.065 113.741 204.387 113.696 204.714C113.514 206.139 113.431 207.575 113.447 209.013C113.447 209.885 113.472 210.714 113.514 211.384C113.535 211.719 113.56 212.013 113.591 212.254C113.607 212.375 113.622 212.482 113.639 212.577C113.654 212.661 113.675 212.743 113.701 212.823C113.729 212.898 113.775 212.965 113.836 213.016C113.938 213.097 114.054 213.159 114.178 213.198C114.48 213.292 114.79 213.358 115.103 213.395C116.77 213.574 118.445 213.651 120.12 213.626C122.89 213.626 126.113 213.496 128.75 213.271C130.069 213.158 131.239 213.02 132.139 212.861C132.522 212.797 132.901 212.711 133.275 212.603C133.413 212.563 133.549 212.513 133.68 212.453C133.788 212.406 133.888 212.342 133.976 212.262C134.281 211.94 134.506 211.549 134.631 211.122C134.78 210.646 134.855 210.149 134.852 209.649C134.873 208.922 134.685 208.205 134.312 207.583C134.121 207.286 133.862 207.04 133.557 206.867C133.219 206.681 132.84 206.587 132.456 206.593C132.35 206.594 132.244 206.6 132.139 206.613C131.959 206.631 131.779 206.639 131.598 206.639C130.719 206.616 129.844 206.502 128.987 206.297C127.558 205.976 126.157 205.535 124.8 204.98C124.282 204.772 123.779 204.529 123.293 204.253C123.134 204.162 122.981 204.058 122.838 203.944C122.793 203.906 122.75 203.866 122.711 203.823C122.692 203.802 122.675 203.778 122.662 203.752C122.584 203.56 122.459 203.389 122.3 203.257C122.169 203.153 122.006 203.096 121.839 203.096C121.733 203.097 121.628 203.118 121.529 203.157C121.416 203.203 121.31 203.265 121.214 203.341C121.17 203.377 121.128 203.415 121.088 203.456L121.282 203.642L121.147 203.408C119.833 204.315 118.318 204.878 116.736 205.047C116.397 205.06 116.06 204.983 115.76 204.821C115.609 204.734 115.477 204.616 115.372 204.475C115.249 204.304 115.163 204.109 115.118 203.903C115.103 203.837 115.092 203.77 115.085 203.703C115.085 203.68 115.085 203.662 115.085 203.651V203.642V203.556L115.033 203.488L114.817 203.642Z" fill="#1D202A"/>
<path d="M107.504 30.7241H107.514C108.349 30.4721 109.216 30.3474 110.088 30.3541C112.086 30.3191 114.021 31.0633 115.49 32.432C115.502 32.4489 115.517 32.4628 115.534 32.473C115.552 32.4831 115.572 32.4892 115.592 32.4907C115.612 32.4921 115.632 32.489 115.651 32.4815C115.67 32.4741 115.687 32.4624 115.7 32.4475C115.714 32.4325 115.724 32.4146 115.731 32.3951C115.737 32.3756 115.738 32.355 115.735 32.3348C115.732 32.3146 115.725 32.2953 115.714 32.2783C115.702 32.2613 115.687 32.2472 115.67 32.2368C114.152 30.82 112.153 30.0481 110.088 30.0811C109.183 30.0737 108.283 30.2054 107.417 30.4716C107.384 30.4836 107.357 30.5082 107.342 30.54C107.326 30.5719 107.324 30.6085 107.335 30.6422C107.347 30.6753 107.371 30.7023 107.403 30.7175C107.434 30.7328 107.47 30.7352 107.504 30.7241" fill="white"/>
<path d="M108.582 31.6758H108.595C109.409 31.775 110.201 32.0147 110.935 32.3844C111.573 32.7004 112.148 33.1317 112.633 33.6568C113.212 34.2928 113.63 35.0624 113.848 35.8985C113.849 35.9188 113.855 35.9385 113.865 35.9563C113.874 35.9741 113.888 35.9895 113.904 36.0014C113.92 36.0133 113.939 36.0214 113.959 36.025C113.978 36.0287 113.999 36.0278 114.018 36.0225C114.038 36.0172 114.056 36.0076 114.071 35.9944C114.086 35.9812 114.098 35.9648 114.106 35.9462C114.115 35.9277 114.119 35.9075 114.118 35.8872C114.118 35.8669 114.113 35.847 114.103 35.8289C113.868 34.9259 113.412 34.097 112.778 33.4179C112.021 32.6369 111.085 32.0569 110.053 31.7291C109.583 31.5676 109.097 31.4582 108.603 31.4028C108.586 31.4013 108.568 31.4035 108.551 31.409C108.534 31.4145 108.518 31.4234 108.505 31.435C108.491 31.4467 108.48 31.461 108.472 31.477C108.464 31.493 108.459 31.5105 108.457 31.5284C108.456 31.5463 108.458 31.5643 108.464 31.5815C108.469 31.5986 108.478 31.6144 108.489 31.6281C108.501 31.6418 108.515 31.6531 108.531 31.6613C108.547 31.6694 108.564 31.6744 108.582 31.6758" fill="white"/>
<path d="M110.703 44.1758C110.832 45.7469 111.255 47.279 111.95 48.6906C113.659 52.1925 116.495 55.0037 119.992 56.6636C120.008 56.6766 120.026 56.6858 120.045 56.6906C120.065 56.6955 120.085 56.6959 120.105 56.6917C120.125 56.6875 120.144 56.679 120.16 56.6666C120.176 56.6542 120.189 56.6384 120.198 56.6202C120.207 56.6021 120.212 56.5821 120.213 56.5617C120.213 56.5413 120.209 56.5211 120.201 56.5024C120.193 56.4838 120.181 56.4673 120.165 56.4541C120.15 56.4409 120.132 56.4313 120.112 56.4261C116.667 54.7932 113.873 52.0257 112.189 48.5773C111.716 47.5767 111.364 46.5225 111.139 45.4372C111.06 45.0372 111.016 44.7219 110.994 44.5021C110.981 44.3928 110.973 44.3123 110.973 44.2536C110.973 44.2249 110.973 44.2031 110.973 44.1894C110.973 44.1758 110.973 44.1689 110.973 44.1689C110.972 44.151 110.968 44.1334 110.96 44.1172C110.953 44.101 110.942 44.0864 110.929 44.0743C110.916 44.0623 110.9 44.053 110.884 44.047C110.867 44.041 110.849 44.0383 110.831 44.0392C110.797 44.041 110.764 44.0561 110.74 44.0816C110.716 44.107 110.703 44.1407 110.703 44.1758" fill="white"/>
<path d="M112.628 53.2659C113.029 54.0029 113.503 54.6968 114.042 55.3369C115.137 56.7126 116.553 57.7916 118.162 58.477C118.193 58.4821 118.224 58.4763 118.251 58.4607C118.278 58.445 118.299 58.4204 118.31 58.3911C118.321 58.3617 118.322 58.3293 118.312 58.2995C118.303 58.2696 118.283 58.2441 118.257 58.2271C116.69 57.5602 115.311 56.5103 114.245 55.1717C113.87 54.7179 113.525 54.2395 113.212 53.7396C113.096 53.5553 113.008 53.4065 112.95 53.3014C112.92 53.2508 112.898 53.2072 112.884 53.1826L112.867 53.1539V53.143C112.862 53.1232 112.853 53.1047 112.84 53.0891C112.826 53.0735 112.81 53.0611 112.791 53.0527C112.773 53.0444 112.753 53.0404 112.732 53.0411C112.712 53.0417 112.692 53.047 112.674 53.0564C112.656 53.0659 112.641 53.0793 112.628 53.0957C112.616 53.1122 112.608 53.1311 112.604 53.1513C112.6 53.1714 112.601 53.1921 112.606 53.212C112.611 53.2318 112.621 53.2502 112.634 53.2659" fill="white"/>
<path d="M103.527 45.9968C103.319 47.4975 103.218 49.0113 103.224 50.5266C103.103 53.967 103.823 57.3844 105.32 60.4765C105.327 60.495 105.338 60.5118 105.352 60.5256C105.366 60.5395 105.383 60.55 105.402 60.5566C105.42 60.5632 105.44 60.5656 105.46 60.5636C105.479 60.5617 105.498 60.5555 105.515 60.5454C105.532 60.5354 105.546 60.5217 105.558 60.5054C105.569 60.4891 105.576 60.4705 105.58 60.4509C105.583 60.4314 105.582 60.4113 105.577 60.3921C105.572 60.373 105.563 60.3552 105.55 60.34C104.078 57.289 103.372 53.9187 103.494 50.5266C103.494 49.231 103.57 48.1088 103.644 47.3115C103.676 46.9087 103.713 46.592 103.741 46.3736C103.755 46.2643 103.764 46.1811 103.775 46.1237C103.786 46.0664 103.789 46.0404 103.789 46.0404C103.795 46.0216 103.798 46.0015 103.796 45.9815C103.794 45.9616 103.788 45.9422 103.778 45.9249C103.768 45.9076 103.754 45.8928 103.738 45.8814C103.722 45.8701 103.703 45.8625 103.684 45.8592C103.664 45.856 103.644 45.8571 103.625 45.8626C103.606 45.868 103.588 45.8776 103.573 45.8908C103.558 45.9039 103.546 45.9202 103.538 45.9385C103.53 45.9568 103.526 45.9767 103.527 45.9968" fill="white"/>
<path d="M100.339 50.9415C100.179 52.2943 100.097 53.6555 100.094 55.0181C100.041 56.6884 100.259 58.3561 100.741 59.9548C100.744 59.9748 100.751 59.9937 100.763 60.0104C100.774 60.0271 100.789 60.041 100.806 60.0512C100.823 60.0614 100.842 60.0676 100.862 60.0694C100.882 60.0711 100.902 60.0684 100.921 60.0614C100.94 60.0544 100.957 60.0433 100.971 60.0289C100.985 60.0145 100.995 59.9971 101.002 59.978C101.008 59.959 101.01 59.9387 101.008 59.9186C101.006 59.8985 101 59.8792 100.989 59.862C100.521 58.2926 100.309 56.6564 100.364 55.0181C100.364 53.9259 100.425 52.9156 100.485 52.1784C100.51 51.8084 100.541 51.5081 100.564 51.2992C100.575 51.1954 100.584 51.1135 100.591 51.0589C100.597 51.0043 100.602 50.977 100.602 50.977C100.608 50.9578 100.611 50.9374 100.609 50.9172C100.606 50.897 100.6 50.8776 100.589 50.8602C100.579 50.8429 100.565 50.8282 100.548 50.8171C100.531 50.806 100.512 50.7988 100.492 50.7961C100.472 50.7934 100.452 50.7953 100.433 50.8015C100.414 50.8077 100.396 50.8182 100.382 50.8321C100.367 50.846 100.356 50.8631 100.348 50.882C100.341 50.9009 100.338 50.9212 100.339 50.9415" fill="white"/>
<path d="M118.41 37.9166C118.499 38.0357 118.539 38.1847 118.522 38.3329C118.505 38.481 118.433 38.6169 118.32 38.7126C118.181 38.7639 118.029 38.7594 117.893 38.6999C117.758 38.6404 117.65 38.5305 117.593 38.3931C117.504 38.2745 117.463 38.1255 117.48 37.9774C117.497 37.8293 117.57 37.6936 117.684 37.5985C117.822 37.5467 117.975 37.5509 118.11 37.6102C118.246 37.6694 118.353 37.7792 118.41 37.9166" fill="#1D202A"/>
<path d="M115.975 37.8156C115.986 37.4121 116.053 37.0121 116.175 36.6278C116.268 36.326 116.421 36.047 116.626 35.8087C116.845 35.5635 117.145 35.4068 117.469 35.3677C117.521 35.3597 117.568 35.3311 117.6 35.2881C117.631 35.2451 117.644 35.1912 117.637 35.1383C117.629 35.0855 117.6 35.0379 117.558 35.0062C117.515 34.9744 117.462 34.9611 117.41 34.969C116.994 35.0208 116.61 35.2219 116.329 35.5356C115.986 35.9502 115.758 36.4497 115.669 36.9828C115.613 37.2569 115.583 37.5357 115.578 37.8156C115.578 37.8688 115.599 37.9198 115.636 37.9575C115.674 37.9951 115.724 38.0163 115.777 38.0163C115.829 38.0163 115.88 37.9951 115.917 37.9575C115.954 37.9198 115.975 37.8688 115.975 37.8156" fill="#1D202A"/>
<path d="M122.392 43.0165L122.485 43.0807L122.393 43.0165L122.486 43.0807L122.393 43.0165C122.249 43.1979 122.074 43.3526 121.877 43.4738C121.409 43.7733 120.882 43.9658 120.333 44.0377C120.288 44.0522 120.25 44.0826 120.225 44.1232C120.2 44.1638 120.19 44.212 120.198 44.2592C120.205 44.3064 120.228 44.3495 120.264 44.3807C120.3 44.412 120.346 44.4292 120.393 44.4295C121.034 44.3458 121.647 44.112 122.184 43.7469C122.391 43.6069 122.574 43.4329 122.724 43.2322C122.746 43.1879 122.751 43.1369 122.738 43.0891C122.725 43.0413 122.695 43 122.654 42.9732C122.613 42.9464 122.563 42.936 122.515 42.944C122.466 42.952 122.423 42.9778 122.392 43.0165" fill="#1D202A"/>
</svg>
