<svg width="320" height="205" viewBox="0 0 320 205" fill="none" xmlns="http://www.w3.org/2000/svg">
<rect y="0.5" width="320" height="60" rx="8" fill="#F3F4F7"/>
<path d="M30 45C38.0081 45 44.5 38.5081 44.5 30.5C44.5 22.4919 38.0081 16 30 16C21.9919 16 15.5 22.4919 15.5 30.5C15.5 38.5081 21.9919 45 30 45Z" fill="#FCFCFC" stroke="#F3F4F7"/>
<path fill-rule="evenodd" clip-rule="evenodd" d="M23.3333 24.666C23.3333 24.003 23.5966 23.3671 24.0655 22.8982C24.5343 22.4294 25.1702 22.166 25.8333 22.166H31.8083C32.4711 22.1666 33.1065 22.4304 33.5749 22.8993L35.9333 25.2577C36.4022 25.7261 36.666 26.3615 36.6666 27.0243V36.3327C36.6666 36.9957 36.4032 37.6316 35.9344 38.1005C35.4655 38.5693 34.8296 38.8327 34.1666 38.8327H25.8333C25.1702 38.8327 24.5343 38.5693 24.0655 38.1005C23.5966 37.6316 23.3333 36.9957 23.3333 36.3327V24.666ZM25.8333 23.8327C25.6122 23.8327 25.4003 23.9205 25.244 24.0768C25.0877 24.233 24.9999 24.445 24.9999 24.666V36.3327C24.9999 36.5537 25.0877 36.7657 25.244 36.9219C25.4003 37.0782 25.6122 37.166 25.8333 37.166H34.1666C34.3876 37.166 34.5996 37.0782 34.7558 36.9219C34.9121 36.7657 34.9999 36.5537 34.9999 36.3327V27.0243C34.9968 26.8045 34.9069 26.5949 34.7499 26.441L32.3999 24.0743C32.2447 23.9204 32.0352 23.8336 31.8166 23.8327H25.8333Z" fill="#B0B5C9"/>
<path fill-rule="evenodd" clip-rule="evenodd" d="M31.6666 22.166C31.8876 22.166 32.0996 22.2538 32.2558 22.4101C32.4121 22.5664 32.4999 22.7783 32.4999 22.9993V26.3327H35.8333C36.0543 26.3327 36.2662 26.4205 36.4225 26.5768C36.5788 26.733 36.6666 26.945 36.6666 27.166C36.6666 27.387 36.5788 27.599 36.4225 27.7553C36.2662 27.9116 36.0543 27.9993 35.8333 27.9993H32.4999C32.0579 27.9993 31.634 27.8238 31.3214 27.5112C31.0088 27.1986 30.8333 26.7747 30.8333 26.3327V22.9993C30.8333 22.7783 30.921 22.5664 31.0773 22.4101C31.2336 22.2538 31.4456 22.166 31.6666 22.166Z" fill="#B0B5C9"/>
<rect x="60" y="19" width="168" height="9" rx="4.5" fill="#B0B5C9"/>
<rect x="60" y="33" width="72" height="9" rx="4.5" fill="#DADDE6"/>
<path d="M258 45C266.008 45 272.5 38.5081 272.5 30.5C272.5 22.4919 266.008 16 258 16C249.992 16 243.5 22.4919 243.5 30.5C243.5 38.5081 249.992 45 258 45Z" fill="#F3F4F7" stroke="#F3F4F7"/>
<path fill-rule="evenodd" clip-rule="evenodd" d="M258 33.8346C257.889 33.8346 257.784 33.7889 257.708 33.7083L252.883 28.8833C252.804 28.8051 252.76 28.6986 252.76 28.5875C252.76 28.4764 252.804 28.3699 252.883 28.2917L253.05 28.125C253.128 28.0436 253.237 27.9984 253.35 28H255.5V23.4167C255.5 23.1865 255.686 23 255.916 23H260.083C260.313 23 260.5 23.1865 260.5 23.4167V28H262.65C262.763 27.9984 262.871 28.0436 262.95 28.125L263.116 28.2917C263.195 28.3699 263.24 28.4764 263.24 28.5875C263.24 28.6986 263.195 28.8051 263.116 28.8833L258.291 33.7083C258.216 33.7889 258.11 33.8346 258 33.8346ZM263.833 36.75V35.9167C263.833 35.6865 263.647 35.5 263.417 35.5H252.583C252.353 35.5 252.167 35.6865 252.167 35.9167V36.75C252.167 36.9801 252.353 37.1667 252.583 37.1667H263.417C263.647 37.1667 263.833 36.9801 263.833 36.75Z" fill="#B0B5C9"/>
<path d="M290 45C298.008 45 304.5 38.5081 304.5 30.5C304.5 22.4919 298.008 16 290 16C281.992 16 275.5 22.4919 275.5 30.5C275.5 38.5081 281.992 45 290 45Z" fill="#F3F4F7" stroke="#F3F4F7"/>
<path fill-rule="evenodd" clip-rule="evenodd" d="M296.666 25.0827V24.2493C296.666 24.0192 296.48 23.8327 296.25 23.8327H292.5V22.9993C292.5 22.5391 292.127 22.166 291.666 22.166H288.333C287.873 22.166 287.5 22.5391 287.5 22.9993V23.8327H283.75C283.52 23.8327 283.333 24.0192 283.333 24.2493V25.0827C283.333 25.3128 283.52 25.4993 283.75 25.4993H296.25C296.48 25.4993 296.666 25.3128 296.666 25.0827ZM286.433 35.4993H293.566L294.166 27.166H295.833L295.125 37.2827C295.063 38.1573 294.335 38.8348 293.458 38.8327H286.558C285.681 38.8348 284.953 38.1573 284.891 37.2827L284.166 27.166H285.833L286.433 35.4993Z" fill="#B0B5C9"/>
<rect y="72.5" width="320" height="60" rx="8" fill="#F3F4F7"/>
<path d="M30 117C38.0081 117 44.5 110.508 44.5 102.5C44.5 94.4919 38.0081 88 30 88C21.9919 88 15.5 94.4919 15.5 102.5C15.5 110.508 21.9919 117 30 117Z" fill="#FCFCFC" stroke="#F3F4F7"/>
<path fill-rule="evenodd" clip-rule="evenodd" d="M23.3333 96.666C23.3333 96.003 23.5966 95.3671 24.0655 94.8982C24.5343 94.4294 25.1702 94.166 25.8333 94.166H31.8083C32.4711 94.1666 33.1065 94.4304 33.5749 94.8993L35.9333 97.2577C36.4022 97.7261 36.666 98.3615 36.6666 99.0243V108.333C36.6666 108.996 36.4032 109.632 35.9344 110.1C35.4655 110.569 34.8296 110.833 34.1666 110.833H25.8333C25.1702 110.833 24.5343 110.569 24.0655 110.1C23.5966 109.632 23.3333 108.996 23.3333 108.333V96.666ZM25.8333 95.8327C25.6122 95.8327 25.4003 95.9205 25.244 96.0768C25.0877 96.233 24.9999 96.445 24.9999 96.666V108.333C24.9999 108.554 25.0877 108.766 25.244 108.922C25.4003 109.078 25.6122 109.166 25.8333 109.166H34.1666C34.3876 109.166 34.5996 109.078 34.7558 108.922C34.9121 108.766 34.9999 108.554 34.9999 108.333V99.0243C34.9968 98.8045 34.9069 98.5949 34.7499 98.441L32.3999 96.0743C32.2447 95.9204 32.0352 95.8336 31.8166 95.8327H25.8333Z" fill="#B0B5C9"/>
<path fill-rule="evenodd" clip-rule="evenodd" d="M31.6666 94.166C31.8876 94.166 32.0996 94.2538 32.2558 94.4101C32.4121 94.5664 32.4999 94.7783 32.4999 94.9993V98.3327H35.8333C36.0543 98.3327 36.2662 98.4205 36.4225 98.5768C36.5788 98.733 36.6666 98.945 36.6666 99.166C36.6666 99.387 36.5788 99.599 36.4225 99.7553C36.2662 99.9116 36.0543 99.9993 35.8333 99.9993H32.4999C32.0579 99.9993 31.634 99.8238 31.3214 99.5112C31.0088 99.1986 30.8333 98.7747 30.8333 98.3327V94.9993C30.8333 94.7783 30.921 94.5664 31.0773 94.4101C31.2336 94.2538 31.4456 94.166 31.6666 94.166Z" fill="#B0B5C9"/>
<rect x="60" y="91" width="168" height="9" rx="4.5" fill="#B0B5C9"/>
<rect x="60" y="105" width="72" height="9" rx="4.5" fill="#DADDE6"/>
<path d="M258 117C266.008 117 272.5 110.508 272.5 102.5C272.5 94.4919 266.008 88 258 88C249.992 88 243.5 94.4919 243.5 102.5C243.5 110.508 249.992 117 258 117Z" fill="#F3F4F7" stroke="#F3F4F7"/>
<path fill-rule="evenodd" clip-rule="evenodd" d="M258 105.835C257.889 105.835 257.784 105.789 257.708 105.708L252.883 100.883C252.804 100.805 252.76 100.699 252.76 100.587C252.76 100.476 252.804 100.37 252.883 100.292L253.05 100.125C253.128 100.044 253.237 99.9984 253.35 100H255.5V95.4167C255.5 95.1865 255.686 95 255.916 95H260.083C260.313 95 260.5 95.1865 260.5 95.4167V100H262.65C262.763 99.9984 262.871 100.044 262.95 100.125L263.116 100.292C263.195 100.37 263.24 100.476 263.24 100.587C263.24 100.699 263.195 100.805 263.116 100.883L258.291 105.708C258.216 105.789 258.11 105.835 258 105.835ZM263.833 108.75V107.917C263.833 107.687 263.647 107.5 263.417 107.5H252.583C252.353 107.5 252.167 107.687 252.167 107.917V108.75C252.167 108.98 252.353 109.167 252.583 109.167H263.417C263.647 109.167 263.833 108.98 263.833 108.75Z" fill="#B0B5C9"/>
<path d="M290 117C298.008 117 304.5 110.508 304.5 102.5C304.5 94.4919 298.008 88 290 88C281.992 88 275.5 94.4919 275.5 102.5C275.5 110.508 281.992 117 290 117Z" fill="#F3F4F7" stroke="#F3F4F7"/>
<path fill-rule="evenodd" clip-rule="evenodd" d="M296.666 97.0827V96.2493C296.666 96.0192 296.48 95.8327 296.25 95.8327H292.5V94.9993C292.5 94.5391 292.127 94.166 291.666 94.166H288.333C287.873 94.166 287.5 94.5391 287.5 94.9993V95.8327H283.75C283.52 95.8327 283.333 96.0192 283.333 96.2493V97.0827C283.333 97.3128 283.52 97.4993 283.75 97.4993H296.25C296.48 97.4993 296.666 97.3128 296.666 97.0827ZM286.433 107.499H293.566L294.166 99.166H295.833L295.125 109.283C295.063 110.157 294.335 110.835 293.458 110.833H286.558C285.681 110.835 284.953 110.157 284.891 109.283L284.166 99.166H285.833L286.433 107.499Z" fill="#B0B5C9"/>
<rect y="144.5" width="320" height="60" rx="8" fill="#F3F4F7"/>
<path d="M30 189C38.0081 189 44.5 182.508 44.5 174.5C44.5 166.492 38.0081 160 30 160C21.9919 160 15.5 166.492 15.5 174.5C15.5 182.508 21.9919 189 30 189Z" fill="#FCFCFC" stroke="#F3F4F7"/>
<path fill-rule="evenodd" clip-rule="evenodd" d="M23.3333 168.666C23.3333 168.003 23.5966 167.367 24.0655 166.898C24.5343 166.429 25.1702 166.166 25.8333 166.166H31.8083C32.4711 166.167 33.1065 166.43 33.5749 166.899L35.9333 169.258C36.4022 169.726 36.666 170.362 36.6666 171.024V180.333C36.6666 180.996 36.4032 181.632 35.9344 182.1C35.4655 182.569 34.8296 182.833 34.1666 182.833H25.8333C25.1702 182.833 24.5343 182.569 24.0655 182.1C23.5966 181.632 23.3333 180.996 23.3333 180.333V168.666ZM25.8333 167.833C25.6122 167.833 25.4003 167.92 25.244 168.077C25.0877 168.233 24.9999 168.445 24.9999 168.666V180.333C24.9999 180.554 25.0877 180.766 25.244 180.922C25.4003 181.078 25.6122 181.166 25.8333 181.166H34.1666C34.3876 181.166 34.5996 181.078 34.7558 180.922C34.9121 180.766 34.9999 180.554 34.9999 180.333V171.024C34.9968 170.805 34.9069 170.595 34.7499 170.441L32.3999 168.074C32.2447 167.92 32.0352 167.834 31.8166 167.833H25.8333Z" fill="#B0B5C9"/>
<path fill-rule="evenodd" clip-rule="evenodd" d="M31.6666 166.166C31.8876 166.166 32.0996 166.254 32.2558 166.41C32.4121 166.566 32.4999 166.778 32.4999 166.999V170.333H35.8333C36.0543 170.333 36.2662 170.42 36.4225 170.577C36.5788 170.733 36.6666 170.945 36.6666 171.166C36.6666 171.387 36.5788 171.599 36.4225 171.755C36.2662 171.912 36.0543 171.999 35.8333 171.999H32.4999C32.0579 171.999 31.634 171.824 31.3214 171.511C31.0088 171.199 30.8333 170.775 30.8333 170.333V166.999C30.8333 166.778 30.921 166.566 31.0773 166.41C31.2336 166.254 31.4456 166.166 31.6666 166.166Z" fill="#B0B5C9"/>
<rect x="60" y="163" width="168" height="9" rx="4.5" fill="#B0B5C9"/>
<rect x="60" y="177" width="72" height="9" rx="4.5" fill="#DADDE6"/>
<path d="M258 189C266.008 189 272.5 182.508 272.5 174.5C272.5 166.492 266.008 160 258 160C249.992 160 243.5 166.492 243.5 174.5C243.5 182.508 249.992 189 258 189Z" fill="#F3F4F7" stroke="#F3F4F7"/>
<path fill-rule="evenodd" clip-rule="evenodd" d="M258 177.835C257.889 177.835 257.784 177.789 257.708 177.708L252.883 172.883C252.804 172.805 252.76 172.699 252.76 172.587C252.76 172.476 252.804 172.37 252.883 172.292L253.05 172.125C253.128 172.044 253.237 171.998 253.35 172H255.5V167.417C255.5 167.187 255.686 167 255.916 167H260.083C260.313 167 260.5 167.187 260.5 167.417V172H262.65C262.763 171.998 262.871 172.044 262.95 172.125L263.116 172.292C263.195 172.37 263.24 172.476 263.24 172.587C263.24 172.699 263.195 172.805 263.116 172.883L258.291 177.708C258.216 177.789 258.11 177.835 258 177.835ZM263.833 180.75V179.917C263.833 179.687 263.647 179.5 263.417 179.5H252.583C252.353 179.5 252.167 179.687 252.167 179.917V180.75C252.167 180.98 252.353 181.167 252.583 181.167H263.417C263.647 181.167 263.833 180.98 263.833 180.75Z" fill="#B0B5C9"/>
<path d="M290 189C298.008 189 304.5 182.508 304.5 174.5C304.5 166.492 298.008 160 290 160C281.992 160 275.5 166.492 275.5 174.5C275.5 182.508 281.992 189 290 189Z" fill="#F3F4F7" stroke="#F3F4F7"/>
<path fill-rule="evenodd" clip-rule="evenodd" d="M296.666 169.083V168.249C296.666 168.019 296.48 167.833 296.25 167.833H292.5V166.999C292.5 166.539 292.127 166.166 291.666 166.166H288.333C287.873 166.166 287.5 166.539 287.5 166.999V167.833H283.75C283.52 167.833 283.333 168.019 283.333 168.249V169.083C283.333 169.313 283.52 169.499 283.75 169.499H296.25C296.48 169.499 296.666 169.313 296.666 169.083ZM286.433 179.499H293.566L294.166 171.166H295.833L295.125 181.283C295.063 182.157 294.335 182.835 293.458 182.833H286.558C285.681 182.835 284.953 182.157 284.891 181.283L284.166 171.166H285.833L286.433 179.499Z" fill="#B0B5C9"/>
</svg>
