<svg width="378" height="267" viewBox="0 0 378 267" fill="none" xmlns="http://www.w3.org/2000/svg">
<g clip-path="url(#clip0_1329_24764)">
<path d="M299.2 205.306H78.8C75.5967 205.306 73 207.859 73 211.007V260.993C73 264.141 75.5967 266.694 78.8 266.694H299.2C302.403 266.694 305 264.141 305 260.993V211.007C305 207.859 302.403 205.306 299.2 205.306Z" fill="#F3F4F7"/>
<mask id="mask0_1329_24764" style="mask-type:luminance" maskUnits="userSpaceOnUse" x="81" y="213" width="67" height="46">
<path d="M141.226 213.858H87.5C84.2968 213.858 81.7 216.41 81.7 219.559V252.441C81.7 255.59 84.2968 258.142 87.5 258.142H141.226C144.429 258.142 147.026 255.59 147.026 252.441V219.559C147.026 216.41 144.429 213.858 141.226 213.858Z" fill="white"/>
</mask>
<g mask="url(#mask0_1329_24764)">
<path d="M150.687 213.858H79.2831C78.5561 213.858 77.9669 215.891 77.9669 218.4V253.6C77.9669 256.109 78.5561 258.142 79.2831 258.142H150.687C151.413 258.142 152.003 256.109 152.003 253.6V218.4C152.003 215.891 151.413 213.858 150.687 213.858Z" fill="#FCFCFC"/>
<path d="M138.004 293.133C160.167 293.133 178.133 280.894 178.133 265.797C178.133 250.699 160.167 238.46 138.004 238.46C115.842 238.46 97.8758 250.699 97.8758 265.797C97.8758 280.894 115.842 293.133 138.004 293.133Z" fill="#DADDE6"/>
<path d="M87.6105 293.133C109.773 293.133 127.739 279.792 127.739 263.336C127.739 246.88 109.773 233.54 87.6105 233.54C65.448 233.54 47.4818 246.88 47.4818 263.336C47.4818 279.792 65.448 293.133 87.6105 293.133Z" fill="#B0B5C9"/>
</g>
<path d="M141.226 216.708H87.5C85.8984 216.708 84.6 217.985 84.6 219.559V252.441C84.6 254.015 85.8984 255.292 87.5 255.292H141.226C142.827 255.292 144.126 254.015 144.126 252.441V219.559C144.126 217.985 142.827 216.708 141.226 216.708Z" stroke="#FCFCFC" stroke-width="8"/>
<path d="M133.251 230.873C136.454 230.873 139.051 228.321 139.051 225.172C139.051 222.024 136.454 219.471 133.251 219.471C130.047 219.471 127.451 222.024 127.451 225.172C127.451 228.321 130.047 230.873 133.251 230.873Z" fill="#9199B5"/>
<path d="M239.1 216.708H162.25C160.248 216.708 158.625 218.304 158.625 220.272V221.697C158.625 223.665 160.248 225.26 162.25 225.26H239.1C241.102 225.26 242.725 223.665 242.725 221.697V220.272C242.725 218.304 241.102 216.708 239.1 216.708Z" fill="#B0B5C9"/>
<path d="M215.9 228.823H162.25C160.248 228.823 158.625 230.419 158.625 232.386V233.812C158.625 235.78 160.248 237.375 162.25 237.375H215.9C217.902 237.375 219.525 235.78 219.525 233.812V232.386C219.525 230.419 217.902 228.823 215.9 228.823Z" fill="#DADDE6"/>
<path d="M172.4 245.927H162.25C160.248 245.927 158.625 247.522 158.625 249.49V250.915C158.625 252.883 160.248 254.478 162.25 254.478H172.4C174.402 254.478 176.025 252.883 176.025 250.915V249.49C176.025 247.522 174.402 245.927 172.4 245.927Z" fill="#DADDE6"/>
<path d="M292.675 216.708H276.725C274.723 216.708 273.1 218.304 273.1 220.272V221.697C273.1 223.665 274.723 225.26 276.725 225.26H292.675C294.677 225.26 296.3 223.665 296.3 221.697V220.272C296.3 218.304 294.677 216.708 292.675 216.708Z" fill="#DADDE6"/>
</g>
<path d="M368.55 94.0986H9.45C4.23091 94.0986 0 98.3316 0 103.553V186.447C0 191.669 4.23091 195.902 9.45 195.902H368.55C373.769 195.902 378 191.669 378 186.447V103.553C378 98.3316 373.769 94.0986 368.55 94.0986Z" fill="#F3F4F7"/>
<mask id="mask1_1329_24764" style="mask-type:luminance" maskUnits="userSpaceOnUse" x="14" y="108" width="107" height="74">
<path d="M111.161 108.28H23.625C18.4059 108.28 14.175 112.513 14.175 117.735V172.265C14.175 177.487 18.4059 181.72 23.625 181.72H111.161C116.38 181.72 120.611 177.487 120.611 172.265V117.735C120.611 112.513 116.38 108.28 111.161 108.28Z" fill="white"/>
</mask>
<g mask="url(#mask1_1329_24764)">
<path d="M126.576 108.28H10.2372C9.05283 108.28 8.09271 111.653 8.09271 115.813V174.187C8.09271 178.347 9.05283 181.72 10.2372 181.72H126.576C127.76 181.72 128.72 178.347 128.72 174.187V115.813C128.72 111.653 127.76 108.28 126.576 108.28Z" fill="#FCFCFC"/>
<path d="M105.913 239.746C142.022 239.746 171.295 219.45 171.295 194.413C171.295 169.376 142.022 149.08 105.913 149.08C69.8031 149.08 40.5306 169.376 40.5306 194.413C40.5306 219.45 69.8031 239.746 105.913 239.746Z" fill="#DADDE6"/>
<path d="M23.8049 239.746C59.9144 239.746 89.187 217.623 89.187 190.333C89.187 163.043 59.9144 140.92 23.8049 140.92C-12.3046 140.92 -41.5771 163.043 -41.5771 190.333C-41.5771 217.623 -12.3046 239.746 23.8049 239.746Z" fill="#B0B5C9"/>
</g>
<path d="M111.161 113.007H23.625C21.0154 113.007 18.9 115.124 18.9 117.735V172.265C18.9 174.876 21.0154 176.992 23.625 176.992H111.161C113.77 176.992 115.886 174.876 115.886 172.265V117.735C115.886 115.124 113.77 113.007 111.161 113.007Z" stroke="#FCFCFC" stroke-width="10"/>
<path d="M98.1672 136.498C103.386 136.498 107.617 132.266 107.617 127.044C107.617 121.822 103.386 117.589 98.1672 117.589C92.9481 117.589 88.7172 121.822 88.7172 127.044C88.7172 132.266 92.9481 136.498 98.1672 136.498Z" fill="#9199B5"/>
<path d="M270.629 113.007H145.417C142.155 113.007 139.51 115.653 139.51 118.916V121.28C139.51 124.544 142.155 127.189 145.417 127.189H270.629C273.891 127.189 276.535 124.544 276.535 121.28V118.916C276.535 115.653 273.891 113.007 270.629 113.007Z" fill="#B0B5C9"/>
<path d="M232.829 133.098H145.417C142.155 133.098 139.51 135.744 139.51 139.007V141.371C139.51 144.634 142.155 147.28 145.417 147.28H232.829C236.091 147.28 238.735 144.634 238.735 141.371V139.007C238.735 135.744 236.091 133.098 232.829 133.098Z" fill="#DADDE6"/>
<path d="M161.954 161.462H145.417C142.155 161.462 139.51 164.108 139.51 167.371V169.735C139.51 172.998 142.155 175.644 145.417 175.644H161.954C165.216 175.644 167.86 172.998 167.86 169.735V167.371C167.86 164.108 165.216 161.462 161.954 161.462Z" fill="#DADDE6"/>
<path d="M357.919 113.007H331.931C328.669 113.007 326.025 115.653 326.025 118.916V121.28C326.025 124.544 328.669 127.189 331.931 127.189H357.919C361.181 127.189 363.825 124.544 363.825 121.28V118.916C363.825 115.653 361.181 113.007 357.919 113.007Z" fill="#DADDE6"/>
<g clip-path="url(#clip1_1329_24764)">
<path d="M339.1 0.419434H38.9C34.537 0.419434 31 3.91882 31 8.23553V76.7641C31 81.0808 34.537 84.5802 38.9 84.5802H339.1C343.463 84.5802 347 81.0808 347 76.7641V8.23553C347 3.91882 343.463 0.419434 339.1 0.419434Z" fill="#F3F4F7"/>
<mask id="mask2_1329_24764" style="mask-type:luminance" maskUnits="userSpaceOnUse" x="42" y="12" width="90" height="61">
<path d="M123.928 12.1436H50.75C46.387 12.1436 42.85 15.6429 42.85 19.9596V65.0399C42.85 69.3566 46.387 72.856 50.75 72.856H123.928C128.291 72.856 131.828 69.3566 131.828 65.0399V19.9596C131.828 15.6429 128.291 12.1436 123.928 12.1436Z" fill="white"/>
</mask>
<g mask="url(#mask2_1329_24764)">
<path d="M136.815 12.1436H39.558C38.5679 12.1436 37.7652 14.9315 37.7652 18.3704V66.6291C37.7652 70.0681 38.5679 72.856 39.558 72.856H136.815C137.804 72.856 138.607 70.0681 138.607 66.6291V18.3704C138.607 14.9315 137.804 12.1436 136.815 12.1436Z" fill="#FCFCFC"/>
<path d="M119.541 120.826C149.727 120.826 174.199 104.047 174.199 83.3494C174.199 62.6515 149.727 45.8726 119.541 45.8726C89.3539 45.8726 64.8826 62.6515 64.8826 83.3494C64.8826 104.047 89.3539 120.826 119.541 120.826Z" fill="#DADDE6"/>
<path d="M50.9005 120.826C81.0873 120.826 105.559 102.537 105.559 79.9767C105.559 57.416 81.0873 39.127 50.9005 39.127C20.7137 39.127 -3.75751 57.416 -3.75751 79.9767C-3.75751 102.537 20.7137 120.826 50.9005 120.826Z" fill="#B0B5C9"/>
</g>
<path d="M123.928 16.0518H50.75C48.5685 16.0518 46.8 17.8014 46.8 19.9598V65.0401C46.8 67.1984 48.5685 68.9481 50.75 68.9481H123.928C126.11 68.9481 127.878 67.1984 127.878 65.0401V19.9598C127.878 17.8014 126.11 16.0518 123.928 16.0518Z" stroke="#FCFCFC" stroke-width="8"/>
<path d="M113.066 35.472C117.429 35.472 120.966 31.9726 120.966 27.6559C120.966 23.3392 117.429 19.8398 113.066 19.8398C108.703 19.8398 105.166 23.3392 105.166 27.6559C105.166 31.9726 108.703 35.472 113.066 35.472Z" fill="#9199B5"/>
<path d="M257.24 16.0518H152.565C149.838 16.0518 147.628 18.2389 147.628 20.9368V22.8908C147.628 25.5888 149.838 27.7759 152.565 27.7759H257.24C259.967 27.7759 262.178 25.5888 262.178 22.8908V20.9368C262.178 18.2389 259.967 16.0518 257.24 16.0518Z" fill="#B0B5C9"/>
<path d="M225.64 32.6611H152.565C149.838 32.6611 147.628 34.8482 147.628 37.5462V39.5002C147.628 42.1982 149.838 44.3853 152.565 44.3853H225.64C228.367 44.3853 230.578 42.1982 230.578 39.5002V37.5462C230.578 34.8482 228.367 32.6611 225.64 32.6611Z" fill="#DADDE6"/>
<path d="M166.39 56.1094H152.565C149.838 56.1094 147.628 58.2965 147.628 60.9944V62.9485C147.628 65.6464 149.838 67.8335 152.565 67.8335H166.39C169.117 67.8335 171.328 65.6464 171.328 62.9485V60.9944C171.328 58.2965 169.117 56.1094 166.39 56.1094Z" fill="#DADDE6"/>
<path d="M330.212 16.0518H308.487C305.761 16.0518 303.55 18.2389 303.55 20.9368V22.8908C303.55 25.5888 305.761 27.7759 308.487 27.7759H330.212C332.939 27.7759 335.15 25.5888 335.15 22.8908V20.9368C335.15 18.2389 332.939 16.0518 330.212 16.0518Z" fill="#DADDE6"/>
</g>
<defs>
<clipPath id="clip0_1329_24764">
<rect width="232" height="62" fill="white" transform="translate(73 205)"/>
</clipPath>
<clipPath id="clip1_1329_24764">
<rect width="316" height="85" fill="white" transform="translate(31)"/>
</clipPath>
</defs>
</svg>
