<svg width="304" height="171" viewBox="0 0 304 171" fill="none" xmlns="http://www.w3.org/2000/svg">
<rect width="304" height="171" fill="white"/>
<mask id="mask0_4535_44613" style="mask-type:alpha" maskUnits="userSpaceOnUse" x="0" y="0" width="304" height="171">
<rect width="304" height="171" fill="white"/>
</mask>
<g mask="url(#mask0_4535_44613)">
<path d="M325.583 -35.2792C340.466 -22.2983 346.583 -1.32925 343.932 17.2797C341.384 35.9794 329.966 52.3189 315.082 64.3013C300.301 76.2836 281.951 83.9087 265.742 82.0024C249.533 80.0961 235.464 68.6585 223.333 56.6761C211.202 44.6938 201.008 32.1668 199.173 18.0059C197.338 3.84493 203.862 -11.95 215.993 -24.9308C228.125 -37.9117 245.863 -48.0785 266.557 -50.6202C287.15 -53.2527 310.699 -48.2601 325.583 -35.2792Z" fill="#D2EBE7"/>
<path d="M234.683 34.324C240.377 39.6201 242.718 48.1755 241.704 55.768C240.728 63.3975 236.36 70.064 230.665 74.9528C225.01 79.8416 217.989 82.9526 211.787 82.1749C205.585 81.3971 200.203 76.7305 195.561 71.8417C190.92 66.9529 187.019 61.8419 186.317 56.0643C185.615 50.2866 188.111 43.8423 192.753 38.5461C197.394 33.2499 204.181 29.1018 212.099 28.0648C219.978 26.9908 228.988 29.0278 234.683 34.324Z" fill="#FEEED3"/>
<path d="M246.025 146.558C254.506 159.145 246.483 177.212 233.992 196.477C221.615 215.828 204.653 236.378 185.859 237.234C166.949 238.091 146.092 219.253 134.86 200.416C123.629 181.664 121.91 162.912 132.339 149.469C142.768 135.941 165.345 127.721 188.953 127.207C212.676 126.693 237.544 133.886 246.025 146.558Z" fill="#F0E7E1"/>
<path d="M-49.2627 113.893C-56.734 103.872 -70.1715 73.7985 -59.1664 58.4611C-48.2622 43.0554 -12.8145 42.3859 3.74367 41.7043C20.4028 41.0226 41.2723 55.5804 51.1668 70.577C61.0613 85.5055 62.631 102.669 53.4432 113.371C44.2554 124.142 21.8163 128.889 1.01762 129.298C-19.882 129.707 -41.7913 123.981 -49.2627 113.893Z" fill="#FEEED3"/>
</g>
</svg>
