<svg xmlns="http://www.w3.org/2000/svg" width="200" height="175"><g data-name="Group 699"><path data-name="Fill 3" d="M35.56 169.67s-41.34-16.48-34.87-49S16.15 86.4 4.38 48.23s59.17-69.31 95.97-30.15 56.89 13.6 82.75 36.27 21.04 49.16-7.66 75.91c0 0-32.8 43.1-64.72 43.1s-32.62 2.35-51.4 1.43-23.76-5.12-23.76-5.12z" fill="#feeed3"/><g data-name="Group 469"><path data-name="Fill 66" d="M126.31 60.7l1.08-.65a31.8 31.8 0 00-13.23-12.14 38.47 38.47 0 00-17.08-3.81 45.93 45.93 0 00-27.82 9.42 34.96 34.96 0 00-9.4 11 30.42 30.42 0 00-3.62 14.46c0 .28 0 .56.02.84.2 7.75 2.93 15.39 6.98 22.56 6.08 10.75 15.15 20.5 23.43 28.1a190.21 190.21 0 0018.72 15.11l.57.4 20.48-8.42.19-.53c.53-1.51 1.5-4.33 2.6-8.1 2.54-8.8 5.77-22.74 5.77-37.11a78.9 78.9 0 00-1.29-14.65 51.25 51.25 0 00-6.32-17.13l-1.08.66-1.08.65a48.78 48.78 0 016 16.29 76.1 76.1 0 011.24 14.18c0 13.99-3.16 27.75-5.68 36.41a137.2 137.2 0 01-2.55 7.95l1.2.43-.49-1.17-19.32 7.93.49 1.17.72-1.04a182.97 182.97 0 01-26.73-23.04 102.58 102.58 0 01-14.67-19.34c-3.91-6.92-6.47-14.18-6.65-21.38l-.02-.77a27.86 27.86 0 013.31-13.27 34.82 34.82 0 0114.56-13.97 44.1 44.1 0 0120.44-5.1 35.99 35.99 0 0115.96 3.54 29.33 29.33 0 0112.2 11.18l1.08-.65"/><path data-name="Fill 67" d="M125.43 136.62l-1.78-.64-.33.88-.08.22-.02.05-.01.02 1.77.69-.75-1.74-17.56 7.6.75 1.74 1.06-1.57-.02-.01-1.25-.87-1.1 1.56.73 1.75 19.31-7.93-.72-1.75-1.78-.64 1.78.63-.72-1.75-22.53 9.25 2.85 2c.85.6 1.33.9 1.34.92l.86.57 19.23-8.33.29-.74c0-.02.18-.46.47-1.28l1.44-4.01-3.95 1.62.72 1.75"/><path data-name="Fill 68" d="M126.06 136.37l1.86 4.54.19.45-20.94 8.6-.18-.45-1.87-4.55 1-.4 19.31-7.94.63-.25" fill="#fcaa23"/><path data-name="Fill 69" d="M127.64 157.05l-8.56 3.5a5.63 5.63 0 01-7.36-3.07l-1.13-2.77 18.99-7.8 1.14 2.78a5.64 5.64 0 01-3.08 7.36" fill="#fcaa23"/><path data-name="Fill 70" d="M122.02 136.4c-.02-.06-.34-.92-1.83-5.28s-4.19-12.26-8.96-26.4a30.87 30.87 0 01-1.76-9.86 21.72 21.72 0 01.3-3.64l.53-3.2-2.56 2-.86.65c-7.94 5.97-13.9 8.59-18.03 9.38l-1.96.37 1.18 1.6a112.96 112.96 0 017.03 11.52 356.84 356.84 0 019.81 19.68c1.32 2.86 2.43 5.3 3.2 7.02l.88 2.01.3.71a1.26 1.26 0 002.33-1s-3.11-7.23-7.35-16c-2.12-4.4-4.52-9.16-6.95-13.63a114.33 114.33 0 00-7.2-11.78l-1.03.74.23 1.24c4.69-.9 10.93-3.71 19.07-9.84l.9-.68-.78-1-1.25-.2a24.72 24.72 0 00-.32 4.04 33.5 33.5 0 001.9 10.67c4.91 14.61 7.62 22.55 9.1 26.83l1.71 4.95a1.27 1.27 0 102.37-.9"/><path data-name="Fill 71" d="M132.24 146.93l-24.26 9.95-2.73-6.66 24.25-9.96 2.74 6.67" fill="#fcaa23"/><path data-name="Fill 72" d="M132.24 146.93l-.48-1.18-23.08 9.48-1.78-4.32 21.91-9 2.25 5.49 1.17-.48-.48-1.17.48 1.17 1.17-.49-3.2-7.82-26.6 10.92 3.7 9 26.59-10.92-.48-1.17-1.17.49"/><path data-name="Fill 73" d="M36.36 18l18.77 20.26a1.26 1.26 0 101.85-1.72L38.21 16.27A1.27 1.27 0 0036.36 18" fill="#081535"/><path data-name="Fill 74" d="M1.1 75.85l36.88 5.02a1.27 1.27 0 00.35-2.51L1.44 73.35a1.26 1.26 0 10-.34 2.5" fill="#081535"/><path data-name="Fill 75" d="M17.02 114.74l25.23-4.83a1.27 1.27 0 10-.47-2.5l-25.24 4.84a1.27 1.27 0 00.48 2.49" fill="#081535"/><path data-name="Fill 76" d="M137.8 1.56l-13.14 31.8a1.27 1.27 0 102.35.96l13.13-31.8a1.27 1.27 0 10-2.34-.96" fill="#081535"/><path data-name="Fill 77" d="M185 36.81l-35.78 25.67a1.26 1.26 0 101.47 2.05l35.78-25.66a1.27 1.27 0 00-1.47-2.06" fill="#081535"/></g></g></svg>