<svg width="400" height="237" viewBox="0 0 400 237" fill="none" xmlns="http://www.w3.org/2000/svg">
<path d="M390.448 0H9.55224C4.27668 0 0 5.75665 0 8.78304V231.52C0 234.547 4.27668 237 9.55224 237H390.448C395.723 237 400 234.547 400 231.52V8.42887C400 5.40248 395.723 0 390.448 0Z" fill="#F3F4F7"/>
<path fill-rule="evenodd" clip-rule="evenodd" d="M9.55224 0H390.448C395.723 0 400 4.24434 400 9.48V31.995H0V9.48C0 4.24434 4.27668 0 9.55224 0Z" fill="#DADDE6"/>
<path d="M15.5261 21.3301C18.1639 21.3301 20.3022 19.2079 20.3022 16.5901C20.3022 13.9723 18.1639 11.8501 15.5261 11.8501C12.8883 11.8501 10.75 13.9723 10.75 16.5901C10.75 19.2079 12.8883 21.3301 15.5261 21.3301Z" fill="#FCFCFC"/>
<path d="M29.8542 21.3301C32.492 21.3301 34.6304 19.2079 34.6304 16.5901C34.6304 13.9723 32.492 11.8501 29.8542 11.8501C27.2165 11.8501 25.0781 13.9723 25.0781 16.5901C25.0781 19.2079 27.2165 21.3301 29.8542 21.3301Z" fill="#FCFCFC"/>
<path d="M44.1824 21.3301C46.8201 21.3301 48.9585 19.2079 48.9585 16.5901C48.9585 13.9723 46.8201 11.8501 44.1824 11.8501C41.5446 11.8501 39.4062 13.9723 39.4062 16.5901C39.4062 19.2079 41.5446 21.3301 44.1824 21.3301Z" fill="#FCFCFC"/>
<rect x="16" y="169" width="178.189" height="52" rx="8" fill="#FCFCFC"/>
<path d="M42 209.5C50.0081 209.5 56.5 203.008 56.5 195C56.5 186.992 50.0081 180.5 42 180.5C33.9919 180.5 27.5 186.992 27.5 195C27.5 203.008 33.9919 209.5 42 209.5Z" fill="#FCFCFC" stroke="#F3F4F7"/>
<path fill-rule="evenodd" clip-rule="evenodd" d="M38.4407 198.488C37.5114 199.107 37.0026 199.915 37.0026 200.82V201.667H47.0026V200.833C47.0026 200.831 47.0026 200.829 47.0026 200.827C47.0026 200.825 47.0026 200.822 47.0026 200.82C47.0026 199.915 46.4939 199.107 45.5645 198.489C44.6296 197.867 43.3368 197.493 42.0026 197.493C40.6683 197.493 39.3755 197.866 38.4407 198.488ZM48.6692 200.827C48.6693 200.825 48.6693 200.822 48.6693 200.82C48.6693 199.204 47.7372 197.932 46.4878 197.101C45.2439 196.273 43.62 195.827 42.0026 195.827C40.3853 195.827 38.7614 196.273 37.5175 197.101C36.268 197.932 35.3359 199.204 35.3359 200.82V201.667C35.3359 202.587 36.0824 203.333 37.0026 203.333H47.0026C47.9228 203.333 48.6693 202.587 48.6693 201.667V200.833C48.6693 200.831 48.6693 200.829 48.6692 200.827Z" fill="#B0B5C9"/>
<path fill-rule="evenodd" clip-rule="evenodd" d="M43.4709 189.775C42.6599 188.964 41.345 188.964 40.534 189.775C39.723 190.586 39.723 191.901 40.534 192.712C41.345 193.523 42.6599 193.523 43.4709 192.712C44.2819 191.901 44.2819 190.586 43.4709 189.775ZM44.6494 188.596C43.1875 187.135 40.8174 187.135 39.3555 188.596C37.8936 190.058 37.8936 192.428 39.3555 193.89C40.8174 195.352 43.1875 195.352 44.6494 193.89C46.1112 192.428 46.1112 190.058 44.6494 188.596Z" fill="#B0B5C9"/>
<path d="M185.844 184H70.1557C68.9651 184 68 185.524 68 187.404V188.596C68 190.476 68.9651 192 70.1557 192H185.844C187.035 192 188 190.476 188 188.596V187.404C188 185.524 187.035 184 185.844 184Z" fill="#DADDE6"/>
<path d="M150.725 198H70.2748C69.0185 198 68 199.524 68 201.405V202.596C68 204.476 69.0185 206 70.2748 206H150.725C151.982 206 153 204.476 153 202.596V201.405C153 199.524 151.982 198 150.725 198Z" fill="#DADDE6"/>
<rect x="16" y="109" width="178.189" height="52" rx="8" fill="#FCFCFC"/>
<path d="M42 149.5C50.0081 149.5 56.5 143.008 56.5 135C56.5 126.992 50.0081 120.5 42 120.5C33.9919 120.5 27.5 126.992 27.5 135C27.5 143.008 33.9919 149.5 42 149.5Z" fill="#FCFCFC" stroke="#F3F4F7"/>
<path fill-rule="evenodd" clip-rule="evenodd" d="M38.4407 138.488C37.5114 139.107 37.0026 139.915 37.0026 140.82V141.667H47.0026V140.833C47.0026 140.831 47.0026 140.829 47.0026 140.827C47.0026 140.825 47.0026 140.822 47.0026 140.82C47.0026 139.915 46.4939 139.107 45.5645 138.489C44.6296 137.867 43.3368 137.493 42.0026 137.493C40.6683 137.493 39.3755 137.866 38.4407 138.488ZM48.6692 140.827C48.6693 140.825 48.6693 140.822 48.6693 140.82C48.6693 139.204 47.7372 137.932 46.4878 137.101C45.2439 136.273 43.62 135.827 42.0026 135.827C40.3853 135.827 38.7614 136.273 37.5175 137.101C36.268 137.932 35.3359 139.204 35.3359 140.82V141.667C35.3359 142.587 36.0824 143.333 37.0026 143.333H47.0026C47.9228 143.333 48.6693 142.587 48.6693 141.667V140.833C48.6693 140.831 48.6693 140.829 48.6692 140.827Z" fill="#B0B5C9"/>
<path fill-rule="evenodd" clip-rule="evenodd" d="M43.4709 129.775C42.6599 128.964 41.345 128.964 40.534 129.775C39.723 130.586 39.723 131.901 40.534 132.712C41.345 133.523 42.6599 133.523 43.4709 132.712C44.2819 131.901 44.2819 130.586 43.4709 129.775ZM44.6494 128.596C43.1875 127.135 40.8174 127.135 39.3555 128.596C37.8936 130.058 37.8936 132.428 39.3555 133.89C40.8174 135.352 43.1875 135.352 44.6494 133.89C46.1112 132.428 46.1112 130.058 44.6494 128.596Z" fill="#B0B5C9"/>
<path d="M185.844 124H70.1557C68.9651 124 68 125.524 68 127.404V128.596C68 130.476 68.9651 132 70.1557 132H185.844C187.035 132 188 130.476 188 128.596V127.404C188 125.524 187.035 124 185.844 124Z" fill="#DADDE6"/>
<path d="M150.725 138H70.2748C69.0185 138 68 139.524 68 141.405V142.596C68 144.476 69.0185 146 70.2748 146H150.725C151.982 146 153 144.476 153 142.596V141.405C153 139.524 151.982 138 150.725 138Z" fill="#DADDE6"/>
<rect x="16" y="49" width="178.189" height="52" rx="8" fill="#FCFCFC"/>
<path d="M42 89.5C50.0081 89.5 56.5 83.0081 56.5 75C56.5 66.9919 50.0081 60.5 42 60.5C33.9919 60.5 27.5 66.9919 27.5 75C27.5 83.0081 33.9919 89.5 42 89.5Z" fill="#FCFCFC" stroke="#F3F4F7"/>
<path fill-rule="evenodd" clip-rule="evenodd" d="M38.4407 78.4883C37.5114 79.1066 37.0026 79.9149 37.0026 80.8202V81.6668H47.0026V80.8335C47.0026 80.8313 47.0026 80.829 47.0026 80.8268C47.0026 80.8246 47.0026 80.8224 47.0026 80.8202C47.0026 79.9154 46.4939 79.107 45.5645 78.4886C44.6296 77.8665 43.3368 77.4935 42.0026 77.4935C40.6683 77.4935 39.3755 77.8664 38.4407 78.4883ZM48.6692 80.8268C48.6693 80.8246 48.6693 80.8224 48.6693 80.8202C48.6693 79.2041 47.7372 77.9324 46.4878 77.1011C45.2439 76.2734 43.62 75.8268 42.0026 75.8268C40.3853 75.8268 38.7614 76.2731 37.5175 77.1007C36.268 77.932 35.3359 79.2037 35.3359 80.8202V81.6668C35.3359 82.5871 36.0824 83.3335 37.0026 83.3335H47.0026C47.9228 83.3335 48.6693 82.5871 48.6693 81.6668V80.8335C48.6693 80.8313 48.6693 80.829 48.6692 80.8268Z" fill="#B0B5C9"/>
<path fill-rule="evenodd" clip-rule="evenodd" d="M43.4709 69.7749C42.6599 68.9639 41.345 68.9639 40.534 69.7749C39.723 70.5859 39.723 71.9008 40.534 72.7118C41.345 73.5227 42.6599 73.5227 43.4709 72.7118C44.2819 71.9008 44.2819 70.5859 43.4709 69.7749ZM44.6494 68.5964C43.1875 67.1345 40.8174 67.1345 39.3555 68.5964C37.8936 70.0583 37.8936 72.4284 39.3555 73.8903C40.8174 75.3521 43.1875 75.3521 44.6494 73.8903C46.1112 72.4284 46.1112 70.0583 44.6494 68.5964Z" fill="#B0B5C9"/>
<path d="M185.844 64.0002H70.1557C68.9651 64.0002 68 65.5244 68 67.4045V68.596C68 70.4761 68.9651 72.0002 70.1557 72.0002H185.844C187.035 72.0002 188 70.4761 188 68.596V67.4045C188 65.5244 187.035 64.0002 185.844 64.0002Z" fill="#DADDE6"/>
<path d="M150.725 78.0002H70.2748C69.0185 78.0002 68 79.5244 68 81.4045V82.596C68 84.4761 69.0185 86.0002 70.2748 86.0002H150.725C151.982 86.0002 153 84.4761 153 82.596V81.4045C153 79.5244 151.982 78.0002 150.725 78.0002Z" fill="#DADDE6"/>
<rect x="205.812" y="49" width="178.189" height="172" rx="8" fill="#FCFCFC"/>
<rect x="217.43" y="73" width="77.4737" height="8" rx="4" fill="#F3F4F7"/>
<rect x="217.43" y="61" width="116.211" height="8" rx="4" fill="#DADDE6"/>
<rect x="217.43" y="105" width="48.9307" height="8" rx="4" fill="#F3F4F7"/>
<rect x="217.43" y="93" width="73.3961" height="8" rx="4" fill="#DADDE6"/>
<rect x="217.43" y="137" width="48.9307" height="8" rx="4" fill="#F3F4F7"/>
<rect x="217.43" y="125" width="73.3961" height="8" rx="4" fill="#DADDE6"/>
</svg>
