<svg width="472" height="183" viewBox="0 0 472 183" fill="none" xmlns="http://www.w3.org/2000/svg">
<path d="M137.205 0.223938H3.89187C2.04542 0.223938 0.548584 1.82847 0.548584 3.80775V151.64C0.548584 153.619 2.04542 155.224 3.89187 155.224H137.205C139.052 155.224 140.549 153.619 140.549 151.64V3.80775C140.549 1.82847 139.052 0.223938 137.205 0.223938Z" fill="#F3F4F7"/>
<g clip-path="url(#clip0_861_17244)">
<path d="M135.049 12.2239H8.25686C6.96607 12.2239 5.91968 15.8975 5.91968 20.4291V84.0188C5.91968 88.5504 6.96607 92.2239 8.25686 92.2239H135.049C136.34 92.2239 137.386 88.5504 137.386 84.0188V20.4291C137.386 15.8975 136.34 12.2239 135.049 12.2239Z" fill="#FCFCFC"/>
<ellipse cx="112.53" cy="106.051" rx="71.2571" ry="49.3827" fill="#DADDE6"/>
<ellipse cx="23.0438" cy="101.607" rx="71.2571" ry="53.8272" fill="#B0B5C9"/>
</g>
<rect x="16.5486" y="16.2239" width="108" height="72" rx="4" stroke="#FCFCFC" stroke-width="8"/>
<circle cx="112.549" cy="28.2239" r="8" fill="#9199B5"/>
<rect x="12.5486" y="104.224" width="73" height="9" rx="4.5" fill="#B0B5C9"/>
<rect x="12.5486" y="118.224" width="50" height="9" rx="4.5" fill="#DADDE6"/>
<path d="M293.205 0.223938H159.892C158.045 0.223938 156.549 1.82847 156.549 3.80775V151.64C156.549 153.619 158.045 155.224 159.892 155.224H293.205C295.052 155.224 296.549 153.619 296.549 151.64V3.80775C296.549 1.82847 295.052 0.223938 293.205 0.223938Z" fill="#F3F4F7"/>
<g clip-path="url(#clip1_861_17244)">
<path d="M291.049 12.2239H164.257C162.966 12.2239 161.92 15.8975 161.92 20.4291V84.0188C161.92 88.5504 162.966 92.2239 164.257 92.2239H291.049C292.34 92.2239 293.386 88.5504 293.386 84.0188V20.4291C293.386 15.8975 292.34 12.2239 291.049 12.2239Z" fill="#FCFCFC"/>
<ellipse cx="268.53" cy="106.051" rx="71.2571" ry="49.3827" fill="#DADDE6"/>
<ellipse cx="179.044" cy="101.607" rx="71.2571" ry="53.8272" fill="#B0B5C9"/>
</g>
<rect x="172.549" y="16.2239" width="108" height="72" rx="4" stroke="#FCFCFC" stroke-width="8"/>
<circle cx="268.549" cy="28.2239" r="8" fill="#9199B5"/>
<rect x="168.549" y="104.224" width="73" height="9" rx="4.5" fill="#B0B5C9"/>
<rect x="168.549" y="118.224" width="50" height="9" rx="4.5" fill="#DADDE6"/>
<path d="M449.205 0.223938H315.892C314.045 0.223938 312.549 1.82847 312.549 3.80775V151.64C312.549 153.619 314.045 155.224 315.892 155.224H449.205C451.052 155.224 452.549 153.619 452.549 151.64V3.80775C452.549 1.82847 451.052 0.223938 449.205 0.223938Z" fill="#F3F4F7"/>
<g clip-path="url(#clip2_861_17244)">
<path d="M447.049 12.2239H320.257C318.966 12.2239 317.92 15.8975 317.92 20.4291V84.0188C317.92 88.5504 318.966 92.2239 320.257 92.2239H447.049C448.34 92.2239 449.386 88.5504 449.386 84.0188V20.4291C449.386 15.8975 448.34 12.2239 447.049 12.2239Z" fill="#FCFCFC"/>
<ellipse cx="424.53" cy="106.051" rx="71.2571" ry="49.3827" fill="#DADDE6"/>
<ellipse cx="335.044" cy="101.607" rx="71.2571" ry="53.8272" fill="#B0B5C9"/>
</g>
<rect x="328.549" y="16.2239" width="108" height="72" rx="4" stroke="#FCFCFC" stroke-width="8"/>
<circle cx="424.549" cy="28.2239" r="8" fill="#9199B5"/>
<rect x="324.549" y="104.224" width="73" height="9" rx="4.5" fill="#B0B5C9"/>
<rect x="324.549" y="118.224" width="50" height="9" rx="4.5" fill="#DADDE6"/>
<path fill-rule="evenodd" clip-rule="evenodd" d="M459.249 161.152C465.833 155.652 470.017 147.415 470.017 138.209C470.017 121.648 456.481 108.224 439.783 108.224C423.085 108.224 409.549 121.648 409.549 138.209C409.549 154.769 423.085 168.193 439.783 168.193C444.481 168.193 448.929 167.13 452.896 165.234L464.611 181.225C465.841 182.904 468.207 183.279 469.895 182.062C471.584 180.845 471.956 178.498 470.726 176.819L459.249 161.152Z" fill="#B0B5C9"/>
<ellipse cx="439.784" cy="138.209" rx="22.6756" ry="22.4884" fill="#DADDE6"/>
<defs>
<clipPath id="clip0_861_17244">
<rect x="12.5486" y="12.2239" width="116" height="80" rx="8" fill="white"/>
</clipPath>
<clipPath id="clip1_861_17244">
<rect x="168.549" y="12.2239" width="116" height="80" rx="8" fill="white"/>
</clipPath>
<clipPath id="clip2_861_17244">
<rect x="324.549" y="12.2239" width="116" height="80" rx="8" fill="white"/>
</clipPath>
</defs>
</svg>
