<svg width="452" height="155" viewBox="0 0 452 155" fill="none" xmlns="http://www.w3.org/2000/svg">
<path d="M136.657 0H3.34328C1.49684 0 0 1.60453 0 3.58382V151.416C0 153.395 1.49684 155 3.34328 155H136.657C138.503 155 140 153.395 140 151.416V3.58382C140 1.60453 138.503 0 136.657 0Z" fill="#F3F4F7"/>
<g clip-path="url(#clip0_969_43600)">
<path d="M134.501 12H7.70828C6.41749 12 5.37109 15.6736 5.37109 20.2051V83.7949C5.37109 88.3264 6.41749 92 7.70828 92H134.501C135.791 92 136.838 88.3264 136.838 83.7949V20.2051C136.838 15.6736 135.791 12 134.501 12Z" fill="#FCFCFC"/>
<ellipse cx="111.981" cy="105.827" rx="71.2571" ry="49.3827" fill="#DADDE6"/>
<ellipse cx="22.4952" cy="101.383" rx="71.2571" ry="53.8272" fill="#B0B5C9"/>
</g>
<rect x="16" y="16" width="108" height="72" rx="4" stroke="#FCFCFC" stroke-width="8"/>
<circle cx="112" cy="28" r="8" fill="#9199B5"/>
<rect x="12" y="104" width="73" height="9" rx="4.5" fill="#B0B5C9"/>
<rect x="12" y="118" width="50" height="9" rx="4.5" fill="#DADDE6"/>
<path d="M292.657 0H159.343C157.497 0 156 1.60453 156 3.58382V151.416C156 153.395 157.497 155 159.343 155H292.657C294.503 155 296 153.395 296 151.416V3.58382C296 1.60453 294.503 0 292.657 0Z" fill="#F3F4F7"/>
<g clip-path="url(#clip1_969_43600)">
<path d="M290.501 12H163.708C162.417 12 161.371 15.6736 161.371 20.2051V83.7949C161.371 88.3264 162.417 92 163.708 92H290.501C291.791 92 292.838 88.3264 292.838 83.7949V20.2051C292.838 15.6736 291.791 12 290.501 12Z" fill="#FCFCFC"/>
<ellipse cx="267.981" cy="105.827" rx="71.2571" ry="49.3827" fill="#DADDE6"/>
<ellipse cx="178.495" cy="101.383" rx="71.2571" ry="53.8272" fill="#B0B5C9"/>
</g>
<rect x="172" y="16" width="108" height="72" rx="4" stroke="#FCFCFC" stroke-width="8"/>
<circle cx="268" cy="28" r="8" fill="#9199B5"/>
<rect x="168" y="104" width="73" height="9" rx="4.5" fill="#B0B5C9"/>
<rect x="168" y="118" width="50" height="9" rx="4.5" fill="#DADDE6"/>
<path d="M448.657 0H315.343C313.497 0 312 1.60453 312 3.58382V151.416C312 153.395 313.497 155 315.343 155H448.657C450.503 155 452 153.395 452 151.416V3.58382C452 1.60453 450.503 0 448.657 0Z" fill="#F3F4F7"/>
<g clip-path="url(#clip2_969_43600)">
<path d="M446.501 12H319.708C318.417 12 317.371 15.6736 317.371 20.2051V83.7949C317.371 88.3264 318.417 92 319.708 92H446.501C447.791 92 448.838 88.3264 448.838 83.7949V20.2051C448.838 15.6736 447.791 12 446.501 12Z" fill="#FCFCFC"/>
<ellipse cx="423.981" cy="105.827" rx="71.2571" ry="49.3827" fill="#DADDE6"/>
<ellipse cx="334.495" cy="101.383" rx="71.2571" ry="53.8272" fill="#B0B5C9"/>
</g>
<rect x="328" y="16" width="108" height="72" rx="4" stroke="#FCFCFC" stroke-width="8"/>
<circle cx="424" cy="28" r="8" fill="#9199B5"/>
<rect x="324" y="104" width="73" height="9" rx="4.5" fill="#B0B5C9"/>
<rect x="324" y="118" width="50" height="9" rx="4.5" fill="#DADDE6"/>
<defs>
<clipPath id="clip0_969_43600">
<rect x="12" y="12" width="116" height="80" rx="8" fill="white"/>
</clipPath>
<clipPath id="clip1_969_43600">
<rect x="168" y="12" width="116" height="80" rx="8" fill="white"/>
</clipPath>
<clipPath id="clip2_969_43600">
<rect x="324" y="12" width="116" height="80" rx="8" fill="white"/>
</clipPath>
</defs>
</svg>
