<svg xmlns="http://www.w3.org/2000/svg" viewBox="0 0 40 47.77"><g data-name="Layer 2"><path d="M37.74 45.48l-3.64-2a6.37 6.37 0 01-2.59-1c-.65-.68-.63.35-.63.35l-.18-.69a13.76 13.76 0 01-3.13-1.46c-1.75-1.59-1.9-4.8-1.64-7.5a14.34 14.34 0 002.72-3l.2-.11a18.29 18.29 0 002.27-1.18 8.45 8.45 0 01-.89 2.28 4.42 4.42 0 01-1-.79 4 4 0 00.91.93l-.12.18c-.71 1-1.54-.28-1.54-.28a1.3 1.3 0 00.77.78c.33.23.71 0 1.09-.55a2.53 2.53 0 001.12.38 3.45 3.45 0 01-.14.34l.19-.34c1.69.07 2.15-3.09 2.27-4.75l.34-.5a12.38 12.38 0 002.29-3c-.42 1.22-.85 2.18-.85 2.18a19.08 19.08 0 001.15-2.82l.25-.61a23.58 23.58 0 01-1 2.64c2.09-4.19 1.64-6.7 1.64-6.7a13.13 13.13 0 00-.52-3.26C32.7-.43 26.85.12 26 0s-3.06 1.37-3.06 1.37S15.6-3.9 8.41 7.56a28.45 28.45 0 00-4.1 9.53 28 28 0 00-.64 1.6c-.52 1.38-.23 2.07.36 2.38a12.7 12.7 0 00.31 2v1.07a5.45 5.45 0 00-.33.95 1.37 1.37 0 00.29 1.42 1.94 1.94 0 000 .24 2.5 2.5 0 001.52 2.61 19.14 19.14 0 004.4 5.64q.58.77 1.26 1.56a35.8 35.8 0 01-1.09-1.41 28.33 28.33 0 003.7 2.8 24.62 24.62 0 01-4.32-3.78 6.72 6.72 0 01-.95-3.28c.59 1.77 1.91 4.71 4.47 6.3a5.52 5.52 0 01-2-2.66 2.84 2.84 0 001 .06A9.27 9.27 0 0015 32.92s-2.39 1.62-3.87 1a9.06 9.06 0 01-.21-3.49 2 2 0 00.25-.14 2.87 2.87 0 001.7-.29A15.09 15.09 0 0015 32.76c0 2.11-.1 4.82-1 6.27s-4.59 3.1-4.59 3.1l-.9.87-.51-.22c-.49-.16-1.46 1-1.46 1l-2.83.69L0 47.77h40v-.53c0-.5-2.26-1.76-2.26-1.76z" fill="#babab9" data-name="Layer 1"/></g></svg>