<svg xmlns="http://www.w3.org/2000/svg" viewBox="0 0 40 45.5"><g data-name="Layer 2"><path d="M37.73 43.23l-3.64-2a6.31 6.31 0 01-2.59-1c-.65-.68-.63.35-.63.35l-.18-.69a14 14 0 01-3.14-1.46A5.5 5.5 0 0126 35.34a6.32 6.32 0 003.5-.93l.43.21a7.66 7.66 0 01-2.57.64 11.42 11.42 0 003.67-.46 3.07 3.07 0 00.93-.36 9.3 9.3 0 004.33-5.5c3.43-11.77.1-18.2-1.27-20.19-.36-.53-.62-1.12-1-1.64C29 .1 26.31 1.17 25.34 1.37a.43.43 0 01-.36-.1C22-1.24 15.6.67 14.81 1.1c0 0-10.75 4.71-11.93 21.14C2.58 26.4 5 32.87 9 35.31a5.36 5.36 0 005.4.41 5 5 0 01-.4 1.07c-.87 1.39-4.59 3.1-4.59 3.1l-.87.82-.54-.17c-.49-.17-1.46 1-1.46 1l-2.84.67L0 45.5h40V45c0-.51-2.27-1.77-2.27-1.77z" fill="#babab9" data-name="Layer 1"/></g></svg>