<svg xmlns="http://www.w3.org/2000/svg" viewBox="0 0 40 45.5"><g data-name="Layer 2"><path d="M37.73 43.23l-3.64-2a6.22 6.22 0 01-2.59-1c-.65-.67-.63.36-.63.36l-.18-.69a14 14 0 01-3.14-1.46c-1.83-1.66-1.9-5.09-1.59-7.87 1.3-1.17 2.94-2.84 3-3.9a3.76 3.76 0 01.63-2.33s1.29-.23 2-2.83c.21-.82.32-3.13-.66-2.74.25-1.23.61-2.72 1.09-5.45a11.85 11.85 0 00-.08-5 10.59 10.59 0 01.59 2.27 7.38 7.38 0 00-1.65-4.82 10.08 10.08 0 00-4.13-3.62 7.07 7.07 0 012.25.91 8.9 8.9 0 00-4.4-1.79 16.79 16.79 0 00-4.43-.73 12.14 12.14 0 00-1.38 0A8.64 8.64 0 0122 0a8.76 8.76 0 00-4.18.69 6.06 6.06 0 00-2 .76A3.33 3.33 0 0117.1.09c-.7.12-1.39 1-1.9 1.83a3.38 3.38 0 00-1.11 1.66 2.68 2.68 0 00-.57-.1c-.72-.15-2.26-.38-3 .09a7.75 7.75 0 012.07 0A4.15 4.15 0 0010 5.15a5.4 5.4 0 00-1.69 2.28s.37-.43.81-.84a3.8 3.8 0 00-.18.47 1.29 1.29 0 00-.46.94 4.08 4.08 0 01.36-.52 5.75 5.75 0 00-.11 1 5.81 5.81 0 00-.36 2.64 8.68 8.68 0 01.35-2 12.72 12.72 0 00.11 1.34 8.42 8.42 0 00-.07 2s.05-.76.17-1.41a37.47 37.47 0 002.26 7.27c-.49-.14-1.36-.12-1.2 1.69s-.31.64 1 3.83c.58 1.35.92 1 1.06.68-.15.59-.2 2.39 2.87 5.65.07 2.15-.05 5.07-1 6.61-.87 1.38-4.59 3.1-4.59 3.1l-.87.82-.46-.16c-.49-.17-1.46 1-1.46 1l-2.84.67L0 45.5h40V45c0-.51-2.27-1.77-2.27-1.77z" fill="#babab9" data-name="Layer 1"/></g></svg>