<svg width="166" height="152" viewBox="0 0 166 152" fill="none" xmlns="http://www.w3.org/2000/svg">
<rect width="166" height="152" rx="16" fill="#F3F4F7"/>
<path d="M82.9969 33.0786V47.8843" stroke="#B0B5C9" stroke-width="8.1875" stroke-linecap="round" stroke-linejoin="round"/>
<path d="M26.4609 86.1748C26.4609 79.5474 31.8335 74.1748 38.4609 74.1748H127.544C134.172 74.1748 139.544 79.5474 139.544 86.1748V125.172H26.4609V86.1748Z" fill="#DADDE6"/>
<path fill-rule="evenodd" clip-rule="evenodd" d="M47.6016 125.039V64.97C47.6016 62.8448 48.7361 60.8825 50.5743 59.8281L80.0743 42.9073C81.8882 41.8669 84.1149 41.8669 85.9288 42.9073L115.429 59.8281C117.267 60.8825 118.402 62.8448 118.402 64.97V125.039" fill="#F3F4F7"/>
<path d="M47.6016 125.039V64.97C47.6016 62.8448 48.7361 60.8825 50.5743 59.8281L80.0743 42.9073C81.8882 41.8669 84.1149 41.8669 85.9288 42.9073L115.429 59.8281C117.267 60.8825 118.402 62.8448 118.402 64.97V125.039" stroke="#DADDE6" stroke-width="5" stroke-linecap="round" stroke-linejoin="round"/>
<path d="M62.3516 101.083H103.652" stroke="#B0B5C9" stroke-width="8.1875" stroke-linecap="round" stroke-linejoin="round"/>
<path d="M82.9969 101.349V125.038" stroke="#B0B5C9" stroke-width="8.1875" stroke-linecap="round" stroke-linejoin="round"/>
<path d="M100.7 101.349V125.038" stroke="#B0B5C9" stroke-width="8.1875" stroke-linecap="round" stroke-linejoin="round"/>
<path d="M65.3016 125.038V101.349" stroke="#B0B5C9" stroke-width="8.1875" stroke-linecap="round" stroke-linejoin="round"/>
<rect x="83" y="24" width="18.0278" height="12.3381" rx="2.72917" stroke="#B0B5C9" stroke-width="8.1875" stroke-linecap="round" stroke-linejoin="round"/>
<path d="M81.955 66.2532L81.9576 66.2506C82.5329 65.6877 83.4537 65.6992 84.0148 66.2763C84.576 66.8534 84.5651 67.7777 83.9906 68.3413C83.416 68.9049 82.4952 68.8946 81.9333 68.3182C81.3715 67.7418 81.3812 66.8175 81.955 66.2532" stroke="#B0B5C9" stroke-width="8.1875" stroke-linecap="round" stroke-linejoin="round"/>
<path d="M24 125.039H142" stroke="#B0B5C9" stroke-width="8.1875" stroke-linecap="round" stroke-linejoin="round"/>
</svg>
