<svg xmlns="http://www.w3.org/2000/svg" width="200" height="175"><g data-name="Group 700"><path data-name="Fill 3" d="M163.27 158.77s40.4-4.67 33.75-35.56-10.42-32.67 1.69-68.93-64.24-76.7-102.09-39.5-58.5 12.92-85.11 34.45-1.7 79.71 20.44 109.54 32.88 9.33 68.12 9.77a197.15 197.15 0 0063.2-9.77" fill="#f0e7e1"/><g data-name="Layer 2"><g data-name="Layer 1"><g data-name="Layer 2"><g data-name="Layer 1"><path data-name="Path 649" d="M23.12 67.54s37.28-21.8 71.41-15.67c17.43-8.88 38.83-18.53 71.41-15.68l20.83 86.45s-43.24-3.2-72.13 16.04c-19.05-4.52-52.85 3.36-71.61 14.92z" fill="#fcaa34"/><path data-name="Line 86" fill="#fcaa34" d="M95.38 55.69L115.52 145"/><path data-name="Path 650" d="M27.44 63.1s34.6-20.8 66.27-14.95c16.17-8.46 36.03-17.66 66.28-14.94l19.33 82.43s-40.13-3.05-66.95 15.29c-17.66-4.32-49.06 3.19-66.45 14.21z" fill="#f0e7e1" stroke="#000" stroke-miterlimit="10" stroke-width="3"/><path data-name="Path 661" d="M93.7 48.15l18.67 82.77" fill="#f0e7e1" stroke="#000" stroke-width="3"/><path data-name="Path 651" d="M40.32 69.2c11.11-6.56 26.87-12.11 44-11.19" fill="none" stroke="#fcaa34" stroke-miterlimit="10" stroke-width="4"/><path data-name="Path 652" d="M43.72 84.3c11.11-6.56 26.87-12.12 44-11.2" fill="none" stroke="#fcaa34" stroke-miterlimit="10" stroke-width="4"/><path data-name="Path 653" d="M47.13 99.7c11.1-6.56 26.86-12.12 44-11.2" fill="none" stroke="#fcaa34" stroke-miterlimit="10" stroke-width="4"/><path data-name="Path 654" d="M49.26 115.09c11.11-6.56 26.87-12.12 44-11.19" fill="none" stroke="#fcaa34" stroke-miterlimit="10" stroke-width="4"/><path data-name="Path 655" d="M53.36 130.17c11.11-6.56 26.87-12.12 44-11.2" fill="none" stroke="#fcaa34" stroke-miterlimit="10" stroke-width="4"/><path data-name="Path 656" d="M106.55 53.62c11.39-6.06 27.38-10.9 44.46-9.21" fill="none" stroke="#fcaa34" stroke-miterlimit="10" stroke-width="4"/><path data-name="Path 657" d="M109.27 68.85c11.4-6.06 27.38-10.9 44.46-9.21" fill="none" stroke="#fcaa34" stroke-miterlimit="10" stroke-width="4"/><path data-name="Path 658" d="M112 84.39c11.39-6.06 27.38-10.9 44.46-9.22" fill="none" stroke="#fcaa34" stroke-miterlimit="10" stroke-width="4"/><path data-name="Path 659" d="M113.43 99.86c11.39-6.05 27.38-10.9 44.46-9.21" fill="none" stroke="#fcaa34" stroke-miterlimit="10" stroke-width="4"/><path data-name="Path 660" d="M116.84 115.1c11.39-6.05 27.38-10.9 44.46-9.2" fill="none" stroke="#fcaa34" stroke-miterlimit="10" stroke-width="4"/></g></g></g></g></g></svg>