<svg xmlns="http://www.w3.org/2000/svg" width="200" height="175"><g data-name="Group 697"><g data-name="Group 465"><path data-name="Union 9" d="M68.11 173a20.58 20.58 0 01-8.57-3.1c-17.38-11.49-5.64-26.96-34.4-42.25-13.68-7.27-17.54-27.81-15.5-43.44C8.2 50.05 40.96-1.65 71.74.57c30.84 2.22 27.61 30.3 75.82 29.25s68.95 71.05 37.39 87.03-30.4 19.41-46.72 43.28c-8.48 12.4-27.13 15.37-43.1 15.37A153.63 153.63 0 0168.1 173z" fill="#d2ebe7" stroke="rgba(0,0,0,0)" stroke-miterlimit="10"/></g><path data-name="Path 662" d="M0 132.32l34.75-19.68L56 125.45l33.82-36.5 13.77 28.34 69.07-65.07 3.54 3.76 10.18-37.63-37.06 9.3 4.1 3.28-43.55 46.89-8.71-19.04-42.5 49.44-19.46-4.87z" fill="#fcaa34"/><path data-name="Path 663" d="M11.77 134.32l34.75-19.67 21.25 12.8 33.82-36.49 13.77 28.33 69.06-65.07 5.14 5.7 8.59-39.57-37.9 8.5 4.94 4.08-43.56 46.9-8.7-19.04-42.5 49.43-19.46-4.87z" fill="none" stroke="#000" stroke-miterlimit="10" stroke-width="3"/></g></svg>
